G04 #@! TF.GenerationSoftware,KiCad,Pcbnew,(5.1.2-1)-1*
G04 #@! TF.CreationDate,2023-07-05T23:23:31-04:00*
G04 #@! TF.ProjectId,AmpClassD_Daugher,416d7043-6c61-4737-9344-5f4461756768,rev?*
G04 #@! TF.SameCoordinates,Original*
G04 #@! TF.FileFunction,Soldermask,Bot*
G04 #@! TF.FilePolarity,Negative*
%FSLAX46Y46*%
G04 Gerber Fmt 4.6, Leading zero omitted, Abs format (unit mm)*
G04 Created by KiCad (PCBNEW (5.1.2-1)-1) date 2023-07-05 23:23:31*
%MOMM*%
%LPD*%
G04 APERTURE LIST*
%ADD10C,0.010000*%
%ADD11C,0.100000*%
G04 APERTURE END LIST*
D10*
G36*
X126103000Y-40063500D02*
G01*
X126103000Y-40444500D01*
X126230000Y-40444500D01*
X126230000Y-40825500D01*
X126357000Y-40825500D01*
X126357000Y-41206500D01*
X126484000Y-41206500D01*
X126484000Y-41460500D01*
X126611000Y-41460500D01*
X126611000Y-41587500D01*
X126738000Y-41587500D01*
X126738000Y-41714500D01*
X126865000Y-41714500D01*
X126865000Y-41968500D01*
X126992000Y-41968500D01*
X126992000Y-42095500D01*
X127881000Y-42095500D01*
X127881000Y-41968500D01*
X128008000Y-41968500D01*
X128008000Y-41460500D01*
X128135000Y-41460500D01*
X128135000Y-41587500D01*
X128262000Y-41587500D01*
X128262000Y-41714500D01*
X128643000Y-41714500D01*
X128643000Y-41460500D01*
X128770000Y-41460500D01*
X128770000Y-41079500D01*
X128897000Y-41079500D01*
X128897000Y-40952500D01*
X129786000Y-40952500D01*
X129786000Y-41206500D01*
X129913000Y-41206500D01*
X129913000Y-41333500D01*
X130167000Y-41333500D01*
X130167000Y-41206500D01*
X130294000Y-41206500D01*
X130294000Y-41079500D01*
X130421000Y-41079500D01*
X130421000Y-40952500D01*
X130548000Y-40952500D01*
X130548000Y-40825500D01*
X130675000Y-40825500D01*
X130675000Y-40444500D01*
X130928975Y-40444500D01*
X130929622Y-39935865D01*
X130930270Y-39427230D01*
X130866051Y-39427948D01*
X130801832Y-39428667D01*
X130802551Y-39364448D01*
X130803270Y-39300230D01*
X130739135Y-39300948D01*
X130675000Y-39301667D01*
X130675000Y-39047500D01*
X130548000Y-39047500D01*
X130548000Y-38920500D01*
X130294000Y-38920500D01*
X130294000Y-38793500D01*
X129913000Y-38793500D01*
X129913000Y-38539500D01*
X129659000Y-38539500D01*
X129659000Y-38666500D01*
X129532000Y-38666500D01*
X129532000Y-39047500D01*
X129786000Y-39047500D01*
X129786000Y-39174500D01*
X129532000Y-39174500D01*
X129532000Y-39047500D01*
X129024000Y-39047500D01*
X129024000Y-40190500D01*
X129278000Y-40190500D01*
X129278000Y-40444500D01*
X129151000Y-40444500D01*
X129151000Y-40317500D01*
X129024000Y-40317500D01*
X129024000Y-40190500D01*
X129024000Y-39047500D01*
X128897000Y-39047500D01*
X128897000Y-39174500D01*
X128770000Y-39174500D01*
X128770000Y-39301500D01*
X128643000Y-39301500D01*
X128643000Y-39936500D01*
X128770000Y-39936500D01*
X128770000Y-40063500D01*
X128643000Y-40063500D01*
X128643000Y-40190500D01*
X128008000Y-40190500D01*
X128008000Y-40571500D01*
X128135000Y-40571500D01*
X128135000Y-40952500D01*
X127881000Y-40952500D01*
X127881000Y-40825500D01*
X127754000Y-40825500D01*
X127754000Y-40698500D01*
X127627000Y-40698500D01*
X127627000Y-40571500D01*
X127500000Y-40571500D01*
X127500000Y-39428500D01*
X127627000Y-39428500D01*
X127627000Y-39301500D01*
X127754000Y-39301500D01*
X127754000Y-39047500D01*
X127881000Y-39047500D01*
X127881000Y-38793500D01*
X127627000Y-38793500D01*
X127627000Y-38920500D01*
X127373000Y-38920500D01*
X127373000Y-39174500D01*
X127246000Y-39174500D01*
X127246000Y-39301500D01*
X127246000Y-41587500D01*
X127373000Y-41587500D01*
X127373000Y-41714500D01*
X127500000Y-41714500D01*
X127500000Y-41968500D01*
X127373000Y-41968500D01*
X127373000Y-41841500D01*
X127246000Y-41841500D01*
X127246000Y-41587500D01*
X127246000Y-39301500D01*
X127119000Y-39301500D01*
X127119000Y-39428500D01*
X126992000Y-39428500D01*
X126992000Y-39809500D01*
X126865000Y-39809500D01*
X126865000Y-40571500D01*
X126738000Y-40571500D01*
X126738000Y-39301500D01*
X126865000Y-39301500D01*
X126865000Y-38920500D01*
X126992000Y-38920500D01*
X126992000Y-38539500D01*
X126865000Y-38539500D01*
X126865000Y-38666500D01*
X126738000Y-38666500D01*
X126738000Y-38793500D01*
X126611000Y-38793500D01*
X126611000Y-38920500D01*
X126357000Y-38920500D01*
X126357000Y-39174500D01*
X126230000Y-39174500D01*
X126230000Y-39301500D01*
X126103000Y-39301500D01*
X126103000Y-39682500D01*
X125976000Y-39682500D01*
X125976000Y-40063500D01*
X126103000Y-40063500D01*
X126103000Y-40063500D01*
G37*
X126103000Y-40063500D02*
X126103000Y-40444500D01*
X126230000Y-40444500D01*
X126230000Y-40825500D01*
X126357000Y-40825500D01*
X126357000Y-41206500D01*
X126484000Y-41206500D01*
X126484000Y-41460500D01*
X126611000Y-41460500D01*
X126611000Y-41587500D01*
X126738000Y-41587500D01*
X126738000Y-41714500D01*
X126865000Y-41714500D01*
X126865000Y-41968500D01*
X126992000Y-41968500D01*
X126992000Y-42095500D01*
X127881000Y-42095500D01*
X127881000Y-41968500D01*
X128008000Y-41968500D01*
X128008000Y-41460500D01*
X128135000Y-41460500D01*
X128135000Y-41587500D01*
X128262000Y-41587500D01*
X128262000Y-41714500D01*
X128643000Y-41714500D01*
X128643000Y-41460500D01*
X128770000Y-41460500D01*
X128770000Y-41079500D01*
X128897000Y-41079500D01*
X128897000Y-40952500D01*
X129786000Y-40952500D01*
X129786000Y-41206500D01*
X129913000Y-41206500D01*
X129913000Y-41333500D01*
X130167000Y-41333500D01*
X130167000Y-41206500D01*
X130294000Y-41206500D01*
X130294000Y-41079500D01*
X130421000Y-41079500D01*
X130421000Y-40952500D01*
X130548000Y-40952500D01*
X130548000Y-40825500D01*
X130675000Y-40825500D01*
X130675000Y-40444500D01*
X130928975Y-40444500D01*
X130929622Y-39935865D01*
X130930270Y-39427230D01*
X130866051Y-39427948D01*
X130801832Y-39428667D01*
X130802551Y-39364448D01*
X130803270Y-39300230D01*
X130739135Y-39300948D01*
X130675000Y-39301667D01*
X130675000Y-39047500D01*
X130548000Y-39047500D01*
X130548000Y-38920500D01*
X130294000Y-38920500D01*
X130294000Y-38793500D01*
X129913000Y-38793500D01*
X129913000Y-38539500D01*
X129659000Y-38539500D01*
X129659000Y-38666500D01*
X129532000Y-38666500D01*
X129532000Y-39047500D01*
X129786000Y-39047500D01*
X129786000Y-39174500D01*
X129532000Y-39174500D01*
X129532000Y-39047500D01*
X129024000Y-39047500D01*
X129024000Y-40190500D01*
X129278000Y-40190500D01*
X129278000Y-40444500D01*
X129151000Y-40444500D01*
X129151000Y-40317500D01*
X129024000Y-40317500D01*
X129024000Y-40190500D01*
X129024000Y-39047500D01*
X128897000Y-39047500D01*
X128897000Y-39174500D01*
X128770000Y-39174500D01*
X128770000Y-39301500D01*
X128643000Y-39301500D01*
X128643000Y-39936500D01*
X128770000Y-39936500D01*
X128770000Y-40063500D01*
X128643000Y-40063500D01*
X128643000Y-40190500D01*
X128008000Y-40190500D01*
X128008000Y-40571500D01*
X128135000Y-40571500D01*
X128135000Y-40952500D01*
X127881000Y-40952500D01*
X127881000Y-40825500D01*
X127754000Y-40825500D01*
X127754000Y-40698500D01*
X127627000Y-40698500D01*
X127627000Y-40571500D01*
X127500000Y-40571500D01*
X127500000Y-39428500D01*
X127627000Y-39428500D01*
X127627000Y-39301500D01*
X127754000Y-39301500D01*
X127754000Y-39047500D01*
X127881000Y-39047500D01*
X127881000Y-38793500D01*
X127627000Y-38793500D01*
X127627000Y-38920500D01*
X127373000Y-38920500D01*
X127373000Y-39174500D01*
X127246000Y-39174500D01*
X127246000Y-39301500D01*
X127246000Y-41587500D01*
X127373000Y-41587500D01*
X127373000Y-41714500D01*
X127500000Y-41714500D01*
X127500000Y-41968500D01*
X127373000Y-41968500D01*
X127373000Y-41841500D01*
X127246000Y-41841500D01*
X127246000Y-41587500D01*
X127246000Y-39301500D01*
X127119000Y-39301500D01*
X127119000Y-39428500D01*
X126992000Y-39428500D01*
X126992000Y-39809500D01*
X126865000Y-39809500D01*
X126865000Y-40571500D01*
X126738000Y-40571500D01*
X126738000Y-39301500D01*
X126865000Y-39301500D01*
X126865000Y-38920500D01*
X126992000Y-38920500D01*
X126992000Y-38539500D01*
X126865000Y-38539500D01*
X126865000Y-38666500D01*
X126738000Y-38666500D01*
X126738000Y-38793500D01*
X126611000Y-38793500D01*
X126611000Y-38920500D01*
X126357000Y-38920500D01*
X126357000Y-39174500D01*
X126230000Y-39174500D01*
X126230000Y-39301500D01*
X126103000Y-39301500D01*
X126103000Y-39682500D01*
X125976000Y-39682500D01*
X125976000Y-40063500D01*
X126103000Y-40063500D01*
G36*
X126103000Y-90063500D02*
G01*
X126103000Y-90444500D01*
X126230000Y-90444500D01*
X126230000Y-90825500D01*
X126357000Y-90825500D01*
X126357000Y-91206500D01*
X126484000Y-91206500D01*
X126484000Y-91460500D01*
X126611000Y-91460500D01*
X126611000Y-91587500D01*
X126738000Y-91587500D01*
X126738000Y-91714500D01*
X126865000Y-91714500D01*
X126865000Y-91968500D01*
X126992000Y-91968500D01*
X126992000Y-92095500D01*
X127881000Y-92095500D01*
X127881000Y-91968500D01*
X128008000Y-91968500D01*
X128008000Y-91460500D01*
X128135000Y-91460500D01*
X128135000Y-91587500D01*
X128262000Y-91587500D01*
X128262000Y-91714500D01*
X128643000Y-91714500D01*
X128643000Y-91460500D01*
X128770000Y-91460500D01*
X128770000Y-91079500D01*
X128897000Y-91079500D01*
X128897000Y-90952500D01*
X129786000Y-90952500D01*
X129786000Y-91206500D01*
X129913000Y-91206500D01*
X129913000Y-91333500D01*
X130167000Y-91333500D01*
X130167000Y-91206500D01*
X130294000Y-91206500D01*
X130294000Y-91079500D01*
X130421000Y-91079500D01*
X130421000Y-90952500D01*
X130548000Y-90952500D01*
X130548000Y-90825500D01*
X130675000Y-90825500D01*
X130675000Y-90444500D01*
X130928975Y-90444500D01*
X130929622Y-89935865D01*
X130930270Y-89427230D01*
X130866051Y-89427948D01*
X130801832Y-89428667D01*
X130802551Y-89364448D01*
X130803270Y-89300230D01*
X130739135Y-89300948D01*
X130675000Y-89301667D01*
X130675000Y-89047500D01*
X130548000Y-89047500D01*
X130548000Y-88920500D01*
X130294000Y-88920500D01*
X130294000Y-88793500D01*
X129913000Y-88793500D01*
X129913000Y-88539500D01*
X129659000Y-88539500D01*
X129659000Y-88666500D01*
X129532000Y-88666500D01*
X129532000Y-89047500D01*
X129786000Y-89047500D01*
X129786000Y-89174500D01*
X129532000Y-89174500D01*
X129532000Y-89047500D01*
X129024000Y-89047500D01*
X129024000Y-90190500D01*
X129278000Y-90190500D01*
X129278000Y-90444500D01*
X129151000Y-90444500D01*
X129151000Y-90317500D01*
X129024000Y-90317500D01*
X129024000Y-90190500D01*
X129024000Y-89047500D01*
X128897000Y-89047500D01*
X128897000Y-89174500D01*
X128770000Y-89174500D01*
X128770000Y-89301500D01*
X128643000Y-89301500D01*
X128643000Y-89936500D01*
X128770000Y-89936500D01*
X128770000Y-90063500D01*
X128643000Y-90063500D01*
X128643000Y-90190500D01*
X128008000Y-90190500D01*
X128008000Y-90571500D01*
X128135000Y-90571500D01*
X128135000Y-90952500D01*
X127881000Y-90952500D01*
X127881000Y-90825500D01*
X127754000Y-90825500D01*
X127754000Y-90698500D01*
X127627000Y-90698500D01*
X127627000Y-90571500D01*
X127500000Y-90571500D01*
X127500000Y-89428500D01*
X127627000Y-89428500D01*
X127627000Y-89301500D01*
X127754000Y-89301500D01*
X127754000Y-89047500D01*
X127881000Y-89047500D01*
X127881000Y-88793500D01*
X127627000Y-88793500D01*
X127627000Y-88920500D01*
X127373000Y-88920500D01*
X127373000Y-89174500D01*
X127246000Y-89174500D01*
X127246000Y-89301500D01*
X127246000Y-91587500D01*
X127373000Y-91587500D01*
X127373000Y-91714500D01*
X127500000Y-91714500D01*
X127500000Y-91968500D01*
X127373000Y-91968500D01*
X127373000Y-91841500D01*
X127246000Y-91841500D01*
X127246000Y-91587500D01*
X127246000Y-89301500D01*
X127119000Y-89301500D01*
X127119000Y-89428500D01*
X126992000Y-89428500D01*
X126992000Y-89809500D01*
X126865000Y-89809500D01*
X126865000Y-90571500D01*
X126738000Y-90571500D01*
X126738000Y-89301500D01*
X126865000Y-89301500D01*
X126865000Y-88920500D01*
X126992000Y-88920500D01*
X126992000Y-88539500D01*
X126865000Y-88539500D01*
X126865000Y-88666500D01*
X126738000Y-88666500D01*
X126738000Y-88793500D01*
X126611000Y-88793500D01*
X126611000Y-88920500D01*
X126357000Y-88920500D01*
X126357000Y-89174500D01*
X126230000Y-89174500D01*
X126230000Y-89301500D01*
X126103000Y-89301500D01*
X126103000Y-89682500D01*
X125976000Y-89682500D01*
X125976000Y-90063500D01*
X126103000Y-90063500D01*
X126103000Y-90063500D01*
G37*
X126103000Y-90063500D02*
X126103000Y-90444500D01*
X126230000Y-90444500D01*
X126230000Y-90825500D01*
X126357000Y-90825500D01*
X126357000Y-91206500D01*
X126484000Y-91206500D01*
X126484000Y-91460500D01*
X126611000Y-91460500D01*
X126611000Y-91587500D01*
X126738000Y-91587500D01*
X126738000Y-91714500D01*
X126865000Y-91714500D01*
X126865000Y-91968500D01*
X126992000Y-91968500D01*
X126992000Y-92095500D01*
X127881000Y-92095500D01*
X127881000Y-91968500D01*
X128008000Y-91968500D01*
X128008000Y-91460500D01*
X128135000Y-91460500D01*
X128135000Y-91587500D01*
X128262000Y-91587500D01*
X128262000Y-91714500D01*
X128643000Y-91714500D01*
X128643000Y-91460500D01*
X128770000Y-91460500D01*
X128770000Y-91079500D01*
X128897000Y-91079500D01*
X128897000Y-90952500D01*
X129786000Y-90952500D01*
X129786000Y-91206500D01*
X129913000Y-91206500D01*
X129913000Y-91333500D01*
X130167000Y-91333500D01*
X130167000Y-91206500D01*
X130294000Y-91206500D01*
X130294000Y-91079500D01*
X130421000Y-91079500D01*
X130421000Y-90952500D01*
X130548000Y-90952500D01*
X130548000Y-90825500D01*
X130675000Y-90825500D01*
X130675000Y-90444500D01*
X130928975Y-90444500D01*
X130929622Y-89935865D01*
X130930270Y-89427230D01*
X130866051Y-89427948D01*
X130801832Y-89428667D01*
X130802551Y-89364448D01*
X130803270Y-89300230D01*
X130739135Y-89300948D01*
X130675000Y-89301667D01*
X130675000Y-89047500D01*
X130548000Y-89047500D01*
X130548000Y-88920500D01*
X130294000Y-88920500D01*
X130294000Y-88793500D01*
X129913000Y-88793500D01*
X129913000Y-88539500D01*
X129659000Y-88539500D01*
X129659000Y-88666500D01*
X129532000Y-88666500D01*
X129532000Y-89047500D01*
X129786000Y-89047500D01*
X129786000Y-89174500D01*
X129532000Y-89174500D01*
X129532000Y-89047500D01*
X129024000Y-89047500D01*
X129024000Y-90190500D01*
X129278000Y-90190500D01*
X129278000Y-90444500D01*
X129151000Y-90444500D01*
X129151000Y-90317500D01*
X129024000Y-90317500D01*
X129024000Y-90190500D01*
X129024000Y-89047500D01*
X128897000Y-89047500D01*
X128897000Y-89174500D01*
X128770000Y-89174500D01*
X128770000Y-89301500D01*
X128643000Y-89301500D01*
X128643000Y-89936500D01*
X128770000Y-89936500D01*
X128770000Y-90063500D01*
X128643000Y-90063500D01*
X128643000Y-90190500D01*
X128008000Y-90190500D01*
X128008000Y-90571500D01*
X128135000Y-90571500D01*
X128135000Y-90952500D01*
X127881000Y-90952500D01*
X127881000Y-90825500D01*
X127754000Y-90825500D01*
X127754000Y-90698500D01*
X127627000Y-90698500D01*
X127627000Y-90571500D01*
X127500000Y-90571500D01*
X127500000Y-89428500D01*
X127627000Y-89428500D01*
X127627000Y-89301500D01*
X127754000Y-89301500D01*
X127754000Y-89047500D01*
X127881000Y-89047500D01*
X127881000Y-88793500D01*
X127627000Y-88793500D01*
X127627000Y-88920500D01*
X127373000Y-88920500D01*
X127373000Y-89174500D01*
X127246000Y-89174500D01*
X127246000Y-89301500D01*
X127246000Y-91587500D01*
X127373000Y-91587500D01*
X127373000Y-91714500D01*
X127500000Y-91714500D01*
X127500000Y-91968500D01*
X127373000Y-91968500D01*
X127373000Y-91841500D01*
X127246000Y-91841500D01*
X127246000Y-91587500D01*
X127246000Y-89301500D01*
X127119000Y-89301500D01*
X127119000Y-89428500D01*
X126992000Y-89428500D01*
X126992000Y-89809500D01*
X126865000Y-89809500D01*
X126865000Y-90571500D01*
X126738000Y-90571500D01*
X126738000Y-89301500D01*
X126865000Y-89301500D01*
X126865000Y-88920500D01*
X126992000Y-88920500D01*
X126992000Y-88539500D01*
X126865000Y-88539500D01*
X126865000Y-88666500D01*
X126738000Y-88666500D01*
X126738000Y-88793500D01*
X126611000Y-88793500D01*
X126611000Y-88920500D01*
X126357000Y-88920500D01*
X126357000Y-89174500D01*
X126230000Y-89174500D01*
X126230000Y-89301500D01*
X126103000Y-89301500D01*
X126103000Y-89682500D01*
X125976000Y-89682500D01*
X125976000Y-90063500D01*
X126103000Y-90063500D01*
D11*
G36*
X144204473Y-93325938D02*
G01*
X144332049Y-93378782D01*
X144446859Y-93455495D01*
X144544505Y-93553141D01*
X144621218Y-93667951D01*
X144674062Y-93795527D01*
X144701000Y-93930956D01*
X144701000Y-94069044D01*
X144674062Y-94204473D01*
X144621218Y-94332049D01*
X144544505Y-94446859D01*
X144446859Y-94544505D01*
X144332049Y-94621218D01*
X144204473Y-94674062D01*
X144069044Y-94701000D01*
X143930956Y-94701000D01*
X143795527Y-94674062D01*
X143667951Y-94621218D01*
X143553141Y-94544505D01*
X143455495Y-94446859D01*
X143378782Y-94332049D01*
X143325938Y-94204473D01*
X143299000Y-94069044D01*
X143299000Y-93930956D01*
X143325938Y-93795527D01*
X143378782Y-93667951D01*
X143455495Y-93553141D01*
X143553141Y-93455495D01*
X143667951Y-93378782D01*
X143795527Y-93325938D01*
X143930956Y-93299000D01*
X144069044Y-93299000D01*
X144204473Y-93325938D01*
X144204473Y-93325938D01*
G37*
G36*
X66204473Y-93325938D02*
G01*
X66332049Y-93378782D01*
X66446859Y-93455495D01*
X66544505Y-93553141D01*
X66621218Y-93667951D01*
X66674062Y-93795527D01*
X66701000Y-93930956D01*
X66701000Y-94069044D01*
X66674062Y-94204473D01*
X66621218Y-94332049D01*
X66544505Y-94446859D01*
X66446859Y-94544505D01*
X66332049Y-94621218D01*
X66204473Y-94674062D01*
X66069044Y-94701000D01*
X65930956Y-94701000D01*
X65795527Y-94674062D01*
X65667951Y-94621218D01*
X65553141Y-94544505D01*
X65455495Y-94446859D01*
X65378782Y-94332049D01*
X65325938Y-94204473D01*
X65299000Y-94069044D01*
X65299000Y-93930956D01*
X65325938Y-93795527D01*
X65378782Y-93667951D01*
X65455495Y-93553141D01*
X65553141Y-93455495D01*
X65667951Y-93378782D01*
X65795527Y-93325938D01*
X65930956Y-93299000D01*
X66069044Y-93299000D01*
X66204473Y-93325938D01*
X66204473Y-93325938D01*
G37*
G36*
X140591318Y-87465052D02*
G01*
X140758859Y-87498378D01*
X141232320Y-87694492D01*
X141658423Y-87979205D01*
X142020795Y-88341577D01*
X142305508Y-88767680D01*
X142501622Y-89241141D01*
X142601600Y-89743765D01*
X142601600Y-90256235D01*
X142501622Y-90758859D01*
X142305508Y-91232320D01*
X142020795Y-91658423D01*
X141658423Y-92020795D01*
X141232320Y-92305508D01*
X140758859Y-92501622D01*
X140591318Y-92534948D01*
X140256237Y-92601600D01*
X139743763Y-92601600D01*
X139408682Y-92534948D01*
X139241141Y-92501622D01*
X138767680Y-92305508D01*
X138341577Y-92020795D01*
X137979205Y-91658423D01*
X137694492Y-91232320D01*
X137498378Y-90758859D01*
X137398400Y-90256235D01*
X137398400Y-89743765D01*
X137498378Y-89241141D01*
X137694492Y-88767680D01*
X137979205Y-88341577D01*
X138341577Y-87979205D01*
X138767680Y-87694492D01*
X139241141Y-87498378D01*
X139408682Y-87465052D01*
X139743763Y-87398400D01*
X140256237Y-87398400D01*
X140591318Y-87465052D01*
X140591318Y-87465052D01*
G37*
G36*
X70591318Y-87465052D02*
G01*
X70758859Y-87498378D01*
X71232320Y-87694492D01*
X71658423Y-87979205D01*
X72020795Y-88341577D01*
X72305508Y-88767680D01*
X72501622Y-89241141D01*
X72601600Y-89743765D01*
X72601600Y-90256235D01*
X72501622Y-90758859D01*
X72305508Y-91232320D01*
X72020795Y-91658423D01*
X71658423Y-92020795D01*
X71232320Y-92305508D01*
X70758859Y-92501622D01*
X70591318Y-92534948D01*
X70256237Y-92601600D01*
X69743763Y-92601600D01*
X69408682Y-92534948D01*
X69241141Y-92501622D01*
X68767680Y-92305508D01*
X68341577Y-92020795D01*
X67979205Y-91658423D01*
X67694492Y-91232320D01*
X67498378Y-90758859D01*
X67398400Y-90256235D01*
X67398400Y-89743765D01*
X67498378Y-89241141D01*
X67694492Y-88767680D01*
X67979205Y-88341577D01*
X68341577Y-87979205D01*
X68767680Y-87694492D01*
X69241141Y-87498378D01*
X69408682Y-87465052D01*
X69743763Y-87398400D01*
X70256237Y-87398400D01*
X70591318Y-87465052D01*
X70591318Y-87465052D01*
G37*
G36*
X129360442Y-80625518D02*
G01*
X129426627Y-80632037D01*
X129596466Y-80683557D01*
X129752991Y-80767222D01*
X129788729Y-80796552D01*
X129890186Y-80879814D01*
X129973448Y-80981271D01*
X130002778Y-81017009D01*
X130086443Y-81173534D01*
X130137963Y-81343373D01*
X130155359Y-81520000D01*
X130137963Y-81696627D01*
X130086443Y-81866466D01*
X130002778Y-82022991D01*
X129973448Y-82058729D01*
X129890186Y-82160186D01*
X129788729Y-82243448D01*
X129752991Y-82272778D01*
X129596466Y-82356443D01*
X129426627Y-82407963D01*
X129360443Y-82414481D01*
X129294260Y-82421000D01*
X129205740Y-82421000D01*
X129139557Y-82414481D01*
X129073373Y-82407963D01*
X128903534Y-82356443D01*
X128747009Y-82272778D01*
X128711271Y-82243448D01*
X128609814Y-82160186D01*
X128526552Y-82058729D01*
X128497222Y-82022991D01*
X128413557Y-81866466D01*
X128362037Y-81696627D01*
X128344641Y-81520000D01*
X128362037Y-81343373D01*
X128413557Y-81173534D01*
X128497222Y-81017009D01*
X128526552Y-80981271D01*
X128609814Y-80879814D01*
X128711271Y-80796552D01*
X128747009Y-80767222D01*
X128903534Y-80683557D01*
X129073373Y-80632037D01*
X129139558Y-80625518D01*
X129205740Y-80619000D01*
X129294260Y-80619000D01*
X129360442Y-80625518D01*
X129360442Y-80625518D01*
G37*
G36*
X81360442Y-80625518D02*
G01*
X81426627Y-80632037D01*
X81596466Y-80683557D01*
X81752991Y-80767222D01*
X81788729Y-80796552D01*
X81890186Y-80879814D01*
X81973448Y-80981271D01*
X82002778Y-81017009D01*
X82086443Y-81173534D01*
X82137963Y-81343373D01*
X82155359Y-81520000D01*
X82137963Y-81696627D01*
X82086443Y-81866466D01*
X82002778Y-82022991D01*
X81973448Y-82058729D01*
X81890186Y-82160186D01*
X81788729Y-82243448D01*
X81752991Y-82272778D01*
X81596466Y-82356443D01*
X81426627Y-82407963D01*
X81360443Y-82414481D01*
X81294260Y-82421000D01*
X81205740Y-82421000D01*
X81139557Y-82414481D01*
X81073373Y-82407963D01*
X80903534Y-82356443D01*
X80747009Y-82272778D01*
X80711271Y-82243448D01*
X80609814Y-82160186D01*
X80526552Y-82058729D01*
X80497222Y-82022991D01*
X80413557Y-81866466D01*
X80362037Y-81696627D01*
X80344641Y-81520000D01*
X80362037Y-81343373D01*
X80413557Y-81173534D01*
X80497222Y-81017009D01*
X80526552Y-80981271D01*
X80609814Y-80879814D01*
X80711271Y-80796552D01*
X80747009Y-80767222D01*
X80903534Y-80683557D01*
X81073373Y-80632037D01*
X81139558Y-80625518D01*
X81205740Y-80619000D01*
X81294260Y-80619000D01*
X81360442Y-80625518D01*
X81360442Y-80625518D01*
G37*
G36*
X72189890Y-79374017D02*
G01*
X72308364Y-79423091D01*
X72414988Y-79494335D01*
X72505665Y-79585012D01*
X72576909Y-79691636D01*
X72625983Y-79810110D01*
X72651000Y-79935882D01*
X72651000Y-80064118D01*
X72625983Y-80189890D01*
X72576909Y-80308364D01*
X72505665Y-80414988D01*
X72414988Y-80505665D01*
X72308364Y-80576909D01*
X72308363Y-80576910D01*
X72308362Y-80576910D01*
X72189890Y-80625983D01*
X72064119Y-80651000D01*
X71935881Y-80651000D01*
X71810110Y-80625983D01*
X71691638Y-80576910D01*
X71691637Y-80576910D01*
X71691636Y-80576909D01*
X71585012Y-80505665D01*
X71494335Y-80414988D01*
X71423091Y-80308364D01*
X71374017Y-80189890D01*
X71349000Y-80064118D01*
X71349000Y-79935882D01*
X71374017Y-79810110D01*
X71423091Y-79691636D01*
X71494335Y-79585012D01*
X71585012Y-79494335D01*
X71691636Y-79423091D01*
X71810110Y-79374017D01*
X71935881Y-79349000D01*
X72064119Y-79349000D01*
X72189890Y-79374017D01*
X72189890Y-79374017D01*
G37*
G36*
X138710915Y-78457934D02*
G01*
X138743424Y-78467795D01*
X138773382Y-78483809D01*
X138799641Y-78505359D01*
X138821191Y-78531618D01*
X138837205Y-78561576D01*
X138847066Y-78594085D01*
X138851000Y-78634029D01*
X138851000Y-80175971D01*
X138847066Y-80215915D01*
X138837205Y-80248424D01*
X138821191Y-80278382D01*
X138799641Y-80304641D01*
X138773382Y-80326191D01*
X138743424Y-80342205D01*
X138710915Y-80352066D01*
X138670971Y-80356000D01*
X135329029Y-80356000D01*
X135289085Y-80352066D01*
X135256576Y-80342205D01*
X135226618Y-80326191D01*
X135200359Y-80304641D01*
X135178809Y-80278382D01*
X135162795Y-80248424D01*
X135152934Y-80215915D01*
X135149000Y-80175971D01*
X135149000Y-78634029D01*
X135152934Y-78594085D01*
X135162795Y-78561576D01*
X135178809Y-78531618D01*
X135200359Y-78505359D01*
X135226618Y-78483809D01*
X135256576Y-78467795D01*
X135289085Y-78457934D01*
X135329029Y-78454000D01*
X138670971Y-78454000D01*
X138710915Y-78457934D01*
X138710915Y-78457934D01*
G37*
G36*
X129360442Y-78085518D02*
G01*
X129426627Y-78092037D01*
X129596466Y-78143557D01*
X129752991Y-78227222D01*
X129788729Y-78256552D01*
X129890186Y-78339814D01*
X129973448Y-78441271D01*
X130002778Y-78477009D01*
X130086443Y-78633534D01*
X130137963Y-78803373D01*
X130155359Y-78980000D01*
X130137963Y-79156627D01*
X130086443Y-79326466D01*
X130002778Y-79482991D01*
X129993468Y-79494335D01*
X129890186Y-79620186D01*
X129803120Y-79691638D01*
X129752991Y-79732778D01*
X129596466Y-79816443D01*
X129426627Y-79867963D01*
X129360442Y-79874482D01*
X129294260Y-79881000D01*
X129205740Y-79881000D01*
X129139558Y-79874482D01*
X129073373Y-79867963D01*
X128903534Y-79816443D01*
X128747009Y-79732778D01*
X128696880Y-79691638D01*
X128609814Y-79620186D01*
X128506532Y-79494335D01*
X128497222Y-79482991D01*
X128413557Y-79326466D01*
X128362037Y-79156627D01*
X128344641Y-78980000D01*
X128362037Y-78803373D01*
X128413557Y-78633534D01*
X128497222Y-78477009D01*
X128526552Y-78441271D01*
X128609814Y-78339814D01*
X128711271Y-78256552D01*
X128747009Y-78227222D01*
X128903534Y-78143557D01*
X129073373Y-78092037D01*
X129139558Y-78085518D01*
X129205740Y-78079000D01*
X129294260Y-78079000D01*
X129360442Y-78085518D01*
X129360442Y-78085518D01*
G37*
G36*
X81360442Y-78085518D02*
G01*
X81426627Y-78092037D01*
X81596466Y-78143557D01*
X81752991Y-78227222D01*
X81788729Y-78256552D01*
X81890186Y-78339814D01*
X81973448Y-78441271D01*
X82002778Y-78477009D01*
X82086443Y-78633534D01*
X82137963Y-78803373D01*
X82155359Y-78980000D01*
X82137963Y-79156627D01*
X82086443Y-79326466D01*
X82002778Y-79482991D01*
X81993468Y-79494335D01*
X81890186Y-79620186D01*
X81803120Y-79691638D01*
X81752991Y-79732778D01*
X81596466Y-79816443D01*
X81426627Y-79867963D01*
X81360442Y-79874482D01*
X81294260Y-79881000D01*
X81205740Y-79881000D01*
X81139558Y-79874482D01*
X81073373Y-79867963D01*
X80903534Y-79816443D01*
X80747009Y-79732778D01*
X80696880Y-79691638D01*
X80609814Y-79620186D01*
X80506532Y-79494335D01*
X80497222Y-79482991D01*
X80413557Y-79326466D01*
X80362037Y-79156627D01*
X80344641Y-78980000D01*
X80362037Y-78803373D01*
X80413557Y-78633534D01*
X80497222Y-78477009D01*
X80526552Y-78441271D01*
X80609814Y-78339814D01*
X80711271Y-78256552D01*
X80747009Y-78227222D01*
X80903534Y-78143557D01*
X81073373Y-78092037D01*
X81139558Y-78085518D01*
X81205740Y-78079000D01*
X81294260Y-78079000D01*
X81360442Y-78085518D01*
X81360442Y-78085518D01*
G37*
G36*
X129360442Y-75545518D02*
G01*
X129426627Y-75552037D01*
X129596466Y-75603557D01*
X129752991Y-75687222D01*
X129788729Y-75716552D01*
X129890186Y-75799814D01*
X129973448Y-75901271D01*
X130002778Y-75937009D01*
X130086443Y-76093534D01*
X130137963Y-76263373D01*
X130155359Y-76440000D01*
X130137963Y-76616627D01*
X130086443Y-76786466D01*
X130002778Y-76942991D01*
X129973448Y-76978729D01*
X129890186Y-77080186D01*
X129788729Y-77163448D01*
X129752991Y-77192778D01*
X129596466Y-77276443D01*
X129426627Y-77327963D01*
X129360442Y-77334482D01*
X129294260Y-77341000D01*
X129205740Y-77341000D01*
X129139558Y-77334482D01*
X129073373Y-77327963D01*
X128903534Y-77276443D01*
X128747009Y-77192778D01*
X128711271Y-77163448D01*
X128609814Y-77080186D01*
X128526552Y-76978729D01*
X128497222Y-76942991D01*
X128413557Y-76786466D01*
X128362037Y-76616627D01*
X128344641Y-76440000D01*
X128362037Y-76263373D01*
X128413557Y-76093534D01*
X128497222Y-75937009D01*
X128526552Y-75901271D01*
X128609814Y-75799814D01*
X128711271Y-75716552D01*
X128747009Y-75687222D01*
X128903534Y-75603557D01*
X129073373Y-75552037D01*
X129139558Y-75545518D01*
X129205740Y-75539000D01*
X129294260Y-75539000D01*
X129360442Y-75545518D01*
X129360442Y-75545518D01*
G37*
G36*
X81360442Y-75545518D02*
G01*
X81426627Y-75552037D01*
X81596466Y-75603557D01*
X81752991Y-75687222D01*
X81788729Y-75716552D01*
X81890186Y-75799814D01*
X81973448Y-75901271D01*
X82002778Y-75937009D01*
X82086443Y-76093534D01*
X82137963Y-76263373D01*
X82155359Y-76440000D01*
X82137963Y-76616627D01*
X82086443Y-76786466D01*
X82002778Y-76942991D01*
X81973448Y-76978729D01*
X81890186Y-77080186D01*
X81788729Y-77163448D01*
X81752991Y-77192778D01*
X81596466Y-77276443D01*
X81426627Y-77327963D01*
X81360442Y-77334482D01*
X81294260Y-77341000D01*
X81205740Y-77341000D01*
X81139558Y-77334482D01*
X81073373Y-77327963D01*
X80903534Y-77276443D01*
X80747009Y-77192778D01*
X80711271Y-77163448D01*
X80609814Y-77080186D01*
X80526552Y-76978729D01*
X80497222Y-76942991D01*
X80413557Y-76786466D01*
X80362037Y-76616627D01*
X80344641Y-76440000D01*
X80362037Y-76263373D01*
X80413557Y-76093534D01*
X80497222Y-75937009D01*
X80526552Y-75901271D01*
X80609814Y-75799814D01*
X80711271Y-75716552D01*
X80747009Y-75687222D01*
X80903534Y-75603557D01*
X81073373Y-75552037D01*
X81139558Y-75545518D01*
X81205740Y-75539000D01*
X81294260Y-75539000D01*
X81360442Y-75545518D01*
X81360442Y-75545518D01*
G37*
G36*
X138086425Y-74657760D02*
G01*
X138086428Y-74657761D01*
X138086429Y-74657761D01*
X138265693Y-74712140D01*
X138265696Y-74712142D01*
X138265697Y-74712142D01*
X138430903Y-74800446D01*
X138575712Y-74919288D01*
X138694554Y-75064097D01*
X138761791Y-75189890D01*
X138782860Y-75229307D01*
X138837239Y-75408571D01*
X138837240Y-75408575D01*
X138855601Y-75595000D01*
X138837240Y-75781425D01*
X138837239Y-75781428D01*
X138837239Y-75781429D01*
X138782860Y-75960693D01*
X138782858Y-75960696D01*
X138782858Y-75960697D01*
X138694554Y-76125903D01*
X138575712Y-76270712D01*
X138430903Y-76389554D01*
X138265697Y-76477858D01*
X138265693Y-76477860D01*
X138086429Y-76532239D01*
X138086428Y-76532239D01*
X138086425Y-76532240D01*
X137946718Y-76546000D01*
X136053282Y-76546000D01*
X135913575Y-76532240D01*
X135913572Y-76532239D01*
X135913571Y-76532239D01*
X135734307Y-76477860D01*
X135734303Y-76477858D01*
X135569097Y-76389554D01*
X135424288Y-76270712D01*
X135305446Y-76125903D01*
X135217142Y-75960697D01*
X135217142Y-75960696D01*
X135217140Y-75960693D01*
X135162761Y-75781429D01*
X135162761Y-75781428D01*
X135162760Y-75781425D01*
X135144399Y-75595000D01*
X135162760Y-75408575D01*
X135162761Y-75408571D01*
X135217140Y-75229307D01*
X135238209Y-75189890D01*
X135305446Y-75064097D01*
X135424288Y-74919288D01*
X135569097Y-74800446D01*
X135734303Y-74712142D01*
X135734304Y-74712142D01*
X135734307Y-74712140D01*
X135913571Y-74657761D01*
X135913572Y-74657761D01*
X135913575Y-74657760D01*
X136053282Y-74644000D01*
X137946718Y-74644000D01*
X138086425Y-74657760D01*
X138086425Y-74657760D01*
G37*
G36*
X72189890Y-74374017D02*
G01*
X72308364Y-74423091D01*
X72414988Y-74494335D01*
X72505665Y-74585012D01*
X72550946Y-74652779D01*
X72576910Y-74691638D01*
X72625983Y-74810110D01*
X72651000Y-74935881D01*
X72651000Y-75064119D01*
X72625983Y-75189890D01*
X72609658Y-75229303D01*
X72576909Y-75308364D01*
X72505665Y-75414988D01*
X72414988Y-75505665D01*
X72308364Y-75576909D01*
X72308363Y-75576910D01*
X72308362Y-75576910D01*
X72189890Y-75625983D01*
X72064119Y-75651000D01*
X71935881Y-75651000D01*
X71810110Y-75625983D01*
X71691638Y-75576910D01*
X71691637Y-75576910D01*
X71691636Y-75576909D01*
X71585012Y-75505665D01*
X71494335Y-75414988D01*
X71423091Y-75308364D01*
X71390343Y-75229303D01*
X71374017Y-75189890D01*
X71349000Y-75064119D01*
X71349000Y-74935881D01*
X71374017Y-74810110D01*
X71423090Y-74691638D01*
X71449055Y-74652779D01*
X71494335Y-74585012D01*
X71585012Y-74494335D01*
X71691636Y-74423091D01*
X71810110Y-74374017D01*
X71935881Y-74349000D01*
X72064119Y-74349000D01*
X72189890Y-74374017D01*
X72189890Y-74374017D01*
G37*
G36*
X81360443Y-73005519D02*
G01*
X81426627Y-73012037D01*
X81596466Y-73063557D01*
X81752991Y-73147222D01*
X81788729Y-73176552D01*
X81890186Y-73259814D01*
X81973448Y-73361271D01*
X82002778Y-73397009D01*
X82086443Y-73553534D01*
X82137963Y-73723373D01*
X82155359Y-73900000D01*
X82137963Y-74076627D01*
X82086443Y-74246466D01*
X82002778Y-74402991D01*
X81986283Y-74423090D01*
X81890186Y-74540186D01*
X81788729Y-74623448D01*
X81752991Y-74652778D01*
X81596466Y-74736443D01*
X81426627Y-74787963D01*
X81360443Y-74794481D01*
X81294260Y-74801000D01*
X81205740Y-74801000D01*
X81139557Y-74794481D01*
X81073373Y-74787963D01*
X80903534Y-74736443D01*
X80747009Y-74652778D01*
X80711271Y-74623448D01*
X80609814Y-74540186D01*
X80513717Y-74423090D01*
X80497222Y-74402991D01*
X80413557Y-74246466D01*
X80362037Y-74076627D01*
X80344641Y-73900000D01*
X80362037Y-73723373D01*
X80413557Y-73553534D01*
X80497222Y-73397009D01*
X80526552Y-73361271D01*
X80609814Y-73259814D01*
X80711271Y-73176552D01*
X80747009Y-73147222D01*
X80903534Y-73063557D01*
X81073373Y-73012037D01*
X81139557Y-73005519D01*
X81205740Y-72999000D01*
X81294260Y-72999000D01*
X81360443Y-73005519D01*
X81360443Y-73005519D01*
G37*
G36*
X129360443Y-73005519D02*
G01*
X129426627Y-73012037D01*
X129596466Y-73063557D01*
X129752991Y-73147222D01*
X129788729Y-73176552D01*
X129890186Y-73259814D01*
X129973448Y-73361271D01*
X130002778Y-73397009D01*
X130086443Y-73553534D01*
X130137963Y-73723373D01*
X130155359Y-73900000D01*
X130137963Y-74076627D01*
X130086443Y-74246466D01*
X130002778Y-74402991D01*
X129986283Y-74423090D01*
X129890186Y-74540186D01*
X129788729Y-74623448D01*
X129752991Y-74652778D01*
X129596466Y-74736443D01*
X129426627Y-74787963D01*
X129360443Y-74794481D01*
X129294260Y-74801000D01*
X129205740Y-74801000D01*
X129139557Y-74794481D01*
X129073373Y-74787963D01*
X128903534Y-74736443D01*
X128747009Y-74652778D01*
X128711271Y-74623448D01*
X128609814Y-74540186D01*
X128513717Y-74423090D01*
X128497222Y-74402991D01*
X128413557Y-74246466D01*
X128362037Y-74076627D01*
X128344641Y-73900000D01*
X128362037Y-73723373D01*
X128413557Y-73553534D01*
X128497222Y-73397009D01*
X128526552Y-73361271D01*
X128609814Y-73259814D01*
X128711271Y-73176552D01*
X128747009Y-73147222D01*
X128903534Y-73063557D01*
X129073373Y-73012037D01*
X129139557Y-73005519D01*
X129205740Y-72999000D01*
X129294260Y-72999000D01*
X129360443Y-73005519D01*
X129360443Y-73005519D01*
G37*
G36*
X129360442Y-70465518D02*
G01*
X129426627Y-70472037D01*
X129596466Y-70523557D01*
X129752991Y-70607222D01*
X129788729Y-70636552D01*
X129890186Y-70719814D01*
X129973448Y-70821271D01*
X130002778Y-70857009D01*
X130086443Y-71013534D01*
X130137963Y-71183373D01*
X130155359Y-71360000D01*
X130137963Y-71536627D01*
X130086443Y-71706466D01*
X130002778Y-71862991D01*
X129973448Y-71898729D01*
X129890186Y-72000186D01*
X129788729Y-72083448D01*
X129752991Y-72112778D01*
X129596466Y-72196443D01*
X129426627Y-72247963D01*
X129360443Y-72254481D01*
X129294260Y-72261000D01*
X129205740Y-72261000D01*
X129139557Y-72254481D01*
X129073373Y-72247963D01*
X128903534Y-72196443D01*
X128747009Y-72112778D01*
X128711271Y-72083448D01*
X128609814Y-72000186D01*
X128526552Y-71898729D01*
X128497222Y-71862991D01*
X128413557Y-71706466D01*
X128362037Y-71536627D01*
X128344641Y-71360000D01*
X128362037Y-71183373D01*
X128413557Y-71013534D01*
X128497222Y-70857009D01*
X128526552Y-70821271D01*
X128609814Y-70719814D01*
X128711271Y-70636552D01*
X128747009Y-70607222D01*
X128903534Y-70523557D01*
X129073373Y-70472037D01*
X129139558Y-70465518D01*
X129205740Y-70459000D01*
X129294260Y-70459000D01*
X129360442Y-70465518D01*
X129360442Y-70465518D01*
G37*
G36*
X81360442Y-70465518D02*
G01*
X81426627Y-70472037D01*
X81596466Y-70523557D01*
X81752991Y-70607222D01*
X81788729Y-70636552D01*
X81890186Y-70719814D01*
X81973448Y-70821271D01*
X82002778Y-70857009D01*
X82086443Y-71013534D01*
X82137963Y-71183373D01*
X82155359Y-71360000D01*
X82137963Y-71536627D01*
X82086443Y-71706466D01*
X82002778Y-71862991D01*
X81973448Y-71898729D01*
X81890186Y-72000186D01*
X81788729Y-72083448D01*
X81752991Y-72112778D01*
X81596466Y-72196443D01*
X81426627Y-72247963D01*
X81360443Y-72254481D01*
X81294260Y-72261000D01*
X81205740Y-72261000D01*
X81139557Y-72254481D01*
X81073373Y-72247963D01*
X80903534Y-72196443D01*
X80747009Y-72112778D01*
X80711271Y-72083448D01*
X80609814Y-72000186D01*
X80526552Y-71898729D01*
X80497222Y-71862991D01*
X80413557Y-71706466D01*
X80362037Y-71536627D01*
X80344641Y-71360000D01*
X80362037Y-71183373D01*
X80413557Y-71013534D01*
X80497222Y-70857009D01*
X80526552Y-70821271D01*
X80609814Y-70719814D01*
X80711271Y-70636552D01*
X80747009Y-70607222D01*
X80903534Y-70523557D01*
X81073373Y-70472037D01*
X81139558Y-70465518D01*
X81205740Y-70459000D01*
X81294260Y-70459000D01*
X81360442Y-70465518D01*
X81360442Y-70465518D01*
G37*
G36*
X129360443Y-67925519D02*
G01*
X129426627Y-67932037D01*
X129596466Y-67983557D01*
X129752991Y-68067222D01*
X129788729Y-68096552D01*
X129890186Y-68179814D01*
X129973448Y-68281271D01*
X130002778Y-68317009D01*
X130086443Y-68473534D01*
X130137963Y-68643373D01*
X130155359Y-68820000D01*
X130137963Y-68996627D01*
X130086443Y-69166466D01*
X130002778Y-69322991D01*
X129973448Y-69358729D01*
X129890186Y-69460186D01*
X129788729Y-69543448D01*
X129752991Y-69572778D01*
X129596466Y-69656443D01*
X129426627Y-69707963D01*
X129360442Y-69714482D01*
X129294260Y-69721000D01*
X129205740Y-69721000D01*
X129139558Y-69714482D01*
X129073373Y-69707963D01*
X128903534Y-69656443D01*
X128747009Y-69572778D01*
X128711271Y-69543448D01*
X128609814Y-69460186D01*
X128526552Y-69358729D01*
X128497222Y-69322991D01*
X128413557Y-69166466D01*
X128362037Y-68996627D01*
X128344641Y-68820000D01*
X128362037Y-68643373D01*
X128413557Y-68473534D01*
X128497222Y-68317009D01*
X128526552Y-68281271D01*
X128609814Y-68179814D01*
X128711271Y-68096552D01*
X128747009Y-68067222D01*
X128903534Y-67983557D01*
X129073373Y-67932037D01*
X129139557Y-67925519D01*
X129205740Y-67919000D01*
X129294260Y-67919000D01*
X129360443Y-67925519D01*
X129360443Y-67925519D01*
G37*
G36*
X81360443Y-67925519D02*
G01*
X81426627Y-67932037D01*
X81596466Y-67983557D01*
X81752991Y-68067222D01*
X81788729Y-68096552D01*
X81890186Y-68179814D01*
X81973448Y-68281271D01*
X82002778Y-68317009D01*
X82086443Y-68473534D01*
X82137963Y-68643373D01*
X82155359Y-68820000D01*
X82137963Y-68996627D01*
X82086443Y-69166466D01*
X82002778Y-69322991D01*
X81973448Y-69358729D01*
X81890186Y-69460186D01*
X81788729Y-69543448D01*
X81752991Y-69572778D01*
X81596466Y-69656443D01*
X81426627Y-69707963D01*
X81360442Y-69714482D01*
X81294260Y-69721000D01*
X81205740Y-69721000D01*
X81139558Y-69714482D01*
X81073373Y-69707963D01*
X80903534Y-69656443D01*
X80747009Y-69572778D01*
X80711271Y-69543448D01*
X80609814Y-69460186D01*
X80526552Y-69358729D01*
X80497222Y-69322991D01*
X80413557Y-69166466D01*
X80362037Y-68996627D01*
X80344641Y-68820000D01*
X80362037Y-68643373D01*
X80413557Y-68473534D01*
X80497222Y-68317009D01*
X80526552Y-68281271D01*
X80609814Y-68179814D01*
X80711271Y-68096552D01*
X80747009Y-68067222D01*
X80903534Y-67983557D01*
X81073373Y-67932037D01*
X81139557Y-67925519D01*
X81205740Y-67919000D01*
X81294260Y-67919000D01*
X81360443Y-67925519D01*
X81360443Y-67925519D01*
G37*
G36*
X138710915Y-65957934D02*
G01*
X138743424Y-65967795D01*
X138773382Y-65983809D01*
X138799641Y-66005359D01*
X138821191Y-66031618D01*
X138837205Y-66061576D01*
X138847066Y-66094085D01*
X138851000Y-66134029D01*
X138851000Y-67675971D01*
X138847066Y-67715915D01*
X138837205Y-67748424D01*
X138821191Y-67778382D01*
X138799641Y-67804641D01*
X138773382Y-67826191D01*
X138743424Y-67842205D01*
X138710915Y-67852066D01*
X138670971Y-67856000D01*
X135329029Y-67856000D01*
X135289085Y-67852066D01*
X135256576Y-67842205D01*
X135226618Y-67826191D01*
X135200359Y-67804641D01*
X135178809Y-67778382D01*
X135162795Y-67748424D01*
X135152934Y-67715915D01*
X135149000Y-67675971D01*
X135149000Y-66134029D01*
X135152934Y-66094085D01*
X135162795Y-66061576D01*
X135178809Y-66031618D01*
X135200359Y-66005359D01*
X135226618Y-65983809D01*
X135256576Y-65967795D01*
X135289085Y-65957934D01*
X135329029Y-65954000D01*
X138670971Y-65954000D01*
X138710915Y-65957934D01*
X138710915Y-65957934D01*
G37*
G36*
X74086425Y-65967760D02*
G01*
X74086428Y-65967761D01*
X74086429Y-65967761D01*
X74265693Y-66022140D01*
X74265696Y-66022142D01*
X74265697Y-66022142D01*
X74430903Y-66110446D01*
X74575712Y-66229288D01*
X74694554Y-66374097D01*
X74782858Y-66539303D01*
X74782860Y-66539307D01*
X74837239Y-66718571D01*
X74837240Y-66718575D01*
X74855601Y-66905000D01*
X74837240Y-67091425D01*
X74837239Y-67091428D01*
X74837239Y-67091429D01*
X74782860Y-67270693D01*
X74782858Y-67270696D01*
X74782858Y-67270697D01*
X74694554Y-67435903D01*
X74575712Y-67580712D01*
X74430903Y-67699554D01*
X74283425Y-67778382D01*
X74265693Y-67787860D01*
X74086429Y-67842239D01*
X74086428Y-67842239D01*
X74086425Y-67842240D01*
X73946718Y-67856000D01*
X72053282Y-67856000D01*
X71913575Y-67842240D01*
X71913572Y-67842239D01*
X71913571Y-67842239D01*
X71734307Y-67787860D01*
X71716575Y-67778382D01*
X71569097Y-67699554D01*
X71424288Y-67580712D01*
X71305446Y-67435903D01*
X71217142Y-67270697D01*
X71217142Y-67270696D01*
X71217140Y-67270693D01*
X71162761Y-67091429D01*
X71162761Y-67091428D01*
X71162760Y-67091425D01*
X71144399Y-66905000D01*
X71162760Y-66718575D01*
X71162761Y-66718571D01*
X71217140Y-66539307D01*
X71217142Y-66539303D01*
X71305446Y-66374097D01*
X71424288Y-66229288D01*
X71569097Y-66110446D01*
X71734303Y-66022142D01*
X71734304Y-66022142D01*
X71734307Y-66022140D01*
X71913571Y-65967761D01*
X71913572Y-65967761D01*
X71913575Y-65967760D01*
X72053282Y-65954000D01*
X73946718Y-65954000D01*
X74086425Y-65967760D01*
X74086425Y-65967760D01*
G37*
G36*
X129360443Y-65385519D02*
G01*
X129426627Y-65392037D01*
X129596466Y-65443557D01*
X129752991Y-65527222D01*
X129788729Y-65556552D01*
X129890186Y-65639814D01*
X129973448Y-65741271D01*
X130002778Y-65777009D01*
X130086443Y-65933534D01*
X130137963Y-66103373D01*
X130155359Y-66280000D01*
X130137963Y-66456627D01*
X130086443Y-66626466D01*
X130002778Y-66782991D01*
X129973448Y-66818729D01*
X129890186Y-66920186D01*
X129788729Y-67003448D01*
X129752991Y-67032778D01*
X129596466Y-67116443D01*
X129426627Y-67167963D01*
X129360442Y-67174482D01*
X129294260Y-67181000D01*
X129205740Y-67181000D01*
X129139558Y-67174482D01*
X129073373Y-67167963D01*
X128903534Y-67116443D01*
X128747009Y-67032778D01*
X128711271Y-67003448D01*
X128609814Y-66920186D01*
X128526552Y-66818729D01*
X128497222Y-66782991D01*
X128413557Y-66626466D01*
X128362037Y-66456627D01*
X128344641Y-66280000D01*
X128362037Y-66103373D01*
X128413557Y-65933534D01*
X128497222Y-65777009D01*
X128526552Y-65741271D01*
X128609814Y-65639814D01*
X128711271Y-65556552D01*
X128747009Y-65527222D01*
X128903534Y-65443557D01*
X129073373Y-65392037D01*
X129139557Y-65385519D01*
X129205740Y-65379000D01*
X129294260Y-65379000D01*
X129360443Y-65385519D01*
X129360443Y-65385519D01*
G37*
G36*
X81360443Y-65385519D02*
G01*
X81426627Y-65392037D01*
X81596466Y-65443557D01*
X81752991Y-65527222D01*
X81788729Y-65556552D01*
X81890186Y-65639814D01*
X81973448Y-65741271D01*
X82002778Y-65777009D01*
X82086443Y-65933534D01*
X82137963Y-66103373D01*
X82155359Y-66280000D01*
X82137963Y-66456627D01*
X82086443Y-66626466D01*
X82002778Y-66782991D01*
X81973448Y-66818729D01*
X81890186Y-66920186D01*
X81788729Y-67003448D01*
X81752991Y-67032778D01*
X81596466Y-67116443D01*
X81426627Y-67167963D01*
X81360442Y-67174482D01*
X81294260Y-67181000D01*
X81205740Y-67181000D01*
X81139558Y-67174482D01*
X81073373Y-67167963D01*
X80903534Y-67116443D01*
X80747009Y-67032778D01*
X80711271Y-67003448D01*
X80609814Y-66920186D01*
X80526552Y-66818729D01*
X80497222Y-66782991D01*
X80413557Y-66626466D01*
X80362037Y-66456627D01*
X80344641Y-66280000D01*
X80362037Y-66103373D01*
X80413557Y-65933534D01*
X80497222Y-65777009D01*
X80526552Y-65741271D01*
X80609814Y-65639814D01*
X80711271Y-65556552D01*
X80747009Y-65527222D01*
X80903534Y-65443557D01*
X81073373Y-65392037D01*
X81139557Y-65385519D01*
X81205740Y-65379000D01*
X81294260Y-65379000D01*
X81360443Y-65385519D01*
X81360443Y-65385519D01*
G37*
G36*
X129360442Y-62845518D02*
G01*
X129426627Y-62852037D01*
X129596466Y-62903557D01*
X129596468Y-62903558D01*
X129605854Y-62908575D01*
X129752991Y-62987222D01*
X129788729Y-63016552D01*
X129890186Y-63099814D01*
X129973448Y-63201271D01*
X130002778Y-63237009D01*
X130086443Y-63393534D01*
X130137963Y-63563373D01*
X130155359Y-63740000D01*
X130137963Y-63916627D01*
X130086443Y-64086466D01*
X130002778Y-64242991D01*
X129973448Y-64278729D01*
X129890186Y-64380186D01*
X129788729Y-64463448D01*
X129752991Y-64492778D01*
X129596466Y-64576443D01*
X129426627Y-64627963D01*
X129360443Y-64634481D01*
X129294260Y-64641000D01*
X129205740Y-64641000D01*
X129139557Y-64634481D01*
X129073373Y-64627963D01*
X128903534Y-64576443D01*
X128747009Y-64492778D01*
X128711271Y-64463448D01*
X128609814Y-64380186D01*
X128526552Y-64278729D01*
X128497222Y-64242991D01*
X128413557Y-64086466D01*
X128362037Y-63916627D01*
X128344641Y-63740000D01*
X128362037Y-63563373D01*
X128413557Y-63393534D01*
X128497222Y-63237009D01*
X128526552Y-63201271D01*
X128609814Y-63099814D01*
X128711271Y-63016552D01*
X128747009Y-62987222D01*
X128894146Y-62908575D01*
X128903532Y-62903558D01*
X128903534Y-62903557D01*
X129073373Y-62852037D01*
X129139558Y-62845518D01*
X129205740Y-62839000D01*
X129294260Y-62839000D01*
X129360442Y-62845518D01*
X129360442Y-62845518D01*
G37*
G36*
X81360442Y-62845518D02*
G01*
X81426627Y-62852037D01*
X81596466Y-62903557D01*
X81596468Y-62903558D01*
X81605854Y-62908575D01*
X81752991Y-62987222D01*
X81788729Y-63016552D01*
X81890186Y-63099814D01*
X81973448Y-63201271D01*
X82002778Y-63237009D01*
X82086443Y-63393534D01*
X82137963Y-63563373D01*
X82155359Y-63740000D01*
X82137963Y-63916627D01*
X82086443Y-64086466D01*
X82002778Y-64242991D01*
X81973448Y-64278729D01*
X81890186Y-64380186D01*
X81788729Y-64463448D01*
X81752991Y-64492778D01*
X81596466Y-64576443D01*
X81426627Y-64627963D01*
X81360443Y-64634481D01*
X81294260Y-64641000D01*
X81205740Y-64641000D01*
X81139557Y-64634481D01*
X81073373Y-64627963D01*
X80903534Y-64576443D01*
X80747009Y-64492778D01*
X80711271Y-64463448D01*
X80609814Y-64380186D01*
X80526552Y-64278729D01*
X80497222Y-64242991D01*
X80413557Y-64086466D01*
X80362037Y-63916627D01*
X80344641Y-63740000D01*
X80362037Y-63563373D01*
X80413557Y-63393534D01*
X80497222Y-63237009D01*
X80526552Y-63201271D01*
X80609814Y-63099814D01*
X80711271Y-63016552D01*
X80747009Y-62987222D01*
X80894146Y-62908575D01*
X80903532Y-62903558D01*
X80903534Y-62903557D01*
X81073373Y-62852037D01*
X81139558Y-62845518D01*
X81205740Y-62839000D01*
X81294260Y-62839000D01*
X81360442Y-62845518D01*
X81360442Y-62845518D01*
G37*
G36*
X138086425Y-62157760D02*
G01*
X138086428Y-62157761D01*
X138086429Y-62157761D01*
X138265693Y-62212140D01*
X138265696Y-62212142D01*
X138265697Y-62212142D01*
X138430903Y-62300446D01*
X138575712Y-62419288D01*
X138694554Y-62564097D01*
X138782858Y-62729303D01*
X138782860Y-62729307D01*
X138835718Y-62903557D01*
X138837240Y-62908575D01*
X138855601Y-63095000D01*
X138837240Y-63281425D01*
X138837239Y-63281428D01*
X138837239Y-63281429D01*
X138782860Y-63460693D01*
X138782858Y-63460696D01*
X138782858Y-63460697D01*
X138694554Y-63625903D01*
X138575712Y-63770712D01*
X138430903Y-63889554D01*
X138283425Y-63968382D01*
X138265693Y-63977860D01*
X138086429Y-64032239D01*
X138086428Y-64032239D01*
X138086425Y-64032240D01*
X137946718Y-64046000D01*
X136053282Y-64046000D01*
X135913575Y-64032240D01*
X135913572Y-64032239D01*
X135913571Y-64032239D01*
X135734307Y-63977860D01*
X135716575Y-63968382D01*
X135569097Y-63889554D01*
X135424288Y-63770712D01*
X135305446Y-63625903D01*
X135217142Y-63460697D01*
X135217142Y-63460696D01*
X135217140Y-63460693D01*
X135162761Y-63281429D01*
X135162761Y-63281428D01*
X135162760Y-63281425D01*
X135144399Y-63095000D01*
X135162760Y-62908575D01*
X135164282Y-62903557D01*
X135217140Y-62729307D01*
X135217142Y-62729303D01*
X135305446Y-62564097D01*
X135424288Y-62419288D01*
X135569097Y-62300446D01*
X135734303Y-62212142D01*
X135734304Y-62212142D01*
X135734307Y-62212140D01*
X135913571Y-62157761D01*
X135913572Y-62157761D01*
X135913575Y-62157760D01*
X136053282Y-62144000D01*
X137946718Y-62144000D01*
X138086425Y-62157760D01*
X138086425Y-62157760D01*
G37*
G36*
X74710915Y-62147934D02*
G01*
X74743424Y-62157795D01*
X74773382Y-62173809D01*
X74799641Y-62195359D01*
X74821191Y-62221618D01*
X74837205Y-62251576D01*
X74847066Y-62284085D01*
X74851000Y-62324029D01*
X74851000Y-63865971D01*
X74847066Y-63905915D01*
X74837205Y-63938424D01*
X74821191Y-63968382D01*
X74799641Y-63994641D01*
X74773382Y-64016191D01*
X74743424Y-64032205D01*
X74710915Y-64042066D01*
X74670971Y-64046000D01*
X71329029Y-64046000D01*
X71289085Y-64042066D01*
X71256576Y-64032205D01*
X71226618Y-64016191D01*
X71200359Y-63994641D01*
X71178809Y-63968382D01*
X71162795Y-63938424D01*
X71152934Y-63905915D01*
X71149000Y-63865971D01*
X71149000Y-62324029D01*
X71152934Y-62284085D01*
X71162795Y-62251576D01*
X71178809Y-62221618D01*
X71200359Y-62195359D01*
X71226618Y-62173809D01*
X71256576Y-62157795D01*
X71289085Y-62147934D01*
X71329029Y-62144000D01*
X74670971Y-62144000D01*
X74710915Y-62147934D01*
X74710915Y-62147934D01*
G37*
G36*
X129360443Y-60305519D02*
G01*
X129426627Y-60312037D01*
X129596466Y-60363557D01*
X129752991Y-60447222D01*
X129788729Y-60476552D01*
X129890186Y-60559814D01*
X129973448Y-60661271D01*
X130002778Y-60697009D01*
X130086443Y-60853534D01*
X130137963Y-61023373D01*
X130155359Y-61200000D01*
X130137963Y-61376627D01*
X130086443Y-61546466D01*
X130002778Y-61702991D01*
X129973448Y-61738729D01*
X129890186Y-61840186D01*
X129788729Y-61923448D01*
X129752991Y-61952778D01*
X129596466Y-62036443D01*
X129426627Y-62087963D01*
X129360443Y-62094481D01*
X129294260Y-62101000D01*
X129205740Y-62101000D01*
X129139557Y-62094481D01*
X129073373Y-62087963D01*
X128903534Y-62036443D01*
X128747009Y-61952778D01*
X128711271Y-61923448D01*
X128609814Y-61840186D01*
X128526552Y-61738729D01*
X128497222Y-61702991D01*
X128413557Y-61546466D01*
X128362037Y-61376627D01*
X128344641Y-61200000D01*
X128362037Y-61023373D01*
X128413557Y-60853534D01*
X128497222Y-60697009D01*
X128526552Y-60661271D01*
X128609814Y-60559814D01*
X128711271Y-60476552D01*
X128747009Y-60447222D01*
X128903534Y-60363557D01*
X129073373Y-60312037D01*
X129139557Y-60305519D01*
X129205740Y-60299000D01*
X129294260Y-60299000D01*
X129360443Y-60305519D01*
X129360443Y-60305519D01*
G37*
G36*
X81360443Y-60305519D02*
G01*
X81426627Y-60312037D01*
X81596466Y-60363557D01*
X81752991Y-60447222D01*
X81788729Y-60476552D01*
X81890186Y-60559814D01*
X81973448Y-60661271D01*
X82002778Y-60697009D01*
X82086443Y-60853534D01*
X82137963Y-61023373D01*
X82155359Y-61200000D01*
X82137963Y-61376627D01*
X82086443Y-61546466D01*
X82002778Y-61702991D01*
X81973448Y-61738729D01*
X81890186Y-61840186D01*
X81788729Y-61923448D01*
X81752991Y-61952778D01*
X81596466Y-62036443D01*
X81426627Y-62087963D01*
X81360443Y-62094481D01*
X81294260Y-62101000D01*
X81205740Y-62101000D01*
X81139557Y-62094481D01*
X81073373Y-62087963D01*
X80903534Y-62036443D01*
X80747009Y-61952778D01*
X80711271Y-61923448D01*
X80609814Y-61840186D01*
X80526552Y-61738729D01*
X80497222Y-61702991D01*
X80413557Y-61546466D01*
X80362037Y-61376627D01*
X80344641Y-61200000D01*
X80362037Y-61023373D01*
X80413557Y-60853534D01*
X80497222Y-60697009D01*
X80526552Y-60661271D01*
X80609814Y-60559814D01*
X80711271Y-60476552D01*
X80747009Y-60447222D01*
X80903534Y-60363557D01*
X81073373Y-60312037D01*
X81139557Y-60305519D01*
X81205740Y-60299000D01*
X81294260Y-60299000D01*
X81360443Y-60305519D01*
X81360443Y-60305519D01*
G37*
G36*
X129360443Y-57765519D02*
G01*
X129426627Y-57772037D01*
X129596466Y-57823557D01*
X129752991Y-57907222D01*
X129788729Y-57936552D01*
X129890186Y-58019814D01*
X129973448Y-58121271D01*
X130002778Y-58157009D01*
X130086443Y-58313534D01*
X130137963Y-58483373D01*
X130155359Y-58660000D01*
X130137963Y-58836627D01*
X130086443Y-59006466D01*
X130002778Y-59162991D01*
X129973448Y-59198729D01*
X129890186Y-59300186D01*
X129788729Y-59383448D01*
X129752991Y-59412778D01*
X129596466Y-59496443D01*
X129426627Y-59547963D01*
X129360442Y-59554482D01*
X129294260Y-59561000D01*
X129205740Y-59561000D01*
X129139558Y-59554482D01*
X129073373Y-59547963D01*
X128903534Y-59496443D01*
X128747009Y-59412778D01*
X128711271Y-59383448D01*
X128609814Y-59300186D01*
X128526552Y-59198729D01*
X128497222Y-59162991D01*
X128413557Y-59006466D01*
X128362037Y-58836627D01*
X128344641Y-58660000D01*
X128362037Y-58483373D01*
X128413557Y-58313534D01*
X128497222Y-58157009D01*
X128526552Y-58121271D01*
X128609814Y-58019814D01*
X128711271Y-57936552D01*
X128747009Y-57907222D01*
X128903534Y-57823557D01*
X129073373Y-57772037D01*
X129139557Y-57765519D01*
X129205740Y-57759000D01*
X129294260Y-57759000D01*
X129360443Y-57765519D01*
X129360443Y-57765519D01*
G37*
G36*
X81360443Y-57765519D02*
G01*
X81426627Y-57772037D01*
X81596466Y-57823557D01*
X81752991Y-57907222D01*
X81788729Y-57936552D01*
X81890186Y-58019814D01*
X81973448Y-58121271D01*
X82002778Y-58157009D01*
X82086443Y-58313534D01*
X82137963Y-58483373D01*
X82155359Y-58660000D01*
X82137963Y-58836627D01*
X82086443Y-59006466D01*
X82002778Y-59162991D01*
X81973448Y-59198729D01*
X81890186Y-59300186D01*
X81788729Y-59383448D01*
X81752991Y-59412778D01*
X81596466Y-59496443D01*
X81426627Y-59547963D01*
X81360442Y-59554482D01*
X81294260Y-59561000D01*
X81205740Y-59561000D01*
X81139558Y-59554482D01*
X81073373Y-59547963D01*
X80903534Y-59496443D01*
X80747009Y-59412778D01*
X80711271Y-59383448D01*
X80609814Y-59300186D01*
X80526552Y-59198729D01*
X80497222Y-59162991D01*
X80413557Y-59006466D01*
X80362037Y-58836627D01*
X80344641Y-58660000D01*
X80362037Y-58483373D01*
X80413557Y-58313534D01*
X80497222Y-58157009D01*
X80526552Y-58121271D01*
X80609814Y-58019814D01*
X80711271Y-57936552D01*
X80747009Y-57907222D01*
X80903534Y-57823557D01*
X81073373Y-57772037D01*
X81139557Y-57765519D01*
X81205740Y-57759000D01*
X81294260Y-57759000D01*
X81360443Y-57765519D01*
X81360443Y-57765519D01*
G37*
G36*
X81360443Y-55225519D02*
G01*
X81426627Y-55232037D01*
X81596466Y-55283557D01*
X81752991Y-55367222D01*
X81788729Y-55396552D01*
X81890186Y-55479814D01*
X81973448Y-55581271D01*
X82002778Y-55617009D01*
X82086443Y-55773534D01*
X82137963Y-55943373D01*
X82155359Y-56120000D01*
X82137963Y-56296627D01*
X82086443Y-56466466D01*
X82002778Y-56622991D01*
X81973448Y-56658729D01*
X81890186Y-56760186D01*
X81788729Y-56843448D01*
X81752991Y-56872778D01*
X81596466Y-56956443D01*
X81426627Y-57007963D01*
X81360443Y-57014481D01*
X81294260Y-57021000D01*
X81205740Y-57021000D01*
X81139557Y-57014481D01*
X81073373Y-57007963D01*
X80903534Y-56956443D01*
X80747009Y-56872778D01*
X80711271Y-56843448D01*
X80609814Y-56760186D01*
X80526552Y-56658729D01*
X80497222Y-56622991D01*
X80413557Y-56466466D01*
X80362037Y-56296627D01*
X80344641Y-56120000D01*
X80362037Y-55943373D01*
X80413557Y-55773534D01*
X80497222Y-55617009D01*
X80526552Y-55581271D01*
X80609814Y-55479814D01*
X80711271Y-55396552D01*
X80747009Y-55367222D01*
X80903534Y-55283557D01*
X81073373Y-55232037D01*
X81139557Y-55225519D01*
X81205740Y-55219000D01*
X81294260Y-55219000D01*
X81360443Y-55225519D01*
X81360443Y-55225519D01*
G37*
G36*
X129360443Y-55225519D02*
G01*
X129426627Y-55232037D01*
X129596466Y-55283557D01*
X129752991Y-55367222D01*
X129788729Y-55396552D01*
X129890186Y-55479814D01*
X129973448Y-55581271D01*
X130002778Y-55617009D01*
X130086443Y-55773534D01*
X130137963Y-55943373D01*
X130155359Y-56120000D01*
X130137963Y-56296627D01*
X130086443Y-56466466D01*
X130002778Y-56622991D01*
X129973448Y-56658729D01*
X129890186Y-56760186D01*
X129788729Y-56843448D01*
X129752991Y-56872778D01*
X129596466Y-56956443D01*
X129426627Y-57007963D01*
X129360443Y-57014481D01*
X129294260Y-57021000D01*
X129205740Y-57021000D01*
X129139557Y-57014481D01*
X129073373Y-57007963D01*
X128903534Y-56956443D01*
X128747009Y-56872778D01*
X128711271Y-56843448D01*
X128609814Y-56760186D01*
X128526552Y-56658729D01*
X128497222Y-56622991D01*
X128413557Y-56466466D01*
X128362037Y-56296627D01*
X128344641Y-56120000D01*
X128362037Y-55943373D01*
X128413557Y-55773534D01*
X128497222Y-55617009D01*
X128526552Y-55581271D01*
X128609814Y-55479814D01*
X128711271Y-55396552D01*
X128747009Y-55367222D01*
X128903534Y-55283557D01*
X129073373Y-55232037D01*
X129139557Y-55225519D01*
X129205740Y-55219000D01*
X129294260Y-55219000D01*
X129360443Y-55225519D01*
X129360443Y-55225519D01*
G37*
G36*
X138710915Y-53457934D02*
G01*
X138743424Y-53467795D01*
X138773382Y-53483809D01*
X138799641Y-53505359D01*
X138821191Y-53531618D01*
X138837205Y-53561576D01*
X138847066Y-53594085D01*
X138851000Y-53634029D01*
X138851000Y-55175971D01*
X138847066Y-55215915D01*
X138837205Y-55248424D01*
X138821191Y-55278382D01*
X138799641Y-55304641D01*
X138773382Y-55326191D01*
X138743424Y-55342205D01*
X138710915Y-55352066D01*
X138670971Y-55356000D01*
X135329029Y-55356000D01*
X135289085Y-55352066D01*
X135256576Y-55342205D01*
X135226618Y-55326191D01*
X135200359Y-55304641D01*
X135178809Y-55278382D01*
X135162795Y-55248424D01*
X135152934Y-55215915D01*
X135149000Y-55175971D01*
X135149000Y-53634029D01*
X135152934Y-53594085D01*
X135162795Y-53561576D01*
X135178809Y-53531618D01*
X135200359Y-53505359D01*
X135226618Y-53483809D01*
X135256576Y-53467795D01*
X135289085Y-53457934D01*
X135329029Y-53454000D01*
X138670971Y-53454000D01*
X138710915Y-53457934D01*
X138710915Y-53457934D01*
G37*
G36*
X69150318Y-52395153D02*
G01*
X69368885Y-52485687D01*
X69368887Y-52485688D01*
X69565593Y-52617122D01*
X69732878Y-52784407D01*
X69864312Y-52981113D01*
X69864313Y-52981115D01*
X69954847Y-53199682D01*
X70001000Y-53431710D01*
X70001000Y-53668290D01*
X69954847Y-53900318D01*
X69879181Y-54082991D01*
X69864312Y-54118887D01*
X69732878Y-54315593D01*
X69565593Y-54482878D01*
X69368887Y-54614312D01*
X69368886Y-54614313D01*
X69368885Y-54614313D01*
X69150318Y-54704847D01*
X68918290Y-54751000D01*
X68681710Y-54751000D01*
X68449682Y-54704847D01*
X68231115Y-54614313D01*
X68231114Y-54614313D01*
X68231113Y-54614312D01*
X68034407Y-54482878D01*
X67867122Y-54315593D01*
X67735688Y-54118887D01*
X67720819Y-54082991D01*
X67645153Y-53900318D01*
X67599000Y-53668290D01*
X67599000Y-53431710D01*
X67645153Y-53199682D01*
X67735687Y-52981115D01*
X67735688Y-52981113D01*
X67867122Y-52784407D01*
X68034407Y-52617122D01*
X68231113Y-52485688D01*
X68231115Y-52485687D01*
X68449682Y-52395153D01*
X68681710Y-52349000D01*
X68918290Y-52349000D01*
X69150318Y-52395153D01*
X69150318Y-52395153D01*
G37*
G36*
X129360442Y-52685518D02*
G01*
X129426627Y-52692037D01*
X129596466Y-52743557D01*
X129752991Y-52827222D01*
X129788729Y-52856552D01*
X129890186Y-52939814D01*
X129973448Y-53041271D01*
X130002778Y-53077009D01*
X130086443Y-53233534D01*
X130137963Y-53403373D01*
X130155359Y-53580000D01*
X130137963Y-53756627D01*
X130086443Y-53926466D01*
X130002778Y-54082991D01*
X129973448Y-54118729D01*
X129890186Y-54220186D01*
X129788729Y-54303448D01*
X129752991Y-54332778D01*
X129596466Y-54416443D01*
X129426627Y-54467963D01*
X129360443Y-54474481D01*
X129294260Y-54481000D01*
X129205740Y-54481000D01*
X129139557Y-54474481D01*
X129073373Y-54467963D01*
X128903534Y-54416443D01*
X128747009Y-54332778D01*
X128711271Y-54303448D01*
X128609814Y-54220186D01*
X128526552Y-54118729D01*
X128497222Y-54082991D01*
X128413557Y-53926466D01*
X128362037Y-53756627D01*
X128344641Y-53580000D01*
X128362037Y-53403373D01*
X128413557Y-53233534D01*
X128497222Y-53077009D01*
X128526552Y-53041271D01*
X128609814Y-52939814D01*
X128711271Y-52856552D01*
X128747009Y-52827222D01*
X128903534Y-52743557D01*
X129073373Y-52692037D01*
X129139558Y-52685518D01*
X129205740Y-52679000D01*
X129294260Y-52679000D01*
X129360442Y-52685518D01*
X129360442Y-52685518D01*
G37*
G36*
X81360442Y-52685518D02*
G01*
X81426627Y-52692037D01*
X81596466Y-52743557D01*
X81752991Y-52827222D01*
X81788729Y-52856552D01*
X81890186Y-52939814D01*
X81973448Y-53041271D01*
X82002778Y-53077009D01*
X82086443Y-53233534D01*
X82137963Y-53403373D01*
X82155359Y-53580000D01*
X82137963Y-53756627D01*
X82086443Y-53926466D01*
X82002778Y-54082991D01*
X81973448Y-54118729D01*
X81890186Y-54220186D01*
X81788729Y-54303448D01*
X81752991Y-54332778D01*
X81596466Y-54416443D01*
X81426627Y-54467963D01*
X81360443Y-54474481D01*
X81294260Y-54481000D01*
X81205740Y-54481000D01*
X81139557Y-54474481D01*
X81073373Y-54467963D01*
X80903534Y-54416443D01*
X80747009Y-54332778D01*
X80711271Y-54303448D01*
X80609814Y-54220186D01*
X80526552Y-54118729D01*
X80497222Y-54082991D01*
X80413557Y-53926466D01*
X80362037Y-53756627D01*
X80344641Y-53580000D01*
X80362037Y-53403373D01*
X80413557Y-53233534D01*
X80497222Y-53077009D01*
X80526552Y-53041271D01*
X80609814Y-52939814D01*
X80711271Y-52856552D01*
X80747009Y-52827222D01*
X80903534Y-52743557D01*
X81073373Y-52692037D01*
X81139558Y-52685518D01*
X81205740Y-52679000D01*
X81294260Y-52679000D01*
X81360442Y-52685518D01*
X81360442Y-52685518D01*
G37*
G36*
X129360442Y-50145518D02*
G01*
X129426627Y-50152037D01*
X129596466Y-50203557D01*
X129596468Y-50203558D01*
X129674729Y-50245390D01*
X129752991Y-50287222D01*
X129788729Y-50316552D01*
X129890186Y-50399814D01*
X129973448Y-50501271D01*
X130002778Y-50537009D01*
X130086443Y-50693534D01*
X130137963Y-50863373D01*
X130155359Y-51040000D01*
X130137963Y-51216627D01*
X130086443Y-51386466D01*
X130002778Y-51542991D01*
X129973448Y-51578729D01*
X129890186Y-51680186D01*
X129788729Y-51763448D01*
X129752991Y-51792778D01*
X129596466Y-51876443D01*
X129426627Y-51927963D01*
X129360442Y-51934482D01*
X129294260Y-51941000D01*
X129205740Y-51941000D01*
X129139557Y-51934481D01*
X129073373Y-51927963D01*
X128903534Y-51876443D01*
X128747009Y-51792778D01*
X128711271Y-51763448D01*
X128609814Y-51680186D01*
X128526552Y-51578729D01*
X128497222Y-51542991D01*
X128413557Y-51386466D01*
X128362037Y-51216627D01*
X128344641Y-51040000D01*
X128362037Y-50863373D01*
X128413557Y-50693534D01*
X128497222Y-50537009D01*
X128526552Y-50501271D01*
X128609814Y-50399814D01*
X128711271Y-50316552D01*
X128747009Y-50287222D01*
X128825271Y-50245390D01*
X128903532Y-50203558D01*
X128903534Y-50203557D01*
X129073373Y-50152037D01*
X129139557Y-50145519D01*
X129205740Y-50139000D01*
X129294260Y-50139000D01*
X129360442Y-50145518D01*
X129360442Y-50145518D01*
G37*
G36*
X81360442Y-50145518D02*
G01*
X81426627Y-50152037D01*
X81596466Y-50203557D01*
X81596468Y-50203558D01*
X81674729Y-50245390D01*
X81752991Y-50287222D01*
X81788729Y-50316552D01*
X81890186Y-50399814D01*
X81973448Y-50501271D01*
X82002778Y-50537009D01*
X82086443Y-50693534D01*
X82137963Y-50863373D01*
X82155359Y-51040000D01*
X82137963Y-51216627D01*
X82086443Y-51386466D01*
X82002778Y-51542991D01*
X81973448Y-51578729D01*
X81890186Y-51680186D01*
X81788729Y-51763448D01*
X81752991Y-51792778D01*
X81596466Y-51876443D01*
X81426627Y-51927963D01*
X81360442Y-51934482D01*
X81294260Y-51941000D01*
X81205740Y-51941000D01*
X81139557Y-51934481D01*
X81073373Y-51927963D01*
X80903534Y-51876443D01*
X80747009Y-51792778D01*
X80711271Y-51763448D01*
X80609814Y-51680186D01*
X80526552Y-51578729D01*
X80497222Y-51542991D01*
X80413557Y-51386466D01*
X80362037Y-51216627D01*
X80344641Y-51040000D01*
X80362037Y-50863373D01*
X80413557Y-50693534D01*
X80497222Y-50537009D01*
X80526552Y-50501271D01*
X80609814Y-50399814D01*
X80711271Y-50316552D01*
X80747009Y-50287222D01*
X80825271Y-50245390D01*
X80903532Y-50203558D01*
X80903534Y-50203557D01*
X81073373Y-50152037D01*
X81139557Y-50145519D01*
X81205740Y-50139000D01*
X81294260Y-50139000D01*
X81360442Y-50145518D01*
X81360442Y-50145518D01*
G37*
G36*
X138086425Y-49657760D02*
G01*
X138086428Y-49657761D01*
X138086429Y-49657761D01*
X138265693Y-49712140D01*
X138265696Y-49712142D01*
X138265697Y-49712142D01*
X138430903Y-49800446D01*
X138575712Y-49919288D01*
X138694554Y-50064097D01*
X138769097Y-50203558D01*
X138782860Y-50229307D01*
X138834583Y-50399815D01*
X138837240Y-50408575D01*
X138855601Y-50595000D01*
X138837240Y-50781425D01*
X138837239Y-50781428D01*
X138837239Y-50781429D01*
X138782860Y-50960693D01*
X138782858Y-50960696D01*
X138782858Y-50960697D01*
X138694554Y-51125903D01*
X138575712Y-51270712D01*
X138430903Y-51389554D01*
X138265697Y-51477858D01*
X138265693Y-51477860D01*
X138086429Y-51532239D01*
X138086428Y-51532239D01*
X138086425Y-51532240D01*
X137946718Y-51546000D01*
X136053282Y-51546000D01*
X135913575Y-51532240D01*
X135913572Y-51532239D01*
X135913571Y-51532239D01*
X135734307Y-51477860D01*
X135734303Y-51477858D01*
X135569097Y-51389554D01*
X135424288Y-51270712D01*
X135305446Y-51125903D01*
X135217142Y-50960697D01*
X135217142Y-50960696D01*
X135217140Y-50960693D01*
X135162761Y-50781429D01*
X135162761Y-50781428D01*
X135162760Y-50781425D01*
X135144399Y-50595000D01*
X135162760Y-50408575D01*
X135165417Y-50399815D01*
X135217140Y-50229307D01*
X135230903Y-50203558D01*
X135305446Y-50064097D01*
X135424288Y-49919288D01*
X135569097Y-49800446D01*
X135734303Y-49712142D01*
X135734304Y-49712142D01*
X135734307Y-49712140D01*
X135913571Y-49657761D01*
X135913572Y-49657761D01*
X135913575Y-49657760D01*
X136053282Y-49644000D01*
X137946718Y-49644000D01*
X138086425Y-49657760D01*
X138086425Y-49657760D01*
G37*
G36*
X68050318Y-47695153D02*
G01*
X68268885Y-47785687D01*
X68268887Y-47785688D01*
X68465593Y-47917122D01*
X68632878Y-48084407D01*
X68764312Y-48281113D01*
X68764313Y-48281115D01*
X68854847Y-48499682D01*
X68901000Y-48731710D01*
X68901000Y-48968290D01*
X68854847Y-49200318D01*
X68771721Y-49401000D01*
X68764312Y-49418887D01*
X68632878Y-49615593D01*
X68465593Y-49782878D01*
X68268887Y-49914312D01*
X68268886Y-49914313D01*
X68268885Y-49914313D01*
X68050318Y-50004847D01*
X67818290Y-50051000D01*
X67581710Y-50051000D01*
X67349682Y-50004847D01*
X67131115Y-49914313D01*
X67131114Y-49914313D01*
X67131113Y-49914312D01*
X66934407Y-49782878D01*
X66767122Y-49615593D01*
X66635688Y-49418887D01*
X66628279Y-49401000D01*
X66545153Y-49200318D01*
X66499000Y-48968290D01*
X66499000Y-48731710D01*
X66545153Y-48499682D01*
X66635687Y-48281115D01*
X66635688Y-48281113D01*
X66767122Y-48084407D01*
X66934407Y-47917122D01*
X67131113Y-47785688D01*
X67131115Y-47785687D01*
X67349682Y-47695153D01*
X67581710Y-47649000D01*
X67818290Y-47649000D01*
X68050318Y-47695153D01*
X68050318Y-47695153D01*
G37*
G36*
X130151000Y-49401000D02*
G01*
X128349000Y-49401000D01*
X128349000Y-47599000D01*
X130151000Y-47599000D01*
X130151000Y-49401000D01*
X130151000Y-49401000D01*
G37*
G36*
X82151000Y-49401000D02*
G01*
X80349000Y-49401000D01*
X80349000Y-47599000D01*
X82151000Y-47599000D01*
X82151000Y-49401000D01*
X82151000Y-49401000D01*
G37*
G36*
X70591318Y-37465052D02*
G01*
X70758859Y-37498378D01*
X71232320Y-37694492D01*
X71658423Y-37979205D01*
X72020795Y-38341577D01*
X72305508Y-38767680D01*
X72501622Y-39241141D01*
X72601600Y-39743765D01*
X72601600Y-40256235D01*
X72501622Y-40758859D01*
X72305508Y-41232320D01*
X72020795Y-41658423D01*
X71658423Y-42020795D01*
X71232320Y-42305508D01*
X70758859Y-42501622D01*
X70591318Y-42534948D01*
X70256237Y-42601600D01*
X69743763Y-42601600D01*
X69408682Y-42534948D01*
X69241141Y-42501622D01*
X68767680Y-42305508D01*
X68341577Y-42020795D01*
X67979205Y-41658423D01*
X67694492Y-41232320D01*
X67498378Y-40758859D01*
X67398400Y-40256235D01*
X67398400Y-39743765D01*
X67498378Y-39241141D01*
X67694492Y-38767680D01*
X67979205Y-38341577D01*
X68341577Y-37979205D01*
X68767680Y-37694492D01*
X69241141Y-37498378D01*
X69408682Y-37465052D01*
X69743763Y-37398400D01*
X70256237Y-37398400D01*
X70591318Y-37465052D01*
X70591318Y-37465052D01*
G37*
G36*
X140591318Y-37465052D02*
G01*
X140758859Y-37498378D01*
X141232320Y-37694492D01*
X141658423Y-37979205D01*
X142020795Y-38341577D01*
X142305508Y-38767680D01*
X142501622Y-39241141D01*
X142601600Y-39743765D01*
X142601600Y-40256235D01*
X142501622Y-40758859D01*
X142305508Y-41232320D01*
X142020795Y-41658423D01*
X141658423Y-42020795D01*
X141232320Y-42305508D01*
X140758859Y-42501622D01*
X140591318Y-42534948D01*
X140256237Y-42601600D01*
X139743763Y-42601600D01*
X139408682Y-42534948D01*
X139241141Y-42501622D01*
X138767680Y-42305508D01*
X138341577Y-42020795D01*
X137979205Y-41658423D01*
X137694492Y-41232320D01*
X137498378Y-40758859D01*
X137398400Y-40256235D01*
X137398400Y-39743765D01*
X137498378Y-39241141D01*
X137694492Y-38767680D01*
X137979205Y-38341577D01*
X138341577Y-37979205D01*
X138767680Y-37694492D01*
X139241141Y-37498378D01*
X139408682Y-37465052D01*
X139743763Y-37398400D01*
X140256237Y-37398400D01*
X140591318Y-37465052D01*
X140591318Y-37465052D01*
G37*
G36*
X144204473Y-35325938D02*
G01*
X144332049Y-35378782D01*
X144446859Y-35455495D01*
X144544505Y-35553141D01*
X144621218Y-35667951D01*
X144674062Y-35795527D01*
X144701000Y-35930956D01*
X144701000Y-36069044D01*
X144674062Y-36204473D01*
X144621218Y-36332049D01*
X144544505Y-36446859D01*
X144446859Y-36544505D01*
X144332049Y-36621218D01*
X144204473Y-36674062D01*
X144069044Y-36701000D01*
X143930956Y-36701000D01*
X143795527Y-36674062D01*
X143667951Y-36621218D01*
X143553141Y-36544505D01*
X143455495Y-36446859D01*
X143378782Y-36332049D01*
X143325938Y-36204473D01*
X143299000Y-36069044D01*
X143299000Y-35930956D01*
X143325938Y-35795527D01*
X143378782Y-35667951D01*
X143455495Y-35553141D01*
X143553141Y-35455495D01*
X143667951Y-35378782D01*
X143795527Y-35325938D01*
X143930956Y-35299000D01*
X144069044Y-35299000D01*
X144204473Y-35325938D01*
X144204473Y-35325938D01*
G37*
G36*
X66204473Y-35325938D02*
G01*
X66332049Y-35378782D01*
X66446859Y-35455495D01*
X66544505Y-35553141D01*
X66621218Y-35667951D01*
X66674062Y-35795527D01*
X66701000Y-35930956D01*
X66701000Y-36069044D01*
X66674062Y-36204473D01*
X66621218Y-36332049D01*
X66544505Y-36446859D01*
X66446859Y-36544505D01*
X66332049Y-36621218D01*
X66204473Y-36674062D01*
X66069044Y-36701000D01*
X65930956Y-36701000D01*
X65795527Y-36674062D01*
X65667951Y-36621218D01*
X65553141Y-36544505D01*
X65455495Y-36446859D01*
X65378782Y-36332049D01*
X65325938Y-36204473D01*
X65299000Y-36069044D01*
X65299000Y-35930956D01*
X65325938Y-35795527D01*
X65378782Y-35667951D01*
X65455495Y-35553141D01*
X65553141Y-35455495D01*
X65667951Y-35378782D01*
X65795527Y-35325938D01*
X65930956Y-35299000D01*
X66069044Y-35299000D01*
X66204473Y-35325938D01*
X66204473Y-35325938D01*
G37*
M02*
