G04 #@! TF.GenerationSoftware,KiCad,Pcbnew,(5.1.2-1)-1*
G04 #@! TF.CreationDate,2023-07-05T23:23:31-04:00*
G04 #@! TF.ProjectId,AmpClassD_Daugher,416d7043-6c61-4737-9344-5f4461756768,rev?*
G04 #@! TF.SameCoordinates,Original*
G04 #@! TF.FileFunction,Copper,L2,Bot*
G04 #@! TF.FilePolarity,Positive*
%FSLAX46Y46*%
G04 Gerber Fmt 4.6, Leading zero omitted, Abs format (unit mm)*
G04 Created by KiCad (PCBNEW (5.1.2-1)-1) date 2023-07-05 23:23:31*
%MOMM*%
%LPD*%
G04 APERTURE LIST*
%ADD10C,1.300000*%
%ADD11R,5.200000X11.000000*%
%ADD12C,0.600000*%
%ADD13O,1.700000X1.700000*%
%ADD14R,1.700000X1.700000*%
%ADD15C,5.000000*%
%ADD16C,0.100000*%
%ADD17C,1.800000*%
%ADD18O,3.600000X1.800000*%
%ADD19C,0.800000*%
%ADD20C,0.250000*%
%ADD21C,0.500000*%
%ADD22C,0.254000*%
G04 APERTURE END LIST*
D10*
X144000000Y-94000000D03*
X66000000Y-94000000D03*
X66000000Y-36000000D03*
X144000000Y-36000000D03*
D11*
X111750000Y-65000000D03*
D12*
X112500000Y-70200000D03*
X114000000Y-70200000D03*
X109500000Y-70200000D03*
X111000000Y-70200000D03*
X112500000Y-68900000D03*
X112500000Y-67600000D03*
X111000000Y-67600000D03*
X109500000Y-67600000D03*
X111000000Y-68900000D03*
X114000000Y-68900000D03*
X109500000Y-68900000D03*
X114000000Y-67600000D03*
X112500000Y-66300000D03*
X112500000Y-65000000D03*
X111000000Y-65000000D03*
X109500000Y-65000000D03*
X111000000Y-66300000D03*
X114000000Y-66300000D03*
X109500000Y-66300000D03*
X114000000Y-65000000D03*
X112500000Y-63700000D03*
X112500000Y-62400000D03*
X111000000Y-62400000D03*
X109500000Y-62400000D03*
X111000000Y-63700000D03*
X114000000Y-63700000D03*
X109500000Y-63700000D03*
X114000000Y-62400000D03*
X114000000Y-61100000D03*
X112500000Y-61100000D03*
X111000000Y-61100000D03*
X109500000Y-61100000D03*
X114000000Y-59800000D03*
X112500000Y-59800000D03*
X111000000Y-59800000D03*
X109500000Y-59800000D03*
D13*
X81250000Y-81520000D03*
X81250000Y-78980000D03*
X81250000Y-76440000D03*
X81250000Y-73900000D03*
X81250000Y-71360000D03*
X81250000Y-68820000D03*
X81250000Y-66280000D03*
X81250000Y-63740000D03*
X81250000Y-61200000D03*
X81250000Y-58660000D03*
X81250000Y-56120000D03*
X81250000Y-53580000D03*
X81250000Y-51040000D03*
D14*
X81250000Y-48500000D03*
X129250000Y-48500000D03*
D13*
X129250000Y-51040000D03*
X129250000Y-53580000D03*
X129250000Y-56120000D03*
X129250000Y-58660000D03*
X129250000Y-61200000D03*
X129250000Y-63740000D03*
X129250000Y-66280000D03*
X129250000Y-68820000D03*
X129250000Y-71360000D03*
X129250000Y-73900000D03*
X129250000Y-76440000D03*
X129250000Y-78980000D03*
X129250000Y-81520000D03*
D15*
X70000000Y-40000000D03*
X70000000Y-90000000D03*
X140000000Y-40000000D03*
X140000000Y-90000000D03*
D16*
G36*
X74574504Y-62196204D02*
G01*
X74598773Y-62199804D01*
X74622571Y-62205765D01*
X74645671Y-62214030D01*
X74667849Y-62224520D01*
X74688893Y-62237133D01*
X74708598Y-62251747D01*
X74726777Y-62268223D01*
X74743253Y-62286402D01*
X74757867Y-62306107D01*
X74770480Y-62327151D01*
X74780970Y-62349329D01*
X74789235Y-62372429D01*
X74795196Y-62396227D01*
X74798796Y-62420496D01*
X74800000Y-62445000D01*
X74800000Y-63745000D01*
X74798796Y-63769504D01*
X74795196Y-63793773D01*
X74789235Y-63817571D01*
X74780970Y-63840671D01*
X74770480Y-63862849D01*
X74757867Y-63883893D01*
X74743253Y-63903598D01*
X74726777Y-63921777D01*
X74708598Y-63938253D01*
X74688893Y-63952867D01*
X74667849Y-63965480D01*
X74645671Y-63975970D01*
X74622571Y-63984235D01*
X74598773Y-63990196D01*
X74574504Y-63993796D01*
X74550000Y-63995000D01*
X71450000Y-63995000D01*
X71425496Y-63993796D01*
X71401227Y-63990196D01*
X71377429Y-63984235D01*
X71354329Y-63975970D01*
X71332151Y-63965480D01*
X71311107Y-63952867D01*
X71291402Y-63938253D01*
X71273223Y-63921777D01*
X71256747Y-63903598D01*
X71242133Y-63883893D01*
X71229520Y-63862849D01*
X71219030Y-63840671D01*
X71210765Y-63817571D01*
X71204804Y-63793773D01*
X71201204Y-63769504D01*
X71200000Y-63745000D01*
X71200000Y-62445000D01*
X71201204Y-62420496D01*
X71204804Y-62396227D01*
X71210765Y-62372429D01*
X71219030Y-62349329D01*
X71229520Y-62327151D01*
X71242133Y-62306107D01*
X71256747Y-62286402D01*
X71273223Y-62268223D01*
X71291402Y-62251747D01*
X71311107Y-62237133D01*
X71332151Y-62224520D01*
X71354329Y-62214030D01*
X71377429Y-62205765D01*
X71401227Y-62199804D01*
X71425496Y-62196204D01*
X71450000Y-62195000D01*
X74550000Y-62195000D01*
X74574504Y-62196204D01*
X74574504Y-62196204D01*
G37*
D17*
X73000000Y-63095000D03*
D18*
X73000000Y-66905000D03*
D16*
G36*
X74574504Y-62196204D02*
G01*
X74598773Y-62199804D01*
X74622571Y-62205765D01*
X74645671Y-62214030D01*
X74667849Y-62224520D01*
X74688893Y-62237133D01*
X74708598Y-62251747D01*
X74726777Y-62268223D01*
X74743253Y-62286402D01*
X74757867Y-62306107D01*
X74770480Y-62327151D01*
X74780970Y-62349329D01*
X74789235Y-62372429D01*
X74795196Y-62396227D01*
X74798796Y-62420496D01*
X74800000Y-62445000D01*
X74800000Y-63745000D01*
X74798796Y-63769504D01*
X74795196Y-63793773D01*
X74789235Y-63817571D01*
X74780970Y-63840671D01*
X74770480Y-63862849D01*
X74757867Y-63883893D01*
X74743253Y-63903598D01*
X74726777Y-63921777D01*
X74708598Y-63938253D01*
X74688893Y-63952867D01*
X74667849Y-63965480D01*
X74645671Y-63975970D01*
X74622571Y-63984235D01*
X74598773Y-63990196D01*
X74574504Y-63993796D01*
X74550000Y-63995000D01*
X71450000Y-63995000D01*
X71425496Y-63993796D01*
X71401227Y-63990196D01*
X71377429Y-63984235D01*
X71354329Y-63975970D01*
X71332151Y-63965480D01*
X71311107Y-63952867D01*
X71291402Y-63938253D01*
X71273223Y-63921777D01*
X71256747Y-63903598D01*
X71242133Y-63883893D01*
X71229520Y-63862849D01*
X71219030Y-63840671D01*
X71210765Y-63817571D01*
X71204804Y-63793773D01*
X71201204Y-63769504D01*
X71200000Y-63745000D01*
X71200000Y-62445000D01*
X71201204Y-62420496D01*
X71204804Y-62396227D01*
X71210765Y-62372429D01*
X71219030Y-62349329D01*
X71229520Y-62327151D01*
X71242133Y-62306107D01*
X71256747Y-62286402D01*
X71273223Y-62268223D01*
X71291402Y-62251747D01*
X71311107Y-62237133D01*
X71332151Y-62224520D01*
X71354329Y-62214030D01*
X71377429Y-62205765D01*
X71401227Y-62199804D01*
X71425496Y-62196204D01*
X71450000Y-62195000D01*
X74550000Y-62195000D01*
X74574504Y-62196204D01*
X74574504Y-62196204D01*
G37*
D17*
X73000000Y-63095000D03*
D18*
X73000000Y-66905000D03*
X137000000Y-50595000D03*
D16*
G36*
X138574504Y-53506204D02*
G01*
X138598773Y-53509804D01*
X138622571Y-53515765D01*
X138645671Y-53524030D01*
X138667849Y-53534520D01*
X138688893Y-53547133D01*
X138708598Y-53561747D01*
X138726777Y-53578223D01*
X138743253Y-53596402D01*
X138757867Y-53616107D01*
X138770480Y-53637151D01*
X138780970Y-53659329D01*
X138789235Y-53682429D01*
X138795196Y-53706227D01*
X138798796Y-53730496D01*
X138800000Y-53755000D01*
X138800000Y-55055000D01*
X138798796Y-55079504D01*
X138795196Y-55103773D01*
X138789235Y-55127571D01*
X138780970Y-55150671D01*
X138770480Y-55172849D01*
X138757867Y-55193893D01*
X138743253Y-55213598D01*
X138726777Y-55231777D01*
X138708598Y-55248253D01*
X138688893Y-55262867D01*
X138667849Y-55275480D01*
X138645671Y-55285970D01*
X138622571Y-55294235D01*
X138598773Y-55300196D01*
X138574504Y-55303796D01*
X138550000Y-55305000D01*
X135450000Y-55305000D01*
X135425496Y-55303796D01*
X135401227Y-55300196D01*
X135377429Y-55294235D01*
X135354329Y-55285970D01*
X135332151Y-55275480D01*
X135311107Y-55262867D01*
X135291402Y-55248253D01*
X135273223Y-55231777D01*
X135256747Y-55213598D01*
X135242133Y-55193893D01*
X135229520Y-55172849D01*
X135219030Y-55150671D01*
X135210765Y-55127571D01*
X135204804Y-55103773D01*
X135201204Y-55079504D01*
X135200000Y-55055000D01*
X135200000Y-53755000D01*
X135201204Y-53730496D01*
X135204804Y-53706227D01*
X135210765Y-53682429D01*
X135219030Y-53659329D01*
X135229520Y-53637151D01*
X135242133Y-53616107D01*
X135256747Y-53596402D01*
X135273223Y-53578223D01*
X135291402Y-53561747D01*
X135311107Y-53547133D01*
X135332151Y-53534520D01*
X135354329Y-53524030D01*
X135377429Y-53515765D01*
X135401227Y-53509804D01*
X135425496Y-53506204D01*
X135450000Y-53505000D01*
X138550000Y-53505000D01*
X138574504Y-53506204D01*
X138574504Y-53506204D01*
G37*
D17*
X137000000Y-54405000D03*
D18*
X137000000Y-50595000D03*
D16*
G36*
X138574504Y-53506204D02*
G01*
X138598773Y-53509804D01*
X138622571Y-53515765D01*
X138645671Y-53524030D01*
X138667849Y-53534520D01*
X138688893Y-53547133D01*
X138708598Y-53561747D01*
X138726777Y-53578223D01*
X138743253Y-53596402D01*
X138757867Y-53616107D01*
X138770480Y-53637151D01*
X138780970Y-53659329D01*
X138789235Y-53682429D01*
X138795196Y-53706227D01*
X138798796Y-53730496D01*
X138800000Y-53755000D01*
X138800000Y-55055000D01*
X138798796Y-55079504D01*
X138795196Y-55103773D01*
X138789235Y-55127571D01*
X138780970Y-55150671D01*
X138770480Y-55172849D01*
X138757867Y-55193893D01*
X138743253Y-55213598D01*
X138726777Y-55231777D01*
X138708598Y-55248253D01*
X138688893Y-55262867D01*
X138667849Y-55275480D01*
X138645671Y-55285970D01*
X138622571Y-55294235D01*
X138598773Y-55300196D01*
X138574504Y-55303796D01*
X138550000Y-55305000D01*
X135450000Y-55305000D01*
X135425496Y-55303796D01*
X135401227Y-55300196D01*
X135377429Y-55294235D01*
X135354329Y-55285970D01*
X135332151Y-55275480D01*
X135311107Y-55262867D01*
X135291402Y-55248253D01*
X135273223Y-55231777D01*
X135256747Y-55213598D01*
X135242133Y-55193893D01*
X135229520Y-55172849D01*
X135219030Y-55150671D01*
X135210765Y-55127571D01*
X135204804Y-55103773D01*
X135201204Y-55079504D01*
X135200000Y-55055000D01*
X135200000Y-53755000D01*
X135201204Y-53730496D01*
X135204804Y-53706227D01*
X135210765Y-53682429D01*
X135219030Y-53659329D01*
X135229520Y-53637151D01*
X135242133Y-53616107D01*
X135256747Y-53596402D01*
X135273223Y-53578223D01*
X135291402Y-53561747D01*
X135311107Y-53547133D01*
X135332151Y-53534520D01*
X135354329Y-53524030D01*
X135377429Y-53515765D01*
X135401227Y-53509804D01*
X135425496Y-53506204D01*
X135450000Y-53505000D01*
X138550000Y-53505000D01*
X138574504Y-53506204D01*
X138574504Y-53506204D01*
G37*
D17*
X137000000Y-54405000D03*
D16*
G36*
X138574504Y-66006204D02*
G01*
X138598773Y-66009804D01*
X138622571Y-66015765D01*
X138645671Y-66024030D01*
X138667849Y-66034520D01*
X138688893Y-66047133D01*
X138708598Y-66061747D01*
X138726777Y-66078223D01*
X138743253Y-66096402D01*
X138757867Y-66116107D01*
X138770480Y-66137151D01*
X138780970Y-66159329D01*
X138789235Y-66182429D01*
X138795196Y-66206227D01*
X138798796Y-66230496D01*
X138800000Y-66255000D01*
X138800000Y-67555000D01*
X138798796Y-67579504D01*
X138795196Y-67603773D01*
X138789235Y-67627571D01*
X138780970Y-67650671D01*
X138770480Y-67672849D01*
X138757867Y-67693893D01*
X138743253Y-67713598D01*
X138726777Y-67731777D01*
X138708598Y-67748253D01*
X138688893Y-67762867D01*
X138667849Y-67775480D01*
X138645671Y-67785970D01*
X138622571Y-67794235D01*
X138598773Y-67800196D01*
X138574504Y-67803796D01*
X138550000Y-67805000D01*
X135450000Y-67805000D01*
X135425496Y-67803796D01*
X135401227Y-67800196D01*
X135377429Y-67794235D01*
X135354329Y-67785970D01*
X135332151Y-67775480D01*
X135311107Y-67762867D01*
X135291402Y-67748253D01*
X135273223Y-67731777D01*
X135256747Y-67713598D01*
X135242133Y-67693893D01*
X135229520Y-67672849D01*
X135219030Y-67650671D01*
X135210765Y-67627571D01*
X135204804Y-67603773D01*
X135201204Y-67579504D01*
X135200000Y-67555000D01*
X135200000Y-66255000D01*
X135201204Y-66230496D01*
X135204804Y-66206227D01*
X135210765Y-66182429D01*
X135219030Y-66159329D01*
X135229520Y-66137151D01*
X135242133Y-66116107D01*
X135256747Y-66096402D01*
X135273223Y-66078223D01*
X135291402Y-66061747D01*
X135311107Y-66047133D01*
X135332151Y-66034520D01*
X135354329Y-66024030D01*
X135377429Y-66015765D01*
X135401227Y-66009804D01*
X135425496Y-66006204D01*
X135450000Y-66005000D01*
X138550000Y-66005000D01*
X138574504Y-66006204D01*
X138574504Y-66006204D01*
G37*
D17*
X137000000Y-66905000D03*
D18*
X137000000Y-63095000D03*
D16*
G36*
X138574504Y-66006204D02*
G01*
X138598773Y-66009804D01*
X138622571Y-66015765D01*
X138645671Y-66024030D01*
X138667849Y-66034520D01*
X138688893Y-66047133D01*
X138708598Y-66061747D01*
X138726777Y-66078223D01*
X138743253Y-66096402D01*
X138757867Y-66116107D01*
X138770480Y-66137151D01*
X138780970Y-66159329D01*
X138789235Y-66182429D01*
X138795196Y-66206227D01*
X138798796Y-66230496D01*
X138800000Y-66255000D01*
X138800000Y-67555000D01*
X138798796Y-67579504D01*
X138795196Y-67603773D01*
X138789235Y-67627571D01*
X138780970Y-67650671D01*
X138770480Y-67672849D01*
X138757867Y-67693893D01*
X138743253Y-67713598D01*
X138726777Y-67731777D01*
X138708598Y-67748253D01*
X138688893Y-67762867D01*
X138667849Y-67775480D01*
X138645671Y-67785970D01*
X138622571Y-67794235D01*
X138598773Y-67800196D01*
X138574504Y-67803796D01*
X138550000Y-67805000D01*
X135450000Y-67805000D01*
X135425496Y-67803796D01*
X135401227Y-67800196D01*
X135377429Y-67794235D01*
X135354329Y-67785970D01*
X135332151Y-67775480D01*
X135311107Y-67762867D01*
X135291402Y-67748253D01*
X135273223Y-67731777D01*
X135256747Y-67713598D01*
X135242133Y-67693893D01*
X135229520Y-67672849D01*
X135219030Y-67650671D01*
X135210765Y-67627571D01*
X135204804Y-67603773D01*
X135201204Y-67579504D01*
X135200000Y-67555000D01*
X135200000Y-66255000D01*
X135201204Y-66230496D01*
X135204804Y-66206227D01*
X135210765Y-66182429D01*
X135219030Y-66159329D01*
X135229520Y-66137151D01*
X135242133Y-66116107D01*
X135256747Y-66096402D01*
X135273223Y-66078223D01*
X135291402Y-66061747D01*
X135311107Y-66047133D01*
X135332151Y-66034520D01*
X135354329Y-66024030D01*
X135377429Y-66015765D01*
X135401227Y-66009804D01*
X135425496Y-66006204D01*
X135450000Y-66005000D01*
X138550000Y-66005000D01*
X138574504Y-66006204D01*
X138574504Y-66006204D01*
G37*
D17*
X137000000Y-66905000D03*
D18*
X137000000Y-63095000D03*
X137000000Y-75595000D03*
D16*
G36*
X138574504Y-78506204D02*
G01*
X138598773Y-78509804D01*
X138622571Y-78515765D01*
X138645671Y-78524030D01*
X138667849Y-78534520D01*
X138688893Y-78547133D01*
X138708598Y-78561747D01*
X138726777Y-78578223D01*
X138743253Y-78596402D01*
X138757867Y-78616107D01*
X138770480Y-78637151D01*
X138780970Y-78659329D01*
X138789235Y-78682429D01*
X138795196Y-78706227D01*
X138798796Y-78730496D01*
X138800000Y-78755000D01*
X138800000Y-80055000D01*
X138798796Y-80079504D01*
X138795196Y-80103773D01*
X138789235Y-80127571D01*
X138780970Y-80150671D01*
X138770480Y-80172849D01*
X138757867Y-80193893D01*
X138743253Y-80213598D01*
X138726777Y-80231777D01*
X138708598Y-80248253D01*
X138688893Y-80262867D01*
X138667849Y-80275480D01*
X138645671Y-80285970D01*
X138622571Y-80294235D01*
X138598773Y-80300196D01*
X138574504Y-80303796D01*
X138550000Y-80305000D01*
X135450000Y-80305000D01*
X135425496Y-80303796D01*
X135401227Y-80300196D01*
X135377429Y-80294235D01*
X135354329Y-80285970D01*
X135332151Y-80275480D01*
X135311107Y-80262867D01*
X135291402Y-80248253D01*
X135273223Y-80231777D01*
X135256747Y-80213598D01*
X135242133Y-80193893D01*
X135229520Y-80172849D01*
X135219030Y-80150671D01*
X135210765Y-80127571D01*
X135204804Y-80103773D01*
X135201204Y-80079504D01*
X135200000Y-80055000D01*
X135200000Y-78755000D01*
X135201204Y-78730496D01*
X135204804Y-78706227D01*
X135210765Y-78682429D01*
X135219030Y-78659329D01*
X135229520Y-78637151D01*
X135242133Y-78616107D01*
X135256747Y-78596402D01*
X135273223Y-78578223D01*
X135291402Y-78561747D01*
X135311107Y-78547133D01*
X135332151Y-78534520D01*
X135354329Y-78524030D01*
X135377429Y-78515765D01*
X135401227Y-78509804D01*
X135425496Y-78506204D01*
X135450000Y-78505000D01*
X138550000Y-78505000D01*
X138574504Y-78506204D01*
X138574504Y-78506204D01*
G37*
D17*
X137000000Y-79405000D03*
D18*
X137000000Y-75595000D03*
D16*
G36*
X138574504Y-78506204D02*
G01*
X138598773Y-78509804D01*
X138622571Y-78515765D01*
X138645671Y-78524030D01*
X138667849Y-78534520D01*
X138688893Y-78547133D01*
X138708598Y-78561747D01*
X138726777Y-78578223D01*
X138743253Y-78596402D01*
X138757867Y-78616107D01*
X138770480Y-78637151D01*
X138780970Y-78659329D01*
X138789235Y-78682429D01*
X138795196Y-78706227D01*
X138798796Y-78730496D01*
X138800000Y-78755000D01*
X138800000Y-80055000D01*
X138798796Y-80079504D01*
X138795196Y-80103773D01*
X138789235Y-80127571D01*
X138780970Y-80150671D01*
X138770480Y-80172849D01*
X138757867Y-80193893D01*
X138743253Y-80213598D01*
X138726777Y-80231777D01*
X138708598Y-80248253D01*
X138688893Y-80262867D01*
X138667849Y-80275480D01*
X138645671Y-80285970D01*
X138622571Y-80294235D01*
X138598773Y-80300196D01*
X138574504Y-80303796D01*
X138550000Y-80305000D01*
X135450000Y-80305000D01*
X135425496Y-80303796D01*
X135401227Y-80300196D01*
X135377429Y-80294235D01*
X135354329Y-80285970D01*
X135332151Y-80275480D01*
X135311107Y-80262867D01*
X135291402Y-80248253D01*
X135273223Y-80231777D01*
X135256747Y-80213598D01*
X135242133Y-80193893D01*
X135229520Y-80172849D01*
X135219030Y-80150671D01*
X135210765Y-80127571D01*
X135204804Y-80103773D01*
X135201204Y-80079504D01*
X135200000Y-80055000D01*
X135200000Y-78755000D01*
X135201204Y-78730496D01*
X135204804Y-78706227D01*
X135210765Y-78682429D01*
X135219030Y-78659329D01*
X135229520Y-78637151D01*
X135242133Y-78616107D01*
X135256747Y-78596402D01*
X135273223Y-78578223D01*
X135291402Y-78561747D01*
X135311107Y-78547133D01*
X135332151Y-78534520D01*
X135354329Y-78524030D01*
X135377429Y-78515765D01*
X135401227Y-78509804D01*
X135425496Y-78506204D01*
X135450000Y-78505000D01*
X138550000Y-78505000D01*
X138574504Y-78506204D01*
X138574504Y-78506204D01*
G37*
D17*
X137000000Y-79405000D03*
D19*
X71750000Y-49000000D03*
X69750000Y-46500000D03*
X72750000Y-49000000D03*
X70750000Y-49000000D03*
X69750000Y-49000000D03*
X73750000Y-49000000D03*
X71750000Y-50000000D03*
X73750000Y-50000000D03*
X72750000Y-50000000D03*
X69750000Y-50000000D03*
X70750000Y-50000000D03*
X70750000Y-51000000D03*
X71750000Y-51000000D03*
X72750000Y-51000000D03*
X69750000Y-51000000D03*
X68750000Y-46500000D03*
X67750000Y-46500000D03*
X66750000Y-46500000D03*
X65750000Y-46500000D03*
X71750000Y-52000000D03*
X70750000Y-52000000D03*
X71750000Y-53000000D03*
X70750000Y-53000000D03*
X74750000Y-49000000D03*
X68750000Y-51000000D03*
X67750000Y-51000000D03*
X71750000Y-54000000D03*
X70750000Y-54000000D03*
X74250000Y-80500000D03*
X74250000Y-79500000D03*
X76250000Y-78500000D03*
X75250000Y-78500000D03*
X74250000Y-78500000D03*
X91829000Y-54864000D03*
X90868500Y-63309500D03*
X122595800Y-49111000D03*
X121595800Y-49111000D03*
X123595800Y-49111000D03*
X123595800Y-53111000D03*
X121595800Y-53111000D03*
X124595800Y-51111000D03*
X122595800Y-53111000D03*
X124595800Y-52111000D03*
X124595800Y-53111000D03*
X87750000Y-43750000D03*
X87750000Y-42750000D03*
X87750000Y-41750000D03*
X86750000Y-41750000D03*
X87750000Y-40750000D03*
X86750000Y-40750000D03*
X85750000Y-40750000D03*
X85750000Y-41750000D03*
X87750000Y-44750000D03*
X84750000Y-40750000D03*
X84750000Y-41750000D03*
X124595800Y-50111000D03*
X124595800Y-49111000D03*
X122047000Y-60960000D03*
X123126500Y-59944000D03*
X122047000Y-55880000D03*
X123126500Y-54864000D03*
X122047000Y-69151500D03*
X122047000Y-74041000D03*
X123126500Y-75057000D03*
X98361500Y-41592500D03*
X103886000Y-41592500D03*
X107632500Y-41592500D03*
X124608500Y-77016000D03*
X122608500Y-81016000D03*
X121608500Y-77016000D03*
X121608500Y-81016000D03*
X124608500Y-79016000D03*
X123608500Y-81016000D03*
X124608500Y-78016000D03*
X124608500Y-80016000D03*
X123608500Y-77016000D03*
X122608500Y-77016000D03*
X124608500Y-81016000D03*
X123126500Y-70167500D03*
X94170500Y-61277500D03*
X94107000Y-80581500D03*
X90868500Y-82550000D03*
X91948000Y-74104500D03*
X87312500Y-52832000D03*
X87312500Y-72072500D03*
X96266000Y-88138000D03*
X111633000Y-75819000D03*
X111633000Y-79375000D03*
X111633000Y-82931000D03*
X93853000Y-84582000D03*
X90106500Y-84582000D03*
X86750000Y-45750000D03*
X87750000Y-45750000D03*
X85750000Y-45750000D03*
X84750000Y-45750000D03*
X113601500Y-74549000D03*
X111633000Y-72263000D03*
X111760000Y-46990000D03*
X111760000Y-48768000D03*
X111760000Y-52324000D03*
X111760000Y-55880000D03*
X113601500Y-55435500D03*
X105494479Y-63659583D03*
X88709500Y-64974990D03*
X98393250Y-65881250D03*
X100457000Y-69723000D03*
X100457000Y-62103000D03*
X100457000Y-59563000D03*
X82804000Y-88455500D03*
X111633000Y-74041000D03*
X106832501Y-58832501D03*
X95544944Y-54105944D03*
X94170500Y-64389000D03*
X87630000Y-64974990D03*
X94832597Y-55843597D03*
X105537000Y-62103000D03*
X105727500Y-59626500D03*
X101219000Y-64643000D03*
X106934000Y-57658000D03*
X105816266Y-69060971D03*
X101282500Y-67183000D03*
D20*
X106452501Y-62260501D02*
X106452501Y-59974501D01*
X105494479Y-63218523D02*
X106452501Y-62260501D01*
X105494479Y-63659583D02*
X105494479Y-63218523D01*
X106452501Y-59974501D02*
X106452501Y-59212501D01*
X82324490Y-71360000D02*
X81250000Y-71360000D01*
X88709500Y-64974990D02*
X82324490Y-71360000D01*
X98393250Y-67659250D02*
X98393250Y-65881250D01*
X100457000Y-69723000D02*
X98393250Y-67659250D01*
X98393250Y-64166750D02*
X100457000Y-62103000D01*
X98393250Y-65881250D02*
X98393250Y-64166750D01*
X100457000Y-62103000D02*
X100457000Y-59563000D01*
X105494479Y-64225268D02*
X106553000Y-65283789D01*
X105494479Y-63659583D02*
X105494479Y-64225268D01*
X106553000Y-65283789D02*
X106553000Y-71755000D01*
X108839000Y-74041000D02*
X111633000Y-74041000D01*
X106553000Y-71755000D02*
X108839000Y-74041000D01*
X106452501Y-59212501D02*
X106832501Y-58832501D01*
D21*
X94570499Y-63989001D02*
X94170500Y-64389000D01*
X95682598Y-62876902D02*
X94570499Y-63989001D01*
X95682598Y-54809283D02*
X95682598Y-62876902D01*
X95544944Y-54671629D02*
X95682598Y-54809283D01*
X95544944Y-54105944D02*
X95544944Y-54671629D01*
D20*
X83784990Y-68820000D02*
X81250000Y-68820000D01*
X87630000Y-64974990D02*
X83784990Y-68820000D01*
X84396194Y-66280000D02*
X81250000Y-66280000D01*
X94832597Y-55843597D02*
X84396194Y-66280000D01*
X105727500Y-61912500D02*
X105537000Y-62103000D01*
X105727500Y-59626500D02*
X105727500Y-61912500D01*
X106934000Y-57658000D02*
X103759000Y-57658000D01*
X103759000Y-57658000D02*
X102870000Y-58547000D01*
X102870000Y-62992000D02*
X101219000Y-64643000D01*
X102870000Y-58547000D02*
X102870000Y-62992000D01*
X103160471Y-69060971D02*
X105816266Y-69060971D01*
X101282500Y-67183000D02*
X103160471Y-69060971D01*
D22*
G36*
X136731728Y-36017599D02*
G01*
X136017599Y-36731728D01*
X135456512Y-37571455D01*
X135070028Y-38504509D01*
X134873000Y-39495035D01*
X134873000Y-40504965D01*
X135070028Y-41495491D01*
X135456512Y-42428545D01*
X136017599Y-43268272D01*
X136731728Y-43982401D01*
X137571455Y-44543488D01*
X138504509Y-44929972D01*
X139495035Y-45127000D01*
X140504965Y-45127000D01*
X141495491Y-44929972D01*
X142428545Y-44543488D01*
X143268272Y-43982401D01*
X143982401Y-43268272D01*
X144340001Y-42733085D01*
X144340000Y-87266914D01*
X143982401Y-86731728D01*
X143268272Y-86017599D01*
X142428545Y-85456512D01*
X141495491Y-85070028D01*
X140504965Y-84873000D01*
X139495035Y-84873000D01*
X138504509Y-85070028D01*
X137571455Y-85456512D01*
X136731728Y-86017599D01*
X136017599Y-86731728D01*
X135456512Y-87571455D01*
X135070028Y-88504509D01*
X134873000Y-89495035D01*
X134873000Y-90504965D01*
X135070028Y-91495491D01*
X135456512Y-92428545D01*
X136017599Y-93268272D01*
X136731728Y-93982401D01*
X137266913Y-94340000D01*
X72733087Y-94340000D01*
X73268272Y-93982401D01*
X73982401Y-93268272D01*
X74543488Y-92428545D01*
X74929972Y-91495491D01*
X75127000Y-90504965D01*
X75127000Y-89495035D01*
X74929972Y-88504509D01*
X74543488Y-87571455D01*
X73982401Y-86731728D01*
X73268272Y-86017599D01*
X72428545Y-85456512D01*
X71495491Y-85070028D01*
X70504965Y-84873000D01*
X69495035Y-84873000D01*
X68504509Y-85070028D01*
X67571455Y-85456512D01*
X66731728Y-86017599D01*
X66017599Y-86731728D01*
X65660000Y-87266913D01*
X65660000Y-81520000D01*
X79757815Y-81520000D01*
X79786487Y-81811111D01*
X79871401Y-82091034D01*
X80009294Y-82349014D01*
X80194866Y-82575134D01*
X80420986Y-82760706D01*
X80678966Y-82898599D01*
X80958889Y-82983513D01*
X81177050Y-83005000D01*
X81322950Y-83005000D01*
X81541111Y-82983513D01*
X81821034Y-82898599D01*
X82079014Y-82760706D01*
X82305134Y-82575134D01*
X82490706Y-82349014D01*
X82628599Y-82091034D01*
X82693559Y-81876890D01*
X127808524Y-81876890D01*
X127853175Y-82024099D01*
X127978359Y-82286920D01*
X128152412Y-82520269D01*
X128368645Y-82715178D01*
X128618748Y-82864157D01*
X128893109Y-82961481D01*
X129123000Y-82840814D01*
X129123000Y-81647000D01*
X129377000Y-81647000D01*
X129377000Y-82840814D01*
X129606891Y-82961481D01*
X129881252Y-82864157D01*
X130131355Y-82715178D01*
X130347588Y-82520269D01*
X130521641Y-82286920D01*
X130646825Y-82024099D01*
X130691476Y-81876890D01*
X130570155Y-81647000D01*
X129377000Y-81647000D01*
X129123000Y-81647000D01*
X127929845Y-81647000D01*
X127808524Y-81876890D01*
X82693559Y-81876890D01*
X82713513Y-81811111D01*
X82742185Y-81520000D01*
X82713513Y-81228889D01*
X82628599Y-80948966D01*
X82490706Y-80690986D01*
X82305134Y-80464866D01*
X82079014Y-80279294D01*
X82014477Y-80244799D01*
X82131355Y-80175178D01*
X82347588Y-79980269D01*
X82521641Y-79746920D01*
X82646825Y-79484099D01*
X82691476Y-79336890D01*
X82570155Y-79107000D01*
X81377000Y-79107000D01*
X81377000Y-79127000D01*
X81123000Y-79127000D01*
X81123000Y-79107000D01*
X79929845Y-79107000D01*
X79808524Y-79336890D01*
X79853175Y-79484099D01*
X79978359Y-79746920D01*
X80152412Y-79980269D01*
X80368645Y-80175178D01*
X80485523Y-80244799D01*
X80420986Y-80279294D01*
X80194866Y-80464866D01*
X80009294Y-80690986D01*
X79871401Y-80948966D01*
X79786487Y-81228889D01*
X79757815Y-81520000D01*
X65660000Y-81520000D01*
X65660000Y-79878363D01*
X70765000Y-79878363D01*
X70765000Y-80121637D01*
X70812460Y-80360236D01*
X70905557Y-80584992D01*
X71040713Y-80787267D01*
X71212733Y-80959287D01*
X71415008Y-81094443D01*
X71639764Y-81187540D01*
X71878363Y-81235000D01*
X72121637Y-81235000D01*
X72360236Y-81187540D01*
X72584992Y-81094443D01*
X72787267Y-80959287D01*
X72959287Y-80787267D01*
X73094443Y-80584992D01*
X73187540Y-80360236D01*
X73235000Y-80121637D01*
X73235000Y-79878363D01*
X73187540Y-79639764D01*
X73094443Y-79415008D01*
X72959287Y-79212733D01*
X72787267Y-79040713D01*
X72584992Y-78905557D01*
X72360236Y-78812460D01*
X72121637Y-78765000D01*
X71878363Y-78765000D01*
X71639764Y-78812460D01*
X71415008Y-78905557D01*
X71212733Y-79040713D01*
X71040713Y-79212733D01*
X70905557Y-79415008D01*
X70812460Y-79639764D01*
X70765000Y-79878363D01*
X65660000Y-79878363D01*
X65660000Y-74878363D01*
X70765000Y-74878363D01*
X70765000Y-75121637D01*
X70812460Y-75360236D01*
X70905557Y-75584992D01*
X71040713Y-75787267D01*
X71212733Y-75959287D01*
X71415008Y-76094443D01*
X71639764Y-76187540D01*
X71878363Y-76235000D01*
X72121637Y-76235000D01*
X72360236Y-76187540D01*
X72584992Y-76094443D01*
X72787267Y-75959287D01*
X72959287Y-75787267D01*
X73094443Y-75584992D01*
X73187540Y-75360236D01*
X73235000Y-75121637D01*
X73235000Y-74878363D01*
X73187540Y-74639764D01*
X73094443Y-74415008D01*
X72959287Y-74212733D01*
X72787267Y-74040713D01*
X72584992Y-73905557D01*
X72360236Y-73812460D01*
X72121637Y-73765000D01*
X71878363Y-73765000D01*
X71639764Y-73812460D01*
X71415008Y-73905557D01*
X71212733Y-74040713D01*
X71040713Y-74212733D01*
X70905557Y-74415008D01*
X70812460Y-74639764D01*
X70765000Y-74878363D01*
X65660000Y-74878363D01*
X65660000Y-66905000D01*
X70557573Y-66905000D01*
X70587210Y-67205913D01*
X70674983Y-67495261D01*
X70817519Y-67761927D01*
X71009339Y-67995661D01*
X71243073Y-68187481D01*
X71509739Y-68330017D01*
X71799087Y-68417790D01*
X72024592Y-68440000D01*
X73975408Y-68440000D01*
X74200913Y-68417790D01*
X74490261Y-68330017D01*
X74756927Y-68187481D01*
X74990661Y-67995661D01*
X75182481Y-67761927D01*
X75325017Y-67495261D01*
X75412790Y-67205913D01*
X75442427Y-66905000D01*
X75412790Y-66604087D01*
X75325017Y-66314739D01*
X75306449Y-66280000D01*
X79757815Y-66280000D01*
X79786487Y-66571111D01*
X79871401Y-66851034D01*
X80009294Y-67109014D01*
X80194866Y-67335134D01*
X80420986Y-67520706D01*
X80475791Y-67550000D01*
X80420986Y-67579294D01*
X80194866Y-67764866D01*
X80009294Y-67990986D01*
X79871401Y-68248966D01*
X79786487Y-68528889D01*
X79757815Y-68820000D01*
X79786487Y-69111111D01*
X79871401Y-69391034D01*
X80009294Y-69649014D01*
X80194866Y-69875134D01*
X80420986Y-70060706D01*
X80475791Y-70090000D01*
X80420986Y-70119294D01*
X80194866Y-70304866D01*
X80009294Y-70530986D01*
X79871401Y-70788966D01*
X79786487Y-71068889D01*
X79757815Y-71360000D01*
X79786487Y-71651111D01*
X79871401Y-71931034D01*
X80009294Y-72189014D01*
X80194866Y-72415134D01*
X80420986Y-72600706D01*
X80475791Y-72630000D01*
X80420986Y-72659294D01*
X80194866Y-72844866D01*
X80009294Y-73070986D01*
X79871401Y-73328966D01*
X79786487Y-73608889D01*
X79757815Y-73900000D01*
X79786487Y-74191111D01*
X79871401Y-74471034D01*
X80009294Y-74729014D01*
X80194866Y-74955134D01*
X80420986Y-75140706D01*
X80475791Y-75170000D01*
X80420986Y-75199294D01*
X80194866Y-75384866D01*
X80009294Y-75610986D01*
X79871401Y-75868966D01*
X79786487Y-76148889D01*
X79757815Y-76440000D01*
X79786487Y-76731111D01*
X79871401Y-77011034D01*
X80009294Y-77269014D01*
X80194866Y-77495134D01*
X80420986Y-77680706D01*
X80485523Y-77715201D01*
X80368645Y-77784822D01*
X80152412Y-77979731D01*
X79978359Y-78213080D01*
X79853175Y-78475901D01*
X79808524Y-78623110D01*
X79929845Y-78853000D01*
X81123000Y-78853000D01*
X81123000Y-78833000D01*
X81377000Y-78833000D01*
X81377000Y-78853000D01*
X82570155Y-78853000D01*
X82691476Y-78623110D01*
X82646825Y-78475901D01*
X82521641Y-78213080D01*
X82347588Y-77979731D01*
X82131355Y-77784822D01*
X82014477Y-77715201D01*
X82079014Y-77680706D01*
X82305134Y-77495134D01*
X82490706Y-77269014D01*
X82628599Y-77011034D01*
X82713513Y-76731111D01*
X82742185Y-76440000D01*
X82713513Y-76148889D01*
X82628599Y-75868966D01*
X82490706Y-75610986D01*
X82305134Y-75384866D01*
X82079014Y-75199294D01*
X82024209Y-75170000D01*
X82079014Y-75140706D01*
X82305134Y-74955134D01*
X82490706Y-74729014D01*
X82628599Y-74471034D01*
X82713513Y-74191111D01*
X82742185Y-73900000D01*
X82713513Y-73608889D01*
X82628599Y-73328966D01*
X82490706Y-73070986D01*
X82305134Y-72844866D01*
X82079014Y-72659294D01*
X82024209Y-72630000D01*
X82079014Y-72600706D01*
X82305134Y-72415134D01*
X82490706Y-72189014D01*
X82545083Y-72087282D01*
X82616737Y-72065546D01*
X82748766Y-71994974D01*
X82864491Y-71900001D01*
X82888294Y-71870997D01*
X88749302Y-66009990D01*
X88811439Y-66009990D01*
X89011398Y-65970216D01*
X89199756Y-65892195D01*
X89368699Y-65779311D01*
X97358250Y-65779311D01*
X97358250Y-65983189D01*
X97398024Y-66183148D01*
X97476045Y-66371506D01*
X97589313Y-66541024D01*
X97633251Y-66584962D01*
X97633250Y-67621927D01*
X97629574Y-67659250D01*
X97633250Y-67696572D01*
X97633250Y-67696582D01*
X97644247Y-67808235D01*
X97663305Y-67871061D01*
X97687704Y-67951496D01*
X97758276Y-68083526D01*
X97798121Y-68132076D01*
X97853249Y-68199251D01*
X97882253Y-68223054D01*
X99422000Y-69762802D01*
X99422000Y-69824939D01*
X99461774Y-70024898D01*
X99539795Y-70213256D01*
X99653063Y-70382774D01*
X99797226Y-70526937D01*
X99966744Y-70640205D01*
X100155102Y-70718226D01*
X100355061Y-70758000D01*
X100558939Y-70758000D01*
X100758898Y-70718226D01*
X100947256Y-70640205D01*
X101116774Y-70526937D01*
X101260937Y-70382774D01*
X101374205Y-70213256D01*
X101452226Y-70024898D01*
X101492000Y-69824939D01*
X101492000Y-69621061D01*
X101452226Y-69421102D01*
X101374205Y-69232744D01*
X101260937Y-69063226D01*
X101116774Y-68919063D01*
X100947256Y-68805795D01*
X100758898Y-68727774D01*
X100558939Y-68688000D01*
X100496802Y-68688000D01*
X99153250Y-67344449D01*
X99153250Y-66584961D01*
X99197187Y-66541024D01*
X99310455Y-66371506D01*
X99388476Y-66183148D01*
X99428250Y-65983189D01*
X99428250Y-65779311D01*
X99388476Y-65579352D01*
X99310455Y-65390994D01*
X99197187Y-65221476D01*
X99153250Y-65177539D01*
X99153250Y-64541061D01*
X100184000Y-64541061D01*
X100184000Y-64744939D01*
X100223774Y-64944898D01*
X100301795Y-65133256D01*
X100415063Y-65302774D01*
X100559226Y-65446937D01*
X100728744Y-65560205D01*
X100917102Y-65638226D01*
X101117061Y-65678000D01*
X101320939Y-65678000D01*
X101520898Y-65638226D01*
X101709256Y-65560205D01*
X101878774Y-65446937D01*
X102022937Y-65302774D01*
X102136205Y-65133256D01*
X102214226Y-64944898D01*
X102254000Y-64744939D01*
X102254000Y-64682801D01*
X103381003Y-63555799D01*
X103410001Y-63532001D01*
X103504974Y-63416276D01*
X103575546Y-63284247D01*
X103619003Y-63140986D01*
X103630000Y-63029333D01*
X103633677Y-62992000D01*
X103630000Y-62954667D01*
X103630000Y-58861801D01*
X104073802Y-58418000D01*
X105883917Y-58418000D01*
X105837275Y-58530603D01*
X105825162Y-58591500D01*
X105625561Y-58591500D01*
X105425602Y-58631274D01*
X105237244Y-58709295D01*
X105067726Y-58822563D01*
X104923563Y-58966726D01*
X104810295Y-59136244D01*
X104732274Y-59324602D01*
X104692500Y-59524561D01*
X104692500Y-59728439D01*
X104732274Y-59928398D01*
X104810295Y-60116756D01*
X104923563Y-60286274D01*
X104967500Y-60330211D01*
X104967501Y-61238744D01*
X104877226Y-61299063D01*
X104733063Y-61443226D01*
X104619795Y-61612744D01*
X104541774Y-61801102D01*
X104502000Y-62001061D01*
X104502000Y-62204939D01*
X104541774Y-62404898D01*
X104619795Y-62593256D01*
X104733063Y-62762774D01*
X104826424Y-62856135D01*
X104817478Y-62872873D01*
X104690542Y-62999809D01*
X104577274Y-63169327D01*
X104499253Y-63357685D01*
X104459479Y-63557644D01*
X104459479Y-63761522D01*
X104499253Y-63961481D01*
X104577274Y-64149839D01*
X104690542Y-64319357D01*
X104745492Y-64374307D01*
X104788933Y-64517515D01*
X104798165Y-64534786D01*
X104859505Y-64649544D01*
X104925985Y-64730549D01*
X104954479Y-64765269D01*
X104983477Y-64789067D01*
X105793000Y-65598591D01*
X105793000Y-68025971D01*
X105714327Y-68025971D01*
X105514368Y-68065745D01*
X105326010Y-68143766D01*
X105156492Y-68257034D01*
X105112555Y-68300971D01*
X103475273Y-68300971D01*
X102317500Y-67143199D01*
X102317500Y-67081061D01*
X102277726Y-66881102D01*
X102199705Y-66692744D01*
X102086437Y-66523226D01*
X101942274Y-66379063D01*
X101772756Y-66265795D01*
X101584398Y-66187774D01*
X101384439Y-66148000D01*
X101180561Y-66148000D01*
X100980602Y-66187774D01*
X100792244Y-66265795D01*
X100622726Y-66379063D01*
X100478563Y-66523226D01*
X100365295Y-66692744D01*
X100287274Y-66881102D01*
X100247500Y-67081061D01*
X100247500Y-67284939D01*
X100287274Y-67484898D01*
X100365295Y-67673256D01*
X100478563Y-67842774D01*
X100622726Y-67986937D01*
X100792244Y-68100205D01*
X100980602Y-68178226D01*
X101180561Y-68218000D01*
X101242699Y-68218000D01*
X102596672Y-69571974D01*
X102620470Y-69600972D01*
X102649468Y-69624770D01*
X102736194Y-69695945D01*
X102828089Y-69745064D01*
X102868224Y-69766517D01*
X103011485Y-69809974D01*
X103123138Y-69820971D01*
X103123147Y-69820971D01*
X103160470Y-69824647D01*
X103197793Y-69820971D01*
X105112555Y-69820971D01*
X105156492Y-69864908D01*
X105326010Y-69978176D01*
X105514368Y-70056197D01*
X105714327Y-70095971D01*
X105793001Y-70095971D01*
X105793001Y-71717668D01*
X105789324Y-71755000D01*
X105803998Y-71903985D01*
X105847454Y-72047246D01*
X105918026Y-72179276D01*
X105989201Y-72266002D01*
X106013000Y-72295001D01*
X106041998Y-72318799D01*
X108275201Y-74552003D01*
X108298999Y-74581001D01*
X108414724Y-74675974D01*
X108546753Y-74746546D01*
X108690014Y-74790003D01*
X108801667Y-74801000D01*
X108801676Y-74801000D01*
X108838999Y-74804676D01*
X108876322Y-74801000D01*
X110929289Y-74801000D01*
X110973226Y-74844937D01*
X111142744Y-74958205D01*
X111331102Y-75036226D01*
X111531061Y-75076000D01*
X111734939Y-75076000D01*
X111934898Y-75036226D01*
X112123256Y-74958205D01*
X112292774Y-74844937D01*
X112436937Y-74700774D01*
X112550205Y-74531256D01*
X112628226Y-74342898D01*
X112668000Y-74142939D01*
X112668000Y-73939061D01*
X112628226Y-73739102D01*
X112550205Y-73550744D01*
X112436937Y-73381226D01*
X112292774Y-73237063D01*
X112123256Y-73123795D01*
X111934898Y-73045774D01*
X111734939Y-73006000D01*
X111531061Y-73006000D01*
X111331102Y-73045774D01*
X111142744Y-73123795D01*
X110973226Y-73237063D01*
X110929289Y-73281000D01*
X109153802Y-73281000D01*
X107313000Y-71440199D01*
X107313000Y-70834541D01*
X109045064Y-70834541D01*
X109055575Y-71027763D01*
X109225603Y-71098562D01*
X109406176Y-71134828D01*
X109590355Y-71135171D01*
X109771061Y-71099574D01*
X109941351Y-71029408D01*
X109944425Y-71027763D01*
X109954936Y-70834541D01*
X110545064Y-70834541D01*
X110555575Y-71027763D01*
X110725603Y-71098562D01*
X110906176Y-71134828D01*
X111090355Y-71135171D01*
X111271061Y-71099574D01*
X111441351Y-71029408D01*
X111444425Y-71027763D01*
X111454936Y-70834541D01*
X112045064Y-70834541D01*
X112055575Y-71027763D01*
X112225603Y-71098562D01*
X112406176Y-71134828D01*
X112590355Y-71135171D01*
X112771061Y-71099574D01*
X112941351Y-71029408D01*
X112944425Y-71027763D01*
X112954936Y-70834541D01*
X113545064Y-70834541D01*
X113555575Y-71027763D01*
X113725603Y-71098562D01*
X113906176Y-71134828D01*
X114090355Y-71135171D01*
X114271061Y-71099574D01*
X114441351Y-71029408D01*
X114444425Y-71027763D01*
X114454936Y-70834541D01*
X114000000Y-70379605D01*
X113545064Y-70834541D01*
X112954936Y-70834541D01*
X112500000Y-70379605D01*
X112045064Y-70834541D01*
X111454936Y-70834541D01*
X111000000Y-70379605D01*
X110545064Y-70834541D01*
X109954936Y-70834541D01*
X109500000Y-70379605D01*
X109045064Y-70834541D01*
X107313000Y-70834541D01*
X107313000Y-70290355D01*
X108564829Y-70290355D01*
X108600426Y-70471061D01*
X108670592Y-70641351D01*
X108672237Y-70644425D01*
X108865459Y-70654936D01*
X109320395Y-70200000D01*
X109679605Y-70200000D01*
X110134541Y-70654936D01*
X110250000Y-70648655D01*
X110365459Y-70654936D01*
X110820395Y-70200000D01*
X111179605Y-70200000D01*
X111634541Y-70654936D01*
X111750000Y-70648655D01*
X111865459Y-70654936D01*
X112320395Y-70200000D01*
X112679605Y-70200000D01*
X113134541Y-70654936D01*
X113250000Y-70648655D01*
X113365459Y-70654936D01*
X113820395Y-70200000D01*
X114179605Y-70200000D01*
X114634541Y-70654936D01*
X114827763Y-70644425D01*
X114898562Y-70474397D01*
X114934828Y-70293824D01*
X114935171Y-70109645D01*
X114899574Y-69928939D01*
X114829408Y-69758649D01*
X114827763Y-69755575D01*
X114634541Y-69745064D01*
X114179605Y-70200000D01*
X113820395Y-70200000D01*
X113365459Y-69745064D01*
X113250000Y-69751345D01*
X113134541Y-69745064D01*
X112679605Y-70200000D01*
X112320395Y-70200000D01*
X111865459Y-69745064D01*
X111750000Y-69751345D01*
X111634541Y-69745064D01*
X111179605Y-70200000D01*
X110820395Y-70200000D01*
X110365459Y-69745064D01*
X110250000Y-69751345D01*
X110134541Y-69745064D01*
X109679605Y-70200000D01*
X109320395Y-70200000D01*
X108865459Y-69745064D01*
X108672237Y-69755575D01*
X108601438Y-69925603D01*
X108565172Y-70106176D01*
X108564829Y-70290355D01*
X107313000Y-70290355D01*
X107313000Y-69534541D01*
X109045064Y-69534541D01*
X109045905Y-69550000D01*
X109045064Y-69565459D01*
X109046843Y-69567238D01*
X109055575Y-69727763D01*
X109225603Y-69798562D01*
X109291377Y-69811772D01*
X109500000Y-70020395D01*
X109708497Y-69811898D01*
X109771061Y-69799574D01*
X109941351Y-69729408D01*
X109944425Y-69727763D01*
X109953157Y-69567238D01*
X109954936Y-69565459D01*
X109954095Y-69550000D01*
X109954936Y-69534541D01*
X110545064Y-69534541D01*
X110545905Y-69550000D01*
X110545064Y-69565459D01*
X110546843Y-69567238D01*
X110555575Y-69727763D01*
X110725603Y-69798562D01*
X110791377Y-69811772D01*
X111000000Y-70020395D01*
X111208497Y-69811898D01*
X111271061Y-69799574D01*
X111441351Y-69729408D01*
X111444425Y-69727763D01*
X111453157Y-69567238D01*
X111454936Y-69565459D01*
X111454095Y-69550000D01*
X111454936Y-69534541D01*
X112045064Y-69534541D01*
X112045905Y-69550000D01*
X112045064Y-69565459D01*
X112046843Y-69567238D01*
X112055575Y-69727763D01*
X112225603Y-69798562D01*
X112291377Y-69811772D01*
X112500000Y-70020395D01*
X112708497Y-69811898D01*
X112771061Y-69799574D01*
X112941351Y-69729408D01*
X112944425Y-69727763D01*
X112953157Y-69567238D01*
X112954936Y-69565459D01*
X112954095Y-69550000D01*
X112954936Y-69534541D01*
X113545064Y-69534541D01*
X113545905Y-69550000D01*
X113545064Y-69565459D01*
X113546843Y-69567238D01*
X113555575Y-69727763D01*
X113725603Y-69798562D01*
X113791377Y-69811772D01*
X114000000Y-70020395D01*
X114208497Y-69811898D01*
X114271061Y-69799574D01*
X114441351Y-69729408D01*
X114444425Y-69727763D01*
X114453157Y-69567238D01*
X114454936Y-69565459D01*
X114454095Y-69550000D01*
X114454936Y-69534541D01*
X114453157Y-69532762D01*
X114444425Y-69372237D01*
X114274397Y-69301438D01*
X114208623Y-69288228D01*
X114000000Y-69079605D01*
X113791503Y-69288102D01*
X113728939Y-69300426D01*
X113558649Y-69370592D01*
X113555575Y-69372237D01*
X113546843Y-69532762D01*
X113545064Y-69534541D01*
X112954936Y-69534541D01*
X112953157Y-69532762D01*
X112944425Y-69372237D01*
X112774397Y-69301438D01*
X112708623Y-69288228D01*
X112500000Y-69079605D01*
X112291503Y-69288102D01*
X112228939Y-69300426D01*
X112058649Y-69370592D01*
X112055575Y-69372237D01*
X112046843Y-69532762D01*
X112045064Y-69534541D01*
X111454936Y-69534541D01*
X111453157Y-69532762D01*
X111444425Y-69372237D01*
X111274397Y-69301438D01*
X111208623Y-69288228D01*
X111000000Y-69079605D01*
X110791503Y-69288102D01*
X110728939Y-69300426D01*
X110558649Y-69370592D01*
X110555575Y-69372237D01*
X110546843Y-69532762D01*
X110545064Y-69534541D01*
X109954936Y-69534541D01*
X109953157Y-69532762D01*
X109944425Y-69372237D01*
X109774397Y-69301438D01*
X109708623Y-69288228D01*
X109500000Y-69079605D01*
X109291503Y-69288102D01*
X109228939Y-69300426D01*
X109058649Y-69370592D01*
X109055575Y-69372237D01*
X109046843Y-69532762D01*
X109045064Y-69534541D01*
X107313000Y-69534541D01*
X107313000Y-68990355D01*
X108564829Y-68990355D01*
X108600426Y-69171061D01*
X108670592Y-69341351D01*
X108672237Y-69344425D01*
X108865459Y-69354936D01*
X109320395Y-68900000D01*
X109679605Y-68900000D01*
X110134541Y-69354936D01*
X110250000Y-69348655D01*
X110365459Y-69354936D01*
X110820395Y-68900000D01*
X111179605Y-68900000D01*
X111634541Y-69354936D01*
X111750000Y-69348655D01*
X111865459Y-69354936D01*
X112320395Y-68900000D01*
X112679605Y-68900000D01*
X113134541Y-69354936D01*
X113250000Y-69348655D01*
X113365459Y-69354936D01*
X113820395Y-68900000D01*
X114179605Y-68900000D01*
X114634541Y-69354936D01*
X114827763Y-69344425D01*
X114898562Y-69174397D01*
X114934828Y-68993824D01*
X114935171Y-68809645D01*
X114899574Y-68628939D01*
X114829408Y-68458649D01*
X114827763Y-68455575D01*
X114634541Y-68445064D01*
X114179605Y-68900000D01*
X113820395Y-68900000D01*
X113365459Y-68445064D01*
X113250000Y-68451345D01*
X113134541Y-68445064D01*
X112679605Y-68900000D01*
X112320395Y-68900000D01*
X111865459Y-68445064D01*
X111750000Y-68451345D01*
X111634541Y-68445064D01*
X111179605Y-68900000D01*
X110820395Y-68900000D01*
X110365459Y-68445064D01*
X110250000Y-68451345D01*
X110134541Y-68445064D01*
X109679605Y-68900000D01*
X109320395Y-68900000D01*
X108865459Y-68445064D01*
X108672237Y-68455575D01*
X108601438Y-68625603D01*
X108565172Y-68806176D01*
X108564829Y-68990355D01*
X107313000Y-68990355D01*
X107313000Y-68234541D01*
X109045064Y-68234541D01*
X109045905Y-68250000D01*
X109045064Y-68265459D01*
X109046843Y-68267238D01*
X109055575Y-68427763D01*
X109225603Y-68498562D01*
X109291377Y-68511772D01*
X109500000Y-68720395D01*
X109708497Y-68511898D01*
X109771061Y-68499574D01*
X109941351Y-68429408D01*
X109944425Y-68427763D01*
X109953157Y-68267238D01*
X109954936Y-68265459D01*
X109954095Y-68250000D01*
X109954936Y-68234541D01*
X110545064Y-68234541D01*
X110545905Y-68250000D01*
X110545064Y-68265459D01*
X110546843Y-68267238D01*
X110555575Y-68427763D01*
X110725603Y-68498562D01*
X110791377Y-68511772D01*
X111000000Y-68720395D01*
X111208497Y-68511898D01*
X111271061Y-68499574D01*
X111441351Y-68429408D01*
X111444425Y-68427763D01*
X111453157Y-68267238D01*
X111454936Y-68265459D01*
X111454095Y-68250000D01*
X111454936Y-68234541D01*
X112045064Y-68234541D01*
X112045905Y-68250000D01*
X112045064Y-68265459D01*
X112046843Y-68267238D01*
X112055575Y-68427763D01*
X112225603Y-68498562D01*
X112291377Y-68511772D01*
X112500000Y-68720395D01*
X112708497Y-68511898D01*
X112771061Y-68499574D01*
X112941351Y-68429408D01*
X112944425Y-68427763D01*
X112953157Y-68267238D01*
X112954936Y-68265459D01*
X112954095Y-68250000D01*
X112954936Y-68234541D01*
X113545064Y-68234541D01*
X113545905Y-68250000D01*
X113545064Y-68265459D01*
X113546843Y-68267238D01*
X113555575Y-68427763D01*
X113725603Y-68498562D01*
X113791377Y-68511772D01*
X114000000Y-68720395D01*
X114208497Y-68511898D01*
X114271061Y-68499574D01*
X114441351Y-68429408D01*
X114444425Y-68427763D01*
X114453157Y-68267238D01*
X114454936Y-68265459D01*
X114454095Y-68250000D01*
X114454936Y-68234541D01*
X114453157Y-68232762D01*
X114444425Y-68072237D01*
X114274397Y-68001438D01*
X114208623Y-67988228D01*
X114000000Y-67779605D01*
X113791503Y-67988102D01*
X113728939Y-68000426D01*
X113558649Y-68070592D01*
X113555575Y-68072237D01*
X113546843Y-68232762D01*
X113545064Y-68234541D01*
X112954936Y-68234541D01*
X112953157Y-68232762D01*
X112944425Y-68072237D01*
X112774397Y-68001438D01*
X112708623Y-67988228D01*
X112500000Y-67779605D01*
X112291503Y-67988102D01*
X112228939Y-68000426D01*
X112058649Y-68070592D01*
X112055575Y-68072237D01*
X112046843Y-68232762D01*
X112045064Y-68234541D01*
X111454936Y-68234541D01*
X111453157Y-68232762D01*
X111444425Y-68072237D01*
X111274397Y-68001438D01*
X111208623Y-67988228D01*
X111000000Y-67779605D01*
X110791503Y-67988102D01*
X110728939Y-68000426D01*
X110558649Y-68070592D01*
X110555575Y-68072237D01*
X110546843Y-68232762D01*
X110545064Y-68234541D01*
X109954936Y-68234541D01*
X109953157Y-68232762D01*
X109944425Y-68072237D01*
X109774397Y-68001438D01*
X109708623Y-67988228D01*
X109500000Y-67779605D01*
X109291503Y-67988102D01*
X109228939Y-68000426D01*
X109058649Y-68070592D01*
X109055575Y-68072237D01*
X109046843Y-68232762D01*
X109045064Y-68234541D01*
X107313000Y-68234541D01*
X107313000Y-67690355D01*
X108564829Y-67690355D01*
X108600426Y-67871061D01*
X108670592Y-68041351D01*
X108672237Y-68044425D01*
X108865459Y-68054936D01*
X109320395Y-67600000D01*
X109679605Y-67600000D01*
X110134541Y-68054936D01*
X110250000Y-68048655D01*
X110365459Y-68054936D01*
X110820395Y-67600000D01*
X111179605Y-67600000D01*
X111634541Y-68054936D01*
X111750000Y-68048655D01*
X111865459Y-68054936D01*
X112320395Y-67600000D01*
X112679605Y-67600000D01*
X113134541Y-68054936D01*
X113250000Y-68048655D01*
X113365459Y-68054936D01*
X113820395Y-67600000D01*
X114179605Y-67600000D01*
X114634541Y-68054936D01*
X114827763Y-68044425D01*
X114898562Y-67874397D01*
X114934828Y-67693824D01*
X114935171Y-67509645D01*
X114899574Y-67328939D01*
X114829408Y-67158649D01*
X114827763Y-67155575D01*
X114634541Y-67145064D01*
X114179605Y-67600000D01*
X113820395Y-67600000D01*
X113365459Y-67145064D01*
X113250000Y-67151345D01*
X113134541Y-67145064D01*
X112679605Y-67600000D01*
X112320395Y-67600000D01*
X111865459Y-67145064D01*
X111750000Y-67151345D01*
X111634541Y-67145064D01*
X111179605Y-67600000D01*
X110820395Y-67600000D01*
X110365459Y-67145064D01*
X110250000Y-67151345D01*
X110134541Y-67145064D01*
X109679605Y-67600000D01*
X109320395Y-67600000D01*
X108865459Y-67145064D01*
X108672237Y-67155575D01*
X108601438Y-67325603D01*
X108565172Y-67506176D01*
X108564829Y-67690355D01*
X107313000Y-67690355D01*
X107313000Y-66934541D01*
X109045064Y-66934541D01*
X109045905Y-66950000D01*
X109045064Y-66965459D01*
X109046843Y-66967238D01*
X109055575Y-67127763D01*
X109225603Y-67198562D01*
X109291377Y-67211772D01*
X109500000Y-67420395D01*
X109708497Y-67211898D01*
X109771061Y-67199574D01*
X109941351Y-67129408D01*
X109944425Y-67127763D01*
X109953157Y-66967238D01*
X109954936Y-66965459D01*
X109954095Y-66950000D01*
X109954936Y-66934541D01*
X110545064Y-66934541D01*
X110545905Y-66950000D01*
X110545064Y-66965459D01*
X110546843Y-66967238D01*
X110555575Y-67127763D01*
X110725603Y-67198562D01*
X110791377Y-67211772D01*
X111000000Y-67420395D01*
X111208497Y-67211898D01*
X111271061Y-67199574D01*
X111441351Y-67129408D01*
X111444425Y-67127763D01*
X111453157Y-66967238D01*
X111454936Y-66965459D01*
X111454095Y-66950000D01*
X111454936Y-66934541D01*
X112045064Y-66934541D01*
X112045905Y-66950000D01*
X112045064Y-66965459D01*
X112046843Y-66967238D01*
X112055575Y-67127763D01*
X112225603Y-67198562D01*
X112291377Y-67211772D01*
X112500000Y-67420395D01*
X112708497Y-67211898D01*
X112771061Y-67199574D01*
X112941351Y-67129408D01*
X112944425Y-67127763D01*
X112953157Y-66967238D01*
X112954936Y-66965459D01*
X112954095Y-66950000D01*
X112954936Y-66934541D01*
X113545064Y-66934541D01*
X113545905Y-66950000D01*
X113545064Y-66965459D01*
X113546843Y-66967238D01*
X113555575Y-67127763D01*
X113725603Y-67198562D01*
X113791377Y-67211772D01*
X114000000Y-67420395D01*
X114208497Y-67211898D01*
X114271061Y-67199574D01*
X114441351Y-67129408D01*
X114444425Y-67127763D01*
X114453157Y-66967238D01*
X114454936Y-66965459D01*
X114454095Y-66950000D01*
X114454936Y-66934541D01*
X114453157Y-66932762D01*
X114444425Y-66772237D01*
X114274397Y-66701438D01*
X114208623Y-66688228D01*
X114000000Y-66479605D01*
X113791503Y-66688102D01*
X113728939Y-66700426D01*
X113558649Y-66770592D01*
X113555575Y-66772237D01*
X113546843Y-66932762D01*
X113545064Y-66934541D01*
X112954936Y-66934541D01*
X112953157Y-66932762D01*
X112944425Y-66772237D01*
X112774397Y-66701438D01*
X112708623Y-66688228D01*
X112500000Y-66479605D01*
X112291503Y-66688102D01*
X112228939Y-66700426D01*
X112058649Y-66770592D01*
X112055575Y-66772237D01*
X112046843Y-66932762D01*
X112045064Y-66934541D01*
X111454936Y-66934541D01*
X111453157Y-66932762D01*
X111444425Y-66772237D01*
X111274397Y-66701438D01*
X111208623Y-66688228D01*
X111000000Y-66479605D01*
X110791503Y-66688102D01*
X110728939Y-66700426D01*
X110558649Y-66770592D01*
X110555575Y-66772237D01*
X110546843Y-66932762D01*
X110545064Y-66934541D01*
X109954936Y-66934541D01*
X109953157Y-66932762D01*
X109944425Y-66772237D01*
X109774397Y-66701438D01*
X109708623Y-66688228D01*
X109500000Y-66479605D01*
X109291503Y-66688102D01*
X109228939Y-66700426D01*
X109058649Y-66770592D01*
X109055575Y-66772237D01*
X109046843Y-66932762D01*
X109045064Y-66934541D01*
X107313000Y-66934541D01*
X107313000Y-66390355D01*
X108564829Y-66390355D01*
X108600426Y-66571061D01*
X108670592Y-66741351D01*
X108672237Y-66744425D01*
X108865459Y-66754936D01*
X109320395Y-66300000D01*
X109679605Y-66300000D01*
X110134541Y-66754936D01*
X110250000Y-66748655D01*
X110365459Y-66754936D01*
X110820395Y-66300000D01*
X111179605Y-66300000D01*
X111634541Y-66754936D01*
X111750000Y-66748655D01*
X111865459Y-66754936D01*
X112320395Y-66300000D01*
X112679605Y-66300000D01*
X113134541Y-66754936D01*
X113250000Y-66748655D01*
X113365459Y-66754936D01*
X113820395Y-66300000D01*
X114179605Y-66300000D01*
X114634541Y-66754936D01*
X114827763Y-66744425D01*
X114898562Y-66574397D01*
X114934828Y-66393824D01*
X114935171Y-66209645D01*
X114899574Y-66028939D01*
X114829408Y-65858649D01*
X114827763Y-65855575D01*
X114634541Y-65845064D01*
X114179605Y-66300000D01*
X113820395Y-66300000D01*
X113365459Y-65845064D01*
X113250000Y-65851345D01*
X113134541Y-65845064D01*
X112679605Y-66300000D01*
X112320395Y-66300000D01*
X111865459Y-65845064D01*
X111750000Y-65851345D01*
X111634541Y-65845064D01*
X111179605Y-66300000D01*
X110820395Y-66300000D01*
X110365459Y-65845064D01*
X110250000Y-65851345D01*
X110134541Y-65845064D01*
X109679605Y-66300000D01*
X109320395Y-66300000D01*
X108865459Y-65845064D01*
X108672237Y-65855575D01*
X108601438Y-66025603D01*
X108565172Y-66206176D01*
X108564829Y-66390355D01*
X107313000Y-66390355D01*
X107313000Y-65634541D01*
X109045064Y-65634541D01*
X109045905Y-65650000D01*
X109045064Y-65665459D01*
X109046843Y-65667238D01*
X109055575Y-65827763D01*
X109225603Y-65898562D01*
X109291377Y-65911772D01*
X109500000Y-66120395D01*
X109708497Y-65911898D01*
X109771061Y-65899574D01*
X109941351Y-65829408D01*
X109944425Y-65827763D01*
X109953157Y-65667238D01*
X109954936Y-65665459D01*
X109954095Y-65650000D01*
X109954936Y-65634541D01*
X110545064Y-65634541D01*
X110545905Y-65650000D01*
X110545064Y-65665459D01*
X110546843Y-65667238D01*
X110555575Y-65827763D01*
X110725603Y-65898562D01*
X110791377Y-65911772D01*
X111000000Y-66120395D01*
X111208497Y-65911898D01*
X111271061Y-65899574D01*
X111441351Y-65829408D01*
X111444425Y-65827763D01*
X111453157Y-65667238D01*
X111454936Y-65665459D01*
X111454095Y-65650000D01*
X111454936Y-65634541D01*
X112045064Y-65634541D01*
X112045905Y-65650000D01*
X112045064Y-65665459D01*
X112046843Y-65667238D01*
X112055575Y-65827763D01*
X112225603Y-65898562D01*
X112291377Y-65911772D01*
X112500000Y-66120395D01*
X112708497Y-65911898D01*
X112771061Y-65899574D01*
X112941351Y-65829408D01*
X112944425Y-65827763D01*
X112953157Y-65667238D01*
X112954936Y-65665459D01*
X112954095Y-65650000D01*
X112954936Y-65634541D01*
X113545064Y-65634541D01*
X113545905Y-65650000D01*
X113545064Y-65665459D01*
X113546843Y-65667238D01*
X113555575Y-65827763D01*
X113725603Y-65898562D01*
X113791377Y-65911772D01*
X114000000Y-66120395D01*
X114208497Y-65911898D01*
X114271061Y-65899574D01*
X114441351Y-65829408D01*
X114444425Y-65827763D01*
X114453157Y-65667238D01*
X114454936Y-65665459D01*
X114454095Y-65650000D01*
X114454936Y-65634541D01*
X114453157Y-65632762D01*
X114444425Y-65472237D01*
X114274397Y-65401438D01*
X114208623Y-65388228D01*
X114000000Y-65179605D01*
X113791503Y-65388102D01*
X113728939Y-65400426D01*
X113558649Y-65470592D01*
X113555575Y-65472237D01*
X113546843Y-65632762D01*
X113545064Y-65634541D01*
X112954936Y-65634541D01*
X112953157Y-65632762D01*
X112944425Y-65472237D01*
X112774397Y-65401438D01*
X112708623Y-65388228D01*
X112500000Y-65179605D01*
X112291503Y-65388102D01*
X112228939Y-65400426D01*
X112058649Y-65470592D01*
X112055575Y-65472237D01*
X112046843Y-65632762D01*
X112045064Y-65634541D01*
X111454936Y-65634541D01*
X111453157Y-65632762D01*
X111444425Y-65472237D01*
X111274397Y-65401438D01*
X111208623Y-65388228D01*
X111000000Y-65179605D01*
X110791503Y-65388102D01*
X110728939Y-65400426D01*
X110558649Y-65470592D01*
X110555575Y-65472237D01*
X110546843Y-65632762D01*
X110545064Y-65634541D01*
X109954936Y-65634541D01*
X109953157Y-65632762D01*
X109944425Y-65472237D01*
X109774397Y-65401438D01*
X109708623Y-65388228D01*
X109500000Y-65179605D01*
X109291503Y-65388102D01*
X109228939Y-65400426D01*
X109058649Y-65470592D01*
X109055575Y-65472237D01*
X109046843Y-65632762D01*
X109045064Y-65634541D01*
X107313000Y-65634541D01*
X107313000Y-65321114D01*
X107316676Y-65283789D01*
X107313000Y-65246464D01*
X107313000Y-65246456D01*
X107302003Y-65134803D01*
X107288521Y-65090355D01*
X108564829Y-65090355D01*
X108600426Y-65271061D01*
X108670592Y-65441351D01*
X108672237Y-65444425D01*
X108865459Y-65454936D01*
X109320395Y-65000000D01*
X109679605Y-65000000D01*
X110134541Y-65454936D01*
X110250000Y-65448655D01*
X110365459Y-65454936D01*
X110820395Y-65000000D01*
X111179605Y-65000000D01*
X111634541Y-65454936D01*
X111750000Y-65448655D01*
X111865459Y-65454936D01*
X112320395Y-65000000D01*
X112679605Y-65000000D01*
X113134541Y-65454936D01*
X113250000Y-65448655D01*
X113365459Y-65454936D01*
X113820395Y-65000000D01*
X114179605Y-65000000D01*
X114634541Y-65454936D01*
X114827763Y-65444425D01*
X114898562Y-65274397D01*
X114934828Y-65093824D01*
X114935171Y-64909645D01*
X114899574Y-64728939D01*
X114829408Y-64558649D01*
X114827763Y-64555575D01*
X114634541Y-64545064D01*
X114179605Y-65000000D01*
X113820395Y-65000000D01*
X113365459Y-64545064D01*
X113250000Y-64551345D01*
X113134541Y-64545064D01*
X112679605Y-65000000D01*
X112320395Y-65000000D01*
X111865459Y-64545064D01*
X111750000Y-64551345D01*
X111634541Y-64545064D01*
X111179605Y-65000000D01*
X110820395Y-65000000D01*
X110365459Y-64545064D01*
X110250000Y-64551345D01*
X110134541Y-64545064D01*
X109679605Y-65000000D01*
X109320395Y-65000000D01*
X108865459Y-64545064D01*
X108672237Y-64555575D01*
X108601438Y-64725603D01*
X108565172Y-64906176D01*
X108564829Y-65090355D01*
X107288521Y-65090355D01*
X107258546Y-64991542D01*
X107187974Y-64859513D01*
X107093001Y-64743788D01*
X107064004Y-64719991D01*
X106678554Y-64334541D01*
X109045064Y-64334541D01*
X109045905Y-64350000D01*
X109045064Y-64365459D01*
X109046843Y-64367238D01*
X109055575Y-64527763D01*
X109225603Y-64598562D01*
X109291377Y-64611772D01*
X109500000Y-64820395D01*
X109708497Y-64611898D01*
X109771061Y-64599574D01*
X109941351Y-64529408D01*
X109944425Y-64527763D01*
X109953157Y-64367238D01*
X109954936Y-64365459D01*
X109954095Y-64350000D01*
X109954936Y-64334541D01*
X110545064Y-64334541D01*
X110545905Y-64350000D01*
X110545064Y-64365459D01*
X110546843Y-64367238D01*
X110555575Y-64527763D01*
X110725603Y-64598562D01*
X110791377Y-64611772D01*
X111000000Y-64820395D01*
X111208497Y-64611898D01*
X111271061Y-64599574D01*
X111441351Y-64529408D01*
X111444425Y-64527763D01*
X111453157Y-64367238D01*
X111454936Y-64365459D01*
X111454095Y-64350000D01*
X111454936Y-64334541D01*
X112045064Y-64334541D01*
X112045905Y-64350000D01*
X112045064Y-64365459D01*
X112046843Y-64367238D01*
X112055575Y-64527763D01*
X112225603Y-64598562D01*
X112291377Y-64611772D01*
X112500000Y-64820395D01*
X112708497Y-64611898D01*
X112771061Y-64599574D01*
X112941351Y-64529408D01*
X112944425Y-64527763D01*
X112953157Y-64367238D01*
X112954936Y-64365459D01*
X112954095Y-64350000D01*
X112954936Y-64334541D01*
X113545064Y-64334541D01*
X113545905Y-64350000D01*
X113545064Y-64365459D01*
X113546843Y-64367238D01*
X113555575Y-64527763D01*
X113725603Y-64598562D01*
X113791377Y-64611772D01*
X114000000Y-64820395D01*
X114208497Y-64611898D01*
X114271061Y-64599574D01*
X114441351Y-64529408D01*
X114444425Y-64527763D01*
X114453157Y-64367238D01*
X114454936Y-64365459D01*
X114454095Y-64350000D01*
X114454936Y-64334541D01*
X114453157Y-64332762D01*
X114444425Y-64172237D01*
X114274397Y-64101438D01*
X114208623Y-64088228D01*
X114000000Y-63879605D01*
X113791503Y-64088102D01*
X113728939Y-64100426D01*
X113558649Y-64170592D01*
X113555575Y-64172237D01*
X113546843Y-64332762D01*
X113545064Y-64334541D01*
X112954936Y-64334541D01*
X112953157Y-64332762D01*
X112944425Y-64172237D01*
X112774397Y-64101438D01*
X112708623Y-64088228D01*
X112500000Y-63879605D01*
X112291503Y-64088102D01*
X112228939Y-64100426D01*
X112058649Y-64170592D01*
X112055575Y-64172237D01*
X112046843Y-64332762D01*
X112045064Y-64334541D01*
X111454936Y-64334541D01*
X111453157Y-64332762D01*
X111444425Y-64172237D01*
X111274397Y-64101438D01*
X111208623Y-64088228D01*
X111000000Y-63879605D01*
X110791503Y-64088102D01*
X110728939Y-64100426D01*
X110558649Y-64170592D01*
X110555575Y-64172237D01*
X110546843Y-64332762D01*
X110545064Y-64334541D01*
X109954936Y-64334541D01*
X109953157Y-64332762D01*
X109944425Y-64172237D01*
X109774397Y-64101438D01*
X109708623Y-64088228D01*
X109500000Y-63879605D01*
X109291503Y-64088102D01*
X109228939Y-64100426D01*
X109058649Y-64170592D01*
X109055575Y-64172237D01*
X109046843Y-64332762D01*
X109045064Y-64334541D01*
X106678554Y-64334541D01*
X106435750Y-64091738D01*
X106489705Y-63961481D01*
X106523743Y-63790355D01*
X108564829Y-63790355D01*
X108600426Y-63971061D01*
X108670592Y-64141351D01*
X108672237Y-64144425D01*
X108865459Y-64154936D01*
X109320395Y-63700000D01*
X109679605Y-63700000D01*
X110134541Y-64154936D01*
X110250000Y-64148655D01*
X110365459Y-64154936D01*
X110820395Y-63700000D01*
X111179605Y-63700000D01*
X111634541Y-64154936D01*
X111750000Y-64148655D01*
X111865459Y-64154936D01*
X112320395Y-63700000D01*
X112679605Y-63700000D01*
X113134541Y-64154936D01*
X113250000Y-64148655D01*
X113365459Y-64154936D01*
X113820395Y-63700000D01*
X114179605Y-63700000D01*
X114634541Y-64154936D01*
X114827763Y-64144425D01*
X114898562Y-63974397D01*
X114934828Y-63793824D01*
X114935171Y-63609645D01*
X114899574Y-63428939D01*
X114829408Y-63258649D01*
X114827763Y-63255575D01*
X114634541Y-63245064D01*
X114179605Y-63700000D01*
X113820395Y-63700000D01*
X113365459Y-63245064D01*
X113250000Y-63251345D01*
X113134541Y-63245064D01*
X112679605Y-63700000D01*
X112320395Y-63700000D01*
X111865459Y-63245064D01*
X111750000Y-63251345D01*
X111634541Y-63245064D01*
X111179605Y-63700000D01*
X110820395Y-63700000D01*
X110365459Y-63245064D01*
X110250000Y-63251345D01*
X110134541Y-63245064D01*
X109679605Y-63700000D01*
X109320395Y-63700000D01*
X108865459Y-63245064D01*
X108672237Y-63255575D01*
X108601438Y-63425603D01*
X108565172Y-63606176D01*
X108564829Y-63790355D01*
X106523743Y-63790355D01*
X106529479Y-63761522D01*
X106529479Y-63557644D01*
X106489705Y-63357685D01*
X106472252Y-63315551D01*
X106753262Y-63034541D01*
X109045064Y-63034541D01*
X109045905Y-63050000D01*
X109045064Y-63065459D01*
X109046843Y-63067238D01*
X109055575Y-63227763D01*
X109225603Y-63298562D01*
X109291377Y-63311772D01*
X109500000Y-63520395D01*
X109708497Y-63311898D01*
X109771061Y-63299574D01*
X109941351Y-63229408D01*
X109944425Y-63227763D01*
X109953157Y-63067238D01*
X109954936Y-63065459D01*
X109954095Y-63050000D01*
X109954936Y-63034541D01*
X110545064Y-63034541D01*
X110545905Y-63050000D01*
X110545064Y-63065459D01*
X110546843Y-63067238D01*
X110555575Y-63227763D01*
X110725603Y-63298562D01*
X110791377Y-63311772D01*
X111000000Y-63520395D01*
X111208497Y-63311898D01*
X111271061Y-63299574D01*
X111441351Y-63229408D01*
X111444425Y-63227763D01*
X111453157Y-63067238D01*
X111454936Y-63065459D01*
X111454095Y-63050000D01*
X111454936Y-63034541D01*
X112045064Y-63034541D01*
X112045905Y-63050000D01*
X112045064Y-63065459D01*
X112046843Y-63067238D01*
X112055575Y-63227763D01*
X112225603Y-63298562D01*
X112291377Y-63311772D01*
X112500000Y-63520395D01*
X112708497Y-63311898D01*
X112771061Y-63299574D01*
X112941351Y-63229408D01*
X112944425Y-63227763D01*
X112953157Y-63067238D01*
X112954936Y-63065459D01*
X112954095Y-63050000D01*
X112954936Y-63034541D01*
X113545064Y-63034541D01*
X113545905Y-63050000D01*
X113545064Y-63065459D01*
X113546843Y-63067238D01*
X113555575Y-63227763D01*
X113725603Y-63298562D01*
X113791377Y-63311772D01*
X114000000Y-63520395D01*
X114208497Y-63311898D01*
X114271061Y-63299574D01*
X114441351Y-63229408D01*
X114444425Y-63227763D01*
X114453157Y-63067238D01*
X114454936Y-63065459D01*
X114454095Y-63050000D01*
X114454936Y-63034541D01*
X114453157Y-63032762D01*
X114444425Y-62872237D01*
X114274397Y-62801438D01*
X114208623Y-62788228D01*
X114000000Y-62579605D01*
X113791503Y-62788102D01*
X113728939Y-62800426D01*
X113558649Y-62870592D01*
X113555575Y-62872237D01*
X113546843Y-63032762D01*
X113545064Y-63034541D01*
X112954936Y-63034541D01*
X112953157Y-63032762D01*
X112944425Y-62872237D01*
X112774397Y-62801438D01*
X112708623Y-62788228D01*
X112500000Y-62579605D01*
X112291503Y-62788102D01*
X112228939Y-62800426D01*
X112058649Y-62870592D01*
X112055575Y-62872237D01*
X112046843Y-63032762D01*
X112045064Y-63034541D01*
X111454936Y-63034541D01*
X111453157Y-63032762D01*
X111444425Y-62872237D01*
X111274397Y-62801438D01*
X111208623Y-62788228D01*
X111000000Y-62579605D01*
X110791503Y-62788102D01*
X110728939Y-62800426D01*
X110558649Y-62870592D01*
X110555575Y-62872237D01*
X110546843Y-63032762D01*
X110545064Y-63034541D01*
X109954936Y-63034541D01*
X109953157Y-63032762D01*
X109944425Y-62872237D01*
X109774397Y-62801438D01*
X109708623Y-62788228D01*
X109500000Y-62579605D01*
X109291503Y-62788102D01*
X109228939Y-62800426D01*
X109058649Y-62870592D01*
X109055575Y-62872237D01*
X109046843Y-63032762D01*
X109045064Y-63034541D01*
X106753262Y-63034541D01*
X106963505Y-62824299D01*
X106992502Y-62800502D01*
X107087475Y-62684777D01*
X107158047Y-62552748D01*
X107176973Y-62490355D01*
X108564829Y-62490355D01*
X108600426Y-62671061D01*
X108670592Y-62841351D01*
X108672237Y-62844425D01*
X108865459Y-62854936D01*
X109320395Y-62400000D01*
X109679605Y-62400000D01*
X110134541Y-62854936D01*
X110250000Y-62848655D01*
X110365459Y-62854936D01*
X110820395Y-62400000D01*
X111179605Y-62400000D01*
X111634541Y-62854936D01*
X111750000Y-62848655D01*
X111865459Y-62854936D01*
X112320395Y-62400000D01*
X112679605Y-62400000D01*
X113134541Y-62854936D01*
X113250000Y-62848655D01*
X113365459Y-62854936D01*
X113820395Y-62400000D01*
X114179605Y-62400000D01*
X114634541Y-62854936D01*
X114827763Y-62844425D01*
X114898562Y-62674397D01*
X114934828Y-62493824D01*
X114935171Y-62309645D01*
X114899574Y-62128939D01*
X114829408Y-61958649D01*
X114827763Y-61955575D01*
X114634541Y-61945064D01*
X114179605Y-62400000D01*
X113820395Y-62400000D01*
X113365459Y-61945064D01*
X113250000Y-61951345D01*
X113134541Y-61945064D01*
X112679605Y-62400000D01*
X112320395Y-62400000D01*
X111865459Y-61945064D01*
X111750000Y-61951345D01*
X111634541Y-61945064D01*
X111179605Y-62400000D01*
X110820395Y-62400000D01*
X110365459Y-61945064D01*
X110250000Y-61951345D01*
X110134541Y-61945064D01*
X109679605Y-62400000D01*
X109320395Y-62400000D01*
X108865459Y-61945064D01*
X108672237Y-61955575D01*
X108601438Y-62125603D01*
X108565172Y-62306176D01*
X108564829Y-62490355D01*
X107176973Y-62490355D01*
X107201504Y-62409487D01*
X107212501Y-62297834D01*
X107212501Y-62297826D01*
X107216177Y-62260501D01*
X107212501Y-62223176D01*
X107212501Y-61734541D01*
X109045064Y-61734541D01*
X109045905Y-61750000D01*
X109045064Y-61765459D01*
X109046843Y-61767238D01*
X109055575Y-61927763D01*
X109225603Y-61998562D01*
X109291377Y-62011772D01*
X109500000Y-62220395D01*
X109708497Y-62011898D01*
X109771061Y-61999574D01*
X109941351Y-61929408D01*
X109944425Y-61927763D01*
X109953157Y-61767238D01*
X109954936Y-61765459D01*
X109954095Y-61750000D01*
X109954936Y-61734541D01*
X110545064Y-61734541D01*
X110545905Y-61750000D01*
X110545064Y-61765459D01*
X110546843Y-61767238D01*
X110555575Y-61927763D01*
X110725603Y-61998562D01*
X110791377Y-62011772D01*
X111000000Y-62220395D01*
X111208497Y-62011898D01*
X111271061Y-61999574D01*
X111441351Y-61929408D01*
X111444425Y-61927763D01*
X111453157Y-61767238D01*
X111454936Y-61765459D01*
X111454095Y-61750000D01*
X111454936Y-61734541D01*
X112045064Y-61734541D01*
X112045905Y-61750000D01*
X112045064Y-61765459D01*
X112046843Y-61767238D01*
X112055575Y-61927763D01*
X112225603Y-61998562D01*
X112291377Y-62011772D01*
X112500000Y-62220395D01*
X112708497Y-62011898D01*
X112771061Y-61999574D01*
X112941351Y-61929408D01*
X112944425Y-61927763D01*
X112953157Y-61767238D01*
X112954936Y-61765459D01*
X112954095Y-61750000D01*
X112954936Y-61734541D01*
X113545064Y-61734541D01*
X113545905Y-61750000D01*
X113545064Y-61765459D01*
X113546843Y-61767238D01*
X113555575Y-61927763D01*
X113725603Y-61998562D01*
X113791377Y-62011772D01*
X114000000Y-62220395D01*
X114208497Y-62011898D01*
X114271061Y-61999574D01*
X114441351Y-61929408D01*
X114444425Y-61927763D01*
X114453157Y-61767238D01*
X114454936Y-61765459D01*
X114454095Y-61750000D01*
X114454936Y-61734541D01*
X114453157Y-61732762D01*
X114444425Y-61572237D01*
X114274397Y-61501438D01*
X114208623Y-61488228D01*
X114000000Y-61279605D01*
X113791503Y-61488102D01*
X113728939Y-61500426D01*
X113558649Y-61570592D01*
X113555575Y-61572237D01*
X113546843Y-61732762D01*
X113545064Y-61734541D01*
X112954936Y-61734541D01*
X112953157Y-61732762D01*
X112944425Y-61572237D01*
X112774397Y-61501438D01*
X112708623Y-61488228D01*
X112500000Y-61279605D01*
X112291503Y-61488102D01*
X112228939Y-61500426D01*
X112058649Y-61570592D01*
X112055575Y-61572237D01*
X112046843Y-61732762D01*
X112045064Y-61734541D01*
X111454936Y-61734541D01*
X111453157Y-61732762D01*
X111444425Y-61572237D01*
X111274397Y-61501438D01*
X111208623Y-61488228D01*
X111000000Y-61279605D01*
X110791503Y-61488102D01*
X110728939Y-61500426D01*
X110558649Y-61570592D01*
X110555575Y-61572237D01*
X110546843Y-61732762D01*
X110545064Y-61734541D01*
X109954936Y-61734541D01*
X109953157Y-61732762D01*
X109944425Y-61572237D01*
X109774397Y-61501438D01*
X109708623Y-61488228D01*
X109500000Y-61279605D01*
X109291503Y-61488102D01*
X109228939Y-61500426D01*
X109058649Y-61570592D01*
X109055575Y-61572237D01*
X109046843Y-61732762D01*
X109045064Y-61734541D01*
X107212501Y-61734541D01*
X107212501Y-61190355D01*
X108564829Y-61190355D01*
X108600426Y-61371061D01*
X108670592Y-61541351D01*
X108672237Y-61544425D01*
X108865459Y-61554936D01*
X109320395Y-61100000D01*
X109679605Y-61100000D01*
X110134541Y-61554936D01*
X110250000Y-61548655D01*
X110365459Y-61554936D01*
X110820395Y-61100000D01*
X111179605Y-61100000D01*
X111634541Y-61554936D01*
X111750000Y-61548655D01*
X111865459Y-61554936D01*
X112320395Y-61100000D01*
X112679605Y-61100000D01*
X113134541Y-61554936D01*
X113250000Y-61548655D01*
X113365459Y-61554936D01*
X113820395Y-61100000D01*
X114179605Y-61100000D01*
X114634541Y-61554936D01*
X114827763Y-61544425D01*
X114898562Y-61374397D01*
X114934828Y-61193824D01*
X114935171Y-61009645D01*
X114899574Y-60828939D01*
X114829408Y-60658649D01*
X114827763Y-60655575D01*
X114634541Y-60645064D01*
X114179605Y-61100000D01*
X113820395Y-61100000D01*
X113365459Y-60645064D01*
X113250000Y-60651345D01*
X113134541Y-60645064D01*
X112679605Y-61100000D01*
X112320395Y-61100000D01*
X111865459Y-60645064D01*
X111750000Y-60651345D01*
X111634541Y-60645064D01*
X111179605Y-61100000D01*
X110820395Y-61100000D01*
X110365459Y-60645064D01*
X110250000Y-60651345D01*
X110134541Y-60645064D01*
X109679605Y-61100000D01*
X109320395Y-61100000D01*
X108865459Y-60645064D01*
X108672237Y-60655575D01*
X108601438Y-60825603D01*
X108565172Y-61006176D01*
X108564829Y-61190355D01*
X107212501Y-61190355D01*
X107212501Y-60434541D01*
X109045064Y-60434541D01*
X109045905Y-60450000D01*
X109045064Y-60465459D01*
X109046843Y-60467238D01*
X109055575Y-60627763D01*
X109225603Y-60698562D01*
X109291377Y-60711772D01*
X109500000Y-60920395D01*
X109708497Y-60711898D01*
X109771061Y-60699574D01*
X109941351Y-60629408D01*
X109944425Y-60627763D01*
X109953157Y-60467238D01*
X109954936Y-60465459D01*
X109954095Y-60450000D01*
X109954936Y-60434541D01*
X110545064Y-60434541D01*
X110545905Y-60450000D01*
X110545064Y-60465459D01*
X110546843Y-60467238D01*
X110555575Y-60627763D01*
X110725603Y-60698562D01*
X110791377Y-60711772D01*
X111000000Y-60920395D01*
X111208497Y-60711898D01*
X111271061Y-60699574D01*
X111441351Y-60629408D01*
X111444425Y-60627763D01*
X111453157Y-60467238D01*
X111454936Y-60465459D01*
X111454095Y-60450000D01*
X111454936Y-60434541D01*
X112045064Y-60434541D01*
X112045905Y-60450000D01*
X112045064Y-60465459D01*
X112046843Y-60467238D01*
X112055575Y-60627763D01*
X112225603Y-60698562D01*
X112291377Y-60711772D01*
X112500000Y-60920395D01*
X112708497Y-60711898D01*
X112771061Y-60699574D01*
X112941351Y-60629408D01*
X112944425Y-60627763D01*
X112953157Y-60467238D01*
X112954936Y-60465459D01*
X112954095Y-60450000D01*
X112954936Y-60434541D01*
X113545064Y-60434541D01*
X113545905Y-60450000D01*
X113545064Y-60465459D01*
X113546843Y-60467238D01*
X113555575Y-60627763D01*
X113725603Y-60698562D01*
X113791377Y-60711772D01*
X114000000Y-60920395D01*
X114208497Y-60711898D01*
X114271061Y-60699574D01*
X114441351Y-60629408D01*
X114444425Y-60627763D01*
X114453157Y-60467238D01*
X114454936Y-60465459D01*
X114454095Y-60450000D01*
X114454936Y-60434541D01*
X114453157Y-60432762D01*
X114444425Y-60272237D01*
X114274397Y-60201438D01*
X114208623Y-60188228D01*
X114000000Y-59979605D01*
X113791503Y-60188102D01*
X113728939Y-60200426D01*
X113558649Y-60270592D01*
X113555575Y-60272237D01*
X113546843Y-60432762D01*
X113545064Y-60434541D01*
X112954936Y-60434541D01*
X112953157Y-60432762D01*
X112944425Y-60272237D01*
X112774397Y-60201438D01*
X112708623Y-60188228D01*
X112500000Y-59979605D01*
X112291503Y-60188102D01*
X112228939Y-60200426D01*
X112058649Y-60270592D01*
X112055575Y-60272237D01*
X112046843Y-60432762D01*
X112045064Y-60434541D01*
X111454936Y-60434541D01*
X111453157Y-60432762D01*
X111444425Y-60272237D01*
X111274397Y-60201438D01*
X111208623Y-60188228D01*
X111000000Y-59979605D01*
X110791503Y-60188102D01*
X110728939Y-60200426D01*
X110558649Y-60270592D01*
X110555575Y-60272237D01*
X110546843Y-60432762D01*
X110545064Y-60434541D01*
X109954936Y-60434541D01*
X109953157Y-60432762D01*
X109944425Y-60272237D01*
X109774397Y-60201438D01*
X109708623Y-60188228D01*
X109500000Y-59979605D01*
X109291503Y-60188102D01*
X109228939Y-60200426D01*
X109058649Y-60270592D01*
X109055575Y-60272237D01*
X109046843Y-60432762D01*
X109045064Y-60434541D01*
X107212501Y-60434541D01*
X107212501Y-59890355D01*
X108564829Y-59890355D01*
X108600426Y-60071061D01*
X108670592Y-60241351D01*
X108672237Y-60244425D01*
X108865459Y-60254936D01*
X109320395Y-59800000D01*
X109679605Y-59800000D01*
X110134541Y-60254936D01*
X110250000Y-60248655D01*
X110365459Y-60254936D01*
X110820395Y-59800000D01*
X111179605Y-59800000D01*
X111634541Y-60254936D01*
X111750000Y-60248655D01*
X111865459Y-60254936D01*
X112320395Y-59800000D01*
X112679605Y-59800000D01*
X113134541Y-60254936D01*
X113250000Y-60248655D01*
X113365459Y-60254936D01*
X113820395Y-59800000D01*
X114179605Y-59800000D01*
X114634541Y-60254936D01*
X114827763Y-60244425D01*
X114898562Y-60074397D01*
X114934828Y-59893824D01*
X114935171Y-59709645D01*
X114899574Y-59528939D01*
X114829408Y-59358649D01*
X114827763Y-59355575D01*
X114634541Y-59345064D01*
X114179605Y-59800000D01*
X113820395Y-59800000D01*
X113365459Y-59345064D01*
X113250000Y-59351345D01*
X113134541Y-59345064D01*
X112679605Y-59800000D01*
X112320395Y-59800000D01*
X111865459Y-59345064D01*
X111750000Y-59351345D01*
X111634541Y-59345064D01*
X111179605Y-59800000D01*
X110820395Y-59800000D01*
X110365459Y-59345064D01*
X110250000Y-59351345D01*
X110134541Y-59345064D01*
X109679605Y-59800000D01*
X109320395Y-59800000D01*
X108865459Y-59345064D01*
X108672237Y-59355575D01*
X108601438Y-59525603D01*
X108565172Y-59706176D01*
X108564829Y-59890355D01*
X107212501Y-59890355D01*
X107212501Y-59795376D01*
X107322757Y-59749706D01*
X107492275Y-59636438D01*
X107636438Y-59492275D01*
X107749706Y-59322757D01*
X107814861Y-59165459D01*
X109045064Y-59165459D01*
X109500000Y-59620395D01*
X109954936Y-59165459D01*
X110545064Y-59165459D01*
X111000000Y-59620395D01*
X111454936Y-59165459D01*
X112045064Y-59165459D01*
X112500000Y-59620395D01*
X112954936Y-59165459D01*
X113545064Y-59165459D01*
X114000000Y-59620395D01*
X114454936Y-59165459D01*
X114444425Y-58972237D01*
X114274397Y-58901438D01*
X114093824Y-58865172D01*
X113909645Y-58864829D01*
X113728939Y-58900426D01*
X113558649Y-58970592D01*
X113555575Y-58972237D01*
X113545064Y-59165459D01*
X112954936Y-59165459D01*
X112944425Y-58972237D01*
X112774397Y-58901438D01*
X112593824Y-58865172D01*
X112409645Y-58864829D01*
X112228939Y-58900426D01*
X112058649Y-58970592D01*
X112055575Y-58972237D01*
X112045064Y-59165459D01*
X111454936Y-59165459D01*
X111444425Y-58972237D01*
X111274397Y-58901438D01*
X111093824Y-58865172D01*
X110909645Y-58864829D01*
X110728939Y-58900426D01*
X110558649Y-58970592D01*
X110555575Y-58972237D01*
X110545064Y-59165459D01*
X109954936Y-59165459D01*
X109944425Y-58972237D01*
X109774397Y-58901438D01*
X109593824Y-58865172D01*
X109409645Y-58864829D01*
X109228939Y-58900426D01*
X109058649Y-58970592D01*
X109055575Y-58972237D01*
X109045064Y-59165459D01*
X107814861Y-59165459D01*
X107827727Y-59134399D01*
X107867501Y-58934440D01*
X107867501Y-58730562D01*
X107827727Y-58530603D01*
X107749706Y-58342245D01*
X107735190Y-58320521D01*
X107737937Y-58317774D01*
X107851205Y-58148256D01*
X107929226Y-57959898D01*
X107969000Y-57759939D01*
X107969000Y-57556061D01*
X107929226Y-57356102D01*
X107851205Y-57167744D01*
X107737937Y-56998226D01*
X107593774Y-56854063D01*
X107424256Y-56740795D01*
X107235898Y-56662774D01*
X107035939Y-56623000D01*
X106832061Y-56623000D01*
X106632102Y-56662774D01*
X106443744Y-56740795D01*
X106274226Y-56854063D01*
X106230289Y-56898000D01*
X103796323Y-56898000D01*
X103759000Y-56894324D01*
X103721677Y-56898000D01*
X103721667Y-56898000D01*
X103610014Y-56908997D01*
X103466753Y-56952454D01*
X103334724Y-57023026D01*
X103218999Y-57117999D01*
X103195201Y-57146997D01*
X102359002Y-57983197D01*
X102329999Y-58006999D01*
X102279260Y-58068825D01*
X102235026Y-58122724D01*
X102164455Y-58254753D01*
X102164454Y-58254754D01*
X102120997Y-58398015D01*
X102110000Y-58509668D01*
X102110000Y-58509678D01*
X102106324Y-58547000D01*
X102110000Y-58584323D01*
X102110001Y-62677197D01*
X101179199Y-63608000D01*
X101117061Y-63608000D01*
X100917102Y-63647774D01*
X100728744Y-63725795D01*
X100559226Y-63839063D01*
X100415063Y-63983226D01*
X100301795Y-64152744D01*
X100223774Y-64341102D01*
X100184000Y-64541061D01*
X99153250Y-64541061D01*
X99153250Y-64481551D01*
X100496802Y-63138000D01*
X100558939Y-63138000D01*
X100758898Y-63098226D01*
X100947256Y-63020205D01*
X101116774Y-62906937D01*
X101260937Y-62762774D01*
X101374205Y-62593256D01*
X101452226Y-62404898D01*
X101492000Y-62204939D01*
X101492000Y-62001061D01*
X101452226Y-61801102D01*
X101374205Y-61612744D01*
X101260937Y-61443226D01*
X101217000Y-61399289D01*
X101217000Y-60266711D01*
X101260937Y-60222774D01*
X101374205Y-60053256D01*
X101452226Y-59864898D01*
X101492000Y-59664939D01*
X101492000Y-59461061D01*
X101452226Y-59261102D01*
X101374205Y-59072744D01*
X101260937Y-58903226D01*
X101116774Y-58759063D01*
X100947256Y-58645795D01*
X100758898Y-58567774D01*
X100558939Y-58528000D01*
X100355061Y-58528000D01*
X100155102Y-58567774D01*
X99966744Y-58645795D01*
X99797226Y-58759063D01*
X99653063Y-58903226D01*
X99539795Y-59072744D01*
X99461774Y-59261102D01*
X99422000Y-59461061D01*
X99422000Y-59664939D01*
X99461774Y-59864898D01*
X99539795Y-60053256D01*
X99653063Y-60222774D01*
X99697001Y-60266712D01*
X99697000Y-61399289D01*
X99653063Y-61443226D01*
X99539795Y-61612744D01*
X99461774Y-61801102D01*
X99422000Y-62001061D01*
X99422000Y-62063198D01*
X97882248Y-63602951D01*
X97853250Y-63626749D01*
X97829452Y-63655747D01*
X97829451Y-63655748D01*
X97758276Y-63742474D01*
X97687704Y-63874504D01*
X97664219Y-63951927D01*
X97644248Y-64017764D01*
X97639579Y-64065172D01*
X97629574Y-64166750D01*
X97633251Y-64204082D01*
X97633250Y-65177539D01*
X97589313Y-65221476D01*
X97476045Y-65390994D01*
X97398024Y-65579352D01*
X97358250Y-65779311D01*
X89368699Y-65779311D01*
X89369274Y-65778927D01*
X89513437Y-65634764D01*
X89626705Y-65465246D01*
X89704726Y-65276888D01*
X89744500Y-65076929D01*
X89744500Y-64873051D01*
X89704726Y-64673092D01*
X89626705Y-64484734D01*
X89513437Y-64315216D01*
X89369274Y-64171053D01*
X89199756Y-64057785D01*
X89011398Y-63979764D01*
X88811439Y-63939990D01*
X88607561Y-63939990D01*
X88407602Y-63979764D01*
X88219244Y-64057785D01*
X88169750Y-64090856D01*
X88120256Y-64057785D01*
X87931898Y-63979764D01*
X87797887Y-63953108D01*
X94797598Y-56953398D01*
X94797599Y-62510322D01*
X93975453Y-63332469D01*
X93925457Y-63382465D01*
X93868602Y-63393774D01*
X93680244Y-63471795D01*
X93510726Y-63585063D01*
X93366563Y-63729226D01*
X93253295Y-63898744D01*
X93175274Y-64087102D01*
X93135500Y-64287061D01*
X93135500Y-64490939D01*
X93175274Y-64690898D01*
X93253295Y-64879256D01*
X93366563Y-65048774D01*
X93510726Y-65192937D01*
X93680244Y-65306205D01*
X93868602Y-65384226D01*
X94068561Y-65424000D01*
X94272439Y-65424000D01*
X94472398Y-65384226D01*
X94660756Y-65306205D01*
X94830274Y-65192937D01*
X94974437Y-65048774D01*
X95087705Y-64879256D01*
X95165726Y-64690898D01*
X95177035Y-64634043D01*
X95227031Y-64584047D01*
X96277647Y-63533432D01*
X96311415Y-63505719D01*
X96347630Y-63461592D01*
X96422008Y-63370962D01*
X96422009Y-63370961D01*
X96504187Y-63217215D01*
X96554793Y-63050392D01*
X96567598Y-62920379D01*
X96567598Y-62920369D01*
X96571879Y-62876903D01*
X96567598Y-62833437D01*
X96567598Y-54852748D01*
X96571879Y-54809282D01*
X96567598Y-54765816D01*
X96567598Y-54765806D01*
X96554793Y-54635793D01*
X96508695Y-54483830D01*
X96540170Y-54407842D01*
X96579944Y-54207883D01*
X96579944Y-54004005D01*
X96540170Y-53804046D01*
X96462149Y-53615688D01*
X96348881Y-53446170D01*
X96204718Y-53302007D01*
X96035200Y-53188739D01*
X95846842Y-53110718D01*
X95646883Y-53070944D01*
X95443005Y-53070944D01*
X95243046Y-53110718D01*
X95054688Y-53188739D01*
X94885170Y-53302007D01*
X94741007Y-53446170D01*
X94627739Y-53615688D01*
X94549718Y-53804046D01*
X94509944Y-54004005D01*
X94509944Y-54207883D01*
X94549718Y-54407842D01*
X94627739Y-54596200D01*
X94658550Y-54642312D01*
X94655663Y-54671629D01*
X94659944Y-54715098D01*
X94659944Y-54715106D01*
X94670334Y-54820596D01*
X94530699Y-54848371D01*
X94342341Y-54926392D01*
X94172823Y-55039660D01*
X94028660Y-55183823D01*
X93915392Y-55353341D01*
X93837371Y-55541699D01*
X93797597Y-55741658D01*
X93797597Y-55803795D01*
X84081393Y-65520000D01*
X82527595Y-65520000D01*
X82490706Y-65450986D01*
X82305134Y-65224866D01*
X82079014Y-65039294D01*
X82014477Y-65004799D01*
X82131355Y-64935178D01*
X82347588Y-64740269D01*
X82521641Y-64506920D01*
X82646825Y-64244099D01*
X82691476Y-64096890D01*
X82570155Y-63867000D01*
X81377000Y-63867000D01*
X81377000Y-63887000D01*
X81123000Y-63887000D01*
X81123000Y-63867000D01*
X79929845Y-63867000D01*
X79808524Y-64096890D01*
X79853175Y-64244099D01*
X79978359Y-64506920D01*
X80152412Y-64740269D01*
X80368645Y-64935178D01*
X80485523Y-65004799D01*
X80420986Y-65039294D01*
X80194866Y-65224866D01*
X80009294Y-65450986D01*
X79871401Y-65708966D01*
X79786487Y-65988889D01*
X79757815Y-66280000D01*
X75306449Y-66280000D01*
X75182481Y-66048073D01*
X74990661Y-65814339D01*
X74756927Y-65622519D01*
X74490261Y-65479983D01*
X74200913Y-65392210D01*
X73975408Y-65370000D01*
X72024592Y-65370000D01*
X71799087Y-65392210D01*
X71509739Y-65479983D01*
X71243073Y-65622519D01*
X71009339Y-65814339D01*
X70817519Y-66048073D01*
X70674983Y-66314739D01*
X70587210Y-66604087D01*
X70557573Y-66905000D01*
X65660000Y-66905000D01*
X65660000Y-63995000D01*
X70561928Y-63995000D01*
X70574188Y-64119482D01*
X70610498Y-64239180D01*
X70669463Y-64349494D01*
X70748815Y-64446185D01*
X70845506Y-64525537D01*
X70955820Y-64584502D01*
X71075518Y-64620812D01*
X71200000Y-64633072D01*
X72714250Y-64630000D01*
X72873000Y-64471250D01*
X72873000Y-63222000D01*
X73127000Y-63222000D01*
X73127000Y-64471250D01*
X73285750Y-64630000D01*
X74800000Y-64633072D01*
X74924482Y-64620812D01*
X75044180Y-64584502D01*
X75154494Y-64525537D01*
X75251185Y-64446185D01*
X75330537Y-64349494D01*
X75389502Y-64239180D01*
X75425812Y-64119482D01*
X75438072Y-63995000D01*
X75435000Y-63380750D01*
X75276250Y-63222000D01*
X73127000Y-63222000D01*
X72873000Y-63222000D01*
X70723750Y-63222000D01*
X70565000Y-63380750D01*
X70561928Y-63995000D01*
X65660000Y-63995000D01*
X65660000Y-62195000D01*
X70561928Y-62195000D01*
X70565000Y-62809250D01*
X70723750Y-62968000D01*
X72873000Y-62968000D01*
X72873000Y-61718750D01*
X73127000Y-61718750D01*
X73127000Y-62968000D01*
X75276250Y-62968000D01*
X75435000Y-62809250D01*
X75438072Y-62195000D01*
X75425812Y-62070518D01*
X75389502Y-61950820D01*
X75330537Y-61840506D01*
X75251185Y-61743815D01*
X75154494Y-61664463D01*
X75044180Y-61605498D01*
X74924482Y-61569188D01*
X74800000Y-61556928D01*
X73285750Y-61560000D01*
X73127000Y-61718750D01*
X72873000Y-61718750D01*
X72714250Y-61560000D01*
X71200000Y-61556928D01*
X71075518Y-61569188D01*
X70955820Y-61605498D01*
X70845506Y-61664463D01*
X70748815Y-61743815D01*
X70669463Y-61840506D01*
X70610498Y-61950820D01*
X70574188Y-62070518D01*
X70561928Y-62195000D01*
X65660000Y-62195000D01*
X65660000Y-58660000D01*
X79757815Y-58660000D01*
X79786487Y-58951111D01*
X79871401Y-59231034D01*
X80009294Y-59489014D01*
X80194866Y-59715134D01*
X80420986Y-59900706D01*
X80475791Y-59930000D01*
X80420986Y-59959294D01*
X80194866Y-60144866D01*
X80009294Y-60370986D01*
X79871401Y-60628966D01*
X79786487Y-60908889D01*
X79757815Y-61200000D01*
X79786487Y-61491111D01*
X79871401Y-61771034D01*
X80009294Y-62029014D01*
X80194866Y-62255134D01*
X80420986Y-62440706D01*
X80485523Y-62475201D01*
X80368645Y-62544822D01*
X80152412Y-62739731D01*
X79978359Y-62973080D01*
X79853175Y-63235901D01*
X79808524Y-63383110D01*
X79929845Y-63613000D01*
X81123000Y-63613000D01*
X81123000Y-63593000D01*
X81377000Y-63593000D01*
X81377000Y-63613000D01*
X82570155Y-63613000D01*
X82691476Y-63383110D01*
X82646825Y-63235901D01*
X82521641Y-62973080D01*
X82347588Y-62739731D01*
X82131355Y-62544822D01*
X82014477Y-62475201D01*
X82079014Y-62440706D01*
X82305134Y-62255134D01*
X82490706Y-62029014D01*
X82628599Y-61771034D01*
X82713513Y-61491111D01*
X82742185Y-61200000D01*
X82713513Y-60908889D01*
X82628599Y-60628966D01*
X82490706Y-60370986D01*
X82305134Y-60144866D01*
X82079014Y-59959294D01*
X82024209Y-59930000D01*
X82079014Y-59900706D01*
X82305134Y-59715134D01*
X82490706Y-59489014D01*
X82628599Y-59231034D01*
X82713513Y-58951111D01*
X82742185Y-58660000D01*
X82713513Y-58368889D01*
X82628599Y-58088966D01*
X82490706Y-57830986D01*
X82305134Y-57604866D01*
X82079014Y-57419294D01*
X82014477Y-57384799D01*
X82131355Y-57315178D01*
X82347588Y-57120269D01*
X82521641Y-56886920D01*
X82646825Y-56624099D01*
X82691476Y-56476890D01*
X82570155Y-56247000D01*
X81377000Y-56247000D01*
X81377000Y-56267000D01*
X81123000Y-56267000D01*
X81123000Y-56247000D01*
X79929845Y-56247000D01*
X79808524Y-56476890D01*
X79853175Y-56624099D01*
X79978359Y-56886920D01*
X80152412Y-57120269D01*
X80368645Y-57315178D01*
X80485523Y-57384799D01*
X80420986Y-57419294D01*
X80194866Y-57604866D01*
X80009294Y-57830986D01*
X79871401Y-58088966D01*
X79786487Y-58368889D01*
X79757815Y-58660000D01*
X65660000Y-58660000D01*
X65660000Y-53374193D01*
X67015000Y-53374193D01*
X67015000Y-53725807D01*
X67083596Y-54070665D01*
X67218153Y-54395515D01*
X67413500Y-54687871D01*
X67662129Y-54936500D01*
X67954485Y-55131847D01*
X68279335Y-55266404D01*
X68624193Y-55335000D01*
X68975807Y-55335000D01*
X69320665Y-55266404D01*
X69645515Y-55131847D01*
X69937871Y-54936500D01*
X70186500Y-54687871D01*
X70381847Y-54395515D01*
X70516404Y-54070665D01*
X70585000Y-53725807D01*
X70585000Y-53374193D01*
X70516404Y-53029335D01*
X70381847Y-52704485D01*
X70186500Y-52412129D01*
X69937871Y-52163500D01*
X69645515Y-51968153D01*
X69320665Y-51833596D01*
X68975807Y-51765000D01*
X68624193Y-51765000D01*
X68279335Y-51833596D01*
X67954485Y-51968153D01*
X67662129Y-52163500D01*
X67413500Y-52412129D01*
X67218153Y-52704485D01*
X67083596Y-53029335D01*
X67015000Y-53374193D01*
X65660000Y-53374193D01*
X65660000Y-51040000D01*
X79757815Y-51040000D01*
X79786487Y-51331111D01*
X79871401Y-51611034D01*
X80009294Y-51869014D01*
X80194866Y-52095134D01*
X80420986Y-52280706D01*
X80475791Y-52310000D01*
X80420986Y-52339294D01*
X80194866Y-52524866D01*
X80009294Y-52750986D01*
X79871401Y-53008966D01*
X79786487Y-53288889D01*
X79757815Y-53580000D01*
X79786487Y-53871111D01*
X79871401Y-54151034D01*
X80009294Y-54409014D01*
X80194866Y-54635134D01*
X80420986Y-54820706D01*
X80485523Y-54855201D01*
X80368645Y-54924822D01*
X80152412Y-55119731D01*
X79978359Y-55353080D01*
X79853175Y-55615901D01*
X79808524Y-55763110D01*
X79929845Y-55993000D01*
X81123000Y-55993000D01*
X81123000Y-55973000D01*
X81377000Y-55973000D01*
X81377000Y-55993000D01*
X82570155Y-55993000D01*
X82691476Y-55763110D01*
X82646825Y-55615901D01*
X82521641Y-55353080D01*
X82347588Y-55119731D01*
X82131355Y-54924822D01*
X82014477Y-54855201D01*
X82079014Y-54820706D01*
X82305134Y-54635134D01*
X82490706Y-54409014D01*
X82628599Y-54151034D01*
X82713513Y-53871111D01*
X82742185Y-53580000D01*
X82713513Y-53288889D01*
X82628599Y-53008966D01*
X82490706Y-52750986D01*
X82305134Y-52524866D01*
X82079014Y-52339294D01*
X82024209Y-52310000D01*
X82079014Y-52280706D01*
X82305134Y-52095134D01*
X82490706Y-51869014D01*
X82628599Y-51611034D01*
X82713513Y-51331111D01*
X82742185Y-51040000D01*
X127757815Y-51040000D01*
X127786487Y-51331111D01*
X127871401Y-51611034D01*
X128009294Y-51869014D01*
X128194866Y-52095134D01*
X128420986Y-52280706D01*
X128475791Y-52310000D01*
X128420986Y-52339294D01*
X128194866Y-52524866D01*
X128009294Y-52750986D01*
X127871401Y-53008966D01*
X127786487Y-53288889D01*
X127757815Y-53580000D01*
X127786487Y-53871111D01*
X127871401Y-54151034D01*
X128009294Y-54409014D01*
X128194866Y-54635134D01*
X128420986Y-54820706D01*
X128475791Y-54850000D01*
X128420986Y-54879294D01*
X128194866Y-55064866D01*
X128009294Y-55290986D01*
X127871401Y-55548966D01*
X127786487Y-55828889D01*
X127757815Y-56120000D01*
X127786487Y-56411111D01*
X127871401Y-56691034D01*
X128009294Y-56949014D01*
X128194866Y-57175134D01*
X128420986Y-57360706D01*
X128475791Y-57390000D01*
X128420986Y-57419294D01*
X128194866Y-57604866D01*
X128009294Y-57830986D01*
X127871401Y-58088966D01*
X127786487Y-58368889D01*
X127757815Y-58660000D01*
X127786487Y-58951111D01*
X127871401Y-59231034D01*
X128009294Y-59489014D01*
X128194866Y-59715134D01*
X128420986Y-59900706D01*
X128475791Y-59930000D01*
X128420986Y-59959294D01*
X128194866Y-60144866D01*
X128009294Y-60370986D01*
X127871401Y-60628966D01*
X127786487Y-60908889D01*
X127757815Y-61200000D01*
X127786487Y-61491111D01*
X127871401Y-61771034D01*
X128009294Y-62029014D01*
X128194866Y-62255134D01*
X128420986Y-62440706D01*
X128475791Y-62470000D01*
X128420986Y-62499294D01*
X128194866Y-62684866D01*
X128009294Y-62910986D01*
X127871401Y-63168966D01*
X127786487Y-63448889D01*
X127757815Y-63740000D01*
X127786487Y-64031111D01*
X127871401Y-64311034D01*
X128009294Y-64569014D01*
X128194866Y-64795134D01*
X128420986Y-64980706D01*
X128475791Y-65010000D01*
X128420986Y-65039294D01*
X128194866Y-65224866D01*
X128009294Y-65450986D01*
X127871401Y-65708966D01*
X127786487Y-65988889D01*
X127757815Y-66280000D01*
X127786487Y-66571111D01*
X127871401Y-66851034D01*
X128009294Y-67109014D01*
X128194866Y-67335134D01*
X128420986Y-67520706D01*
X128475791Y-67550000D01*
X128420986Y-67579294D01*
X128194866Y-67764866D01*
X128009294Y-67990986D01*
X127871401Y-68248966D01*
X127786487Y-68528889D01*
X127757815Y-68820000D01*
X127786487Y-69111111D01*
X127871401Y-69391034D01*
X128009294Y-69649014D01*
X128194866Y-69875134D01*
X128420986Y-70060706D01*
X128475791Y-70090000D01*
X128420986Y-70119294D01*
X128194866Y-70304866D01*
X128009294Y-70530986D01*
X127871401Y-70788966D01*
X127786487Y-71068889D01*
X127757815Y-71360000D01*
X127786487Y-71651111D01*
X127871401Y-71931034D01*
X128009294Y-72189014D01*
X128194866Y-72415134D01*
X128420986Y-72600706D01*
X128475791Y-72630000D01*
X128420986Y-72659294D01*
X128194866Y-72844866D01*
X128009294Y-73070986D01*
X127871401Y-73328966D01*
X127786487Y-73608889D01*
X127757815Y-73900000D01*
X127786487Y-74191111D01*
X127871401Y-74471034D01*
X128009294Y-74729014D01*
X128194866Y-74955134D01*
X128420986Y-75140706D01*
X128475791Y-75170000D01*
X128420986Y-75199294D01*
X128194866Y-75384866D01*
X128009294Y-75610986D01*
X127871401Y-75868966D01*
X127786487Y-76148889D01*
X127757815Y-76440000D01*
X127786487Y-76731111D01*
X127871401Y-77011034D01*
X128009294Y-77269014D01*
X128194866Y-77495134D01*
X128420986Y-77680706D01*
X128475791Y-77710000D01*
X128420986Y-77739294D01*
X128194866Y-77924866D01*
X128009294Y-78150986D01*
X127871401Y-78408966D01*
X127786487Y-78688889D01*
X127757815Y-78980000D01*
X127786487Y-79271111D01*
X127871401Y-79551034D01*
X128009294Y-79809014D01*
X128194866Y-80035134D01*
X128420986Y-80220706D01*
X128485523Y-80255201D01*
X128368645Y-80324822D01*
X128152412Y-80519731D01*
X127978359Y-80753080D01*
X127853175Y-81015901D01*
X127808524Y-81163110D01*
X127929845Y-81393000D01*
X129123000Y-81393000D01*
X129123000Y-81373000D01*
X129377000Y-81373000D01*
X129377000Y-81393000D01*
X130570155Y-81393000D01*
X130691476Y-81163110D01*
X130646825Y-81015901D01*
X130521641Y-80753080D01*
X130347588Y-80519731D01*
X130131355Y-80324822D01*
X130014477Y-80255201D01*
X130079014Y-80220706D01*
X130305134Y-80035134D01*
X130490706Y-79809014D01*
X130628599Y-79551034D01*
X130713513Y-79271111D01*
X130742185Y-78980000D01*
X130720025Y-78755000D01*
X134561928Y-78755000D01*
X134561928Y-80055000D01*
X134578992Y-80228254D01*
X134629528Y-80394850D01*
X134711595Y-80548386D01*
X134822038Y-80682962D01*
X134956614Y-80793405D01*
X135110150Y-80875472D01*
X135276746Y-80926008D01*
X135450000Y-80943072D01*
X138550000Y-80943072D01*
X138723254Y-80926008D01*
X138889850Y-80875472D01*
X139043386Y-80793405D01*
X139177962Y-80682962D01*
X139288405Y-80548386D01*
X139370472Y-80394850D01*
X139421008Y-80228254D01*
X139438072Y-80055000D01*
X139438072Y-78755000D01*
X139421008Y-78581746D01*
X139370472Y-78415150D01*
X139288405Y-78261614D01*
X139177962Y-78127038D01*
X139043386Y-78016595D01*
X138889850Y-77934528D01*
X138723254Y-77883992D01*
X138550000Y-77866928D01*
X135450000Y-77866928D01*
X135276746Y-77883992D01*
X135110150Y-77934528D01*
X134956614Y-78016595D01*
X134822038Y-78127038D01*
X134711595Y-78261614D01*
X134629528Y-78415150D01*
X134578992Y-78581746D01*
X134561928Y-78755000D01*
X130720025Y-78755000D01*
X130713513Y-78688889D01*
X130628599Y-78408966D01*
X130490706Y-78150986D01*
X130305134Y-77924866D01*
X130079014Y-77739294D01*
X130024209Y-77710000D01*
X130079014Y-77680706D01*
X130305134Y-77495134D01*
X130490706Y-77269014D01*
X130628599Y-77011034D01*
X130713513Y-76731111D01*
X130742185Y-76440000D01*
X130713513Y-76148889D01*
X130628599Y-75868966D01*
X130490706Y-75610986D01*
X130477587Y-75595000D01*
X134557573Y-75595000D01*
X134587210Y-75895913D01*
X134674983Y-76185261D01*
X134817519Y-76451927D01*
X135009339Y-76685661D01*
X135243073Y-76877481D01*
X135509739Y-77020017D01*
X135799087Y-77107790D01*
X136024592Y-77130000D01*
X137975408Y-77130000D01*
X138200913Y-77107790D01*
X138490261Y-77020017D01*
X138756927Y-76877481D01*
X138990661Y-76685661D01*
X139182481Y-76451927D01*
X139325017Y-76185261D01*
X139412790Y-75895913D01*
X139442427Y-75595000D01*
X139412790Y-75294087D01*
X139325017Y-75004739D01*
X139182481Y-74738073D01*
X138990661Y-74504339D01*
X138756927Y-74312519D01*
X138490261Y-74169983D01*
X138200913Y-74082210D01*
X137975408Y-74060000D01*
X136024592Y-74060000D01*
X135799087Y-74082210D01*
X135509739Y-74169983D01*
X135243073Y-74312519D01*
X135009339Y-74504339D01*
X134817519Y-74738073D01*
X134674983Y-75004739D01*
X134587210Y-75294087D01*
X134557573Y-75595000D01*
X130477587Y-75595000D01*
X130305134Y-75384866D01*
X130079014Y-75199294D01*
X130024209Y-75170000D01*
X130079014Y-75140706D01*
X130305134Y-74955134D01*
X130490706Y-74729014D01*
X130628599Y-74471034D01*
X130713513Y-74191111D01*
X130742185Y-73900000D01*
X130713513Y-73608889D01*
X130628599Y-73328966D01*
X130490706Y-73070986D01*
X130305134Y-72844866D01*
X130079014Y-72659294D01*
X130024209Y-72630000D01*
X130079014Y-72600706D01*
X130305134Y-72415134D01*
X130490706Y-72189014D01*
X130628599Y-71931034D01*
X130713513Y-71651111D01*
X130742185Y-71360000D01*
X130713513Y-71068889D01*
X130628599Y-70788966D01*
X130490706Y-70530986D01*
X130305134Y-70304866D01*
X130079014Y-70119294D01*
X130024209Y-70090000D01*
X130079014Y-70060706D01*
X130305134Y-69875134D01*
X130490706Y-69649014D01*
X130628599Y-69391034D01*
X130713513Y-69111111D01*
X130742185Y-68820000D01*
X130713513Y-68528889D01*
X130628599Y-68248966D01*
X130490706Y-67990986D01*
X130305134Y-67764866D01*
X130079014Y-67579294D01*
X130024209Y-67550000D01*
X130079014Y-67520706D01*
X130305134Y-67335134D01*
X130490706Y-67109014D01*
X130628599Y-66851034D01*
X130713513Y-66571111D01*
X130742185Y-66280000D01*
X130739723Y-66255000D01*
X134561928Y-66255000D01*
X134561928Y-67555000D01*
X134578992Y-67728254D01*
X134629528Y-67894850D01*
X134711595Y-68048386D01*
X134822038Y-68182962D01*
X134956614Y-68293405D01*
X135110150Y-68375472D01*
X135276746Y-68426008D01*
X135450000Y-68443072D01*
X138550000Y-68443072D01*
X138723254Y-68426008D01*
X138889850Y-68375472D01*
X139043386Y-68293405D01*
X139177962Y-68182962D01*
X139288405Y-68048386D01*
X139370472Y-67894850D01*
X139421008Y-67728254D01*
X139438072Y-67555000D01*
X139438072Y-66255000D01*
X139421008Y-66081746D01*
X139370472Y-65915150D01*
X139288405Y-65761614D01*
X139177962Y-65627038D01*
X139043386Y-65516595D01*
X138889850Y-65434528D01*
X138723254Y-65383992D01*
X138550000Y-65366928D01*
X135450000Y-65366928D01*
X135276746Y-65383992D01*
X135110150Y-65434528D01*
X134956614Y-65516595D01*
X134822038Y-65627038D01*
X134711595Y-65761614D01*
X134629528Y-65915150D01*
X134578992Y-66081746D01*
X134561928Y-66255000D01*
X130739723Y-66255000D01*
X130713513Y-65988889D01*
X130628599Y-65708966D01*
X130490706Y-65450986D01*
X130305134Y-65224866D01*
X130079014Y-65039294D01*
X130024209Y-65010000D01*
X130079014Y-64980706D01*
X130305134Y-64795134D01*
X130490706Y-64569014D01*
X130628599Y-64311034D01*
X130713513Y-64031111D01*
X130742185Y-63740000D01*
X130713513Y-63448889D01*
X130628599Y-63168966D01*
X130589064Y-63095000D01*
X134557573Y-63095000D01*
X134587210Y-63395913D01*
X134674983Y-63685261D01*
X134817519Y-63951927D01*
X135009339Y-64185661D01*
X135243073Y-64377481D01*
X135509739Y-64520017D01*
X135799087Y-64607790D01*
X136024592Y-64630000D01*
X137975408Y-64630000D01*
X138200913Y-64607790D01*
X138490261Y-64520017D01*
X138756927Y-64377481D01*
X138990661Y-64185661D01*
X139182481Y-63951927D01*
X139325017Y-63685261D01*
X139412790Y-63395913D01*
X139442427Y-63095000D01*
X139412790Y-62794087D01*
X139325017Y-62504739D01*
X139182481Y-62238073D01*
X138990661Y-62004339D01*
X138756927Y-61812519D01*
X138490261Y-61669983D01*
X138200913Y-61582210D01*
X137975408Y-61560000D01*
X136024592Y-61560000D01*
X135799087Y-61582210D01*
X135509739Y-61669983D01*
X135243073Y-61812519D01*
X135009339Y-62004339D01*
X134817519Y-62238073D01*
X134674983Y-62504739D01*
X134587210Y-62794087D01*
X134557573Y-63095000D01*
X130589064Y-63095000D01*
X130490706Y-62910986D01*
X130305134Y-62684866D01*
X130079014Y-62499294D01*
X130024209Y-62470000D01*
X130079014Y-62440706D01*
X130305134Y-62255134D01*
X130490706Y-62029014D01*
X130628599Y-61771034D01*
X130713513Y-61491111D01*
X130742185Y-61200000D01*
X130713513Y-60908889D01*
X130628599Y-60628966D01*
X130490706Y-60370986D01*
X130305134Y-60144866D01*
X130079014Y-59959294D01*
X130024209Y-59930000D01*
X130079014Y-59900706D01*
X130305134Y-59715134D01*
X130490706Y-59489014D01*
X130628599Y-59231034D01*
X130713513Y-58951111D01*
X130742185Y-58660000D01*
X130713513Y-58368889D01*
X130628599Y-58088966D01*
X130490706Y-57830986D01*
X130305134Y-57604866D01*
X130079014Y-57419294D01*
X130024209Y-57390000D01*
X130079014Y-57360706D01*
X130305134Y-57175134D01*
X130490706Y-56949014D01*
X130628599Y-56691034D01*
X130713513Y-56411111D01*
X130742185Y-56120000D01*
X130713513Y-55828889D01*
X130628599Y-55548966D01*
X130490706Y-55290986D01*
X130305134Y-55064866D01*
X130079014Y-54879294D01*
X130024209Y-54850000D01*
X130079014Y-54820706D01*
X130305134Y-54635134D01*
X130490706Y-54409014D01*
X130628599Y-54151034D01*
X130713513Y-53871111D01*
X130724948Y-53755000D01*
X134561928Y-53755000D01*
X134561928Y-55055000D01*
X134578992Y-55228254D01*
X134629528Y-55394850D01*
X134711595Y-55548386D01*
X134822038Y-55682962D01*
X134956614Y-55793405D01*
X135110150Y-55875472D01*
X135276746Y-55926008D01*
X135450000Y-55943072D01*
X138550000Y-55943072D01*
X138723254Y-55926008D01*
X138889850Y-55875472D01*
X139043386Y-55793405D01*
X139177962Y-55682962D01*
X139288405Y-55548386D01*
X139370472Y-55394850D01*
X139421008Y-55228254D01*
X139438072Y-55055000D01*
X139438072Y-53755000D01*
X139421008Y-53581746D01*
X139370472Y-53415150D01*
X139288405Y-53261614D01*
X139177962Y-53127038D01*
X139043386Y-53016595D01*
X138889850Y-52934528D01*
X138723254Y-52883992D01*
X138550000Y-52866928D01*
X135450000Y-52866928D01*
X135276746Y-52883992D01*
X135110150Y-52934528D01*
X134956614Y-53016595D01*
X134822038Y-53127038D01*
X134711595Y-53261614D01*
X134629528Y-53415150D01*
X134578992Y-53581746D01*
X134561928Y-53755000D01*
X130724948Y-53755000D01*
X130742185Y-53580000D01*
X130713513Y-53288889D01*
X130628599Y-53008966D01*
X130490706Y-52750986D01*
X130305134Y-52524866D01*
X130079014Y-52339294D01*
X130024209Y-52310000D01*
X130079014Y-52280706D01*
X130305134Y-52095134D01*
X130490706Y-51869014D01*
X130628599Y-51611034D01*
X130713513Y-51331111D01*
X130742185Y-51040000D01*
X130713513Y-50748889D01*
X130666832Y-50595000D01*
X134557573Y-50595000D01*
X134587210Y-50895913D01*
X134674983Y-51185261D01*
X134817519Y-51451927D01*
X135009339Y-51685661D01*
X135243073Y-51877481D01*
X135509739Y-52020017D01*
X135799087Y-52107790D01*
X136024592Y-52130000D01*
X137975408Y-52130000D01*
X138200913Y-52107790D01*
X138490261Y-52020017D01*
X138756927Y-51877481D01*
X138990661Y-51685661D01*
X139182481Y-51451927D01*
X139325017Y-51185261D01*
X139412790Y-50895913D01*
X139442427Y-50595000D01*
X139412790Y-50294087D01*
X139325017Y-50004739D01*
X139182481Y-49738073D01*
X138990661Y-49504339D01*
X138756927Y-49312519D01*
X138490261Y-49169983D01*
X138200913Y-49082210D01*
X137975408Y-49060000D01*
X136024592Y-49060000D01*
X135799087Y-49082210D01*
X135509739Y-49169983D01*
X135243073Y-49312519D01*
X135009339Y-49504339D01*
X134817519Y-49738073D01*
X134674983Y-50004739D01*
X134587210Y-50294087D01*
X134557573Y-50595000D01*
X130666832Y-50595000D01*
X130628599Y-50468966D01*
X130490706Y-50210986D01*
X130305134Y-49984866D01*
X130275313Y-49960393D01*
X130344180Y-49939502D01*
X130454494Y-49880537D01*
X130551185Y-49801185D01*
X130630537Y-49704494D01*
X130689502Y-49594180D01*
X130725812Y-49474482D01*
X130738072Y-49350000D01*
X130735000Y-48785750D01*
X130576250Y-48627000D01*
X129377000Y-48627000D01*
X129377000Y-48647000D01*
X129123000Y-48647000D01*
X129123000Y-48627000D01*
X127923750Y-48627000D01*
X127765000Y-48785750D01*
X127761928Y-49350000D01*
X127774188Y-49474482D01*
X127810498Y-49594180D01*
X127869463Y-49704494D01*
X127948815Y-49801185D01*
X128045506Y-49880537D01*
X128155820Y-49939502D01*
X128224687Y-49960393D01*
X128194866Y-49984866D01*
X128009294Y-50210986D01*
X127871401Y-50468966D01*
X127786487Y-50748889D01*
X127757815Y-51040000D01*
X82742185Y-51040000D01*
X82713513Y-50748889D01*
X82628599Y-50468966D01*
X82490706Y-50210986D01*
X82305134Y-49984866D01*
X82275313Y-49960393D01*
X82344180Y-49939502D01*
X82454494Y-49880537D01*
X82551185Y-49801185D01*
X82630537Y-49704494D01*
X82689502Y-49594180D01*
X82725812Y-49474482D01*
X82738072Y-49350000D01*
X82738072Y-47650000D01*
X127761928Y-47650000D01*
X127765000Y-48214250D01*
X127923750Y-48373000D01*
X129123000Y-48373000D01*
X129123000Y-47173750D01*
X129377000Y-47173750D01*
X129377000Y-48373000D01*
X130576250Y-48373000D01*
X130735000Y-48214250D01*
X130738072Y-47650000D01*
X130725812Y-47525518D01*
X130689502Y-47405820D01*
X130630537Y-47295506D01*
X130551185Y-47198815D01*
X130454494Y-47119463D01*
X130344180Y-47060498D01*
X130224482Y-47024188D01*
X130100000Y-47011928D01*
X129535750Y-47015000D01*
X129377000Y-47173750D01*
X129123000Y-47173750D01*
X128964250Y-47015000D01*
X128400000Y-47011928D01*
X128275518Y-47024188D01*
X128155820Y-47060498D01*
X128045506Y-47119463D01*
X127948815Y-47198815D01*
X127869463Y-47295506D01*
X127810498Y-47405820D01*
X127774188Y-47525518D01*
X127761928Y-47650000D01*
X82738072Y-47650000D01*
X82725812Y-47525518D01*
X82689502Y-47405820D01*
X82630537Y-47295506D01*
X82551185Y-47198815D01*
X82454494Y-47119463D01*
X82344180Y-47060498D01*
X82224482Y-47024188D01*
X82100000Y-47011928D01*
X80400000Y-47011928D01*
X80275518Y-47024188D01*
X80155820Y-47060498D01*
X80045506Y-47119463D01*
X79948815Y-47198815D01*
X79869463Y-47295506D01*
X79810498Y-47405820D01*
X79774188Y-47525518D01*
X79761928Y-47650000D01*
X79761928Y-49350000D01*
X79774188Y-49474482D01*
X79810498Y-49594180D01*
X79869463Y-49704494D01*
X79948815Y-49801185D01*
X80045506Y-49880537D01*
X80155820Y-49939502D01*
X80224687Y-49960393D01*
X80194866Y-49984866D01*
X80009294Y-50210986D01*
X79871401Y-50468966D01*
X79786487Y-50748889D01*
X79757815Y-51040000D01*
X65660000Y-51040000D01*
X65660000Y-48674193D01*
X65915000Y-48674193D01*
X65915000Y-49025807D01*
X65983596Y-49370665D01*
X66118153Y-49695515D01*
X66313500Y-49987871D01*
X66562129Y-50236500D01*
X66854485Y-50431847D01*
X67179335Y-50566404D01*
X67524193Y-50635000D01*
X67875807Y-50635000D01*
X68220665Y-50566404D01*
X68545515Y-50431847D01*
X68837871Y-50236500D01*
X69086500Y-49987871D01*
X69281847Y-49695515D01*
X69416404Y-49370665D01*
X69485000Y-49025807D01*
X69485000Y-48674193D01*
X69416404Y-48329335D01*
X69281847Y-48004485D01*
X69086500Y-47712129D01*
X68837871Y-47463500D01*
X68545515Y-47268153D01*
X68220665Y-47133596D01*
X67875807Y-47065000D01*
X67524193Y-47065000D01*
X67179335Y-47133596D01*
X66854485Y-47268153D01*
X66562129Y-47463500D01*
X66313500Y-47712129D01*
X66118153Y-48004485D01*
X65983596Y-48329335D01*
X65915000Y-48674193D01*
X65660000Y-48674193D01*
X65660000Y-42733087D01*
X66017599Y-43268272D01*
X66731728Y-43982401D01*
X67571455Y-44543488D01*
X68504509Y-44929972D01*
X69495035Y-45127000D01*
X70504965Y-45127000D01*
X71495491Y-44929972D01*
X72428545Y-44543488D01*
X73268272Y-43982401D01*
X73982401Y-43268272D01*
X74543488Y-42428545D01*
X74929972Y-41495491D01*
X75127000Y-40504965D01*
X75127000Y-39495035D01*
X74929972Y-38504509D01*
X74543488Y-37571455D01*
X73982401Y-36731728D01*
X73268272Y-36017599D01*
X72733087Y-35660000D01*
X137266913Y-35660000D01*
X136731728Y-36017599D01*
X136731728Y-36017599D01*
G37*
X136731728Y-36017599D02*
X136017599Y-36731728D01*
X135456512Y-37571455D01*
X135070028Y-38504509D01*
X134873000Y-39495035D01*
X134873000Y-40504965D01*
X135070028Y-41495491D01*
X135456512Y-42428545D01*
X136017599Y-43268272D01*
X136731728Y-43982401D01*
X137571455Y-44543488D01*
X138504509Y-44929972D01*
X139495035Y-45127000D01*
X140504965Y-45127000D01*
X141495491Y-44929972D01*
X142428545Y-44543488D01*
X143268272Y-43982401D01*
X143982401Y-43268272D01*
X144340001Y-42733085D01*
X144340000Y-87266914D01*
X143982401Y-86731728D01*
X143268272Y-86017599D01*
X142428545Y-85456512D01*
X141495491Y-85070028D01*
X140504965Y-84873000D01*
X139495035Y-84873000D01*
X138504509Y-85070028D01*
X137571455Y-85456512D01*
X136731728Y-86017599D01*
X136017599Y-86731728D01*
X135456512Y-87571455D01*
X135070028Y-88504509D01*
X134873000Y-89495035D01*
X134873000Y-90504965D01*
X135070028Y-91495491D01*
X135456512Y-92428545D01*
X136017599Y-93268272D01*
X136731728Y-93982401D01*
X137266913Y-94340000D01*
X72733087Y-94340000D01*
X73268272Y-93982401D01*
X73982401Y-93268272D01*
X74543488Y-92428545D01*
X74929972Y-91495491D01*
X75127000Y-90504965D01*
X75127000Y-89495035D01*
X74929972Y-88504509D01*
X74543488Y-87571455D01*
X73982401Y-86731728D01*
X73268272Y-86017599D01*
X72428545Y-85456512D01*
X71495491Y-85070028D01*
X70504965Y-84873000D01*
X69495035Y-84873000D01*
X68504509Y-85070028D01*
X67571455Y-85456512D01*
X66731728Y-86017599D01*
X66017599Y-86731728D01*
X65660000Y-87266913D01*
X65660000Y-81520000D01*
X79757815Y-81520000D01*
X79786487Y-81811111D01*
X79871401Y-82091034D01*
X80009294Y-82349014D01*
X80194866Y-82575134D01*
X80420986Y-82760706D01*
X80678966Y-82898599D01*
X80958889Y-82983513D01*
X81177050Y-83005000D01*
X81322950Y-83005000D01*
X81541111Y-82983513D01*
X81821034Y-82898599D01*
X82079014Y-82760706D01*
X82305134Y-82575134D01*
X82490706Y-82349014D01*
X82628599Y-82091034D01*
X82693559Y-81876890D01*
X127808524Y-81876890D01*
X127853175Y-82024099D01*
X127978359Y-82286920D01*
X128152412Y-82520269D01*
X128368645Y-82715178D01*
X128618748Y-82864157D01*
X128893109Y-82961481D01*
X129123000Y-82840814D01*
X129123000Y-81647000D01*
X129377000Y-81647000D01*
X129377000Y-82840814D01*
X129606891Y-82961481D01*
X129881252Y-82864157D01*
X130131355Y-82715178D01*
X130347588Y-82520269D01*
X130521641Y-82286920D01*
X130646825Y-82024099D01*
X130691476Y-81876890D01*
X130570155Y-81647000D01*
X129377000Y-81647000D01*
X129123000Y-81647000D01*
X127929845Y-81647000D01*
X127808524Y-81876890D01*
X82693559Y-81876890D01*
X82713513Y-81811111D01*
X82742185Y-81520000D01*
X82713513Y-81228889D01*
X82628599Y-80948966D01*
X82490706Y-80690986D01*
X82305134Y-80464866D01*
X82079014Y-80279294D01*
X82014477Y-80244799D01*
X82131355Y-80175178D01*
X82347588Y-79980269D01*
X82521641Y-79746920D01*
X82646825Y-79484099D01*
X82691476Y-79336890D01*
X82570155Y-79107000D01*
X81377000Y-79107000D01*
X81377000Y-79127000D01*
X81123000Y-79127000D01*
X81123000Y-79107000D01*
X79929845Y-79107000D01*
X79808524Y-79336890D01*
X79853175Y-79484099D01*
X79978359Y-79746920D01*
X80152412Y-79980269D01*
X80368645Y-80175178D01*
X80485523Y-80244799D01*
X80420986Y-80279294D01*
X80194866Y-80464866D01*
X80009294Y-80690986D01*
X79871401Y-80948966D01*
X79786487Y-81228889D01*
X79757815Y-81520000D01*
X65660000Y-81520000D01*
X65660000Y-79878363D01*
X70765000Y-79878363D01*
X70765000Y-80121637D01*
X70812460Y-80360236D01*
X70905557Y-80584992D01*
X71040713Y-80787267D01*
X71212733Y-80959287D01*
X71415008Y-81094443D01*
X71639764Y-81187540D01*
X71878363Y-81235000D01*
X72121637Y-81235000D01*
X72360236Y-81187540D01*
X72584992Y-81094443D01*
X72787267Y-80959287D01*
X72959287Y-80787267D01*
X73094443Y-80584992D01*
X73187540Y-80360236D01*
X73235000Y-80121637D01*
X73235000Y-79878363D01*
X73187540Y-79639764D01*
X73094443Y-79415008D01*
X72959287Y-79212733D01*
X72787267Y-79040713D01*
X72584992Y-78905557D01*
X72360236Y-78812460D01*
X72121637Y-78765000D01*
X71878363Y-78765000D01*
X71639764Y-78812460D01*
X71415008Y-78905557D01*
X71212733Y-79040713D01*
X71040713Y-79212733D01*
X70905557Y-79415008D01*
X70812460Y-79639764D01*
X70765000Y-79878363D01*
X65660000Y-79878363D01*
X65660000Y-74878363D01*
X70765000Y-74878363D01*
X70765000Y-75121637D01*
X70812460Y-75360236D01*
X70905557Y-75584992D01*
X71040713Y-75787267D01*
X71212733Y-75959287D01*
X71415008Y-76094443D01*
X71639764Y-76187540D01*
X71878363Y-76235000D01*
X72121637Y-76235000D01*
X72360236Y-76187540D01*
X72584992Y-76094443D01*
X72787267Y-75959287D01*
X72959287Y-75787267D01*
X73094443Y-75584992D01*
X73187540Y-75360236D01*
X73235000Y-75121637D01*
X73235000Y-74878363D01*
X73187540Y-74639764D01*
X73094443Y-74415008D01*
X72959287Y-74212733D01*
X72787267Y-74040713D01*
X72584992Y-73905557D01*
X72360236Y-73812460D01*
X72121637Y-73765000D01*
X71878363Y-73765000D01*
X71639764Y-73812460D01*
X71415008Y-73905557D01*
X71212733Y-74040713D01*
X71040713Y-74212733D01*
X70905557Y-74415008D01*
X70812460Y-74639764D01*
X70765000Y-74878363D01*
X65660000Y-74878363D01*
X65660000Y-66905000D01*
X70557573Y-66905000D01*
X70587210Y-67205913D01*
X70674983Y-67495261D01*
X70817519Y-67761927D01*
X71009339Y-67995661D01*
X71243073Y-68187481D01*
X71509739Y-68330017D01*
X71799087Y-68417790D01*
X72024592Y-68440000D01*
X73975408Y-68440000D01*
X74200913Y-68417790D01*
X74490261Y-68330017D01*
X74756927Y-68187481D01*
X74990661Y-67995661D01*
X75182481Y-67761927D01*
X75325017Y-67495261D01*
X75412790Y-67205913D01*
X75442427Y-66905000D01*
X75412790Y-66604087D01*
X75325017Y-66314739D01*
X75306449Y-66280000D01*
X79757815Y-66280000D01*
X79786487Y-66571111D01*
X79871401Y-66851034D01*
X80009294Y-67109014D01*
X80194866Y-67335134D01*
X80420986Y-67520706D01*
X80475791Y-67550000D01*
X80420986Y-67579294D01*
X80194866Y-67764866D01*
X80009294Y-67990986D01*
X79871401Y-68248966D01*
X79786487Y-68528889D01*
X79757815Y-68820000D01*
X79786487Y-69111111D01*
X79871401Y-69391034D01*
X80009294Y-69649014D01*
X80194866Y-69875134D01*
X80420986Y-70060706D01*
X80475791Y-70090000D01*
X80420986Y-70119294D01*
X80194866Y-70304866D01*
X80009294Y-70530986D01*
X79871401Y-70788966D01*
X79786487Y-71068889D01*
X79757815Y-71360000D01*
X79786487Y-71651111D01*
X79871401Y-71931034D01*
X80009294Y-72189014D01*
X80194866Y-72415134D01*
X80420986Y-72600706D01*
X80475791Y-72630000D01*
X80420986Y-72659294D01*
X80194866Y-72844866D01*
X80009294Y-73070986D01*
X79871401Y-73328966D01*
X79786487Y-73608889D01*
X79757815Y-73900000D01*
X79786487Y-74191111D01*
X79871401Y-74471034D01*
X80009294Y-74729014D01*
X80194866Y-74955134D01*
X80420986Y-75140706D01*
X80475791Y-75170000D01*
X80420986Y-75199294D01*
X80194866Y-75384866D01*
X80009294Y-75610986D01*
X79871401Y-75868966D01*
X79786487Y-76148889D01*
X79757815Y-76440000D01*
X79786487Y-76731111D01*
X79871401Y-77011034D01*
X80009294Y-77269014D01*
X80194866Y-77495134D01*
X80420986Y-77680706D01*
X80485523Y-77715201D01*
X80368645Y-77784822D01*
X80152412Y-77979731D01*
X79978359Y-78213080D01*
X79853175Y-78475901D01*
X79808524Y-78623110D01*
X79929845Y-78853000D01*
X81123000Y-78853000D01*
X81123000Y-78833000D01*
X81377000Y-78833000D01*
X81377000Y-78853000D01*
X82570155Y-78853000D01*
X82691476Y-78623110D01*
X82646825Y-78475901D01*
X82521641Y-78213080D01*
X82347588Y-77979731D01*
X82131355Y-77784822D01*
X82014477Y-77715201D01*
X82079014Y-77680706D01*
X82305134Y-77495134D01*
X82490706Y-77269014D01*
X82628599Y-77011034D01*
X82713513Y-76731111D01*
X82742185Y-76440000D01*
X82713513Y-76148889D01*
X82628599Y-75868966D01*
X82490706Y-75610986D01*
X82305134Y-75384866D01*
X82079014Y-75199294D01*
X82024209Y-75170000D01*
X82079014Y-75140706D01*
X82305134Y-74955134D01*
X82490706Y-74729014D01*
X82628599Y-74471034D01*
X82713513Y-74191111D01*
X82742185Y-73900000D01*
X82713513Y-73608889D01*
X82628599Y-73328966D01*
X82490706Y-73070986D01*
X82305134Y-72844866D01*
X82079014Y-72659294D01*
X82024209Y-72630000D01*
X82079014Y-72600706D01*
X82305134Y-72415134D01*
X82490706Y-72189014D01*
X82545083Y-72087282D01*
X82616737Y-72065546D01*
X82748766Y-71994974D01*
X82864491Y-71900001D01*
X82888294Y-71870997D01*
X88749302Y-66009990D01*
X88811439Y-66009990D01*
X89011398Y-65970216D01*
X89199756Y-65892195D01*
X89368699Y-65779311D01*
X97358250Y-65779311D01*
X97358250Y-65983189D01*
X97398024Y-66183148D01*
X97476045Y-66371506D01*
X97589313Y-66541024D01*
X97633251Y-66584962D01*
X97633250Y-67621927D01*
X97629574Y-67659250D01*
X97633250Y-67696572D01*
X97633250Y-67696582D01*
X97644247Y-67808235D01*
X97663305Y-67871061D01*
X97687704Y-67951496D01*
X97758276Y-68083526D01*
X97798121Y-68132076D01*
X97853249Y-68199251D01*
X97882253Y-68223054D01*
X99422000Y-69762802D01*
X99422000Y-69824939D01*
X99461774Y-70024898D01*
X99539795Y-70213256D01*
X99653063Y-70382774D01*
X99797226Y-70526937D01*
X99966744Y-70640205D01*
X100155102Y-70718226D01*
X100355061Y-70758000D01*
X100558939Y-70758000D01*
X100758898Y-70718226D01*
X100947256Y-70640205D01*
X101116774Y-70526937D01*
X101260937Y-70382774D01*
X101374205Y-70213256D01*
X101452226Y-70024898D01*
X101492000Y-69824939D01*
X101492000Y-69621061D01*
X101452226Y-69421102D01*
X101374205Y-69232744D01*
X101260937Y-69063226D01*
X101116774Y-68919063D01*
X100947256Y-68805795D01*
X100758898Y-68727774D01*
X100558939Y-68688000D01*
X100496802Y-68688000D01*
X99153250Y-67344449D01*
X99153250Y-66584961D01*
X99197187Y-66541024D01*
X99310455Y-66371506D01*
X99388476Y-66183148D01*
X99428250Y-65983189D01*
X99428250Y-65779311D01*
X99388476Y-65579352D01*
X99310455Y-65390994D01*
X99197187Y-65221476D01*
X99153250Y-65177539D01*
X99153250Y-64541061D01*
X100184000Y-64541061D01*
X100184000Y-64744939D01*
X100223774Y-64944898D01*
X100301795Y-65133256D01*
X100415063Y-65302774D01*
X100559226Y-65446937D01*
X100728744Y-65560205D01*
X100917102Y-65638226D01*
X101117061Y-65678000D01*
X101320939Y-65678000D01*
X101520898Y-65638226D01*
X101709256Y-65560205D01*
X101878774Y-65446937D01*
X102022937Y-65302774D01*
X102136205Y-65133256D01*
X102214226Y-64944898D01*
X102254000Y-64744939D01*
X102254000Y-64682801D01*
X103381003Y-63555799D01*
X103410001Y-63532001D01*
X103504974Y-63416276D01*
X103575546Y-63284247D01*
X103619003Y-63140986D01*
X103630000Y-63029333D01*
X103633677Y-62992000D01*
X103630000Y-62954667D01*
X103630000Y-58861801D01*
X104073802Y-58418000D01*
X105883917Y-58418000D01*
X105837275Y-58530603D01*
X105825162Y-58591500D01*
X105625561Y-58591500D01*
X105425602Y-58631274D01*
X105237244Y-58709295D01*
X105067726Y-58822563D01*
X104923563Y-58966726D01*
X104810295Y-59136244D01*
X104732274Y-59324602D01*
X104692500Y-59524561D01*
X104692500Y-59728439D01*
X104732274Y-59928398D01*
X104810295Y-60116756D01*
X104923563Y-60286274D01*
X104967500Y-60330211D01*
X104967501Y-61238744D01*
X104877226Y-61299063D01*
X104733063Y-61443226D01*
X104619795Y-61612744D01*
X104541774Y-61801102D01*
X104502000Y-62001061D01*
X104502000Y-62204939D01*
X104541774Y-62404898D01*
X104619795Y-62593256D01*
X104733063Y-62762774D01*
X104826424Y-62856135D01*
X104817478Y-62872873D01*
X104690542Y-62999809D01*
X104577274Y-63169327D01*
X104499253Y-63357685D01*
X104459479Y-63557644D01*
X104459479Y-63761522D01*
X104499253Y-63961481D01*
X104577274Y-64149839D01*
X104690542Y-64319357D01*
X104745492Y-64374307D01*
X104788933Y-64517515D01*
X104798165Y-64534786D01*
X104859505Y-64649544D01*
X104925985Y-64730549D01*
X104954479Y-64765269D01*
X104983477Y-64789067D01*
X105793000Y-65598591D01*
X105793000Y-68025971D01*
X105714327Y-68025971D01*
X105514368Y-68065745D01*
X105326010Y-68143766D01*
X105156492Y-68257034D01*
X105112555Y-68300971D01*
X103475273Y-68300971D01*
X102317500Y-67143199D01*
X102317500Y-67081061D01*
X102277726Y-66881102D01*
X102199705Y-66692744D01*
X102086437Y-66523226D01*
X101942274Y-66379063D01*
X101772756Y-66265795D01*
X101584398Y-66187774D01*
X101384439Y-66148000D01*
X101180561Y-66148000D01*
X100980602Y-66187774D01*
X100792244Y-66265795D01*
X100622726Y-66379063D01*
X100478563Y-66523226D01*
X100365295Y-66692744D01*
X100287274Y-66881102D01*
X100247500Y-67081061D01*
X100247500Y-67284939D01*
X100287274Y-67484898D01*
X100365295Y-67673256D01*
X100478563Y-67842774D01*
X100622726Y-67986937D01*
X100792244Y-68100205D01*
X100980602Y-68178226D01*
X101180561Y-68218000D01*
X101242699Y-68218000D01*
X102596672Y-69571974D01*
X102620470Y-69600972D01*
X102649468Y-69624770D01*
X102736194Y-69695945D01*
X102828089Y-69745064D01*
X102868224Y-69766517D01*
X103011485Y-69809974D01*
X103123138Y-69820971D01*
X103123147Y-69820971D01*
X103160470Y-69824647D01*
X103197793Y-69820971D01*
X105112555Y-69820971D01*
X105156492Y-69864908D01*
X105326010Y-69978176D01*
X105514368Y-70056197D01*
X105714327Y-70095971D01*
X105793001Y-70095971D01*
X105793001Y-71717668D01*
X105789324Y-71755000D01*
X105803998Y-71903985D01*
X105847454Y-72047246D01*
X105918026Y-72179276D01*
X105989201Y-72266002D01*
X106013000Y-72295001D01*
X106041998Y-72318799D01*
X108275201Y-74552003D01*
X108298999Y-74581001D01*
X108414724Y-74675974D01*
X108546753Y-74746546D01*
X108690014Y-74790003D01*
X108801667Y-74801000D01*
X108801676Y-74801000D01*
X108838999Y-74804676D01*
X108876322Y-74801000D01*
X110929289Y-74801000D01*
X110973226Y-74844937D01*
X111142744Y-74958205D01*
X111331102Y-75036226D01*
X111531061Y-75076000D01*
X111734939Y-75076000D01*
X111934898Y-75036226D01*
X112123256Y-74958205D01*
X112292774Y-74844937D01*
X112436937Y-74700774D01*
X112550205Y-74531256D01*
X112628226Y-74342898D01*
X112668000Y-74142939D01*
X112668000Y-73939061D01*
X112628226Y-73739102D01*
X112550205Y-73550744D01*
X112436937Y-73381226D01*
X112292774Y-73237063D01*
X112123256Y-73123795D01*
X111934898Y-73045774D01*
X111734939Y-73006000D01*
X111531061Y-73006000D01*
X111331102Y-73045774D01*
X111142744Y-73123795D01*
X110973226Y-73237063D01*
X110929289Y-73281000D01*
X109153802Y-73281000D01*
X107313000Y-71440199D01*
X107313000Y-70834541D01*
X109045064Y-70834541D01*
X109055575Y-71027763D01*
X109225603Y-71098562D01*
X109406176Y-71134828D01*
X109590355Y-71135171D01*
X109771061Y-71099574D01*
X109941351Y-71029408D01*
X109944425Y-71027763D01*
X109954936Y-70834541D01*
X110545064Y-70834541D01*
X110555575Y-71027763D01*
X110725603Y-71098562D01*
X110906176Y-71134828D01*
X111090355Y-71135171D01*
X111271061Y-71099574D01*
X111441351Y-71029408D01*
X111444425Y-71027763D01*
X111454936Y-70834541D01*
X112045064Y-70834541D01*
X112055575Y-71027763D01*
X112225603Y-71098562D01*
X112406176Y-71134828D01*
X112590355Y-71135171D01*
X112771061Y-71099574D01*
X112941351Y-71029408D01*
X112944425Y-71027763D01*
X112954936Y-70834541D01*
X113545064Y-70834541D01*
X113555575Y-71027763D01*
X113725603Y-71098562D01*
X113906176Y-71134828D01*
X114090355Y-71135171D01*
X114271061Y-71099574D01*
X114441351Y-71029408D01*
X114444425Y-71027763D01*
X114454936Y-70834541D01*
X114000000Y-70379605D01*
X113545064Y-70834541D01*
X112954936Y-70834541D01*
X112500000Y-70379605D01*
X112045064Y-70834541D01*
X111454936Y-70834541D01*
X111000000Y-70379605D01*
X110545064Y-70834541D01*
X109954936Y-70834541D01*
X109500000Y-70379605D01*
X109045064Y-70834541D01*
X107313000Y-70834541D01*
X107313000Y-70290355D01*
X108564829Y-70290355D01*
X108600426Y-70471061D01*
X108670592Y-70641351D01*
X108672237Y-70644425D01*
X108865459Y-70654936D01*
X109320395Y-70200000D01*
X109679605Y-70200000D01*
X110134541Y-70654936D01*
X110250000Y-70648655D01*
X110365459Y-70654936D01*
X110820395Y-70200000D01*
X111179605Y-70200000D01*
X111634541Y-70654936D01*
X111750000Y-70648655D01*
X111865459Y-70654936D01*
X112320395Y-70200000D01*
X112679605Y-70200000D01*
X113134541Y-70654936D01*
X113250000Y-70648655D01*
X113365459Y-70654936D01*
X113820395Y-70200000D01*
X114179605Y-70200000D01*
X114634541Y-70654936D01*
X114827763Y-70644425D01*
X114898562Y-70474397D01*
X114934828Y-70293824D01*
X114935171Y-70109645D01*
X114899574Y-69928939D01*
X114829408Y-69758649D01*
X114827763Y-69755575D01*
X114634541Y-69745064D01*
X114179605Y-70200000D01*
X113820395Y-70200000D01*
X113365459Y-69745064D01*
X113250000Y-69751345D01*
X113134541Y-69745064D01*
X112679605Y-70200000D01*
X112320395Y-70200000D01*
X111865459Y-69745064D01*
X111750000Y-69751345D01*
X111634541Y-69745064D01*
X111179605Y-70200000D01*
X110820395Y-70200000D01*
X110365459Y-69745064D01*
X110250000Y-69751345D01*
X110134541Y-69745064D01*
X109679605Y-70200000D01*
X109320395Y-70200000D01*
X108865459Y-69745064D01*
X108672237Y-69755575D01*
X108601438Y-69925603D01*
X108565172Y-70106176D01*
X108564829Y-70290355D01*
X107313000Y-70290355D01*
X107313000Y-69534541D01*
X109045064Y-69534541D01*
X109045905Y-69550000D01*
X109045064Y-69565459D01*
X109046843Y-69567238D01*
X109055575Y-69727763D01*
X109225603Y-69798562D01*
X109291377Y-69811772D01*
X109500000Y-70020395D01*
X109708497Y-69811898D01*
X109771061Y-69799574D01*
X109941351Y-69729408D01*
X109944425Y-69727763D01*
X109953157Y-69567238D01*
X109954936Y-69565459D01*
X109954095Y-69550000D01*
X109954936Y-69534541D01*
X110545064Y-69534541D01*
X110545905Y-69550000D01*
X110545064Y-69565459D01*
X110546843Y-69567238D01*
X110555575Y-69727763D01*
X110725603Y-69798562D01*
X110791377Y-69811772D01*
X111000000Y-70020395D01*
X111208497Y-69811898D01*
X111271061Y-69799574D01*
X111441351Y-69729408D01*
X111444425Y-69727763D01*
X111453157Y-69567238D01*
X111454936Y-69565459D01*
X111454095Y-69550000D01*
X111454936Y-69534541D01*
X112045064Y-69534541D01*
X112045905Y-69550000D01*
X112045064Y-69565459D01*
X112046843Y-69567238D01*
X112055575Y-69727763D01*
X112225603Y-69798562D01*
X112291377Y-69811772D01*
X112500000Y-70020395D01*
X112708497Y-69811898D01*
X112771061Y-69799574D01*
X112941351Y-69729408D01*
X112944425Y-69727763D01*
X112953157Y-69567238D01*
X112954936Y-69565459D01*
X112954095Y-69550000D01*
X112954936Y-69534541D01*
X113545064Y-69534541D01*
X113545905Y-69550000D01*
X113545064Y-69565459D01*
X113546843Y-69567238D01*
X113555575Y-69727763D01*
X113725603Y-69798562D01*
X113791377Y-69811772D01*
X114000000Y-70020395D01*
X114208497Y-69811898D01*
X114271061Y-69799574D01*
X114441351Y-69729408D01*
X114444425Y-69727763D01*
X114453157Y-69567238D01*
X114454936Y-69565459D01*
X114454095Y-69550000D01*
X114454936Y-69534541D01*
X114453157Y-69532762D01*
X114444425Y-69372237D01*
X114274397Y-69301438D01*
X114208623Y-69288228D01*
X114000000Y-69079605D01*
X113791503Y-69288102D01*
X113728939Y-69300426D01*
X113558649Y-69370592D01*
X113555575Y-69372237D01*
X113546843Y-69532762D01*
X113545064Y-69534541D01*
X112954936Y-69534541D01*
X112953157Y-69532762D01*
X112944425Y-69372237D01*
X112774397Y-69301438D01*
X112708623Y-69288228D01*
X112500000Y-69079605D01*
X112291503Y-69288102D01*
X112228939Y-69300426D01*
X112058649Y-69370592D01*
X112055575Y-69372237D01*
X112046843Y-69532762D01*
X112045064Y-69534541D01*
X111454936Y-69534541D01*
X111453157Y-69532762D01*
X111444425Y-69372237D01*
X111274397Y-69301438D01*
X111208623Y-69288228D01*
X111000000Y-69079605D01*
X110791503Y-69288102D01*
X110728939Y-69300426D01*
X110558649Y-69370592D01*
X110555575Y-69372237D01*
X110546843Y-69532762D01*
X110545064Y-69534541D01*
X109954936Y-69534541D01*
X109953157Y-69532762D01*
X109944425Y-69372237D01*
X109774397Y-69301438D01*
X109708623Y-69288228D01*
X109500000Y-69079605D01*
X109291503Y-69288102D01*
X109228939Y-69300426D01*
X109058649Y-69370592D01*
X109055575Y-69372237D01*
X109046843Y-69532762D01*
X109045064Y-69534541D01*
X107313000Y-69534541D01*
X107313000Y-68990355D01*
X108564829Y-68990355D01*
X108600426Y-69171061D01*
X108670592Y-69341351D01*
X108672237Y-69344425D01*
X108865459Y-69354936D01*
X109320395Y-68900000D01*
X109679605Y-68900000D01*
X110134541Y-69354936D01*
X110250000Y-69348655D01*
X110365459Y-69354936D01*
X110820395Y-68900000D01*
X111179605Y-68900000D01*
X111634541Y-69354936D01*
X111750000Y-69348655D01*
X111865459Y-69354936D01*
X112320395Y-68900000D01*
X112679605Y-68900000D01*
X113134541Y-69354936D01*
X113250000Y-69348655D01*
X113365459Y-69354936D01*
X113820395Y-68900000D01*
X114179605Y-68900000D01*
X114634541Y-69354936D01*
X114827763Y-69344425D01*
X114898562Y-69174397D01*
X114934828Y-68993824D01*
X114935171Y-68809645D01*
X114899574Y-68628939D01*
X114829408Y-68458649D01*
X114827763Y-68455575D01*
X114634541Y-68445064D01*
X114179605Y-68900000D01*
X113820395Y-68900000D01*
X113365459Y-68445064D01*
X113250000Y-68451345D01*
X113134541Y-68445064D01*
X112679605Y-68900000D01*
X112320395Y-68900000D01*
X111865459Y-68445064D01*
X111750000Y-68451345D01*
X111634541Y-68445064D01*
X111179605Y-68900000D01*
X110820395Y-68900000D01*
X110365459Y-68445064D01*
X110250000Y-68451345D01*
X110134541Y-68445064D01*
X109679605Y-68900000D01*
X109320395Y-68900000D01*
X108865459Y-68445064D01*
X108672237Y-68455575D01*
X108601438Y-68625603D01*
X108565172Y-68806176D01*
X108564829Y-68990355D01*
X107313000Y-68990355D01*
X107313000Y-68234541D01*
X109045064Y-68234541D01*
X109045905Y-68250000D01*
X109045064Y-68265459D01*
X109046843Y-68267238D01*
X109055575Y-68427763D01*
X109225603Y-68498562D01*
X109291377Y-68511772D01*
X109500000Y-68720395D01*
X109708497Y-68511898D01*
X109771061Y-68499574D01*
X109941351Y-68429408D01*
X109944425Y-68427763D01*
X109953157Y-68267238D01*
X109954936Y-68265459D01*
X109954095Y-68250000D01*
X109954936Y-68234541D01*
X110545064Y-68234541D01*
X110545905Y-68250000D01*
X110545064Y-68265459D01*
X110546843Y-68267238D01*
X110555575Y-68427763D01*
X110725603Y-68498562D01*
X110791377Y-68511772D01*
X111000000Y-68720395D01*
X111208497Y-68511898D01*
X111271061Y-68499574D01*
X111441351Y-68429408D01*
X111444425Y-68427763D01*
X111453157Y-68267238D01*
X111454936Y-68265459D01*
X111454095Y-68250000D01*
X111454936Y-68234541D01*
X112045064Y-68234541D01*
X112045905Y-68250000D01*
X112045064Y-68265459D01*
X112046843Y-68267238D01*
X112055575Y-68427763D01*
X112225603Y-68498562D01*
X112291377Y-68511772D01*
X112500000Y-68720395D01*
X112708497Y-68511898D01*
X112771061Y-68499574D01*
X112941351Y-68429408D01*
X112944425Y-68427763D01*
X112953157Y-68267238D01*
X112954936Y-68265459D01*
X112954095Y-68250000D01*
X112954936Y-68234541D01*
X113545064Y-68234541D01*
X113545905Y-68250000D01*
X113545064Y-68265459D01*
X113546843Y-68267238D01*
X113555575Y-68427763D01*
X113725603Y-68498562D01*
X113791377Y-68511772D01*
X114000000Y-68720395D01*
X114208497Y-68511898D01*
X114271061Y-68499574D01*
X114441351Y-68429408D01*
X114444425Y-68427763D01*
X114453157Y-68267238D01*
X114454936Y-68265459D01*
X114454095Y-68250000D01*
X114454936Y-68234541D01*
X114453157Y-68232762D01*
X114444425Y-68072237D01*
X114274397Y-68001438D01*
X114208623Y-67988228D01*
X114000000Y-67779605D01*
X113791503Y-67988102D01*
X113728939Y-68000426D01*
X113558649Y-68070592D01*
X113555575Y-68072237D01*
X113546843Y-68232762D01*
X113545064Y-68234541D01*
X112954936Y-68234541D01*
X112953157Y-68232762D01*
X112944425Y-68072237D01*
X112774397Y-68001438D01*
X112708623Y-67988228D01*
X112500000Y-67779605D01*
X112291503Y-67988102D01*
X112228939Y-68000426D01*
X112058649Y-68070592D01*
X112055575Y-68072237D01*
X112046843Y-68232762D01*
X112045064Y-68234541D01*
X111454936Y-68234541D01*
X111453157Y-68232762D01*
X111444425Y-68072237D01*
X111274397Y-68001438D01*
X111208623Y-67988228D01*
X111000000Y-67779605D01*
X110791503Y-67988102D01*
X110728939Y-68000426D01*
X110558649Y-68070592D01*
X110555575Y-68072237D01*
X110546843Y-68232762D01*
X110545064Y-68234541D01*
X109954936Y-68234541D01*
X109953157Y-68232762D01*
X109944425Y-68072237D01*
X109774397Y-68001438D01*
X109708623Y-67988228D01*
X109500000Y-67779605D01*
X109291503Y-67988102D01*
X109228939Y-68000426D01*
X109058649Y-68070592D01*
X109055575Y-68072237D01*
X109046843Y-68232762D01*
X109045064Y-68234541D01*
X107313000Y-68234541D01*
X107313000Y-67690355D01*
X108564829Y-67690355D01*
X108600426Y-67871061D01*
X108670592Y-68041351D01*
X108672237Y-68044425D01*
X108865459Y-68054936D01*
X109320395Y-67600000D01*
X109679605Y-67600000D01*
X110134541Y-68054936D01*
X110250000Y-68048655D01*
X110365459Y-68054936D01*
X110820395Y-67600000D01*
X111179605Y-67600000D01*
X111634541Y-68054936D01*
X111750000Y-68048655D01*
X111865459Y-68054936D01*
X112320395Y-67600000D01*
X112679605Y-67600000D01*
X113134541Y-68054936D01*
X113250000Y-68048655D01*
X113365459Y-68054936D01*
X113820395Y-67600000D01*
X114179605Y-67600000D01*
X114634541Y-68054936D01*
X114827763Y-68044425D01*
X114898562Y-67874397D01*
X114934828Y-67693824D01*
X114935171Y-67509645D01*
X114899574Y-67328939D01*
X114829408Y-67158649D01*
X114827763Y-67155575D01*
X114634541Y-67145064D01*
X114179605Y-67600000D01*
X113820395Y-67600000D01*
X113365459Y-67145064D01*
X113250000Y-67151345D01*
X113134541Y-67145064D01*
X112679605Y-67600000D01*
X112320395Y-67600000D01*
X111865459Y-67145064D01*
X111750000Y-67151345D01*
X111634541Y-67145064D01*
X111179605Y-67600000D01*
X110820395Y-67600000D01*
X110365459Y-67145064D01*
X110250000Y-67151345D01*
X110134541Y-67145064D01*
X109679605Y-67600000D01*
X109320395Y-67600000D01*
X108865459Y-67145064D01*
X108672237Y-67155575D01*
X108601438Y-67325603D01*
X108565172Y-67506176D01*
X108564829Y-67690355D01*
X107313000Y-67690355D01*
X107313000Y-66934541D01*
X109045064Y-66934541D01*
X109045905Y-66950000D01*
X109045064Y-66965459D01*
X109046843Y-66967238D01*
X109055575Y-67127763D01*
X109225603Y-67198562D01*
X109291377Y-67211772D01*
X109500000Y-67420395D01*
X109708497Y-67211898D01*
X109771061Y-67199574D01*
X109941351Y-67129408D01*
X109944425Y-67127763D01*
X109953157Y-66967238D01*
X109954936Y-66965459D01*
X109954095Y-66950000D01*
X109954936Y-66934541D01*
X110545064Y-66934541D01*
X110545905Y-66950000D01*
X110545064Y-66965459D01*
X110546843Y-66967238D01*
X110555575Y-67127763D01*
X110725603Y-67198562D01*
X110791377Y-67211772D01*
X111000000Y-67420395D01*
X111208497Y-67211898D01*
X111271061Y-67199574D01*
X111441351Y-67129408D01*
X111444425Y-67127763D01*
X111453157Y-66967238D01*
X111454936Y-66965459D01*
X111454095Y-66950000D01*
X111454936Y-66934541D01*
X112045064Y-66934541D01*
X112045905Y-66950000D01*
X112045064Y-66965459D01*
X112046843Y-66967238D01*
X112055575Y-67127763D01*
X112225603Y-67198562D01*
X112291377Y-67211772D01*
X112500000Y-67420395D01*
X112708497Y-67211898D01*
X112771061Y-67199574D01*
X112941351Y-67129408D01*
X112944425Y-67127763D01*
X112953157Y-66967238D01*
X112954936Y-66965459D01*
X112954095Y-66950000D01*
X112954936Y-66934541D01*
X113545064Y-66934541D01*
X113545905Y-66950000D01*
X113545064Y-66965459D01*
X113546843Y-66967238D01*
X113555575Y-67127763D01*
X113725603Y-67198562D01*
X113791377Y-67211772D01*
X114000000Y-67420395D01*
X114208497Y-67211898D01*
X114271061Y-67199574D01*
X114441351Y-67129408D01*
X114444425Y-67127763D01*
X114453157Y-66967238D01*
X114454936Y-66965459D01*
X114454095Y-66950000D01*
X114454936Y-66934541D01*
X114453157Y-66932762D01*
X114444425Y-66772237D01*
X114274397Y-66701438D01*
X114208623Y-66688228D01*
X114000000Y-66479605D01*
X113791503Y-66688102D01*
X113728939Y-66700426D01*
X113558649Y-66770592D01*
X113555575Y-66772237D01*
X113546843Y-66932762D01*
X113545064Y-66934541D01*
X112954936Y-66934541D01*
X112953157Y-66932762D01*
X112944425Y-66772237D01*
X112774397Y-66701438D01*
X112708623Y-66688228D01*
X112500000Y-66479605D01*
X112291503Y-66688102D01*
X112228939Y-66700426D01*
X112058649Y-66770592D01*
X112055575Y-66772237D01*
X112046843Y-66932762D01*
X112045064Y-66934541D01*
X111454936Y-66934541D01*
X111453157Y-66932762D01*
X111444425Y-66772237D01*
X111274397Y-66701438D01*
X111208623Y-66688228D01*
X111000000Y-66479605D01*
X110791503Y-66688102D01*
X110728939Y-66700426D01*
X110558649Y-66770592D01*
X110555575Y-66772237D01*
X110546843Y-66932762D01*
X110545064Y-66934541D01*
X109954936Y-66934541D01*
X109953157Y-66932762D01*
X109944425Y-66772237D01*
X109774397Y-66701438D01*
X109708623Y-66688228D01*
X109500000Y-66479605D01*
X109291503Y-66688102D01*
X109228939Y-66700426D01*
X109058649Y-66770592D01*
X109055575Y-66772237D01*
X109046843Y-66932762D01*
X109045064Y-66934541D01*
X107313000Y-66934541D01*
X107313000Y-66390355D01*
X108564829Y-66390355D01*
X108600426Y-66571061D01*
X108670592Y-66741351D01*
X108672237Y-66744425D01*
X108865459Y-66754936D01*
X109320395Y-66300000D01*
X109679605Y-66300000D01*
X110134541Y-66754936D01*
X110250000Y-66748655D01*
X110365459Y-66754936D01*
X110820395Y-66300000D01*
X111179605Y-66300000D01*
X111634541Y-66754936D01*
X111750000Y-66748655D01*
X111865459Y-66754936D01*
X112320395Y-66300000D01*
X112679605Y-66300000D01*
X113134541Y-66754936D01*
X113250000Y-66748655D01*
X113365459Y-66754936D01*
X113820395Y-66300000D01*
X114179605Y-66300000D01*
X114634541Y-66754936D01*
X114827763Y-66744425D01*
X114898562Y-66574397D01*
X114934828Y-66393824D01*
X114935171Y-66209645D01*
X114899574Y-66028939D01*
X114829408Y-65858649D01*
X114827763Y-65855575D01*
X114634541Y-65845064D01*
X114179605Y-66300000D01*
X113820395Y-66300000D01*
X113365459Y-65845064D01*
X113250000Y-65851345D01*
X113134541Y-65845064D01*
X112679605Y-66300000D01*
X112320395Y-66300000D01*
X111865459Y-65845064D01*
X111750000Y-65851345D01*
X111634541Y-65845064D01*
X111179605Y-66300000D01*
X110820395Y-66300000D01*
X110365459Y-65845064D01*
X110250000Y-65851345D01*
X110134541Y-65845064D01*
X109679605Y-66300000D01*
X109320395Y-66300000D01*
X108865459Y-65845064D01*
X108672237Y-65855575D01*
X108601438Y-66025603D01*
X108565172Y-66206176D01*
X108564829Y-66390355D01*
X107313000Y-66390355D01*
X107313000Y-65634541D01*
X109045064Y-65634541D01*
X109045905Y-65650000D01*
X109045064Y-65665459D01*
X109046843Y-65667238D01*
X109055575Y-65827763D01*
X109225603Y-65898562D01*
X109291377Y-65911772D01*
X109500000Y-66120395D01*
X109708497Y-65911898D01*
X109771061Y-65899574D01*
X109941351Y-65829408D01*
X109944425Y-65827763D01*
X109953157Y-65667238D01*
X109954936Y-65665459D01*
X109954095Y-65650000D01*
X109954936Y-65634541D01*
X110545064Y-65634541D01*
X110545905Y-65650000D01*
X110545064Y-65665459D01*
X110546843Y-65667238D01*
X110555575Y-65827763D01*
X110725603Y-65898562D01*
X110791377Y-65911772D01*
X111000000Y-66120395D01*
X111208497Y-65911898D01*
X111271061Y-65899574D01*
X111441351Y-65829408D01*
X111444425Y-65827763D01*
X111453157Y-65667238D01*
X111454936Y-65665459D01*
X111454095Y-65650000D01*
X111454936Y-65634541D01*
X112045064Y-65634541D01*
X112045905Y-65650000D01*
X112045064Y-65665459D01*
X112046843Y-65667238D01*
X112055575Y-65827763D01*
X112225603Y-65898562D01*
X112291377Y-65911772D01*
X112500000Y-66120395D01*
X112708497Y-65911898D01*
X112771061Y-65899574D01*
X112941351Y-65829408D01*
X112944425Y-65827763D01*
X112953157Y-65667238D01*
X112954936Y-65665459D01*
X112954095Y-65650000D01*
X112954936Y-65634541D01*
X113545064Y-65634541D01*
X113545905Y-65650000D01*
X113545064Y-65665459D01*
X113546843Y-65667238D01*
X113555575Y-65827763D01*
X113725603Y-65898562D01*
X113791377Y-65911772D01*
X114000000Y-66120395D01*
X114208497Y-65911898D01*
X114271061Y-65899574D01*
X114441351Y-65829408D01*
X114444425Y-65827763D01*
X114453157Y-65667238D01*
X114454936Y-65665459D01*
X114454095Y-65650000D01*
X114454936Y-65634541D01*
X114453157Y-65632762D01*
X114444425Y-65472237D01*
X114274397Y-65401438D01*
X114208623Y-65388228D01*
X114000000Y-65179605D01*
X113791503Y-65388102D01*
X113728939Y-65400426D01*
X113558649Y-65470592D01*
X113555575Y-65472237D01*
X113546843Y-65632762D01*
X113545064Y-65634541D01*
X112954936Y-65634541D01*
X112953157Y-65632762D01*
X112944425Y-65472237D01*
X112774397Y-65401438D01*
X112708623Y-65388228D01*
X112500000Y-65179605D01*
X112291503Y-65388102D01*
X112228939Y-65400426D01*
X112058649Y-65470592D01*
X112055575Y-65472237D01*
X112046843Y-65632762D01*
X112045064Y-65634541D01*
X111454936Y-65634541D01*
X111453157Y-65632762D01*
X111444425Y-65472237D01*
X111274397Y-65401438D01*
X111208623Y-65388228D01*
X111000000Y-65179605D01*
X110791503Y-65388102D01*
X110728939Y-65400426D01*
X110558649Y-65470592D01*
X110555575Y-65472237D01*
X110546843Y-65632762D01*
X110545064Y-65634541D01*
X109954936Y-65634541D01*
X109953157Y-65632762D01*
X109944425Y-65472237D01*
X109774397Y-65401438D01*
X109708623Y-65388228D01*
X109500000Y-65179605D01*
X109291503Y-65388102D01*
X109228939Y-65400426D01*
X109058649Y-65470592D01*
X109055575Y-65472237D01*
X109046843Y-65632762D01*
X109045064Y-65634541D01*
X107313000Y-65634541D01*
X107313000Y-65321114D01*
X107316676Y-65283789D01*
X107313000Y-65246464D01*
X107313000Y-65246456D01*
X107302003Y-65134803D01*
X107288521Y-65090355D01*
X108564829Y-65090355D01*
X108600426Y-65271061D01*
X108670592Y-65441351D01*
X108672237Y-65444425D01*
X108865459Y-65454936D01*
X109320395Y-65000000D01*
X109679605Y-65000000D01*
X110134541Y-65454936D01*
X110250000Y-65448655D01*
X110365459Y-65454936D01*
X110820395Y-65000000D01*
X111179605Y-65000000D01*
X111634541Y-65454936D01*
X111750000Y-65448655D01*
X111865459Y-65454936D01*
X112320395Y-65000000D01*
X112679605Y-65000000D01*
X113134541Y-65454936D01*
X113250000Y-65448655D01*
X113365459Y-65454936D01*
X113820395Y-65000000D01*
X114179605Y-65000000D01*
X114634541Y-65454936D01*
X114827763Y-65444425D01*
X114898562Y-65274397D01*
X114934828Y-65093824D01*
X114935171Y-64909645D01*
X114899574Y-64728939D01*
X114829408Y-64558649D01*
X114827763Y-64555575D01*
X114634541Y-64545064D01*
X114179605Y-65000000D01*
X113820395Y-65000000D01*
X113365459Y-64545064D01*
X113250000Y-64551345D01*
X113134541Y-64545064D01*
X112679605Y-65000000D01*
X112320395Y-65000000D01*
X111865459Y-64545064D01*
X111750000Y-64551345D01*
X111634541Y-64545064D01*
X111179605Y-65000000D01*
X110820395Y-65000000D01*
X110365459Y-64545064D01*
X110250000Y-64551345D01*
X110134541Y-64545064D01*
X109679605Y-65000000D01*
X109320395Y-65000000D01*
X108865459Y-64545064D01*
X108672237Y-64555575D01*
X108601438Y-64725603D01*
X108565172Y-64906176D01*
X108564829Y-65090355D01*
X107288521Y-65090355D01*
X107258546Y-64991542D01*
X107187974Y-64859513D01*
X107093001Y-64743788D01*
X107064004Y-64719991D01*
X106678554Y-64334541D01*
X109045064Y-64334541D01*
X109045905Y-64350000D01*
X109045064Y-64365459D01*
X109046843Y-64367238D01*
X109055575Y-64527763D01*
X109225603Y-64598562D01*
X109291377Y-64611772D01*
X109500000Y-64820395D01*
X109708497Y-64611898D01*
X109771061Y-64599574D01*
X109941351Y-64529408D01*
X109944425Y-64527763D01*
X109953157Y-64367238D01*
X109954936Y-64365459D01*
X109954095Y-64350000D01*
X109954936Y-64334541D01*
X110545064Y-64334541D01*
X110545905Y-64350000D01*
X110545064Y-64365459D01*
X110546843Y-64367238D01*
X110555575Y-64527763D01*
X110725603Y-64598562D01*
X110791377Y-64611772D01*
X111000000Y-64820395D01*
X111208497Y-64611898D01*
X111271061Y-64599574D01*
X111441351Y-64529408D01*
X111444425Y-64527763D01*
X111453157Y-64367238D01*
X111454936Y-64365459D01*
X111454095Y-64350000D01*
X111454936Y-64334541D01*
X112045064Y-64334541D01*
X112045905Y-64350000D01*
X112045064Y-64365459D01*
X112046843Y-64367238D01*
X112055575Y-64527763D01*
X112225603Y-64598562D01*
X112291377Y-64611772D01*
X112500000Y-64820395D01*
X112708497Y-64611898D01*
X112771061Y-64599574D01*
X112941351Y-64529408D01*
X112944425Y-64527763D01*
X112953157Y-64367238D01*
X112954936Y-64365459D01*
X112954095Y-64350000D01*
X112954936Y-64334541D01*
X113545064Y-64334541D01*
X113545905Y-64350000D01*
X113545064Y-64365459D01*
X113546843Y-64367238D01*
X113555575Y-64527763D01*
X113725603Y-64598562D01*
X113791377Y-64611772D01*
X114000000Y-64820395D01*
X114208497Y-64611898D01*
X114271061Y-64599574D01*
X114441351Y-64529408D01*
X114444425Y-64527763D01*
X114453157Y-64367238D01*
X114454936Y-64365459D01*
X114454095Y-64350000D01*
X114454936Y-64334541D01*
X114453157Y-64332762D01*
X114444425Y-64172237D01*
X114274397Y-64101438D01*
X114208623Y-64088228D01*
X114000000Y-63879605D01*
X113791503Y-64088102D01*
X113728939Y-64100426D01*
X113558649Y-64170592D01*
X113555575Y-64172237D01*
X113546843Y-64332762D01*
X113545064Y-64334541D01*
X112954936Y-64334541D01*
X112953157Y-64332762D01*
X112944425Y-64172237D01*
X112774397Y-64101438D01*
X112708623Y-64088228D01*
X112500000Y-63879605D01*
X112291503Y-64088102D01*
X112228939Y-64100426D01*
X112058649Y-64170592D01*
X112055575Y-64172237D01*
X112046843Y-64332762D01*
X112045064Y-64334541D01*
X111454936Y-64334541D01*
X111453157Y-64332762D01*
X111444425Y-64172237D01*
X111274397Y-64101438D01*
X111208623Y-64088228D01*
X111000000Y-63879605D01*
X110791503Y-64088102D01*
X110728939Y-64100426D01*
X110558649Y-64170592D01*
X110555575Y-64172237D01*
X110546843Y-64332762D01*
X110545064Y-64334541D01*
X109954936Y-64334541D01*
X109953157Y-64332762D01*
X109944425Y-64172237D01*
X109774397Y-64101438D01*
X109708623Y-64088228D01*
X109500000Y-63879605D01*
X109291503Y-64088102D01*
X109228939Y-64100426D01*
X109058649Y-64170592D01*
X109055575Y-64172237D01*
X109046843Y-64332762D01*
X109045064Y-64334541D01*
X106678554Y-64334541D01*
X106435750Y-64091738D01*
X106489705Y-63961481D01*
X106523743Y-63790355D01*
X108564829Y-63790355D01*
X108600426Y-63971061D01*
X108670592Y-64141351D01*
X108672237Y-64144425D01*
X108865459Y-64154936D01*
X109320395Y-63700000D01*
X109679605Y-63700000D01*
X110134541Y-64154936D01*
X110250000Y-64148655D01*
X110365459Y-64154936D01*
X110820395Y-63700000D01*
X111179605Y-63700000D01*
X111634541Y-64154936D01*
X111750000Y-64148655D01*
X111865459Y-64154936D01*
X112320395Y-63700000D01*
X112679605Y-63700000D01*
X113134541Y-64154936D01*
X113250000Y-64148655D01*
X113365459Y-64154936D01*
X113820395Y-63700000D01*
X114179605Y-63700000D01*
X114634541Y-64154936D01*
X114827763Y-64144425D01*
X114898562Y-63974397D01*
X114934828Y-63793824D01*
X114935171Y-63609645D01*
X114899574Y-63428939D01*
X114829408Y-63258649D01*
X114827763Y-63255575D01*
X114634541Y-63245064D01*
X114179605Y-63700000D01*
X113820395Y-63700000D01*
X113365459Y-63245064D01*
X113250000Y-63251345D01*
X113134541Y-63245064D01*
X112679605Y-63700000D01*
X112320395Y-63700000D01*
X111865459Y-63245064D01*
X111750000Y-63251345D01*
X111634541Y-63245064D01*
X111179605Y-63700000D01*
X110820395Y-63700000D01*
X110365459Y-63245064D01*
X110250000Y-63251345D01*
X110134541Y-63245064D01*
X109679605Y-63700000D01*
X109320395Y-63700000D01*
X108865459Y-63245064D01*
X108672237Y-63255575D01*
X108601438Y-63425603D01*
X108565172Y-63606176D01*
X108564829Y-63790355D01*
X106523743Y-63790355D01*
X106529479Y-63761522D01*
X106529479Y-63557644D01*
X106489705Y-63357685D01*
X106472252Y-63315551D01*
X106753262Y-63034541D01*
X109045064Y-63034541D01*
X109045905Y-63050000D01*
X109045064Y-63065459D01*
X109046843Y-63067238D01*
X109055575Y-63227763D01*
X109225603Y-63298562D01*
X109291377Y-63311772D01*
X109500000Y-63520395D01*
X109708497Y-63311898D01*
X109771061Y-63299574D01*
X109941351Y-63229408D01*
X109944425Y-63227763D01*
X109953157Y-63067238D01*
X109954936Y-63065459D01*
X109954095Y-63050000D01*
X109954936Y-63034541D01*
X110545064Y-63034541D01*
X110545905Y-63050000D01*
X110545064Y-63065459D01*
X110546843Y-63067238D01*
X110555575Y-63227763D01*
X110725603Y-63298562D01*
X110791377Y-63311772D01*
X111000000Y-63520395D01*
X111208497Y-63311898D01*
X111271061Y-63299574D01*
X111441351Y-63229408D01*
X111444425Y-63227763D01*
X111453157Y-63067238D01*
X111454936Y-63065459D01*
X111454095Y-63050000D01*
X111454936Y-63034541D01*
X112045064Y-63034541D01*
X112045905Y-63050000D01*
X112045064Y-63065459D01*
X112046843Y-63067238D01*
X112055575Y-63227763D01*
X112225603Y-63298562D01*
X112291377Y-63311772D01*
X112500000Y-63520395D01*
X112708497Y-63311898D01*
X112771061Y-63299574D01*
X112941351Y-63229408D01*
X112944425Y-63227763D01*
X112953157Y-63067238D01*
X112954936Y-63065459D01*
X112954095Y-63050000D01*
X112954936Y-63034541D01*
X113545064Y-63034541D01*
X113545905Y-63050000D01*
X113545064Y-63065459D01*
X113546843Y-63067238D01*
X113555575Y-63227763D01*
X113725603Y-63298562D01*
X113791377Y-63311772D01*
X114000000Y-63520395D01*
X114208497Y-63311898D01*
X114271061Y-63299574D01*
X114441351Y-63229408D01*
X114444425Y-63227763D01*
X114453157Y-63067238D01*
X114454936Y-63065459D01*
X114454095Y-63050000D01*
X114454936Y-63034541D01*
X114453157Y-63032762D01*
X114444425Y-62872237D01*
X114274397Y-62801438D01*
X114208623Y-62788228D01*
X114000000Y-62579605D01*
X113791503Y-62788102D01*
X113728939Y-62800426D01*
X113558649Y-62870592D01*
X113555575Y-62872237D01*
X113546843Y-63032762D01*
X113545064Y-63034541D01*
X112954936Y-63034541D01*
X112953157Y-63032762D01*
X112944425Y-62872237D01*
X112774397Y-62801438D01*
X112708623Y-62788228D01*
X112500000Y-62579605D01*
X112291503Y-62788102D01*
X112228939Y-62800426D01*
X112058649Y-62870592D01*
X112055575Y-62872237D01*
X112046843Y-63032762D01*
X112045064Y-63034541D01*
X111454936Y-63034541D01*
X111453157Y-63032762D01*
X111444425Y-62872237D01*
X111274397Y-62801438D01*
X111208623Y-62788228D01*
X111000000Y-62579605D01*
X110791503Y-62788102D01*
X110728939Y-62800426D01*
X110558649Y-62870592D01*
X110555575Y-62872237D01*
X110546843Y-63032762D01*
X110545064Y-63034541D01*
X109954936Y-63034541D01*
X109953157Y-63032762D01*
X109944425Y-62872237D01*
X109774397Y-62801438D01*
X109708623Y-62788228D01*
X109500000Y-62579605D01*
X109291503Y-62788102D01*
X109228939Y-62800426D01*
X109058649Y-62870592D01*
X109055575Y-62872237D01*
X109046843Y-63032762D01*
X109045064Y-63034541D01*
X106753262Y-63034541D01*
X106963505Y-62824299D01*
X106992502Y-62800502D01*
X107087475Y-62684777D01*
X107158047Y-62552748D01*
X107176973Y-62490355D01*
X108564829Y-62490355D01*
X108600426Y-62671061D01*
X108670592Y-62841351D01*
X108672237Y-62844425D01*
X108865459Y-62854936D01*
X109320395Y-62400000D01*
X109679605Y-62400000D01*
X110134541Y-62854936D01*
X110250000Y-62848655D01*
X110365459Y-62854936D01*
X110820395Y-62400000D01*
X111179605Y-62400000D01*
X111634541Y-62854936D01*
X111750000Y-62848655D01*
X111865459Y-62854936D01*
X112320395Y-62400000D01*
X112679605Y-62400000D01*
X113134541Y-62854936D01*
X113250000Y-62848655D01*
X113365459Y-62854936D01*
X113820395Y-62400000D01*
X114179605Y-62400000D01*
X114634541Y-62854936D01*
X114827763Y-62844425D01*
X114898562Y-62674397D01*
X114934828Y-62493824D01*
X114935171Y-62309645D01*
X114899574Y-62128939D01*
X114829408Y-61958649D01*
X114827763Y-61955575D01*
X114634541Y-61945064D01*
X114179605Y-62400000D01*
X113820395Y-62400000D01*
X113365459Y-61945064D01*
X113250000Y-61951345D01*
X113134541Y-61945064D01*
X112679605Y-62400000D01*
X112320395Y-62400000D01*
X111865459Y-61945064D01*
X111750000Y-61951345D01*
X111634541Y-61945064D01*
X111179605Y-62400000D01*
X110820395Y-62400000D01*
X110365459Y-61945064D01*
X110250000Y-61951345D01*
X110134541Y-61945064D01*
X109679605Y-62400000D01*
X109320395Y-62400000D01*
X108865459Y-61945064D01*
X108672237Y-61955575D01*
X108601438Y-62125603D01*
X108565172Y-62306176D01*
X108564829Y-62490355D01*
X107176973Y-62490355D01*
X107201504Y-62409487D01*
X107212501Y-62297834D01*
X107212501Y-62297826D01*
X107216177Y-62260501D01*
X107212501Y-62223176D01*
X107212501Y-61734541D01*
X109045064Y-61734541D01*
X109045905Y-61750000D01*
X109045064Y-61765459D01*
X109046843Y-61767238D01*
X109055575Y-61927763D01*
X109225603Y-61998562D01*
X109291377Y-62011772D01*
X109500000Y-62220395D01*
X109708497Y-62011898D01*
X109771061Y-61999574D01*
X109941351Y-61929408D01*
X109944425Y-61927763D01*
X109953157Y-61767238D01*
X109954936Y-61765459D01*
X109954095Y-61750000D01*
X109954936Y-61734541D01*
X110545064Y-61734541D01*
X110545905Y-61750000D01*
X110545064Y-61765459D01*
X110546843Y-61767238D01*
X110555575Y-61927763D01*
X110725603Y-61998562D01*
X110791377Y-62011772D01*
X111000000Y-62220395D01*
X111208497Y-62011898D01*
X111271061Y-61999574D01*
X111441351Y-61929408D01*
X111444425Y-61927763D01*
X111453157Y-61767238D01*
X111454936Y-61765459D01*
X111454095Y-61750000D01*
X111454936Y-61734541D01*
X112045064Y-61734541D01*
X112045905Y-61750000D01*
X112045064Y-61765459D01*
X112046843Y-61767238D01*
X112055575Y-61927763D01*
X112225603Y-61998562D01*
X112291377Y-62011772D01*
X112500000Y-62220395D01*
X112708497Y-62011898D01*
X112771061Y-61999574D01*
X112941351Y-61929408D01*
X112944425Y-61927763D01*
X112953157Y-61767238D01*
X112954936Y-61765459D01*
X112954095Y-61750000D01*
X112954936Y-61734541D01*
X113545064Y-61734541D01*
X113545905Y-61750000D01*
X113545064Y-61765459D01*
X113546843Y-61767238D01*
X113555575Y-61927763D01*
X113725603Y-61998562D01*
X113791377Y-62011772D01*
X114000000Y-62220395D01*
X114208497Y-62011898D01*
X114271061Y-61999574D01*
X114441351Y-61929408D01*
X114444425Y-61927763D01*
X114453157Y-61767238D01*
X114454936Y-61765459D01*
X114454095Y-61750000D01*
X114454936Y-61734541D01*
X114453157Y-61732762D01*
X114444425Y-61572237D01*
X114274397Y-61501438D01*
X114208623Y-61488228D01*
X114000000Y-61279605D01*
X113791503Y-61488102D01*
X113728939Y-61500426D01*
X113558649Y-61570592D01*
X113555575Y-61572237D01*
X113546843Y-61732762D01*
X113545064Y-61734541D01*
X112954936Y-61734541D01*
X112953157Y-61732762D01*
X112944425Y-61572237D01*
X112774397Y-61501438D01*
X112708623Y-61488228D01*
X112500000Y-61279605D01*
X112291503Y-61488102D01*
X112228939Y-61500426D01*
X112058649Y-61570592D01*
X112055575Y-61572237D01*
X112046843Y-61732762D01*
X112045064Y-61734541D01*
X111454936Y-61734541D01*
X111453157Y-61732762D01*
X111444425Y-61572237D01*
X111274397Y-61501438D01*
X111208623Y-61488228D01*
X111000000Y-61279605D01*
X110791503Y-61488102D01*
X110728939Y-61500426D01*
X110558649Y-61570592D01*
X110555575Y-61572237D01*
X110546843Y-61732762D01*
X110545064Y-61734541D01*
X109954936Y-61734541D01*
X109953157Y-61732762D01*
X109944425Y-61572237D01*
X109774397Y-61501438D01*
X109708623Y-61488228D01*
X109500000Y-61279605D01*
X109291503Y-61488102D01*
X109228939Y-61500426D01*
X109058649Y-61570592D01*
X109055575Y-61572237D01*
X109046843Y-61732762D01*
X109045064Y-61734541D01*
X107212501Y-61734541D01*
X107212501Y-61190355D01*
X108564829Y-61190355D01*
X108600426Y-61371061D01*
X108670592Y-61541351D01*
X108672237Y-61544425D01*
X108865459Y-61554936D01*
X109320395Y-61100000D01*
X109679605Y-61100000D01*
X110134541Y-61554936D01*
X110250000Y-61548655D01*
X110365459Y-61554936D01*
X110820395Y-61100000D01*
X111179605Y-61100000D01*
X111634541Y-61554936D01*
X111750000Y-61548655D01*
X111865459Y-61554936D01*
X112320395Y-61100000D01*
X112679605Y-61100000D01*
X113134541Y-61554936D01*
X113250000Y-61548655D01*
X113365459Y-61554936D01*
X113820395Y-61100000D01*
X114179605Y-61100000D01*
X114634541Y-61554936D01*
X114827763Y-61544425D01*
X114898562Y-61374397D01*
X114934828Y-61193824D01*
X114935171Y-61009645D01*
X114899574Y-60828939D01*
X114829408Y-60658649D01*
X114827763Y-60655575D01*
X114634541Y-60645064D01*
X114179605Y-61100000D01*
X113820395Y-61100000D01*
X113365459Y-60645064D01*
X113250000Y-60651345D01*
X113134541Y-60645064D01*
X112679605Y-61100000D01*
X112320395Y-61100000D01*
X111865459Y-60645064D01*
X111750000Y-60651345D01*
X111634541Y-60645064D01*
X111179605Y-61100000D01*
X110820395Y-61100000D01*
X110365459Y-60645064D01*
X110250000Y-60651345D01*
X110134541Y-60645064D01*
X109679605Y-61100000D01*
X109320395Y-61100000D01*
X108865459Y-60645064D01*
X108672237Y-60655575D01*
X108601438Y-60825603D01*
X108565172Y-61006176D01*
X108564829Y-61190355D01*
X107212501Y-61190355D01*
X107212501Y-60434541D01*
X109045064Y-60434541D01*
X109045905Y-60450000D01*
X109045064Y-60465459D01*
X109046843Y-60467238D01*
X109055575Y-60627763D01*
X109225603Y-60698562D01*
X109291377Y-60711772D01*
X109500000Y-60920395D01*
X109708497Y-60711898D01*
X109771061Y-60699574D01*
X109941351Y-60629408D01*
X109944425Y-60627763D01*
X109953157Y-60467238D01*
X109954936Y-60465459D01*
X109954095Y-60450000D01*
X109954936Y-60434541D01*
X110545064Y-60434541D01*
X110545905Y-60450000D01*
X110545064Y-60465459D01*
X110546843Y-60467238D01*
X110555575Y-60627763D01*
X110725603Y-60698562D01*
X110791377Y-60711772D01*
X111000000Y-60920395D01*
X111208497Y-60711898D01*
X111271061Y-60699574D01*
X111441351Y-60629408D01*
X111444425Y-60627763D01*
X111453157Y-60467238D01*
X111454936Y-60465459D01*
X111454095Y-60450000D01*
X111454936Y-60434541D01*
X112045064Y-60434541D01*
X112045905Y-60450000D01*
X112045064Y-60465459D01*
X112046843Y-60467238D01*
X112055575Y-60627763D01*
X112225603Y-60698562D01*
X112291377Y-60711772D01*
X112500000Y-60920395D01*
X112708497Y-60711898D01*
X112771061Y-60699574D01*
X112941351Y-60629408D01*
X112944425Y-60627763D01*
X112953157Y-60467238D01*
X112954936Y-60465459D01*
X112954095Y-60450000D01*
X112954936Y-60434541D01*
X113545064Y-60434541D01*
X113545905Y-60450000D01*
X113545064Y-60465459D01*
X113546843Y-60467238D01*
X113555575Y-60627763D01*
X113725603Y-60698562D01*
X113791377Y-60711772D01*
X114000000Y-60920395D01*
X114208497Y-60711898D01*
X114271061Y-60699574D01*
X114441351Y-60629408D01*
X114444425Y-60627763D01*
X114453157Y-60467238D01*
X114454936Y-60465459D01*
X114454095Y-60450000D01*
X114454936Y-60434541D01*
X114453157Y-60432762D01*
X114444425Y-60272237D01*
X114274397Y-60201438D01*
X114208623Y-60188228D01*
X114000000Y-59979605D01*
X113791503Y-60188102D01*
X113728939Y-60200426D01*
X113558649Y-60270592D01*
X113555575Y-60272237D01*
X113546843Y-60432762D01*
X113545064Y-60434541D01*
X112954936Y-60434541D01*
X112953157Y-60432762D01*
X112944425Y-60272237D01*
X112774397Y-60201438D01*
X112708623Y-60188228D01*
X112500000Y-59979605D01*
X112291503Y-60188102D01*
X112228939Y-60200426D01*
X112058649Y-60270592D01*
X112055575Y-60272237D01*
X112046843Y-60432762D01*
X112045064Y-60434541D01*
X111454936Y-60434541D01*
X111453157Y-60432762D01*
X111444425Y-60272237D01*
X111274397Y-60201438D01*
X111208623Y-60188228D01*
X111000000Y-59979605D01*
X110791503Y-60188102D01*
X110728939Y-60200426D01*
X110558649Y-60270592D01*
X110555575Y-60272237D01*
X110546843Y-60432762D01*
X110545064Y-60434541D01*
X109954936Y-60434541D01*
X109953157Y-60432762D01*
X109944425Y-60272237D01*
X109774397Y-60201438D01*
X109708623Y-60188228D01*
X109500000Y-59979605D01*
X109291503Y-60188102D01*
X109228939Y-60200426D01*
X109058649Y-60270592D01*
X109055575Y-60272237D01*
X109046843Y-60432762D01*
X109045064Y-60434541D01*
X107212501Y-60434541D01*
X107212501Y-59890355D01*
X108564829Y-59890355D01*
X108600426Y-60071061D01*
X108670592Y-60241351D01*
X108672237Y-60244425D01*
X108865459Y-60254936D01*
X109320395Y-59800000D01*
X109679605Y-59800000D01*
X110134541Y-60254936D01*
X110250000Y-60248655D01*
X110365459Y-60254936D01*
X110820395Y-59800000D01*
X111179605Y-59800000D01*
X111634541Y-60254936D01*
X111750000Y-60248655D01*
X111865459Y-60254936D01*
X112320395Y-59800000D01*
X112679605Y-59800000D01*
X113134541Y-60254936D01*
X113250000Y-60248655D01*
X113365459Y-60254936D01*
X113820395Y-59800000D01*
X114179605Y-59800000D01*
X114634541Y-60254936D01*
X114827763Y-60244425D01*
X114898562Y-60074397D01*
X114934828Y-59893824D01*
X114935171Y-59709645D01*
X114899574Y-59528939D01*
X114829408Y-59358649D01*
X114827763Y-59355575D01*
X114634541Y-59345064D01*
X114179605Y-59800000D01*
X113820395Y-59800000D01*
X113365459Y-59345064D01*
X113250000Y-59351345D01*
X113134541Y-59345064D01*
X112679605Y-59800000D01*
X112320395Y-59800000D01*
X111865459Y-59345064D01*
X111750000Y-59351345D01*
X111634541Y-59345064D01*
X111179605Y-59800000D01*
X110820395Y-59800000D01*
X110365459Y-59345064D01*
X110250000Y-59351345D01*
X110134541Y-59345064D01*
X109679605Y-59800000D01*
X109320395Y-59800000D01*
X108865459Y-59345064D01*
X108672237Y-59355575D01*
X108601438Y-59525603D01*
X108565172Y-59706176D01*
X108564829Y-59890355D01*
X107212501Y-59890355D01*
X107212501Y-59795376D01*
X107322757Y-59749706D01*
X107492275Y-59636438D01*
X107636438Y-59492275D01*
X107749706Y-59322757D01*
X107814861Y-59165459D01*
X109045064Y-59165459D01*
X109500000Y-59620395D01*
X109954936Y-59165459D01*
X110545064Y-59165459D01*
X111000000Y-59620395D01*
X111454936Y-59165459D01*
X112045064Y-59165459D01*
X112500000Y-59620395D01*
X112954936Y-59165459D01*
X113545064Y-59165459D01*
X114000000Y-59620395D01*
X114454936Y-59165459D01*
X114444425Y-58972237D01*
X114274397Y-58901438D01*
X114093824Y-58865172D01*
X113909645Y-58864829D01*
X113728939Y-58900426D01*
X113558649Y-58970592D01*
X113555575Y-58972237D01*
X113545064Y-59165459D01*
X112954936Y-59165459D01*
X112944425Y-58972237D01*
X112774397Y-58901438D01*
X112593824Y-58865172D01*
X112409645Y-58864829D01*
X112228939Y-58900426D01*
X112058649Y-58970592D01*
X112055575Y-58972237D01*
X112045064Y-59165459D01*
X111454936Y-59165459D01*
X111444425Y-58972237D01*
X111274397Y-58901438D01*
X111093824Y-58865172D01*
X110909645Y-58864829D01*
X110728939Y-58900426D01*
X110558649Y-58970592D01*
X110555575Y-58972237D01*
X110545064Y-59165459D01*
X109954936Y-59165459D01*
X109944425Y-58972237D01*
X109774397Y-58901438D01*
X109593824Y-58865172D01*
X109409645Y-58864829D01*
X109228939Y-58900426D01*
X109058649Y-58970592D01*
X109055575Y-58972237D01*
X109045064Y-59165459D01*
X107814861Y-59165459D01*
X107827727Y-59134399D01*
X107867501Y-58934440D01*
X107867501Y-58730562D01*
X107827727Y-58530603D01*
X107749706Y-58342245D01*
X107735190Y-58320521D01*
X107737937Y-58317774D01*
X107851205Y-58148256D01*
X107929226Y-57959898D01*
X107969000Y-57759939D01*
X107969000Y-57556061D01*
X107929226Y-57356102D01*
X107851205Y-57167744D01*
X107737937Y-56998226D01*
X107593774Y-56854063D01*
X107424256Y-56740795D01*
X107235898Y-56662774D01*
X107035939Y-56623000D01*
X106832061Y-56623000D01*
X106632102Y-56662774D01*
X106443744Y-56740795D01*
X106274226Y-56854063D01*
X106230289Y-56898000D01*
X103796323Y-56898000D01*
X103759000Y-56894324D01*
X103721677Y-56898000D01*
X103721667Y-56898000D01*
X103610014Y-56908997D01*
X103466753Y-56952454D01*
X103334724Y-57023026D01*
X103218999Y-57117999D01*
X103195201Y-57146997D01*
X102359002Y-57983197D01*
X102329999Y-58006999D01*
X102279260Y-58068825D01*
X102235026Y-58122724D01*
X102164455Y-58254753D01*
X102164454Y-58254754D01*
X102120997Y-58398015D01*
X102110000Y-58509668D01*
X102110000Y-58509678D01*
X102106324Y-58547000D01*
X102110000Y-58584323D01*
X102110001Y-62677197D01*
X101179199Y-63608000D01*
X101117061Y-63608000D01*
X100917102Y-63647774D01*
X100728744Y-63725795D01*
X100559226Y-63839063D01*
X100415063Y-63983226D01*
X100301795Y-64152744D01*
X100223774Y-64341102D01*
X100184000Y-64541061D01*
X99153250Y-64541061D01*
X99153250Y-64481551D01*
X100496802Y-63138000D01*
X100558939Y-63138000D01*
X100758898Y-63098226D01*
X100947256Y-63020205D01*
X101116774Y-62906937D01*
X101260937Y-62762774D01*
X101374205Y-62593256D01*
X101452226Y-62404898D01*
X101492000Y-62204939D01*
X101492000Y-62001061D01*
X101452226Y-61801102D01*
X101374205Y-61612744D01*
X101260937Y-61443226D01*
X101217000Y-61399289D01*
X101217000Y-60266711D01*
X101260937Y-60222774D01*
X101374205Y-60053256D01*
X101452226Y-59864898D01*
X101492000Y-59664939D01*
X101492000Y-59461061D01*
X101452226Y-59261102D01*
X101374205Y-59072744D01*
X101260937Y-58903226D01*
X101116774Y-58759063D01*
X100947256Y-58645795D01*
X100758898Y-58567774D01*
X100558939Y-58528000D01*
X100355061Y-58528000D01*
X100155102Y-58567774D01*
X99966744Y-58645795D01*
X99797226Y-58759063D01*
X99653063Y-58903226D01*
X99539795Y-59072744D01*
X99461774Y-59261102D01*
X99422000Y-59461061D01*
X99422000Y-59664939D01*
X99461774Y-59864898D01*
X99539795Y-60053256D01*
X99653063Y-60222774D01*
X99697001Y-60266712D01*
X99697000Y-61399289D01*
X99653063Y-61443226D01*
X99539795Y-61612744D01*
X99461774Y-61801102D01*
X99422000Y-62001061D01*
X99422000Y-62063198D01*
X97882248Y-63602951D01*
X97853250Y-63626749D01*
X97829452Y-63655747D01*
X97829451Y-63655748D01*
X97758276Y-63742474D01*
X97687704Y-63874504D01*
X97664219Y-63951927D01*
X97644248Y-64017764D01*
X97639579Y-64065172D01*
X97629574Y-64166750D01*
X97633251Y-64204082D01*
X97633250Y-65177539D01*
X97589313Y-65221476D01*
X97476045Y-65390994D01*
X97398024Y-65579352D01*
X97358250Y-65779311D01*
X89368699Y-65779311D01*
X89369274Y-65778927D01*
X89513437Y-65634764D01*
X89626705Y-65465246D01*
X89704726Y-65276888D01*
X89744500Y-65076929D01*
X89744500Y-64873051D01*
X89704726Y-64673092D01*
X89626705Y-64484734D01*
X89513437Y-64315216D01*
X89369274Y-64171053D01*
X89199756Y-64057785D01*
X89011398Y-63979764D01*
X88811439Y-63939990D01*
X88607561Y-63939990D01*
X88407602Y-63979764D01*
X88219244Y-64057785D01*
X88169750Y-64090856D01*
X88120256Y-64057785D01*
X87931898Y-63979764D01*
X87797887Y-63953108D01*
X94797598Y-56953398D01*
X94797599Y-62510322D01*
X93975453Y-63332469D01*
X93925457Y-63382465D01*
X93868602Y-63393774D01*
X93680244Y-63471795D01*
X93510726Y-63585063D01*
X93366563Y-63729226D01*
X93253295Y-63898744D01*
X93175274Y-64087102D01*
X93135500Y-64287061D01*
X93135500Y-64490939D01*
X93175274Y-64690898D01*
X93253295Y-64879256D01*
X93366563Y-65048774D01*
X93510726Y-65192937D01*
X93680244Y-65306205D01*
X93868602Y-65384226D01*
X94068561Y-65424000D01*
X94272439Y-65424000D01*
X94472398Y-65384226D01*
X94660756Y-65306205D01*
X94830274Y-65192937D01*
X94974437Y-65048774D01*
X95087705Y-64879256D01*
X95165726Y-64690898D01*
X95177035Y-64634043D01*
X95227031Y-64584047D01*
X96277647Y-63533432D01*
X96311415Y-63505719D01*
X96347630Y-63461592D01*
X96422008Y-63370962D01*
X96422009Y-63370961D01*
X96504187Y-63217215D01*
X96554793Y-63050392D01*
X96567598Y-62920379D01*
X96567598Y-62920369D01*
X96571879Y-62876903D01*
X96567598Y-62833437D01*
X96567598Y-54852748D01*
X96571879Y-54809282D01*
X96567598Y-54765816D01*
X96567598Y-54765806D01*
X96554793Y-54635793D01*
X96508695Y-54483830D01*
X96540170Y-54407842D01*
X96579944Y-54207883D01*
X96579944Y-54004005D01*
X96540170Y-53804046D01*
X96462149Y-53615688D01*
X96348881Y-53446170D01*
X96204718Y-53302007D01*
X96035200Y-53188739D01*
X95846842Y-53110718D01*
X95646883Y-53070944D01*
X95443005Y-53070944D01*
X95243046Y-53110718D01*
X95054688Y-53188739D01*
X94885170Y-53302007D01*
X94741007Y-53446170D01*
X94627739Y-53615688D01*
X94549718Y-53804046D01*
X94509944Y-54004005D01*
X94509944Y-54207883D01*
X94549718Y-54407842D01*
X94627739Y-54596200D01*
X94658550Y-54642312D01*
X94655663Y-54671629D01*
X94659944Y-54715098D01*
X94659944Y-54715106D01*
X94670334Y-54820596D01*
X94530699Y-54848371D01*
X94342341Y-54926392D01*
X94172823Y-55039660D01*
X94028660Y-55183823D01*
X93915392Y-55353341D01*
X93837371Y-55541699D01*
X93797597Y-55741658D01*
X93797597Y-55803795D01*
X84081393Y-65520000D01*
X82527595Y-65520000D01*
X82490706Y-65450986D01*
X82305134Y-65224866D01*
X82079014Y-65039294D01*
X82014477Y-65004799D01*
X82131355Y-64935178D01*
X82347588Y-64740269D01*
X82521641Y-64506920D01*
X82646825Y-64244099D01*
X82691476Y-64096890D01*
X82570155Y-63867000D01*
X81377000Y-63867000D01*
X81377000Y-63887000D01*
X81123000Y-63887000D01*
X81123000Y-63867000D01*
X79929845Y-63867000D01*
X79808524Y-64096890D01*
X79853175Y-64244099D01*
X79978359Y-64506920D01*
X80152412Y-64740269D01*
X80368645Y-64935178D01*
X80485523Y-65004799D01*
X80420986Y-65039294D01*
X80194866Y-65224866D01*
X80009294Y-65450986D01*
X79871401Y-65708966D01*
X79786487Y-65988889D01*
X79757815Y-66280000D01*
X75306449Y-66280000D01*
X75182481Y-66048073D01*
X74990661Y-65814339D01*
X74756927Y-65622519D01*
X74490261Y-65479983D01*
X74200913Y-65392210D01*
X73975408Y-65370000D01*
X72024592Y-65370000D01*
X71799087Y-65392210D01*
X71509739Y-65479983D01*
X71243073Y-65622519D01*
X71009339Y-65814339D01*
X70817519Y-66048073D01*
X70674983Y-66314739D01*
X70587210Y-66604087D01*
X70557573Y-66905000D01*
X65660000Y-66905000D01*
X65660000Y-63995000D01*
X70561928Y-63995000D01*
X70574188Y-64119482D01*
X70610498Y-64239180D01*
X70669463Y-64349494D01*
X70748815Y-64446185D01*
X70845506Y-64525537D01*
X70955820Y-64584502D01*
X71075518Y-64620812D01*
X71200000Y-64633072D01*
X72714250Y-64630000D01*
X72873000Y-64471250D01*
X72873000Y-63222000D01*
X73127000Y-63222000D01*
X73127000Y-64471250D01*
X73285750Y-64630000D01*
X74800000Y-64633072D01*
X74924482Y-64620812D01*
X75044180Y-64584502D01*
X75154494Y-64525537D01*
X75251185Y-64446185D01*
X75330537Y-64349494D01*
X75389502Y-64239180D01*
X75425812Y-64119482D01*
X75438072Y-63995000D01*
X75435000Y-63380750D01*
X75276250Y-63222000D01*
X73127000Y-63222000D01*
X72873000Y-63222000D01*
X70723750Y-63222000D01*
X70565000Y-63380750D01*
X70561928Y-63995000D01*
X65660000Y-63995000D01*
X65660000Y-62195000D01*
X70561928Y-62195000D01*
X70565000Y-62809250D01*
X70723750Y-62968000D01*
X72873000Y-62968000D01*
X72873000Y-61718750D01*
X73127000Y-61718750D01*
X73127000Y-62968000D01*
X75276250Y-62968000D01*
X75435000Y-62809250D01*
X75438072Y-62195000D01*
X75425812Y-62070518D01*
X75389502Y-61950820D01*
X75330537Y-61840506D01*
X75251185Y-61743815D01*
X75154494Y-61664463D01*
X75044180Y-61605498D01*
X74924482Y-61569188D01*
X74800000Y-61556928D01*
X73285750Y-61560000D01*
X73127000Y-61718750D01*
X72873000Y-61718750D01*
X72714250Y-61560000D01*
X71200000Y-61556928D01*
X71075518Y-61569188D01*
X70955820Y-61605498D01*
X70845506Y-61664463D01*
X70748815Y-61743815D01*
X70669463Y-61840506D01*
X70610498Y-61950820D01*
X70574188Y-62070518D01*
X70561928Y-62195000D01*
X65660000Y-62195000D01*
X65660000Y-58660000D01*
X79757815Y-58660000D01*
X79786487Y-58951111D01*
X79871401Y-59231034D01*
X80009294Y-59489014D01*
X80194866Y-59715134D01*
X80420986Y-59900706D01*
X80475791Y-59930000D01*
X80420986Y-59959294D01*
X80194866Y-60144866D01*
X80009294Y-60370986D01*
X79871401Y-60628966D01*
X79786487Y-60908889D01*
X79757815Y-61200000D01*
X79786487Y-61491111D01*
X79871401Y-61771034D01*
X80009294Y-62029014D01*
X80194866Y-62255134D01*
X80420986Y-62440706D01*
X80485523Y-62475201D01*
X80368645Y-62544822D01*
X80152412Y-62739731D01*
X79978359Y-62973080D01*
X79853175Y-63235901D01*
X79808524Y-63383110D01*
X79929845Y-63613000D01*
X81123000Y-63613000D01*
X81123000Y-63593000D01*
X81377000Y-63593000D01*
X81377000Y-63613000D01*
X82570155Y-63613000D01*
X82691476Y-63383110D01*
X82646825Y-63235901D01*
X82521641Y-62973080D01*
X82347588Y-62739731D01*
X82131355Y-62544822D01*
X82014477Y-62475201D01*
X82079014Y-62440706D01*
X82305134Y-62255134D01*
X82490706Y-62029014D01*
X82628599Y-61771034D01*
X82713513Y-61491111D01*
X82742185Y-61200000D01*
X82713513Y-60908889D01*
X82628599Y-60628966D01*
X82490706Y-60370986D01*
X82305134Y-60144866D01*
X82079014Y-59959294D01*
X82024209Y-59930000D01*
X82079014Y-59900706D01*
X82305134Y-59715134D01*
X82490706Y-59489014D01*
X82628599Y-59231034D01*
X82713513Y-58951111D01*
X82742185Y-58660000D01*
X82713513Y-58368889D01*
X82628599Y-58088966D01*
X82490706Y-57830986D01*
X82305134Y-57604866D01*
X82079014Y-57419294D01*
X82014477Y-57384799D01*
X82131355Y-57315178D01*
X82347588Y-57120269D01*
X82521641Y-56886920D01*
X82646825Y-56624099D01*
X82691476Y-56476890D01*
X82570155Y-56247000D01*
X81377000Y-56247000D01*
X81377000Y-56267000D01*
X81123000Y-56267000D01*
X81123000Y-56247000D01*
X79929845Y-56247000D01*
X79808524Y-56476890D01*
X79853175Y-56624099D01*
X79978359Y-56886920D01*
X80152412Y-57120269D01*
X80368645Y-57315178D01*
X80485523Y-57384799D01*
X80420986Y-57419294D01*
X80194866Y-57604866D01*
X80009294Y-57830986D01*
X79871401Y-58088966D01*
X79786487Y-58368889D01*
X79757815Y-58660000D01*
X65660000Y-58660000D01*
X65660000Y-53374193D01*
X67015000Y-53374193D01*
X67015000Y-53725807D01*
X67083596Y-54070665D01*
X67218153Y-54395515D01*
X67413500Y-54687871D01*
X67662129Y-54936500D01*
X67954485Y-55131847D01*
X68279335Y-55266404D01*
X68624193Y-55335000D01*
X68975807Y-55335000D01*
X69320665Y-55266404D01*
X69645515Y-55131847D01*
X69937871Y-54936500D01*
X70186500Y-54687871D01*
X70381847Y-54395515D01*
X70516404Y-54070665D01*
X70585000Y-53725807D01*
X70585000Y-53374193D01*
X70516404Y-53029335D01*
X70381847Y-52704485D01*
X70186500Y-52412129D01*
X69937871Y-52163500D01*
X69645515Y-51968153D01*
X69320665Y-51833596D01*
X68975807Y-51765000D01*
X68624193Y-51765000D01*
X68279335Y-51833596D01*
X67954485Y-51968153D01*
X67662129Y-52163500D01*
X67413500Y-52412129D01*
X67218153Y-52704485D01*
X67083596Y-53029335D01*
X67015000Y-53374193D01*
X65660000Y-53374193D01*
X65660000Y-51040000D01*
X79757815Y-51040000D01*
X79786487Y-51331111D01*
X79871401Y-51611034D01*
X80009294Y-51869014D01*
X80194866Y-52095134D01*
X80420986Y-52280706D01*
X80475791Y-52310000D01*
X80420986Y-52339294D01*
X80194866Y-52524866D01*
X80009294Y-52750986D01*
X79871401Y-53008966D01*
X79786487Y-53288889D01*
X79757815Y-53580000D01*
X79786487Y-53871111D01*
X79871401Y-54151034D01*
X80009294Y-54409014D01*
X80194866Y-54635134D01*
X80420986Y-54820706D01*
X80485523Y-54855201D01*
X80368645Y-54924822D01*
X80152412Y-55119731D01*
X79978359Y-55353080D01*
X79853175Y-55615901D01*
X79808524Y-55763110D01*
X79929845Y-55993000D01*
X81123000Y-55993000D01*
X81123000Y-55973000D01*
X81377000Y-55973000D01*
X81377000Y-55993000D01*
X82570155Y-55993000D01*
X82691476Y-55763110D01*
X82646825Y-55615901D01*
X82521641Y-55353080D01*
X82347588Y-55119731D01*
X82131355Y-54924822D01*
X82014477Y-54855201D01*
X82079014Y-54820706D01*
X82305134Y-54635134D01*
X82490706Y-54409014D01*
X82628599Y-54151034D01*
X82713513Y-53871111D01*
X82742185Y-53580000D01*
X82713513Y-53288889D01*
X82628599Y-53008966D01*
X82490706Y-52750986D01*
X82305134Y-52524866D01*
X82079014Y-52339294D01*
X82024209Y-52310000D01*
X82079014Y-52280706D01*
X82305134Y-52095134D01*
X82490706Y-51869014D01*
X82628599Y-51611034D01*
X82713513Y-51331111D01*
X82742185Y-51040000D01*
X127757815Y-51040000D01*
X127786487Y-51331111D01*
X127871401Y-51611034D01*
X128009294Y-51869014D01*
X128194866Y-52095134D01*
X128420986Y-52280706D01*
X128475791Y-52310000D01*
X128420986Y-52339294D01*
X128194866Y-52524866D01*
X128009294Y-52750986D01*
X127871401Y-53008966D01*
X127786487Y-53288889D01*
X127757815Y-53580000D01*
X127786487Y-53871111D01*
X127871401Y-54151034D01*
X128009294Y-54409014D01*
X128194866Y-54635134D01*
X128420986Y-54820706D01*
X128475791Y-54850000D01*
X128420986Y-54879294D01*
X128194866Y-55064866D01*
X128009294Y-55290986D01*
X127871401Y-55548966D01*
X127786487Y-55828889D01*
X127757815Y-56120000D01*
X127786487Y-56411111D01*
X127871401Y-56691034D01*
X128009294Y-56949014D01*
X128194866Y-57175134D01*
X128420986Y-57360706D01*
X128475791Y-57390000D01*
X128420986Y-57419294D01*
X128194866Y-57604866D01*
X128009294Y-57830986D01*
X127871401Y-58088966D01*
X127786487Y-58368889D01*
X127757815Y-58660000D01*
X127786487Y-58951111D01*
X127871401Y-59231034D01*
X128009294Y-59489014D01*
X128194866Y-59715134D01*
X128420986Y-59900706D01*
X128475791Y-59930000D01*
X128420986Y-59959294D01*
X128194866Y-60144866D01*
X128009294Y-60370986D01*
X127871401Y-60628966D01*
X127786487Y-60908889D01*
X127757815Y-61200000D01*
X127786487Y-61491111D01*
X127871401Y-61771034D01*
X128009294Y-62029014D01*
X128194866Y-62255134D01*
X128420986Y-62440706D01*
X128475791Y-62470000D01*
X128420986Y-62499294D01*
X128194866Y-62684866D01*
X128009294Y-62910986D01*
X127871401Y-63168966D01*
X127786487Y-63448889D01*
X127757815Y-63740000D01*
X127786487Y-64031111D01*
X127871401Y-64311034D01*
X128009294Y-64569014D01*
X128194866Y-64795134D01*
X128420986Y-64980706D01*
X128475791Y-65010000D01*
X128420986Y-65039294D01*
X128194866Y-65224866D01*
X128009294Y-65450986D01*
X127871401Y-65708966D01*
X127786487Y-65988889D01*
X127757815Y-66280000D01*
X127786487Y-66571111D01*
X127871401Y-66851034D01*
X128009294Y-67109014D01*
X128194866Y-67335134D01*
X128420986Y-67520706D01*
X128475791Y-67550000D01*
X128420986Y-67579294D01*
X128194866Y-67764866D01*
X128009294Y-67990986D01*
X127871401Y-68248966D01*
X127786487Y-68528889D01*
X127757815Y-68820000D01*
X127786487Y-69111111D01*
X127871401Y-69391034D01*
X128009294Y-69649014D01*
X128194866Y-69875134D01*
X128420986Y-70060706D01*
X128475791Y-70090000D01*
X128420986Y-70119294D01*
X128194866Y-70304866D01*
X128009294Y-70530986D01*
X127871401Y-70788966D01*
X127786487Y-71068889D01*
X127757815Y-71360000D01*
X127786487Y-71651111D01*
X127871401Y-71931034D01*
X128009294Y-72189014D01*
X128194866Y-72415134D01*
X128420986Y-72600706D01*
X128475791Y-72630000D01*
X128420986Y-72659294D01*
X128194866Y-72844866D01*
X128009294Y-73070986D01*
X127871401Y-73328966D01*
X127786487Y-73608889D01*
X127757815Y-73900000D01*
X127786487Y-74191111D01*
X127871401Y-74471034D01*
X128009294Y-74729014D01*
X128194866Y-74955134D01*
X128420986Y-75140706D01*
X128475791Y-75170000D01*
X128420986Y-75199294D01*
X128194866Y-75384866D01*
X128009294Y-75610986D01*
X127871401Y-75868966D01*
X127786487Y-76148889D01*
X127757815Y-76440000D01*
X127786487Y-76731111D01*
X127871401Y-77011034D01*
X128009294Y-77269014D01*
X128194866Y-77495134D01*
X128420986Y-77680706D01*
X128475791Y-77710000D01*
X128420986Y-77739294D01*
X128194866Y-77924866D01*
X128009294Y-78150986D01*
X127871401Y-78408966D01*
X127786487Y-78688889D01*
X127757815Y-78980000D01*
X127786487Y-79271111D01*
X127871401Y-79551034D01*
X128009294Y-79809014D01*
X128194866Y-80035134D01*
X128420986Y-80220706D01*
X128485523Y-80255201D01*
X128368645Y-80324822D01*
X128152412Y-80519731D01*
X127978359Y-80753080D01*
X127853175Y-81015901D01*
X127808524Y-81163110D01*
X127929845Y-81393000D01*
X129123000Y-81393000D01*
X129123000Y-81373000D01*
X129377000Y-81373000D01*
X129377000Y-81393000D01*
X130570155Y-81393000D01*
X130691476Y-81163110D01*
X130646825Y-81015901D01*
X130521641Y-80753080D01*
X130347588Y-80519731D01*
X130131355Y-80324822D01*
X130014477Y-80255201D01*
X130079014Y-80220706D01*
X130305134Y-80035134D01*
X130490706Y-79809014D01*
X130628599Y-79551034D01*
X130713513Y-79271111D01*
X130742185Y-78980000D01*
X130720025Y-78755000D01*
X134561928Y-78755000D01*
X134561928Y-80055000D01*
X134578992Y-80228254D01*
X134629528Y-80394850D01*
X134711595Y-80548386D01*
X134822038Y-80682962D01*
X134956614Y-80793405D01*
X135110150Y-80875472D01*
X135276746Y-80926008D01*
X135450000Y-80943072D01*
X138550000Y-80943072D01*
X138723254Y-80926008D01*
X138889850Y-80875472D01*
X139043386Y-80793405D01*
X139177962Y-80682962D01*
X139288405Y-80548386D01*
X139370472Y-80394850D01*
X139421008Y-80228254D01*
X139438072Y-80055000D01*
X139438072Y-78755000D01*
X139421008Y-78581746D01*
X139370472Y-78415150D01*
X139288405Y-78261614D01*
X139177962Y-78127038D01*
X139043386Y-78016595D01*
X138889850Y-77934528D01*
X138723254Y-77883992D01*
X138550000Y-77866928D01*
X135450000Y-77866928D01*
X135276746Y-77883992D01*
X135110150Y-77934528D01*
X134956614Y-78016595D01*
X134822038Y-78127038D01*
X134711595Y-78261614D01*
X134629528Y-78415150D01*
X134578992Y-78581746D01*
X134561928Y-78755000D01*
X130720025Y-78755000D01*
X130713513Y-78688889D01*
X130628599Y-78408966D01*
X130490706Y-78150986D01*
X130305134Y-77924866D01*
X130079014Y-77739294D01*
X130024209Y-77710000D01*
X130079014Y-77680706D01*
X130305134Y-77495134D01*
X130490706Y-77269014D01*
X130628599Y-77011034D01*
X130713513Y-76731111D01*
X130742185Y-76440000D01*
X130713513Y-76148889D01*
X130628599Y-75868966D01*
X130490706Y-75610986D01*
X130477587Y-75595000D01*
X134557573Y-75595000D01*
X134587210Y-75895913D01*
X134674983Y-76185261D01*
X134817519Y-76451927D01*
X135009339Y-76685661D01*
X135243073Y-76877481D01*
X135509739Y-77020017D01*
X135799087Y-77107790D01*
X136024592Y-77130000D01*
X137975408Y-77130000D01*
X138200913Y-77107790D01*
X138490261Y-77020017D01*
X138756927Y-76877481D01*
X138990661Y-76685661D01*
X139182481Y-76451927D01*
X139325017Y-76185261D01*
X139412790Y-75895913D01*
X139442427Y-75595000D01*
X139412790Y-75294087D01*
X139325017Y-75004739D01*
X139182481Y-74738073D01*
X138990661Y-74504339D01*
X138756927Y-74312519D01*
X138490261Y-74169983D01*
X138200913Y-74082210D01*
X137975408Y-74060000D01*
X136024592Y-74060000D01*
X135799087Y-74082210D01*
X135509739Y-74169983D01*
X135243073Y-74312519D01*
X135009339Y-74504339D01*
X134817519Y-74738073D01*
X134674983Y-75004739D01*
X134587210Y-75294087D01*
X134557573Y-75595000D01*
X130477587Y-75595000D01*
X130305134Y-75384866D01*
X130079014Y-75199294D01*
X130024209Y-75170000D01*
X130079014Y-75140706D01*
X130305134Y-74955134D01*
X130490706Y-74729014D01*
X130628599Y-74471034D01*
X130713513Y-74191111D01*
X130742185Y-73900000D01*
X130713513Y-73608889D01*
X130628599Y-73328966D01*
X130490706Y-73070986D01*
X130305134Y-72844866D01*
X130079014Y-72659294D01*
X130024209Y-72630000D01*
X130079014Y-72600706D01*
X130305134Y-72415134D01*
X130490706Y-72189014D01*
X130628599Y-71931034D01*
X130713513Y-71651111D01*
X130742185Y-71360000D01*
X130713513Y-71068889D01*
X130628599Y-70788966D01*
X130490706Y-70530986D01*
X130305134Y-70304866D01*
X130079014Y-70119294D01*
X130024209Y-70090000D01*
X130079014Y-70060706D01*
X130305134Y-69875134D01*
X130490706Y-69649014D01*
X130628599Y-69391034D01*
X130713513Y-69111111D01*
X130742185Y-68820000D01*
X130713513Y-68528889D01*
X130628599Y-68248966D01*
X130490706Y-67990986D01*
X130305134Y-67764866D01*
X130079014Y-67579294D01*
X130024209Y-67550000D01*
X130079014Y-67520706D01*
X130305134Y-67335134D01*
X130490706Y-67109014D01*
X130628599Y-66851034D01*
X130713513Y-66571111D01*
X130742185Y-66280000D01*
X130739723Y-66255000D01*
X134561928Y-66255000D01*
X134561928Y-67555000D01*
X134578992Y-67728254D01*
X134629528Y-67894850D01*
X134711595Y-68048386D01*
X134822038Y-68182962D01*
X134956614Y-68293405D01*
X135110150Y-68375472D01*
X135276746Y-68426008D01*
X135450000Y-68443072D01*
X138550000Y-68443072D01*
X138723254Y-68426008D01*
X138889850Y-68375472D01*
X139043386Y-68293405D01*
X139177962Y-68182962D01*
X139288405Y-68048386D01*
X139370472Y-67894850D01*
X139421008Y-67728254D01*
X139438072Y-67555000D01*
X139438072Y-66255000D01*
X139421008Y-66081746D01*
X139370472Y-65915150D01*
X139288405Y-65761614D01*
X139177962Y-65627038D01*
X139043386Y-65516595D01*
X138889850Y-65434528D01*
X138723254Y-65383992D01*
X138550000Y-65366928D01*
X135450000Y-65366928D01*
X135276746Y-65383992D01*
X135110150Y-65434528D01*
X134956614Y-65516595D01*
X134822038Y-65627038D01*
X134711595Y-65761614D01*
X134629528Y-65915150D01*
X134578992Y-66081746D01*
X134561928Y-66255000D01*
X130739723Y-66255000D01*
X130713513Y-65988889D01*
X130628599Y-65708966D01*
X130490706Y-65450986D01*
X130305134Y-65224866D01*
X130079014Y-65039294D01*
X130024209Y-65010000D01*
X130079014Y-64980706D01*
X130305134Y-64795134D01*
X130490706Y-64569014D01*
X130628599Y-64311034D01*
X130713513Y-64031111D01*
X130742185Y-63740000D01*
X130713513Y-63448889D01*
X130628599Y-63168966D01*
X130589064Y-63095000D01*
X134557573Y-63095000D01*
X134587210Y-63395913D01*
X134674983Y-63685261D01*
X134817519Y-63951927D01*
X135009339Y-64185661D01*
X135243073Y-64377481D01*
X135509739Y-64520017D01*
X135799087Y-64607790D01*
X136024592Y-64630000D01*
X137975408Y-64630000D01*
X138200913Y-64607790D01*
X138490261Y-64520017D01*
X138756927Y-64377481D01*
X138990661Y-64185661D01*
X139182481Y-63951927D01*
X139325017Y-63685261D01*
X139412790Y-63395913D01*
X139442427Y-63095000D01*
X139412790Y-62794087D01*
X139325017Y-62504739D01*
X139182481Y-62238073D01*
X138990661Y-62004339D01*
X138756927Y-61812519D01*
X138490261Y-61669983D01*
X138200913Y-61582210D01*
X137975408Y-61560000D01*
X136024592Y-61560000D01*
X135799087Y-61582210D01*
X135509739Y-61669983D01*
X135243073Y-61812519D01*
X135009339Y-62004339D01*
X134817519Y-62238073D01*
X134674983Y-62504739D01*
X134587210Y-62794087D01*
X134557573Y-63095000D01*
X130589064Y-63095000D01*
X130490706Y-62910986D01*
X130305134Y-62684866D01*
X130079014Y-62499294D01*
X130024209Y-62470000D01*
X130079014Y-62440706D01*
X130305134Y-62255134D01*
X130490706Y-62029014D01*
X130628599Y-61771034D01*
X130713513Y-61491111D01*
X130742185Y-61200000D01*
X130713513Y-60908889D01*
X130628599Y-60628966D01*
X130490706Y-60370986D01*
X130305134Y-60144866D01*
X130079014Y-59959294D01*
X130024209Y-59930000D01*
X130079014Y-59900706D01*
X130305134Y-59715134D01*
X130490706Y-59489014D01*
X130628599Y-59231034D01*
X130713513Y-58951111D01*
X130742185Y-58660000D01*
X130713513Y-58368889D01*
X130628599Y-58088966D01*
X130490706Y-57830986D01*
X130305134Y-57604866D01*
X130079014Y-57419294D01*
X130024209Y-57390000D01*
X130079014Y-57360706D01*
X130305134Y-57175134D01*
X130490706Y-56949014D01*
X130628599Y-56691034D01*
X130713513Y-56411111D01*
X130742185Y-56120000D01*
X130713513Y-55828889D01*
X130628599Y-55548966D01*
X130490706Y-55290986D01*
X130305134Y-55064866D01*
X130079014Y-54879294D01*
X130024209Y-54850000D01*
X130079014Y-54820706D01*
X130305134Y-54635134D01*
X130490706Y-54409014D01*
X130628599Y-54151034D01*
X130713513Y-53871111D01*
X130724948Y-53755000D01*
X134561928Y-53755000D01*
X134561928Y-55055000D01*
X134578992Y-55228254D01*
X134629528Y-55394850D01*
X134711595Y-55548386D01*
X134822038Y-55682962D01*
X134956614Y-55793405D01*
X135110150Y-55875472D01*
X135276746Y-55926008D01*
X135450000Y-55943072D01*
X138550000Y-55943072D01*
X138723254Y-55926008D01*
X138889850Y-55875472D01*
X139043386Y-55793405D01*
X139177962Y-55682962D01*
X139288405Y-55548386D01*
X139370472Y-55394850D01*
X139421008Y-55228254D01*
X139438072Y-55055000D01*
X139438072Y-53755000D01*
X139421008Y-53581746D01*
X139370472Y-53415150D01*
X139288405Y-53261614D01*
X139177962Y-53127038D01*
X139043386Y-53016595D01*
X138889850Y-52934528D01*
X138723254Y-52883992D01*
X138550000Y-52866928D01*
X135450000Y-52866928D01*
X135276746Y-52883992D01*
X135110150Y-52934528D01*
X134956614Y-53016595D01*
X134822038Y-53127038D01*
X134711595Y-53261614D01*
X134629528Y-53415150D01*
X134578992Y-53581746D01*
X134561928Y-53755000D01*
X130724948Y-53755000D01*
X130742185Y-53580000D01*
X130713513Y-53288889D01*
X130628599Y-53008966D01*
X130490706Y-52750986D01*
X130305134Y-52524866D01*
X130079014Y-52339294D01*
X130024209Y-52310000D01*
X130079014Y-52280706D01*
X130305134Y-52095134D01*
X130490706Y-51869014D01*
X130628599Y-51611034D01*
X130713513Y-51331111D01*
X130742185Y-51040000D01*
X130713513Y-50748889D01*
X130666832Y-50595000D01*
X134557573Y-50595000D01*
X134587210Y-50895913D01*
X134674983Y-51185261D01*
X134817519Y-51451927D01*
X135009339Y-51685661D01*
X135243073Y-51877481D01*
X135509739Y-52020017D01*
X135799087Y-52107790D01*
X136024592Y-52130000D01*
X137975408Y-52130000D01*
X138200913Y-52107790D01*
X138490261Y-52020017D01*
X138756927Y-51877481D01*
X138990661Y-51685661D01*
X139182481Y-51451927D01*
X139325017Y-51185261D01*
X139412790Y-50895913D01*
X139442427Y-50595000D01*
X139412790Y-50294087D01*
X139325017Y-50004739D01*
X139182481Y-49738073D01*
X138990661Y-49504339D01*
X138756927Y-49312519D01*
X138490261Y-49169983D01*
X138200913Y-49082210D01*
X137975408Y-49060000D01*
X136024592Y-49060000D01*
X135799087Y-49082210D01*
X135509739Y-49169983D01*
X135243073Y-49312519D01*
X135009339Y-49504339D01*
X134817519Y-49738073D01*
X134674983Y-50004739D01*
X134587210Y-50294087D01*
X134557573Y-50595000D01*
X130666832Y-50595000D01*
X130628599Y-50468966D01*
X130490706Y-50210986D01*
X130305134Y-49984866D01*
X130275313Y-49960393D01*
X130344180Y-49939502D01*
X130454494Y-49880537D01*
X130551185Y-49801185D01*
X130630537Y-49704494D01*
X130689502Y-49594180D01*
X130725812Y-49474482D01*
X130738072Y-49350000D01*
X130735000Y-48785750D01*
X130576250Y-48627000D01*
X129377000Y-48627000D01*
X129377000Y-48647000D01*
X129123000Y-48647000D01*
X129123000Y-48627000D01*
X127923750Y-48627000D01*
X127765000Y-48785750D01*
X127761928Y-49350000D01*
X127774188Y-49474482D01*
X127810498Y-49594180D01*
X127869463Y-49704494D01*
X127948815Y-49801185D01*
X128045506Y-49880537D01*
X128155820Y-49939502D01*
X128224687Y-49960393D01*
X128194866Y-49984866D01*
X128009294Y-50210986D01*
X127871401Y-50468966D01*
X127786487Y-50748889D01*
X127757815Y-51040000D01*
X82742185Y-51040000D01*
X82713513Y-50748889D01*
X82628599Y-50468966D01*
X82490706Y-50210986D01*
X82305134Y-49984866D01*
X82275313Y-49960393D01*
X82344180Y-49939502D01*
X82454494Y-49880537D01*
X82551185Y-49801185D01*
X82630537Y-49704494D01*
X82689502Y-49594180D01*
X82725812Y-49474482D01*
X82738072Y-49350000D01*
X82738072Y-47650000D01*
X127761928Y-47650000D01*
X127765000Y-48214250D01*
X127923750Y-48373000D01*
X129123000Y-48373000D01*
X129123000Y-47173750D01*
X129377000Y-47173750D01*
X129377000Y-48373000D01*
X130576250Y-48373000D01*
X130735000Y-48214250D01*
X130738072Y-47650000D01*
X130725812Y-47525518D01*
X130689502Y-47405820D01*
X130630537Y-47295506D01*
X130551185Y-47198815D01*
X130454494Y-47119463D01*
X130344180Y-47060498D01*
X130224482Y-47024188D01*
X130100000Y-47011928D01*
X129535750Y-47015000D01*
X129377000Y-47173750D01*
X129123000Y-47173750D01*
X128964250Y-47015000D01*
X128400000Y-47011928D01*
X128275518Y-47024188D01*
X128155820Y-47060498D01*
X128045506Y-47119463D01*
X127948815Y-47198815D01*
X127869463Y-47295506D01*
X127810498Y-47405820D01*
X127774188Y-47525518D01*
X127761928Y-47650000D01*
X82738072Y-47650000D01*
X82725812Y-47525518D01*
X82689502Y-47405820D01*
X82630537Y-47295506D01*
X82551185Y-47198815D01*
X82454494Y-47119463D01*
X82344180Y-47060498D01*
X82224482Y-47024188D01*
X82100000Y-47011928D01*
X80400000Y-47011928D01*
X80275518Y-47024188D01*
X80155820Y-47060498D01*
X80045506Y-47119463D01*
X79948815Y-47198815D01*
X79869463Y-47295506D01*
X79810498Y-47405820D01*
X79774188Y-47525518D01*
X79761928Y-47650000D01*
X79761928Y-49350000D01*
X79774188Y-49474482D01*
X79810498Y-49594180D01*
X79869463Y-49704494D01*
X79948815Y-49801185D01*
X80045506Y-49880537D01*
X80155820Y-49939502D01*
X80224687Y-49960393D01*
X80194866Y-49984866D01*
X80009294Y-50210986D01*
X79871401Y-50468966D01*
X79786487Y-50748889D01*
X79757815Y-51040000D01*
X65660000Y-51040000D01*
X65660000Y-48674193D01*
X65915000Y-48674193D01*
X65915000Y-49025807D01*
X65983596Y-49370665D01*
X66118153Y-49695515D01*
X66313500Y-49987871D01*
X66562129Y-50236500D01*
X66854485Y-50431847D01*
X67179335Y-50566404D01*
X67524193Y-50635000D01*
X67875807Y-50635000D01*
X68220665Y-50566404D01*
X68545515Y-50431847D01*
X68837871Y-50236500D01*
X69086500Y-49987871D01*
X69281847Y-49695515D01*
X69416404Y-49370665D01*
X69485000Y-49025807D01*
X69485000Y-48674193D01*
X69416404Y-48329335D01*
X69281847Y-48004485D01*
X69086500Y-47712129D01*
X68837871Y-47463500D01*
X68545515Y-47268153D01*
X68220665Y-47133596D01*
X67875807Y-47065000D01*
X67524193Y-47065000D01*
X67179335Y-47133596D01*
X66854485Y-47268153D01*
X66562129Y-47463500D01*
X66313500Y-47712129D01*
X66118153Y-48004485D01*
X65983596Y-48329335D01*
X65915000Y-48674193D01*
X65660000Y-48674193D01*
X65660000Y-42733087D01*
X66017599Y-43268272D01*
X66731728Y-43982401D01*
X67571455Y-44543488D01*
X68504509Y-44929972D01*
X69495035Y-45127000D01*
X70504965Y-45127000D01*
X71495491Y-44929972D01*
X72428545Y-44543488D01*
X73268272Y-43982401D01*
X73982401Y-43268272D01*
X74543488Y-42428545D01*
X74929972Y-41495491D01*
X75127000Y-40504965D01*
X75127000Y-39495035D01*
X74929972Y-38504509D01*
X74543488Y-37571455D01*
X73982401Y-36731728D01*
X73268272Y-36017599D01*
X72733087Y-35660000D01*
X137266913Y-35660000D01*
X136731728Y-36017599D01*
M02*
