M48
; DRILL file {KiCad (5.1.2-1)-1} date Wednesday, 16 February 2022 at 12:06:34
; FORMAT={-:-/ absolute / metric / decimal}
; #@! TF.CreationDate,2022-02-16T12:06:34-05:00
; #@! TF.GenerationSoftware,Kicad,Pcbnew,(5.1.2-1)-1
; #@! TF.FileFunction,Plated,1,2,PTH
FMAT,2
METRIC
T1C0.300
T2C0.400
T3C1.000
T4C1.200
T5C3.300
%
G90
G05
T1
X109.5Y-59.8
X109.5Y-61.1
X109.5Y-62.4
X109.5Y-63.7
X109.5Y-65.0
X109.5Y-66.3
X109.5Y-67.6
X109.5Y-68.9
X109.5Y-70.2
X111.0Y-59.8
X111.0Y-61.1
X111.0Y-62.4
X111.0Y-63.7
X111.0Y-65.0
X111.0Y-66.3
X111.0Y-67.6
X111.0Y-68.9
X111.0Y-70.2
X112.5Y-59.8
X112.5Y-61.1
X112.5Y-62.4
X112.5Y-63.7
X112.5Y-65.0
X112.5Y-66.3
X112.5Y-67.6
X112.5Y-68.9
X112.5Y-70.2
X114.0Y-59.8
X114.0Y-61.1
X114.0Y-62.4
X114.0Y-63.7
X114.0Y-65.0
X114.0Y-66.3
X114.0Y-67.6
X114.0Y-68.9
X114.0Y-70.2
T2
X65.75Y-46.5
X66.75Y-46.5
X67.75Y-46.5
X67.75Y-51.0
X68.75Y-46.5
X68.75Y-51.0
X69.75Y-46.5
X69.75Y-49.0
X69.75Y-50.0
X69.75Y-51.0
X70.75Y-49.0
X70.75Y-50.0
X70.75Y-51.0
X70.75Y-52.0
X70.75Y-53.0
X70.75Y-54.0
X71.75Y-49.0
X71.75Y-50.0
X71.75Y-51.0
X71.75Y-52.0
X71.75Y-53.0
X71.75Y-54.0
X72.75Y-49.0
X72.75Y-50.0
X72.75Y-51.0
X73.75Y-49.0
X73.75Y-50.0
X74.25Y-78.5
X74.25Y-79.5
X74.25Y-80.5
X74.5Y-93.0
X74.5Y-94.0
X74.75Y-49.0
X75.25Y-78.5
X75.5Y-93.0
X75.5Y-94.0
X76.25Y-78.5
X76.5Y-93.0
X76.5Y-94.0
X77.5Y-92.0
X77.5Y-93.0
X77.5Y-94.0
X78.5Y-92.0
X78.5Y-93.0
X78.5Y-94.0
X79.5Y-90.0
X79.5Y-91.0
X79.5Y-92.0
X79.5Y-93.0
X79.5Y-94.0
X80.5Y-91.0
X80.5Y-92.0
X80.5Y-93.0
X80.5Y-94.0
X81.5Y-92.0
X81.5Y-93.0
X81.5Y-94.0
X82.5Y-93.0
X82.5Y-94.0
X83.5Y-93.0
X83.5Y-94.0
X84.5Y-93.0
X84.5Y-94.0
X84.75Y-40.75
X84.75Y-41.75
X84.75Y-45.75
X84.75Y-46.75
X85.75Y-40.75
X85.75Y-41.75
X85.75Y-45.75
X85.75Y-46.75
X86.75Y-40.75
X86.75Y-41.75
X86.75Y-45.75
X86.75Y-46.75
X87.75Y-40.75
X87.75Y-41.75
X87.75Y-42.75
X87.75Y-43.75
X87.75Y-44.75
X87.75Y-45.75
X92.0Y-83.0
X92.75Y-63.5
X93.0Y-83.0
X94.0Y-83.0
X94.5Y-65.25
X95.0Y-52.75
X95.0Y-72.25
X96.5Y-57.25
X96.5Y-60.5
X96.5Y-79.75
X97.25Y-83.0
X101.0Y-65.0
X101.5Y-58.25
X101.5Y-76.0
X101.5Y-77.25
X101.5Y-78.5
X102.27Y-60.02
X106.75Y-46.25
X109.5Y-84.25
X110.75Y-49.0
X110.75Y-50.0
X110.75Y-54.0
X110.75Y-55.0
X110.75Y-75.0
X110.75Y-76.0
X110.75Y-80.0
X110.75Y-81.0
X111.75Y-49.0
X111.75Y-50.0
X111.75Y-54.0
X111.75Y-55.0
X111.75Y-75.0
X111.75Y-76.0
X111.75Y-80.0
X111.75Y-81.0
X112.75Y-49.0
X112.75Y-50.0
X112.75Y-54.0
X112.75Y-55.0
X112.75Y-75.0
X112.75Y-76.0
X112.75Y-80.0
X112.75Y-81.0
X113.75Y-49.0
X113.75Y-50.0
X113.75Y-51.0
X113.75Y-52.0
X113.75Y-53.0
X113.75Y-54.0
X113.75Y-55.0
X113.75Y-75.0
X113.75Y-76.0
X113.75Y-77.0
X113.75Y-78.0
X113.75Y-79.0
X113.75Y-80.0
X113.75Y-81.0
X121.0Y-63.5
X121.0Y-64.25
X121.5Y-65.0
X122.375Y-64.625
X122.375Y-65.375
T3
X129.25Y-48.5
X129.25Y-51.04
X129.25Y-53.58
X129.25Y-56.12
X129.25Y-58.66
X129.25Y-61.2
X129.25Y-63.74
X129.25Y-66.28
X129.25Y-68.82
X129.25Y-71.36
X129.25Y-73.9
X129.25Y-76.44
X129.25Y-78.98
X129.25Y-81.52
X81.25Y-48.5
X81.25Y-51.04
X81.25Y-53.58
X81.25Y-56.12
X81.25Y-58.66
X81.25Y-61.2
X81.25Y-63.74
X81.25Y-66.28
X81.25Y-68.82
X81.25Y-71.36
X81.25Y-73.9
X81.25Y-76.44
X81.25Y-78.98
X81.25Y-81.52
T4
X137.0Y-75.595
X137.0Y-75.595
X137.0Y-79.405
X137.0Y-79.405
X73.0Y-63.095
X73.0Y-63.095
X73.0Y-66.905
X73.0Y-66.905
X137.0Y-50.595
X137.0Y-50.595
X137.0Y-54.405
X137.0Y-54.405
X137.0Y-63.095
X137.0Y-63.095
X137.0Y-66.905
X137.0Y-66.905
T5
X140.0Y-90.0
X70.0Y-40.0
X140.0Y-40.0
X70.0Y-90.0
T0
M30
