G04 #@! TF.GenerationSoftware,KiCad,Pcbnew,(5.1.2-1)-1*
G04 #@! TF.CreationDate,2022-02-16T12:06:33-05:00*
G04 #@! TF.ProjectId,AmpClassD_Daugher,416d7043-6c61-4737-9344-5f4461756768,rev?*
G04 #@! TF.SameCoordinates,Original*
G04 #@! TF.FileFunction,Copper,L2,Bot*
G04 #@! TF.FilePolarity,Positive*
%FSLAX46Y46*%
G04 Gerber Fmt 4.6, Leading zero omitted, Abs format (unit mm)*
G04 Created by KiCad (PCBNEW (5.1.2-1)-1) date 2022-02-16 12:06:33*
%MOMM*%
%LPD*%
G04 APERTURE LIST*
%ADD10C,1.300000*%
%ADD11R,5.200000X11.000000*%
%ADD12C,0.600000*%
%ADD13O,1.700000X1.700000*%
%ADD14R,1.700000X1.700000*%
%ADD15C,5.000000*%
%ADD16C,0.100000*%
%ADD17C,1.800000*%
%ADD18O,3.600000X1.800000*%
%ADD19C,0.800000*%
%ADD20C,0.250000*%
%ADD21C,0.500000*%
%ADD22C,0.254000*%
G04 APERTURE END LIST*
D10*
X66000000Y-94000000D03*
X66000000Y-36000000D03*
X144000000Y-36000000D03*
X144000000Y-94000000D03*
D11*
X111750000Y-65000000D03*
D12*
X112500000Y-70200000D03*
X114000000Y-70200000D03*
X109500000Y-70200000D03*
X111000000Y-70200000D03*
X112500000Y-68900000D03*
X112500000Y-67600000D03*
X111000000Y-67600000D03*
X109500000Y-67600000D03*
X111000000Y-68900000D03*
X114000000Y-68900000D03*
X109500000Y-68900000D03*
X114000000Y-67600000D03*
X112500000Y-66300000D03*
X112500000Y-65000000D03*
X111000000Y-65000000D03*
X109500000Y-65000000D03*
X111000000Y-66300000D03*
X114000000Y-66300000D03*
X109500000Y-66300000D03*
X114000000Y-65000000D03*
X112500000Y-63700000D03*
X112500000Y-62400000D03*
X111000000Y-62400000D03*
X109500000Y-62400000D03*
X111000000Y-63700000D03*
X114000000Y-63700000D03*
X109500000Y-63700000D03*
X114000000Y-62400000D03*
X114000000Y-61100000D03*
X112500000Y-61100000D03*
X111000000Y-61100000D03*
X109500000Y-61100000D03*
X114000000Y-59800000D03*
X112500000Y-59800000D03*
X111000000Y-59800000D03*
X109500000Y-59800000D03*
D13*
X81250000Y-81520000D03*
X81250000Y-78980000D03*
X81250000Y-76440000D03*
X81250000Y-73900000D03*
X81250000Y-71360000D03*
X81250000Y-68820000D03*
X81250000Y-66280000D03*
X81250000Y-63740000D03*
X81250000Y-61200000D03*
X81250000Y-58660000D03*
X81250000Y-56120000D03*
X81250000Y-53580000D03*
X81250000Y-51040000D03*
D14*
X81250000Y-48500000D03*
X129250000Y-48500000D03*
D13*
X129250000Y-51040000D03*
X129250000Y-53580000D03*
X129250000Y-56120000D03*
X129250000Y-58660000D03*
X129250000Y-61200000D03*
X129250000Y-63740000D03*
X129250000Y-66280000D03*
X129250000Y-68820000D03*
X129250000Y-71360000D03*
X129250000Y-73900000D03*
X129250000Y-76440000D03*
X129250000Y-78980000D03*
X129250000Y-81520000D03*
D15*
X70000000Y-40000000D03*
X70000000Y-90000000D03*
X140000000Y-40000000D03*
X140000000Y-90000000D03*
D16*
G36*
X74574504Y-62196204D02*
G01*
X74598773Y-62199804D01*
X74622571Y-62205765D01*
X74645671Y-62214030D01*
X74667849Y-62224520D01*
X74688893Y-62237133D01*
X74708598Y-62251747D01*
X74726777Y-62268223D01*
X74743253Y-62286402D01*
X74757867Y-62306107D01*
X74770480Y-62327151D01*
X74780970Y-62349329D01*
X74789235Y-62372429D01*
X74795196Y-62396227D01*
X74798796Y-62420496D01*
X74800000Y-62445000D01*
X74800000Y-63745000D01*
X74798796Y-63769504D01*
X74795196Y-63793773D01*
X74789235Y-63817571D01*
X74780970Y-63840671D01*
X74770480Y-63862849D01*
X74757867Y-63883893D01*
X74743253Y-63903598D01*
X74726777Y-63921777D01*
X74708598Y-63938253D01*
X74688893Y-63952867D01*
X74667849Y-63965480D01*
X74645671Y-63975970D01*
X74622571Y-63984235D01*
X74598773Y-63990196D01*
X74574504Y-63993796D01*
X74550000Y-63995000D01*
X71450000Y-63995000D01*
X71425496Y-63993796D01*
X71401227Y-63990196D01*
X71377429Y-63984235D01*
X71354329Y-63975970D01*
X71332151Y-63965480D01*
X71311107Y-63952867D01*
X71291402Y-63938253D01*
X71273223Y-63921777D01*
X71256747Y-63903598D01*
X71242133Y-63883893D01*
X71229520Y-63862849D01*
X71219030Y-63840671D01*
X71210765Y-63817571D01*
X71204804Y-63793773D01*
X71201204Y-63769504D01*
X71200000Y-63745000D01*
X71200000Y-62445000D01*
X71201204Y-62420496D01*
X71204804Y-62396227D01*
X71210765Y-62372429D01*
X71219030Y-62349329D01*
X71229520Y-62327151D01*
X71242133Y-62306107D01*
X71256747Y-62286402D01*
X71273223Y-62268223D01*
X71291402Y-62251747D01*
X71311107Y-62237133D01*
X71332151Y-62224520D01*
X71354329Y-62214030D01*
X71377429Y-62205765D01*
X71401227Y-62199804D01*
X71425496Y-62196204D01*
X71450000Y-62195000D01*
X74550000Y-62195000D01*
X74574504Y-62196204D01*
X74574504Y-62196204D01*
G37*
D17*
X73000000Y-63095000D03*
D18*
X73000000Y-66905000D03*
D16*
G36*
X74574504Y-62196204D02*
G01*
X74598773Y-62199804D01*
X74622571Y-62205765D01*
X74645671Y-62214030D01*
X74667849Y-62224520D01*
X74688893Y-62237133D01*
X74708598Y-62251747D01*
X74726777Y-62268223D01*
X74743253Y-62286402D01*
X74757867Y-62306107D01*
X74770480Y-62327151D01*
X74780970Y-62349329D01*
X74789235Y-62372429D01*
X74795196Y-62396227D01*
X74798796Y-62420496D01*
X74800000Y-62445000D01*
X74800000Y-63745000D01*
X74798796Y-63769504D01*
X74795196Y-63793773D01*
X74789235Y-63817571D01*
X74780970Y-63840671D01*
X74770480Y-63862849D01*
X74757867Y-63883893D01*
X74743253Y-63903598D01*
X74726777Y-63921777D01*
X74708598Y-63938253D01*
X74688893Y-63952867D01*
X74667849Y-63965480D01*
X74645671Y-63975970D01*
X74622571Y-63984235D01*
X74598773Y-63990196D01*
X74574504Y-63993796D01*
X74550000Y-63995000D01*
X71450000Y-63995000D01*
X71425496Y-63993796D01*
X71401227Y-63990196D01*
X71377429Y-63984235D01*
X71354329Y-63975970D01*
X71332151Y-63965480D01*
X71311107Y-63952867D01*
X71291402Y-63938253D01*
X71273223Y-63921777D01*
X71256747Y-63903598D01*
X71242133Y-63883893D01*
X71229520Y-63862849D01*
X71219030Y-63840671D01*
X71210765Y-63817571D01*
X71204804Y-63793773D01*
X71201204Y-63769504D01*
X71200000Y-63745000D01*
X71200000Y-62445000D01*
X71201204Y-62420496D01*
X71204804Y-62396227D01*
X71210765Y-62372429D01*
X71219030Y-62349329D01*
X71229520Y-62327151D01*
X71242133Y-62306107D01*
X71256747Y-62286402D01*
X71273223Y-62268223D01*
X71291402Y-62251747D01*
X71311107Y-62237133D01*
X71332151Y-62224520D01*
X71354329Y-62214030D01*
X71377429Y-62205765D01*
X71401227Y-62199804D01*
X71425496Y-62196204D01*
X71450000Y-62195000D01*
X74550000Y-62195000D01*
X74574504Y-62196204D01*
X74574504Y-62196204D01*
G37*
D17*
X73000000Y-63095000D03*
D18*
X73000000Y-66905000D03*
X137000000Y-50595000D03*
D16*
G36*
X138574504Y-53506204D02*
G01*
X138598773Y-53509804D01*
X138622571Y-53515765D01*
X138645671Y-53524030D01*
X138667849Y-53534520D01*
X138688893Y-53547133D01*
X138708598Y-53561747D01*
X138726777Y-53578223D01*
X138743253Y-53596402D01*
X138757867Y-53616107D01*
X138770480Y-53637151D01*
X138780970Y-53659329D01*
X138789235Y-53682429D01*
X138795196Y-53706227D01*
X138798796Y-53730496D01*
X138800000Y-53755000D01*
X138800000Y-55055000D01*
X138798796Y-55079504D01*
X138795196Y-55103773D01*
X138789235Y-55127571D01*
X138780970Y-55150671D01*
X138770480Y-55172849D01*
X138757867Y-55193893D01*
X138743253Y-55213598D01*
X138726777Y-55231777D01*
X138708598Y-55248253D01*
X138688893Y-55262867D01*
X138667849Y-55275480D01*
X138645671Y-55285970D01*
X138622571Y-55294235D01*
X138598773Y-55300196D01*
X138574504Y-55303796D01*
X138550000Y-55305000D01*
X135450000Y-55305000D01*
X135425496Y-55303796D01*
X135401227Y-55300196D01*
X135377429Y-55294235D01*
X135354329Y-55285970D01*
X135332151Y-55275480D01*
X135311107Y-55262867D01*
X135291402Y-55248253D01*
X135273223Y-55231777D01*
X135256747Y-55213598D01*
X135242133Y-55193893D01*
X135229520Y-55172849D01*
X135219030Y-55150671D01*
X135210765Y-55127571D01*
X135204804Y-55103773D01*
X135201204Y-55079504D01*
X135200000Y-55055000D01*
X135200000Y-53755000D01*
X135201204Y-53730496D01*
X135204804Y-53706227D01*
X135210765Y-53682429D01*
X135219030Y-53659329D01*
X135229520Y-53637151D01*
X135242133Y-53616107D01*
X135256747Y-53596402D01*
X135273223Y-53578223D01*
X135291402Y-53561747D01*
X135311107Y-53547133D01*
X135332151Y-53534520D01*
X135354329Y-53524030D01*
X135377429Y-53515765D01*
X135401227Y-53509804D01*
X135425496Y-53506204D01*
X135450000Y-53505000D01*
X138550000Y-53505000D01*
X138574504Y-53506204D01*
X138574504Y-53506204D01*
G37*
D17*
X137000000Y-54405000D03*
D18*
X137000000Y-50595000D03*
D16*
G36*
X138574504Y-53506204D02*
G01*
X138598773Y-53509804D01*
X138622571Y-53515765D01*
X138645671Y-53524030D01*
X138667849Y-53534520D01*
X138688893Y-53547133D01*
X138708598Y-53561747D01*
X138726777Y-53578223D01*
X138743253Y-53596402D01*
X138757867Y-53616107D01*
X138770480Y-53637151D01*
X138780970Y-53659329D01*
X138789235Y-53682429D01*
X138795196Y-53706227D01*
X138798796Y-53730496D01*
X138800000Y-53755000D01*
X138800000Y-55055000D01*
X138798796Y-55079504D01*
X138795196Y-55103773D01*
X138789235Y-55127571D01*
X138780970Y-55150671D01*
X138770480Y-55172849D01*
X138757867Y-55193893D01*
X138743253Y-55213598D01*
X138726777Y-55231777D01*
X138708598Y-55248253D01*
X138688893Y-55262867D01*
X138667849Y-55275480D01*
X138645671Y-55285970D01*
X138622571Y-55294235D01*
X138598773Y-55300196D01*
X138574504Y-55303796D01*
X138550000Y-55305000D01*
X135450000Y-55305000D01*
X135425496Y-55303796D01*
X135401227Y-55300196D01*
X135377429Y-55294235D01*
X135354329Y-55285970D01*
X135332151Y-55275480D01*
X135311107Y-55262867D01*
X135291402Y-55248253D01*
X135273223Y-55231777D01*
X135256747Y-55213598D01*
X135242133Y-55193893D01*
X135229520Y-55172849D01*
X135219030Y-55150671D01*
X135210765Y-55127571D01*
X135204804Y-55103773D01*
X135201204Y-55079504D01*
X135200000Y-55055000D01*
X135200000Y-53755000D01*
X135201204Y-53730496D01*
X135204804Y-53706227D01*
X135210765Y-53682429D01*
X135219030Y-53659329D01*
X135229520Y-53637151D01*
X135242133Y-53616107D01*
X135256747Y-53596402D01*
X135273223Y-53578223D01*
X135291402Y-53561747D01*
X135311107Y-53547133D01*
X135332151Y-53534520D01*
X135354329Y-53524030D01*
X135377429Y-53515765D01*
X135401227Y-53509804D01*
X135425496Y-53506204D01*
X135450000Y-53505000D01*
X138550000Y-53505000D01*
X138574504Y-53506204D01*
X138574504Y-53506204D01*
G37*
D17*
X137000000Y-54405000D03*
D16*
G36*
X138574504Y-66006204D02*
G01*
X138598773Y-66009804D01*
X138622571Y-66015765D01*
X138645671Y-66024030D01*
X138667849Y-66034520D01*
X138688893Y-66047133D01*
X138708598Y-66061747D01*
X138726777Y-66078223D01*
X138743253Y-66096402D01*
X138757867Y-66116107D01*
X138770480Y-66137151D01*
X138780970Y-66159329D01*
X138789235Y-66182429D01*
X138795196Y-66206227D01*
X138798796Y-66230496D01*
X138800000Y-66255000D01*
X138800000Y-67555000D01*
X138798796Y-67579504D01*
X138795196Y-67603773D01*
X138789235Y-67627571D01*
X138780970Y-67650671D01*
X138770480Y-67672849D01*
X138757867Y-67693893D01*
X138743253Y-67713598D01*
X138726777Y-67731777D01*
X138708598Y-67748253D01*
X138688893Y-67762867D01*
X138667849Y-67775480D01*
X138645671Y-67785970D01*
X138622571Y-67794235D01*
X138598773Y-67800196D01*
X138574504Y-67803796D01*
X138550000Y-67805000D01*
X135450000Y-67805000D01*
X135425496Y-67803796D01*
X135401227Y-67800196D01*
X135377429Y-67794235D01*
X135354329Y-67785970D01*
X135332151Y-67775480D01*
X135311107Y-67762867D01*
X135291402Y-67748253D01*
X135273223Y-67731777D01*
X135256747Y-67713598D01*
X135242133Y-67693893D01*
X135229520Y-67672849D01*
X135219030Y-67650671D01*
X135210765Y-67627571D01*
X135204804Y-67603773D01*
X135201204Y-67579504D01*
X135200000Y-67555000D01*
X135200000Y-66255000D01*
X135201204Y-66230496D01*
X135204804Y-66206227D01*
X135210765Y-66182429D01*
X135219030Y-66159329D01*
X135229520Y-66137151D01*
X135242133Y-66116107D01*
X135256747Y-66096402D01*
X135273223Y-66078223D01*
X135291402Y-66061747D01*
X135311107Y-66047133D01*
X135332151Y-66034520D01*
X135354329Y-66024030D01*
X135377429Y-66015765D01*
X135401227Y-66009804D01*
X135425496Y-66006204D01*
X135450000Y-66005000D01*
X138550000Y-66005000D01*
X138574504Y-66006204D01*
X138574504Y-66006204D01*
G37*
D17*
X137000000Y-66905000D03*
D18*
X137000000Y-63095000D03*
D16*
G36*
X138574504Y-66006204D02*
G01*
X138598773Y-66009804D01*
X138622571Y-66015765D01*
X138645671Y-66024030D01*
X138667849Y-66034520D01*
X138688893Y-66047133D01*
X138708598Y-66061747D01*
X138726777Y-66078223D01*
X138743253Y-66096402D01*
X138757867Y-66116107D01*
X138770480Y-66137151D01*
X138780970Y-66159329D01*
X138789235Y-66182429D01*
X138795196Y-66206227D01*
X138798796Y-66230496D01*
X138800000Y-66255000D01*
X138800000Y-67555000D01*
X138798796Y-67579504D01*
X138795196Y-67603773D01*
X138789235Y-67627571D01*
X138780970Y-67650671D01*
X138770480Y-67672849D01*
X138757867Y-67693893D01*
X138743253Y-67713598D01*
X138726777Y-67731777D01*
X138708598Y-67748253D01*
X138688893Y-67762867D01*
X138667849Y-67775480D01*
X138645671Y-67785970D01*
X138622571Y-67794235D01*
X138598773Y-67800196D01*
X138574504Y-67803796D01*
X138550000Y-67805000D01*
X135450000Y-67805000D01*
X135425496Y-67803796D01*
X135401227Y-67800196D01*
X135377429Y-67794235D01*
X135354329Y-67785970D01*
X135332151Y-67775480D01*
X135311107Y-67762867D01*
X135291402Y-67748253D01*
X135273223Y-67731777D01*
X135256747Y-67713598D01*
X135242133Y-67693893D01*
X135229520Y-67672849D01*
X135219030Y-67650671D01*
X135210765Y-67627571D01*
X135204804Y-67603773D01*
X135201204Y-67579504D01*
X135200000Y-67555000D01*
X135200000Y-66255000D01*
X135201204Y-66230496D01*
X135204804Y-66206227D01*
X135210765Y-66182429D01*
X135219030Y-66159329D01*
X135229520Y-66137151D01*
X135242133Y-66116107D01*
X135256747Y-66096402D01*
X135273223Y-66078223D01*
X135291402Y-66061747D01*
X135311107Y-66047133D01*
X135332151Y-66034520D01*
X135354329Y-66024030D01*
X135377429Y-66015765D01*
X135401227Y-66009804D01*
X135425496Y-66006204D01*
X135450000Y-66005000D01*
X138550000Y-66005000D01*
X138574504Y-66006204D01*
X138574504Y-66006204D01*
G37*
D17*
X137000000Y-66905000D03*
D18*
X137000000Y-63095000D03*
X137000000Y-75595000D03*
D16*
G36*
X138574504Y-78506204D02*
G01*
X138598773Y-78509804D01*
X138622571Y-78515765D01*
X138645671Y-78524030D01*
X138667849Y-78534520D01*
X138688893Y-78547133D01*
X138708598Y-78561747D01*
X138726777Y-78578223D01*
X138743253Y-78596402D01*
X138757867Y-78616107D01*
X138770480Y-78637151D01*
X138780970Y-78659329D01*
X138789235Y-78682429D01*
X138795196Y-78706227D01*
X138798796Y-78730496D01*
X138800000Y-78755000D01*
X138800000Y-80055000D01*
X138798796Y-80079504D01*
X138795196Y-80103773D01*
X138789235Y-80127571D01*
X138780970Y-80150671D01*
X138770480Y-80172849D01*
X138757867Y-80193893D01*
X138743253Y-80213598D01*
X138726777Y-80231777D01*
X138708598Y-80248253D01*
X138688893Y-80262867D01*
X138667849Y-80275480D01*
X138645671Y-80285970D01*
X138622571Y-80294235D01*
X138598773Y-80300196D01*
X138574504Y-80303796D01*
X138550000Y-80305000D01*
X135450000Y-80305000D01*
X135425496Y-80303796D01*
X135401227Y-80300196D01*
X135377429Y-80294235D01*
X135354329Y-80285970D01*
X135332151Y-80275480D01*
X135311107Y-80262867D01*
X135291402Y-80248253D01*
X135273223Y-80231777D01*
X135256747Y-80213598D01*
X135242133Y-80193893D01*
X135229520Y-80172849D01*
X135219030Y-80150671D01*
X135210765Y-80127571D01*
X135204804Y-80103773D01*
X135201204Y-80079504D01*
X135200000Y-80055000D01*
X135200000Y-78755000D01*
X135201204Y-78730496D01*
X135204804Y-78706227D01*
X135210765Y-78682429D01*
X135219030Y-78659329D01*
X135229520Y-78637151D01*
X135242133Y-78616107D01*
X135256747Y-78596402D01*
X135273223Y-78578223D01*
X135291402Y-78561747D01*
X135311107Y-78547133D01*
X135332151Y-78534520D01*
X135354329Y-78524030D01*
X135377429Y-78515765D01*
X135401227Y-78509804D01*
X135425496Y-78506204D01*
X135450000Y-78505000D01*
X138550000Y-78505000D01*
X138574504Y-78506204D01*
X138574504Y-78506204D01*
G37*
D17*
X137000000Y-79405000D03*
D18*
X137000000Y-75595000D03*
D16*
G36*
X138574504Y-78506204D02*
G01*
X138598773Y-78509804D01*
X138622571Y-78515765D01*
X138645671Y-78524030D01*
X138667849Y-78534520D01*
X138688893Y-78547133D01*
X138708598Y-78561747D01*
X138726777Y-78578223D01*
X138743253Y-78596402D01*
X138757867Y-78616107D01*
X138770480Y-78637151D01*
X138780970Y-78659329D01*
X138789235Y-78682429D01*
X138795196Y-78706227D01*
X138798796Y-78730496D01*
X138800000Y-78755000D01*
X138800000Y-80055000D01*
X138798796Y-80079504D01*
X138795196Y-80103773D01*
X138789235Y-80127571D01*
X138780970Y-80150671D01*
X138770480Y-80172849D01*
X138757867Y-80193893D01*
X138743253Y-80213598D01*
X138726777Y-80231777D01*
X138708598Y-80248253D01*
X138688893Y-80262867D01*
X138667849Y-80275480D01*
X138645671Y-80285970D01*
X138622571Y-80294235D01*
X138598773Y-80300196D01*
X138574504Y-80303796D01*
X138550000Y-80305000D01*
X135450000Y-80305000D01*
X135425496Y-80303796D01*
X135401227Y-80300196D01*
X135377429Y-80294235D01*
X135354329Y-80285970D01*
X135332151Y-80275480D01*
X135311107Y-80262867D01*
X135291402Y-80248253D01*
X135273223Y-80231777D01*
X135256747Y-80213598D01*
X135242133Y-80193893D01*
X135229520Y-80172849D01*
X135219030Y-80150671D01*
X135210765Y-80127571D01*
X135204804Y-80103773D01*
X135201204Y-80079504D01*
X135200000Y-80055000D01*
X135200000Y-78755000D01*
X135201204Y-78730496D01*
X135204804Y-78706227D01*
X135210765Y-78682429D01*
X135219030Y-78659329D01*
X135229520Y-78637151D01*
X135242133Y-78616107D01*
X135256747Y-78596402D01*
X135273223Y-78578223D01*
X135291402Y-78561747D01*
X135311107Y-78547133D01*
X135332151Y-78534520D01*
X135354329Y-78524030D01*
X135377429Y-78515765D01*
X135401227Y-78509804D01*
X135425496Y-78506204D01*
X135450000Y-78505000D01*
X138550000Y-78505000D01*
X138574504Y-78506204D01*
X138574504Y-78506204D01*
G37*
D17*
X137000000Y-79405000D03*
D19*
X71750000Y-49000000D03*
X69750000Y-46500000D03*
X72750000Y-49000000D03*
X70750000Y-49000000D03*
X69750000Y-49000000D03*
X73750000Y-49000000D03*
X71750000Y-50000000D03*
X73750000Y-50000000D03*
X72750000Y-50000000D03*
X69750000Y-50000000D03*
X70750000Y-50000000D03*
X70750000Y-51000000D03*
X71750000Y-51000000D03*
X72750000Y-51000000D03*
X69750000Y-51000000D03*
X68750000Y-46500000D03*
X67750000Y-46500000D03*
X66750000Y-46500000D03*
X65750000Y-46500000D03*
X71750000Y-52000000D03*
X70750000Y-52000000D03*
X71750000Y-53000000D03*
X70750000Y-53000000D03*
X74750000Y-49000000D03*
X68750000Y-51000000D03*
X67750000Y-51000000D03*
X71750000Y-54000000D03*
X70750000Y-54000000D03*
X74250000Y-80500000D03*
X74250000Y-79500000D03*
X76250000Y-78500000D03*
X75250000Y-78500000D03*
X74250000Y-78500000D03*
X95000000Y-72250000D03*
X96500000Y-60500000D03*
X95000000Y-52750000D03*
X96500000Y-79750000D03*
X101500000Y-76000000D03*
X101500000Y-77250000D03*
X101500000Y-78500000D03*
X122375000Y-64625000D03*
X122375000Y-65375000D03*
X121000000Y-63500000D03*
X121000000Y-64250000D03*
X121500000Y-65000000D03*
X92750000Y-63500000D03*
X93000000Y-83000000D03*
X94000000Y-83000000D03*
X92000000Y-83000000D03*
X97250000Y-83000000D03*
X109500000Y-84250000D03*
X113750000Y-76000000D03*
X112750000Y-76000000D03*
X111750000Y-76000000D03*
X110750000Y-76000000D03*
X113750000Y-77000000D03*
X113750000Y-78000000D03*
X113750000Y-79000000D03*
X113750000Y-80000000D03*
X112750000Y-80000000D03*
X111750000Y-80000000D03*
X110750000Y-80000000D03*
X111750000Y-75000000D03*
X110750000Y-75000000D03*
X112750000Y-75000000D03*
X113750000Y-75000000D03*
X113750000Y-81000000D03*
X112750000Y-81000000D03*
X111750000Y-81000000D03*
X110750000Y-81000000D03*
X111750000Y-50000000D03*
X110750000Y-50000000D03*
X112750000Y-50000000D03*
X113750000Y-50000000D03*
X112750000Y-54000000D03*
X110750000Y-55000000D03*
X113750000Y-49000000D03*
X112750000Y-49000000D03*
X111750000Y-49000000D03*
X113750000Y-51000000D03*
X110750000Y-49000000D03*
X111750000Y-55000000D03*
X110750000Y-54000000D03*
X113750000Y-55000000D03*
X112750000Y-55000000D03*
X113750000Y-52000000D03*
X111750000Y-54000000D03*
X113750000Y-53000000D03*
X113750000Y-54000000D03*
X87750000Y-43750000D03*
X87750000Y-42750000D03*
X87750000Y-41750000D03*
X86750000Y-41750000D03*
X87750000Y-40750000D03*
X86750000Y-40750000D03*
X85750000Y-40750000D03*
X85750000Y-41750000D03*
X87750000Y-44750000D03*
X87750000Y-45750000D03*
X86750000Y-45750000D03*
X85750000Y-45750000D03*
X85750000Y-46750000D03*
X86750000Y-46750000D03*
X84750000Y-40750000D03*
X84750000Y-41750000D03*
X84750000Y-45750000D03*
X84750000Y-46750000D03*
X79500000Y-90000000D03*
X79500000Y-91000000D03*
X80500000Y-91000000D03*
X80500000Y-92000000D03*
X79500000Y-92000000D03*
X78500000Y-92000000D03*
X77500000Y-92000000D03*
X81500000Y-92000000D03*
X80500000Y-93000000D03*
X77500000Y-93000000D03*
X81500000Y-93000000D03*
X79500000Y-93000000D03*
X78500000Y-93000000D03*
X76500000Y-93000000D03*
X82500000Y-93000000D03*
X78500000Y-94000000D03*
X77500000Y-94000000D03*
X81500000Y-94000000D03*
X79500000Y-94000000D03*
X80500000Y-94000000D03*
X82500000Y-94000000D03*
X76500000Y-94000000D03*
X75500000Y-94000000D03*
X75500000Y-93000000D03*
X74500000Y-94000000D03*
X74500000Y-93000000D03*
X83500000Y-94000000D03*
X83500000Y-93000000D03*
X84500000Y-93000000D03*
X84500000Y-94000000D03*
X102270000Y-60020000D03*
X96500000Y-57250000D03*
X94500000Y-65250000D03*
X101000000Y-65000000D03*
X101500000Y-58250000D03*
X106750000Y-46250000D03*
D20*
X92526410Y-71360000D02*
X97200010Y-66686400D01*
X81250000Y-71360000D02*
X92526410Y-71360000D01*
X97200010Y-66686400D02*
X97200010Y-63186400D01*
X100366410Y-60020000D02*
X102270000Y-60020000D01*
X97200010Y-63186400D02*
X100366410Y-60020000D01*
D21*
X96500000Y-57250000D02*
X94500000Y-59250000D01*
X94500000Y-59250000D02*
X94500000Y-65250000D01*
D20*
X90622820Y-73900000D02*
X99522820Y-65000000D01*
X99522820Y-65000000D02*
X101000000Y-65000000D01*
X81250000Y-73900000D02*
X90622820Y-73900000D01*
X101500000Y-58250000D02*
X96750000Y-63000000D01*
X96750000Y-63000000D02*
X96750000Y-66500000D01*
X94430000Y-68820000D02*
X81250000Y-68820000D01*
X96750000Y-66500000D02*
X94430000Y-68820000D01*
X106750000Y-46250000D02*
X104000000Y-46250000D01*
X83970000Y-66280000D02*
X81250000Y-66280000D01*
X104000000Y-46250000D02*
X83970000Y-66280000D01*
D22*
G36*
X136731728Y-36017599D02*
G01*
X136017599Y-36731728D01*
X135456512Y-37571455D01*
X135070028Y-38504509D01*
X134873000Y-39495035D01*
X134873000Y-40504965D01*
X135070028Y-41495491D01*
X135456512Y-42428545D01*
X136017599Y-43268272D01*
X136731728Y-43982401D01*
X137571455Y-44543488D01*
X138504509Y-44929972D01*
X139495035Y-45127000D01*
X140504965Y-45127000D01*
X141495491Y-44929972D01*
X142428545Y-44543488D01*
X143268272Y-43982401D01*
X143982401Y-43268272D01*
X144340001Y-42733085D01*
X144340000Y-87266914D01*
X143982401Y-86731728D01*
X143268272Y-86017599D01*
X142428545Y-85456512D01*
X141495491Y-85070028D01*
X140504965Y-84873000D01*
X139495035Y-84873000D01*
X138504509Y-85070028D01*
X137571455Y-85456512D01*
X136731728Y-86017599D01*
X136017599Y-86731728D01*
X135456512Y-87571455D01*
X135070028Y-88504509D01*
X134873000Y-89495035D01*
X134873000Y-90504965D01*
X135070028Y-91495491D01*
X135456512Y-92428545D01*
X136017599Y-93268272D01*
X136731728Y-93982401D01*
X137266913Y-94340000D01*
X72733087Y-94340000D01*
X73268272Y-93982401D01*
X73982401Y-93268272D01*
X74543488Y-92428545D01*
X74929972Y-91495491D01*
X75127000Y-90504965D01*
X75127000Y-89495035D01*
X74929972Y-88504509D01*
X74543488Y-87571455D01*
X73982401Y-86731728D01*
X73268272Y-86017599D01*
X72428545Y-85456512D01*
X71495491Y-85070028D01*
X70504965Y-84873000D01*
X69495035Y-84873000D01*
X68504509Y-85070028D01*
X67571455Y-85456512D01*
X66731728Y-86017599D01*
X66017599Y-86731728D01*
X65660000Y-87266913D01*
X65660000Y-81520000D01*
X79757815Y-81520000D01*
X79786487Y-81811111D01*
X79871401Y-82091034D01*
X80009294Y-82349014D01*
X80194866Y-82575134D01*
X80420986Y-82760706D01*
X80678966Y-82898599D01*
X80958889Y-82983513D01*
X81177050Y-83005000D01*
X81322950Y-83005000D01*
X81541111Y-82983513D01*
X81821034Y-82898599D01*
X82079014Y-82760706D01*
X82305134Y-82575134D01*
X82490706Y-82349014D01*
X82628599Y-82091034D01*
X82693559Y-81876890D01*
X127808524Y-81876890D01*
X127853175Y-82024099D01*
X127978359Y-82286920D01*
X128152412Y-82520269D01*
X128368645Y-82715178D01*
X128618748Y-82864157D01*
X128893109Y-82961481D01*
X129123000Y-82840814D01*
X129123000Y-81647000D01*
X129377000Y-81647000D01*
X129377000Y-82840814D01*
X129606891Y-82961481D01*
X129881252Y-82864157D01*
X130131355Y-82715178D01*
X130347588Y-82520269D01*
X130521641Y-82286920D01*
X130646825Y-82024099D01*
X130691476Y-81876890D01*
X130570155Y-81647000D01*
X129377000Y-81647000D01*
X129123000Y-81647000D01*
X127929845Y-81647000D01*
X127808524Y-81876890D01*
X82693559Y-81876890D01*
X82713513Y-81811111D01*
X82742185Y-81520000D01*
X82713513Y-81228889D01*
X82628599Y-80948966D01*
X82490706Y-80690986D01*
X82305134Y-80464866D01*
X82079014Y-80279294D01*
X82014477Y-80244799D01*
X82131355Y-80175178D01*
X82347588Y-79980269D01*
X82521641Y-79746920D01*
X82646825Y-79484099D01*
X82691476Y-79336890D01*
X82570155Y-79107000D01*
X81377000Y-79107000D01*
X81377000Y-79127000D01*
X81123000Y-79127000D01*
X81123000Y-79107000D01*
X79929845Y-79107000D01*
X79808524Y-79336890D01*
X79853175Y-79484099D01*
X79978359Y-79746920D01*
X80152412Y-79980269D01*
X80368645Y-80175178D01*
X80485523Y-80244799D01*
X80420986Y-80279294D01*
X80194866Y-80464866D01*
X80009294Y-80690986D01*
X79871401Y-80948966D01*
X79786487Y-81228889D01*
X79757815Y-81520000D01*
X65660000Y-81520000D01*
X65660000Y-79878363D01*
X70765000Y-79878363D01*
X70765000Y-80121637D01*
X70812460Y-80360236D01*
X70905557Y-80584992D01*
X71040713Y-80787267D01*
X71212733Y-80959287D01*
X71415008Y-81094443D01*
X71639764Y-81187540D01*
X71878363Y-81235000D01*
X72121637Y-81235000D01*
X72360236Y-81187540D01*
X72584992Y-81094443D01*
X72787267Y-80959287D01*
X72959287Y-80787267D01*
X73094443Y-80584992D01*
X73187540Y-80360236D01*
X73235000Y-80121637D01*
X73235000Y-79878363D01*
X73187540Y-79639764D01*
X73094443Y-79415008D01*
X72959287Y-79212733D01*
X72787267Y-79040713D01*
X72584992Y-78905557D01*
X72360236Y-78812460D01*
X72121637Y-78765000D01*
X71878363Y-78765000D01*
X71639764Y-78812460D01*
X71415008Y-78905557D01*
X71212733Y-79040713D01*
X71040713Y-79212733D01*
X70905557Y-79415008D01*
X70812460Y-79639764D01*
X70765000Y-79878363D01*
X65660000Y-79878363D01*
X65660000Y-74878363D01*
X70765000Y-74878363D01*
X70765000Y-75121637D01*
X70812460Y-75360236D01*
X70905557Y-75584992D01*
X71040713Y-75787267D01*
X71212733Y-75959287D01*
X71415008Y-76094443D01*
X71639764Y-76187540D01*
X71878363Y-76235000D01*
X72121637Y-76235000D01*
X72360236Y-76187540D01*
X72584992Y-76094443D01*
X72787267Y-75959287D01*
X72959287Y-75787267D01*
X73094443Y-75584992D01*
X73187540Y-75360236D01*
X73235000Y-75121637D01*
X73235000Y-74878363D01*
X73187540Y-74639764D01*
X73094443Y-74415008D01*
X72959287Y-74212733D01*
X72787267Y-74040713D01*
X72584992Y-73905557D01*
X72360236Y-73812460D01*
X72121637Y-73765000D01*
X71878363Y-73765000D01*
X71639764Y-73812460D01*
X71415008Y-73905557D01*
X71212733Y-74040713D01*
X71040713Y-74212733D01*
X70905557Y-74415008D01*
X70812460Y-74639764D01*
X70765000Y-74878363D01*
X65660000Y-74878363D01*
X65660000Y-66905000D01*
X70557573Y-66905000D01*
X70587210Y-67205913D01*
X70674983Y-67495261D01*
X70817519Y-67761927D01*
X71009339Y-67995661D01*
X71243073Y-68187481D01*
X71509739Y-68330017D01*
X71799087Y-68417790D01*
X72024592Y-68440000D01*
X73975408Y-68440000D01*
X74200913Y-68417790D01*
X74490261Y-68330017D01*
X74756927Y-68187481D01*
X74990661Y-67995661D01*
X75182481Y-67761927D01*
X75325017Y-67495261D01*
X75412790Y-67205913D01*
X75442427Y-66905000D01*
X75412790Y-66604087D01*
X75325017Y-66314739D01*
X75306449Y-66280000D01*
X79757815Y-66280000D01*
X79786487Y-66571111D01*
X79871401Y-66851034D01*
X80009294Y-67109014D01*
X80194866Y-67335134D01*
X80420986Y-67520706D01*
X80475791Y-67550000D01*
X80420986Y-67579294D01*
X80194866Y-67764866D01*
X80009294Y-67990986D01*
X79871401Y-68248966D01*
X79786487Y-68528889D01*
X79757815Y-68820000D01*
X79786487Y-69111111D01*
X79871401Y-69391034D01*
X80009294Y-69649014D01*
X80194866Y-69875134D01*
X80420986Y-70060706D01*
X80475791Y-70090000D01*
X80420986Y-70119294D01*
X80194866Y-70304866D01*
X80009294Y-70530986D01*
X79871401Y-70788966D01*
X79786487Y-71068889D01*
X79757815Y-71360000D01*
X79786487Y-71651111D01*
X79871401Y-71931034D01*
X80009294Y-72189014D01*
X80194866Y-72415134D01*
X80420986Y-72600706D01*
X80475791Y-72630000D01*
X80420986Y-72659294D01*
X80194866Y-72844866D01*
X80009294Y-73070986D01*
X79871401Y-73328966D01*
X79786487Y-73608889D01*
X79757815Y-73900000D01*
X79786487Y-74191111D01*
X79871401Y-74471034D01*
X80009294Y-74729014D01*
X80194866Y-74955134D01*
X80420986Y-75140706D01*
X80475791Y-75170000D01*
X80420986Y-75199294D01*
X80194866Y-75384866D01*
X80009294Y-75610986D01*
X79871401Y-75868966D01*
X79786487Y-76148889D01*
X79757815Y-76440000D01*
X79786487Y-76731111D01*
X79871401Y-77011034D01*
X80009294Y-77269014D01*
X80194866Y-77495134D01*
X80420986Y-77680706D01*
X80485523Y-77715201D01*
X80368645Y-77784822D01*
X80152412Y-77979731D01*
X79978359Y-78213080D01*
X79853175Y-78475901D01*
X79808524Y-78623110D01*
X79929845Y-78853000D01*
X81123000Y-78853000D01*
X81123000Y-78833000D01*
X81377000Y-78833000D01*
X81377000Y-78853000D01*
X82570155Y-78853000D01*
X82691476Y-78623110D01*
X82646825Y-78475901D01*
X82521641Y-78213080D01*
X82347588Y-77979731D01*
X82131355Y-77784822D01*
X82014477Y-77715201D01*
X82079014Y-77680706D01*
X82305134Y-77495134D01*
X82490706Y-77269014D01*
X82628599Y-77011034D01*
X82713513Y-76731111D01*
X82742185Y-76440000D01*
X82713513Y-76148889D01*
X82628599Y-75868966D01*
X82490706Y-75610986D01*
X82305134Y-75384866D01*
X82079014Y-75199294D01*
X82024209Y-75170000D01*
X82079014Y-75140706D01*
X82305134Y-74955134D01*
X82490706Y-74729014D01*
X82527595Y-74660000D01*
X90585498Y-74660000D01*
X90622820Y-74663676D01*
X90660142Y-74660000D01*
X90660153Y-74660000D01*
X90771806Y-74649003D01*
X90915067Y-74605546D01*
X91047096Y-74534974D01*
X91162821Y-74440001D01*
X91186624Y-74410997D01*
X99837622Y-65760000D01*
X100296289Y-65760000D01*
X100340226Y-65803937D01*
X100509744Y-65917205D01*
X100698102Y-65995226D01*
X100898061Y-66035000D01*
X101101939Y-66035000D01*
X101301898Y-65995226D01*
X101490256Y-65917205D01*
X101659774Y-65803937D01*
X101803937Y-65659774D01*
X101917205Y-65490256D01*
X101995226Y-65301898D01*
X102035000Y-65101939D01*
X102035000Y-64898061D01*
X101995226Y-64698102D01*
X101917205Y-64509744D01*
X101803937Y-64340226D01*
X101659774Y-64196063D01*
X101490256Y-64082795D01*
X101301898Y-64004774D01*
X101101939Y-63965000D01*
X100898061Y-63965000D01*
X100698102Y-64004774D01*
X100509744Y-64082795D01*
X100340226Y-64196063D01*
X100296289Y-64240000D01*
X99560145Y-64240000D01*
X99522820Y-64236324D01*
X99485495Y-64240000D01*
X99485487Y-64240000D01*
X99373834Y-64250997D01*
X99230573Y-64294454D01*
X99098544Y-64365026D01*
X98982819Y-64459999D01*
X98959021Y-64488997D01*
X97960010Y-65488008D01*
X97960010Y-63501201D01*
X100681212Y-60780000D01*
X101566289Y-60780000D01*
X101610226Y-60823937D01*
X101779744Y-60937205D01*
X101968102Y-61015226D01*
X102168061Y-61055000D01*
X102371939Y-61055000D01*
X102571898Y-61015226D01*
X102760256Y-60937205D01*
X102929774Y-60823937D01*
X103073937Y-60679774D01*
X103187205Y-60510256D01*
X103265226Y-60321898D01*
X103305000Y-60121939D01*
X103305000Y-59918061D01*
X103265226Y-59718102D01*
X103187205Y-59529744D01*
X103167331Y-59500000D01*
X108511928Y-59500000D01*
X108515000Y-64714250D01*
X108588880Y-64788130D01*
X108565172Y-64906176D01*
X108564829Y-65090355D01*
X108588785Y-65211965D01*
X108515000Y-65285750D01*
X108511928Y-70500000D01*
X108524188Y-70624482D01*
X108560498Y-70744180D01*
X108619463Y-70854494D01*
X108698815Y-70951185D01*
X108795506Y-71030537D01*
X108905820Y-71089502D01*
X109025518Y-71125812D01*
X109150000Y-71138072D01*
X111464250Y-71135000D01*
X111623000Y-70976250D01*
X111623000Y-70643395D01*
X111634541Y-70654936D01*
X111750000Y-70648655D01*
X111865459Y-70654936D01*
X111877000Y-70643395D01*
X111877000Y-70976250D01*
X112035750Y-71135000D01*
X114350000Y-71138072D01*
X114474482Y-71125812D01*
X114594180Y-71089502D01*
X114704494Y-71030537D01*
X114801185Y-70951185D01*
X114880537Y-70854494D01*
X114939502Y-70744180D01*
X114975812Y-70624482D01*
X114988072Y-70500000D01*
X114985000Y-65285750D01*
X114911120Y-65211870D01*
X114934828Y-65093824D01*
X114935171Y-64909645D01*
X114911215Y-64788035D01*
X114985000Y-64714250D01*
X114988072Y-59500000D01*
X114975812Y-59375518D01*
X114939502Y-59255820D01*
X114880537Y-59145506D01*
X114801185Y-59048815D01*
X114704494Y-58969463D01*
X114594180Y-58910498D01*
X114474482Y-58874188D01*
X114350000Y-58861928D01*
X112035750Y-58865000D01*
X111877000Y-59023750D01*
X111877000Y-59356605D01*
X111865459Y-59345064D01*
X111750000Y-59351345D01*
X111634541Y-59345064D01*
X111623000Y-59356605D01*
X111623000Y-59023750D01*
X111464250Y-58865000D01*
X109150000Y-58861928D01*
X109025518Y-58874188D01*
X108905820Y-58910498D01*
X108795506Y-58969463D01*
X108698815Y-59048815D01*
X108619463Y-59145506D01*
X108560498Y-59255820D01*
X108524188Y-59375518D01*
X108511928Y-59500000D01*
X103167331Y-59500000D01*
X103073937Y-59360226D01*
X102929774Y-59216063D01*
X102760256Y-59102795D01*
X102571898Y-59024774D01*
X102371939Y-58985000D01*
X102228711Y-58985000D01*
X102303937Y-58909774D01*
X102417205Y-58740256D01*
X102495226Y-58551898D01*
X102535000Y-58351939D01*
X102535000Y-58148061D01*
X102495226Y-57948102D01*
X102417205Y-57759744D01*
X102303937Y-57590226D01*
X102159774Y-57446063D01*
X101990256Y-57332795D01*
X101801898Y-57254774D01*
X101601939Y-57215000D01*
X101398061Y-57215000D01*
X101198102Y-57254774D01*
X101009744Y-57332795D01*
X100840226Y-57446063D01*
X100696063Y-57590226D01*
X100582795Y-57759744D01*
X100504774Y-57948102D01*
X100465000Y-58148061D01*
X100465000Y-58210197D01*
X96239003Y-62436196D01*
X96209999Y-62459999D01*
X96154871Y-62527174D01*
X96115026Y-62575724D01*
X96064067Y-62671061D01*
X96044454Y-62707754D01*
X96000997Y-62851015D01*
X95990000Y-62962668D01*
X95990000Y-62962678D01*
X95986324Y-63000000D01*
X95990000Y-63037323D01*
X95990001Y-66185196D01*
X94115199Y-68060000D01*
X82527595Y-68060000D01*
X82490706Y-67990986D01*
X82305134Y-67764866D01*
X82079014Y-67579294D01*
X82024209Y-67550000D01*
X82079014Y-67520706D01*
X82305134Y-67335134D01*
X82490706Y-67109014D01*
X82527595Y-67040000D01*
X83932678Y-67040000D01*
X83970000Y-67043676D01*
X84007322Y-67040000D01*
X84007333Y-67040000D01*
X84118986Y-67029003D01*
X84262247Y-66985546D01*
X84394276Y-66914974D01*
X84510001Y-66820001D01*
X84533804Y-66790997D01*
X86176740Y-65148061D01*
X93465000Y-65148061D01*
X93465000Y-65351939D01*
X93504774Y-65551898D01*
X93582795Y-65740256D01*
X93696063Y-65909774D01*
X93840226Y-66053937D01*
X94009744Y-66167205D01*
X94198102Y-66245226D01*
X94398061Y-66285000D01*
X94601939Y-66285000D01*
X94801898Y-66245226D01*
X94990256Y-66167205D01*
X95159774Y-66053937D01*
X95303937Y-65909774D01*
X95417205Y-65740256D01*
X95495226Y-65551898D01*
X95535000Y-65351939D01*
X95535000Y-65148061D01*
X95495226Y-64948102D01*
X95417205Y-64759744D01*
X95385000Y-64711546D01*
X95385000Y-59616578D01*
X96745044Y-58256535D01*
X96801898Y-58245226D01*
X96990256Y-58167205D01*
X97159774Y-58053937D01*
X97303937Y-57909774D01*
X97417205Y-57740256D01*
X97495226Y-57551898D01*
X97535000Y-57351939D01*
X97535000Y-57148061D01*
X97495226Y-56948102D01*
X97417205Y-56759744D01*
X97303937Y-56590226D01*
X97159774Y-56446063D01*
X96990256Y-56332795D01*
X96801898Y-56254774D01*
X96601939Y-56215000D01*
X96398061Y-56215000D01*
X96198102Y-56254774D01*
X96009744Y-56332795D01*
X95840226Y-56446063D01*
X95696063Y-56590226D01*
X95582795Y-56759744D01*
X95504774Y-56948102D01*
X95493465Y-57004956D01*
X93904956Y-58593466D01*
X93871183Y-58621183D01*
X93760589Y-58755942D01*
X93678411Y-58909688D01*
X93643157Y-59025904D01*
X93636207Y-59048815D01*
X93627805Y-59076511D01*
X93615000Y-59206524D01*
X93615000Y-59206531D01*
X93610719Y-59250000D01*
X93615000Y-59293469D01*
X93615001Y-64711544D01*
X93582795Y-64759744D01*
X93504774Y-64948102D01*
X93465000Y-65148061D01*
X86176740Y-65148061D01*
X100284801Y-51040000D01*
X127757815Y-51040000D01*
X127786487Y-51331111D01*
X127871401Y-51611034D01*
X128009294Y-51869014D01*
X128194866Y-52095134D01*
X128420986Y-52280706D01*
X128475791Y-52310000D01*
X128420986Y-52339294D01*
X128194866Y-52524866D01*
X128009294Y-52750986D01*
X127871401Y-53008966D01*
X127786487Y-53288889D01*
X127757815Y-53580000D01*
X127786487Y-53871111D01*
X127871401Y-54151034D01*
X128009294Y-54409014D01*
X128194866Y-54635134D01*
X128420986Y-54820706D01*
X128475791Y-54850000D01*
X128420986Y-54879294D01*
X128194866Y-55064866D01*
X128009294Y-55290986D01*
X127871401Y-55548966D01*
X127786487Y-55828889D01*
X127757815Y-56120000D01*
X127786487Y-56411111D01*
X127871401Y-56691034D01*
X128009294Y-56949014D01*
X128194866Y-57175134D01*
X128420986Y-57360706D01*
X128475791Y-57390000D01*
X128420986Y-57419294D01*
X128194866Y-57604866D01*
X128009294Y-57830986D01*
X127871401Y-58088966D01*
X127786487Y-58368889D01*
X127757815Y-58660000D01*
X127786487Y-58951111D01*
X127871401Y-59231034D01*
X128009294Y-59489014D01*
X128194866Y-59715134D01*
X128420986Y-59900706D01*
X128475791Y-59930000D01*
X128420986Y-59959294D01*
X128194866Y-60144866D01*
X128009294Y-60370986D01*
X127871401Y-60628966D01*
X127786487Y-60908889D01*
X127757815Y-61200000D01*
X127786487Y-61491111D01*
X127871401Y-61771034D01*
X128009294Y-62029014D01*
X128194866Y-62255134D01*
X128420986Y-62440706D01*
X128475791Y-62470000D01*
X128420986Y-62499294D01*
X128194866Y-62684866D01*
X128009294Y-62910986D01*
X127871401Y-63168966D01*
X127786487Y-63448889D01*
X127757815Y-63740000D01*
X127786487Y-64031111D01*
X127871401Y-64311034D01*
X128009294Y-64569014D01*
X128194866Y-64795134D01*
X128420986Y-64980706D01*
X128475791Y-65010000D01*
X128420986Y-65039294D01*
X128194866Y-65224866D01*
X128009294Y-65450986D01*
X127871401Y-65708966D01*
X127786487Y-65988889D01*
X127757815Y-66280000D01*
X127786487Y-66571111D01*
X127871401Y-66851034D01*
X128009294Y-67109014D01*
X128194866Y-67335134D01*
X128420986Y-67520706D01*
X128475791Y-67550000D01*
X128420986Y-67579294D01*
X128194866Y-67764866D01*
X128009294Y-67990986D01*
X127871401Y-68248966D01*
X127786487Y-68528889D01*
X127757815Y-68820000D01*
X127786487Y-69111111D01*
X127871401Y-69391034D01*
X128009294Y-69649014D01*
X128194866Y-69875134D01*
X128420986Y-70060706D01*
X128475791Y-70090000D01*
X128420986Y-70119294D01*
X128194866Y-70304866D01*
X128009294Y-70530986D01*
X127871401Y-70788966D01*
X127786487Y-71068889D01*
X127757815Y-71360000D01*
X127786487Y-71651111D01*
X127871401Y-71931034D01*
X128009294Y-72189014D01*
X128194866Y-72415134D01*
X128420986Y-72600706D01*
X128475791Y-72630000D01*
X128420986Y-72659294D01*
X128194866Y-72844866D01*
X128009294Y-73070986D01*
X127871401Y-73328966D01*
X127786487Y-73608889D01*
X127757815Y-73900000D01*
X127786487Y-74191111D01*
X127871401Y-74471034D01*
X128009294Y-74729014D01*
X128194866Y-74955134D01*
X128420986Y-75140706D01*
X128475791Y-75170000D01*
X128420986Y-75199294D01*
X128194866Y-75384866D01*
X128009294Y-75610986D01*
X127871401Y-75868966D01*
X127786487Y-76148889D01*
X127757815Y-76440000D01*
X127786487Y-76731111D01*
X127871401Y-77011034D01*
X128009294Y-77269014D01*
X128194866Y-77495134D01*
X128420986Y-77680706D01*
X128475791Y-77710000D01*
X128420986Y-77739294D01*
X128194866Y-77924866D01*
X128009294Y-78150986D01*
X127871401Y-78408966D01*
X127786487Y-78688889D01*
X127757815Y-78980000D01*
X127786487Y-79271111D01*
X127871401Y-79551034D01*
X128009294Y-79809014D01*
X128194866Y-80035134D01*
X128420986Y-80220706D01*
X128485523Y-80255201D01*
X128368645Y-80324822D01*
X128152412Y-80519731D01*
X127978359Y-80753080D01*
X127853175Y-81015901D01*
X127808524Y-81163110D01*
X127929845Y-81393000D01*
X129123000Y-81393000D01*
X129123000Y-81373000D01*
X129377000Y-81373000D01*
X129377000Y-81393000D01*
X130570155Y-81393000D01*
X130691476Y-81163110D01*
X130646825Y-81015901D01*
X130521641Y-80753080D01*
X130347588Y-80519731D01*
X130131355Y-80324822D01*
X130014477Y-80255201D01*
X130079014Y-80220706D01*
X130305134Y-80035134D01*
X130490706Y-79809014D01*
X130628599Y-79551034D01*
X130713513Y-79271111D01*
X130742185Y-78980000D01*
X130720025Y-78755000D01*
X134561928Y-78755000D01*
X134561928Y-80055000D01*
X134578992Y-80228254D01*
X134629528Y-80394850D01*
X134711595Y-80548386D01*
X134822038Y-80682962D01*
X134956614Y-80793405D01*
X135110150Y-80875472D01*
X135276746Y-80926008D01*
X135450000Y-80943072D01*
X138550000Y-80943072D01*
X138723254Y-80926008D01*
X138889850Y-80875472D01*
X139043386Y-80793405D01*
X139177962Y-80682962D01*
X139288405Y-80548386D01*
X139370472Y-80394850D01*
X139421008Y-80228254D01*
X139438072Y-80055000D01*
X139438072Y-78755000D01*
X139421008Y-78581746D01*
X139370472Y-78415150D01*
X139288405Y-78261614D01*
X139177962Y-78127038D01*
X139043386Y-78016595D01*
X138889850Y-77934528D01*
X138723254Y-77883992D01*
X138550000Y-77866928D01*
X135450000Y-77866928D01*
X135276746Y-77883992D01*
X135110150Y-77934528D01*
X134956614Y-78016595D01*
X134822038Y-78127038D01*
X134711595Y-78261614D01*
X134629528Y-78415150D01*
X134578992Y-78581746D01*
X134561928Y-78755000D01*
X130720025Y-78755000D01*
X130713513Y-78688889D01*
X130628599Y-78408966D01*
X130490706Y-78150986D01*
X130305134Y-77924866D01*
X130079014Y-77739294D01*
X130024209Y-77710000D01*
X130079014Y-77680706D01*
X130305134Y-77495134D01*
X130490706Y-77269014D01*
X130628599Y-77011034D01*
X130713513Y-76731111D01*
X130742185Y-76440000D01*
X130713513Y-76148889D01*
X130628599Y-75868966D01*
X130490706Y-75610986D01*
X130477587Y-75595000D01*
X134557573Y-75595000D01*
X134587210Y-75895913D01*
X134674983Y-76185261D01*
X134817519Y-76451927D01*
X135009339Y-76685661D01*
X135243073Y-76877481D01*
X135509739Y-77020017D01*
X135799087Y-77107790D01*
X136024592Y-77130000D01*
X137975408Y-77130000D01*
X138200913Y-77107790D01*
X138490261Y-77020017D01*
X138756927Y-76877481D01*
X138990661Y-76685661D01*
X139182481Y-76451927D01*
X139325017Y-76185261D01*
X139412790Y-75895913D01*
X139442427Y-75595000D01*
X139412790Y-75294087D01*
X139325017Y-75004739D01*
X139182481Y-74738073D01*
X138990661Y-74504339D01*
X138756927Y-74312519D01*
X138490261Y-74169983D01*
X138200913Y-74082210D01*
X137975408Y-74060000D01*
X136024592Y-74060000D01*
X135799087Y-74082210D01*
X135509739Y-74169983D01*
X135243073Y-74312519D01*
X135009339Y-74504339D01*
X134817519Y-74738073D01*
X134674983Y-75004739D01*
X134587210Y-75294087D01*
X134557573Y-75595000D01*
X130477587Y-75595000D01*
X130305134Y-75384866D01*
X130079014Y-75199294D01*
X130024209Y-75170000D01*
X130079014Y-75140706D01*
X130305134Y-74955134D01*
X130490706Y-74729014D01*
X130628599Y-74471034D01*
X130713513Y-74191111D01*
X130742185Y-73900000D01*
X130713513Y-73608889D01*
X130628599Y-73328966D01*
X130490706Y-73070986D01*
X130305134Y-72844866D01*
X130079014Y-72659294D01*
X130024209Y-72630000D01*
X130079014Y-72600706D01*
X130305134Y-72415134D01*
X130490706Y-72189014D01*
X130628599Y-71931034D01*
X130713513Y-71651111D01*
X130742185Y-71360000D01*
X130713513Y-71068889D01*
X130628599Y-70788966D01*
X130490706Y-70530986D01*
X130305134Y-70304866D01*
X130079014Y-70119294D01*
X130024209Y-70090000D01*
X130079014Y-70060706D01*
X130305134Y-69875134D01*
X130490706Y-69649014D01*
X130628599Y-69391034D01*
X130713513Y-69111111D01*
X130742185Y-68820000D01*
X130713513Y-68528889D01*
X130628599Y-68248966D01*
X130490706Y-67990986D01*
X130305134Y-67764866D01*
X130079014Y-67579294D01*
X130024209Y-67550000D01*
X130079014Y-67520706D01*
X130305134Y-67335134D01*
X130490706Y-67109014D01*
X130628599Y-66851034D01*
X130713513Y-66571111D01*
X130742185Y-66280000D01*
X130739723Y-66255000D01*
X134561928Y-66255000D01*
X134561928Y-67555000D01*
X134578992Y-67728254D01*
X134629528Y-67894850D01*
X134711595Y-68048386D01*
X134822038Y-68182962D01*
X134956614Y-68293405D01*
X135110150Y-68375472D01*
X135276746Y-68426008D01*
X135450000Y-68443072D01*
X138550000Y-68443072D01*
X138723254Y-68426008D01*
X138889850Y-68375472D01*
X139043386Y-68293405D01*
X139177962Y-68182962D01*
X139288405Y-68048386D01*
X139370472Y-67894850D01*
X139421008Y-67728254D01*
X139438072Y-67555000D01*
X139438072Y-66255000D01*
X139421008Y-66081746D01*
X139370472Y-65915150D01*
X139288405Y-65761614D01*
X139177962Y-65627038D01*
X139043386Y-65516595D01*
X138889850Y-65434528D01*
X138723254Y-65383992D01*
X138550000Y-65366928D01*
X135450000Y-65366928D01*
X135276746Y-65383992D01*
X135110150Y-65434528D01*
X134956614Y-65516595D01*
X134822038Y-65627038D01*
X134711595Y-65761614D01*
X134629528Y-65915150D01*
X134578992Y-66081746D01*
X134561928Y-66255000D01*
X130739723Y-66255000D01*
X130713513Y-65988889D01*
X130628599Y-65708966D01*
X130490706Y-65450986D01*
X130305134Y-65224866D01*
X130079014Y-65039294D01*
X130024209Y-65010000D01*
X130079014Y-64980706D01*
X130305134Y-64795134D01*
X130490706Y-64569014D01*
X130628599Y-64311034D01*
X130713513Y-64031111D01*
X130742185Y-63740000D01*
X130713513Y-63448889D01*
X130628599Y-63168966D01*
X130589064Y-63095000D01*
X134557573Y-63095000D01*
X134587210Y-63395913D01*
X134674983Y-63685261D01*
X134817519Y-63951927D01*
X135009339Y-64185661D01*
X135243073Y-64377481D01*
X135509739Y-64520017D01*
X135799087Y-64607790D01*
X136024592Y-64630000D01*
X137975408Y-64630000D01*
X138200913Y-64607790D01*
X138490261Y-64520017D01*
X138756927Y-64377481D01*
X138990661Y-64185661D01*
X139182481Y-63951927D01*
X139325017Y-63685261D01*
X139412790Y-63395913D01*
X139442427Y-63095000D01*
X139412790Y-62794087D01*
X139325017Y-62504739D01*
X139182481Y-62238073D01*
X138990661Y-62004339D01*
X138756927Y-61812519D01*
X138490261Y-61669983D01*
X138200913Y-61582210D01*
X137975408Y-61560000D01*
X136024592Y-61560000D01*
X135799087Y-61582210D01*
X135509739Y-61669983D01*
X135243073Y-61812519D01*
X135009339Y-62004339D01*
X134817519Y-62238073D01*
X134674983Y-62504739D01*
X134587210Y-62794087D01*
X134557573Y-63095000D01*
X130589064Y-63095000D01*
X130490706Y-62910986D01*
X130305134Y-62684866D01*
X130079014Y-62499294D01*
X130024209Y-62470000D01*
X130079014Y-62440706D01*
X130305134Y-62255134D01*
X130490706Y-62029014D01*
X130628599Y-61771034D01*
X130713513Y-61491111D01*
X130742185Y-61200000D01*
X130713513Y-60908889D01*
X130628599Y-60628966D01*
X130490706Y-60370986D01*
X130305134Y-60144866D01*
X130079014Y-59959294D01*
X130024209Y-59930000D01*
X130079014Y-59900706D01*
X130305134Y-59715134D01*
X130490706Y-59489014D01*
X130628599Y-59231034D01*
X130713513Y-58951111D01*
X130742185Y-58660000D01*
X130713513Y-58368889D01*
X130628599Y-58088966D01*
X130490706Y-57830986D01*
X130305134Y-57604866D01*
X130079014Y-57419294D01*
X130024209Y-57390000D01*
X130079014Y-57360706D01*
X130305134Y-57175134D01*
X130490706Y-56949014D01*
X130628599Y-56691034D01*
X130713513Y-56411111D01*
X130742185Y-56120000D01*
X130713513Y-55828889D01*
X130628599Y-55548966D01*
X130490706Y-55290986D01*
X130305134Y-55064866D01*
X130079014Y-54879294D01*
X130024209Y-54850000D01*
X130079014Y-54820706D01*
X130305134Y-54635134D01*
X130490706Y-54409014D01*
X130628599Y-54151034D01*
X130713513Y-53871111D01*
X130724948Y-53755000D01*
X134561928Y-53755000D01*
X134561928Y-55055000D01*
X134578992Y-55228254D01*
X134629528Y-55394850D01*
X134711595Y-55548386D01*
X134822038Y-55682962D01*
X134956614Y-55793405D01*
X135110150Y-55875472D01*
X135276746Y-55926008D01*
X135450000Y-55943072D01*
X138550000Y-55943072D01*
X138723254Y-55926008D01*
X138889850Y-55875472D01*
X139043386Y-55793405D01*
X139177962Y-55682962D01*
X139288405Y-55548386D01*
X139370472Y-55394850D01*
X139421008Y-55228254D01*
X139438072Y-55055000D01*
X139438072Y-53755000D01*
X139421008Y-53581746D01*
X139370472Y-53415150D01*
X139288405Y-53261614D01*
X139177962Y-53127038D01*
X139043386Y-53016595D01*
X138889850Y-52934528D01*
X138723254Y-52883992D01*
X138550000Y-52866928D01*
X135450000Y-52866928D01*
X135276746Y-52883992D01*
X135110150Y-52934528D01*
X134956614Y-53016595D01*
X134822038Y-53127038D01*
X134711595Y-53261614D01*
X134629528Y-53415150D01*
X134578992Y-53581746D01*
X134561928Y-53755000D01*
X130724948Y-53755000D01*
X130742185Y-53580000D01*
X130713513Y-53288889D01*
X130628599Y-53008966D01*
X130490706Y-52750986D01*
X130305134Y-52524866D01*
X130079014Y-52339294D01*
X130024209Y-52310000D01*
X130079014Y-52280706D01*
X130305134Y-52095134D01*
X130490706Y-51869014D01*
X130628599Y-51611034D01*
X130713513Y-51331111D01*
X130742185Y-51040000D01*
X130713513Y-50748889D01*
X130666832Y-50595000D01*
X134557573Y-50595000D01*
X134587210Y-50895913D01*
X134674983Y-51185261D01*
X134817519Y-51451927D01*
X135009339Y-51685661D01*
X135243073Y-51877481D01*
X135509739Y-52020017D01*
X135799087Y-52107790D01*
X136024592Y-52130000D01*
X137975408Y-52130000D01*
X138200913Y-52107790D01*
X138490261Y-52020017D01*
X138756927Y-51877481D01*
X138990661Y-51685661D01*
X139182481Y-51451927D01*
X139325017Y-51185261D01*
X139412790Y-50895913D01*
X139442427Y-50595000D01*
X139412790Y-50294087D01*
X139325017Y-50004739D01*
X139182481Y-49738073D01*
X138990661Y-49504339D01*
X138756927Y-49312519D01*
X138490261Y-49169983D01*
X138200913Y-49082210D01*
X137975408Y-49060000D01*
X136024592Y-49060000D01*
X135799087Y-49082210D01*
X135509739Y-49169983D01*
X135243073Y-49312519D01*
X135009339Y-49504339D01*
X134817519Y-49738073D01*
X134674983Y-50004739D01*
X134587210Y-50294087D01*
X134557573Y-50595000D01*
X130666832Y-50595000D01*
X130628599Y-50468966D01*
X130490706Y-50210986D01*
X130305134Y-49984866D01*
X130275313Y-49960393D01*
X130344180Y-49939502D01*
X130454494Y-49880537D01*
X130551185Y-49801185D01*
X130630537Y-49704494D01*
X130689502Y-49594180D01*
X130725812Y-49474482D01*
X130738072Y-49350000D01*
X130735000Y-48785750D01*
X130576250Y-48627000D01*
X129377000Y-48627000D01*
X129377000Y-48647000D01*
X129123000Y-48647000D01*
X129123000Y-48627000D01*
X127923750Y-48627000D01*
X127765000Y-48785750D01*
X127761928Y-49350000D01*
X127774188Y-49474482D01*
X127810498Y-49594180D01*
X127869463Y-49704494D01*
X127948815Y-49801185D01*
X128045506Y-49880537D01*
X128155820Y-49939502D01*
X128224687Y-49960393D01*
X128194866Y-49984866D01*
X128009294Y-50210986D01*
X127871401Y-50468966D01*
X127786487Y-50748889D01*
X127757815Y-51040000D01*
X100284801Y-51040000D01*
X103674801Y-47650000D01*
X127761928Y-47650000D01*
X127765000Y-48214250D01*
X127923750Y-48373000D01*
X129123000Y-48373000D01*
X129123000Y-47173750D01*
X129377000Y-47173750D01*
X129377000Y-48373000D01*
X130576250Y-48373000D01*
X130735000Y-48214250D01*
X130738072Y-47650000D01*
X130725812Y-47525518D01*
X130689502Y-47405820D01*
X130630537Y-47295506D01*
X130551185Y-47198815D01*
X130454494Y-47119463D01*
X130344180Y-47060498D01*
X130224482Y-47024188D01*
X130100000Y-47011928D01*
X129535750Y-47015000D01*
X129377000Y-47173750D01*
X129123000Y-47173750D01*
X128964250Y-47015000D01*
X128400000Y-47011928D01*
X128275518Y-47024188D01*
X128155820Y-47060498D01*
X128045506Y-47119463D01*
X127948815Y-47198815D01*
X127869463Y-47295506D01*
X127810498Y-47405820D01*
X127774188Y-47525518D01*
X127761928Y-47650000D01*
X103674801Y-47650000D01*
X104314802Y-47010000D01*
X106046289Y-47010000D01*
X106090226Y-47053937D01*
X106259744Y-47167205D01*
X106448102Y-47245226D01*
X106648061Y-47285000D01*
X106851939Y-47285000D01*
X107051898Y-47245226D01*
X107240256Y-47167205D01*
X107409774Y-47053937D01*
X107553937Y-46909774D01*
X107667205Y-46740256D01*
X107745226Y-46551898D01*
X107785000Y-46351939D01*
X107785000Y-46148061D01*
X107745226Y-45948102D01*
X107667205Y-45759744D01*
X107553937Y-45590226D01*
X107409774Y-45446063D01*
X107240256Y-45332795D01*
X107051898Y-45254774D01*
X106851939Y-45215000D01*
X106648061Y-45215000D01*
X106448102Y-45254774D01*
X106259744Y-45332795D01*
X106090226Y-45446063D01*
X106046289Y-45490000D01*
X104037325Y-45490000D01*
X104000000Y-45486324D01*
X103962675Y-45490000D01*
X103962667Y-45490000D01*
X103851014Y-45500997D01*
X103707753Y-45544454D01*
X103575724Y-45615026D01*
X103459999Y-45709999D01*
X103436201Y-45738997D01*
X83655199Y-65520000D01*
X82527595Y-65520000D01*
X82490706Y-65450986D01*
X82305134Y-65224866D01*
X82079014Y-65039294D01*
X82014477Y-65004799D01*
X82131355Y-64935178D01*
X82347588Y-64740269D01*
X82521641Y-64506920D01*
X82646825Y-64244099D01*
X82691476Y-64096890D01*
X82570155Y-63867000D01*
X81377000Y-63867000D01*
X81377000Y-63887000D01*
X81123000Y-63887000D01*
X81123000Y-63867000D01*
X79929845Y-63867000D01*
X79808524Y-64096890D01*
X79853175Y-64244099D01*
X79978359Y-64506920D01*
X80152412Y-64740269D01*
X80368645Y-64935178D01*
X80485523Y-65004799D01*
X80420986Y-65039294D01*
X80194866Y-65224866D01*
X80009294Y-65450986D01*
X79871401Y-65708966D01*
X79786487Y-65988889D01*
X79757815Y-66280000D01*
X75306449Y-66280000D01*
X75182481Y-66048073D01*
X74990661Y-65814339D01*
X74756927Y-65622519D01*
X74490261Y-65479983D01*
X74200913Y-65392210D01*
X73975408Y-65370000D01*
X72024592Y-65370000D01*
X71799087Y-65392210D01*
X71509739Y-65479983D01*
X71243073Y-65622519D01*
X71009339Y-65814339D01*
X70817519Y-66048073D01*
X70674983Y-66314739D01*
X70587210Y-66604087D01*
X70557573Y-66905000D01*
X65660000Y-66905000D01*
X65660000Y-63995000D01*
X70561928Y-63995000D01*
X70574188Y-64119482D01*
X70610498Y-64239180D01*
X70669463Y-64349494D01*
X70748815Y-64446185D01*
X70845506Y-64525537D01*
X70955820Y-64584502D01*
X71075518Y-64620812D01*
X71200000Y-64633072D01*
X72714250Y-64630000D01*
X72873000Y-64471250D01*
X72873000Y-63222000D01*
X73127000Y-63222000D01*
X73127000Y-64471250D01*
X73285750Y-64630000D01*
X74800000Y-64633072D01*
X74924482Y-64620812D01*
X75044180Y-64584502D01*
X75154494Y-64525537D01*
X75251185Y-64446185D01*
X75330537Y-64349494D01*
X75389502Y-64239180D01*
X75425812Y-64119482D01*
X75438072Y-63995000D01*
X75435000Y-63380750D01*
X75276250Y-63222000D01*
X73127000Y-63222000D01*
X72873000Y-63222000D01*
X70723750Y-63222000D01*
X70565000Y-63380750D01*
X70561928Y-63995000D01*
X65660000Y-63995000D01*
X65660000Y-62195000D01*
X70561928Y-62195000D01*
X70565000Y-62809250D01*
X70723750Y-62968000D01*
X72873000Y-62968000D01*
X72873000Y-61718750D01*
X73127000Y-61718750D01*
X73127000Y-62968000D01*
X75276250Y-62968000D01*
X75435000Y-62809250D01*
X75438072Y-62195000D01*
X75425812Y-62070518D01*
X75389502Y-61950820D01*
X75330537Y-61840506D01*
X75251185Y-61743815D01*
X75154494Y-61664463D01*
X75044180Y-61605498D01*
X74924482Y-61569188D01*
X74800000Y-61556928D01*
X73285750Y-61560000D01*
X73127000Y-61718750D01*
X72873000Y-61718750D01*
X72714250Y-61560000D01*
X71200000Y-61556928D01*
X71075518Y-61569188D01*
X70955820Y-61605498D01*
X70845506Y-61664463D01*
X70748815Y-61743815D01*
X70669463Y-61840506D01*
X70610498Y-61950820D01*
X70574188Y-62070518D01*
X70561928Y-62195000D01*
X65660000Y-62195000D01*
X65660000Y-58660000D01*
X79757815Y-58660000D01*
X79786487Y-58951111D01*
X79871401Y-59231034D01*
X80009294Y-59489014D01*
X80194866Y-59715134D01*
X80420986Y-59900706D01*
X80475791Y-59930000D01*
X80420986Y-59959294D01*
X80194866Y-60144866D01*
X80009294Y-60370986D01*
X79871401Y-60628966D01*
X79786487Y-60908889D01*
X79757815Y-61200000D01*
X79786487Y-61491111D01*
X79871401Y-61771034D01*
X80009294Y-62029014D01*
X80194866Y-62255134D01*
X80420986Y-62440706D01*
X80485523Y-62475201D01*
X80368645Y-62544822D01*
X80152412Y-62739731D01*
X79978359Y-62973080D01*
X79853175Y-63235901D01*
X79808524Y-63383110D01*
X79929845Y-63613000D01*
X81123000Y-63613000D01*
X81123000Y-63593000D01*
X81377000Y-63593000D01*
X81377000Y-63613000D01*
X82570155Y-63613000D01*
X82691476Y-63383110D01*
X82646825Y-63235901D01*
X82521641Y-62973080D01*
X82347588Y-62739731D01*
X82131355Y-62544822D01*
X82014477Y-62475201D01*
X82079014Y-62440706D01*
X82305134Y-62255134D01*
X82490706Y-62029014D01*
X82628599Y-61771034D01*
X82713513Y-61491111D01*
X82742185Y-61200000D01*
X82713513Y-60908889D01*
X82628599Y-60628966D01*
X82490706Y-60370986D01*
X82305134Y-60144866D01*
X82079014Y-59959294D01*
X82024209Y-59930000D01*
X82079014Y-59900706D01*
X82305134Y-59715134D01*
X82490706Y-59489014D01*
X82628599Y-59231034D01*
X82713513Y-58951111D01*
X82742185Y-58660000D01*
X82713513Y-58368889D01*
X82628599Y-58088966D01*
X82490706Y-57830986D01*
X82305134Y-57604866D01*
X82079014Y-57419294D01*
X82014477Y-57384799D01*
X82131355Y-57315178D01*
X82347588Y-57120269D01*
X82521641Y-56886920D01*
X82646825Y-56624099D01*
X82691476Y-56476890D01*
X82570155Y-56247000D01*
X81377000Y-56247000D01*
X81377000Y-56267000D01*
X81123000Y-56267000D01*
X81123000Y-56247000D01*
X79929845Y-56247000D01*
X79808524Y-56476890D01*
X79853175Y-56624099D01*
X79978359Y-56886920D01*
X80152412Y-57120269D01*
X80368645Y-57315178D01*
X80485523Y-57384799D01*
X80420986Y-57419294D01*
X80194866Y-57604866D01*
X80009294Y-57830986D01*
X79871401Y-58088966D01*
X79786487Y-58368889D01*
X79757815Y-58660000D01*
X65660000Y-58660000D01*
X65660000Y-53374193D01*
X67015000Y-53374193D01*
X67015000Y-53725807D01*
X67083596Y-54070665D01*
X67218153Y-54395515D01*
X67413500Y-54687871D01*
X67662129Y-54936500D01*
X67954485Y-55131847D01*
X68279335Y-55266404D01*
X68624193Y-55335000D01*
X68975807Y-55335000D01*
X69320665Y-55266404D01*
X69645515Y-55131847D01*
X69937871Y-54936500D01*
X70186500Y-54687871D01*
X70381847Y-54395515D01*
X70516404Y-54070665D01*
X70585000Y-53725807D01*
X70585000Y-53374193D01*
X70516404Y-53029335D01*
X70381847Y-52704485D01*
X70186500Y-52412129D01*
X69937871Y-52163500D01*
X69645515Y-51968153D01*
X69320665Y-51833596D01*
X68975807Y-51765000D01*
X68624193Y-51765000D01*
X68279335Y-51833596D01*
X67954485Y-51968153D01*
X67662129Y-52163500D01*
X67413500Y-52412129D01*
X67218153Y-52704485D01*
X67083596Y-53029335D01*
X67015000Y-53374193D01*
X65660000Y-53374193D01*
X65660000Y-51040000D01*
X79757815Y-51040000D01*
X79786487Y-51331111D01*
X79871401Y-51611034D01*
X80009294Y-51869014D01*
X80194866Y-52095134D01*
X80420986Y-52280706D01*
X80475791Y-52310000D01*
X80420986Y-52339294D01*
X80194866Y-52524866D01*
X80009294Y-52750986D01*
X79871401Y-53008966D01*
X79786487Y-53288889D01*
X79757815Y-53580000D01*
X79786487Y-53871111D01*
X79871401Y-54151034D01*
X80009294Y-54409014D01*
X80194866Y-54635134D01*
X80420986Y-54820706D01*
X80485523Y-54855201D01*
X80368645Y-54924822D01*
X80152412Y-55119731D01*
X79978359Y-55353080D01*
X79853175Y-55615901D01*
X79808524Y-55763110D01*
X79929845Y-55993000D01*
X81123000Y-55993000D01*
X81123000Y-55973000D01*
X81377000Y-55973000D01*
X81377000Y-55993000D01*
X82570155Y-55993000D01*
X82691476Y-55763110D01*
X82646825Y-55615901D01*
X82521641Y-55353080D01*
X82347588Y-55119731D01*
X82131355Y-54924822D01*
X82014477Y-54855201D01*
X82079014Y-54820706D01*
X82305134Y-54635134D01*
X82490706Y-54409014D01*
X82628599Y-54151034D01*
X82713513Y-53871111D01*
X82742185Y-53580000D01*
X82713513Y-53288889D01*
X82628599Y-53008966D01*
X82490706Y-52750986D01*
X82305134Y-52524866D01*
X82079014Y-52339294D01*
X82024209Y-52310000D01*
X82079014Y-52280706D01*
X82305134Y-52095134D01*
X82490706Y-51869014D01*
X82628599Y-51611034D01*
X82713513Y-51331111D01*
X82742185Y-51040000D01*
X82713513Y-50748889D01*
X82628599Y-50468966D01*
X82490706Y-50210986D01*
X82305134Y-49984866D01*
X82275313Y-49960393D01*
X82344180Y-49939502D01*
X82454494Y-49880537D01*
X82551185Y-49801185D01*
X82630537Y-49704494D01*
X82689502Y-49594180D01*
X82725812Y-49474482D01*
X82738072Y-49350000D01*
X82738072Y-47650000D01*
X82725812Y-47525518D01*
X82689502Y-47405820D01*
X82630537Y-47295506D01*
X82551185Y-47198815D01*
X82454494Y-47119463D01*
X82344180Y-47060498D01*
X82224482Y-47024188D01*
X82100000Y-47011928D01*
X80400000Y-47011928D01*
X80275518Y-47024188D01*
X80155820Y-47060498D01*
X80045506Y-47119463D01*
X79948815Y-47198815D01*
X79869463Y-47295506D01*
X79810498Y-47405820D01*
X79774188Y-47525518D01*
X79761928Y-47650000D01*
X79761928Y-49350000D01*
X79774188Y-49474482D01*
X79810498Y-49594180D01*
X79869463Y-49704494D01*
X79948815Y-49801185D01*
X80045506Y-49880537D01*
X80155820Y-49939502D01*
X80224687Y-49960393D01*
X80194866Y-49984866D01*
X80009294Y-50210986D01*
X79871401Y-50468966D01*
X79786487Y-50748889D01*
X79757815Y-51040000D01*
X65660000Y-51040000D01*
X65660000Y-48674193D01*
X65915000Y-48674193D01*
X65915000Y-49025807D01*
X65983596Y-49370665D01*
X66118153Y-49695515D01*
X66313500Y-49987871D01*
X66562129Y-50236500D01*
X66854485Y-50431847D01*
X67179335Y-50566404D01*
X67524193Y-50635000D01*
X67875807Y-50635000D01*
X68220665Y-50566404D01*
X68545515Y-50431847D01*
X68837871Y-50236500D01*
X69086500Y-49987871D01*
X69281847Y-49695515D01*
X69416404Y-49370665D01*
X69485000Y-49025807D01*
X69485000Y-48674193D01*
X69416404Y-48329335D01*
X69281847Y-48004485D01*
X69086500Y-47712129D01*
X68837871Y-47463500D01*
X68545515Y-47268153D01*
X68220665Y-47133596D01*
X67875807Y-47065000D01*
X67524193Y-47065000D01*
X67179335Y-47133596D01*
X66854485Y-47268153D01*
X66562129Y-47463500D01*
X66313500Y-47712129D01*
X66118153Y-48004485D01*
X65983596Y-48329335D01*
X65915000Y-48674193D01*
X65660000Y-48674193D01*
X65660000Y-42733087D01*
X66017599Y-43268272D01*
X66731728Y-43982401D01*
X67571455Y-44543488D01*
X68504509Y-44929972D01*
X69495035Y-45127000D01*
X70504965Y-45127000D01*
X71495491Y-44929972D01*
X72428545Y-44543488D01*
X73268272Y-43982401D01*
X73982401Y-43268272D01*
X74543488Y-42428545D01*
X74929972Y-41495491D01*
X75127000Y-40504965D01*
X75127000Y-39495035D01*
X74929972Y-38504509D01*
X74543488Y-37571455D01*
X73982401Y-36731728D01*
X73268272Y-36017599D01*
X72733087Y-35660000D01*
X137266913Y-35660000D01*
X136731728Y-36017599D01*
X136731728Y-36017599D01*
G37*
X136731728Y-36017599D02*
X136017599Y-36731728D01*
X135456512Y-37571455D01*
X135070028Y-38504509D01*
X134873000Y-39495035D01*
X134873000Y-40504965D01*
X135070028Y-41495491D01*
X135456512Y-42428545D01*
X136017599Y-43268272D01*
X136731728Y-43982401D01*
X137571455Y-44543488D01*
X138504509Y-44929972D01*
X139495035Y-45127000D01*
X140504965Y-45127000D01*
X141495491Y-44929972D01*
X142428545Y-44543488D01*
X143268272Y-43982401D01*
X143982401Y-43268272D01*
X144340001Y-42733085D01*
X144340000Y-87266914D01*
X143982401Y-86731728D01*
X143268272Y-86017599D01*
X142428545Y-85456512D01*
X141495491Y-85070028D01*
X140504965Y-84873000D01*
X139495035Y-84873000D01*
X138504509Y-85070028D01*
X137571455Y-85456512D01*
X136731728Y-86017599D01*
X136017599Y-86731728D01*
X135456512Y-87571455D01*
X135070028Y-88504509D01*
X134873000Y-89495035D01*
X134873000Y-90504965D01*
X135070028Y-91495491D01*
X135456512Y-92428545D01*
X136017599Y-93268272D01*
X136731728Y-93982401D01*
X137266913Y-94340000D01*
X72733087Y-94340000D01*
X73268272Y-93982401D01*
X73982401Y-93268272D01*
X74543488Y-92428545D01*
X74929972Y-91495491D01*
X75127000Y-90504965D01*
X75127000Y-89495035D01*
X74929972Y-88504509D01*
X74543488Y-87571455D01*
X73982401Y-86731728D01*
X73268272Y-86017599D01*
X72428545Y-85456512D01*
X71495491Y-85070028D01*
X70504965Y-84873000D01*
X69495035Y-84873000D01*
X68504509Y-85070028D01*
X67571455Y-85456512D01*
X66731728Y-86017599D01*
X66017599Y-86731728D01*
X65660000Y-87266913D01*
X65660000Y-81520000D01*
X79757815Y-81520000D01*
X79786487Y-81811111D01*
X79871401Y-82091034D01*
X80009294Y-82349014D01*
X80194866Y-82575134D01*
X80420986Y-82760706D01*
X80678966Y-82898599D01*
X80958889Y-82983513D01*
X81177050Y-83005000D01*
X81322950Y-83005000D01*
X81541111Y-82983513D01*
X81821034Y-82898599D01*
X82079014Y-82760706D01*
X82305134Y-82575134D01*
X82490706Y-82349014D01*
X82628599Y-82091034D01*
X82693559Y-81876890D01*
X127808524Y-81876890D01*
X127853175Y-82024099D01*
X127978359Y-82286920D01*
X128152412Y-82520269D01*
X128368645Y-82715178D01*
X128618748Y-82864157D01*
X128893109Y-82961481D01*
X129123000Y-82840814D01*
X129123000Y-81647000D01*
X129377000Y-81647000D01*
X129377000Y-82840814D01*
X129606891Y-82961481D01*
X129881252Y-82864157D01*
X130131355Y-82715178D01*
X130347588Y-82520269D01*
X130521641Y-82286920D01*
X130646825Y-82024099D01*
X130691476Y-81876890D01*
X130570155Y-81647000D01*
X129377000Y-81647000D01*
X129123000Y-81647000D01*
X127929845Y-81647000D01*
X127808524Y-81876890D01*
X82693559Y-81876890D01*
X82713513Y-81811111D01*
X82742185Y-81520000D01*
X82713513Y-81228889D01*
X82628599Y-80948966D01*
X82490706Y-80690986D01*
X82305134Y-80464866D01*
X82079014Y-80279294D01*
X82014477Y-80244799D01*
X82131355Y-80175178D01*
X82347588Y-79980269D01*
X82521641Y-79746920D01*
X82646825Y-79484099D01*
X82691476Y-79336890D01*
X82570155Y-79107000D01*
X81377000Y-79107000D01*
X81377000Y-79127000D01*
X81123000Y-79127000D01*
X81123000Y-79107000D01*
X79929845Y-79107000D01*
X79808524Y-79336890D01*
X79853175Y-79484099D01*
X79978359Y-79746920D01*
X80152412Y-79980269D01*
X80368645Y-80175178D01*
X80485523Y-80244799D01*
X80420986Y-80279294D01*
X80194866Y-80464866D01*
X80009294Y-80690986D01*
X79871401Y-80948966D01*
X79786487Y-81228889D01*
X79757815Y-81520000D01*
X65660000Y-81520000D01*
X65660000Y-79878363D01*
X70765000Y-79878363D01*
X70765000Y-80121637D01*
X70812460Y-80360236D01*
X70905557Y-80584992D01*
X71040713Y-80787267D01*
X71212733Y-80959287D01*
X71415008Y-81094443D01*
X71639764Y-81187540D01*
X71878363Y-81235000D01*
X72121637Y-81235000D01*
X72360236Y-81187540D01*
X72584992Y-81094443D01*
X72787267Y-80959287D01*
X72959287Y-80787267D01*
X73094443Y-80584992D01*
X73187540Y-80360236D01*
X73235000Y-80121637D01*
X73235000Y-79878363D01*
X73187540Y-79639764D01*
X73094443Y-79415008D01*
X72959287Y-79212733D01*
X72787267Y-79040713D01*
X72584992Y-78905557D01*
X72360236Y-78812460D01*
X72121637Y-78765000D01*
X71878363Y-78765000D01*
X71639764Y-78812460D01*
X71415008Y-78905557D01*
X71212733Y-79040713D01*
X71040713Y-79212733D01*
X70905557Y-79415008D01*
X70812460Y-79639764D01*
X70765000Y-79878363D01*
X65660000Y-79878363D01*
X65660000Y-74878363D01*
X70765000Y-74878363D01*
X70765000Y-75121637D01*
X70812460Y-75360236D01*
X70905557Y-75584992D01*
X71040713Y-75787267D01*
X71212733Y-75959287D01*
X71415008Y-76094443D01*
X71639764Y-76187540D01*
X71878363Y-76235000D01*
X72121637Y-76235000D01*
X72360236Y-76187540D01*
X72584992Y-76094443D01*
X72787267Y-75959287D01*
X72959287Y-75787267D01*
X73094443Y-75584992D01*
X73187540Y-75360236D01*
X73235000Y-75121637D01*
X73235000Y-74878363D01*
X73187540Y-74639764D01*
X73094443Y-74415008D01*
X72959287Y-74212733D01*
X72787267Y-74040713D01*
X72584992Y-73905557D01*
X72360236Y-73812460D01*
X72121637Y-73765000D01*
X71878363Y-73765000D01*
X71639764Y-73812460D01*
X71415008Y-73905557D01*
X71212733Y-74040713D01*
X71040713Y-74212733D01*
X70905557Y-74415008D01*
X70812460Y-74639764D01*
X70765000Y-74878363D01*
X65660000Y-74878363D01*
X65660000Y-66905000D01*
X70557573Y-66905000D01*
X70587210Y-67205913D01*
X70674983Y-67495261D01*
X70817519Y-67761927D01*
X71009339Y-67995661D01*
X71243073Y-68187481D01*
X71509739Y-68330017D01*
X71799087Y-68417790D01*
X72024592Y-68440000D01*
X73975408Y-68440000D01*
X74200913Y-68417790D01*
X74490261Y-68330017D01*
X74756927Y-68187481D01*
X74990661Y-67995661D01*
X75182481Y-67761927D01*
X75325017Y-67495261D01*
X75412790Y-67205913D01*
X75442427Y-66905000D01*
X75412790Y-66604087D01*
X75325017Y-66314739D01*
X75306449Y-66280000D01*
X79757815Y-66280000D01*
X79786487Y-66571111D01*
X79871401Y-66851034D01*
X80009294Y-67109014D01*
X80194866Y-67335134D01*
X80420986Y-67520706D01*
X80475791Y-67550000D01*
X80420986Y-67579294D01*
X80194866Y-67764866D01*
X80009294Y-67990986D01*
X79871401Y-68248966D01*
X79786487Y-68528889D01*
X79757815Y-68820000D01*
X79786487Y-69111111D01*
X79871401Y-69391034D01*
X80009294Y-69649014D01*
X80194866Y-69875134D01*
X80420986Y-70060706D01*
X80475791Y-70090000D01*
X80420986Y-70119294D01*
X80194866Y-70304866D01*
X80009294Y-70530986D01*
X79871401Y-70788966D01*
X79786487Y-71068889D01*
X79757815Y-71360000D01*
X79786487Y-71651111D01*
X79871401Y-71931034D01*
X80009294Y-72189014D01*
X80194866Y-72415134D01*
X80420986Y-72600706D01*
X80475791Y-72630000D01*
X80420986Y-72659294D01*
X80194866Y-72844866D01*
X80009294Y-73070986D01*
X79871401Y-73328966D01*
X79786487Y-73608889D01*
X79757815Y-73900000D01*
X79786487Y-74191111D01*
X79871401Y-74471034D01*
X80009294Y-74729014D01*
X80194866Y-74955134D01*
X80420986Y-75140706D01*
X80475791Y-75170000D01*
X80420986Y-75199294D01*
X80194866Y-75384866D01*
X80009294Y-75610986D01*
X79871401Y-75868966D01*
X79786487Y-76148889D01*
X79757815Y-76440000D01*
X79786487Y-76731111D01*
X79871401Y-77011034D01*
X80009294Y-77269014D01*
X80194866Y-77495134D01*
X80420986Y-77680706D01*
X80485523Y-77715201D01*
X80368645Y-77784822D01*
X80152412Y-77979731D01*
X79978359Y-78213080D01*
X79853175Y-78475901D01*
X79808524Y-78623110D01*
X79929845Y-78853000D01*
X81123000Y-78853000D01*
X81123000Y-78833000D01*
X81377000Y-78833000D01*
X81377000Y-78853000D01*
X82570155Y-78853000D01*
X82691476Y-78623110D01*
X82646825Y-78475901D01*
X82521641Y-78213080D01*
X82347588Y-77979731D01*
X82131355Y-77784822D01*
X82014477Y-77715201D01*
X82079014Y-77680706D01*
X82305134Y-77495134D01*
X82490706Y-77269014D01*
X82628599Y-77011034D01*
X82713513Y-76731111D01*
X82742185Y-76440000D01*
X82713513Y-76148889D01*
X82628599Y-75868966D01*
X82490706Y-75610986D01*
X82305134Y-75384866D01*
X82079014Y-75199294D01*
X82024209Y-75170000D01*
X82079014Y-75140706D01*
X82305134Y-74955134D01*
X82490706Y-74729014D01*
X82527595Y-74660000D01*
X90585498Y-74660000D01*
X90622820Y-74663676D01*
X90660142Y-74660000D01*
X90660153Y-74660000D01*
X90771806Y-74649003D01*
X90915067Y-74605546D01*
X91047096Y-74534974D01*
X91162821Y-74440001D01*
X91186624Y-74410997D01*
X99837622Y-65760000D01*
X100296289Y-65760000D01*
X100340226Y-65803937D01*
X100509744Y-65917205D01*
X100698102Y-65995226D01*
X100898061Y-66035000D01*
X101101939Y-66035000D01*
X101301898Y-65995226D01*
X101490256Y-65917205D01*
X101659774Y-65803937D01*
X101803937Y-65659774D01*
X101917205Y-65490256D01*
X101995226Y-65301898D01*
X102035000Y-65101939D01*
X102035000Y-64898061D01*
X101995226Y-64698102D01*
X101917205Y-64509744D01*
X101803937Y-64340226D01*
X101659774Y-64196063D01*
X101490256Y-64082795D01*
X101301898Y-64004774D01*
X101101939Y-63965000D01*
X100898061Y-63965000D01*
X100698102Y-64004774D01*
X100509744Y-64082795D01*
X100340226Y-64196063D01*
X100296289Y-64240000D01*
X99560145Y-64240000D01*
X99522820Y-64236324D01*
X99485495Y-64240000D01*
X99485487Y-64240000D01*
X99373834Y-64250997D01*
X99230573Y-64294454D01*
X99098544Y-64365026D01*
X98982819Y-64459999D01*
X98959021Y-64488997D01*
X97960010Y-65488008D01*
X97960010Y-63501201D01*
X100681212Y-60780000D01*
X101566289Y-60780000D01*
X101610226Y-60823937D01*
X101779744Y-60937205D01*
X101968102Y-61015226D01*
X102168061Y-61055000D01*
X102371939Y-61055000D01*
X102571898Y-61015226D01*
X102760256Y-60937205D01*
X102929774Y-60823937D01*
X103073937Y-60679774D01*
X103187205Y-60510256D01*
X103265226Y-60321898D01*
X103305000Y-60121939D01*
X103305000Y-59918061D01*
X103265226Y-59718102D01*
X103187205Y-59529744D01*
X103167331Y-59500000D01*
X108511928Y-59500000D01*
X108515000Y-64714250D01*
X108588880Y-64788130D01*
X108565172Y-64906176D01*
X108564829Y-65090355D01*
X108588785Y-65211965D01*
X108515000Y-65285750D01*
X108511928Y-70500000D01*
X108524188Y-70624482D01*
X108560498Y-70744180D01*
X108619463Y-70854494D01*
X108698815Y-70951185D01*
X108795506Y-71030537D01*
X108905820Y-71089502D01*
X109025518Y-71125812D01*
X109150000Y-71138072D01*
X111464250Y-71135000D01*
X111623000Y-70976250D01*
X111623000Y-70643395D01*
X111634541Y-70654936D01*
X111750000Y-70648655D01*
X111865459Y-70654936D01*
X111877000Y-70643395D01*
X111877000Y-70976250D01*
X112035750Y-71135000D01*
X114350000Y-71138072D01*
X114474482Y-71125812D01*
X114594180Y-71089502D01*
X114704494Y-71030537D01*
X114801185Y-70951185D01*
X114880537Y-70854494D01*
X114939502Y-70744180D01*
X114975812Y-70624482D01*
X114988072Y-70500000D01*
X114985000Y-65285750D01*
X114911120Y-65211870D01*
X114934828Y-65093824D01*
X114935171Y-64909645D01*
X114911215Y-64788035D01*
X114985000Y-64714250D01*
X114988072Y-59500000D01*
X114975812Y-59375518D01*
X114939502Y-59255820D01*
X114880537Y-59145506D01*
X114801185Y-59048815D01*
X114704494Y-58969463D01*
X114594180Y-58910498D01*
X114474482Y-58874188D01*
X114350000Y-58861928D01*
X112035750Y-58865000D01*
X111877000Y-59023750D01*
X111877000Y-59356605D01*
X111865459Y-59345064D01*
X111750000Y-59351345D01*
X111634541Y-59345064D01*
X111623000Y-59356605D01*
X111623000Y-59023750D01*
X111464250Y-58865000D01*
X109150000Y-58861928D01*
X109025518Y-58874188D01*
X108905820Y-58910498D01*
X108795506Y-58969463D01*
X108698815Y-59048815D01*
X108619463Y-59145506D01*
X108560498Y-59255820D01*
X108524188Y-59375518D01*
X108511928Y-59500000D01*
X103167331Y-59500000D01*
X103073937Y-59360226D01*
X102929774Y-59216063D01*
X102760256Y-59102795D01*
X102571898Y-59024774D01*
X102371939Y-58985000D01*
X102228711Y-58985000D01*
X102303937Y-58909774D01*
X102417205Y-58740256D01*
X102495226Y-58551898D01*
X102535000Y-58351939D01*
X102535000Y-58148061D01*
X102495226Y-57948102D01*
X102417205Y-57759744D01*
X102303937Y-57590226D01*
X102159774Y-57446063D01*
X101990256Y-57332795D01*
X101801898Y-57254774D01*
X101601939Y-57215000D01*
X101398061Y-57215000D01*
X101198102Y-57254774D01*
X101009744Y-57332795D01*
X100840226Y-57446063D01*
X100696063Y-57590226D01*
X100582795Y-57759744D01*
X100504774Y-57948102D01*
X100465000Y-58148061D01*
X100465000Y-58210197D01*
X96239003Y-62436196D01*
X96209999Y-62459999D01*
X96154871Y-62527174D01*
X96115026Y-62575724D01*
X96064067Y-62671061D01*
X96044454Y-62707754D01*
X96000997Y-62851015D01*
X95990000Y-62962668D01*
X95990000Y-62962678D01*
X95986324Y-63000000D01*
X95990000Y-63037323D01*
X95990001Y-66185196D01*
X94115199Y-68060000D01*
X82527595Y-68060000D01*
X82490706Y-67990986D01*
X82305134Y-67764866D01*
X82079014Y-67579294D01*
X82024209Y-67550000D01*
X82079014Y-67520706D01*
X82305134Y-67335134D01*
X82490706Y-67109014D01*
X82527595Y-67040000D01*
X83932678Y-67040000D01*
X83970000Y-67043676D01*
X84007322Y-67040000D01*
X84007333Y-67040000D01*
X84118986Y-67029003D01*
X84262247Y-66985546D01*
X84394276Y-66914974D01*
X84510001Y-66820001D01*
X84533804Y-66790997D01*
X86176740Y-65148061D01*
X93465000Y-65148061D01*
X93465000Y-65351939D01*
X93504774Y-65551898D01*
X93582795Y-65740256D01*
X93696063Y-65909774D01*
X93840226Y-66053937D01*
X94009744Y-66167205D01*
X94198102Y-66245226D01*
X94398061Y-66285000D01*
X94601939Y-66285000D01*
X94801898Y-66245226D01*
X94990256Y-66167205D01*
X95159774Y-66053937D01*
X95303937Y-65909774D01*
X95417205Y-65740256D01*
X95495226Y-65551898D01*
X95535000Y-65351939D01*
X95535000Y-65148061D01*
X95495226Y-64948102D01*
X95417205Y-64759744D01*
X95385000Y-64711546D01*
X95385000Y-59616578D01*
X96745044Y-58256535D01*
X96801898Y-58245226D01*
X96990256Y-58167205D01*
X97159774Y-58053937D01*
X97303937Y-57909774D01*
X97417205Y-57740256D01*
X97495226Y-57551898D01*
X97535000Y-57351939D01*
X97535000Y-57148061D01*
X97495226Y-56948102D01*
X97417205Y-56759744D01*
X97303937Y-56590226D01*
X97159774Y-56446063D01*
X96990256Y-56332795D01*
X96801898Y-56254774D01*
X96601939Y-56215000D01*
X96398061Y-56215000D01*
X96198102Y-56254774D01*
X96009744Y-56332795D01*
X95840226Y-56446063D01*
X95696063Y-56590226D01*
X95582795Y-56759744D01*
X95504774Y-56948102D01*
X95493465Y-57004956D01*
X93904956Y-58593466D01*
X93871183Y-58621183D01*
X93760589Y-58755942D01*
X93678411Y-58909688D01*
X93643157Y-59025904D01*
X93636207Y-59048815D01*
X93627805Y-59076511D01*
X93615000Y-59206524D01*
X93615000Y-59206531D01*
X93610719Y-59250000D01*
X93615000Y-59293469D01*
X93615001Y-64711544D01*
X93582795Y-64759744D01*
X93504774Y-64948102D01*
X93465000Y-65148061D01*
X86176740Y-65148061D01*
X100284801Y-51040000D01*
X127757815Y-51040000D01*
X127786487Y-51331111D01*
X127871401Y-51611034D01*
X128009294Y-51869014D01*
X128194866Y-52095134D01*
X128420986Y-52280706D01*
X128475791Y-52310000D01*
X128420986Y-52339294D01*
X128194866Y-52524866D01*
X128009294Y-52750986D01*
X127871401Y-53008966D01*
X127786487Y-53288889D01*
X127757815Y-53580000D01*
X127786487Y-53871111D01*
X127871401Y-54151034D01*
X128009294Y-54409014D01*
X128194866Y-54635134D01*
X128420986Y-54820706D01*
X128475791Y-54850000D01*
X128420986Y-54879294D01*
X128194866Y-55064866D01*
X128009294Y-55290986D01*
X127871401Y-55548966D01*
X127786487Y-55828889D01*
X127757815Y-56120000D01*
X127786487Y-56411111D01*
X127871401Y-56691034D01*
X128009294Y-56949014D01*
X128194866Y-57175134D01*
X128420986Y-57360706D01*
X128475791Y-57390000D01*
X128420986Y-57419294D01*
X128194866Y-57604866D01*
X128009294Y-57830986D01*
X127871401Y-58088966D01*
X127786487Y-58368889D01*
X127757815Y-58660000D01*
X127786487Y-58951111D01*
X127871401Y-59231034D01*
X128009294Y-59489014D01*
X128194866Y-59715134D01*
X128420986Y-59900706D01*
X128475791Y-59930000D01*
X128420986Y-59959294D01*
X128194866Y-60144866D01*
X128009294Y-60370986D01*
X127871401Y-60628966D01*
X127786487Y-60908889D01*
X127757815Y-61200000D01*
X127786487Y-61491111D01*
X127871401Y-61771034D01*
X128009294Y-62029014D01*
X128194866Y-62255134D01*
X128420986Y-62440706D01*
X128475791Y-62470000D01*
X128420986Y-62499294D01*
X128194866Y-62684866D01*
X128009294Y-62910986D01*
X127871401Y-63168966D01*
X127786487Y-63448889D01*
X127757815Y-63740000D01*
X127786487Y-64031111D01*
X127871401Y-64311034D01*
X128009294Y-64569014D01*
X128194866Y-64795134D01*
X128420986Y-64980706D01*
X128475791Y-65010000D01*
X128420986Y-65039294D01*
X128194866Y-65224866D01*
X128009294Y-65450986D01*
X127871401Y-65708966D01*
X127786487Y-65988889D01*
X127757815Y-66280000D01*
X127786487Y-66571111D01*
X127871401Y-66851034D01*
X128009294Y-67109014D01*
X128194866Y-67335134D01*
X128420986Y-67520706D01*
X128475791Y-67550000D01*
X128420986Y-67579294D01*
X128194866Y-67764866D01*
X128009294Y-67990986D01*
X127871401Y-68248966D01*
X127786487Y-68528889D01*
X127757815Y-68820000D01*
X127786487Y-69111111D01*
X127871401Y-69391034D01*
X128009294Y-69649014D01*
X128194866Y-69875134D01*
X128420986Y-70060706D01*
X128475791Y-70090000D01*
X128420986Y-70119294D01*
X128194866Y-70304866D01*
X128009294Y-70530986D01*
X127871401Y-70788966D01*
X127786487Y-71068889D01*
X127757815Y-71360000D01*
X127786487Y-71651111D01*
X127871401Y-71931034D01*
X128009294Y-72189014D01*
X128194866Y-72415134D01*
X128420986Y-72600706D01*
X128475791Y-72630000D01*
X128420986Y-72659294D01*
X128194866Y-72844866D01*
X128009294Y-73070986D01*
X127871401Y-73328966D01*
X127786487Y-73608889D01*
X127757815Y-73900000D01*
X127786487Y-74191111D01*
X127871401Y-74471034D01*
X128009294Y-74729014D01*
X128194866Y-74955134D01*
X128420986Y-75140706D01*
X128475791Y-75170000D01*
X128420986Y-75199294D01*
X128194866Y-75384866D01*
X128009294Y-75610986D01*
X127871401Y-75868966D01*
X127786487Y-76148889D01*
X127757815Y-76440000D01*
X127786487Y-76731111D01*
X127871401Y-77011034D01*
X128009294Y-77269014D01*
X128194866Y-77495134D01*
X128420986Y-77680706D01*
X128475791Y-77710000D01*
X128420986Y-77739294D01*
X128194866Y-77924866D01*
X128009294Y-78150986D01*
X127871401Y-78408966D01*
X127786487Y-78688889D01*
X127757815Y-78980000D01*
X127786487Y-79271111D01*
X127871401Y-79551034D01*
X128009294Y-79809014D01*
X128194866Y-80035134D01*
X128420986Y-80220706D01*
X128485523Y-80255201D01*
X128368645Y-80324822D01*
X128152412Y-80519731D01*
X127978359Y-80753080D01*
X127853175Y-81015901D01*
X127808524Y-81163110D01*
X127929845Y-81393000D01*
X129123000Y-81393000D01*
X129123000Y-81373000D01*
X129377000Y-81373000D01*
X129377000Y-81393000D01*
X130570155Y-81393000D01*
X130691476Y-81163110D01*
X130646825Y-81015901D01*
X130521641Y-80753080D01*
X130347588Y-80519731D01*
X130131355Y-80324822D01*
X130014477Y-80255201D01*
X130079014Y-80220706D01*
X130305134Y-80035134D01*
X130490706Y-79809014D01*
X130628599Y-79551034D01*
X130713513Y-79271111D01*
X130742185Y-78980000D01*
X130720025Y-78755000D01*
X134561928Y-78755000D01*
X134561928Y-80055000D01*
X134578992Y-80228254D01*
X134629528Y-80394850D01*
X134711595Y-80548386D01*
X134822038Y-80682962D01*
X134956614Y-80793405D01*
X135110150Y-80875472D01*
X135276746Y-80926008D01*
X135450000Y-80943072D01*
X138550000Y-80943072D01*
X138723254Y-80926008D01*
X138889850Y-80875472D01*
X139043386Y-80793405D01*
X139177962Y-80682962D01*
X139288405Y-80548386D01*
X139370472Y-80394850D01*
X139421008Y-80228254D01*
X139438072Y-80055000D01*
X139438072Y-78755000D01*
X139421008Y-78581746D01*
X139370472Y-78415150D01*
X139288405Y-78261614D01*
X139177962Y-78127038D01*
X139043386Y-78016595D01*
X138889850Y-77934528D01*
X138723254Y-77883992D01*
X138550000Y-77866928D01*
X135450000Y-77866928D01*
X135276746Y-77883992D01*
X135110150Y-77934528D01*
X134956614Y-78016595D01*
X134822038Y-78127038D01*
X134711595Y-78261614D01*
X134629528Y-78415150D01*
X134578992Y-78581746D01*
X134561928Y-78755000D01*
X130720025Y-78755000D01*
X130713513Y-78688889D01*
X130628599Y-78408966D01*
X130490706Y-78150986D01*
X130305134Y-77924866D01*
X130079014Y-77739294D01*
X130024209Y-77710000D01*
X130079014Y-77680706D01*
X130305134Y-77495134D01*
X130490706Y-77269014D01*
X130628599Y-77011034D01*
X130713513Y-76731111D01*
X130742185Y-76440000D01*
X130713513Y-76148889D01*
X130628599Y-75868966D01*
X130490706Y-75610986D01*
X130477587Y-75595000D01*
X134557573Y-75595000D01*
X134587210Y-75895913D01*
X134674983Y-76185261D01*
X134817519Y-76451927D01*
X135009339Y-76685661D01*
X135243073Y-76877481D01*
X135509739Y-77020017D01*
X135799087Y-77107790D01*
X136024592Y-77130000D01*
X137975408Y-77130000D01*
X138200913Y-77107790D01*
X138490261Y-77020017D01*
X138756927Y-76877481D01*
X138990661Y-76685661D01*
X139182481Y-76451927D01*
X139325017Y-76185261D01*
X139412790Y-75895913D01*
X139442427Y-75595000D01*
X139412790Y-75294087D01*
X139325017Y-75004739D01*
X139182481Y-74738073D01*
X138990661Y-74504339D01*
X138756927Y-74312519D01*
X138490261Y-74169983D01*
X138200913Y-74082210D01*
X137975408Y-74060000D01*
X136024592Y-74060000D01*
X135799087Y-74082210D01*
X135509739Y-74169983D01*
X135243073Y-74312519D01*
X135009339Y-74504339D01*
X134817519Y-74738073D01*
X134674983Y-75004739D01*
X134587210Y-75294087D01*
X134557573Y-75595000D01*
X130477587Y-75595000D01*
X130305134Y-75384866D01*
X130079014Y-75199294D01*
X130024209Y-75170000D01*
X130079014Y-75140706D01*
X130305134Y-74955134D01*
X130490706Y-74729014D01*
X130628599Y-74471034D01*
X130713513Y-74191111D01*
X130742185Y-73900000D01*
X130713513Y-73608889D01*
X130628599Y-73328966D01*
X130490706Y-73070986D01*
X130305134Y-72844866D01*
X130079014Y-72659294D01*
X130024209Y-72630000D01*
X130079014Y-72600706D01*
X130305134Y-72415134D01*
X130490706Y-72189014D01*
X130628599Y-71931034D01*
X130713513Y-71651111D01*
X130742185Y-71360000D01*
X130713513Y-71068889D01*
X130628599Y-70788966D01*
X130490706Y-70530986D01*
X130305134Y-70304866D01*
X130079014Y-70119294D01*
X130024209Y-70090000D01*
X130079014Y-70060706D01*
X130305134Y-69875134D01*
X130490706Y-69649014D01*
X130628599Y-69391034D01*
X130713513Y-69111111D01*
X130742185Y-68820000D01*
X130713513Y-68528889D01*
X130628599Y-68248966D01*
X130490706Y-67990986D01*
X130305134Y-67764866D01*
X130079014Y-67579294D01*
X130024209Y-67550000D01*
X130079014Y-67520706D01*
X130305134Y-67335134D01*
X130490706Y-67109014D01*
X130628599Y-66851034D01*
X130713513Y-66571111D01*
X130742185Y-66280000D01*
X130739723Y-66255000D01*
X134561928Y-66255000D01*
X134561928Y-67555000D01*
X134578992Y-67728254D01*
X134629528Y-67894850D01*
X134711595Y-68048386D01*
X134822038Y-68182962D01*
X134956614Y-68293405D01*
X135110150Y-68375472D01*
X135276746Y-68426008D01*
X135450000Y-68443072D01*
X138550000Y-68443072D01*
X138723254Y-68426008D01*
X138889850Y-68375472D01*
X139043386Y-68293405D01*
X139177962Y-68182962D01*
X139288405Y-68048386D01*
X139370472Y-67894850D01*
X139421008Y-67728254D01*
X139438072Y-67555000D01*
X139438072Y-66255000D01*
X139421008Y-66081746D01*
X139370472Y-65915150D01*
X139288405Y-65761614D01*
X139177962Y-65627038D01*
X139043386Y-65516595D01*
X138889850Y-65434528D01*
X138723254Y-65383992D01*
X138550000Y-65366928D01*
X135450000Y-65366928D01*
X135276746Y-65383992D01*
X135110150Y-65434528D01*
X134956614Y-65516595D01*
X134822038Y-65627038D01*
X134711595Y-65761614D01*
X134629528Y-65915150D01*
X134578992Y-66081746D01*
X134561928Y-66255000D01*
X130739723Y-66255000D01*
X130713513Y-65988889D01*
X130628599Y-65708966D01*
X130490706Y-65450986D01*
X130305134Y-65224866D01*
X130079014Y-65039294D01*
X130024209Y-65010000D01*
X130079014Y-64980706D01*
X130305134Y-64795134D01*
X130490706Y-64569014D01*
X130628599Y-64311034D01*
X130713513Y-64031111D01*
X130742185Y-63740000D01*
X130713513Y-63448889D01*
X130628599Y-63168966D01*
X130589064Y-63095000D01*
X134557573Y-63095000D01*
X134587210Y-63395913D01*
X134674983Y-63685261D01*
X134817519Y-63951927D01*
X135009339Y-64185661D01*
X135243073Y-64377481D01*
X135509739Y-64520017D01*
X135799087Y-64607790D01*
X136024592Y-64630000D01*
X137975408Y-64630000D01*
X138200913Y-64607790D01*
X138490261Y-64520017D01*
X138756927Y-64377481D01*
X138990661Y-64185661D01*
X139182481Y-63951927D01*
X139325017Y-63685261D01*
X139412790Y-63395913D01*
X139442427Y-63095000D01*
X139412790Y-62794087D01*
X139325017Y-62504739D01*
X139182481Y-62238073D01*
X138990661Y-62004339D01*
X138756927Y-61812519D01*
X138490261Y-61669983D01*
X138200913Y-61582210D01*
X137975408Y-61560000D01*
X136024592Y-61560000D01*
X135799087Y-61582210D01*
X135509739Y-61669983D01*
X135243073Y-61812519D01*
X135009339Y-62004339D01*
X134817519Y-62238073D01*
X134674983Y-62504739D01*
X134587210Y-62794087D01*
X134557573Y-63095000D01*
X130589064Y-63095000D01*
X130490706Y-62910986D01*
X130305134Y-62684866D01*
X130079014Y-62499294D01*
X130024209Y-62470000D01*
X130079014Y-62440706D01*
X130305134Y-62255134D01*
X130490706Y-62029014D01*
X130628599Y-61771034D01*
X130713513Y-61491111D01*
X130742185Y-61200000D01*
X130713513Y-60908889D01*
X130628599Y-60628966D01*
X130490706Y-60370986D01*
X130305134Y-60144866D01*
X130079014Y-59959294D01*
X130024209Y-59930000D01*
X130079014Y-59900706D01*
X130305134Y-59715134D01*
X130490706Y-59489014D01*
X130628599Y-59231034D01*
X130713513Y-58951111D01*
X130742185Y-58660000D01*
X130713513Y-58368889D01*
X130628599Y-58088966D01*
X130490706Y-57830986D01*
X130305134Y-57604866D01*
X130079014Y-57419294D01*
X130024209Y-57390000D01*
X130079014Y-57360706D01*
X130305134Y-57175134D01*
X130490706Y-56949014D01*
X130628599Y-56691034D01*
X130713513Y-56411111D01*
X130742185Y-56120000D01*
X130713513Y-55828889D01*
X130628599Y-55548966D01*
X130490706Y-55290986D01*
X130305134Y-55064866D01*
X130079014Y-54879294D01*
X130024209Y-54850000D01*
X130079014Y-54820706D01*
X130305134Y-54635134D01*
X130490706Y-54409014D01*
X130628599Y-54151034D01*
X130713513Y-53871111D01*
X130724948Y-53755000D01*
X134561928Y-53755000D01*
X134561928Y-55055000D01*
X134578992Y-55228254D01*
X134629528Y-55394850D01*
X134711595Y-55548386D01*
X134822038Y-55682962D01*
X134956614Y-55793405D01*
X135110150Y-55875472D01*
X135276746Y-55926008D01*
X135450000Y-55943072D01*
X138550000Y-55943072D01*
X138723254Y-55926008D01*
X138889850Y-55875472D01*
X139043386Y-55793405D01*
X139177962Y-55682962D01*
X139288405Y-55548386D01*
X139370472Y-55394850D01*
X139421008Y-55228254D01*
X139438072Y-55055000D01*
X139438072Y-53755000D01*
X139421008Y-53581746D01*
X139370472Y-53415150D01*
X139288405Y-53261614D01*
X139177962Y-53127038D01*
X139043386Y-53016595D01*
X138889850Y-52934528D01*
X138723254Y-52883992D01*
X138550000Y-52866928D01*
X135450000Y-52866928D01*
X135276746Y-52883992D01*
X135110150Y-52934528D01*
X134956614Y-53016595D01*
X134822038Y-53127038D01*
X134711595Y-53261614D01*
X134629528Y-53415150D01*
X134578992Y-53581746D01*
X134561928Y-53755000D01*
X130724948Y-53755000D01*
X130742185Y-53580000D01*
X130713513Y-53288889D01*
X130628599Y-53008966D01*
X130490706Y-52750986D01*
X130305134Y-52524866D01*
X130079014Y-52339294D01*
X130024209Y-52310000D01*
X130079014Y-52280706D01*
X130305134Y-52095134D01*
X130490706Y-51869014D01*
X130628599Y-51611034D01*
X130713513Y-51331111D01*
X130742185Y-51040000D01*
X130713513Y-50748889D01*
X130666832Y-50595000D01*
X134557573Y-50595000D01*
X134587210Y-50895913D01*
X134674983Y-51185261D01*
X134817519Y-51451927D01*
X135009339Y-51685661D01*
X135243073Y-51877481D01*
X135509739Y-52020017D01*
X135799087Y-52107790D01*
X136024592Y-52130000D01*
X137975408Y-52130000D01*
X138200913Y-52107790D01*
X138490261Y-52020017D01*
X138756927Y-51877481D01*
X138990661Y-51685661D01*
X139182481Y-51451927D01*
X139325017Y-51185261D01*
X139412790Y-50895913D01*
X139442427Y-50595000D01*
X139412790Y-50294087D01*
X139325017Y-50004739D01*
X139182481Y-49738073D01*
X138990661Y-49504339D01*
X138756927Y-49312519D01*
X138490261Y-49169983D01*
X138200913Y-49082210D01*
X137975408Y-49060000D01*
X136024592Y-49060000D01*
X135799087Y-49082210D01*
X135509739Y-49169983D01*
X135243073Y-49312519D01*
X135009339Y-49504339D01*
X134817519Y-49738073D01*
X134674983Y-50004739D01*
X134587210Y-50294087D01*
X134557573Y-50595000D01*
X130666832Y-50595000D01*
X130628599Y-50468966D01*
X130490706Y-50210986D01*
X130305134Y-49984866D01*
X130275313Y-49960393D01*
X130344180Y-49939502D01*
X130454494Y-49880537D01*
X130551185Y-49801185D01*
X130630537Y-49704494D01*
X130689502Y-49594180D01*
X130725812Y-49474482D01*
X130738072Y-49350000D01*
X130735000Y-48785750D01*
X130576250Y-48627000D01*
X129377000Y-48627000D01*
X129377000Y-48647000D01*
X129123000Y-48647000D01*
X129123000Y-48627000D01*
X127923750Y-48627000D01*
X127765000Y-48785750D01*
X127761928Y-49350000D01*
X127774188Y-49474482D01*
X127810498Y-49594180D01*
X127869463Y-49704494D01*
X127948815Y-49801185D01*
X128045506Y-49880537D01*
X128155820Y-49939502D01*
X128224687Y-49960393D01*
X128194866Y-49984866D01*
X128009294Y-50210986D01*
X127871401Y-50468966D01*
X127786487Y-50748889D01*
X127757815Y-51040000D01*
X100284801Y-51040000D01*
X103674801Y-47650000D01*
X127761928Y-47650000D01*
X127765000Y-48214250D01*
X127923750Y-48373000D01*
X129123000Y-48373000D01*
X129123000Y-47173750D01*
X129377000Y-47173750D01*
X129377000Y-48373000D01*
X130576250Y-48373000D01*
X130735000Y-48214250D01*
X130738072Y-47650000D01*
X130725812Y-47525518D01*
X130689502Y-47405820D01*
X130630537Y-47295506D01*
X130551185Y-47198815D01*
X130454494Y-47119463D01*
X130344180Y-47060498D01*
X130224482Y-47024188D01*
X130100000Y-47011928D01*
X129535750Y-47015000D01*
X129377000Y-47173750D01*
X129123000Y-47173750D01*
X128964250Y-47015000D01*
X128400000Y-47011928D01*
X128275518Y-47024188D01*
X128155820Y-47060498D01*
X128045506Y-47119463D01*
X127948815Y-47198815D01*
X127869463Y-47295506D01*
X127810498Y-47405820D01*
X127774188Y-47525518D01*
X127761928Y-47650000D01*
X103674801Y-47650000D01*
X104314802Y-47010000D01*
X106046289Y-47010000D01*
X106090226Y-47053937D01*
X106259744Y-47167205D01*
X106448102Y-47245226D01*
X106648061Y-47285000D01*
X106851939Y-47285000D01*
X107051898Y-47245226D01*
X107240256Y-47167205D01*
X107409774Y-47053937D01*
X107553937Y-46909774D01*
X107667205Y-46740256D01*
X107745226Y-46551898D01*
X107785000Y-46351939D01*
X107785000Y-46148061D01*
X107745226Y-45948102D01*
X107667205Y-45759744D01*
X107553937Y-45590226D01*
X107409774Y-45446063D01*
X107240256Y-45332795D01*
X107051898Y-45254774D01*
X106851939Y-45215000D01*
X106648061Y-45215000D01*
X106448102Y-45254774D01*
X106259744Y-45332795D01*
X106090226Y-45446063D01*
X106046289Y-45490000D01*
X104037325Y-45490000D01*
X104000000Y-45486324D01*
X103962675Y-45490000D01*
X103962667Y-45490000D01*
X103851014Y-45500997D01*
X103707753Y-45544454D01*
X103575724Y-45615026D01*
X103459999Y-45709999D01*
X103436201Y-45738997D01*
X83655199Y-65520000D01*
X82527595Y-65520000D01*
X82490706Y-65450986D01*
X82305134Y-65224866D01*
X82079014Y-65039294D01*
X82014477Y-65004799D01*
X82131355Y-64935178D01*
X82347588Y-64740269D01*
X82521641Y-64506920D01*
X82646825Y-64244099D01*
X82691476Y-64096890D01*
X82570155Y-63867000D01*
X81377000Y-63867000D01*
X81377000Y-63887000D01*
X81123000Y-63887000D01*
X81123000Y-63867000D01*
X79929845Y-63867000D01*
X79808524Y-64096890D01*
X79853175Y-64244099D01*
X79978359Y-64506920D01*
X80152412Y-64740269D01*
X80368645Y-64935178D01*
X80485523Y-65004799D01*
X80420986Y-65039294D01*
X80194866Y-65224866D01*
X80009294Y-65450986D01*
X79871401Y-65708966D01*
X79786487Y-65988889D01*
X79757815Y-66280000D01*
X75306449Y-66280000D01*
X75182481Y-66048073D01*
X74990661Y-65814339D01*
X74756927Y-65622519D01*
X74490261Y-65479983D01*
X74200913Y-65392210D01*
X73975408Y-65370000D01*
X72024592Y-65370000D01*
X71799087Y-65392210D01*
X71509739Y-65479983D01*
X71243073Y-65622519D01*
X71009339Y-65814339D01*
X70817519Y-66048073D01*
X70674983Y-66314739D01*
X70587210Y-66604087D01*
X70557573Y-66905000D01*
X65660000Y-66905000D01*
X65660000Y-63995000D01*
X70561928Y-63995000D01*
X70574188Y-64119482D01*
X70610498Y-64239180D01*
X70669463Y-64349494D01*
X70748815Y-64446185D01*
X70845506Y-64525537D01*
X70955820Y-64584502D01*
X71075518Y-64620812D01*
X71200000Y-64633072D01*
X72714250Y-64630000D01*
X72873000Y-64471250D01*
X72873000Y-63222000D01*
X73127000Y-63222000D01*
X73127000Y-64471250D01*
X73285750Y-64630000D01*
X74800000Y-64633072D01*
X74924482Y-64620812D01*
X75044180Y-64584502D01*
X75154494Y-64525537D01*
X75251185Y-64446185D01*
X75330537Y-64349494D01*
X75389502Y-64239180D01*
X75425812Y-64119482D01*
X75438072Y-63995000D01*
X75435000Y-63380750D01*
X75276250Y-63222000D01*
X73127000Y-63222000D01*
X72873000Y-63222000D01*
X70723750Y-63222000D01*
X70565000Y-63380750D01*
X70561928Y-63995000D01*
X65660000Y-63995000D01*
X65660000Y-62195000D01*
X70561928Y-62195000D01*
X70565000Y-62809250D01*
X70723750Y-62968000D01*
X72873000Y-62968000D01*
X72873000Y-61718750D01*
X73127000Y-61718750D01*
X73127000Y-62968000D01*
X75276250Y-62968000D01*
X75435000Y-62809250D01*
X75438072Y-62195000D01*
X75425812Y-62070518D01*
X75389502Y-61950820D01*
X75330537Y-61840506D01*
X75251185Y-61743815D01*
X75154494Y-61664463D01*
X75044180Y-61605498D01*
X74924482Y-61569188D01*
X74800000Y-61556928D01*
X73285750Y-61560000D01*
X73127000Y-61718750D01*
X72873000Y-61718750D01*
X72714250Y-61560000D01*
X71200000Y-61556928D01*
X71075518Y-61569188D01*
X70955820Y-61605498D01*
X70845506Y-61664463D01*
X70748815Y-61743815D01*
X70669463Y-61840506D01*
X70610498Y-61950820D01*
X70574188Y-62070518D01*
X70561928Y-62195000D01*
X65660000Y-62195000D01*
X65660000Y-58660000D01*
X79757815Y-58660000D01*
X79786487Y-58951111D01*
X79871401Y-59231034D01*
X80009294Y-59489014D01*
X80194866Y-59715134D01*
X80420986Y-59900706D01*
X80475791Y-59930000D01*
X80420986Y-59959294D01*
X80194866Y-60144866D01*
X80009294Y-60370986D01*
X79871401Y-60628966D01*
X79786487Y-60908889D01*
X79757815Y-61200000D01*
X79786487Y-61491111D01*
X79871401Y-61771034D01*
X80009294Y-62029014D01*
X80194866Y-62255134D01*
X80420986Y-62440706D01*
X80485523Y-62475201D01*
X80368645Y-62544822D01*
X80152412Y-62739731D01*
X79978359Y-62973080D01*
X79853175Y-63235901D01*
X79808524Y-63383110D01*
X79929845Y-63613000D01*
X81123000Y-63613000D01*
X81123000Y-63593000D01*
X81377000Y-63593000D01*
X81377000Y-63613000D01*
X82570155Y-63613000D01*
X82691476Y-63383110D01*
X82646825Y-63235901D01*
X82521641Y-62973080D01*
X82347588Y-62739731D01*
X82131355Y-62544822D01*
X82014477Y-62475201D01*
X82079014Y-62440706D01*
X82305134Y-62255134D01*
X82490706Y-62029014D01*
X82628599Y-61771034D01*
X82713513Y-61491111D01*
X82742185Y-61200000D01*
X82713513Y-60908889D01*
X82628599Y-60628966D01*
X82490706Y-60370986D01*
X82305134Y-60144866D01*
X82079014Y-59959294D01*
X82024209Y-59930000D01*
X82079014Y-59900706D01*
X82305134Y-59715134D01*
X82490706Y-59489014D01*
X82628599Y-59231034D01*
X82713513Y-58951111D01*
X82742185Y-58660000D01*
X82713513Y-58368889D01*
X82628599Y-58088966D01*
X82490706Y-57830986D01*
X82305134Y-57604866D01*
X82079014Y-57419294D01*
X82014477Y-57384799D01*
X82131355Y-57315178D01*
X82347588Y-57120269D01*
X82521641Y-56886920D01*
X82646825Y-56624099D01*
X82691476Y-56476890D01*
X82570155Y-56247000D01*
X81377000Y-56247000D01*
X81377000Y-56267000D01*
X81123000Y-56267000D01*
X81123000Y-56247000D01*
X79929845Y-56247000D01*
X79808524Y-56476890D01*
X79853175Y-56624099D01*
X79978359Y-56886920D01*
X80152412Y-57120269D01*
X80368645Y-57315178D01*
X80485523Y-57384799D01*
X80420986Y-57419294D01*
X80194866Y-57604866D01*
X80009294Y-57830986D01*
X79871401Y-58088966D01*
X79786487Y-58368889D01*
X79757815Y-58660000D01*
X65660000Y-58660000D01*
X65660000Y-53374193D01*
X67015000Y-53374193D01*
X67015000Y-53725807D01*
X67083596Y-54070665D01*
X67218153Y-54395515D01*
X67413500Y-54687871D01*
X67662129Y-54936500D01*
X67954485Y-55131847D01*
X68279335Y-55266404D01*
X68624193Y-55335000D01*
X68975807Y-55335000D01*
X69320665Y-55266404D01*
X69645515Y-55131847D01*
X69937871Y-54936500D01*
X70186500Y-54687871D01*
X70381847Y-54395515D01*
X70516404Y-54070665D01*
X70585000Y-53725807D01*
X70585000Y-53374193D01*
X70516404Y-53029335D01*
X70381847Y-52704485D01*
X70186500Y-52412129D01*
X69937871Y-52163500D01*
X69645515Y-51968153D01*
X69320665Y-51833596D01*
X68975807Y-51765000D01*
X68624193Y-51765000D01*
X68279335Y-51833596D01*
X67954485Y-51968153D01*
X67662129Y-52163500D01*
X67413500Y-52412129D01*
X67218153Y-52704485D01*
X67083596Y-53029335D01*
X67015000Y-53374193D01*
X65660000Y-53374193D01*
X65660000Y-51040000D01*
X79757815Y-51040000D01*
X79786487Y-51331111D01*
X79871401Y-51611034D01*
X80009294Y-51869014D01*
X80194866Y-52095134D01*
X80420986Y-52280706D01*
X80475791Y-52310000D01*
X80420986Y-52339294D01*
X80194866Y-52524866D01*
X80009294Y-52750986D01*
X79871401Y-53008966D01*
X79786487Y-53288889D01*
X79757815Y-53580000D01*
X79786487Y-53871111D01*
X79871401Y-54151034D01*
X80009294Y-54409014D01*
X80194866Y-54635134D01*
X80420986Y-54820706D01*
X80485523Y-54855201D01*
X80368645Y-54924822D01*
X80152412Y-55119731D01*
X79978359Y-55353080D01*
X79853175Y-55615901D01*
X79808524Y-55763110D01*
X79929845Y-55993000D01*
X81123000Y-55993000D01*
X81123000Y-55973000D01*
X81377000Y-55973000D01*
X81377000Y-55993000D01*
X82570155Y-55993000D01*
X82691476Y-55763110D01*
X82646825Y-55615901D01*
X82521641Y-55353080D01*
X82347588Y-55119731D01*
X82131355Y-54924822D01*
X82014477Y-54855201D01*
X82079014Y-54820706D01*
X82305134Y-54635134D01*
X82490706Y-54409014D01*
X82628599Y-54151034D01*
X82713513Y-53871111D01*
X82742185Y-53580000D01*
X82713513Y-53288889D01*
X82628599Y-53008966D01*
X82490706Y-52750986D01*
X82305134Y-52524866D01*
X82079014Y-52339294D01*
X82024209Y-52310000D01*
X82079014Y-52280706D01*
X82305134Y-52095134D01*
X82490706Y-51869014D01*
X82628599Y-51611034D01*
X82713513Y-51331111D01*
X82742185Y-51040000D01*
X82713513Y-50748889D01*
X82628599Y-50468966D01*
X82490706Y-50210986D01*
X82305134Y-49984866D01*
X82275313Y-49960393D01*
X82344180Y-49939502D01*
X82454494Y-49880537D01*
X82551185Y-49801185D01*
X82630537Y-49704494D01*
X82689502Y-49594180D01*
X82725812Y-49474482D01*
X82738072Y-49350000D01*
X82738072Y-47650000D01*
X82725812Y-47525518D01*
X82689502Y-47405820D01*
X82630537Y-47295506D01*
X82551185Y-47198815D01*
X82454494Y-47119463D01*
X82344180Y-47060498D01*
X82224482Y-47024188D01*
X82100000Y-47011928D01*
X80400000Y-47011928D01*
X80275518Y-47024188D01*
X80155820Y-47060498D01*
X80045506Y-47119463D01*
X79948815Y-47198815D01*
X79869463Y-47295506D01*
X79810498Y-47405820D01*
X79774188Y-47525518D01*
X79761928Y-47650000D01*
X79761928Y-49350000D01*
X79774188Y-49474482D01*
X79810498Y-49594180D01*
X79869463Y-49704494D01*
X79948815Y-49801185D01*
X80045506Y-49880537D01*
X80155820Y-49939502D01*
X80224687Y-49960393D01*
X80194866Y-49984866D01*
X80009294Y-50210986D01*
X79871401Y-50468966D01*
X79786487Y-50748889D01*
X79757815Y-51040000D01*
X65660000Y-51040000D01*
X65660000Y-48674193D01*
X65915000Y-48674193D01*
X65915000Y-49025807D01*
X65983596Y-49370665D01*
X66118153Y-49695515D01*
X66313500Y-49987871D01*
X66562129Y-50236500D01*
X66854485Y-50431847D01*
X67179335Y-50566404D01*
X67524193Y-50635000D01*
X67875807Y-50635000D01*
X68220665Y-50566404D01*
X68545515Y-50431847D01*
X68837871Y-50236500D01*
X69086500Y-49987871D01*
X69281847Y-49695515D01*
X69416404Y-49370665D01*
X69485000Y-49025807D01*
X69485000Y-48674193D01*
X69416404Y-48329335D01*
X69281847Y-48004485D01*
X69086500Y-47712129D01*
X68837871Y-47463500D01*
X68545515Y-47268153D01*
X68220665Y-47133596D01*
X67875807Y-47065000D01*
X67524193Y-47065000D01*
X67179335Y-47133596D01*
X66854485Y-47268153D01*
X66562129Y-47463500D01*
X66313500Y-47712129D01*
X66118153Y-48004485D01*
X65983596Y-48329335D01*
X65915000Y-48674193D01*
X65660000Y-48674193D01*
X65660000Y-42733087D01*
X66017599Y-43268272D01*
X66731728Y-43982401D01*
X67571455Y-44543488D01*
X68504509Y-44929972D01*
X69495035Y-45127000D01*
X70504965Y-45127000D01*
X71495491Y-44929972D01*
X72428545Y-44543488D01*
X73268272Y-43982401D01*
X73982401Y-43268272D01*
X74543488Y-42428545D01*
X74929972Y-41495491D01*
X75127000Y-40504965D01*
X75127000Y-39495035D01*
X74929972Y-38504509D01*
X74543488Y-37571455D01*
X73982401Y-36731728D01*
X73268272Y-36017599D01*
X72733087Y-35660000D01*
X137266913Y-35660000D01*
X136731728Y-36017599D01*
G36*
X112693748Y-64985858D02*
G01*
X112679605Y-65000000D01*
X112693748Y-65014143D01*
X112580890Y-65127000D01*
X112193395Y-65127000D01*
X112320395Y-65000000D01*
X112193395Y-64873000D01*
X112580890Y-64873000D01*
X112693748Y-64985858D01*
X112693748Y-64985858D01*
G37*
X112693748Y-64985858D02*
X112679605Y-65000000D01*
X112693748Y-65014143D01*
X112580890Y-65127000D01*
X112193395Y-65127000D01*
X112320395Y-65000000D01*
X112193395Y-64873000D01*
X112580890Y-64873000D01*
X112693748Y-64985858D01*
G36*
X111179605Y-65000000D02*
G01*
X111306605Y-65127000D01*
X110919110Y-65127000D01*
X110806253Y-65014143D01*
X110820395Y-65000000D01*
X110806253Y-64985858D01*
X110919110Y-64873000D01*
X111306605Y-64873000D01*
X111179605Y-65000000D01*
X111179605Y-65000000D01*
G37*
X111179605Y-65000000D02*
X111306605Y-65127000D01*
X110919110Y-65127000D01*
X110806253Y-65014143D01*
X110820395Y-65000000D01*
X110806253Y-64985858D01*
X110919110Y-64873000D01*
X111306605Y-64873000D01*
X111179605Y-65000000D01*
G36*
X114193748Y-64985858D02*
G01*
X114179605Y-65000000D01*
X114193748Y-65014143D01*
X114080890Y-65127000D01*
X113919110Y-65127000D01*
X113806253Y-65014143D01*
X113820395Y-65000000D01*
X113806253Y-64985858D01*
X113919110Y-64873000D01*
X114080890Y-64873000D01*
X114193748Y-64985858D01*
X114193748Y-64985858D01*
G37*
X114193748Y-64985858D02*
X114179605Y-65000000D01*
X114193748Y-65014143D01*
X114080890Y-65127000D01*
X113919110Y-65127000D01*
X113806253Y-65014143D01*
X113820395Y-65000000D01*
X113806253Y-64985858D01*
X113919110Y-64873000D01*
X114080890Y-64873000D01*
X114193748Y-64985858D01*
G36*
X109693748Y-64985858D02*
G01*
X109679605Y-65000000D01*
X109693748Y-65014143D01*
X109580890Y-65127000D01*
X109419110Y-65127000D01*
X109306253Y-65014143D01*
X109320395Y-65000000D01*
X109306253Y-64985858D01*
X109419110Y-64873000D01*
X109580890Y-64873000D01*
X109693748Y-64985858D01*
X109693748Y-64985858D01*
G37*
X109693748Y-64985858D02*
X109679605Y-65000000D01*
X109693748Y-65014143D01*
X109580890Y-65127000D01*
X109419110Y-65127000D01*
X109306253Y-65014143D01*
X109320395Y-65000000D01*
X109306253Y-64985858D01*
X109419110Y-64873000D01*
X109580890Y-64873000D01*
X109693748Y-64985858D01*
M02*
