G04 #@! TF.GenerationSoftware,KiCad,Pcbnew,(5.1.2-1)-1*
G04 #@! TF.CreationDate,2022-02-16T12:06:33-05:00*
G04 #@! TF.ProjectId,AmpClassD_Daugher,416d7043-6c61-4737-9344-5f4461756768,rev?*
G04 #@! TF.SameCoordinates,Original*
G04 #@! TF.FileFunction,Legend,Top*
G04 #@! TF.FilePolarity,Positive*
%FSLAX46Y46*%
G04 Gerber Fmt 4.6, Leading zero omitted, Abs format (unit mm)*
G04 Created by KiCad (PCBNEW (5.1.2-1)-1) date 2022-02-16 12:06:33*
%MOMM*%
%LPD*%
G04 APERTURE LIST*
%ADD10C,0.150000*%
%ADD11C,0.100000*%
%ADD12C,0.010000*%
%ADD13C,0.120000*%
%ADD14C,0.203200*%
%ADD15C,0.125000*%
G04 APERTURE END LIST*
D10*
X77297619Y-76166666D02*
X77297619Y-75690476D01*
X78297619Y-75690476D01*
X77297619Y-77071428D02*
X77773809Y-76738095D01*
X77297619Y-76500000D02*
X78297619Y-76500000D01*
X78297619Y-76880952D01*
X78250000Y-76976190D01*
X78202380Y-77023809D01*
X78107142Y-77071428D01*
X77964285Y-77071428D01*
X77869047Y-77023809D01*
X77821428Y-76976190D01*
X77773809Y-76880952D01*
X77773809Y-76500000D01*
X77297619Y-78261904D02*
X78297619Y-78261904D01*
X77297619Y-78738095D02*
X78297619Y-78738095D01*
X77297619Y-79309523D01*
X78297619Y-79309523D01*
X77297619Y-51166666D02*
X78297619Y-51166666D01*
X78297619Y-51547619D01*
X78250000Y-51642857D01*
X78202380Y-51690476D01*
X78107142Y-51738095D01*
X77964285Y-51738095D01*
X77869047Y-51690476D01*
X77821428Y-51642857D01*
X77773809Y-51547619D01*
X77773809Y-51166666D01*
X78297619Y-52071428D02*
X77297619Y-52309523D01*
X78011904Y-52500000D01*
X77297619Y-52690476D01*
X78297619Y-52928571D01*
X77297619Y-53880952D02*
X77773809Y-53547619D01*
X77297619Y-53309523D02*
X78297619Y-53309523D01*
X78297619Y-53690476D01*
X78250000Y-53785714D01*
X78202380Y-53833333D01*
X78107142Y-53880952D01*
X77964285Y-53880952D01*
X77869047Y-53833333D01*
X77821428Y-53785714D01*
X77773809Y-53690476D01*
X77773809Y-53309523D01*
X76166666Y-42452380D02*
X76166666Y-41452380D01*
X76547619Y-41452380D01*
X76642857Y-41500000D01*
X76690476Y-41547619D01*
X76738095Y-41642857D01*
X76738095Y-41785714D01*
X76690476Y-41880952D01*
X76642857Y-41928571D01*
X76547619Y-41976190D01*
X76166666Y-41976190D01*
X77071428Y-41452380D02*
X77309523Y-42452380D01*
X77500000Y-41738095D01*
X77690476Y-42452380D01*
X77928571Y-41452380D01*
X78880952Y-42452380D02*
X78547619Y-41976190D01*
X78309523Y-42452380D02*
X78309523Y-41452380D01*
X78690476Y-41452380D01*
X78785714Y-41500000D01*
X78833333Y-41547619D01*
X78880952Y-41642857D01*
X78880952Y-41785714D01*
X78833333Y-41880952D01*
X78785714Y-41928571D01*
X78690476Y-41976190D01*
X78309523Y-41976190D01*
X132190476Y-42452380D02*
X131857142Y-41976190D01*
X131619047Y-42452380D02*
X131619047Y-41452380D01*
X132000000Y-41452380D01*
X132095238Y-41500000D01*
X132142857Y-41547619D01*
X132190476Y-41642857D01*
X132190476Y-41785714D01*
X132142857Y-41880952D01*
X132095238Y-41928571D01*
X132000000Y-41976190D01*
X131619047Y-41976190D01*
X132619047Y-42071428D02*
X133380952Y-42071428D01*
X133000000Y-42452380D02*
X133000000Y-41690476D01*
X132190476Y-88452380D02*
X131714285Y-88452380D01*
X131714285Y-87452380D01*
X132523809Y-88071428D02*
X133285714Y-88071428D01*
X132904761Y-88452380D02*
X132904761Y-87690476D01*
X76738095Y-87500000D02*
X76642857Y-87452380D01*
X76500000Y-87452380D01*
X76357142Y-87500000D01*
X76261904Y-87595238D01*
X76214285Y-87690476D01*
X76166666Y-87880952D01*
X76166666Y-88023809D01*
X76214285Y-88214285D01*
X76261904Y-88309523D01*
X76357142Y-88404761D01*
X76500000Y-88452380D01*
X76595238Y-88452380D01*
X76738095Y-88404761D01*
X76785714Y-88357142D01*
X76785714Y-88023809D01*
X76595238Y-88023809D01*
X77214285Y-88452380D02*
X77214285Y-87452380D01*
X77785714Y-88452380D01*
X77785714Y-87452380D01*
X78261904Y-88452380D02*
X78261904Y-87452380D01*
X78500000Y-87452380D01*
X78642857Y-87500000D01*
X78738095Y-87595238D01*
X78785714Y-87690476D01*
X78833333Y-87880952D01*
X78833333Y-88023809D01*
X78785714Y-88214285D01*
X78738095Y-88309523D01*
X78642857Y-88404761D01*
X78500000Y-88452380D01*
X78261904Y-88452380D01*
X132202380Y-78452380D02*
X132202380Y-78928571D01*
X131202380Y-78928571D01*
X131678571Y-78119047D02*
X131678571Y-77785714D01*
X132202380Y-77642857D02*
X132202380Y-78119047D01*
X131202380Y-78119047D01*
X131202380Y-77642857D01*
X131678571Y-76880952D02*
X131678571Y-77214285D01*
X132202380Y-77214285D02*
X131202380Y-77214285D01*
X131202380Y-76738095D01*
X131202380Y-76500000D02*
X131202380Y-75928571D01*
X132202380Y-76214285D02*
X131202380Y-76214285D01*
X132202380Y-53833333D02*
X131726190Y-54166666D01*
X132202380Y-54404761D02*
X131202380Y-54404761D01*
X131202380Y-54023809D01*
X131250000Y-53928571D01*
X131297619Y-53880952D01*
X131392857Y-53833333D01*
X131535714Y-53833333D01*
X131630952Y-53880952D01*
X131678571Y-53928571D01*
X131726190Y-54023809D01*
X131726190Y-54404761D01*
X132202380Y-53404761D02*
X131202380Y-53404761D01*
X131250000Y-52404761D02*
X131202380Y-52500000D01*
X131202380Y-52642857D01*
X131250000Y-52785714D01*
X131345238Y-52880952D01*
X131440476Y-52928571D01*
X131630952Y-52976190D01*
X131773809Y-52976190D01*
X131964285Y-52928571D01*
X132059523Y-52880952D01*
X132154761Y-52785714D01*
X132202380Y-52642857D01*
X132202380Y-52547619D01*
X132154761Y-52404761D01*
X132107142Y-52357142D01*
X131773809Y-52357142D01*
X131773809Y-52547619D01*
X132202380Y-51928571D02*
X131202380Y-51928571D01*
X131678571Y-51928571D02*
X131678571Y-51357142D01*
X132202380Y-51357142D02*
X131202380Y-51357142D01*
X131202380Y-51023809D02*
X131202380Y-50452380D01*
X132202380Y-50738095D02*
X131202380Y-50738095D01*
X77947619Y-63666666D02*
X78947619Y-63666666D01*
X78947619Y-64047619D01*
X78900000Y-64142857D01*
X78852380Y-64190476D01*
X78757142Y-64238095D01*
X78614285Y-64238095D01*
X78519047Y-64190476D01*
X78471428Y-64142857D01*
X78423809Y-64047619D01*
X78423809Y-63666666D01*
X78947619Y-64571428D02*
X77947619Y-64809523D01*
X78661904Y-65000000D01*
X77947619Y-65190476D01*
X78947619Y-65428571D01*
X77947619Y-66380952D02*
X78423809Y-66047619D01*
X77947619Y-65809523D02*
X78947619Y-65809523D01*
X78947619Y-66190476D01*
X78900000Y-66285714D01*
X78852380Y-66333333D01*
X78757142Y-66380952D01*
X78614285Y-66380952D01*
X78519047Y-66333333D01*
X78471428Y-66285714D01*
X78423809Y-66190476D01*
X78423809Y-65809523D01*
X66197619Y-63666666D02*
X67197619Y-63666666D01*
X67197619Y-64047619D01*
X67150000Y-64142857D01*
X67102380Y-64190476D01*
X67007142Y-64238095D01*
X66864285Y-64238095D01*
X66769047Y-64190476D01*
X66721428Y-64142857D01*
X66673809Y-64047619D01*
X66673809Y-63666666D01*
X67197619Y-64571428D02*
X66197619Y-64809523D01*
X66911904Y-65000000D01*
X66197619Y-65190476D01*
X67197619Y-65428571D01*
X66197619Y-66380952D02*
X66673809Y-66047619D01*
X66197619Y-65809523D02*
X67197619Y-65809523D01*
X67197619Y-66190476D01*
X67150000Y-66285714D01*
X67102380Y-66333333D01*
X67007142Y-66380952D01*
X66864285Y-66380952D01*
X66769047Y-66333333D01*
X66721428Y-66285714D01*
X66673809Y-66190476D01*
X66673809Y-65809523D01*
X132202380Y-66904761D02*
X131202380Y-66904761D01*
X131916666Y-66571428D01*
X131202380Y-66238095D01*
X132202380Y-66238095D01*
X131202380Y-65571428D02*
X131202380Y-65380952D01*
X131250000Y-65285714D01*
X131345238Y-65190476D01*
X131535714Y-65142857D01*
X131869047Y-65142857D01*
X132059523Y-65190476D01*
X132154761Y-65285714D01*
X132202380Y-65380952D01*
X132202380Y-65571428D01*
X132154761Y-65666666D01*
X132059523Y-65761904D01*
X131869047Y-65809523D01*
X131535714Y-65809523D01*
X131345238Y-65761904D01*
X131250000Y-65666666D01*
X131202380Y-65571428D01*
X132202380Y-64714285D02*
X131202380Y-64714285D01*
X132202380Y-64142857D01*
X131202380Y-64142857D01*
X131202380Y-63476190D02*
X131202380Y-63285714D01*
X131250000Y-63190476D01*
X131345238Y-63095238D01*
X131535714Y-63047619D01*
X131869047Y-63047619D01*
X132059523Y-63095238D01*
X132154761Y-63190476D01*
X132202380Y-63285714D01*
X132202380Y-63476190D01*
X132154761Y-63571428D01*
X132059523Y-63666666D01*
X131869047Y-63714285D01*
X131535714Y-63714285D01*
X131345238Y-63666666D01*
X131250000Y-63571428D01*
X131202380Y-63476190D01*
D11*
X91213095Y-41953571D02*
X90996428Y-41953571D01*
X90996428Y-42294047D02*
X90996428Y-41644047D01*
X91305952Y-41644047D01*
X91522619Y-42108333D02*
X91832142Y-42108333D01*
X91460714Y-42294047D02*
X91677380Y-41644047D01*
X91894047Y-42294047D01*
X92110714Y-41644047D02*
X92110714Y-42170238D01*
X92141666Y-42232142D01*
X92172619Y-42263095D01*
X92234523Y-42294047D01*
X92358333Y-42294047D01*
X92420238Y-42263095D01*
X92451190Y-42232142D01*
X92482142Y-42170238D01*
X92482142Y-41644047D01*
X93101190Y-42294047D02*
X92791666Y-42294047D01*
X92791666Y-41644047D01*
X93225000Y-41644047D02*
X93596428Y-41644047D01*
X93410714Y-42294047D02*
X93410714Y-41644047D01*
X87044047Y-81145238D02*
X87044047Y-81454761D01*
X86394047Y-81454761D01*
X86394047Y-80526190D02*
X86394047Y-80154761D01*
X87044047Y-80340476D02*
X86394047Y-80340476D01*
X87044047Y-79566666D02*
X86734523Y-79783333D01*
X87044047Y-79938095D02*
X86394047Y-79938095D01*
X86394047Y-79690476D01*
X86425000Y-79628571D01*
X86455952Y-79597619D01*
X86517857Y-79566666D01*
X86610714Y-79566666D01*
X86672619Y-79597619D01*
X86703571Y-79628571D01*
X86734523Y-79690476D01*
X86734523Y-79938095D01*
X87044047Y-79288095D02*
X86394047Y-79288095D01*
X87044047Y-78978571D02*
X86394047Y-78978571D01*
X86858333Y-78761904D01*
X86394047Y-78545238D01*
X87044047Y-78545238D01*
X87044047Y-61895238D02*
X86734523Y-62111904D01*
X87044047Y-62266666D02*
X86394047Y-62266666D01*
X86394047Y-62019047D01*
X86425000Y-61957142D01*
X86455952Y-61926190D01*
X86517857Y-61895238D01*
X86610714Y-61895238D01*
X86672619Y-61926190D01*
X86703571Y-61957142D01*
X86734523Y-62019047D01*
X86734523Y-62266666D01*
X86394047Y-61214285D02*
X86394047Y-60842857D01*
X87044047Y-61028571D02*
X86394047Y-61028571D01*
X87044047Y-60254761D02*
X86734523Y-60471428D01*
X87044047Y-60626190D02*
X86394047Y-60626190D01*
X86394047Y-60378571D01*
X86425000Y-60316666D01*
X86455952Y-60285714D01*
X86517857Y-60254761D01*
X86610714Y-60254761D01*
X86672619Y-60285714D01*
X86703571Y-60316666D01*
X86734523Y-60378571D01*
X86734523Y-60626190D01*
X87044047Y-59976190D02*
X86394047Y-59976190D01*
X87044047Y-59666666D02*
X86394047Y-59666666D01*
X86858333Y-59450000D01*
X86394047Y-59233333D01*
X87044047Y-59233333D01*
X83126904Y-48154047D02*
X83343571Y-48804047D01*
X83560238Y-48154047D01*
X84148333Y-48742142D02*
X84117380Y-48773095D01*
X84024523Y-48804047D01*
X83962619Y-48804047D01*
X83869761Y-48773095D01*
X83807857Y-48711190D01*
X83776904Y-48649285D01*
X83745952Y-48525476D01*
X83745952Y-48432619D01*
X83776904Y-48308809D01*
X83807857Y-48246904D01*
X83869761Y-48185000D01*
X83962619Y-48154047D01*
X84024523Y-48154047D01*
X84117380Y-48185000D01*
X84148333Y-48215952D01*
X84798333Y-48742142D02*
X84767380Y-48773095D01*
X84674523Y-48804047D01*
X84612619Y-48804047D01*
X84519761Y-48773095D01*
X84457857Y-48711190D01*
X84426904Y-48649285D01*
X84395952Y-48525476D01*
X84395952Y-48432619D01*
X84426904Y-48308809D01*
X84457857Y-48246904D01*
X84519761Y-48185000D01*
X84612619Y-48154047D01*
X84674523Y-48154047D01*
X84767380Y-48185000D01*
X84798333Y-48215952D01*
X83126904Y-50694047D02*
X83343571Y-51344047D01*
X83560238Y-50694047D01*
X84148333Y-51282142D02*
X84117380Y-51313095D01*
X84024523Y-51344047D01*
X83962619Y-51344047D01*
X83869761Y-51313095D01*
X83807857Y-51251190D01*
X83776904Y-51189285D01*
X83745952Y-51065476D01*
X83745952Y-50972619D01*
X83776904Y-50848809D01*
X83807857Y-50786904D01*
X83869761Y-50725000D01*
X83962619Y-50694047D01*
X84024523Y-50694047D01*
X84117380Y-50725000D01*
X84148333Y-50755952D01*
X84798333Y-51282142D02*
X84767380Y-51313095D01*
X84674523Y-51344047D01*
X84612619Y-51344047D01*
X84519761Y-51313095D01*
X84457857Y-51251190D01*
X84426904Y-51189285D01*
X84395952Y-51065476D01*
X84395952Y-50972619D01*
X84426904Y-50848809D01*
X84457857Y-50786904D01*
X84519761Y-50725000D01*
X84612619Y-50694047D01*
X84674523Y-50694047D01*
X84767380Y-50725000D01*
X84798333Y-50755952D01*
X83126904Y-53234047D02*
X83343571Y-53884047D01*
X83560238Y-53234047D01*
X84148333Y-53822142D02*
X84117380Y-53853095D01*
X84024523Y-53884047D01*
X83962619Y-53884047D01*
X83869761Y-53853095D01*
X83807857Y-53791190D01*
X83776904Y-53729285D01*
X83745952Y-53605476D01*
X83745952Y-53512619D01*
X83776904Y-53388809D01*
X83807857Y-53326904D01*
X83869761Y-53265000D01*
X83962619Y-53234047D01*
X84024523Y-53234047D01*
X84117380Y-53265000D01*
X84148333Y-53295952D01*
X84798333Y-53822142D02*
X84767380Y-53853095D01*
X84674523Y-53884047D01*
X84612619Y-53884047D01*
X84519761Y-53853095D01*
X84457857Y-53791190D01*
X84426904Y-53729285D01*
X84395952Y-53605476D01*
X84395952Y-53512619D01*
X84426904Y-53388809D01*
X84457857Y-53326904D01*
X84519761Y-53265000D01*
X84612619Y-53234047D01*
X84674523Y-53234047D01*
X84767380Y-53265000D01*
X84798333Y-53295952D01*
X83560238Y-55805000D02*
X83498333Y-55774047D01*
X83405476Y-55774047D01*
X83312619Y-55805000D01*
X83250714Y-55866904D01*
X83219761Y-55928809D01*
X83188809Y-56052619D01*
X83188809Y-56145476D01*
X83219761Y-56269285D01*
X83250714Y-56331190D01*
X83312619Y-56393095D01*
X83405476Y-56424047D01*
X83467380Y-56424047D01*
X83560238Y-56393095D01*
X83591190Y-56362142D01*
X83591190Y-56145476D01*
X83467380Y-56145476D01*
X83869761Y-56424047D02*
X83869761Y-55774047D01*
X84241190Y-56424047D01*
X84241190Y-55774047D01*
X84550714Y-56424047D02*
X84550714Y-55774047D01*
X84705476Y-55774047D01*
X84798333Y-55805000D01*
X84860238Y-55866904D01*
X84891190Y-55928809D01*
X84922142Y-56052619D01*
X84922142Y-56145476D01*
X84891190Y-56269285D01*
X84860238Y-56331190D01*
X84798333Y-56393095D01*
X84705476Y-56424047D01*
X84550714Y-56424047D01*
X83591190Y-58964047D02*
X83374523Y-58654523D01*
X83219761Y-58964047D02*
X83219761Y-58314047D01*
X83467380Y-58314047D01*
X83529285Y-58345000D01*
X83560238Y-58375952D01*
X83591190Y-58437857D01*
X83591190Y-58530714D01*
X83560238Y-58592619D01*
X83529285Y-58623571D01*
X83467380Y-58654523D01*
X83219761Y-58654523D01*
X83869761Y-58964047D02*
X83869761Y-58314047D01*
X84179285Y-58964047D02*
X84179285Y-58314047D01*
X84550714Y-58964047D01*
X84550714Y-58314047D01*
X83529285Y-61504047D02*
X83219761Y-61504047D01*
X83219761Y-60854047D01*
X83745952Y-61504047D02*
X83745952Y-60854047D01*
X84055476Y-61504047D02*
X84055476Y-60854047D01*
X84426904Y-61504047D01*
X84426904Y-60854047D01*
X83560238Y-63425000D02*
X83498333Y-63394047D01*
X83405476Y-63394047D01*
X83312619Y-63425000D01*
X83250714Y-63486904D01*
X83219761Y-63548809D01*
X83188809Y-63672619D01*
X83188809Y-63765476D01*
X83219761Y-63889285D01*
X83250714Y-63951190D01*
X83312619Y-64013095D01*
X83405476Y-64044047D01*
X83467380Y-64044047D01*
X83560238Y-64013095D01*
X83591190Y-63982142D01*
X83591190Y-63765476D01*
X83467380Y-63765476D01*
X83869761Y-64044047D02*
X83869761Y-63394047D01*
X84241190Y-64044047D01*
X84241190Y-63394047D01*
X84550714Y-64044047D02*
X84550714Y-63394047D01*
X84705476Y-63394047D01*
X84798333Y-63425000D01*
X84860238Y-63486904D01*
X84891190Y-63548809D01*
X84922142Y-63672619D01*
X84922142Y-63765476D01*
X84891190Y-63889285D01*
X84860238Y-63951190D01*
X84798333Y-64013095D01*
X84705476Y-64044047D01*
X84550714Y-64044047D01*
X83188809Y-81793095D02*
X83281666Y-81824047D01*
X83436428Y-81824047D01*
X83498333Y-81793095D01*
X83529285Y-81762142D01*
X83560238Y-81700238D01*
X83560238Y-81638333D01*
X83529285Y-81576428D01*
X83498333Y-81545476D01*
X83436428Y-81514523D01*
X83312619Y-81483571D01*
X83250714Y-81452619D01*
X83219761Y-81421666D01*
X83188809Y-81359761D01*
X83188809Y-81297857D01*
X83219761Y-81235952D01*
X83250714Y-81205000D01*
X83312619Y-81174047D01*
X83467380Y-81174047D01*
X83560238Y-81205000D01*
X83962619Y-81514523D02*
X83962619Y-81824047D01*
X83745952Y-81174047D02*
X83962619Y-81514523D01*
X84179285Y-81174047D01*
X84395952Y-81824047D02*
X84395952Y-81174047D01*
X84767380Y-81824047D01*
X84767380Y-81174047D01*
X85448333Y-81762142D02*
X85417380Y-81793095D01*
X85324523Y-81824047D01*
X85262619Y-81824047D01*
X85169761Y-81793095D01*
X85107857Y-81731190D01*
X85076904Y-81669285D01*
X85045952Y-81545476D01*
X85045952Y-81452619D01*
X85076904Y-81328809D01*
X85107857Y-81266904D01*
X85169761Y-81205000D01*
X85262619Y-81174047D01*
X85324523Y-81174047D01*
X85417380Y-81205000D01*
X85448333Y-81235952D01*
X83560238Y-78665000D02*
X83498333Y-78634047D01*
X83405476Y-78634047D01*
X83312619Y-78665000D01*
X83250714Y-78726904D01*
X83219761Y-78788809D01*
X83188809Y-78912619D01*
X83188809Y-79005476D01*
X83219761Y-79129285D01*
X83250714Y-79191190D01*
X83312619Y-79253095D01*
X83405476Y-79284047D01*
X83467380Y-79284047D01*
X83560238Y-79253095D01*
X83591190Y-79222142D01*
X83591190Y-79005476D01*
X83467380Y-79005476D01*
X83869761Y-79284047D02*
X83869761Y-78634047D01*
X84241190Y-79284047D01*
X84241190Y-78634047D01*
X84550714Y-79284047D02*
X84550714Y-78634047D01*
X84705476Y-78634047D01*
X84798333Y-78665000D01*
X84860238Y-78726904D01*
X84891190Y-78788809D01*
X84922142Y-78912619D01*
X84922142Y-79005476D01*
X84891190Y-79129285D01*
X84860238Y-79191190D01*
X84798333Y-79253095D01*
X84705476Y-79284047D01*
X84550714Y-79284047D01*
X83219761Y-76744047D02*
X83219761Y-76094047D01*
X83436428Y-76558333D01*
X83653095Y-76094047D01*
X83653095Y-76744047D01*
X83962619Y-76094047D02*
X83962619Y-76620238D01*
X83993571Y-76682142D01*
X84024523Y-76713095D01*
X84086428Y-76744047D01*
X84210238Y-76744047D01*
X84272142Y-76713095D01*
X84303095Y-76682142D01*
X84334047Y-76620238D01*
X84334047Y-76094047D01*
X84550714Y-76094047D02*
X84922142Y-76094047D01*
X84736428Y-76744047D02*
X84736428Y-76094047D01*
X85138809Y-76403571D02*
X85355476Y-76403571D01*
X85448333Y-76744047D02*
X85138809Y-76744047D01*
X85138809Y-76094047D01*
X85448333Y-76094047D01*
X83560238Y-73585000D02*
X83498333Y-73554047D01*
X83405476Y-73554047D01*
X83312619Y-73585000D01*
X83250714Y-73646904D01*
X83219761Y-73708809D01*
X83188809Y-73832619D01*
X83188809Y-73925476D01*
X83219761Y-74049285D01*
X83250714Y-74111190D01*
X83312619Y-74173095D01*
X83405476Y-74204047D01*
X83467380Y-74204047D01*
X83560238Y-74173095D01*
X83591190Y-74142142D01*
X83591190Y-73925476D01*
X83467380Y-73925476D01*
X83838809Y-74018333D02*
X84148333Y-74018333D01*
X83776904Y-74204047D02*
X83993571Y-73554047D01*
X84210238Y-74204047D01*
X84426904Y-74204047D02*
X84426904Y-73554047D01*
X84736428Y-74204047D02*
X84736428Y-73554047D01*
X85107857Y-74204047D01*
X85107857Y-73554047D01*
X83560238Y-71045000D02*
X83498333Y-71014047D01*
X83405476Y-71014047D01*
X83312619Y-71045000D01*
X83250714Y-71106904D01*
X83219761Y-71168809D01*
X83188809Y-71292619D01*
X83188809Y-71385476D01*
X83219761Y-71509285D01*
X83250714Y-71571190D01*
X83312619Y-71633095D01*
X83405476Y-71664047D01*
X83467380Y-71664047D01*
X83560238Y-71633095D01*
X83591190Y-71602142D01*
X83591190Y-71385476D01*
X83467380Y-71385476D01*
X83776904Y-71014047D02*
X83993571Y-71664047D01*
X84210238Y-71014047D01*
X84426904Y-71664047D02*
X84426904Y-71014047D01*
X84581666Y-71014047D01*
X84674523Y-71045000D01*
X84736428Y-71106904D01*
X84767380Y-71168809D01*
X84798333Y-71292619D01*
X84798333Y-71385476D01*
X84767380Y-71509285D01*
X84736428Y-71571190D01*
X84674523Y-71633095D01*
X84581666Y-71664047D01*
X84426904Y-71664047D01*
X85076904Y-71664047D02*
X85076904Y-71014047D01*
X85231666Y-71014047D01*
X85324523Y-71045000D01*
X85386428Y-71106904D01*
X85417380Y-71168809D01*
X85448333Y-71292619D01*
X85448333Y-71385476D01*
X85417380Y-71509285D01*
X85386428Y-71571190D01*
X85324523Y-71633095D01*
X85231666Y-71664047D01*
X85076904Y-71664047D01*
X83436428Y-66243571D02*
X83219761Y-66243571D01*
X83219761Y-66584047D02*
X83219761Y-65934047D01*
X83529285Y-65934047D01*
X83745952Y-66398333D02*
X84055476Y-66398333D01*
X83684047Y-66584047D02*
X83900714Y-65934047D01*
X84117380Y-66584047D01*
X84334047Y-65934047D02*
X84334047Y-66460238D01*
X84365000Y-66522142D01*
X84395952Y-66553095D01*
X84457857Y-66584047D01*
X84581666Y-66584047D01*
X84643571Y-66553095D01*
X84674523Y-66522142D01*
X84705476Y-66460238D01*
X84705476Y-65934047D01*
X85324523Y-66584047D02*
X85015000Y-66584047D01*
X85015000Y-65934047D01*
X85448333Y-65934047D02*
X85819761Y-65934047D01*
X85634047Y-66584047D02*
X85634047Y-65934047D01*
X83219761Y-69124047D02*
X83219761Y-68474047D01*
X83467380Y-68474047D01*
X83529285Y-68505000D01*
X83560238Y-68535952D01*
X83591190Y-68597857D01*
X83591190Y-68690714D01*
X83560238Y-68752619D01*
X83529285Y-68783571D01*
X83467380Y-68814523D01*
X83219761Y-68814523D01*
X84179285Y-69124047D02*
X83869761Y-69124047D01*
X83869761Y-68474047D01*
X84395952Y-69124047D02*
X84395952Y-68474047D01*
X84705476Y-69124047D02*
X84705476Y-68474047D01*
X84922142Y-68938333D01*
X85138809Y-68474047D01*
X85138809Y-69124047D01*
D10*
X143952380Y-78452380D02*
X143952380Y-78928571D01*
X142952380Y-78928571D01*
X143428571Y-78119047D02*
X143428571Y-77785714D01*
X143952380Y-77642857D02*
X143952380Y-78119047D01*
X142952380Y-78119047D01*
X142952380Y-77642857D01*
X143428571Y-76880952D02*
X143428571Y-77214285D01*
X143952380Y-77214285D02*
X142952380Y-77214285D01*
X142952380Y-76738095D01*
X142952380Y-76500000D02*
X142952380Y-75928571D01*
X143952380Y-76214285D02*
X142952380Y-76214285D01*
X143952380Y-53833333D02*
X143476190Y-54166666D01*
X143952380Y-54404761D02*
X142952380Y-54404761D01*
X142952380Y-54023809D01*
X143000000Y-53928571D01*
X143047619Y-53880952D01*
X143142857Y-53833333D01*
X143285714Y-53833333D01*
X143380952Y-53880952D01*
X143428571Y-53928571D01*
X143476190Y-54023809D01*
X143476190Y-54404761D01*
X143952380Y-53404761D02*
X142952380Y-53404761D01*
X143000000Y-52404761D02*
X142952380Y-52500000D01*
X142952380Y-52642857D01*
X143000000Y-52785714D01*
X143095238Y-52880952D01*
X143190476Y-52928571D01*
X143380952Y-52976190D01*
X143523809Y-52976190D01*
X143714285Y-52928571D01*
X143809523Y-52880952D01*
X143904761Y-52785714D01*
X143952380Y-52642857D01*
X143952380Y-52547619D01*
X143904761Y-52404761D01*
X143857142Y-52357142D01*
X143523809Y-52357142D01*
X143523809Y-52547619D01*
X143952380Y-51928571D02*
X142952380Y-51928571D01*
X143428571Y-51928571D02*
X143428571Y-51357142D01*
X143952380Y-51357142D02*
X142952380Y-51357142D01*
X142952380Y-51023809D02*
X142952380Y-50452380D01*
X143952380Y-50738095D02*
X142952380Y-50738095D01*
X143952380Y-66904761D02*
X142952380Y-66904761D01*
X143666666Y-66571428D01*
X142952380Y-66238095D01*
X143952380Y-66238095D01*
X142952380Y-65571428D02*
X142952380Y-65380952D01*
X143000000Y-65285714D01*
X143095238Y-65190476D01*
X143285714Y-65142857D01*
X143619047Y-65142857D01*
X143809523Y-65190476D01*
X143904761Y-65285714D01*
X143952380Y-65380952D01*
X143952380Y-65571428D01*
X143904761Y-65666666D01*
X143809523Y-65761904D01*
X143619047Y-65809523D01*
X143285714Y-65809523D01*
X143095238Y-65761904D01*
X143000000Y-65666666D01*
X142952380Y-65571428D01*
X143952380Y-64714285D02*
X142952380Y-64714285D01*
X143952380Y-64142857D01*
X142952380Y-64142857D01*
X142952380Y-63476190D02*
X142952380Y-63285714D01*
X143000000Y-63190476D01*
X143095238Y-63095238D01*
X143285714Y-63047619D01*
X143619047Y-63047619D01*
X143809523Y-63095238D01*
X143904761Y-63190476D01*
X143952380Y-63285714D01*
X143952380Y-63476190D01*
X143904761Y-63571428D01*
X143809523Y-63666666D01*
X143619047Y-63714285D01*
X143285714Y-63714285D01*
X143095238Y-63666666D01*
X143000000Y-63571428D01*
X142952380Y-63476190D01*
X127535714Y-80333333D02*
X126107142Y-80333333D01*
X127202380Y-76857142D02*
X127202380Y-77333333D01*
X126202380Y-77333333D01*
X126821428Y-76523809D02*
X126821428Y-75761904D01*
X127535714Y-72761904D02*
X126107142Y-72761904D01*
X127202380Y-69285714D02*
X127202380Y-69761904D01*
X126202380Y-69761904D01*
X126821428Y-68952380D02*
X126821428Y-68190476D01*
X127202380Y-68571428D02*
X126440476Y-68571428D01*
X127535714Y-65190476D02*
X126107142Y-65190476D01*
X127202380Y-61619047D02*
X126726190Y-61952380D01*
X127202380Y-62190476D02*
X126202380Y-62190476D01*
X126202380Y-61809523D01*
X126250000Y-61714285D01*
X126297619Y-61666666D01*
X126392857Y-61619047D01*
X126535714Y-61619047D01*
X126630952Y-61666666D01*
X126678571Y-61714285D01*
X126726190Y-61809523D01*
X126726190Y-62190476D01*
X126821428Y-61190476D02*
X126821428Y-60428571D01*
X127535714Y-57428571D02*
X126107142Y-57428571D01*
X127202380Y-53857142D02*
X126726190Y-54190476D01*
X127202380Y-54428571D02*
X126202380Y-54428571D01*
X126202380Y-54047619D01*
X126250000Y-53952380D01*
X126297619Y-53904761D01*
X126392857Y-53857142D01*
X126535714Y-53857142D01*
X126630952Y-53904761D01*
X126678571Y-53952380D01*
X126726190Y-54047619D01*
X126726190Y-54428571D01*
X126821428Y-53428571D02*
X126821428Y-52666666D01*
X127202380Y-53047619D02*
X126440476Y-53047619D01*
X127535714Y-49666666D02*
X126107142Y-49666666D01*
D11*
X120294047Y-74238095D02*
X119644047Y-74238095D01*
X120108333Y-74021428D01*
X119644047Y-73804761D01*
X120294047Y-73804761D01*
X119644047Y-73371428D02*
X119644047Y-73247619D01*
X119675000Y-73185714D01*
X119736904Y-73123809D01*
X119860714Y-73092857D01*
X120077380Y-73092857D01*
X120201190Y-73123809D01*
X120263095Y-73185714D01*
X120294047Y-73247619D01*
X120294047Y-73371428D01*
X120263095Y-73433333D01*
X120201190Y-73495238D01*
X120077380Y-73526190D01*
X119860714Y-73526190D01*
X119736904Y-73495238D01*
X119675000Y-73433333D01*
X119644047Y-73371428D01*
X120294047Y-72814285D02*
X119644047Y-72814285D01*
X120294047Y-72442857D01*
X119644047Y-72442857D01*
X119644047Y-72009523D02*
X119644047Y-71885714D01*
X119675000Y-71823809D01*
X119736904Y-71761904D01*
X119860714Y-71730952D01*
X120077380Y-71730952D01*
X120201190Y-71761904D01*
X120263095Y-71823809D01*
X120294047Y-71885714D01*
X120294047Y-72009523D01*
X120263095Y-72071428D01*
X120201190Y-72133333D01*
X120077380Y-72164285D01*
X119860714Y-72164285D01*
X119736904Y-72133333D01*
X119675000Y-72071428D01*
X119644047Y-72009523D01*
X120294047Y-55738095D02*
X119644047Y-55738095D01*
X120108333Y-55521428D01*
X119644047Y-55304761D01*
X120294047Y-55304761D01*
X119644047Y-54871428D02*
X119644047Y-54747619D01*
X119675000Y-54685714D01*
X119736904Y-54623809D01*
X119860714Y-54592857D01*
X120077380Y-54592857D01*
X120201190Y-54623809D01*
X120263095Y-54685714D01*
X120294047Y-54747619D01*
X120294047Y-54871428D01*
X120263095Y-54933333D01*
X120201190Y-54995238D01*
X120077380Y-55026190D01*
X119860714Y-55026190D01*
X119736904Y-54995238D01*
X119675000Y-54933333D01*
X119644047Y-54871428D01*
X120294047Y-54314285D02*
X119644047Y-54314285D01*
X120294047Y-53942857D01*
X119644047Y-53942857D01*
X119644047Y-53509523D02*
X119644047Y-53385714D01*
X119675000Y-53323809D01*
X119736904Y-53261904D01*
X119860714Y-53230952D01*
X120077380Y-53230952D01*
X120201190Y-53261904D01*
X120263095Y-53323809D01*
X120294047Y-53385714D01*
X120294047Y-53509523D01*
X120263095Y-53571428D01*
X120201190Y-53633333D01*
X120077380Y-53664285D01*
X119860714Y-53664285D01*
X119736904Y-53633333D01*
X119675000Y-53571428D01*
X119644047Y-53509523D01*
X98345238Y-80763095D02*
X98438095Y-80794047D01*
X98592857Y-80794047D01*
X98654761Y-80763095D01*
X98685714Y-80732142D01*
X98716666Y-80670238D01*
X98716666Y-80608333D01*
X98685714Y-80546428D01*
X98654761Y-80515476D01*
X98592857Y-80484523D01*
X98469047Y-80453571D01*
X98407142Y-80422619D01*
X98376190Y-80391666D01*
X98345238Y-80329761D01*
X98345238Y-80267857D01*
X98376190Y-80205952D01*
X98407142Y-80175000D01*
X98469047Y-80144047D01*
X98623809Y-80144047D01*
X98716666Y-80175000D01*
X99119047Y-80484523D02*
X99119047Y-80794047D01*
X98902380Y-80144047D02*
X99119047Y-80484523D01*
X99335714Y-80144047D01*
X99552380Y-80794047D02*
X99552380Y-80144047D01*
X99923809Y-80794047D01*
X99923809Y-80144047D01*
X100604761Y-80732142D02*
X100573809Y-80763095D01*
X100480952Y-80794047D01*
X100419047Y-80794047D01*
X100326190Y-80763095D01*
X100264285Y-80701190D01*
X100233333Y-80639285D01*
X100202380Y-80515476D01*
X100202380Y-80422619D01*
X100233333Y-80298809D01*
X100264285Y-80236904D01*
X100326190Y-80175000D01*
X100419047Y-80144047D01*
X100480952Y-80144047D01*
X100573809Y-80175000D01*
X100604761Y-80205952D01*
X101378571Y-80794047D02*
X101378571Y-80144047D01*
X101533333Y-80144047D01*
X101626190Y-80175000D01*
X101688095Y-80236904D01*
X101719047Y-80298809D01*
X101750000Y-80422619D01*
X101750000Y-80515476D01*
X101719047Y-80639285D01*
X101688095Y-80701190D01*
X101626190Y-80763095D01*
X101533333Y-80794047D01*
X101378571Y-80794047D01*
X102028571Y-80453571D02*
X102245238Y-80453571D01*
X102338095Y-80794047D02*
X102028571Y-80794047D01*
X102028571Y-80144047D01*
X102338095Y-80144047D01*
X102833333Y-80453571D02*
X102616666Y-80453571D01*
X102616666Y-80794047D02*
X102616666Y-80144047D01*
X102926190Y-80144047D01*
X103142857Y-80608333D02*
X103452380Y-80608333D01*
X103080952Y-80794047D02*
X103297619Y-80144047D01*
X103514285Y-80794047D01*
X103730952Y-80144047D02*
X103730952Y-80670238D01*
X103761904Y-80732142D01*
X103792857Y-80763095D01*
X103854761Y-80794047D01*
X103978571Y-80794047D01*
X104040476Y-80763095D01*
X104071428Y-80732142D01*
X104102380Y-80670238D01*
X104102380Y-80144047D01*
X104721428Y-80794047D02*
X104411904Y-80794047D01*
X104411904Y-80144047D01*
X104845238Y-80144047D02*
X105216666Y-80144047D01*
X105030952Y-80794047D02*
X105030952Y-80144047D01*
X106069761Y-78044047D02*
X106069761Y-77394047D01*
X106286428Y-77858333D01*
X106503095Y-77394047D01*
X106503095Y-78044047D01*
X106936428Y-77394047D02*
X107060238Y-77394047D01*
X107122142Y-77425000D01*
X107184047Y-77486904D01*
X107215000Y-77610714D01*
X107215000Y-77827380D01*
X107184047Y-77951190D01*
X107122142Y-78013095D01*
X107060238Y-78044047D01*
X106936428Y-78044047D01*
X106874523Y-78013095D01*
X106812619Y-77951190D01*
X106781666Y-77827380D01*
X106781666Y-77610714D01*
X106812619Y-77486904D01*
X106874523Y-77425000D01*
X106936428Y-77394047D01*
X107493571Y-78044047D02*
X107493571Y-77394047D01*
X107865000Y-78044047D01*
X107865000Y-77394047D01*
X108298333Y-77394047D02*
X108422142Y-77394047D01*
X108484047Y-77425000D01*
X108545952Y-77486904D01*
X108576904Y-77610714D01*
X108576904Y-77827380D01*
X108545952Y-77951190D01*
X108484047Y-78013095D01*
X108422142Y-78044047D01*
X108298333Y-78044047D01*
X108236428Y-78013095D01*
X108174523Y-77951190D01*
X108143571Y-77827380D01*
X108143571Y-77610714D01*
X108174523Y-77486904D01*
X108236428Y-77425000D01*
X108298333Y-77394047D01*
X106038809Y-73013095D02*
X106131666Y-73044047D01*
X106286428Y-73044047D01*
X106348333Y-73013095D01*
X106379285Y-72982142D01*
X106410238Y-72920238D01*
X106410238Y-72858333D01*
X106379285Y-72796428D01*
X106348333Y-72765476D01*
X106286428Y-72734523D01*
X106162619Y-72703571D01*
X106100714Y-72672619D01*
X106069761Y-72641666D01*
X106038809Y-72579761D01*
X106038809Y-72517857D01*
X106069761Y-72455952D01*
X106100714Y-72425000D01*
X106162619Y-72394047D01*
X106317380Y-72394047D01*
X106410238Y-72425000D01*
X106595952Y-72394047D02*
X106967380Y-72394047D01*
X106781666Y-73044047D02*
X106781666Y-72394047D01*
X107184047Y-72703571D02*
X107400714Y-72703571D01*
X107493571Y-73044047D02*
X107184047Y-73044047D01*
X107184047Y-72394047D01*
X107493571Y-72394047D01*
X108143571Y-73044047D02*
X107926904Y-72734523D01*
X107772142Y-73044047D02*
X107772142Y-72394047D01*
X108019761Y-72394047D01*
X108081666Y-72425000D01*
X108112619Y-72455952D01*
X108143571Y-72517857D01*
X108143571Y-72610714D01*
X108112619Y-72672619D01*
X108081666Y-72703571D01*
X108019761Y-72734523D01*
X107772142Y-72734523D01*
X108422142Y-72703571D02*
X108638809Y-72703571D01*
X108731666Y-73044047D02*
X108422142Y-73044047D01*
X108422142Y-72394047D01*
X108731666Y-72394047D01*
X109134047Y-72394047D02*
X109257857Y-72394047D01*
X109319761Y-72425000D01*
X109381666Y-72486904D01*
X109412619Y-72610714D01*
X109412619Y-72827380D01*
X109381666Y-72951190D01*
X109319761Y-73013095D01*
X109257857Y-73044047D01*
X109134047Y-73044047D01*
X109072142Y-73013095D01*
X109010238Y-72951190D01*
X108979285Y-72827380D01*
X108979285Y-72610714D01*
X109010238Y-72486904D01*
X109072142Y-72425000D01*
X109134047Y-72394047D01*
X97336904Y-70763095D02*
X97429761Y-70794047D01*
X97584523Y-70794047D01*
X97646428Y-70763095D01*
X97677380Y-70732142D01*
X97708333Y-70670238D01*
X97708333Y-70608333D01*
X97677380Y-70546428D01*
X97646428Y-70515476D01*
X97584523Y-70484523D01*
X97460714Y-70453571D01*
X97398809Y-70422619D01*
X97367857Y-70391666D01*
X97336904Y-70329761D01*
X97336904Y-70267857D01*
X97367857Y-70205952D01*
X97398809Y-70175000D01*
X97460714Y-70144047D01*
X97615476Y-70144047D01*
X97708333Y-70175000D01*
X97894047Y-70144047D02*
X98265476Y-70144047D01*
X98079761Y-70794047D02*
X98079761Y-70144047D01*
X98482142Y-70453571D02*
X98698809Y-70453571D01*
X98791666Y-70794047D02*
X98482142Y-70794047D01*
X98482142Y-70144047D01*
X98791666Y-70144047D01*
X99441666Y-70794047D02*
X99225000Y-70484523D01*
X99070238Y-70794047D02*
X99070238Y-70144047D01*
X99317857Y-70144047D01*
X99379761Y-70175000D01*
X99410714Y-70205952D01*
X99441666Y-70267857D01*
X99441666Y-70360714D01*
X99410714Y-70422619D01*
X99379761Y-70453571D01*
X99317857Y-70484523D01*
X99070238Y-70484523D01*
X99720238Y-70453571D02*
X99936904Y-70453571D01*
X100029761Y-70794047D02*
X99720238Y-70794047D01*
X99720238Y-70144047D01*
X100029761Y-70144047D01*
X100432142Y-70144047D02*
X100555952Y-70144047D01*
X100617857Y-70175000D01*
X100679761Y-70236904D01*
X100710714Y-70360714D01*
X100710714Y-70577380D01*
X100679761Y-70701190D01*
X100617857Y-70763095D01*
X100555952Y-70794047D01*
X100432142Y-70794047D01*
X100370238Y-70763095D01*
X100308333Y-70701190D01*
X100277380Y-70577380D01*
X100277380Y-70360714D01*
X100308333Y-70236904D01*
X100370238Y-70175000D01*
X100432142Y-70144047D01*
X101391666Y-70144047D02*
X101608333Y-70794047D01*
X101825000Y-70144047D01*
X102010714Y-70763095D02*
X102103571Y-70794047D01*
X102258333Y-70794047D01*
X102320238Y-70763095D01*
X102351190Y-70732142D01*
X102382142Y-70670238D01*
X102382142Y-70608333D01*
X102351190Y-70546428D01*
X102320238Y-70515476D01*
X102258333Y-70484523D01*
X102134523Y-70453571D01*
X102072619Y-70422619D01*
X102041666Y-70391666D01*
X102010714Y-70329761D01*
X102010714Y-70267857D01*
X102041666Y-70205952D01*
X102072619Y-70175000D01*
X102134523Y-70144047D01*
X102289285Y-70144047D01*
X102382142Y-70175000D01*
X103155952Y-70794047D02*
X103155952Y-70144047D01*
X103372619Y-70608333D01*
X103589285Y-70144047D01*
X103589285Y-70794047D01*
X104022619Y-70144047D02*
X104146428Y-70144047D01*
X104208333Y-70175000D01*
X104270238Y-70236904D01*
X104301190Y-70360714D01*
X104301190Y-70577380D01*
X104270238Y-70701190D01*
X104208333Y-70763095D01*
X104146428Y-70794047D01*
X104022619Y-70794047D01*
X103960714Y-70763095D01*
X103898809Y-70701190D01*
X103867857Y-70577380D01*
X103867857Y-70360714D01*
X103898809Y-70236904D01*
X103960714Y-70175000D01*
X104022619Y-70144047D01*
X104579761Y-70794047D02*
X104579761Y-70144047D01*
X104951190Y-70794047D01*
X104951190Y-70144047D01*
X105384523Y-70144047D02*
X105508333Y-70144047D01*
X105570238Y-70175000D01*
X105632142Y-70236904D01*
X105663095Y-70360714D01*
X105663095Y-70577380D01*
X105632142Y-70701190D01*
X105570238Y-70763095D01*
X105508333Y-70794047D01*
X105384523Y-70794047D01*
X105322619Y-70763095D01*
X105260714Y-70701190D01*
X105229761Y-70577380D01*
X105229761Y-70360714D01*
X105260714Y-70236904D01*
X105322619Y-70175000D01*
X105384523Y-70144047D01*
X98871428Y-62425000D02*
X98809523Y-62394047D01*
X98716666Y-62394047D01*
X98623809Y-62425000D01*
X98561904Y-62486904D01*
X98530952Y-62548809D01*
X98500000Y-62672619D01*
X98500000Y-62765476D01*
X98530952Y-62889285D01*
X98561904Y-62951190D01*
X98623809Y-63013095D01*
X98716666Y-63044047D01*
X98778571Y-63044047D01*
X98871428Y-63013095D01*
X98902380Y-62982142D01*
X98902380Y-62765476D01*
X98778571Y-62765476D01*
X99150000Y-62858333D02*
X99459523Y-62858333D01*
X99088095Y-63044047D02*
X99304761Y-62394047D01*
X99521428Y-63044047D01*
X99738095Y-63044047D02*
X99738095Y-62394047D01*
X100047619Y-63044047D02*
X100047619Y-62394047D01*
X100419047Y-63044047D01*
X100419047Y-62394047D01*
X101223809Y-63044047D02*
X101223809Y-62394047D01*
X101378571Y-62394047D01*
X101471428Y-62425000D01*
X101533333Y-62486904D01*
X101564285Y-62548809D01*
X101595238Y-62672619D01*
X101595238Y-62765476D01*
X101564285Y-62889285D01*
X101533333Y-62951190D01*
X101471428Y-63013095D01*
X101378571Y-63044047D01*
X101223809Y-63044047D01*
X101873809Y-62703571D02*
X102090476Y-62703571D01*
X102183333Y-63044047D02*
X101873809Y-63044047D01*
X101873809Y-62394047D01*
X102183333Y-62394047D01*
X102678571Y-62703571D02*
X102461904Y-62703571D01*
X102461904Y-63044047D02*
X102461904Y-62394047D01*
X102771428Y-62394047D01*
X102988095Y-62858333D02*
X103297619Y-62858333D01*
X102926190Y-63044047D02*
X103142857Y-62394047D01*
X103359523Y-63044047D01*
X103576190Y-62394047D02*
X103576190Y-62920238D01*
X103607142Y-62982142D01*
X103638095Y-63013095D01*
X103700000Y-63044047D01*
X103823809Y-63044047D01*
X103885714Y-63013095D01*
X103916666Y-62982142D01*
X103947619Y-62920238D01*
X103947619Y-62394047D01*
X104566666Y-63044047D02*
X104257142Y-63044047D01*
X104257142Y-62394047D01*
X104690476Y-62394047D02*
X105061904Y-62394047D01*
X104876190Y-63044047D02*
X104876190Y-62394047D01*
X98515476Y-55544047D02*
X98515476Y-54894047D01*
X98763095Y-54894047D01*
X98825000Y-54925000D01*
X98855952Y-54955952D01*
X98886904Y-55017857D01*
X98886904Y-55110714D01*
X98855952Y-55172619D01*
X98825000Y-55203571D01*
X98763095Y-55234523D01*
X98515476Y-55234523D01*
X99475000Y-55544047D02*
X99165476Y-55544047D01*
X99165476Y-54894047D01*
X99691666Y-55544047D02*
X99691666Y-54894047D01*
X100001190Y-55544047D02*
X100001190Y-54894047D01*
X100217857Y-55358333D01*
X100434523Y-54894047D01*
X100434523Y-55544047D01*
X101239285Y-55544047D02*
X101239285Y-54894047D01*
X101394047Y-54894047D01*
X101486904Y-54925000D01*
X101548809Y-54986904D01*
X101579761Y-55048809D01*
X101610714Y-55172619D01*
X101610714Y-55265476D01*
X101579761Y-55389285D01*
X101548809Y-55451190D01*
X101486904Y-55513095D01*
X101394047Y-55544047D01*
X101239285Y-55544047D01*
X101889285Y-55203571D02*
X102105952Y-55203571D01*
X102198809Y-55544047D02*
X101889285Y-55544047D01*
X101889285Y-54894047D01*
X102198809Y-54894047D01*
X102694047Y-55203571D02*
X102477380Y-55203571D01*
X102477380Y-55544047D02*
X102477380Y-54894047D01*
X102786904Y-54894047D01*
X103003571Y-55358333D02*
X103313095Y-55358333D01*
X102941666Y-55544047D02*
X103158333Y-54894047D01*
X103375000Y-55544047D01*
X103591666Y-54894047D02*
X103591666Y-55420238D01*
X103622619Y-55482142D01*
X103653571Y-55513095D01*
X103715476Y-55544047D01*
X103839285Y-55544047D01*
X103901190Y-55513095D01*
X103932142Y-55482142D01*
X103963095Y-55420238D01*
X103963095Y-54894047D01*
X104582142Y-55544047D02*
X104272619Y-55544047D01*
X104272619Y-54894047D01*
X104705952Y-54894047D02*
X105077380Y-54894047D01*
X104891666Y-55544047D02*
X104891666Y-54894047D01*
D12*
G36*
X121873000Y-88158500D02*
G01*
X121873000Y-88031500D01*
X122000000Y-88031500D01*
X122000000Y-88285500D01*
X121873000Y-88285500D01*
X121873000Y-88412500D01*
X121746000Y-88412500D01*
X121746000Y-88158500D01*
X121873000Y-88158500D01*
X121873000Y-88158500D01*
G37*
X121873000Y-88158500D02*
X121873000Y-88031500D01*
X122000000Y-88031500D01*
X122000000Y-88285500D01*
X121873000Y-88285500D01*
X121873000Y-88412500D01*
X121746000Y-88412500D01*
X121746000Y-88158500D01*
X121873000Y-88158500D01*
G36*
X123651000Y-89682500D02*
G01*
X123651000Y-89555500D01*
X123778000Y-89555500D01*
X123778000Y-89809500D01*
X123524000Y-89809500D01*
X123524000Y-89682500D01*
X123651000Y-89682500D01*
X123651000Y-89682500D01*
G37*
X123651000Y-89682500D02*
X123651000Y-89555500D01*
X123778000Y-89555500D01*
X123778000Y-89809500D01*
X123524000Y-89809500D01*
X123524000Y-89682500D01*
X123651000Y-89682500D01*
G36*
X124286000Y-90825500D02*
G01*
X124286000Y-90952500D01*
X124032000Y-90952500D01*
X124032000Y-90825500D01*
X124286000Y-90825500D01*
X124286000Y-90825500D01*
G37*
X124286000Y-90825500D02*
X124286000Y-90952500D01*
X124032000Y-90952500D01*
X124032000Y-90825500D01*
X124286000Y-90825500D01*
G36*
X125048000Y-88158500D02*
G01*
X125048000Y-88031500D01*
X125302000Y-88031500D01*
X125302000Y-88158500D01*
X125429000Y-88158500D01*
X125429000Y-88285500D01*
X124921000Y-88285500D01*
X124921000Y-88158500D01*
X125048000Y-88158500D01*
X125048000Y-88158500D01*
G37*
X125048000Y-88158500D02*
X125048000Y-88031500D01*
X125302000Y-88031500D01*
X125302000Y-88158500D01*
X125429000Y-88158500D01*
X125429000Y-88285500D01*
X124921000Y-88285500D01*
X124921000Y-88158500D01*
X125048000Y-88158500D01*
G36*
X125429000Y-90571500D02*
G01*
X125429000Y-90698500D01*
X125302000Y-90698500D01*
X125302000Y-90571500D01*
X125429000Y-90571500D01*
X125429000Y-90571500D01*
G37*
X125429000Y-90571500D02*
X125429000Y-90698500D01*
X125302000Y-90698500D01*
X125302000Y-90571500D01*
X125429000Y-90571500D01*
G36*
X117301000Y-89301500D02*
G01*
X117301000Y-88920500D01*
X117428000Y-88920500D01*
X117428000Y-88412500D01*
X117555000Y-88412500D01*
X117555000Y-88285500D01*
X117682000Y-88285500D01*
X117682000Y-88158500D01*
X117809000Y-88158500D01*
X117809000Y-88031500D01*
X117936000Y-88031500D01*
X117936000Y-87904500D01*
X118190000Y-87904500D01*
X118190000Y-87777500D01*
X118444000Y-87777500D01*
X118444000Y-87650500D01*
X118698000Y-87650500D01*
X118698000Y-87523500D01*
X118952000Y-87523500D01*
X118952000Y-87396500D01*
X119206000Y-87396500D01*
X119206000Y-87269500D01*
X119460000Y-87269500D01*
X119460000Y-87142500D01*
X119841000Y-87142500D01*
X119841000Y-87015500D01*
X120349000Y-87015500D01*
X120349000Y-86888500D01*
X120857000Y-86888500D01*
X120857000Y-86634500D01*
X124286000Y-86634500D01*
X124286000Y-86888500D01*
X124540000Y-86888500D01*
X124540000Y-87015500D01*
X124921000Y-87015500D01*
X124921000Y-87142500D01*
X125175000Y-87142500D01*
X125175000Y-87269500D01*
X125429000Y-87269500D01*
X125429000Y-87396500D01*
X125556000Y-87396500D01*
X125556000Y-87523500D01*
X125810000Y-87523500D01*
X125810000Y-87650500D01*
X126064000Y-87650500D01*
X126064000Y-87777500D01*
X126191000Y-87777500D01*
X126191000Y-87904500D01*
X126318000Y-87904500D01*
X126318000Y-88158500D01*
X126445000Y-88158500D01*
X126445000Y-88666500D01*
X126572000Y-88666500D01*
X126572000Y-89047500D01*
X126699000Y-89047500D01*
X126699000Y-89555500D01*
X126826000Y-89555500D01*
X126826000Y-91079500D01*
X126699000Y-91079500D01*
X126699000Y-91206500D01*
X126572000Y-91206500D01*
X126572000Y-91587500D01*
X126445000Y-91587500D01*
X126445000Y-91714500D01*
X126318000Y-91714500D01*
X126318000Y-91968500D01*
X126191000Y-91968500D01*
X126191000Y-92222500D01*
X126064000Y-92222500D01*
X126064000Y-92349500D01*
X125937000Y-92349500D01*
X125937000Y-92476500D01*
X125810000Y-92476500D01*
X125810000Y-92349500D01*
X125810000Y-92222500D01*
X125937000Y-92222500D01*
X125937000Y-91968500D01*
X126064000Y-91968500D01*
X126064000Y-91841500D01*
X126191000Y-91841500D01*
X126191000Y-91714500D01*
X126318000Y-91714500D01*
X126318000Y-91460500D01*
X126445000Y-91460500D01*
X126445000Y-91206500D01*
X126572000Y-91206500D01*
X126572000Y-90698500D01*
X126699000Y-90698500D01*
X126699000Y-89936500D01*
X126572000Y-89936500D01*
X126572000Y-89809500D01*
X126445000Y-89809500D01*
X126445000Y-89555500D01*
X126572000Y-89555500D01*
X126572000Y-89428500D01*
X126445000Y-89428500D01*
X126445000Y-89301500D01*
X126318000Y-89301500D01*
X126318000Y-89174500D01*
X126191000Y-89174500D01*
X126191000Y-88920500D01*
X126064000Y-88920500D01*
X126064000Y-88412500D01*
X125810000Y-88412500D01*
X125810000Y-88158500D01*
X126064000Y-88158500D01*
X126064000Y-88031500D01*
X125810000Y-88031500D01*
X125810000Y-87904500D01*
X125683000Y-87904500D01*
X125683000Y-87777500D01*
X125429000Y-87777500D01*
X125429000Y-87650500D01*
X125175000Y-87650500D01*
X125175000Y-87523500D01*
X124921000Y-87523500D01*
X124921000Y-87396500D01*
X124413000Y-87396500D01*
X124413000Y-87269500D01*
X123778000Y-87269500D01*
X123778000Y-87142500D01*
X122889000Y-87142500D01*
X122889000Y-87269500D01*
X122508000Y-87269500D01*
X122508000Y-87396500D01*
X122889000Y-87396500D01*
X122889000Y-87523500D01*
X123651000Y-87523500D01*
X123651000Y-87650500D01*
X124540000Y-87650500D01*
X124540000Y-87777500D01*
X124794000Y-87777500D01*
X124794000Y-87904500D01*
X125048000Y-87904500D01*
X125048000Y-88031500D01*
X124540000Y-88031500D01*
X124540000Y-88285500D01*
X124794000Y-88285500D01*
X124794000Y-88412500D01*
X125048000Y-88412500D01*
X125048000Y-88539500D01*
X124921000Y-88539500D01*
X124921000Y-88666500D01*
X125048000Y-88666500D01*
X125048000Y-88793500D01*
X125429000Y-88793500D01*
X125429000Y-88666500D01*
X125556000Y-88666500D01*
X125556000Y-88793500D01*
X125810000Y-88793500D01*
X125810000Y-88666500D01*
X125937000Y-88666500D01*
X125937000Y-89174500D01*
X125810000Y-89174500D01*
X125810000Y-88920500D01*
X125429000Y-88920500D01*
X125429000Y-89047500D01*
X125302000Y-89047500D01*
X125302000Y-89174500D01*
X125048000Y-89174500D01*
X125048000Y-89047500D01*
X124921000Y-89047500D01*
X124921000Y-88920500D01*
X124794000Y-88920500D01*
X124794000Y-88793500D01*
X124667000Y-88793500D01*
X124667000Y-88666500D01*
X124413000Y-88666500D01*
X124413000Y-88793500D01*
X124286000Y-88793500D01*
X124286000Y-89047500D01*
X123397000Y-89047500D01*
X123397000Y-88920500D01*
X123270000Y-88920500D01*
X123270000Y-88539500D01*
X123143000Y-88539500D01*
X123143000Y-88285500D01*
X122762000Y-88285500D01*
X122762000Y-88412500D01*
X122635000Y-88412500D01*
X122635000Y-88539500D01*
X122508000Y-88539500D01*
X122508000Y-88031500D01*
X122381000Y-88031500D01*
X122381000Y-87904500D01*
X122254000Y-87904500D01*
X122254000Y-87396500D01*
X122381000Y-87396500D01*
X122381000Y-87269500D01*
X122254000Y-87269500D01*
X122254000Y-87396500D01*
X122254000Y-87904500D01*
X121746000Y-87904500D01*
X121746000Y-87523500D01*
X122127000Y-87523500D01*
X122127000Y-87396500D01*
X121746000Y-87396500D01*
X121746000Y-87523500D01*
X121746000Y-87904500D01*
X121492000Y-87904500D01*
X121492000Y-88031500D01*
X121365000Y-88031500D01*
X121365000Y-88285500D01*
X121238000Y-88285500D01*
X121238000Y-88412500D01*
X121111000Y-88412500D01*
X121111000Y-88539500D01*
X120984000Y-88539500D01*
X120984000Y-88793500D01*
X120857000Y-88793500D01*
X120857000Y-89174500D01*
X120730000Y-89174500D01*
X120730000Y-89555500D01*
X120603000Y-89555500D01*
X120603000Y-89936500D01*
X120476000Y-89936500D01*
X120476000Y-90317500D01*
X120603000Y-90317500D01*
X120603000Y-90698500D01*
X120730000Y-90698500D01*
X120730000Y-90825500D01*
X120857000Y-90825500D01*
X120857000Y-91079500D01*
X121111000Y-91079500D01*
X121111000Y-91206500D01*
X121238000Y-91206500D01*
X121238000Y-91333500D01*
X121365000Y-91333500D01*
X121365000Y-91460500D01*
X121492000Y-91460500D01*
X121492000Y-91079500D01*
X121365000Y-91079500D01*
X121365000Y-90698500D01*
X121238000Y-90698500D01*
X121238000Y-89428500D01*
X121365000Y-89428500D01*
X121365000Y-90190500D01*
X121492000Y-90190500D01*
X121492000Y-90571500D01*
X121619000Y-90571500D01*
X121619000Y-90698500D01*
X121746000Y-90698500D01*
X121746000Y-90825500D01*
X121873000Y-90825500D01*
X121873000Y-91079500D01*
X122127000Y-91079500D01*
X122127000Y-91206500D01*
X122381000Y-91206500D01*
X122381000Y-90952500D01*
X122254000Y-90952500D01*
X122254000Y-90698500D01*
X122127000Y-90698500D01*
X122127000Y-90571500D01*
X122000000Y-90571500D01*
X122000000Y-89428500D01*
X122127000Y-89428500D01*
X122127000Y-89301500D01*
X122254000Y-89301500D01*
X122254000Y-89174500D01*
X122381000Y-89174500D01*
X122381000Y-89047500D01*
X122635000Y-89047500D01*
X122635000Y-89428500D01*
X122508000Y-89428500D01*
X122508000Y-89809500D01*
X123143000Y-89809500D01*
X123143000Y-89936500D01*
X123270000Y-89936500D01*
X123270000Y-90063500D01*
X123143000Y-90063500D01*
X123143000Y-90698500D01*
X123270000Y-90698500D01*
X123270000Y-90825500D01*
X123397000Y-90825500D01*
X123397000Y-90952500D01*
X124032000Y-90952500D01*
X124032000Y-91333500D01*
X124159000Y-91333500D01*
X124159000Y-91460500D01*
X124413000Y-91460500D01*
X124413000Y-91206500D01*
X124794000Y-91206500D01*
X124794000Y-91079500D01*
X125048000Y-91079500D01*
X125048000Y-90952500D01*
X125175000Y-90952500D01*
X125175000Y-90698500D01*
X125302000Y-90698500D01*
X125302000Y-90952500D01*
X125429000Y-90952500D01*
X125429000Y-91079500D01*
X125810000Y-91079500D01*
X125810000Y-90698500D01*
X125937000Y-90698500D01*
X125937000Y-90571500D01*
X125429000Y-90571500D01*
X125429000Y-89555500D01*
X125175000Y-89555500D01*
X125175000Y-89428500D01*
X125683000Y-89428500D01*
X125683000Y-89301500D01*
X125937000Y-89301500D01*
X125937000Y-89428500D01*
X126064000Y-89428500D01*
X126064000Y-89555500D01*
X125810000Y-89555500D01*
X125810000Y-89682500D01*
X125683000Y-89682500D01*
X125683000Y-89809500D01*
X125556000Y-89809500D01*
X125556000Y-90063500D01*
X125937000Y-90063500D01*
X125937000Y-89936500D01*
X126064000Y-89936500D01*
X126064000Y-90190500D01*
X126191000Y-90190500D01*
X126191000Y-90317500D01*
X126064000Y-90317500D01*
X126064000Y-91079500D01*
X125937000Y-91079500D01*
X125937000Y-91333500D01*
X125810000Y-91333500D01*
X125810000Y-91587500D01*
X125683000Y-91587500D01*
X125683000Y-91714500D01*
X125556000Y-91714500D01*
X125556000Y-91841500D01*
X125302000Y-91841500D01*
X125302000Y-91968500D01*
X125175000Y-91968500D01*
X125175000Y-91714500D01*
X125429000Y-91714500D01*
X125429000Y-91460500D01*
X125302000Y-91460500D01*
X125302000Y-91587500D01*
X125175000Y-91587500D01*
X125175000Y-91714500D01*
X125175000Y-91968500D01*
X125048000Y-91968500D01*
X125048000Y-92095500D01*
X124921000Y-92095500D01*
X124921000Y-92222500D01*
X125429000Y-92222500D01*
X125429000Y-92095500D01*
X125683000Y-92095500D01*
X125683000Y-92349500D01*
X125810000Y-92349500D01*
X125810000Y-92476500D01*
X125810000Y-92603500D01*
X125683000Y-92603500D01*
X125683000Y-92730500D01*
X125429000Y-92730500D01*
X125429000Y-92984500D01*
X125175000Y-92984500D01*
X125175000Y-93111500D01*
X123905000Y-93111500D01*
X123905000Y-93238500D01*
X123651000Y-93238500D01*
X123651000Y-93365500D01*
X123270000Y-93365500D01*
X123270000Y-93111500D01*
X123397000Y-93111500D01*
X123397000Y-92984500D01*
X123270000Y-92984500D01*
X123270000Y-93111500D01*
X123270000Y-93365500D01*
X121746000Y-93365500D01*
X121746000Y-93111500D01*
X122508000Y-93111500D01*
X122508000Y-92857500D01*
X122635000Y-92857500D01*
X122635000Y-92730500D01*
X123651000Y-92730500D01*
X123651000Y-92603500D01*
X123778000Y-92603500D01*
X123778000Y-92730500D01*
X123905000Y-92730500D01*
X123905000Y-92857500D01*
X124921000Y-92857500D01*
X124921000Y-92730500D01*
X125302000Y-92730500D01*
X125302000Y-92603500D01*
X125556000Y-92603500D01*
X125556000Y-92476500D01*
X125683000Y-92476500D01*
X125683000Y-92349500D01*
X125429000Y-92349500D01*
X125429000Y-92476500D01*
X124667000Y-92476500D01*
X124667000Y-92603500D01*
X124286000Y-92603500D01*
X124286000Y-92730500D01*
X124032000Y-92730500D01*
X124032000Y-92476500D01*
X124413000Y-92476500D01*
X124413000Y-92349500D01*
X124286000Y-92349500D01*
X124286000Y-92222500D01*
X123778000Y-92222500D01*
X123778000Y-92349500D01*
X123397000Y-92349500D01*
X123397000Y-92476500D01*
X122762000Y-92476500D01*
X122762000Y-92603500D01*
X121746000Y-92603500D01*
X121746000Y-92730500D01*
X121111000Y-92730500D01*
X121111000Y-92857500D01*
X120984000Y-92857500D01*
X120984000Y-92984500D01*
X121746000Y-92984500D01*
X121746000Y-93111500D01*
X121746000Y-93365500D01*
X121111000Y-93365500D01*
X121111000Y-93238500D01*
X120603000Y-93238500D01*
X120603000Y-93111500D01*
X120222000Y-93111500D01*
X120222000Y-92984500D01*
X120222000Y-88666500D01*
X120349000Y-88666500D01*
X120349000Y-88539500D01*
X120222000Y-88539500D01*
X120222000Y-88666500D01*
X120222000Y-92984500D01*
X119714000Y-92984500D01*
X119714000Y-92857500D01*
X119460000Y-92857500D01*
X119460000Y-92730500D01*
X119333000Y-92730500D01*
X119333000Y-92603500D01*
X119587000Y-92603500D01*
X119587000Y-92349500D01*
X119460000Y-92349500D01*
X119460000Y-92222500D01*
X119333000Y-92222500D01*
X119333000Y-91968500D01*
X119460000Y-91968500D01*
X119460000Y-91841500D01*
X119587000Y-91841500D01*
X119587000Y-91714500D01*
X119714000Y-91714500D01*
X119714000Y-91587500D01*
X119587000Y-91587500D01*
X119587000Y-91460500D01*
X119206000Y-91460500D01*
X119206000Y-91841500D01*
X119333000Y-91841500D01*
X119333000Y-91968500D01*
X119333000Y-92222500D01*
X119206000Y-92222500D01*
X119206000Y-92095500D01*
X119079000Y-92095500D01*
X119079000Y-91841500D01*
X118952000Y-91841500D01*
X118952000Y-91587500D01*
X118952000Y-91333500D01*
X119333000Y-91333500D01*
X119333000Y-91079500D01*
X119460000Y-91079500D01*
X119460000Y-90952500D01*
X119333000Y-90952500D01*
X119333000Y-90698500D01*
X118952000Y-90698500D01*
X118952000Y-91333500D01*
X118952000Y-91587500D01*
X118825000Y-91587500D01*
X118825000Y-91206500D01*
X118825000Y-90444500D01*
X119206000Y-90444500D01*
X119206000Y-90317500D01*
X119460000Y-90317500D01*
X119460000Y-89936500D01*
X119206000Y-89936500D01*
X119206000Y-89555500D01*
X119841000Y-89555500D01*
X119841000Y-89174500D01*
X119333000Y-89174500D01*
X119333000Y-89301500D01*
X119206000Y-89301500D01*
X119206000Y-89555500D01*
X119206000Y-89936500D01*
X118952000Y-89936500D01*
X118952000Y-90063500D01*
X118825000Y-90063500D01*
X118825000Y-90444500D01*
X118825000Y-91206500D01*
X118698000Y-91206500D01*
X118698000Y-91079500D01*
X118571000Y-91079500D01*
X118571000Y-90571500D01*
X118444000Y-90571500D01*
X118444000Y-90063500D01*
X118571000Y-90063500D01*
X118571000Y-89936500D01*
X118698000Y-89936500D01*
X118698000Y-89428500D01*
X118825000Y-89428500D01*
X118825000Y-89301500D01*
X119079000Y-89301500D01*
X119079000Y-89174500D01*
X118952000Y-89174500D01*
X118952000Y-89047500D01*
X118825000Y-89047500D01*
X118825000Y-89174500D01*
X118698000Y-89174500D01*
X118698000Y-89301500D01*
X118571000Y-89301500D01*
X118571000Y-89428500D01*
X118317000Y-89428500D01*
X118317000Y-90952500D01*
X118444000Y-90952500D01*
X118444000Y-91206500D01*
X118571000Y-91206500D01*
X118571000Y-91333500D01*
X118444000Y-91333500D01*
X118444000Y-91460500D01*
X118317000Y-91460500D01*
X118317000Y-91333500D01*
X118190000Y-91333500D01*
X118190000Y-90952500D01*
X118063000Y-90952500D01*
X118063000Y-89936500D01*
X118190000Y-89936500D01*
X118190000Y-88793500D01*
X118317000Y-88793500D01*
X118317000Y-88539500D01*
X118571000Y-88539500D01*
X118571000Y-88412500D01*
X118444000Y-88412500D01*
X118444000Y-88285500D01*
X118317000Y-88285500D01*
X118317000Y-88412500D01*
X117936000Y-88412500D01*
X117936000Y-88539500D01*
X117809000Y-88539500D01*
X117809000Y-88793500D01*
X117682000Y-88793500D01*
X117682000Y-89047500D01*
X117555000Y-89047500D01*
X117555000Y-89555500D01*
X117428000Y-89555500D01*
X117428000Y-90952500D01*
X117555000Y-90952500D01*
X117555000Y-91206500D01*
X117682000Y-91206500D01*
X117682000Y-91333500D01*
X117809000Y-91333500D01*
X117809000Y-91460500D01*
X117936000Y-91460500D01*
X117936000Y-91587500D01*
X118063000Y-91587500D01*
X118063000Y-91714500D01*
X118190000Y-91714500D01*
X118190000Y-91841500D01*
X118317000Y-91841500D01*
X118317000Y-91968500D01*
X118444000Y-91968500D01*
X118444000Y-92095500D01*
X118698000Y-92095500D01*
X118698000Y-92222500D01*
X118952000Y-92222500D01*
X118952000Y-92349500D01*
X119079000Y-92349500D01*
X119079000Y-92476500D01*
X119333000Y-92476500D01*
X119333000Y-92603500D01*
X118952000Y-92603500D01*
X118952000Y-92476500D01*
X118698000Y-92476500D01*
X118698000Y-92349500D01*
X118571000Y-92349500D01*
X118571000Y-92222500D01*
X118444000Y-92222500D01*
X118444000Y-92095500D01*
X118063000Y-92095500D01*
X118063000Y-91968500D01*
X117936000Y-91968500D01*
X117936000Y-91841500D01*
X117809000Y-91841500D01*
X117809000Y-91587500D01*
X117555000Y-91587500D01*
X117555000Y-91333500D01*
X117428000Y-91333500D01*
X117428000Y-91206500D01*
X117301000Y-91206500D01*
X117301000Y-90952500D01*
X117174000Y-90952500D01*
X117174000Y-89301500D01*
X117301000Y-89301500D01*
X117301000Y-89301500D01*
G37*
X117301000Y-89301500D02*
X117301000Y-88920500D01*
X117428000Y-88920500D01*
X117428000Y-88412500D01*
X117555000Y-88412500D01*
X117555000Y-88285500D01*
X117682000Y-88285500D01*
X117682000Y-88158500D01*
X117809000Y-88158500D01*
X117809000Y-88031500D01*
X117936000Y-88031500D01*
X117936000Y-87904500D01*
X118190000Y-87904500D01*
X118190000Y-87777500D01*
X118444000Y-87777500D01*
X118444000Y-87650500D01*
X118698000Y-87650500D01*
X118698000Y-87523500D01*
X118952000Y-87523500D01*
X118952000Y-87396500D01*
X119206000Y-87396500D01*
X119206000Y-87269500D01*
X119460000Y-87269500D01*
X119460000Y-87142500D01*
X119841000Y-87142500D01*
X119841000Y-87015500D01*
X120349000Y-87015500D01*
X120349000Y-86888500D01*
X120857000Y-86888500D01*
X120857000Y-86634500D01*
X124286000Y-86634500D01*
X124286000Y-86888500D01*
X124540000Y-86888500D01*
X124540000Y-87015500D01*
X124921000Y-87015500D01*
X124921000Y-87142500D01*
X125175000Y-87142500D01*
X125175000Y-87269500D01*
X125429000Y-87269500D01*
X125429000Y-87396500D01*
X125556000Y-87396500D01*
X125556000Y-87523500D01*
X125810000Y-87523500D01*
X125810000Y-87650500D01*
X126064000Y-87650500D01*
X126064000Y-87777500D01*
X126191000Y-87777500D01*
X126191000Y-87904500D01*
X126318000Y-87904500D01*
X126318000Y-88158500D01*
X126445000Y-88158500D01*
X126445000Y-88666500D01*
X126572000Y-88666500D01*
X126572000Y-89047500D01*
X126699000Y-89047500D01*
X126699000Y-89555500D01*
X126826000Y-89555500D01*
X126826000Y-91079500D01*
X126699000Y-91079500D01*
X126699000Y-91206500D01*
X126572000Y-91206500D01*
X126572000Y-91587500D01*
X126445000Y-91587500D01*
X126445000Y-91714500D01*
X126318000Y-91714500D01*
X126318000Y-91968500D01*
X126191000Y-91968500D01*
X126191000Y-92222500D01*
X126064000Y-92222500D01*
X126064000Y-92349500D01*
X125937000Y-92349500D01*
X125937000Y-92476500D01*
X125810000Y-92476500D01*
X125810000Y-92349500D01*
X125810000Y-92222500D01*
X125937000Y-92222500D01*
X125937000Y-91968500D01*
X126064000Y-91968500D01*
X126064000Y-91841500D01*
X126191000Y-91841500D01*
X126191000Y-91714500D01*
X126318000Y-91714500D01*
X126318000Y-91460500D01*
X126445000Y-91460500D01*
X126445000Y-91206500D01*
X126572000Y-91206500D01*
X126572000Y-90698500D01*
X126699000Y-90698500D01*
X126699000Y-89936500D01*
X126572000Y-89936500D01*
X126572000Y-89809500D01*
X126445000Y-89809500D01*
X126445000Y-89555500D01*
X126572000Y-89555500D01*
X126572000Y-89428500D01*
X126445000Y-89428500D01*
X126445000Y-89301500D01*
X126318000Y-89301500D01*
X126318000Y-89174500D01*
X126191000Y-89174500D01*
X126191000Y-88920500D01*
X126064000Y-88920500D01*
X126064000Y-88412500D01*
X125810000Y-88412500D01*
X125810000Y-88158500D01*
X126064000Y-88158500D01*
X126064000Y-88031500D01*
X125810000Y-88031500D01*
X125810000Y-87904500D01*
X125683000Y-87904500D01*
X125683000Y-87777500D01*
X125429000Y-87777500D01*
X125429000Y-87650500D01*
X125175000Y-87650500D01*
X125175000Y-87523500D01*
X124921000Y-87523500D01*
X124921000Y-87396500D01*
X124413000Y-87396500D01*
X124413000Y-87269500D01*
X123778000Y-87269500D01*
X123778000Y-87142500D01*
X122889000Y-87142500D01*
X122889000Y-87269500D01*
X122508000Y-87269500D01*
X122508000Y-87396500D01*
X122889000Y-87396500D01*
X122889000Y-87523500D01*
X123651000Y-87523500D01*
X123651000Y-87650500D01*
X124540000Y-87650500D01*
X124540000Y-87777500D01*
X124794000Y-87777500D01*
X124794000Y-87904500D01*
X125048000Y-87904500D01*
X125048000Y-88031500D01*
X124540000Y-88031500D01*
X124540000Y-88285500D01*
X124794000Y-88285500D01*
X124794000Y-88412500D01*
X125048000Y-88412500D01*
X125048000Y-88539500D01*
X124921000Y-88539500D01*
X124921000Y-88666500D01*
X125048000Y-88666500D01*
X125048000Y-88793500D01*
X125429000Y-88793500D01*
X125429000Y-88666500D01*
X125556000Y-88666500D01*
X125556000Y-88793500D01*
X125810000Y-88793500D01*
X125810000Y-88666500D01*
X125937000Y-88666500D01*
X125937000Y-89174500D01*
X125810000Y-89174500D01*
X125810000Y-88920500D01*
X125429000Y-88920500D01*
X125429000Y-89047500D01*
X125302000Y-89047500D01*
X125302000Y-89174500D01*
X125048000Y-89174500D01*
X125048000Y-89047500D01*
X124921000Y-89047500D01*
X124921000Y-88920500D01*
X124794000Y-88920500D01*
X124794000Y-88793500D01*
X124667000Y-88793500D01*
X124667000Y-88666500D01*
X124413000Y-88666500D01*
X124413000Y-88793500D01*
X124286000Y-88793500D01*
X124286000Y-89047500D01*
X123397000Y-89047500D01*
X123397000Y-88920500D01*
X123270000Y-88920500D01*
X123270000Y-88539500D01*
X123143000Y-88539500D01*
X123143000Y-88285500D01*
X122762000Y-88285500D01*
X122762000Y-88412500D01*
X122635000Y-88412500D01*
X122635000Y-88539500D01*
X122508000Y-88539500D01*
X122508000Y-88031500D01*
X122381000Y-88031500D01*
X122381000Y-87904500D01*
X122254000Y-87904500D01*
X122254000Y-87396500D01*
X122381000Y-87396500D01*
X122381000Y-87269500D01*
X122254000Y-87269500D01*
X122254000Y-87396500D01*
X122254000Y-87904500D01*
X121746000Y-87904500D01*
X121746000Y-87523500D01*
X122127000Y-87523500D01*
X122127000Y-87396500D01*
X121746000Y-87396500D01*
X121746000Y-87523500D01*
X121746000Y-87904500D01*
X121492000Y-87904500D01*
X121492000Y-88031500D01*
X121365000Y-88031500D01*
X121365000Y-88285500D01*
X121238000Y-88285500D01*
X121238000Y-88412500D01*
X121111000Y-88412500D01*
X121111000Y-88539500D01*
X120984000Y-88539500D01*
X120984000Y-88793500D01*
X120857000Y-88793500D01*
X120857000Y-89174500D01*
X120730000Y-89174500D01*
X120730000Y-89555500D01*
X120603000Y-89555500D01*
X120603000Y-89936500D01*
X120476000Y-89936500D01*
X120476000Y-90317500D01*
X120603000Y-90317500D01*
X120603000Y-90698500D01*
X120730000Y-90698500D01*
X120730000Y-90825500D01*
X120857000Y-90825500D01*
X120857000Y-91079500D01*
X121111000Y-91079500D01*
X121111000Y-91206500D01*
X121238000Y-91206500D01*
X121238000Y-91333500D01*
X121365000Y-91333500D01*
X121365000Y-91460500D01*
X121492000Y-91460500D01*
X121492000Y-91079500D01*
X121365000Y-91079500D01*
X121365000Y-90698500D01*
X121238000Y-90698500D01*
X121238000Y-89428500D01*
X121365000Y-89428500D01*
X121365000Y-90190500D01*
X121492000Y-90190500D01*
X121492000Y-90571500D01*
X121619000Y-90571500D01*
X121619000Y-90698500D01*
X121746000Y-90698500D01*
X121746000Y-90825500D01*
X121873000Y-90825500D01*
X121873000Y-91079500D01*
X122127000Y-91079500D01*
X122127000Y-91206500D01*
X122381000Y-91206500D01*
X122381000Y-90952500D01*
X122254000Y-90952500D01*
X122254000Y-90698500D01*
X122127000Y-90698500D01*
X122127000Y-90571500D01*
X122000000Y-90571500D01*
X122000000Y-89428500D01*
X122127000Y-89428500D01*
X122127000Y-89301500D01*
X122254000Y-89301500D01*
X122254000Y-89174500D01*
X122381000Y-89174500D01*
X122381000Y-89047500D01*
X122635000Y-89047500D01*
X122635000Y-89428500D01*
X122508000Y-89428500D01*
X122508000Y-89809500D01*
X123143000Y-89809500D01*
X123143000Y-89936500D01*
X123270000Y-89936500D01*
X123270000Y-90063500D01*
X123143000Y-90063500D01*
X123143000Y-90698500D01*
X123270000Y-90698500D01*
X123270000Y-90825500D01*
X123397000Y-90825500D01*
X123397000Y-90952500D01*
X124032000Y-90952500D01*
X124032000Y-91333500D01*
X124159000Y-91333500D01*
X124159000Y-91460500D01*
X124413000Y-91460500D01*
X124413000Y-91206500D01*
X124794000Y-91206500D01*
X124794000Y-91079500D01*
X125048000Y-91079500D01*
X125048000Y-90952500D01*
X125175000Y-90952500D01*
X125175000Y-90698500D01*
X125302000Y-90698500D01*
X125302000Y-90952500D01*
X125429000Y-90952500D01*
X125429000Y-91079500D01*
X125810000Y-91079500D01*
X125810000Y-90698500D01*
X125937000Y-90698500D01*
X125937000Y-90571500D01*
X125429000Y-90571500D01*
X125429000Y-89555500D01*
X125175000Y-89555500D01*
X125175000Y-89428500D01*
X125683000Y-89428500D01*
X125683000Y-89301500D01*
X125937000Y-89301500D01*
X125937000Y-89428500D01*
X126064000Y-89428500D01*
X126064000Y-89555500D01*
X125810000Y-89555500D01*
X125810000Y-89682500D01*
X125683000Y-89682500D01*
X125683000Y-89809500D01*
X125556000Y-89809500D01*
X125556000Y-90063500D01*
X125937000Y-90063500D01*
X125937000Y-89936500D01*
X126064000Y-89936500D01*
X126064000Y-90190500D01*
X126191000Y-90190500D01*
X126191000Y-90317500D01*
X126064000Y-90317500D01*
X126064000Y-91079500D01*
X125937000Y-91079500D01*
X125937000Y-91333500D01*
X125810000Y-91333500D01*
X125810000Y-91587500D01*
X125683000Y-91587500D01*
X125683000Y-91714500D01*
X125556000Y-91714500D01*
X125556000Y-91841500D01*
X125302000Y-91841500D01*
X125302000Y-91968500D01*
X125175000Y-91968500D01*
X125175000Y-91714500D01*
X125429000Y-91714500D01*
X125429000Y-91460500D01*
X125302000Y-91460500D01*
X125302000Y-91587500D01*
X125175000Y-91587500D01*
X125175000Y-91714500D01*
X125175000Y-91968500D01*
X125048000Y-91968500D01*
X125048000Y-92095500D01*
X124921000Y-92095500D01*
X124921000Y-92222500D01*
X125429000Y-92222500D01*
X125429000Y-92095500D01*
X125683000Y-92095500D01*
X125683000Y-92349500D01*
X125810000Y-92349500D01*
X125810000Y-92476500D01*
X125810000Y-92603500D01*
X125683000Y-92603500D01*
X125683000Y-92730500D01*
X125429000Y-92730500D01*
X125429000Y-92984500D01*
X125175000Y-92984500D01*
X125175000Y-93111500D01*
X123905000Y-93111500D01*
X123905000Y-93238500D01*
X123651000Y-93238500D01*
X123651000Y-93365500D01*
X123270000Y-93365500D01*
X123270000Y-93111500D01*
X123397000Y-93111500D01*
X123397000Y-92984500D01*
X123270000Y-92984500D01*
X123270000Y-93111500D01*
X123270000Y-93365500D01*
X121746000Y-93365500D01*
X121746000Y-93111500D01*
X122508000Y-93111500D01*
X122508000Y-92857500D01*
X122635000Y-92857500D01*
X122635000Y-92730500D01*
X123651000Y-92730500D01*
X123651000Y-92603500D01*
X123778000Y-92603500D01*
X123778000Y-92730500D01*
X123905000Y-92730500D01*
X123905000Y-92857500D01*
X124921000Y-92857500D01*
X124921000Y-92730500D01*
X125302000Y-92730500D01*
X125302000Y-92603500D01*
X125556000Y-92603500D01*
X125556000Y-92476500D01*
X125683000Y-92476500D01*
X125683000Y-92349500D01*
X125429000Y-92349500D01*
X125429000Y-92476500D01*
X124667000Y-92476500D01*
X124667000Y-92603500D01*
X124286000Y-92603500D01*
X124286000Y-92730500D01*
X124032000Y-92730500D01*
X124032000Y-92476500D01*
X124413000Y-92476500D01*
X124413000Y-92349500D01*
X124286000Y-92349500D01*
X124286000Y-92222500D01*
X123778000Y-92222500D01*
X123778000Y-92349500D01*
X123397000Y-92349500D01*
X123397000Y-92476500D01*
X122762000Y-92476500D01*
X122762000Y-92603500D01*
X121746000Y-92603500D01*
X121746000Y-92730500D01*
X121111000Y-92730500D01*
X121111000Y-92857500D01*
X120984000Y-92857500D01*
X120984000Y-92984500D01*
X121746000Y-92984500D01*
X121746000Y-93111500D01*
X121746000Y-93365500D01*
X121111000Y-93365500D01*
X121111000Y-93238500D01*
X120603000Y-93238500D01*
X120603000Y-93111500D01*
X120222000Y-93111500D01*
X120222000Y-92984500D01*
X120222000Y-88666500D01*
X120349000Y-88666500D01*
X120349000Y-88539500D01*
X120222000Y-88539500D01*
X120222000Y-88666500D01*
X120222000Y-92984500D01*
X119714000Y-92984500D01*
X119714000Y-92857500D01*
X119460000Y-92857500D01*
X119460000Y-92730500D01*
X119333000Y-92730500D01*
X119333000Y-92603500D01*
X119587000Y-92603500D01*
X119587000Y-92349500D01*
X119460000Y-92349500D01*
X119460000Y-92222500D01*
X119333000Y-92222500D01*
X119333000Y-91968500D01*
X119460000Y-91968500D01*
X119460000Y-91841500D01*
X119587000Y-91841500D01*
X119587000Y-91714500D01*
X119714000Y-91714500D01*
X119714000Y-91587500D01*
X119587000Y-91587500D01*
X119587000Y-91460500D01*
X119206000Y-91460500D01*
X119206000Y-91841500D01*
X119333000Y-91841500D01*
X119333000Y-91968500D01*
X119333000Y-92222500D01*
X119206000Y-92222500D01*
X119206000Y-92095500D01*
X119079000Y-92095500D01*
X119079000Y-91841500D01*
X118952000Y-91841500D01*
X118952000Y-91587500D01*
X118952000Y-91333500D01*
X119333000Y-91333500D01*
X119333000Y-91079500D01*
X119460000Y-91079500D01*
X119460000Y-90952500D01*
X119333000Y-90952500D01*
X119333000Y-90698500D01*
X118952000Y-90698500D01*
X118952000Y-91333500D01*
X118952000Y-91587500D01*
X118825000Y-91587500D01*
X118825000Y-91206500D01*
X118825000Y-90444500D01*
X119206000Y-90444500D01*
X119206000Y-90317500D01*
X119460000Y-90317500D01*
X119460000Y-89936500D01*
X119206000Y-89936500D01*
X119206000Y-89555500D01*
X119841000Y-89555500D01*
X119841000Y-89174500D01*
X119333000Y-89174500D01*
X119333000Y-89301500D01*
X119206000Y-89301500D01*
X119206000Y-89555500D01*
X119206000Y-89936500D01*
X118952000Y-89936500D01*
X118952000Y-90063500D01*
X118825000Y-90063500D01*
X118825000Y-90444500D01*
X118825000Y-91206500D01*
X118698000Y-91206500D01*
X118698000Y-91079500D01*
X118571000Y-91079500D01*
X118571000Y-90571500D01*
X118444000Y-90571500D01*
X118444000Y-90063500D01*
X118571000Y-90063500D01*
X118571000Y-89936500D01*
X118698000Y-89936500D01*
X118698000Y-89428500D01*
X118825000Y-89428500D01*
X118825000Y-89301500D01*
X119079000Y-89301500D01*
X119079000Y-89174500D01*
X118952000Y-89174500D01*
X118952000Y-89047500D01*
X118825000Y-89047500D01*
X118825000Y-89174500D01*
X118698000Y-89174500D01*
X118698000Y-89301500D01*
X118571000Y-89301500D01*
X118571000Y-89428500D01*
X118317000Y-89428500D01*
X118317000Y-90952500D01*
X118444000Y-90952500D01*
X118444000Y-91206500D01*
X118571000Y-91206500D01*
X118571000Y-91333500D01*
X118444000Y-91333500D01*
X118444000Y-91460500D01*
X118317000Y-91460500D01*
X118317000Y-91333500D01*
X118190000Y-91333500D01*
X118190000Y-90952500D01*
X118063000Y-90952500D01*
X118063000Y-89936500D01*
X118190000Y-89936500D01*
X118190000Y-88793500D01*
X118317000Y-88793500D01*
X118317000Y-88539500D01*
X118571000Y-88539500D01*
X118571000Y-88412500D01*
X118444000Y-88412500D01*
X118444000Y-88285500D01*
X118317000Y-88285500D01*
X118317000Y-88412500D01*
X117936000Y-88412500D01*
X117936000Y-88539500D01*
X117809000Y-88539500D01*
X117809000Y-88793500D01*
X117682000Y-88793500D01*
X117682000Y-89047500D01*
X117555000Y-89047500D01*
X117555000Y-89555500D01*
X117428000Y-89555500D01*
X117428000Y-90952500D01*
X117555000Y-90952500D01*
X117555000Y-91206500D01*
X117682000Y-91206500D01*
X117682000Y-91333500D01*
X117809000Y-91333500D01*
X117809000Y-91460500D01*
X117936000Y-91460500D01*
X117936000Y-91587500D01*
X118063000Y-91587500D01*
X118063000Y-91714500D01*
X118190000Y-91714500D01*
X118190000Y-91841500D01*
X118317000Y-91841500D01*
X118317000Y-91968500D01*
X118444000Y-91968500D01*
X118444000Y-92095500D01*
X118698000Y-92095500D01*
X118698000Y-92222500D01*
X118952000Y-92222500D01*
X118952000Y-92349500D01*
X119079000Y-92349500D01*
X119079000Y-92476500D01*
X119333000Y-92476500D01*
X119333000Y-92603500D01*
X118952000Y-92603500D01*
X118952000Y-92476500D01*
X118698000Y-92476500D01*
X118698000Y-92349500D01*
X118571000Y-92349500D01*
X118571000Y-92222500D01*
X118444000Y-92222500D01*
X118444000Y-92095500D01*
X118063000Y-92095500D01*
X118063000Y-91968500D01*
X117936000Y-91968500D01*
X117936000Y-91841500D01*
X117809000Y-91841500D01*
X117809000Y-91587500D01*
X117555000Y-91587500D01*
X117555000Y-91333500D01*
X117428000Y-91333500D01*
X117428000Y-91206500D01*
X117301000Y-91206500D01*
X117301000Y-90952500D01*
X117174000Y-90952500D01*
X117174000Y-89301500D01*
X117301000Y-89301500D01*
G36*
X121873000Y-38158500D02*
G01*
X121873000Y-38031500D01*
X122000000Y-38031500D01*
X122000000Y-38285500D01*
X121873000Y-38285500D01*
X121873000Y-38412500D01*
X121746000Y-38412500D01*
X121746000Y-38158500D01*
X121873000Y-38158500D01*
X121873000Y-38158500D01*
G37*
X121873000Y-38158500D02*
X121873000Y-38031500D01*
X122000000Y-38031500D01*
X122000000Y-38285500D01*
X121873000Y-38285500D01*
X121873000Y-38412500D01*
X121746000Y-38412500D01*
X121746000Y-38158500D01*
X121873000Y-38158500D01*
G36*
X123651000Y-39682500D02*
G01*
X123651000Y-39555500D01*
X123778000Y-39555500D01*
X123778000Y-39809500D01*
X123524000Y-39809500D01*
X123524000Y-39682500D01*
X123651000Y-39682500D01*
X123651000Y-39682500D01*
G37*
X123651000Y-39682500D02*
X123651000Y-39555500D01*
X123778000Y-39555500D01*
X123778000Y-39809500D01*
X123524000Y-39809500D01*
X123524000Y-39682500D01*
X123651000Y-39682500D01*
G36*
X124286000Y-40825500D02*
G01*
X124286000Y-40952500D01*
X124032000Y-40952500D01*
X124032000Y-40825500D01*
X124286000Y-40825500D01*
X124286000Y-40825500D01*
G37*
X124286000Y-40825500D02*
X124286000Y-40952500D01*
X124032000Y-40952500D01*
X124032000Y-40825500D01*
X124286000Y-40825500D01*
G36*
X125048000Y-38158500D02*
G01*
X125048000Y-38031500D01*
X125302000Y-38031500D01*
X125302000Y-38158500D01*
X125429000Y-38158500D01*
X125429000Y-38285500D01*
X124921000Y-38285500D01*
X124921000Y-38158500D01*
X125048000Y-38158500D01*
X125048000Y-38158500D01*
G37*
X125048000Y-38158500D02*
X125048000Y-38031500D01*
X125302000Y-38031500D01*
X125302000Y-38158500D01*
X125429000Y-38158500D01*
X125429000Y-38285500D01*
X124921000Y-38285500D01*
X124921000Y-38158500D01*
X125048000Y-38158500D01*
G36*
X125429000Y-40571500D02*
G01*
X125429000Y-40698500D01*
X125302000Y-40698500D01*
X125302000Y-40571500D01*
X125429000Y-40571500D01*
X125429000Y-40571500D01*
G37*
X125429000Y-40571500D02*
X125429000Y-40698500D01*
X125302000Y-40698500D01*
X125302000Y-40571500D01*
X125429000Y-40571500D01*
G36*
X117301000Y-39301500D02*
G01*
X117301000Y-38920500D01*
X117428000Y-38920500D01*
X117428000Y-38412500D01*
X117555000Y-38412500D01*
X117555000Y-38285500D01*
X117682000Y-38285500D01*
X117682000Y-38158500D01*
X117809000Y-38158500D01*
X117809000Y-38031500D01*
X117936000Y-38031500D01*
X117936000Y-37904500D01*
X118190000Y-37904500D01*
X118190000Y-37777500D01*
X118444000Y-37777500D01*
X118444000Y-37650500D01*
X118698000Y-37650500D01*
X118698000Y-37523500D01*
X118952000Y-37523500D01*
X118952000Y-37396500D01*
X119206000Y-37396500D01*
X119206000Y-37269500D01*
X119460000Y-37269500D01*
X119460000Y-37142500D01*
X119841000Y-37142500D01*
X119841000Y-37015500D01*
X120349000Y-37015500D01*
X120349000Y-36888500D01*
X120857000Y-36888500D01*
X120857000Y-36634500D01*
X124286000Y-36634500D01*
X124286000Y-36888500D01*
X124540000Y-36888500D01*
X124540000Y-37015500D01*
X124921000Y-37015500D01*
X124921000Y-37142500D01*
X125175000Y-37142500D01*
X125175000Y-37269500D01*
X125429000Y-37269500D01*
X125429000Y-37396500D01*
X125556000Y-37396500D01*
X125556000Y-37523500D01*
X125810000Y-37523500D01*
X125810000Y-37650500D01*
X126064000Y-37650500D01*
X126064000Y-37777500D01*
X126191000Y-37777500D01*
X126191000Y-37904500D01*
X126318000Y-37904500D01*
X126318000Y-38158500D01*
X126445000Y-38158500D01*
X126445000Y-38666500D01*
X126572000Y-38666500D01*
X126572000Y-39047500D01*
X126699000Y-39047500D01*
X126699000Y-39555500D01*
X126826000Y-39555500D01*
X126826000Y-41079500D01*
X126699000Y-41079500D01*
X126699000Y-41206500D01*
X126572000Y-41206500D01*
X126572000Y-41587500D01*
X126445000Y-41587500D01*
X126445000Y-41714500D01*
X126318000Y-41714500D01*
X126318000Y-41968500D01*
X126191000Y-41968500D01*
X126191000Y-42222500D01*
X126064000Y-42222500D01*
X126064000Y-42349500D01*
X125937000Y-42349500D01*
X125937000Y-42476500D01*
X125810000Y-42476500D01*
X125810000Y-42349500D01*
X125810000Y-42222500D01*
X125937000Y-42222500D01*
X125937000Y-41968500D01*
X126064000Y-41968500D01*
X126064000Y-41841500D01*
X126191000Y-41841500D01*
X126191000Y-41714500D01*
X126318000Y-41714500D01*
X126318000Y-41460500D01*
X126445000Y-41460500D01*
X126445000Y-41206500D01*
X126572000Y-41206500D01*
X126572000Y-40698500D01*
X126699000Y-40698500D01*
X126699000Y-39936500D01*
X126572000Y-39936500D01*
X126572000Y-39809500D01*
X126445000Y-39809500D01*
X126445000Y-39555500D01*
X126572000Y-39555500D01*
X126572000Y-39428500D01*
X126445000Y-39428500D01*
X126445000Y-39301500D01*
X126318000Y-39301500D01*
X126318000Y-39174500D01*
X126191000Y-39174500D01*
X126191000Y-38920500D01*
X126064000Y-38920500D01*
X126064000Y-38412500D01*
X125810000Y-38412500D01*
X125810000Y-38158500D01*
X126064000Y-38158500D01*
X126064000Y-38031500D01*
X125810000Y-38031500D01*
X125810000Y-37904500D01*
X125683000Y-37904500D01*
X125683000Y-37777500D01*
X125429000Y-37777500D01*
X125429000Y-37650500D01*
X125175000Y-37650500D01*
X125175000Y-37523500D01*
X124921000Y-37523500D01*
X124921000Y-37396500D01*
X124413000Y-37396500D01*
X124413000Y-37269500D01*
X123778000Y-37269500D01*
X123778000Y-37142500D01*
X122889000Y-37142500D01*
X122889000Y-37269500D01*
X122508000Y-37269500D01*
X122508000Y-37396500D01*
X122889000Y-37396500D01*
X122889000Y-37523500D01*
X123651000Y-37523500D01*
X123651000Y-37650500D01*
X124540000Y-37650500D01*
X124540000Y-37777500D01*
X124794000Y-37777500D01*
X124794000Y-37904500D01*
X125048000Y-37904500D01*
X125048000Y-38031500D01*
X124540000Y-38031500D01*
X124540000Y-38285500D01*
X124794000Y-38285500D01*
X124794000Y-38412500D01*
X125048000Y-38412500D01*
X125048000Y-38539500D01*
X124921000Y-38539500D01*
X124921000Y-38666500D01*
X125048000Y-38666500D01*
X125048000Y-38793500D01*
X125429000Y-38793500D01*
X125429000Y-38666500D01*
X125556000Y-38666500D01*
X125556000Y-38793500D01*
X125810000Y-38793500D01*
X125810000Y-38666500D01*
X125937000Y-38666500D01*
X125937000Y-39174500D01*
X125810000Y-39174500D01*
X125810000Y-38920500D01*
X125429000Y-38920500D01*
X125429000Y-39047500D01*
X125302000Y-39047500D01*
X125302000Y-39174500D01*
X125048000Y-39174500D01*
X125048000Y-39047500D01*
X124921000Y-39047500D01*
X124921000Y-38920500D01*
X124794000Y-38920500D01*
X124794000Y-38793500D01*
X124667000Y-38793500D01*
X124667000Y-38666500D01*
X124413000Y-38666500D01*
X124413000Y-38793500D01*
X124286000Y-38793500D01*
X124286000Y-39047500D01*
X123397000Y-39047500D01*
X123397000Y-38920500D01*
X123270000Y-38920500D01*
X123270000Y-38539500D01*
X123143000Y-38539500D01*
X123143000Y-38285500D01*
X122762000Y-38285500D01*
X122762000Y-38412500D01*
X122635000Y-38412500D01*
X122635000Y-38539500D01*
X122508000Y-38539500D01*
X122508000Y-38031500D01*
X122381000Y-38031500D01*
X122381000Y-37904500D01*
X122254000Y-37904500D01*
X122254000Y-37396500D01*
X122381000Y-37396500D01*
X122381000Y-37269500D01*
X122254000Y-37269500D01*
X122254000Y-37396500D01*
X122254000Y-37904500D01*
X121746000Y-37904500D01*
X121746000Y-37523500D01*
X122127000Y-37523500D01*
X122127000Y-37396500D01*
X121746000Y-37396500D01*
X121746000Y-37523500D01*
X121746000Y-37904500D01*
X121492000Y-37904500D01*
X121492000Y-38031500D01*
X121365000Y-38031500D01*
X121365000Y-38285500D01*
X121238000Y-38285500D01*
X121238000Y-38412500D01*
X121111000Y-38412500D01*
X121111000Y-38539500D01*
X120984000Y-38539500D01*
X120984000Y-38793500D01*
X120857000Y-38793500D01*
X120857000Y-39174500D01*
X120730000Y-39174500D01*
X120730000Y-39555500D01*
X120603000Y-39555500D01*
X120603000Y-39936500D01*
X120476000Y-39936500D01*
X120476000Y-40317500D01*
X120603000Y-40317500D01*
X120603000Y-40698500D01*
X120730000Y-40698500D01*
X120730000Y-40825500D01*
X120857000Y-40825500D01*
X120857000Y-41079500D01*
X121111000Y-41079500D01*
X121111000Y-41206500D01*
X121238000Y-41206500D01*
X121238000Y-41333500D01*
X121365000Y-41333500D01*
X121365000Y-41460500D01*
X121492000Y-41460500D01*
X121492000Y-41079500D01*
X121365000Y-41079500D01*
X121365000Y-40698500D01*
X121238000Y-40698500D01*
X121238000Y-39428500D01*
X121365000Y-39428500D01*
X121365000Y-40190500D01*
X121492000Y-40190500D01*
X121492000Y-40571500D01*
X121619000Y-40571500D01*
X121619000Y-40698500D01*
X121746000Y-40698500D01*
X121746000Y-40825500D01*
X121873000Y-40825500D01*
X121873000Y-41079500D01*
X122127000Y-41079500D01*
X122127000Y-41206500D01*
X122381000Y-41206500D01*
X122381000Y-40952500D01*
X122254000Y-40952500D01*
X122254000Y-40698500D01*
X122127000Y-40698500D01*
X122127000Y-40571500D01*
X122000000Y-40571500D01*
X122000000Y-39428500D01*
X122127000Y-39428500D01*
X122127000Y-39301500D01*
X122254000Y-39301500D01*
X122254000Y-39174500D01*
X122381000Y-39174500D01*
X122381000Y-39047500D01*
X122635000Y-39047500D01*
X122635000Y-39428500D01*
X122508000Y-39428500D01*
X122508000Y-39809500D01*
X123143000Y-39809500D01*
X123143000Y-39936500D01*
X123270000Y-39936500D01*
X123270000Y-40063500D01*
X123143000Y-40063500D01*
X123143000Y-40698500D01*
X123270000Y-40698500D01*
X123270000Y-40825500D01*
X123397000Y-40825500D01*
X123397000Y-40952500D01*
X124032000Y-40952500D01*
X124032000Y-41333500D01*
X124159000Y-41333500D01*
X124159000Y-41460500D01*
X124413000Y-41460500D01*
X124413000Y-41206500D01*
X124794000Y-41206500D01*
X124794000Y-41079500D01*
X125048000Y-41079500D01*
X125048000Y-40952500D01*
X125175000Y-40952500D01*
X125175000Y-40698500D01*
X125302000Y-40698500D01*
X125302000Y-40952500D01*
X125429000Y-40952500D01*
X125429000Y-41079500D01*
X125810000Y-41079500D01*
X125810000Y-40698500D01*
X125937000Y-40698500D01*
X125937000Y-40571500D01*
X125429000Y-40571500D01*
X125429000Y-39555500D01*
X125175000Y-39555500D01*
X125175000Y-39428500D01*
X125683000Y-39428500D01*
X125683000Y-39301500D01*
X125937000Y-39301500D01*
X125937000Y-39428500D01*
X126064000Y-39428500D01*
X126064000Y-39555500D01*
X125810000Y-39555500D01*
X125810000Y-39682500D01*
X125683000Y-39682500D01*
X125683000Y-39809500D01*
X125556000Y-39809500D01*
X125556000Y-40063500D01*
X125937000Y-40063500D01*
X125937000Y-39936500D01*
X126064000Y-39936500D01*
X126064000Y-40190500D01*
X126191000Y-40190500D01*
X126191000Y-40317500D01*
X126064000Y-40317500D01*
X126064000Y-41079500D01*
X125937000Y-41079500D01*
X125937000Y-41333500D01*
X125810000Y-41333500D01*
X125810000Y-41587500D01*
X125683000Y-41587500D01*
X125683000Y-41714500D01*
X125556000Y-41714500D01*
X125556000Y-41841500D01*
X125302000Y-41841500D01*
X125302000Y-41968500D01*
X125175000Y-41968500D01*
X125175000Y-41714500D01*
X125429000Y-41714500D01*
X125429000Y-41460500D01*
X125302000Y-41460500D01*
X125302000Y-41587500D01*
X125175000Y-41587500D01*
X125175000Y-41714500D01*
X125175000Y-41968500D01*
X125048000Y-41968500D01*
X125048000Y-42095500D01*
X124921000Y-42095500D01*
X124921000Y-42222500D01*
X125429000Y-42222500D01*
X125429000Y-42095500D01*
X125683000Y-42095500D01*
X125683000Y-42349500D01*
X125810000Y-42349500D01*
X125810000Y-42476500D01*
X125810000Y-42603500D01*
X125683000Y-42603500D01*
X125683000Y-42730500D01*
X125429000Y-42730500D01*
X125429000Y-42984500D01*
X125175000Y-42984500D01*
X125175000Y-43111500D01*
X123905000Y-43111500D01*
X123905000Y-43238500D01*
X123651000Y-43238500D01*
X123651000Y-43365500D01*
X123270000Y-43365500D01*
X123270000Y-43111500D01*
X123397000Y-43111500D01*
X123397000Y-42984500D01*
X123270000Y-42984500D01*
X123270000Y-43111500D01*
X123270000Y-43365500D01*
X121746000Y-43365500D01*
X121746000Y-43111500D01*
X122508000Y-43111500D01*
X122508000Y-42857500D01*
X122635000Y-42857500D01*
X122635000Y-42730500D01*
X123651000Y-42730500D01*
X123651000Y-42603500D01*
X123778000Y-42603500D01*
X123778000Y-42730500D01*
X123905000Y-42730500D01*
X123905000Y-42857500D01*
X124921000Y-42857500D01*
X124921000Y-42730500D01*
X125302000Y-42730500D01*
X125302000Y-42603500D01*
X125556000Y-42603500D01*
X125556000Y-42476500D01*
X125683000Y-42476500D01*
X125683000Y-42349500D01*
X125429000Y-42349500D01*
X125429000Y-42476500D01*
X124667000Y-42476500D01*
X124667000Y-42603500D01*
X124286000Y-42603500D01*
X124286000Y-42730500D01*
X124032000Y-42730500D01*
X124032000Y-42476500D01*
X124413000Y-42476500D01*
X124413000Y-42349500D01*
X124286000Y-42349500D01*
X124286000Y-42222500D01*
X123778000Y-42222500D01*
X123778000Y-42349500D01*
X123397000Y-42349500D01*
X123397000Y-42476500D01*
X122762000Y-42476500D01*
X122762000Y-42603500D01*
X121746000Y-42603500D01*
X121746000Y-42730500D01*
X121111000Y-42730500D01*
X121111000Y-42857500D01*
X120984000Y-42857500D01*
X120984000Y-42984500D01*
X121746000Y-42984500D01*
X121746000Y-43111500D01*
X121746000Y-43365500D01*
X121111000Y-43365500D01*
X121111000Y-43238500D01*
X120603000Y-43238500D01*
X120603000Y-43111500D01*
X120222000Y-43111500D01*
X120222000Y-42984500D01*
X120222000Y-38666500D01*
X120349000Y-38666500D01*
X120349000Y-38539500D01*
X120222000Y-38539500D01*
X120222000Y-38666500D01*
X120222000Y-42984500D01*
X119714000Y-42984500D01*
X119714000Y-42857500D01*
X119460000Y-42857500D01*
X119460000Y-42730500D01*
X119333000Y-42730500D01*
X119333000Y-42603500D01*
X119587000Y-42603500D01*
X119587000Y-42349500D01*
X119460000Y-42349500D01*
X119460000Y-42222500D01*
X119333000Y-42222500D01*
X119333000Y-41968500D01*
X119460000Y-41968500D01*
X119460000Y-41841500D01*
X119587000Y-41841500D01*
X119587000Y-41714500D01*
X119714000Y-41714500D01*
X119714000Y-41587500D01*
X119587000Y-41587500D01*
X119587000Y-41460500D01*
X119206000Y-41460500D01*
X119206000Y-41841500D01*
X119333000Y-41841500D01*
X119333000Y-41968500D01*
X119333000Y-42222500D01*
X119206000Y-42222500D01*
X119206000Y-42095500D01*
X119079000Y-42095500D01*
X119079000Y-41841500D01*
X118952000Y-41841500D01*
X118952000Y-41587500D01*
X118952000Y-41333500D01*
X119333000Y-41333500D01*
X119333000Y-41079500D01*
X119460000Y-41079500D01*
X119460000Y-40952500D01*
X119333000Y-40952500D01*
X119333000Y-40698500D01*
X118952000Y-40698500D01*
X118952000Y-41333500D01*
X118952000Y-41587500D01*
X118825000Y-41587500D01*
X118825000Y-41206500D01*
X118825000Y-40444500D01*
X119206000Y-40444500D01*
X119206000Y-40317500D01*
X119460000Y-40317500D01*
X119460000Y-39936500D01*
X119206000Y-39936500D01*
X119206000Y-39555500D01*
X119841000Y-39555500D01*
X119841000Y-39174500D01*
X119333000Y-39174500D01*
X119333000Y-39301500D01*
X119206000Y-39301500D01*
X119206000Y-39555500D01*
X119206000Y-39936500D01*
X118952000Y-39936500D01*
X118952000Y-40063500D01*
X118825000Y-40063500D01*
X118825000Y-40444500D01*
X118825000Y-41206500D01*
X118698000Y-41206500D01*
X118698000Y-41079500D01*
X118571000Y-41079500D01*
X118571000Y-40571500D01*
X118444000Y-40571500D01*
X118444000Y-40063500D01*
X118571000Y-40063500D01*
X118571000Y-39936500D01*
X118698000Y-39936500D01*
X118698000Y-39428500D01*
X118825000Y-39428500D01*
X118825000Y-39301500D01*
X119079000Y-39301500D01*
X119079000Y-39174500D01*
X118952000Y-39174500D01*
X118952000Y-39047500D01*
X118825000Y-39047500D01*
X118825000Y-39174500D01*
X118698000Y-39174500D01*
X118698000Y-39301500D01*
X118571000Y-39301500D01*
X118571000Y-39428500D01*
X118317000Y-39428500D01*
X118317000Y-40952500D01*
X118444000Y-40952500D01*
X118444000Y-41206500D01*
X118571000Y-41206500D01*
X118571000Y-41333500D01*
X118444000Y-41333500D01*
X118444000Y-41460500D01*
X118317000Y-41460500D01*
X118317000Y-41333500D01*
X118190000Y-41333500D01*
X118190000Y-40952500D01*
X118063000Y-40952500D01*
X118063000Y-39936500D01*
X118190000Y-39936500D01*
X118190000Y-38793500D01*
X118317000Y-38793500D01*
X118317000Y-38539500D01*
X118571000Y-38539500D01*
X118571000Y-38412500D01*
X118444000Y-38412500D01*
X118444000Y-38285500D01*
X118317000Y-38285500D01*
X118317000Y-38412500D01*
X117936000Y-38412500D01*
X117936000Y-38539500D01*
X117809000Y-38539500D01*
X117809000Y-38793500D01*
X117682000Y-38793500D01*
X117682000Y-39047500D01*
X117555000Y-39047500D01*
X117555000Y-39555500D01*
X117428000Y-39555500D01*
X117428000Y-40952500D01*
X117555000Y-40952500D01*
X117555000Y-41206500D01*
X117682000Y-41206500D01*
X117682000Y-41333500D01*
X117809000Y-41333500D01*
X117809000Y-41460500D01*
X117936000Y-41460500D01*
X117936000Y-41587500D01*
X118063000Y-41587500D01*
X118063000Y-41714500D01*
X118190000Y-41714500D01*
X118190000Y-41841500D01*
X118317000Y-41841500D01*
X118317000Y-41968500D01*
X118444000Y-41968500D01*
X118444000Y-42095500D01*
X118698000Y-42095500D01*
X118698000Y-42222500D01*
X118952000Y-42222500D01*
X118952000Y-42349500D01*
X119079000Y-42349500D01*
X119079000Y-42476500D01*
X119333000Y-42476500D01*
X119333000Y-42603500D01*
X118952000Y-42603500D01*
X118952000Y-42476500D01*
X118698000Y-42476500D01*
X118698000Y-42349500D01*
X118571000Y-42349500D01*
X118571000Y-42222500D01*
X118444000Y-42222500D01*
X118444000Y-42095500D01*
X118063000Y-42095500D01*
X118063000Y-41968500D01*
X117936000Y-41968500D01*
X117936000Y-41841500D01*
X117809000Y-41841500D01*
X117809000Y-41587500D01*
X117555000Y-41587500D01*
X117555000Y-41333500D01*
X117428000Y-41333500D01*
X117428000Y-41206500D01*
X117301000Y-41206500D01*
X117301000Y-40952500D01*
X117174000Y-40952500D01*
X117174000Y-39301500D01*
X117301000Y-39301500D01*
X117301000Y-39301500D01*
G37*
X117301000Y-39301500D02*
X117301000Y-38920500D01*
X117428000Y-38920500D01*
X117428000Y-38412500D01*
X117555000Y-38412500D01*
X117555000Y-38285500D01*
X117682000Y-38285500D01*
X117682000Y-38158500D01*
X117809000Y-38158500D01*
X117809000Y-38031500D01*
X117936000Y-38031500D01*
X117936000Y-37904500D01*
X118190000Y-37904500D01*
X118190000Y-37777500D01*
X118444000Y-37777500D01*
X118444000Y-37650500D01*
X118698000Y-37650500D01*
X118698000Y-37523500D01*
X118952000Y-37523500D01*
X118952000Y-37396500D01*
X119206000Y-37396500D01*
X119206000Y-37269500D01*
X119460000Y-37269500D01*
X119460000Y-37142500D01*
X119841000Y-37142500D01*
X119841000Y-37015500D01*
X120349000Y-37015500D01*
X120349000Y-36888500D01*
X120857000Y-36888500D01*
X120857000Y-36634500D01*
X124286000Y-36634500D01*
X124286000Y-36888500D01*
X124540000Y-36888500D01*
X124540000Y-37015500D01*
X124921000Y-37015500D01*
X124921000Y-37142500D01*
X125175000Y-37142500D01*
X125175000Y-37269500D01*
X125429000Y-37269500D01*
X125429000Y-37396500D01*
X125556000Y-37396500D01*
X125556000Y-37523500D01*
X125810000Y-37523500D01*
X125810000Y-37650500D01*
X126064000Y-37650500D01*
X126064000Y-37777500D01*
X126191000Y-37777500D01*
X126191000Y-37904500D01*
X126318000Y-37904500D01*
X126318000Y-38158500D01*
X126445000Y-38158500D01*
X126445000Y-38666500D01*
X126572000Y-38666500D01*
X126572000Y-39047500D01*
X126699000Y-39047500D01*
X126699000Y-39555500D01*
X126826000Y-39555500D01*
X126826000Y-41079500D01*
X126699000Y-41079500D01*
X126699000Y-41206500D01*
X126572000Y-41206500D01*
X126572000Y-41587500D01*
X126445000Y-41587500D01*
X126445000Y-41714500D01*
X126318000Y-41714500D01*
X126318000Y-41968500D01*
X126191000Y-41968500D01*
X126191000Y-42222500D01*
X126064000Y-42222500D01*
X126064000Y-42349500D01*
X125937000Y-42349500D01*
X125937000Y-42476500D01*
X125810000Y-42476500D01*
X125810000Y-42349500D01*
X125810000Y-42222500D01*
X125937000Y-42222500D01*
X125937000Y-41968500D01*
X126064000Y-41968500D01*
X126064000Y-41841500D01*
X126191000Y-41841500D01*
X126191000Y-41714500D01*
X126318000Y-41714500D01*
X126318000Y-41460500D01*
X126445000Y-41460500D01*
X126445000Y-41206500D01*
X126572000Y-41206500D01*
X126572000Y-40698500D01*
X126699000Y-40698500D01*
X126699000Y-39936500D01*
X126572000Y-39936500D01*
X126572000Y-39809500D01*
X126445000Y-39809500D01*
X126445000Y-39555500D01*
X126572000Y-39555500D01*
X126572000Y-39428500D01*
X126445000Y-39428500D01*
X126445000Y-39301500D01*
X126318000Y-39301500D01*
X126318000Y-39174500D01*
X126191000Y-39174500D01*
X126191000Y-38920500D01*
X126064000Y-38920500D01*
X126064000Y-38412500D01*
X125810000Y-38412500D01*
X125810000Y-38158500D01*
X126064000Y-38158500D01*
X126064000Y-38031500D01*
X125810000Y-38031500D01*
X125810000Y-37904500D01*
X125683000Y-37904500D01*
X125683000Y-37777500D01*
X125429000Y-37777500D01*
X125429000Y-37650500D01*
X125175000Y-37650500D01*
X125175000Y-37523500D01*
X124921000Y-37523500D01*
X124921000Y-37396500D01*
X124413000Y-37396500D01*
X124413000Y-37269500D01*
X123778000Y-37269500D01*
X123778000Y-37142500D01*
X122889000Y-37142500D01*
X122889000Y-37269500D01*
X122508000Y-37269500D01*
X122508000Y-37396500D01*
X122889000Y-37396500D01*
X122889000Y-37523500D01*
X123651000Y-37523500D01*
X123651000Y-37650500D01*
X124540000Y-37650500D01*
X124540000Y-37777500D01*
X124794000Y-37777500D01*
X124794000Y-37904500D01*
X125048000Y-37904500D01*
X125048000Y-38031500D01*
X124540000Y-38031500D01*
X124540000Y-38285500D01*
X124794000Y-38285500D01*
X124794000Y-38412500D01*
X125048000Y-38412500D01*
X125048000Y-38539500D01*
X124921000Y-38539500D01*
X124921000Y-38666500D01*
X125048000Y-38666500D01*
X125048000Y-38793500D01*
X125429000Y-38793500D01*
X125429000Y-38666500D01*
X125556000Y-38666500D01*
X125556000Y-38793500D01*
X125810000Y-38793500D01*
X125810000Y-38666500D01*
X125937000Y-38666500D01*
X125937000Y-39174500D01*
X125810000Y-39174500D01*
X125810000Y-38920500D01*
X125429000Y-38920500D01*
X125429000Y-39047500D01*
X125302000Y-39047500D01*
X125302000Y-39174500D01*
X125048000Y-39174500D01*
X125048000Y-39047500D01*
X124921000Y-39047500D01*
X124921000Y-38920500D01*
X124794000Y-38920500D01*
X124794000Y-38793500D01*
X124667000Y-38793500D01*
X124667000Y-38666500D01*
X124413000Y-38666500D01*
X124413000Y-38793500D01*
X124286000Y-38793500D01*
X124286000Y-39047500D01*
X123397000Y-39047500D01*
X123397000Y-38920500D01*
X123270000Y-38920500D01*
X123270000Y-38539500D01*
X123143000Y-38539500D01*
X123143000Y-38285500D01*
X122762000Y-38285500D01*
X122762000Y-38412500D01*
X122635000Y-38412500D01*
X122635000Y-38539500D01*
X122508000Y-38539500D01*
X122508000Y-38031500D01*
X122381000Y-38031500D01*
X122381000Y-37904500D01*
X122254000Y-37904500D01*
X122254000Y-37396500D01*
X122381000Y-37396500D01*
X122381000Y-37269500D01*
X122254000Y-37269500D01*
X122254000Y-37396500D01*
X122254000Y-37904500D01*
X121746000Y-37904500D01*
X121746000Y-37523500D01*
X122127000Y-37523500D01*
X122127000Y-37396500D01*
X121746000Y-37396500D01*
X121746000Y-37523500D01*
X121746000Y-37904500D01*
X121492000Y-37904500D01*
X121492000Y-38031500D01*
X121365000Y-38031500D01*
X121365000Y-38285500D01*
X121238000Y-38285500D01*
X121238000Y-38412500D01*
X121111000Y-38412500D01*
X121111000Y-38539500D01*
X120984000Y-38539500D01*
X120984000Y-38793500D01*
X120857000Y-38793500D01*
X120857000Y-39174500D01*
X120730000Y-39174500D01*
X120730000Y-39555500D01*
X120603000Y-39555500D01*
X120603000Y-39936500D01*
X120476000Y-39936500D01*
X120476000Y-40317500D01*
X120603000Y-40317500D01*
X120603000Y-40698500D01*
X120730000Y-40698500D01*
X120730000Y-40825500D01*
X120857000Y-40825500D01*
X120857000Y-41079500D01*
X121111000Y-41079500D01*
X121111000Y-41206500D01*
X121238000Y-41206500D01*
X121238000Y-41333500D01*
X121365000Y-41333500D01*
X121365000Y-41460500D01*
X121492000Y-41460500D01*
X121492000Y-41079500D01*
X121365000Y-41079500D01*
X121365000Y-40698500D01*
X121238000Y-40698500D01*
X121238000Y-39428500D01*
X121365000Y-39428500D01*
X121365000Y-40190500D01*
X121492000Y-40190500D01*
X121492000Y-40571500D01*
X121619000Y-40571500D01*
X121619000Y-40698500D01*
X121746000Y-40698500D01*
X121746000Y-40825500D01*
X121873000Y-40825500D01*
X121873000Y-41079500D01*
X122127000Y-41079500D01*
X122127000Y-41206500D01*
X122381000Y-41206500D01*
X122381000Y-40952500D01*
X122254000Y-40952500D01*
X122254000Y-40698500D01*
X122127000Y-40698500D01*
X122127000Y-40571500D01*
X122000000Y-40571500D01*
X122000000Y-39428500D01*
X122127000Y-39428500D01*
X122127000Y-39301500D01*
X122254000Y-39301500D01*
X122254000Y-39174500D01*
X122381000Y-39174500D01*
X122381000Y-39047500D01*
X122635000Y-39047500D01*
X122635000Y-39428500D01*
X122508000Y-39428500D01*
X122508000Y-39809500D01*
X123143000Y-39809500D01*
X123143000Y-39936500D01*
X123270000Y-39936500D01*
X123270000Y-40063500D01*
X123143000Y-40063500D01*
X123143000Y-40698500D01*
X123270000Y-40698500D01*
X123270000Y-40825500D01*
X123397000Y-40825500D01*
X123397000Y-40952500D01*
X124032000Y-40952500D01*
X124032000Y-41333500D01*
X124159000Y-41333500D01*
X124159000Y-41460500D01*
X124413000Y-41460500D01*
X124413000Y-41206500D01*
X124794000Y-41206500D01*
X124794000Y-41079500D01*
X125048000Y-41079500D01*
X125048000Y-40952500D01*
X125175000Y-40952500D01*
X125175000Y-40698500D01*
X125302000Y-40698500D01*
X125302000Y-40952500D01*
X125429000Y-40952500D01*
X125429000Y-41079500D01*
X125810000Y-41079500D01*
X125810000Y-40698500D01*
X125937000Y-40698500D01*
X125937000Y-40571500D01*
X125429000Y-40571500D01*
X125429000Y-39555500D01*
X125175000Y-39555500D01*
X125175000Y-39428500D01*
X125683000Y-39428500D01*
X125683000Y-39301500D01*
X125937000Y-39301500D01*
X125937000Y-39428500D01*
X126064000Y-39428500D01*
X126064000Y-39555500D01*
X125810000Y-39555500D01*
X125810000Y-39682500D01*
X125683000Y-39682500D01*
X125683000Y-39809500D01*
X125556000Y-39809500D01*
X125556000Y-40063500D01*
X125937000Y-40063500D01*
X125937000Y-39936500D01*
X126064000Y-39936500D01*
X126064000Y-40190500D01*
X126191000Y-40190500D01*
X126191000Y-40317500D01*
X126064000Y-40317500D01*
X126064000Y-41079500D01*
X125937000Y-41079500D01*
X125937000Y-41333500D01*
X125810000Y-41333500D01*
X125810000Y-41587500D01*
X125683000Y-41587500D01*
X125683000Y-41714500D01*
X125556000Y-41714500D01*
X125556000Y-41841500D01*
X125302000Y-41841500D01*
X125302000Y-41968500D01*
X125175000Y-41968500D01*
X125175000Y-41714500D01*
X125429000Y-41714500D01*
X125429000Y-41460500D01*
X125302000Y-41460500D01*
X125302000Y-41587500D01*
X125175000Y-41587500D01*
X125175000Y-41714500D01*
X125175000Y-41968500D01*
X125048000Y-41968500D01*
X125048000Y-42095500D01*
X124921000Y-42095500D01*
X124921000Y-42222500D01*
X125429000Y-42222500D01*
X125429000Y-42095500D01*
X125683000Y-42095500D01*
X125683000Y-42349500D01*
X125810000Y-42349500D01*
X125810000Y-42476500D01*
X125810000Y-42603500D01*
X125683000Y-42603500D01*
X125683000Y-42730500D01*
X125429000Y-42730500D01*
X125429000Y-42984500D01*
X125175000Y-42984500D01*
X125175000Y-43111500D01*
X123905000Y-43111500D01*
X123905000Y-43238500D01*
X123651000Y-43238500D01*
X123651000Y-43365500D01*
X123270000Y-43365500D01*
X123270000Y-43111500D01*
X123397000Y-43111500D01*
X123397000Y-42984500D01*
X123270000Y-42984500D01*
X123270000Y-43111500D01*
X123270000Y-43365500D01*
X121746000Y-43365500D01*
X121746000Y-43111500D01*
X122508000Y-43111500D01*
X122508000Y-42857500D01*
X122635000Y-42857500D01*
X122635000Y-42730500D01*
X123651000Y-42730500D01*
X123651000Y-42603500D01*
X123778000Y-42603500D01*
X123778000Y-42730500D01*
X123905000Y-42730500D01*
X123905000Y-42857500D01*
X124921000Y-42857500D01*
X124921000Y-42730500D01*
X125302000Y-42730500D01*
X125302000Y-42603500D01*
X125556000Y-42603500D01*
X125556000Y-42476500D01*
X125683000Y-42476500D01*
X125683000Y-42349500D01*
X125429000Y-42349500D01*
X125429000Y-42476500D01*
X124667000Y-42476500D01*
X124667000Y-42603500D01*
X124286000Y-42603500D01*
X124286000Y-42730500D01*
X124032000Y-42730500D01*
X124032000Y-42476500D01*
X124413000Y-42476500D01*
X124413000Y-42349500D01*
X124286000Y-42349500D01*
X124286000Y-42222500D01*
X123778000Y-42222500D01*
X123778000Y-42349500D01*
X123397000Y-42349500D01*
X123397000Y-42476500D01*
X122762000Y-42476500D01*
X122762000Y-42603500D01*
X121746000Y-42603500D01*
X121746000Y-42730500D01*
X121111000Y-42730500D01*
X121111000Y-42857500D01*
X120984000Y-42857500D01*
X120984000Y-42984500D01*
X121746000Y-42984500D01*
X121746000Y-43111500D01*
X121746000Y-43365500D01*
X121111000Y-43365500D01*
X121111000Y-43238500D01*
X120603000Y-43238500D01*
X120603000Y-43111500D01*
X120222000Y-43111500D01*
X120222000Y-42984500D01*
X120222000Y-38666500D01*
X120349000Y-38666500D01*
X120349000Y-38539500D01*
X120222000Y-38539500D01*
X120222000Y-38666500D01*
X120222000Y-42984500D01*
X119714000Y-42984500D01*
X119714000Y-42857500D01*
X119460000Y-42857500D01*
X119460000Y-42730500D01*
X119333000Y-42730500D01*
X119333000Y-42603500D01*
X119587000Y-42603500D01*
X119587000Y-42349500D01*
X119460000Y-42349500D01*
X119460000Y-42222500D01*
X119333000Y-42222500D01*
X119333000Y-41968500D01*
X119460000Y-41968500D01*
X119460000Y-41841500D01*
X119587000Y-41841500D01*
X119587000Y-41714500D01*
X119714000Y-41714500D01*
X119714000Y-41587500D01*
X119587000Y-41587500D01*
X119587000Y-41460500D01*
X119206000Y-41460500D01*
X119206000Y-41841500D01*
X119333000Y-41841500D01*
X119333000Y-41968500D01*
X119333000Y-42222500D01*
X119206000Y-42222500D01*
X119206000Y-42095500D01*
X119079000Y-42095500D01*
X119079000Y-41841500D01*
X118952000Y-41841500D01*
X118952000Y-41587500D01*
X118952000Y-41333500D01*
X119333000Y-41333500D01*
X119333000Y-41079500D01*
X119460000Y-41079500D01*
X119460000Y-40952500D01*
X119333000Y-40952500D01*
X119333000Y-40698500D01*
X118952000Y-40698500D01*
X118952000Y-41333500D01*
X118952000Y-41587500D01*
X118825000Y-41587500D01*
X118825000Y-41206500D01*
X118825000Y-40444500D01*
X119206000Y-40444500D01*
X119206000Y-40317500D01*
X119460000Y-40317500D01*
X119460000Y-39936500D01*
X119206000Y-39936500D01*
X119206000Y-39555500D01*
X119841000Y-39555500D01*
X119841000Y-39174500D01*
X119333000Y-39174500D01*
X119333000Y-39301500D01*
X119206000Y-39301500D01*
X119206000Y-39555500D01*
X119206000Y-39936500D01*
X118952000Y-39936500D01*
X118952000Y-40063500D01*
X118825000Y-40063500D01*
X118825000Y-40444500D01*
X118825000Y-41206500D01*
X118698000Y-41206500D01*
X118698000Y-41079500D01*
X118571000Y-41079500D01*
X118571000Y-40571500D01*
X118444000Y-40571500D01*
X118444000Y-40063500D01*
X118571000Y-40063500D01*
X118571000Y-39936500D01*
X118698000Y-39936500D01*
X118698000Y-39428500D01*
X118825000Y-39428500D01*
X118825000Y-39301500D01*
X119079000Y-39301500D01*
X119079000Y-39174500D01*
X118952000Y-39174500D01*
X118952000Y-39047500D01*
X118825000Y-39047500D01*
X118825000Y-39174500D01*
X118698000Y-39174500D01*
X118698000Y-39301500D01*
X118571000Y-39301500D01*
X118571000Y-39428500D01*
X118317000Y-39428500D01*
X118317000Y-40952500D01*
X118444000Y-40952500D01*
X118444000Y-41206500D01*
X118571000Y-41206500D01*
X118571000Y-41333500D01*
X118444000Y-41333500D01*
X118444000Y-41460500D01*
X118317000Y-41460500D01*
X118317000Y-41333500D01*
X118190000Y-41333500D01*
X118190000Y-40952500D01*
X118063000Y-40952500D01*
X118063000Y-39936500D01*
X118190000Y-39936500D01*
X118190000Y-38793500D01*
X118317000Y-38793500D01*
X118317000Y-38539500D01*
X118571000Y-38539500D01*
X118571000Y-38412500D01*
X118444000Y-38412500D01*
X118444000Y-38285500D01*
X118317000Y-38285500D01*
X118317000Y-38412500D01*
X117936000Y-38412500D01*
X117936000Y-38539500D01*
X117809000Y-38539500D01*
X117809000Y-38793500D01*
X117682000Y-38793500D01*
X117682000Y-39047500D01*
X117555000Y-39047500D01*
X117555000Y-39555500D01*
X117428000Y-39555500D01*
X117428000Y-40952500D01*
X117555000Y-40952500D01*
X117555000Y-41206500D01*
X117682000Y-41206500D01*
X117682000Y-41333500D01*
X117809000Y-41333500D01*
X117809000Y-41460500D01*
X117936000Y-41460500D01*
X117936000Y-41587500D01*
X118063000Y-41587500D01*
X118063000Y-41714500D01*
X118190000Y-41714500D01*
X118190000Y-41841500D01*
X118317000Y-41841500D01*
X118317000Y-41968500D01*
X118444000Y-41968500D01*
X118444000Y-42095500D01*
X118698000Y-42095500D01*
X118698000Y-42222500D01*
X118952000Y-42222500D01*
X118952000Y-42349500D01*
X119079000Y-42349500D01*
X119079000Y-42476500D01*
X119333000Y-42476500D01*
X119333000Y-42603500D01*
X118952000Y-42603500D01*
X118952000Y-42476500D01*
X118698000Y-42476500D01*
X118698000Y-42349500D01*
X118571000Y-42349500D01*
X118571000Y-42222500D01*
X118444000Y-42222500D01*
X118444000Y-42095500D01*
X118063000Y-42095500D01*
X118063000Y-41968500D01*
X117936000Y-41968500D01*
X117936000Y-41841500D01*
X117809000Y-41841500D01*
X117809000Y-41587500D01*
X117555000Y-41587500D01*
X117555000Y-41333500D01*
X117428000Y-41333500D01*
X117428000Y-41206500D01*
X117301000Y-41206500D01*
X117301000Y-40952500D01*
X117174000Y-40952500D01*
X117174000Y-39301500D01*
X117301000Y-39301500D01*
D10*
X76500000Y-57250000D02*
X65000000Y-57250000D01*
X76500000Y-47750000D02*
X76500000Y-57250000D01*
X65000000Y-47750000D02*
X76500000Y-47750000D01*
X65000000Y-57250000D02*
X65000000Y-47750000D01*
D13*
X90421267Y-46990000D02*
X90078733Y-46990000D01*
X90421267Y-48010000D02*
X90078733Y-48010000D01*
X90421267Y-66240000D02*
X90078733Y-66240000D01*
X90421267Y-67260000D02*
X90078733Y-67260000D01*
X93578733Y-61010000D02*
X93921267Y-61010000D01*
X93578733Y-59990000D02*
X93921267Y-59990000D01*
X93578733Y-80260000D02*
X93921267Y-80260000D01*
X93578733Y-79240000D02*
X93921267Y-79240000D01*
X93921267Y-78510000D02*
X93578733Y-78510000D01*
X93921267Y-77490000D02*
X93578733Y-77490000D01*
X93921267Y-80990000D02*
X93578733Y-80990000D01*
X93921267Y-82010000D02*
X93578733Y-82010000D01*
X93921267Y-58240000D02*
X93578733Y-58240000D01*
X93921267Y-59260000D02*
X93578733Y-59260000D01*
X93921267Y-61740000D02*
X93578733Y-61740000D01*
X93921267Y-62760000D02*
X93578733Y-62760000D01*
X108510000Y-85421267D02*
X108510000Y-85078733D01*
X107490000Y-85421267D02*
X107490000Y-85078733D01*
X106760000Y-64703733D02*
X106760000Y-65046267D01*
X105740000Y-64703733D02*
X105740000Y-65046267D01*
X114671267Y-72990000D02*
X114328733Y-72990000D01*
X114671267Y-74010000D02*
X114328733Y-74010000D01*
X114671267Y-57010000D02*
X114328733Y-57010000D01*
X114671267Y-55990000D02*
X114328733Y-55990000D01*
X118421267Y-59990000D02*
X118078733Y-59990000D01*
X118421267Y-61010000D02*
X118078733Y-61010000D01*
X118421267Y-65240000D02*
X118078733Y-65240000D01*
X118421267Y-66260000D02*
X118078733Y-66260000D01*
X118421267Y-64010000D02*
X118078733Y-64010000D01*
X118421267Y-62990000D02*
X118078733Y-62990000D01*
X118078733Y-68990000D02*
X118421267Y-68990000D01*
X118078733Y-70010000D02*
X118421267Y-70010000D01*
X114671267Y-72260000D02*
X114328733Y-72260000D01*
X114671267Y-71240000D02*
X114328733Y-71240000D01*
X114671267Y-57740000D02*
X114328733Y-57740000D01*
X114671267Y-58760000D02*
X114328733Y-58760000D01*
X123421267Y-48510000D02*
X123078733Y-48510000D01*
X123421267Y-47490000D02*
X123078733Y-47490000D01*
X123421267Y-67010000D02*
X123078733Y-67010000D01*
X123421267Y-65990000D02*
X123078733Y-65990000D01*
X123421267Y-64010000D02*
X123078733Y-64010000D01*
X123421267Y-62990000D02*
X123078733Y-62990000D01*
X123421267Y-82510000D02*
X123078733Y-82510000D01*
X123421267Y-81490000D02*
X123078733Y-81490000D01*
X91225000Y-44710000D02*
X94085000Y-44710000D01*
X94085000Y-44710000D02*
X94085000Y-42790000D01*
X94085000Y-42790000D02*
X91225000Y-42790000D01*
X123852064Y-50340000D02*
X122647936Y-50340000D01*
X123852064Y-52160000D02*
X122647936Y-52160000D01*
X123852064Y-68840000D02*
X122647936Y-68840000D01*
X123852064Y-70660000D02*
X122647936Y-70660000D01*
X123852064Y-61160000D02*
X122647936Y-61160000D01*
X123852064Y-59340000D02*
X122647936Y-59340000D01*
X123852064Y-79660000D02*
X122647936Y-79660000D01*
X123852064Y-77840000D02*
X122647936Y-77840000D01*
X98900000Y-71380000D02*
X104100000Y-71380000D01*
X98900000Y-79120000D02*
X104100000Y-79120000D01*
X97460000Y-71950000D02*
X98900000Y-71950000D01*
X98900000Y-71380000D02*
X98900000Y-71950000D01*
X104100000Y-71380000D02*
X104100000Y-71950000D01*
X98900000Y-78550000D02*
X98900000Y-79120000D01*
X104100000Y-78550000D02*
X104100000Y-79120000D01*
X98900000Y-73470000D02*
X98900000Y-74490000D01*
X104100000Y-73470000D02*
X104100000Y-74490000D01*
X98900000Y-76010000D02*
X98900000Y-77030000D01*
X104100000Y-76010000D02*
X104100000Y-77030000D01*
X100420000Y-63650000D02*
X103080000Y-63650000D01*
X100420000Y-68850000D02*
X103080000Y-68850000D01*
X103080000Y-65740000D02*
X103080000Y-68850000D01*
X100420000Y-63650000D02*
X100420000Y-66760000D01*
X103080000Y-64220000D02*
X104600000Y-64220000D01*
X103080000Y-63650000D02*
X103080000Y-64220000D01*
X100420000Y-68280000D02*
X100420000Y-68850000D01*
X123580000Y-58350000D02*
X120920000Y-58350000D01*
X123580000Y-53150000D02*
X120920000Y-53150000D01*
X120920000Y-56260000D02*
X120920000Y-53150000D01*
X123580000Y-58350000D02*
X123580000Y-55240000D01*
X120920000Y-57780000D02*
X119400000Y-57780000D01*
X120920000Y-58350000D02*
X120920000Y-57780000D01*
X123580000Y-53720000D02*
X123580000Y-53150000D01*
X123580000Y-72220000D02*
X123580000Y-71650000D01*
X120920000Y-76850000D02*
X120920000Y-76280000D01*
X120920000Y-76280000D02*
X119400000Y-76280000D01*
X123580000Y-76850000D02*
X123580000Y-73740000D01*
X120920000Y-74760000D02*
X120920000Y-71650000D01*
X123580000Y-71650000D02*
X120920000Y-71650000D01*
X123580000Y-76850000D02*
X120920000Y-76850000D01*
X95490000Y-83670000D02*
X96950000Y-83670000D01*
X95490000Y-86830000D02*
X97650000Y-86830000D01*
X95490000Y-86830000D02*
X95490000Y-85900000D01*
X95490000Y-83670000D02*
X95490000Y-84600000D01*
X98490000Y-44670000D02*
X98490000Y-45600000D01*
X98490000Y-47830000D02*
X98490000Y-46900000D01*
X98490000Y-47830000D02*
X100650000Y-47830000D01*
X98490000Y-44670000D02*
X99950000Y-44670000D01*
X91740000Y-83670000D02*
X91740000Y-84600000D01*
X91740000Y-86830000D02*
X91740000Y-85900000D01*
X91740000Y-86830000D02*
X93900000Y-86830000D01*
X91740000Y-83670000D02*
X93200000Y-83670000D01*
X102240000Y-44670000D02*
X103700000Y-44670000D01*
X102240000Y-47830000D02*
X104400000Y-47830000D01*
X102240000Y-47830000D02*
X102240000Y-46900000D01*
X102240000Y-44670000D02*
X102240000Y-45600000D01*
X90078733Y-48740000D02*
X90421267Y-48740000D01*
X90078733Y-49760000D02*
X90421267Y-49760000D01*
X90078733Y-67990000D02*
X90421267Y-67990000D01*
X90078733Y-69010000D02*
X90421267Y-69010000D01*
X93921267Y-46990000D02*
X93578733Y-46990000D01*
X93921267Y-48010000D02*
X93578733Y-48010000D01*
X93921267Y-49760000D02*
X93578733Y-49760000D01*
X93921267Y-48740000D02*
X93578733Y-48740000D01*
X93921267Y-67260000D02*
X93578733Y-67260000D01*
X93921267Y-66240000D02*
X93578733Y-66240000D01*
X93921267Y-67990000D02*
X93578733Y-67990000D01*
X93921267Y-69010000D02*
X93578733Y-69010000D01*
X85010000Y-85421267D02*
X85010000Y-85078733D01*
X83990000Y-85421267D02*
X83990000Y-85078733D01*
X85740000Y-85421267D02*
X85740000Y-85078733D01*
X86760000Y-85421267D02*
X86760000Y-85078733D01*
X89240000Y-85078733D02*
X89240000Y-85421267D01*
X90260000Y-85078733D02*
X90260000Y-85421267D01*
X100010000Y-52421267D02*
X100010000Y-52078733D01*
X98990000Y-52421267D02*
X98990000Y-52078733D01*
X97760000Y-67328733D02*
X97760000Y-67671267D01*
X96740000Y-67328733D02*
X96740000Y-67671267D01*
X88510000Y-85078733D02*
X88510000Y-85421267D01*
X87490000Y-85078733D02*
X87490000Y-85421267D01*
X100740000Y-52421267D02*
X100740000Y-52078733D01*
X101760000Y-52421267D02*
X101760000Y-52078733D01*
X105260000Y-52421267D02*
X105260000Y-52078733D01*
X104240000Y-52421267D02*
X104240000Y-52078733D01*
X103510000Y-52078733D02*
X103510000Y-52421267D01*
X102490000Y-52078733D02*
X102490000Y-52421267D01*
X106760000Y-85078733D02*
X106760000Y-85421267D01*
X105740000Y-85078733D02*
X105740000Y-85421267D01*
D10*
X91000000Y-58750000D02*
X91000000Y-62500000D01*
X88000000Y-58750000D02*
X91000000Y-58750000D01*
X88000000Y-62500000D02*
X88000000Y-58750000D01*
X91000000Y-62500000D02*
X88000000Y-62500000D01*
X91300000Y-60750000D02*
G75*
G03X91300000Y-60750000I-1800000J0D01*
G01*
X91300000Y-80000000D02*
G75*
G03X91300000Y-80000000I-1800000J0D01*
G01*
X91000000Y-81750000D02*
X88000000Y-81750000D01*
X88000000Y-81750000D02*
X88000000Y-78000000D01*
X88000000Y-78000000D02*
X91000000Y-78000000D01*
X91000000Y-78000000D02*
X91000000Y-81750000D01*
D13*
X93810000Y-54000000D02*
X93810000Y-50550000D01*
X93810000Y-54000000D02*
X93810000Y-55950000D01*
X88690000Y-54000000D02*
X88690000Y-52050000D01*
X88690000Y-54000000D02*
X88690000Y-55950000D01*
X88690000Y-73250000D02*
X88690000Y-75200000D01*
X88690000Y-73250000D02*
X88690000Y-71300000D01*
X93810000Y-73250000D02*
X93810000Y-75200000D01*
X93810000Y-73250000D02*
X93810000Y-69800000D01*
D10*
X114925000Y-70625000D02*
X114925000Y-70300000D01*
X108575000Y-70625000D02*
X114925000Y-70625000D01*
X108575000Y-70300000D02*
X108575000Y-70625000D01*
X114925000Y-59375000D02*
X114925000Y-59700000D01*
X108575000Y-59375000D02*
X114925000Y-59375000D01*
X108575000Y-59600000D02*
X108575000Y-59375000D01*
X107500000Y-59600000D02*
X108575000Y-59600000D01*
D13*
X117793750Y-80241250D02*
X117793750Y-79453750D01*
X118187500Y-79847500D02*
X117400000Y-79847500D01*
X117160000Y-75654437D02*
X116095563Y-74590000D01*
X117160000Y-80345563D02*
X116095563Y-81410000D01*
X117160000Y-80345563D02*
X117160000Y-79060000D01*
X117160000Y-75654437D02*
X117160000Y-76940000D01*
X116095563Y-74590000D02*
X110340000Y-74590000D01*
X116095563Y-81410000D02*
X110340000Y-81410000D01*
X110340000Y-81410000D02*
X110340000Y-79060000D01*
X110340000Y-74590000D02*
X110340000Y-76940000D01*
X110340000Y-48590000D02*
X110340000Y-50940000D01*
X110340000Y-55410000D02*
X110340000Y-53060000D01*
X116095563Y-55410000D02*
X110340000Y-55410000D01*
X116095563Y-48590000D02*
X110340000Y-48590000D01*
X117160000Y-49654437D02*
X117160000Y-50940000D01*
X117160000Y-54345563D02*
X117160000Y-53060000D01*
X117160000Y-54345563D02*
X116095563Y-55410000D01*
X117160000Y-49654437D02*
X116095563Y-48590000D01*
X118187500Y-53847500D02*
X117400000Y-53847500D01*
X117793750Y-54241250D02*
X117793750Y-53453750D01*
X95510000Y-75171267D02*
X95510000Y-74828733D01*
X94490000Y-75171267D02*
X94490000Y-74828733D01*
X94490000Y-55921267D02*
X94490000Y-55578733D01*
X95510000Y-55921267D02*
X95510000Y-55578733D01*
D10*
X65000000Y-80750000D02*
X76500000Y-80750000D01*
X76500000Y-80750000D02*
X76500000Y-74250000D01*
X76500000Y-74250000D02*
X65000000Y-74250000D01*
X65000000Y-74250000D02*
X65000000Y-75000000D01*
X65000000Y-80750000D02*
X65000000Y-80000000D01*
X65000000Y-80000000D02*
X63000000Y-80000000D01*
X63000000Y-80000000D02*
X63000000Y-75000000D01*
X63000000Y-75000000D02*
X65000000Y-75000000D01*
D13*
X100420000Y-81400000D02*
X103080000Y-81400000D01*
X100420000Y-86600000D02*
X103080000Y-86600000D01*
X103080000Y-83490000D02*
X103080000Y-86600000D01*
X100420000Y-81400000D02*
X100420000Y-84510000D01*
X103080000Y-81970000D02*
X104600000Y-81970000D01*
X103080000Y-81400000D02*
X103080000Y-81970000D01*
X100420000Y-86030000D02*
X100420000Y-86600000D01*
X80100000Y-42100000D02*
X80100000Y-45400000D01*
X80100000Y-45400000D02*
X85500000Y-45400000D01*
X80100000Y-42100000D02*
X85500000Y-42100000D01*
X103080000Y-61350000D02*
X100420000Y-61350000D01*
X103080000Y-56150000D02*
X100420000Y-56150000D01*
X100420000Y-59260000D02*
X100420000Y-56150000D01*
X103080000Y-61350000D02*
X103080000Y-58240000D01*
X100420000Y-60780000D02*
X98900000Y-60780000D01*
X100420000Y-61350000D02*
X100420000Y-60780000D01*
X103080000Y-56720000D02*
X103080000Y-56150000D01*
X105990000Y-44670000D02*
X105990000Y-45600000D01*
X105990000Y-47830000D02*
X105990000Y-46900000D01*
X105990000Y-47830000D02*
X108150000Y-47830000D01*
X105990000Y-44670000D02*
X107450000Y-44670000D01*
X107010000Y-52078733D02*
X107010000Y-52421267D01*
X105990000Y-52078733D02*
X105990000Y-52421267D01*
X79920000Y-47170000D02*
X81250000Y-47170000D01*
X79920000Y-48500000D02*
X79920000Y-47170000D01*
X79920000Y-49770000D02*
X82580000Y-49770000D01*
X82580000Y-49770000D02*
X82580000Y-82850000D01*
X79920000Y-49770000D02*
X79920000Y-82850000D01*
X79920000Y-82850000D02*
X82580000Y-82850000D01*
X127920000Y-82850000D02*
X130580000Y-82850000D01*
X127920000Y-49770000D02*
X127920000Y-82850000D01*
X130580000Y-49770000D02*
X130580000Y-82850000D01*
X127920000Y-49770000D02*
X130580000Y-49770000D01*
X127920000Y-48500000D02*
X127920000Y-47170000D01*
X127920000Y-47170000D02*
X129250000Y-47170000D01*
D14*
X70000000Y-38145800D02*
G75*
G03X70000000Y-41854200I0J-1854200D01*
G01*
X70000000Y-41854200D02*
G75*
G03X70000000Y-38145800I0J1854200D01*
G01*
X70000000Y-38145800D02*
G75*
G03X70000000Y-41854200I0J-1854200D01*
G01*
X70000000Y-41854200D02*
G75*
G03X70000000Y-38145800I0J1854200D01*
G01*
X70000000Y-91854200D02*
G75*
G03X70000000Y-88145800I0J1854200D01*
G01*
X70000000Y-88145800D02*
G75*
G03X70000000Y-91854200I0J-1854200D01*
G01*
X70000000Y-91854200D02*
G75*
G03X70000000Y-88145800I0J1854200D01*
G01*
X70000000Y-88145800D02*
G75*
G03X70000000Y-91854200I0J-1854200D01*
G01*
X140000000Y-38145800D02*
G75*
G03X140000000Y-41854200I0J-1854200D01*
G01*
X140000000Y-41854200D02*
G75*
G03X140000000Y-38145800I0J1854200D01*
G01*
X140000000Y-38145800D02*
G75*
G03X140000000Y-41854200I0J-1854200D01*
G01*
X140000000Y-41854200D02*
G75*
G03X140000000Y-38145800I0J1854200D01*
G01*
X140000000Y-91854200D02*
G75*
G03X140000000Y-88145800I0J1854200D01*
G01*
X140000000Y-88145800D02*
G75*
G03X140000000Y-91854200I0J-1854200D01*
G01*
X140000000Y-91854200D02*
G75*
G03X140000000Y-88145800I0J1854200D01*
G01*
X140000000Y-88145800D02*
G75*
G03X140000000Y-91854200I0J-1854200D01*
G01*
D13*
X76100000Y-39000000D02*
X78900000Y-39000000D01*
X78900000Y-39000000D02*
X78900000Y-41000000D01*
X78900000Y-41000000D02*
X76100000Y-41000000D01*
X76100000Y-41000000D02*
X76100000Y-39000000D01*
X76100000Y-91000000D02*
X76100000Y-89000000D01*
X78900000Y-91000000D02*
X76100000Y-91000000D01*
X78900000Y-89000000D02*
X78900000Y-91000000D01*
X76100000Y-89000000D02*
X78900000Y-89000000D01*
X133900000Y-41000000D02*
X131100000Y-41000000D01*
X131100000Y-41000000D02*
X131100000Y-39000000D01*
X131100000Y-39000000D02*
X133900000Y-39000000D01*
X133900000Y-39000000D02*
X133900000Y-41000000D01*
X133900000Y-91000000D02*
X131100000Y-91000000D01*
X131100000Y-91000000D02*
X131100000Y-89000000D01*
X131100000Y-89000000D02*
X133900000Y-89000000D01*
X133900000Y-89000000D02*
X133900000Y-91000000D01*
X70750155Y-63844647D02*
G75*
G03X70750000Y-62345000I-1700155J749647D01*
G01*
X70750155Y-67654647D02*
G75*
G03X70750000Y-66155000I-1700155J749647D01*
G01*
X77360000Y-60385000D02*
X69890000Y-60385000D01*
X69890000Y-60385000D02*
X69890000Y-69615000D01*
X69890000Y-69615000D02*
X77360000Y-69615000D01*
X77360000Y-69615000D02*
X77360000Y-60385000D01*
X70750000Y-62345000D02*
X70750000Y-61595000D01*
X70750000Y-61595000D02*
X75050000Y-61595000D01*
X75050000Y-61595000D02*
X75050000Y-62345000D01*
X75050000Y-62345000D02*
X75400000Y-62345000D01*
X75400000Y-62345000D02*
X75400000Y-61845000D01*
X75400000Y-61845000D02*
X76400000Y-61595000D01*
X76400000Y-61595000D02*
X76400000Y-64595000D01*
X76400000Y-64595000D02*
X75400000Y-64345000D01*
X75400000Y-64345000D02*
X75400000Y-63845000D01*
X75400000Y-63845000D02*
X75050000Y-63845000D01*
X75050000Y-63845000D02*
X75050000Y-64595000D01*
X75050000Y-64595000D02*
X70750000Y-64595000D01*
X70750000Y-64595000D02*
X70750000Y-63845000D01*
X70750000Y-66155000D02*
X70750000Y-65405000D01*
X70750000Y-65405000D02*
X75050000Y-65405000D01*
X75050000Y-65405000D02*
X75050000Y-66155000D01*
X75050000Y-66155000D02*
X75400000Y-66155000D01*
X75400000Y-66155000D02*
X75400000Y-65655000D01*
X75400000Y-65655000D02*
X76400000Y-65405000D01*
X76400000Y-65405000D02*
X76400000Y-68405000D01*
X76400000Y-68405000D02*
X75400000Y-68155000D01*
X75400000Y-68155000D02*
X75400000Y-67655000D01*
X75400000Y-67655000D02*
X75050000Y-67655000D01*
X75050000Y-67655000D02*
X75050000Y-68405000D01*
X75050000Y-68405000D02*
X70750000Y-68405000D01*
X70750000Y-68405000D02*
X70750000Y-67655000D01*
X76500000Y-59995000D02*
X77750000Y-59995000D01*
X77750000Y-59995000D02*
X77750000Y-61995000D01*
X68200000Y-60385000D02*
X68200000Y-69615000D01*
X74310000Y-60385000D02*
X74310000Y-62045000D01*
X74310000Y-69615000D02*
X74310000Y-67955000D01*
X75000000Y-63095000D02*
X75600000Y-62795000D01*
X75600000Y-63395000D02*
X75000000Y-63095000D01*
X74310000Y-64145000D02*
X74310000Y-65855000D01*
X64890000Y-69615000D02*
X74310000Y-69615000D01*
X75600000Y-62795000D02*
X75600000Y-63395000D01*
X64890000Y-60385000D02*
X64890000Y-69615000D01*
X74310000Y-60385000D02*
X64890000Y-60385000D01*
X135690000Y-57115000D02*
X145110000Y-57115000D01*
X145110000Y-57115000D02*
X145110000Y-47885000D01*
X134400000Y-54705000D02*
X134400000Y-54105000D01*
X145110000Y-47885000D02*
X135690000Y-47885000D01*
X135690000Y-53355000D02*
X135690000Y-51645000D01*
X134400000Y-54105000D02*
X135000000Y-54405000D01*
X135000000Y-54405000D02*
X134400000Y-54705000D01*
X135690000Y-47885000D02*
X135690000Y-49545000D01*
X135690000Y-57115000D02*
X135690000Y-55455000D01*
X141800000Y-57115000D02*
X141800000Y-47885000D01*
X132250000Y-57505000D02*
X132250000Y-55505000D01*
X133500000Y-57505000D02*
X132250000Y-57505000D01*
X139250000Y-49095000D02*
X139250000Y-49845000D01*
X134950000Y-49095000D02*
X139250000Y-49095000D01*
X134950000Y-49845000D02*
X134950000Y-49095000D01*
X134600000Y-49845000D02*
X134950000Y-49845000D01*
X134600000Y-49345000D02*
X134600000Y-49845000D01*
X133600000Y-49095000D02*
X134600000Y-49345000D01*
X133600000Y-52095000D02*
X133600000Y-49095000D01*
X134600000Y-51845000D02*
X133600000Y-52095000D01*
X134600000Y-51345000D02*
X134600000Y-51845000D01*
X134950000Y-51345000D02*
X134600000Y-51345000D01*
X134950000Y-52095000D02*
X134950000Y-51345000D01*
X139250000Y-52095000D02*
X134950000Y-52095000D01*
X139250000Y-51345000D02*
X139250000Y-52095000D01*
X139250000Y-52905000D02*
X139250000Y-53655000D01*
X134950000Y-52905000D02*
X139250000Y-52905000D01*
X134950000Y-53655000D02*
X134950000Y-52905000D01*
X134600000Y-53655000D02*
X134950000Y-53655000D01*
X134600000Y-53155000D02*
X134600000Y-53655000D01*
X133600000Y-52905000D02*
X134600000Y-53155000D01*
X133600000Y-55905000D02*
X133600000Y-52905000D01*
X134600000Y-55655000D02*
X133600000Y-55905000D01*
X134600000Y-55155000D02*
X134600000Y-55655000D01*
X134950000Y-55155000D02*
X134600000Y-55155000D01*
X134950000Y-55905000D02*
X134950000Y-55155000D01*
X139250000Y-55905000D02*
X134950000Y-55905000D01*
X139250000Y-55155000D02*
X139250000Y-55905000D01*
X132640000Y-47885000D02*
X132640000Y-57115000D01*
X140110000Y-47885000D02*
X132640000Y-47885000D01*
X140110000Y-57115000D02*
X140110000Y-47885000D01*
X132640000Y-57115000D02*
X140110000Y-57115000D01*
X139249845Y-49845353D02*
G75*
G03X139250000Y-51345000I1700155J-749647D01*
G01*
X139249845Y-53655353D02*
G75*
G03X139250000Y-55155000I1700155J-749647D01*
G01*
X139249845Y-66155353D02*
G75*
G03X139250000Y-67655000I1700155J-749647D01*
G01*
X139249845Y-62345353D02*
G75*
G03X139250000Y-63845000I1700155J-749647D01*
G01*
X132640000Y-69615000D02*
X140110000Y-69615000D01*
X140110000Y-69615000D02*
X140110000Y-60385000D01*
X140110000Y-60385000D02*
X132640000Y-60385000D01*
X132640000Y-60385000D02*
X132640000Y-69615000D01*
X139250000Y-67655000D02*
X139250000Y-68405000D01*
X139250000Y-68405000D02*
X134950000Y-68405000D01*
X134950000Y-68405000D02*
X134950000Y-67655000D01*
X134950000Y-67655000D02*
X134600000Y-67655000D01*
X134600000Y-67655000D02*
X134600000Y-68155000D01*
X134600000Y-68155000D02*
X133600000Y-68405000D01*
X133600000Y-68405000D02*
X133600000Y-65405000D01*
X133600000Y-65405000D02*
X134600000Y-65655000D01*
X134600000Y-65655000D02*
X134600000Y-66155000D01*
X134600000Y-66155000D02*
X134950000Y-66155000D01*
X134950000Y-66155000D02*
X134950000Y-65405000D01*
X134950000Y-65405000D02*
X139250000Y-65405000D01*
X139250000Y-65405000D02*
X139250000Y-66155000D01*
X139250000Y-63845000D02*
X139250000Y-64595000D01*
X139250000Y-64595000D02*
X134950000Y-64595000D01*
X134950000Y-64595000D02*
X134950000Y-63845000D01*
X134950000Y-63845000D02*
X134600000Y-63845000D01*
X134600000Y-63845000D02*
X134600000Y-64345000D01*
X134600000Y-64345000D02*
X133600000Y-64595000D01*
X133600000Y-64595000D02*
X133600000Y-61595000D01*
X133600000Y-61595000D02*
X134600000Y-61845000D01*
X134600000Y-61845000D02*
X134600000Y-62345000D01*
X134600000Y-62345000D02*
X134950000Y-62345000D01*
X134950000Y-62345000D02*
X134950000Y-61595000D01*
X134950000Y-61595000D02*
X139250000Y-61595000D01*
X139250000Y-61595000D02*
X139250000Y-62345000D01*
X133500000Y-70005000D02*
X132250000Y-70005000D01*
X132250000Y-70005000D02*
X132250000Y-68005000D01*
X141800000Y-69615000D02*
X141800000Y-60385000D01*
X135690000Y-69615000D02*
X135690000Y-67955000D01*
X135690000Y-60385000D02*
X135690000Y-62045000D01*
X135000000Y-66905000D02*
X134400000Y-67205000D01*
X134400000Y-66605000D02*
X135000000Y-66905000D01*
X135690000Y-65855000D02*
X135690000Y-64145000D01*
X145110000Y-60385000D02*
X135690000Y-60385000D01*
X134400000Y-67205000D02*
X134400000Y-66605000D01*
X145110000Y-69615000D02*
X145110000Y-60385000D01*
X135690000Y-69615000D02*
X145110000Y-69615000D01*
X135690000Y-82115000D02*
X145110000Y-82115000D01*
X145110000Y-82115000D02*
X145110000Y-72885000D01*
X134400000Y-79705000D02*
X134400000Y-79105000D01*
X145110000Y-72885000D02*
X135690000Y-72885000D01*
X135690000Y-78355000D02*
X135690000Y-76645000D01*
X134400000Y-79105000D02*
X135000000Y-79405000D01*
X135000000Y-79405000D02*
X134400000Y-79705000D01*
X135690000Y-72885000D02*
X135690000Y-74545000D01*
X135690000Y-82115000D02*
X135690000Y-80455000D01*
X141800000Y-82115000D02*
X141800000Y-72885000D01*
X132250000Y-82505000D02*
X132250000Y-80505000D01*
X133500000Y-82505000D02*
X132250000Y-82505000D01*
X139250000Y-74095000D02*
X139250000Y-74845000D01*
X134950000Y-74095000D02*
X139250000Y-74095000D01*
X134950000Y-74845000D02*
X134950000Y-74095000D01*
X134600000Y-74845000D02*
X134950000Y-74845000D01*
X134600000Y-74345000D02*
X134600000Y-74845000D01*
X133600000Y-74095000D02*
X134600000Y-74345000D01*
X133600000Y-77095000D02*
X133600000Y-74095000D01*
X134600000Y-76845000D02*
X133600000Y-77095000D01*
X134600000Y-76345000D02*
X134600000Y-76845000D01*
X134950000Y-76345000D02*
X134600000Y-76345000D01*
X134950000Y-77095000D02*
X134950000Y-76345000D01*
X139250000Y-77095000D02*
X134950000Y-77095000D01*
X139250000Y-76345000D02*
X139250000Y-77095000D01*
X139250000Y-77905000D02*
X139250000Y-78655000D01*
X134950000Y-77905000D02*
X139250000Y-77905000D01*
X134950000Y-78655000D02*
X134950000Y-77905000D01*
X134600000Y-78655000D02*
X134950000Y-78655000D01*
X134600000Y-78155000D02*
X134600000Y-78655000D01*
X133600000Y-77905000D02*
X134600000Y-78155000D01*
X133600000Y-80905000D02*
X133600000Y-77905000D01*
X134600000Y-80655000D02*
X133600000Y-80905000D01*
X134600000Y-80155000D02*
X134600000Y-80655000D01*
X134950000Y-80155000D02*
X134600000Y-80155000D01*
X134950000Y-80905000D02*
X134950000Y-80155000D01*
X139250000Y-80905000D02*
X134950000Y-80905000D01*
X139250000Y-80155000D02*
X139250000Y-80905000D01*
X132640000Y-72885000D02*
X132640000Y-82115000D01*
X140110000Y-72885000D02*
X132640000Y-72885000D01*
X140110000Y-82115000D02*
X140110000Y-72885000D01*
X132640000Y-82115000D02*
X140110000Y-82115000D01*
X139249845Y-74845353D02*
G75*
G03X139250000Y-76345000I1700155J-749647D01*
G01*
X139249845Y-78655353D02*
G75*
G03X139250000Y-80155000I1700155J-749647D01*
G01*
D10*
X74702380Y-52833333D02*
X75416666Y-52833333D01*
X75559523Y-52880952D01*
X75654761Y-52976190D01*
X75702380Y-53119047D01*
X75702380Y-53214285D01*
X74797619Y-52404761D02*
X74750000Y-52357142D01*
X74702380Y-52261904D01*
X74702380Y-52023809D01*
X74750000Y-51928571D01*
X74797619Y-51880952D01*
X74892857Y-51833333D01*
X74988095Y-51833333D01*
X75130952Y-51880952D01*
X75702380Y-52452380D01*
X75702380Y-51833333D01*
D11*
X88428571Y-47583333D02*
X88452380Y-47607142D01*
X88476190Y-47678571D01*
X88476190Y-47726190D01*
X88452380Y-47797619D01*
X88404761Y-47845238D01*
X88357142Y-47869047D01*
X88261904Y-47892857D01*
X88190476Y-47892857D01*
X88095238Y-47869047D01*
X88047619Y-47845238D01*
X88000000Y-47797619D01*
X87976190Y-47726190D01*
X87976190Y-47678571D01*
X88000000Y-47607142D01*
X88023809Y-47583333D01*
X88476190Y-47107142D02*
X88476190Y-47392857D01*
X88476190Y-47250000D02*
X87976190Y-47250000D01*
X88047619Y-47297619D01*
X88095238Y-47345238D01*
X88119047Y-47392857D01*
X88428571Y-66833333D02*
X88452380Y-66857142D01*
X88476190Y-66928571D01*
X88476190Y-66976190D01*
X88452380Y-67047619D01*
X88404761Y-67095238D01*
X88357142Y-67119047D01*
X88261904Y-67142857D01*
X88190476Y-67142857D01*
X88095238Y-67119047D01*
X88047619Y-67095238D01*
X88000000Y-67047619D01*
X87976190Y-66976190D01*
X87976190Y-66928571D01*
X88000000Y-66857142D01*
X88023809Y-66833333D01*
X88023809Y-66642857D02*
X88000000Y-66619047D01*
X87976190Y-66571428D01*
X87976190Y-66452380D01*
X88000000Y-66404761D01*
X88023809Y-66380952D01*
X88071428Y-66357142D01*
X88119047Y-66357142D01*
X88190476Y-66380952D01*
X88476190Y-66666666D01*
X88476190Y-66357142D01*
X95928571Y-60583333D02*
X95952380Y-60607142D01*
X95976190Y-60678571D01*
X95976190Y-60726190D01*
X95952380Y-60797619D01*
X95904761Y-60845238D01*
X95857142Y-60869047D01*
X95761904Y-60892857D01*
X95690476Y-60892857D01*
X95595238Y-60869047D01*
X95547619Y-60845238D01*
X95500000Y-60797619D01*
X95476190Y-60726190D01*
X95476190Y-60678571D01*
X95500000Y-60607142D01*
X95523809Y-60583333D01*
X95476190Y-60416666D02*
X95476190Y-60107142D01*
X95666666Y-60273809D01*
X95666666Y-60202380D01*
X95690476Y-60154761D01*
X95714285Y-60130952D01*
X95761904Y-60107142D01*
X95880952Y-60107142D01*
X95928571Y-60130952D01*
X95952380Y-60154761D01*
X95976190Y-60202380D01*
X95976190Y-60345238D01*
X95952380Y-60392857D01*
X95928571Y-60416666D01*
X95928571Y-79833333D02*
X95952380Y-79857142D01*
X95976190Y-79928571D01*
X95976190Y-79976190D01*
X95952380Y-80047619D01*
X95904761Y-80095238D01*
X95857142Y-80119047D01*
X95761904Y-80142857D01*
X95690476Y-80142857D01*
X95595238Y-80119047D01*
X95547619Y-80095238D01*
X95500000Y-80047619D01*
X95476190Y-79976190D01*
X95476190Y-79928571D01*
X95500000Y-79857142D01*
X95523809Y-79833333D01*
X95642857Y-79404761D02*
X95976190Y-79404761D01*
X95452380Y-79523809D02*
X95809523Y-79642857D01*
X95809523Y-79333333D01*
X95928571Y-78083333D02*
X95952380Y-78107142D01*
X95976190Y-78178571D01*
X95976190Y-78226190D01*
X95952380Y-78297619D01*
X95904761Y-78345238D01*
X95857142Y-78369047D01*
X95761904Y-78392857D01*
X95690476Y-78392857D01*
X95595238Y-78369047D01*
X95547619Y-78345238D01*
X95500000Y-78297619D01*
X95476190Y-78226190D01*
X95476190Y-78178571D01*
X95500000Y-78107142D01*
X95523809Y-78083333D01*
X95476190Y-77630952D02*
X95476190Y-77869047D01*
X95714285Y-77892857D01*
X95690476Y-77869047D01*
X95666666Y-77821428D01*
X95666666Y-77702380D01*
X95690476Y-77654761D01*
X95714285Y-77630952D01*
X95761904Y-77607142D01*
X95880952Y-77607142D01*
X95928571Y-77630952D01*
X95952380Y-77654761D01*
X95976190Y-77702380D01*
X95976190Y-77821428D01*
X95952380Y-77869047D01*
X95928571Y-77892857D01*
X95928571Y-81583333D02*
X95952380Y-81607142D01*
X95976190Y-81678571D01*
X95976190Y-81726190D01*
X95952380Y-81797619D01*
X95904761Y-81845238D01*
X95857142Y-81869047D01*
X95761904Y-81892857D01*
X95690476Y-81892857D01*
X95595238Y-81869047D01*
X95547619Y-81845238D01*
X95500000Y-81797619D01*
X95476190Y-81726190D01*
X95476190Y-81678571D01*
X95500000Y-81607142D01*
X95523809Y-81583333D01*
X95476190Y-81154761D02*
X95476190Y-81250000D01*
X95500000Y-81297619D01*
X95523809Y-81321428D01*
X95595238Y-81369047D01*
X95690476Y-81392857D01*
X95880952Y-81392857D01*
X95928571Y-81369047D01*
X95952380Y-81345238D01*
X95976190Y-81297619D01*
X95976190Y-81202380D01*
X95952380Y-81154761D01*
X95928571Y-81130952D01*
X95880952Y-81107142D01*
X95761904Y-81107142D01*
X95714285Y-81130952D01*
X95690476Y-81154761D01*
X95666666Y-81202380D01*
X95666666Y-81297619D01*
X95690476Y-81345238D01*
X95714285Y-81369047D01*
X95761904Y-81392857D01*
X95928571Y-58833333D02*
X95952380Y-58857142D01*
X95976190Y-58928571D01*
X95976190Y-58976190D01*
X95952380Y-59047619D01*
X95904761Y-59095238D01*
X95857142Y-59119047D01*
X95761904Y-59142857D01*
X95690476Y-59142857D01*
X95595238Y-59119047D01*
X95547619Y-59095238D01*
X95500000Y-59047619D01*
X95476190Y-58976190D01*
X95476190Y-58928571D01*
X95500000Y-58857142D01*
X95523809Y-58833333D01*
X95476190Y-58666666D02*
X95476190Y-58333333D01*
X95976190Y-58547619D01*
X91928571Y-62333333D02*
X91952380Y-62357142D01*
X91976190Y-62428571D01*
X91976190Y-62476190D01*
X91952380Y-62547619D01*
X91904761Y-62595238D01*
X91857142Y-62619047D01*
X91761904Y-62642857D01*
X91690476Y-62642857D01*
X91595238Y-62619047D01*
X91547619Y-62595238D01*
X91500000Y-62547619D01*
X91476190Y-62476190D01*
X91476190Y-62428571D01*
X91500000Y-62357142D01*
X91523809Y-62333333D01*
X91690476Y-62047619D02*
X91666666Y-62095238D01*
X91642857Y-62119047D01*
X91595238Y-62142857D01*
X91571428Y-62142857D01*
X91523809Y-62119047D01*
X91500000Y-62095238D01*
X91476190Y-62047619D01*
X91476190Y-61952380D01*
X91500000Y-61904761D01*
X91523809Y-61880952D01*
X91571428Y-61857142D01*
X91595238Y-61857142D01*
X91642857Y-61880952D01*
X91666666Y-61904761D01*
X91690476Y-61952380D01*
X91690476Y-62047619D01*
X91714285Y-62095238D01*
X91738095Y-62119047D01*
X91785714Y-62142857D01*
X91880952Y-62142857D01*
X91928571Y-62119047D01*
X91952380Y-62095238D01*
X91976190Y-62047619D01*
X91976190Y-61952380D01*
X91952380Y-61904761D01*
X91928571Y-61880952D01*
X91880952Y-61857142D01*
X91785714Y-61857142D01*
X91738095Y-61880952D01*
X91714285Y-61904761D01*
X91690476Y-61952380D01*
X107678571Y-83428571D02*
X107654761Y-83452380D01*
X107583333Y-83476190D01*
X107535714Y-83476190D01*
X107464285Y-83452380D01*
X107416666Y-83404761D01*
X107392857Y-83357142D01*
X107369047Y-83261904D01*
X107369047Y-83190476D01*
X107392857Y-83095238D01*
X107416666Y-83047619D01*
X107464285Y-83000000D01*
X107535714Y-82976190D01*
X107583333Y-82976190D01*
X107654761Y-83000000D01*
X107678571Y-83023809D01*
X108154761Y-83476190D02*
X107869047Y-83476190D01*
X108011904Y-83476190D02*
X108011904Y-82976190D01*
X107964285Y-83047619D01*
X107916666Y-83095238D01*
X107869047Y-83119047D01*
X108464285Y-82976190D02*
X108511904Y-82976190D01*
X108559523Y-83000000D01*
X108583333Y-83023809D01*
X108607142Y-83071428D01*
X108630952Y-83166666D01*
X108630952Y-83285714D01*
X108607142Y-83380952D01*
X108583333Y-83428571D01*
X108559523Y-83452380D01*
X108511904Y-83476190D01*
X108464285Y-83476190D01*
X108416666Y-83452380D01*
X108392857Y-83428571D01*
X108369047Y-83380952D01*
X108345238Y-83285714D01*
X108345238Y-83166666D01*
X108369047Y-83071428D01*
X108392857Y-83023809D01*
X108416666Y-83000000D01*
X108464285Y-82976190D01*
X105928571Y-67053571D02*
X105904761Y-67077380D01*
X105833333Y-67101190D01*
X105785714Y-67101190D01*
X105714285Y-67077380D01*
X105666666Y-67029761D01*
X105642857Y-66982142D01*
X105619047Y-66886904D01*
X105619047Y-66815476D01*
X105642857Y-66720238D01*
X105666666Y-66672619D01*
X105714285Y-66625000D01*
X105785714Y-66601190D01*
X105833333Y-66601190D01*
X105904761Y-66625000D01*
X105928571Y-66648809D01*
X106404761Y-67101190D02*
X106119047Y-67101190D01*
X106261904Y-67101190D02*
X106261904Y-66601190D01*
X106214285Y-66672619D01*
X106166666Y-66720238D01*
X106119047Y-66744047D01*
X106880952Y-67101190D02*
X106595238Y-67101190D01*
X106738095Y-67101190D02*
X106738095Y-66601190D01*
X106690476Y-66672619D01*
X106642857Y-66720238D01*
X106595238Y-66744047D01*
X116678571Y-73821428D02*
X116702380Y-73845238D01*
X116726190Y-73916666D01*
X116726190Y-73964285D01*
X116702380Y-74035714D01*
X116654761Y-74083333D01*
X116607142Y-74107142D01*
X116511904Y-74130952D01*
X116440476Y-74130952D01*
X116345238Y-74107142D01*
X116297619Y-74083333D01*
X116250000Y-74035714D01*
X116226190Y-73964285D01*
X116226190Y-73916666D01*
X116250000Y-73845238D01*
X116273809Y-73821428D01*
X116726190Y-73345238D02*
X116726190Y-73630952D01*
X116726190Y-73488095D02*
X116226190Y-73488095D01*
X116297619Y-73535714D01*
X116345238Y-73583333D01*
X116369047Y-73630952D01*
X116273809Y-73154761D02*
X116250000Y-73130952D01*
X116226190Y-73083333D01*
X116226190Y-72964285D01*
X116250000Y-72916666D01*
X116273809Y-72892857D01*
X116321428Y-72869047D01*
X116369047Y-72869047D01*
X116440476Y-72892857D01*
X116726190Y-73178571D01*
X116726190Y-72869047D01*
X116678571Y-56821428D02*
X116702380Y-56845238D01*
X116726190Y-56916666D01*
X116726190Y-56964285D01*
X116702380Y-57035714D01*
X116654761Y-57083333D01*
X116607142Y-57107142D01*
X116511904Y-57130952D01*
X116440476Y-57130952D01*
X116345238Y-57107142D01*
X116297619Y-57083333D01*
X116250000Y-57035714D01*
X116226190Y-56964285D01*
X116226190Y-56916666D01*
X116250000Y-56845238D01*
X116273809Y-56821428D01*
X116726190Y-56345238D02*
X116726190Y-56630952D01*
X116726190Y-56488095D02*
X116226190Y-56488095D01*
X116297619Y-56535714D01*
X116345238Y-56583333D01*
X116369047Y-56630952D01*
X116226190Y-56178571D02*
X116226190Y-55869047D01*
X116416666Y-56035714D01*
X116416666Y-55964285D01*
X116440476Y-55916666D01*
X116464285Y-55892857D01*
X116511904Y-55869047D01*
X116630952Y-55869047D01*
X116678571Y-55892857D01*
X116702380Y-55916666D01*
X116726190Y-55964285D01*
X116726190Y-56107142D01*
X116702380Y-56154761D01*
X116678571Y-56178571D01*
X120428571Y-60821428D02*
X120452380Y-60845238D01*
X120476190Y-60916666D01*
X120476190Y-60964285D01*
X120452380Y-61035714D01*
X120404761Y-61083333D01*
X120357142Y-61107142D01*
X120261904Y-61130952D01*
X120190476Y-61130952D01*
X120095238Y-61107142D01*
X120047619Y-61083333D01*
X120000000Y-61035714D01*
X119976190Y-60964285D01*
X119976190Y-60916666D01*
X120000000Y-60845238D01*
X120023809Y-60821428D01*
X120476190Y-60345238D02*
X120476190Y-60630952D01*
X120476190Y-60488095D02*
X119976190Y-60488095D01*
X120047619Y-60535714D01*
X120095238Y-60583333D01*
X120119047Y-60630952D01*
X120142857Y-59916666D02*
X120476190Y-59916666D01*
X119952380Y-60035714D02*
X120309523Y-60154761D01*
X120309523Y-59845238D01*
X120428571Y-66071428D02*
X120452380Y-66095238D01*
X120476190Y-66166666D01*
X120476190Y-66214285D01*
X120452380Y-66285714D01*
X120404761Y-66333333D01*
X120357142Y-66357142D01*
X120261904Y-66380952D01*
X120190476Y-66380952D01*
X120095238Y-66357142D01*
X120047619Y-66333333D01*
X120000000Y-66285714D01*
X119976190Y-66214285D01*
X119976190Y-66166666D01*
X120000000Y-66095238D01*
X120023809Y-66071428D01*
X120476190Y-65595238D02*
X120476190Y-65880952D01*
X120476190Y-65738095D02*
X119976190Y-65738095D01*
X120047619Y-65785714D01*
X120095238Y-65833333D01*
X120119047Y-65880952D01*
X119976190Y-65142857D02*
X119976190Y-65380952D01*
X120214285Y-65404761D01*
X120190476Y-65380952D01*
X120166666Y-65333333D01*
X120166666Y-65214285D01*
X120190476Y-65166666D01*
X120214285Y-65142857D01*
X120261904Y-65119047D01*
X120380952Y-65119047D01*
X120428571Y-65142857D01*
X120452380Y-65166666D01*
X120476190Y-65214285D01*
X120476190Y-65333333D01*
X120452380Y-65380952D01*
X120428571Y-65404761D01*
X120428571Y-63821428D02*
X120452380Y-63845238D01*
X120476190Y-63916666D01*
X120476190Y-63964285D01*
X120452380Y-64035714D01*
X120404761Y-64083333D01*
X120357142Y-64107142D01*
X120261904Y-64130952D01*
X120190476Y-64130952D01*
X120095238Y-64107142D01*
X120047619Y-64083333D01*
X120000000Y-64035714D01*
X119976190Y-63964285D01*
X119976190Y-63916666D01*
X120000000Y-63845238D01*
X120023809Y-63821428D01*
X120476190Y-63345238D02*
X120476190Y-63630952D01*
X120476190Y-63488095D02*
X119976190Y-63488095D01*
X120047619Y-63535714D01*
X120095238Y-63583333D01*
X120119047Y-63630952D01*
X119976190Y-62916666D02*
X119976190Y-63011904D01*
X120000000Y-63059523D01*
X120023809Y-63083333D01*
X120095238Y-63130952D01*
X120190476Y-63154761D01*
X120380952Y-63154761D01*
X120428571Y-63130952D01*
X120452380Y-63107142D01*
X120476190Y-63059523D01*
X120476190Y-62964285D01*
X120452380Y-62916666D01*
X120428571Y-62892857D01*
X120380952Y-62869047D01*
X120261904Y-62869047D01*
X120214285Y-62892857D01*
X120190476Y-62916666D01*
X120166666Y-62964285D01*
X120166666Y-63059523D01*
X120190476Y-63107142D01*
X120214285Y-63130952D01*
X120261904Y-63154761D01*
X120428571Y-69821428D02*
X120452380Y-69845238D01*
X120476190Y-69916666D01*
X120476190Y-69964285D01*
X120452380Y-70035714D01*
X120404761Y-70083333D01*
X120357142Y-70107142D01*
X120261904Y-70130952D01*
X120190476Y-70130952D01*
X120095238Y-70107142D01*
X120047619Y-70083333D01*
X120000000Y-70035714D01*
X119976190Y-69964285D01*
X119976190Y-69916666D01*
X120000000Y-69845238D01*
X120023809Y-69821428D01*
X120476190Y-69345238D02*
X120476190Y-69630952D01*
X120476190Y-69488095D02*
X119976190Y-69488095D01*
X120047619Y-69535714D01*
X120095238Y-69583333D01*
X120119047Y-69630952D01*
X119976190Y-69178571D02*
X119976190Y-68845238D01*
X120476190Y-69059523D01*
X116678571Y-72071428D02*
X116702380Y-72095238D01*
X116726190Y-72166666D01*
X116726190Y-72214285D01*
X116702380Y-72285714D01*
X116654761Y-72333333D01*
X116607142Y-72357142D01*
X116511904Y-72380952D01*
X116440476Y-72380952D01*
X116345238Y-72357142D01*
X116297619Y-72333333D01*
X116250000Y-72285714D01*
X116226190Y-72214285D01*
X116226190Y-72166666D01*
X116250000Y-72095238D01*
X116273809Y-72071428D01*
X116726190Y-71595238D02*
X116726190Y-71880952D01*
X116726190Y-71738095D02*
X116226190Y-71738095D01*
X116297619Y-71785714D01*
X116345238Y-71833333D01*
X116369047Y-71880952D01*
X116440476Y-71309523D02*
X116416666Y-71357142D01*
X116392857Y-71380952D01*
X116345238Y-71404761D01*
X116321428Y-71404761D01*
X116273809Y-71380952D01*
X116250000Y-71357142D01*
X116226190Y-71309523D01*
X116226190Y-71214285D01*
X116250000Y-71166666D01*
X116273809Y-71142857D01*
X116321428Y-71119047D01*
X116345238Y-71119047D01*
X116392857Y-71142857D01*
X116416666Y-71166666D01*
X116440476Y-71214285D01*
X116440476Y-71309523D01*
X116464285Y-71357142D01*
X116488095Y-71380952D01*
X116535714Y-71404761D01*
X116630952Y-71404761D01*
X116678571Y-71380952D01*
X116702380Y-71357142D01*
X116726190Y-71309523D01*
X116726190Y-71214285D01*
X116702380Y-71166666D01*
X116678571Y-71142857D01*
X116630952Y-71119047D01*
X116535714Y-71119047D01*
X116488095Y-71142857D01*
X116464285Y-71166666D01*
X116440476Y-71214285D01*
X116678571Y-58571428D02*
X116702380Y-58595238D01*
X116726190Y-58666666D01*
X116726190Y-58714285D01*
X116702380Y-58785714D01*
X116654761Y-58833333D01*
X116607142Y-58857142D01*
X116511904Y-58880952D01*
X116440476Y-58880952D01*
X116345238Y-58857142D01*
X116297619Y-58833333D01*
X116250000Y-58785714D01*
X116226190Y-58714285D01*
X116226190Y-58666666D01*
X116250000Y-58595238D01*
X116273809Y-58571428D01*
X116726190Y-58095238D02*
X116726190Y-58380952D01*
X116726190Y-58238095D02*
X116226190Y-58238095D01*
X116297619Y-58285714D01*
X116345238Y-58333333D01*
X116369047Y-58380952D01*
X116726190Y-57857142D02*
X116726190Y-57761904D01*
X116702380Y-57714285D01*
X116678571Y-57690476D01*
X116607142Y-57642857D01*
X116511904Y-57619047D01*
X116321428Y-57619047D01*
X116273809Y-57642857D01*
X116250000Y-57666666D01*
X116226190Y-57714285D01*
X116226190Y-57809523D01*
X116250000Y-57857142D01*
X116273809Y-57880952D01*
X116321428Y-57904761D01*
X116440476Y-57904761D01*
X116488095Y-57880952D01*
X116511904Y-57857142D01*
X116535714Y-57809523D01*
X116535714Y-57714285D01*
X116511904Y-57666666D01*
X116488095Y-57642857D01*
X116440476Y-57619047D01*
X125428571Y-48321428D02*
X125452380Y-48345238D01*
X125476190Y-48416666D01*
X125476190Y-48464285D01*
X125452380Y-48535714D01*
X125404761Y-48583333D01*
X125357142Y-48607142D01*
X125261904Y-48630952D01*
X125190476Y-48630952D01*
X125095238Y-48607142D01*
X125047619Y-48583333D01*
X125000000Y-48535714D01*
X124976190Y-48464285D01*
X124976190Y-48416666D01*
X125000000Y-48345238D01*
X125023809Y-48321428D01*
X125023809Y-48130952D02*
X125000000Y-48107142D01*
X124976190Y-48059523D01*
X124976190Y-47940476D01*
X125000000Y-47892857D01*
X125023809Y-47869047D01*
X125071428Y-47845238D01*
X125119047Y-47845238D01*
X125190476Y-47869047D01*
X125476190Y-48154761D01*
X125476190Y-47845238D01*
X124976190Y-47535714D02*
X124976190Y-47488095D01*
X125000000Y-47440476D01*
X125023809Y-47416666D01*
X125071428Y-47392857D01*
X125166666Y-47369047D01*
X125285714Y-47369047D01*
X125380952Y-47392857D01*
X125428571Y-47416666D01*
X125452380Y-47440476D01*
X125476190Y-47488095D01*
X125476190Y-47535714D01*
X125452380Y-47583333D01*
X125428571Y-47607142D01*
X125380952Y-47630952D01*
X125285714Y-47654761D01*
X125166666Y-47654761D01*
X125071428Y-47630952D01*
X125023809Y-47607142D01*
X125000000Y-47583333D01*
X124976190Y-47535714D01*
X125428571Y-66821428D02*
X125452380Y-66845238D01*
X125476190Y-66916666D01*
X125476190Y-66964285D01*
X125452380Y-67035714D01*
X125404761Y-67083333D01*
X125357142Y-67107142D01*
X125261904Y-67130952D01*
X125190476Y-67130952D01*
X125095238Y-67107142D01*
X125047619Y-67083333D01*
X125000000Y-67035714D01*
X124976190Y-66964285D01*
X124976190Y-66916666D01*
X125000000Y-66845238D01*
X125023809Y-66821428D01*
X125023809Y-66630952D02*
X125000000Y-66607142D01*
X124976190Y-66559523D01*
X124976190Y-66440476D01*
X125000000Y-66392857D01*
X125023809Y-66369047D01*
X125071428Y-66345238D01*
X125119047Y-66345238D01*
X125190476Y-66369047D01*
X125476190Y-66654761D01*
X125476190Y-66345238D01*
X125476190Y-65869047D02*
X125476190Y-66154761D01*
X125476190Y-66011904D02*
X124976190Y-66011904D01*
X125047619Y-66059523D01*
X125095238Y-66107142D01*
X125119047Y-66154761D01*
X125428571Y-63821428D02*
X125452380Y-63845238D01*
X125476190Y-63916666D01*
X125476190Y-63964285D01*
X125452380Y-64035714D01*
X125404761Y-64083333D01*
X125357142Y-64107142D01*
X125261904Y-64130952D01*
X125190476Y-64130952D01*
X125095238Y-64107142D01*
X125047619Y-64083333D01*
X125000000Y-64035714D01*
X124976190Y-63964285D01*
X124976190Y-63916666D01*
X125000000Y-63845238D01*
X125023809Y-63821428D01*
X125023809Y-63630952D02*
X125000000Y-63607142D01*
X124976190Y-63559523D01*
X124976190Y-63440476D01*
X125000000Y-63392857D01*
X125023809Y-63369047D01*
X125071428Y-63345238D01*
X125119047Y-63345238D01*
X125190476Y-63369047D01*
X125476190Y-63654761D01*
X125476190Y-63345238D01*
X124976190Y-63178571D02*
X124976190Y-62869047D01*
X125166666Y-63035714D01*
X125166666Y-62964285D01*
X125190476Y-62916666D01*
X125214285Y-62892857D01*
X125261904Y-62869047D01*
X125380952Y-62869047D01*
X125428571Y-62892857D01*
X125452380Y-62916666D01*
X125476190Y-62964285D01*
X125476190Y-63107142D01*
X125452380Y-63154761D01*
X125428571Y-63178571D01*
X125428571Y-82321428D02*
X125452380Y-82345238D01*
X125476190Y-82416666D01*
X125476190Y-82464285D01*
X125452380Y-82535714D01*
X125404761Y-82583333D01*
X125357142Y-82607142D01*
X125261904Y-82630952D01*
X125190476Y-82630952D01*
X125095238Y-82607142D01*
X125047619Y-82583333D01*
X125000000Y-82535714D01*
X124976190Y-82464285D01*
X124976190Y-82416666D01*
X125000000Y-82345238D01*
X125023809Y-82321428D01*
X125023809Y-82130952D02*
X125000000Y-82107142D01*
X124976190Y-82059523D01*
X124976190Y-81940476D01*
X125000000Y-81892857D01*
X125023809Y-81869047D01*
X125071428Y-81845238D01*
X125119047Y-81845238D01*
X125190476Y-81869047D01*
X125476190Y-82154761D01*
X125476190Y-81845238D01*
X125142857Y-81416666D02*
X125476190Y-81416666D01*
X124952380Y-81535714D02*
X125309523Y-81654761D01*
X125309523Y-81345238D01*
D15*
X95089285Y-44303571D02*
X94339285Y-44303571D01*
X94339285Y-44125000D01*
X94375000Y-44017857D01*
X94446428Y-43946428D01*
X94517857Y-43910714D01*
X94660714Y-43875000D01*
X94767857Y-43875000D01*
X94910714Y-43910714D01*
X94982142Y-43946428D01*
X95053571Y-44017857D01*
X95089285Y-44125000D01*
X95089285Y-44303571D01*
X95089285Y-43160714D02*
X95089285Y-43589285D01*
X95089285Y-43375000D02*
X94339285Y-43375000D01*
X94446428Y-43446428D01*
X94517857Y-43517857D01*
X94553571Y-43589285D01*
X122625000Y-49446428D02*
X122375000Y-49446428D01*
X122375000Y-49839285D02*
X122375000Y-49089285D01*
X122732142Y-49089285D01*
X123267857Y-49446428D02*
X123375000Y-49482142D01*
X123410714Y-49517857D01*
X123446428Y-49589285D01*
X123446428Y-49696428D01*
X123410714Y-49767857D01*
X123375000Y-49803571D01*
X123303571Y-49839285D01*
X123017857Y-49839285D01*
X123017857Y-49089285D01*
X123267857Y-49089285D01*
X123339285Y-49125000D01*
X123375000Y-49160714D01*
X123410714Y-49232142D01*
X123410714Y-49303571D01*
X123375000Y-49375000D01*
X123339285Y-49410714D01*
X123267857Y-49446428D01*
X123017857Y-49446428D01*
X124160714Y-49839285D02*
X123732142Y-49839285D01*
X123946428Y-49839285D02*
X123946428Y-49089285D01*
X123875000Y-49196428D01*
X123803571Y-49267857D01*
X123732142Y-49303571D01*
X122625000Y-67946428D02*
X122375000Y-67946428D01*
X122375000Y-68339285D02*
X122375000Y-67589285D01*
X122732142Y-67589285D01*
X123267857Y-67946428D02*
X123375000Y-67982142D01*
X123410714Y-68017857D01*
X123446428Y-68089285D01*
X123446428Y-68196428D01*
X123410714Y-68267857D01*
X123375000Y-68303571D01*
X123303571Y-68339285D01*
X123017857Y-68339285D01*
X123017857Y-67589285D01*
X123267857Y-67589285D01*
X123339285Y-67625000D01*
X123375000Y-67660714D01*
X123410714Y-67732142D01*
X123410714Y-67803571D01*
X123375000Y-67875000D01*
X123339285Y-67910714D01*
X123267857Y-67946428D01*
X123017857Y-67946428D01*
X123732142Y-67660714D02*
X123767857Y-67625000D01*
X123839285Y-67589285D01*
X124017857Y-67589285D01*
X124089285Y-67625000D01*
X124125000Y-67660714D01*
X124160714Y-67732142D01*
X124160714Y-67803571D01*
X124125000Y-67910714D01*
X123696428Y-68339285D01*
X124160714Y-68339285D01*
X122625000Y-61946428D02*
X122375000Y-61946428D01*
X122375000Y-62339285D02*
X122375000Y-61589285D01*
X122732142Y-61589285D01*
X123267857Y-61946428D02*
X123375000Y-61982142D01*
X123410714Y-62017857D01*
X123446428Y-62089285D01*
X123446428Y-62196428D01*
X123410714Y-62267857D01*
X123375000Y-62303571D01*
X123303571Y-62339285D01*
X123017857Y-62339285D01*
X123017857Y-61589285D01*
X123267857Y-61589285D01*
X123339285Y-61625000D01*
X123375000Y-61660714D01*
X123410714Y-61732142D01*
X123410714Y-61803571D01*
X123375000Y-61875000D01*
X123339285Y-61910714D01*
X123267857Y-61946428D01*
X123017857Y-61946428D01*
X123696428Y-61589285D02*
X124160714Y-61589285D01*
X123910714Y-61875000D01*
X124017857Y-61875000D01*
X124089285Y-61910714D01*
X124125000Y-61946428D01*
X124160714Y-62017857D01*
X124160714Y-62196428D01*
X124125000Y-62267857D01*
X124089285Y-62303571D01*
X124017857Y-62339285D01*
X123803571Y-62339285D01*
X123732142Y-62303571D01*
X123696428Y-62267857D01*
X122625000Y-80446428D02*
X122375000Y-80446428D01*
X122375000Y-80839285D02*
X122375000Y-80089285D01*
X122732142Y-80089285D01*
X123267857Y-80446428D02*
X123375000Y-80482142D01*
X123410714Y-80517857D01*
X123446428Y-80589285D01*
X123446428Y-80696428D01*
X123410714Y-80767857D01*
X123375000Y-80803571D01*
X123303571Y-80839285D01*
X123017857Y-80839285D01*
X123017857Y-80089285D01*
X123267857Y-80089285D01*
X123339285Y-80125000D01*
X123375000Y-80160714D01*
X123410714Y-80232142D01*
X123410714Y-80303571D01*
X123375000Y-80375000D01*
X123339285Y-80410714D01*
X123267857Y-80446428D01*
X123017857Y-80446428D01*
X124089285Y-80339285D02*
X124089285Y-80839285D01*
X123910714Y-80053571D02*
X123732142Y-80589285D01*
X124196428Y-80589285D01*
D11*
X96202380Y-83273809D02*
X96154761Y-83250000D01*
X96107142Y-83202380D01*
X96035714Y-83130952D01*
X95988095Y-83107142D01*
X95940476Y-83107142D01*
X95964285Y-83226190D02*
X95916666Y-83202380D01*
X95869047Y-83154761D01*
X95845238Y-83059523D01*
X95845238Y-82892857D01*
X95869047Y-82797619D01*
X95916666Y-82750000D01*
X95964285Y-82726190D01*
X96059523Y-82726190D01*
X96107142Y-82750000D01*
X96154761Y-82797619D01*
X96178571Y-82892857D01*
X96178571Y-83059523D01*
X96154761Y-83154761D01*
X96107142Y-83202380D01*
X96059523Y-83226190D01*
X95964285Y-83226190D01*
X96369047Y-82773809D02*
X96392857Y-82750000D01*
X96440476Y-82726190D01*
X96559523Y-82726190D01*
X96607142Y-82750000D01*
X96630952Y-82773809D01*
X96654761Y-82821428D01*
X96654761Y-82869047D01*
X96630952Y-82940476D01*
X96345238Y-83226190D01*
X96654761Y-83226190D01*
X99202380Y-48773809D02*
X99154761Y-48750000D01*
X99107142Y-48702380D01*
X99035714Y-48630952D01*
X98988095Y-48607142D01*
X98940476Y-48607142D01*
X98964285Y-48726190D02*
X98916666Y-48702380D01*
X98869047Y-48654761D01*
X98845238Y-48559523D01*
X98845238Y-48392857D01*
X98869047Y-48297619D01*
X98916666Y-48250000D01*
X98964285Y-48226190D01*
X99059523Y-48226190D01*
X99107142Y-48250000D01*
X99154761Y-48297619D01*
X99178571Y-48392857D01*
X99178571Y-48559523D01*
X99154761Y-48654761D01*
X99107142Y-48702380D01*
X99059523Y-48726190D01*
X98964285Y-48726190D01*
X99654761Y-48726190D02*
X99369047Y-48726190D01*
X99511904Y-48726190D02*
X99511904Y-48226190D01*
X99464285Y-48297619D01*
X99416666Y-48345238D01*
X99369047Y-48369047D01*
X92452380Y-83273809D02*
X92404761Y-83250000D01*
X92357142Y-83202380D01*
X92285714Y-83130952D01*
X92238095Y-83107142D01*
X92190476Y-83107142D01*
X92214285Y-83226190D02*
X92166666Y-83202380D01*
X92119047Y-83154761D01*
X92095238Y-83059523D01*
X92095238Y-82892857D01*
X92119047Y-82797619D01*
X92166666Y-82750000D01*
X92214285Y-82726190D01*
X92309523Y-82726190D01*
X92357142Y-82750000D01*
X92404761Y-82797619D01*
X92428571Y-82892857D01*
X92428571Y-83059523D01*
X92404761Y-83154761D01*
X92357142Y-83202380D01*
X92309523Y-83226190D01*
X92214285Y-83226190D01*
X92857142Y-82892857D02*
X92857142Y-83226190D01*
X92738095Y-82702380D02*
X92619047Y-83059523D01*
X92928571Y-83059523D01*
X102952380Y-48773809D02*
X102904761Y-48750000D01*
X102857142Y-48702380D01*
X102785714Y-48630952D01*
X102738095Y-48607142D01*
X102690476Y-48607142D01*
X102714285Y-48726190D02*
X102666666Y-48702380D01*
X102619047Y-48654761D01*
X102595238Y-48559523D01*
X102595238Y-48392857D01*
X102619047Y-48297619D01*
X102666666Y-48250000D01*
X102714285Y-48226190D01*
X102809523Y-48226190D01*
X102857142Y-48250000D01*
X102904761Y-48297619D01*
X102928571Y-48392857D01*
X102928571Y-48559523D01*
X102904761Y-48654761D01*
X102857142Y-48702380D01*
X102809523Y-48726190D01*
X102714285Y-48726190D01*
X103095238Y-48226190D02*
X103404761Y-48226190D01*
X103238095Y-48416666D01*
X103309523Y-48416666D01*
X103357142Y-48440476D01*
X103380952Y-48464285D01*
X103404761Y-48511904D01*
X103404761Y-48630952D01*
X103380952Y-48678571D01*
X103357142Y-48702380D01*
X103309523Y-48726190D01*
X103166666Y-48726190D01*
X103119047Y-48702380D01*
X103095238Y-48678571D01*
X88476190Y-49333333D02*
X88238095Y-49500000D01*
X88476190Y-49619047D02*
X87976190Y-49619047D01*
X87976190Y-49428571D01*
X88000000Y-49380952D01*
X88023809Y-49357142D01*
X88071428Y-49333333D01*
X88142857Y-49333333D01*
X88190476Y-49357142D01*
X88214285Y-49380952D01*
X88238095Y-49428571D01*
X88238095Y-49619047D01*
X88476190Y-48857142D02*
X88476190Y-49142857D01*
X88476190Y-49000000D02*
X87976190Y-49000000D01*
X88047619Y-49047619D01*
X88095238Y-49095238D01*
X88119047Y-49142857D01*
X88476190Y-68583333D02*
X88238095Y-68750000D01*
X88476190Y-68869047D02*
X87976190Y-68869047D01*
X87976190Y-68678571D01*
X88000000Y-68630952D01*
X88023809Y-68607142D01*
X88071428Y-68583333D01*
X88142857Y-68583333D01*
X88190476Y-68607142D01*
X88214285Y-68630952D01*
X88238095Y-68678571D01*
X88238095Y-68869047D01*
X88023809Y-68392857D02*
X88000000Y-68369047D01*
X87976190Y-68321428D01*
X87976190Y-68202380D01*
X88000000Y-68154761D01*
X88023809Y-68130952D01*
X88071428Y-68107142D01*
X88119047Y-68107142D01*
X88190476Y-68130952D01*
X88476190Y-68416666D01*
X88476190Y-68107142D01*
X95976190Y-47583333D02*
X95738095Y-47750000D01*
X95976190Y-47869047D02*
X95476190Y-47869047D01*
X95476190Y-47678571D01*
X95500000Y-47630952D01*
X95523809Y-47607142D01*
X95571428Y-47583333D01*
X95642857Y-47583333D01*
X95690476Y-47607142D01*
X95714285Y-47630952D01*
X95738095Y-47678571D01*
X95738095Y-47869047D01*
X95476190Y-47416666D02*
X95476190Y-47107142D01*
X95666666Y-47273809D01*
X95666666Y-47202380D01*
X95690476Y-47154761D01*
X95714285Y-47130952D01*
X95761904Y-47107142D01*
X95880952Y-47107142D01*
X95928571Y-47130952D01*
X95952380Y-47154761D01*
X95976190Y-47202380D01*
X95976190Y-47345238D01*
X95952380Y-47392857D01*
X95928571Y-47416666D01*
X95976190Y-49333333D02*
X95738095Y-49500000D01*
X95976190Y-49619047D02*
X95476190Y-49619047D01*
X95476190Y-49428571D01*
X95500000Y-49380952D01*
X95523809Y-49357142D01*
X95571428Y-49333333D01*
X95642857Y-49333333D01*
X95690476Y-49357142D01*
X95714285Y-49380952D01*
X95738095Y-49428571D01*
X95738095Y-49619047D01*
X95642857Y-48904761D02*
X95976190Y-48904761D01*
X95452380Y-49023809D02*
X95809523Y-49142857D01*
X95809523Y-48833333D01*
X95976190Y-66833333D02*
X95738095Y-67000000D01*
X95976190Y-67119047D02*
X95476190Y-67119047D01*
X95476190Y-66928571D01*
X95500000Y-66880952D01*
X95523809Y-66857142D01*
X95571428Y-66833333D01*
X95642857Y-66833333D01*
X95690476Y-66857142D01*
X95714285Y-66880952D01*
X95738095Y-66928571D01*
X95738095Y-67119047D01*
X95476190Y-66380952D02*
X95476190Y-66619047D01*
X95714285Y-66642857D01*
X95690476Y-66619047D01*
X95666666Y-66571428D01*
X95666666Y-66452380D01*
X95690476Y-66404761D01*
X95714285Y-66380952D01*
X95761904Y-66357142D01*
X95880952Y-66357142D01*
X95928571Y-66380952D01*
X95952380Y-66404761D01*
X95976190Y-66452380D01*
X95976190Y-66571428D01*
X95952380Y-66619047D01*
X95928571Y-66642857D01*
X95976190Y-68583333D02*
X95738095Y-68750000D01*
X95976190Y-68869047D02*
X95476190Y-68869047D01*
X95476190Y-68678571D01*
X95500000Y-68630952D01*
X95523809Y-68607142D01*
X95571428Y-68583333D01*
X95642857Y-68583333D01*
X95690476Y-68607142D01*
X95714285Y-68630952D01*
X95738095Y-68678571D01*
X95738095Y-68869047D01*
X95476190Y-68154761D02*
X95476190Y-68250000D01*
X95500000Y-68297619D01*
X95523809Y-68321428D01*
X95595238Y-68369047D01*
X95690476Y-68392857D01*
X95880952Y-68392857D01*
X95928571Y-68369047D01*
X95952380Y-68345238D01*
X95976190Y-68297619D01*
X95976190Y-68202380D01*
X95952380Y-68154761D01*
X95928571Y-68130952D01*
X95880952Y-68107142D01*
X95761904Y-68107142D01*
X95714285Y-68130952D01*
X95690476Y-68154761D01*
X95666666Y-68202380D01*
X95666666Y-68297619D01*
X95690476Y-68345238D01*
X95714285Y-68369047D01*
X95761904Y-68392857D01*
X84416666Y-83476190D02*
X84250000Y-83238095D01*
X84130952Y-83476190D02*
X84130952Y-82976190D01*
X84321428Y-82976190D01*
X84369047Y-83000000D01*
X84392857Y-83023809D01*
X84416666Y-83071428D01*
X84416666Y-83142857D01*
X84392857Y-83190476D01*
X84369047Y-83214285D01*
X84321428Y-83238095D01*
X84130952Y-83238095D01*
X84583333Y-82976190D02*
X84916666Y-82976190D01*
X84702380Y-83476190D01*
X86166666Y-83476190D02*
X86000000Y-83238095D01*
X85880952Y-83476190D02*
X85880952Y-82976190D01*
X86071428Y-82976190D01*
X86119047Y-83000000D01*
X86142857Y-83023809D01*
X86166666Y-83071428D01*
X86166666Y-83142857D01*
X86142857Y-83190476D01*
X86119047Y-83214285D01*
X86071428Y-83238095D01*
X85880952Y-83238095D01*
X86452380Y-83190476D02*
X86404761Y-83166666D01*
X86380952Y-83142857D01*
X86357142Y-83095238D01*
X86357142Y-83071428D01*
X86380952Y-83023809D01*
X86404761Y-83000000D01*
X86452380Y-82976190D01*
X86547619Y-82976190D01*
X86595238Y-83000000D01*
X86619047Y-83023809D01*
X86642857Y-83071428D01*
X86642857Y-83095238D01*
X86619047Y-83142857D01*
X86595238Y-83166666D01*
X86547619Y-83190476D01*
X86452380Y-83190476D01*
X86404761Y-83214285D01*
X86380952Y-83238095D01*
X86357142Y-83285714D01*
X86357142Y-83380952D01*
X86380952Y-83428571D01*
X86404761Y-83452380D01*
X86452380Y-83476190D01*
X86547619Y-83476190D01*
X86595238Y-83452380D01*
X86619047Y-83428571D01*
X86642857Y-83380952D01*
X86642857Y-83285714D01*
X86619047Y-83238095D01*
X86595238Y-83214285D01*
X86547619Y-83190476D01*
X89428571Y-83476190D02*
X89261904Y-83238095D01*
X89142857Y-83476190D02*
X89142857Y-82976190D01*
X89333333Y-82976190D01*
X89380952Y-83000000D01*
X89404761Y-83023809D01*
X89428571Y-83071428D01*
X89428571Y-83142857D01*
X89404761Y-83190476D01*
X89380952Y-83214285D01*
X89333333Y-83238095D01*
X89142857Y-83238095D01*
X89904761Y-83476190D02*
X89619047Y-83476190D01*
X89761904Y-83476190D02*
X89761904Y-82976190D01*
X89714285Y-83047619D01*
X89666666Y-83095238D01*
X89619047Y-83119047D01*
X90380952Y-83476190D02*
X90095238Y-83476190D01*
X90238095Y-83476190D02*
X90238095Y-82976190D01*
X90190476Y-83047619D01*
X90142857Y-83095238D01*
X90095238Y-83119047D01*
X99416666Y-50476190D02*
X99250000Y-50238095D01*
X99130952Y-50476190D02*
X99130952Y-49976190D01*
X99321428Y-49976190D01*
X99369047Y-50000000D01*
X99392857Y-50023809D01*
X99416666Y-50071428D01*
X99416666Y-50142857D01*
X99392857Y-50190476D01*
X99369047Y-50214285D01*
X99321428Y-50238095D01*
X99130952Y-50238095D01*
X99654761Y-50476190D02*
X99750000Y-50476190D01*
X99797619Y-50452380D01*
X99821428Y-50428571D01*
X99869047Y-50357142D01*
X99892857Y-50261904D01*
X99892857Y-50071428D01*
X99869047Y-50023809D01*
X99845238Y-50000000D01*
X99797619Y-49976190D01*
X99702380Y-49976190D01*
X99654761Y-50000000D01*
X99630952Y-50023809D01*
X99607142Y-50071428D01*
X99607142Y-50190476D01*
X99630952Y-50238095D01*
X99654761Y-50261904D01*
X99702380Y-50285714D01*
X99797619Y-50285714D01*
X99845238Y-50261904D01*
X99869047Y-50238095D01*
X99892857Y-50190476D01*
X96928571Y-65726190D02*
X96761904Y-65488095D01*
X96642857Y-65726190D02*
X96642857Y-65226190D01*
X96833333Y-65226190D01*
X96880952Y-65250000D01*
X96904761Y-65273809D01*
X96928571Y-65321428D01*
X96928571Y-65392857D01*
X96904761Y-65440476D01*
X96880952Y-65464285D01*
X96833333Y-65488095D01*
X96642857Y-65488095D01*
X97404761Y-65726190D02*
X97119047Y-65726190D01*
X97261904Y-65726190D02*
X97261904Y-65226190D01*
X97214285Y-65297619D01*
X97166666Y-65345238D01*
X97119047Y-65369047D01*
X97714285Y-65226190D02*
X97761904Y-65226190D01*
X97809523Y-65250000D01*
X97833333Y-65273809D01*
X97857142Y-65321428D01*
X97880952Y-65416666D01*
X97880952Y-65535714D01*
X97857142Y-65630952D01*
X97833333Y-65678571D01*
X97809523Y-65702380D01*
X97761904Y-65726190D01*
X97714285Y-65726190D01*
X97666666Y-65702380D01*
X97642857Y-65678571D01*
X97619047Y-65630952D01*
X97595238Y-65535714D01*
X97595238Y-65416666D01*
X97619047Y-65321428D01*
X97642857Y-65273809D01*
X97666666Y-65250000D01*
X97714285Y-65226190D01*
X87678571Y-83476190D02*
X87511904Y-83238095D01*
X87392857Y-83476190D02*
X87392857Y-82976190D01*
X87583333Y-82976190D01*
X87630952Y-83000000D01*
X87654761Y-83023809D01*
X87678571Y-83071428D01*
X87678571Y-83142857D01*
X87654761Y-83190476D01*
X87630952Y-83214285D01*
X87583333Y-83238095D01*
X87392857Y-83238095D01*
X88154761Y-83476190D02*
X87869047Y-83476190D01*
X88011904Y-83476190D02*
X88011904Y-82976190D01*
X87964285Y-83047619D01*
X87916666Y-83095238D01*
X87869047Y-83119047D01*
X88321428Y-82976190D02*
X88630952Y-82976190D01*
X88464285Y-83166666D01*
X88535714Y-83166666D01*
X88583333Y-83190476D01*
X88607142Y-83214285D01*
X88630952Y-83261904D01*
X88630952Y-83380952D01*
X88607142Y-83428571D01*
X88583333Y-83452380D01*
X88535714Y-83476190D01*
X88392857Y-83476190D01*
X88345238Y-83452380D01*
X88321428Y-83428571D01*
X100928571Y-50476190D02*
X100761904Y-50238095D01*
X100642857Y-50476190D02*
X100642857Y-49976190D01*
X100833333Y-49976190D01*
X100880952Y-50000000D01*
X100904761Y-50023809D01*
X100928571Y-50071428D01*
X100928571Y-50142857D01*
X100904761Y-50190476D01*
X100880952Y-50214285D01*
X100833333Y-50238095D01*
X100642857Y-50238095D01*
X101404761Y-50476190D02*
X101119047Y-50476190D01*
X101261904Y-50476190D02*
X101261904Y-49976190D01*
X101214285Y-50047619D01*
X101166666Y-50095238D01*
X101119047Y-50119047D01*
X101595238Y-50023809D02*
X101619047Y-50000000D01*
X101666666Y-49976190D01*
X101785714Y-49976190D01*
X101833333Y-50000000D01*
X101857142Y-50023809D01*
X101880952Y-50071428D01*
X101880952Y-50119047D01*
X101857142Y-50190476D01*
X101571428Y-50476190D01*
X101880952Y-50476190D01*
X104428571Y-50476190D02*
X104261904Y-50238095D01*
X104142857Y-50476190D02*
X104142857Y-49976190D01*
X104333333Y-49976190D01*
X104380952Y-50000000D01*
X104404761Y-50023809D01*
X104428571Y-50071428D01*
X104428571Y-50142857D01*
X104404761Y-50190476D01*
X104380952Y-50214285D01*
X104333333Y-50238095D01*
X104142857Y-50238095D01*
X104904761Y-50476190D02*
X104619047Y-50476190D01*
X104761904Y-50476190D02*
X104761904Y-49976190D01*
X104714285Y-50047619D01*
X104666666Y-50095238D01*
X104619047Y-50119047D01*
X105333333Y-50142857D02*
X105333333Y-50476190D01*
X105214285Y-49952380D02*
X105095238Y-50309523D01*
X105404761Y-50309523D01*
X102678571Y-50476190D02*
X102511904Y-50238095D01*
X102392857Y-50476190D02*
X102392857Y-49976190D01*
X102583333Y-49976190D01*
X102630952Y-50000000D01*
X102654761Y-50023809D01*
X102678571Y-50071428D01*
X102678571Y-50142857D01*
X102654761Y-50190476D01*
X102630952Y-50214285D01*
X102583333Y-50238095D01*
X102392857Y-50238095D01*
X103154761Y-50476190D02*
X102869047Y-50476190D01*
X103011904Y-50476190D02*
X103011904Y-49976190D01*
X102964285Y-50047619D01*
X102916666Y-50095238D01*
X102869047Y-50119047D01*
X103583333Y-49976190D02*
X103488095Y-49976190D01*
X103440476Y-50000000D01*
X103416666Y-50023809D01*
X103369047Y-50095238D01*
X103345238Y-50190476D01*
X103345238Y-50380952D01*
X103369047Y-50428571D01*
X103392857Y-50452380D01*
X103440476Y-50476190D01*
X103535714Y-50476190D01*
X103583333Y-50452380D01*
X103607142Y-50428571D01*
X103630952Y-50380952D01*
X103630952Y-50261904D01*
X103607142Y-50214285D01*
X103583333Y-50190476D01*
X103535714Y-50166666D01*
X103440476Y-50166666D01*
X103392857Y-50190476D01*
X103369047Y-50214285D01*
X103345238Y-50261904D01*
X105928571Y-83476190D02*
X105761904Y-83238095D01*
X105642857Y-83476190D02*
X105642857Y-82976190D01*
X105833333Y-82976190D01*
X105880952Y-83000000D01*
X105904761Y-83023809D01*
X105928571Y-83071428D01*
X105928571Y-83142857D01*
X105904761Y-83190476D01*
X105880952Y-83214285D01*
X105833333Y-83238095D01*
X105642857Y-83238095D01*
X106404761Y-83476190D02*
X106119047Y-83476190D01*
X106261904Y-83476190D02*
X106261904Y-82976190D01*
X106214285Y-83047619D01*
X106166666Y-83095238D01*
X106119047Y-83119047D01*
X106857142Y-82976190D02*
X106619047Y-82976190D01*
X106595238Y-83214285D01*
X106619047Y-83190476D01*
X106666666Y-83166666D01*
X106785714Y-83166666D01*
X106833333Y-83190476D01*
X106857142Y-83214285D01*
X106880952Y-83261904D01*
X106880952Y-83380952D01*
X106857142Y-83428571D01*
X106833333Y-83452380D01*
X106785714Y-83476190D01*
X106666666Y-83476190D01*
X106619047Y-83452380D01*
X106595238Y-83428571D01*
D10*
X88904761Y-61202380D02*
X88571428Y-60726190D01*
X88333333Y-61202380D02*
X88333333Y-60202380D01*
X88714285Y-60202380D01*
X88809523Y-60250000D01*
X88857142Y-60297619D01*
X88904761Y-60392857D01*
X88904761Y-60535714D01*
X88857142Y-60630952D01*
X88809523Y-60678571D01*
X88714285Y-60726190D01*
X88333333Y-60726190D01*
X89190476Y-60202380D02*
X89523809Y-61202380D01*
X89857142Y-60202380D01*
X90714285Y-61202380D02*
X90142857Y-61202380D01*
X90428571Y-61202380D02*
X90428571Y-60202380D01*
X90333333Y-60345238D01*
X90238095Y-60440476D01*
X90142857Y-60488095D01*
X88904761Y-80452380D02*
X88571428Y-79976190D01*
X88333333Y-80452380D02*
X88333333Y-79452380D01*
X88714285Y-79452380D01*
X88809523Y-79500000D01*
X88857142Y-79547619D01*
X88904761Y-79642857D01*
X88904761Y-79785714D01*
X88857142Y-79880952D01*
X88809523Y-79928571D01*
X88714285Y-79976190D01*
X88333333Y-79976190D01*
X89190476Y-79452380D02*
X89523809Y-80452380D01*
X89857142Y-79452380D01*
X90142857Y-79547619D02*
X90190476Y-79500000D01*
X90285714Y-79452380D01*
X90523809Y-79452380D01*
X90619047Y-79500000D01*
X90666666Y-79547619D01*
X90714285Y-79642857D01*
X90714285Y-79738095D01*
X90666666Y-79880952D01*
X90095238Y-80452380D01*
X90714285Y-80452380D01*
X94102380Y-52011904D02*
X94911904Y-52011904D01*
X95007142Y-51964285D01*
X95054761Y-51916666D01*
X95102380Y-51821428D01*
X95102380Y-51630952D01*
X95054761Y-51535714D01*
X95007142Y-51488095D01*
X94911904Y-51440476D01*
X94102380Y-51440476D01*
X95102380Y-50440476D02*
X95102380Y-51011904D01*
X95102380Y-50726190D02*
X94102380Y-50726190D01*
X94245238Y-50821428D01*
X94340476Y-50916666D01*
X94388095Y-51011904D01*
X94102380Y-71261904D02*
X94911904Y-71261904D01*
X95007142Y-71214285D01*
X95054761Y-71166666D01*
X95102380Y-71071428D01*
X95102380Y-70880952D01*
X95054761Y-70785714D01*
X95007142Y-70738095D01*
X94911904Y-70690476D01*
X94102380Y-70690476D01*
X94197619Y-70261904D02*
X94150000Y-70214285D01*
X94102380Y-70119047D01*
X94102380Y-69880952D01*
X94150000Y-69785714D01*
X94197619Y-69738095D01*
X94292857Y-69690476D01*
X94388095Y-69690476D01*
X94530952Y-69738095D01*
X95102380Y-70309523D01*
X95102380Y-69690476D01*
X107488095Y-57902380D02*
X107488095Y-58711904D01*
X107535714Y-58807142D01*
X107583333Y-58854761D01*
X107678571Y-58902380D01*
X107869047Y-58902380D01*
X107964285Y-58854761D01*
X108011904Y-58807142D01*
X108059523Y-58711904D01*
X108059523Y-57902380D01*
X108440476Y-57902380D02*
X109059523Y-57902380D01*
X108726190Y-58283333D01*
X108869047Y-58283333D01*
X108964285Y-58330952D01*
X109011904Y-58378571D01*
X109059523Y-58473809D01*
X109059523Y-58711904D01*
X109011904Y-58807142D01*
X108964285Y-58854761D01*
X108869047Y-58902380D01*
X108583333Y-58902380D01*
X108488095Y-58854761D01*
X108440476Y-58807142D01*
X109857142Y-81142857D02*
X109904761Y-81190476D01*
X109952380Y-81333333D01*
X109952380Y-81428571D01*
X109904761Y-81571428D01*
X109809523Y-81666666D01*
X109714285Y-81714285D01*
X109523809Y-81761904D01*
X109380952Y-81761904D01*
X109190476Y-81714285D01*
X109095238Y-81666666D01*
X109000000Y-81571428D01*
X108952380Y-81428571D01*
X108952380Y-81333333D01*
X109000000Y-81190476D01*
X109047619Y-81142857D01*
X109047619Y-80761904D02*
X109000000Y-80714285D01*
X108952380Y-80619047D01*
X108952380Y-80380952D01*
X109000000Y-80285714D01*
X109047619Y-80238095D01*
X109142857Y-80190476D01*
X109238095Y-80190476D01*
X109380952Y-80238095D01*
X109952380Y-80809523D01*
X109952380Y-80190476D01*
X109047619Y-79809523D02*
X109000000Y-79761904D01*
X108952380Y-79666666D01*
X108952380Y-79428571D01*
X109000000Y-79333333D01*
X109047619Y-79285714D01*
X109142857Y-79238095D01*
X109238095Y-79238095D01*
X109380952Y-79285714D01*
X109952380Y-79857142D01*
X109952380Y-79238095D01*
X109857142Y-55142857D02*
X109904761Y-55190476D01*
X109952380Y-55333333D01*
X109952380Y-55428571D01*
X109904761Y-55571428D01*
X109809523Y-55666666D01*
X109714285Y-55714285D01*
X109523809Y-55761904D01*
X109380952Y-55761904D01*
X109190476Y-55714285D01*
X109095238Y-55666666D01*
X109000000Y-55571428D01*
X108952380Y-55428571D01*
X108952380Y-55333333D01*
X109000000Y-55190476D01*
X109047619Y-55142857D01*
X109047619Y-54761904D02*
X109000000Y-54714285D01*
X108952380Y-54619047D01*
X108952380Y-54380952D01*
X109000000Y-54285714D01*
X109047619Y-54238095D01*
X109142857Y-54190476D01*
X109238095Y-54190476D01*
X109380952Y-54238095D01*
X109952380Y-54809523D01*
X109952380Y-54190476D01*
X108952380Y-53285714D02*
X108952380Y-53761904D01*
X109428571Y-53809523D01*
X109380952Y-53761904D01*
X109333333Y-53666666D01*
X109333333Y-53428571D01*
X109380952Y-53333333D01*
X109428571Y-53285714D01*
X109523809Y-53238095D01*
X109761904Y-53238095D01*
X109857142Y-53285714D01*
X109904761Y-53333333D01*
X109952380Y-53428571D01*
X109952380Y-53666666D01*
X109904761Y-53761904D01*
X109857142Y-53809523D01*
D11*
X94678571Y-73178571D02*
X94654761Y-73202380D01*
X94583333Y-73226190D01*
X94535714Y-73226190D01*
X94464285Y-73202380D01*
X94416666Y-73154761D01*
X94392857Y-73107142D01*
X94369047Y-73011904D01*
X94369047Y-72940476D01*
X94392857Y-72845238D01*
X94416666Y-72797619D01*
X94464285Y-72750000D01*
X94535714Y-72726190D01*
X94583333Y-72726190D01*
X94654761Y-72750000D01*
X94678571Y-72773809D01*
X94869047Y-72773809D02*
X94892857Y-72750000D01*
X94940476Y-72726190D01*
X95059523Y-72726190D01*
X95107142Y-72750000D01*
X95130952Y-72773809D01*
X95154761Y-72821428D01*
X95154761Y-72869047D01*
X95130952Y-72940476D01*
X94845238Y-73226190D01*
X95154761Y-73226190D01*
X95583333Y-72726190D02*
X95488095Y-72726190D01*
X95440476Y-72750000D01*
X95416666Y-72773809D01*
X95369047Y-72845238D01*
X95345238Y-72940476D01*
X95345238Y-73130952D01*
X95369047Y-73178571D01*
X95392857Y-73202380D01*
X95440476Y-73226190D01*
X95535714Y-73226190D01*
X95583333Y-73202380D01*
X95607142Y-73178571D01*
X95630952Y-73130952D01*
X95630952Y-73011904D01*
X95607142Y-72964285D01*
X95583333Y-72940476D01*
X95535714Y-72916666D01*
X95440476Y-72916666D01*
X95392857Y-72940476D01*
X95369047Y-72964285D01*
X95345238Y-73011904D01*
X94916666Y-53928571D02*
X94892857Y-53952380D01*
X94821428Y-53976190D01*
X94773809Y-53976190D01*
X94702380Y-53952380D01*
X94654761Y-53904761D01*
X94630952Y-53857142D01*
X94607142Y-53761904D01*
X94607142Y-53690476D01*
X94630952Y-53595238D01*
X94654761Y-53547619D01*
X94702380Y-53500000D01*
X94773809Y-53476190D01*
X94821428Y-53476190D01*
X94892857Y-53500000D01*
X94916666Y-53523809D01*
X95154761Y-53976190D02*
X95250000Y-53976190D01*
X95297619Y-53952380D01*
X95321428Y-53928571D01*
X95369047Y-53857142D01*
X95392857Y-53761904D01*
X95392857Y-53571428D01*
X95369047Y-53523809D01*
X95345238Y-53500000D01*
X95297619Y-53476190D01*
X95202380Y-53476190D01*
X95154761Y-53500000D01*
X95130952Y-53523809D01*
X95107142Y-53571428D01*
X95107142Y-53690476D01*
X95130952Y-53738095D01*
X95154761Y-53761904D01*
X95202380Y-53785714D01*
X95297619Y-53785714D01*
X95345238Y-53761904D01*
X95369047Y-53738095D01*
X95392857Y-53690476D01*
D10*
X71666666Y-76952380D02*
X71666666Y-77666666D01*
X71619047Y-77809523D01*
X71523809Y-77904761D01*
X71380952Y-77952380D01*
X71285714Y-77952380D01*
X72047619Y-76952380D02*
X72666666Y-76952380D01*
X72333333Y-77333333D01*
X72476190Y-77333333D01*
X72571428Y-77380952D01*
X72619047Y-77428571D01*
X72666666Y-77523809D01*
X72666666Y-77761904D01*
X72619047Y-77857142D01*
X72571428Y-77904761D01*
X72476190Y-77952380D01*
X72190476Y-77952380D01*
X72095238Y-77904761D01*
X72047619Y-77857142D01*
D15*
X79839285Y-44303571D02*
X79089285Y-44303571D01*
X79089285Y-44125000D01*
X79125000Y-44017857D01*
X79196428Y-43946428D01*
X79267857Y-43910714D01*
X79410714Y-43875000D01*
X79517857Y-43875000D01*
X79660714Y-43910714D01*
X79732142Y-43946428D01*
X79803571Y-44017857D01*
X79839285Y-44125000D01*
X79839285Y-44303571D01*
X79160714Y-43589285D02*
X79125000Y-43553571D01*
X79089285Y-43482142D01*
X79089285Y-43303571D01*
X79125000Y-43232142D01*
X79160714Y-43196428D01*
X79232142Y-43160714D01*
X79303571Y-43160714D01*
X79410714Y-43196428D01*
X79839285Y-43625000D01*
X79839285Y-43160714D01*
D11*
X106702380Y-48773809D02*
X106654761Y-48750000D01*
X106607142Y-48702380D01*
X106535714Y-48630952D01*
X106488095Y-48607142D01*
X106440476Y-48607142D01*
X106464285Y-48726190D02*
X106416666Y-48702380D01*
X106369047Y-48654761D01*
X106345238Y-48559523D01*
X106345238Y-48392857D01*
X106369047Y-48297619D01*
X106416666Y-48250000D01*
X106464285Y-48226190D01*
X106559523Y-48226190D01*
X106607142Y-48250000D01*
X106654761Y-48297619D01*
X106678571Y-48392857D01*
X106678571Y-48559523D01*
X106654761Y-48654761D01*
X106607142Y-48702380D01*
X106559523Y-48726190D01*
X106464285Y-48726190D01*
X107130952Y-48226190D02*
X106892857Y-48226190D01*
X106869047Y-48464285D01*
X106892857Y-48440476D01*
X106940476Y-48416666D01*
X107059523Y-48416666D01*
X107107142Y-48440476D01*
X107130952Y-48464285D01*
X107154761Y-48511904D01*
X107154761Y-48630952D01*
X107130952Y-48678571D01*
X107107142Y-48702380D01*
X107059523Y-48726190D01*
X106940476Y-48726190D01*
X106892857Y-48702380D01*
X106869047Y-48678571D01*
X106178571Y-50476190D02*
X106011904Y-50238095D01*
X105892857Y-50476190D02*
X105892857Y-49976190D01*
X106083333Y-49976190D01*
X106130952Y-50000000D01*
X106154761Y-50023809D01*
X106178571Y-50071428D01*
X106178571Y-50142857D01*
X106154761Y-50190476D01*
X106130952Y-50214285D01*
X106083333Y-50238095D01*
X105892857Y-50238095D01*
X106654761Y-50476190D02*
X106369047Y-50476190D01*
X106511904Y-50476190D02*
X106511904Y-49976190D01*
X106464285Y-50047619D01*
X106416666Y-50095238D01*
X106369047Y-50119047D01*
X106821428Y-49976190D02*
X107154761Y-49976190D01*
X106940476Y-50476190D01*
D10*
X66671428Y-68285952D02*
X66671428Y-67524047D01*
X67052380Y-67905000D02*
X66290476Y-67905000D01*
X66671428Y-62475952D02*
X66671428Y-61714047D01*
X78421428Y-68285952D02*
X78421428Y-67524047D01*
X78802380Y-67905000D02*
X78040476Y-67905000D01*
X78421428Y-62475952D02*
X78421428Y-61714047D01*
X131721428Y-55785952D02*
X131721428Y-55024047D01*
X131721428Y-49975952D02*
X131721428Y-49214047D01*
X132102380Y-49595000D02*
X131340476Y-49595000D01*
X143471428Y-55785952D02*
X143471428Y-55024047D01*
X143471428Y-49975952D02*
X143471428Y-49214047D01*
X143852380Y-49595000D02*
X143090476Y-49595000D01*
X143471428Y-62475952D02*
X143471428Y-61714047D01*
X143852380Y-62095000D02*
X143090476Y-62095000D01*
X143471428Y-68285952D02*
X143471428Y-67524047D01*
X131721428Y-62475952D02*
X131721428Y-61714047D01*
X132102380Y-62095000D02*
X131340476Y-62095000D01*
X131721428Y-68285952D02*
X131721428Y-67524047D01*
X131721428Y-80785952D02*
X131721428Y-80024047D01*
X131721428Y-74975952D02*
X131721428Y-74214047D01*
X132102380Y-74595000D02*
X131340476Y-74595000D01*
X143471428Y-80785952D02*
X143471428Y-80024047D01*
X143471428Y-74975952D02*
X143471428Y-74214047D01*
X143852380Y-74595000D02*
X143090476Y-74595000D01*
M02*
