G04 #@! TF.GenerationSoftware,KiCad,Pcbnew,(5.1.2-1)-1*
G04 #@! TF.CreationDate,2022-02-16T12:06:33-05:00*
G04 #@! TF.ProjectId,AmpClassD_Daugher,416d7043-6c61-4737-9344-5f4461756768,rev?*
G04 #@! TF.SameCoordinates,Original*
G04 #@! TF.FileFunction,Legend,Bot*
G04 #@! TF.FilePolarity,Positive*
%FSLAX46Y46*%
G04 Gerber Fmt 4.6, Leading zero omitted, Abs format (unit mm)*
G04 Created by KiCad (PCBNEW (5.1.2-1)-1) date 2022-02-16 12:06:33*
%MOMM*%
%LPD*%
G04 APERTURE LIST*
%ADD10C,0.150000*%
%ADD11C,0.100000*%
%ADD12C,0.010000*%
%ADD13C,0.120000*%
G04 APERTURE END LIST*
D10*
X116202380Y-60380952D02*
X116916666Y-60380952D01*
X117059523Y-60333333D01*
X117154761Y-60238095D01*
X117202380Y-60095238D01*
X117202380Y-60000000D01*
X117202380Y-61333333D02*
X117202380Y-60857142D01*
X116202380Y-60857142D01*
X117107142Y-62238095D02*
X117154761Y-62190476D01*
X117202380Y-62047619D01*
X117202380Y-61952380D01*
X117154761Y-61809523D01*
X117059523Y-61714285D01*
X116964285Y-61666666D01*
X116773809Y-61619047D01*
X116630952Y-61619047D01*
X116440476Y-61666666D01*
X116345238Y-61714285D01*
X116250000Y-61809523D01*
X116202380Y-61952380D01*
X116202380Y-62047619D01*
X116250000Y-62190476D01*
X116297619Y-62238095D01*
X116202380Y-62952380D02*
X116916666Y-62952380D01*
X117059523Y-62904761D01*
X117154761Y-62809523D01*
X117202380Y-62666666D01*
X117202380Y-62571428D01*
X117202380Y-63904761D02*
X117202380Y-63428571D01*
X116202380Y-63428571D01*
X117107142Y-64809523D02*
X117154761Y-64761904D01*
X117202380Y-64619047D01*
X117202380Y-64523809D01*
X117154761Y-64380952D01*
X117059523Y-64285714D01*
X116964285Y-64238095D01*
X116773809Y-64190476D01*
X116630952Y-64190476D01*
X116440476Y-64238095D01*
X116345238Y-64285714D01*
X116250000Y-64380952D01*
X116202380Y-64523809D01*
X116202380Y-64619047D01*
X116250000Y-64761904D01*
X116297619Y-64809523D01*
X116202380Y-65523809D02*
X116916666Y-65523809D01*
X117059523Y-65476190D01*
X117154761Y-65380952D01*
X117202380Y-65238095D01*
X117202380Y-65142857D01*
X117202380Y-66476190D02*
X117202380Y-66000000D01*
X116202380Y-66000000D01*
X117107142Y-67380952D02*
X117154761Y-67333333D01*
X117202380Y-67190476D01*
X117202380Y-67095238D01*
X117154761Y-66952380D01*
X117059523Y-66857142D01*
X116964285Y-66809523D01*
X116773809Y-66761904D01*
X116630952Y-66761904D01*
X116440476Y-66809523D01*
X116345238Y-66857142D01*
X116250000Y-66952380D01*
X116202380Y-67095238D01*
X116202380Y-67190476D01*
X116250000Y-67333333D01*
X116297619Y-67380952D01*
X116202380Y-68095238D02*
X116916666Y-68095238D01*
X117059523Y-68047619D01*
X117154761Y-67952380D01*
X117202380Y-67809523D01*
X117202380Y-67714285D01*
X117202380Y-69047619D02*
X117202380Y-68571428D01*
X116202380Y-68571428D01*
X117107142Y-69952380D02*
X117154761Y-69904761D01*
X117202380Y-69761904D01*
X117202380Y-69666666D01*
X117154761Y-69523809D01*
X117059523Y-69428571D01*
X116964285Y-69380952D01*
X116773809Y-69333333D01*
X116630952Y-69333333D01*
X116440476Y-69380952D01*
X116345238Y-69428571D01*
X116250000Y-69523809D01*
X116202380Y-69666666D01*
X116202380Y-69761904D01*
X116250000Y-69904761D01*
X116297619Y-69952380D01*
X134702380Y-89690476D02*
X134702380Y-89214285D01*
X133702380Y-89214285D01*
X134321428Y-90023809D02*
X134321428Y-90785714D01*
X134702380Y-90404761D02*
X133940476Y-90404761D01*
X134702380Y-39690476D02*
X134226190Y-39357142D01*
X134702380Y-39119047D02*
X133702380Y-39119047D01*
X133702380Y-39500000D01*
X133750000Y-39595238D01*
X133797619Y-39642857D01*
X133892857Y-39690476D01*
X134035714Y-39690476D01*
X134130952Y-39642857D01*
X134178571Y-39595238D01*
X134226190Y-39500000D01*
X134226190Y-39119047D01*
X134321428Y-40119047D02*
X134321428Y-40880952D01*
X134702380Y-40500000D02*
X133940476Y-40500000D01*
X75547619Y-41333333D02*
X76547619Y-41333333D01*
X76547619Y-40952380D01*
X76500000Y-40857142D01*
X76452380Y-40809523D01*
X76357142Y-40761904D01*
X76214285Y-40761904D01*
X76119047Y-40809523D01*
X76071428Y-40857142D01*
X76023809Y-40952380D01*
X76023809Y-41333333D01*
X76547619Y-40428571D02*
X75547619Y-40190476D01*
X76261904Y-40000000D01*
X75547619Y-39809523D01*
X76547619Y-39571428D01*
X75547619Y-38619047D02*
X76023809Y-38952380D01*
X75547619Y-39190476D02*
X76547619Y-39190476D01*
X76547619Y-38809523D01*
X76500000Y-38714285D01*
X76452380Y-38666666D01*
X76357142Y-38619047D01*
X76214285Y-38619047D01*
X76119047Y-38666666D01*
X76071428Y-38714285D01*
X76023809Y-38809523D01*
X76023809Y-39190476D01*
X76500000Y-90761904D02*
X76547619Y-90857142D01*
X76547619Y-91000000D01*
X76500000Y-91142857D01*
X76404761Y-91238095D01*
X76309523Y-91285714D01*
X76119047Y-91333333D01*
X75976190Y-91333333D01*
X75785714Y-91285714D01*
X75690476Y-91238095D01*
X75595238Y-91142857D01*
X75547619Y-91000000D01*
X75547619Y-90904761D01*
X75595238Y-90761904D01*
X75642857Y-90714285D01*
X75976190Y-90714285D01*
X75976190Y-90904761D01*
X75547619Y-90285714D02*
X76547619Y-90285714D01*
X75547619Y-89714285D01*
X76547619Y-89714285D01*
X75547619Y-89238095D02*
X76547619Y-89238095D01*
X76547619Y-89000000D01*
X76500000Y-88857142D01*
X76404761Y-88761904D01*
X76309523Y-88714285D01*
X76119047Y-88666666D01*
X75976190Y-88666666D01*
X75785714Y-88714285D01*
X75690476Y-88761904D01*
X75595238Y-88857142D01*
X75547619Y-89000000D01*
X75547619Y-89238095D01*
D11*
X84830238Y-48154047D02*
X84613571Y-48804047D01*
X84396904Y-48154047D01*
X83808809Y-48742142D02*
X83839762Y-48773095D01*
X83932619Y-48804047D01*
X83994523Y-48804047D01*
X84087381Y-48773095D01*
X84149285Y-48711190D01*
X84180238Y-48649285D01*
X84211190Y-48525476D01*
X84211190Y-48432619D01*
X84180238Y-48308809D01*
X84149285Y-48246904D01*
X84087381Y-48185000D01*
X83994523Y-48154047D01*
X83932619Y-48154047D01*
X83839762Y-48185000D01*
X83808809Y-48215952D01*
X83158809Y-48742142D02*
X83189762Y-48773095D01*
X83282619Y-48804047D01*
X83344523Y-48804047D01*
X83437381Y-48773095D01*
X83499285Y-48711190D01*
X83530238Y-48649285D01*
X83561190Y-48525476D01*
X83561190Y-48432619D01*
X83530238Y-48308809D01*
X83499285Y-48246904D01*
X83437381Y-48185000D01*
X83344523Y-48154047D01*
X83282619Y-48154047D01*
X83189762Y-48185000D01*
X83158809Y-48215952D01*
X84830238Y-50694047D02*
X84613571Y-51344047D01*
X84396904Y-50694047D01*
X83808809Y-51282142D02*
X83839762Y-51313095D01*
X83932619Y-51344047D01*
X83994523Y-51344047D01*
X84087381Y-51313095D01*
X84149285Y-51251190D01*
X84180238Y-51189285D01*
X84211190Y-51065476D01*
X84211190Y-50972619D01*
X84180238Y-50848809D01*
X84149285Y-50786904D01*
X84087381Y-50725000D01*
X83994523Y-50694047D01*
X83932619Y-50694047D01*
X83839762Y-50725000D01*
X83808809Y-50755952D01*
X83158809Y-51282142D02*
X83189762Y-51313095D01*
X83282619Y-51344047D01*
X83344523Y-51344047D01*
X83437381Y-51313095D01*
X83499285Y-51251190D01*
X83530238Y-51189285D01*
X83561190Y-51065476D01*
X83561190Y-50972619D01*
X83530238Y-50848809D01*
X83499285Y-50786904D01*
X83437381Y-50725000D01*
X83344523Y-50694047D01*
X83282619Y-50694047D01*
X83189762Y-50725000D01*
X83158809Y-50755952D01*
X84830238Y-53234047D02*
X84613571Y-53884047D01*
X84396904Y-53234047D01*
X83808809Y-53822142D02*
X83839762Y-53853095D01*
X83932619Y-53884047D01*
X83994523Y-53884047D01*
X84087381Y-53853095D01*
X84149285Y-53791190D01*
X84180238Y-53729285D01*
X84211190Y-53605476D01*
X84211190Y-53512619D01*
X84180238Y-53388809D01*
X84149285Y-53326904D01*
X84087381Y-53265000D01*
X83994523Y-53234047D01*
X83932619Y-53234047D01*
X83839762Y-53265000D01*
X83808809Y-53295952D01*
X83158809Y-53822142D02*
X83189762Y-53853095D01*
X83282619Y-53884047D01*
X83344523Y-53884047D01*
X83437381Y-53853095D01*
X83499285Y-53791190D01*
X83530238Y-53729285D01*
X83561190Y-53605476D01*
X83561190Y-53512619D01*
X83530238Y-53388809D01*
X83499285Y-53326904D01*
X83437381Y-53265000D01*
X83344523Y-53234047D01*
X83282619Y-53234047D01*
X83189762Y-53265000D01*
X83158809Y-53295952D01*
X84520713Y-55805000D02*
X84582618Y-55774047D01*
X84675475Y-55774047D01*
X84768332Y-55805000D01*
X84830237Y-55866904D01*
X84861190Y-55928809D01*
X84892142Y-56052619D01*
X84892142Y-56145476D01*
X84861190Y-56269285D01*
X84830237Y-56331190D01*
X84768332Y-56393095D01*
X84675475Y-56424047D01*
X84613571Y-56424047D01*
X84520713Y-56393095D01*
X84489761Y-56362142D01*
X84489761Y-56145476D01*
X84613571Y-56145476D01*
X84211190Y-56424047D02*
X84211190Y-55774047D01*
X83839761Y-56424047D01*
X83839761Y-55774047D01*
X83530237Y-56424047D02*
X83530237Y-55774047D01*
X83375475Y-55774047D01*
X83282618Y-55805000D01*
X83220713Y-55866904D01*
X83189761Y-55928809D01*
X83158809Y-56052619D01*
X83158809Y-56145476D01*
X83189761Y-56269285D01*
X83220713Y-56331190D01*
X83282618Y-56393095D01*
X83375475Y-56424047D01*
X83530237Y-56424047D01*
X84149285Y-58964047D02*
X84365952Y-58654523D01*
X84520714Y-58964047D02*
X84520714Y-58314047D01*
X84273095Y-58314047D01*
X84211190Y-58345000D01*
X84180237Y-58375952D01*
X84149285Y-58437857D01*
X84149285Y-58530714D01*
X84180237Y-58592619D01*
X84211190Y-58623571D01*
X84273095Y-58654523D01*
X84520714Y-58654523D01*
X83870714Y-58964047D02*
X83870714Y-58314047D01*
X83561190Y-58964047D02*
X83561190Y-58314047D01*
X83189761Y-58964047D01*
X83189761Y-58314047D01*
X84087381Y-61504047D02*
X84396905Y-61504047D01*
X84396905Y-60854047D01*
X83870714Y-61504047D02*
X83870714Y-60854047D01*
X83561190Y-61504047D02*
X83561190Y-60854047D01*
X83189762Y-61504047D01*
X83189762Y-60854047D01*
X84520713Y-63425000D02*
X84582618Y-63394047D01*
X84675475Y-63394047D01*
X84768332Y-63425000D01*
X84830237Y-63486904D01*
X84861190Y-63548809D01*
X84892142Y-63672619D01*
X84892142Y-63765476D01*
X84861190Y-63889285D01*
X84830237Y-63951190D01*
X84768332Y-64013095D01*
X84675475Y-64044047D01*
X84613571Y-64044047D01*
X84520713Y-64013095D01*
X84489761Y-63982142D01*
X84489761Y-63765476D01*
X84613571Y-63765476D01*
X84211190Y-64044047D02*
X84211190Y-63394047D01*
X83839761Y-64044047D01*
X83839761Y-63394047D01*
X83530237Y-64044047D02*
X83530237Y-63394047D01*
X83375475Y-63394047D01*
X83282618Y-63425000D01*
X83220713Y-63486904D01*
X83189761Y-63548809D01*
X83158809Y-63672619D01*
X83158809Y-63765476D01*
X83189761Y-63889285D01*
X83220713Y-63951190D01*
X83282618Y-64013095D01*
X83375475Y-64044047D01*
X83530237Y-64044047D01*
X85480238Y-66243571D02*
X85696905Y-66243571D01*
X85696905Y-66584047D02*
X85696905Y-65934047D01*
X85387381Y-65934047D01*
X85170714Y-66398333D02*
X84861190Y-66398333D01*
X85232619Y-66584047D02*
X85015952Y-65934047D01*
X84799286Y-66584047D01*
X84582619Y-65934047D02*
X84582619Y-66460238D01*
X84551667Y-66522142D01*
X84520714Y-66553095D01*
X84458809Y-66584047D01*
X84335000Y-66584047D01*
X84273095Y-66553095D01*
X84242143Y-66522142D01*
X84211190Y-66460238D01*
X84211190Y-65934047D01*
X83592143Y-66584047D02*
X83901667Y-66584047D01*
X83901667Y-65934047D01*
X83468333Y-65934047D02*
X83096905Y-65934047D01*
X83282619Y-66584047D02*
X83282619Y-65934047D01*
X85108809Y-69124047D02*
X85108809Y-68474047D01*
X84861190Y-68474047D01*
X84799285Y-68505000D01*
X84768332Y-68535952D01*
X84737380Y-68597857D01*
X84737380Y-68690714D01*
X84768332Y-68752619D01*
X84799285Y-68783571D01*
X84861190Y-68814523D01*
X85108809Y-68814523D01*
X84149285Y-69124047D02*
X84458809Y-69124047D01*
X84458809Y-68474047D01*
X83932618Y-69124047D02*
X83932618Y-68474047D01*
X83623094Y-69124047D02*
X83623094Y-68474047D01*
X83406428Y-68938333D01*
X83189761Y-68474047D01*
X83189761Y-69124047D01*
X85046904Y-71045000D02*
X85108809Y-71014047D01*
X85201666Y-71014047D01*
X85294523Y-71045000D01*
X85356428Y-71106904D01*
X85387381Y-71168809D01*
X85418333Y-71292619D01*
X85418333Y-71385476D01*
X85387381Y-71509285D01*
X85356428Y-71571190D01*
X85294523Y-71633095D01*
X85201666Y-71664047D01*
X85139762Y-71664047D01*
X85046904Y-71633095D01*
X85015952Y-71602142D01*
X85015952Y-71385476D01*
X85139762Y-71385476D01*
X84830238Y-71014047D02*
X84613571Y-71664047D01*
X84396904Y-71014047D01*
X84180238Y-71664047D02*
X84180238Y-71014047D01*
X84025476Y-71014047D01*
X83932619Y-71045000D01*
X83870714Y-71106904D01*
X83839762Y-71168809D01*
X83808809Y-71292619D01*
X83808809Y-71385476D01*
X83839762Y-71509285D01*
X83870714Y-71571190D01*
X83932619Y-71633095D01*
X84025476Y-71664047D01*
X84180238Y-71664047D01*
X83530238Y-71664047D02*
X83530238Y-71014047D01*
X83375476Y-71014047D01*
X83282619Y-71045000D01*
X83220714Y-71106904D01*
X83189762Y-71168809D01*
X83158809Y-71292619D01*
X83158809Y-71385476D01*
X83189762Y-71509285D01*
X83220714Y-71571190D01*
X83282619Y-71633095D01*
X83375476Y-71664047D01*
X83530238Y-71664047D01*
X84737380Y-73585000D02*
X84799285Y-73554047D01*
X84892142Y-73554047D01*
X84984999Y-73585000D01*
X85046904Y-73646904D01*
X85077857Y-73708809D01*
X85108809Y-73832619D01*
X85108809Y-73925476D01*
X85077857Y-74049285D01*
X85046904Y-74111190D01*
X84984999Y-74173095D01*
X84892142Y-74204047D01*
X84830238Y-74204047D01*
X84737380Y-74173095D01*
X84706428Y-74142142D01*
X84706428Y-73925476D01*
X84830238Y-73925476D01*
X84458809Y-74018333D02*
X84149285Y-74018333D01*
X84520714Y-74204047D02*
X84304047Y-73554047D01*
X84087380Y-74204047D01*
X83870714Y-74204047D02*
X83870714Y-73554047D01*
X83561190Y-74204047D02*
X83561190Y-73554047D01*
X83189761Y-74204047D01*
X83189761Y-73554047D01*
X85387381Y-76744047D02*
X85387381Y-76094047D01*
X85170714Y-76558333D01*
X84954047Y-76094047D01*
X84954047Y-76744047D01*
X84644523Y-76094047D02*
X84644523Y-76620238D01*
X84613571Y-76682142D01*
X84582619Y-76713095D01*
X84520714Y-76744047D01*
X84396904Y-76744047D01*
X84335000Y-76713095D01*
X84304047Y-76682142D01*
X84273095Y-76620238D01*
X84273095Y-76094047D01*
X84056428Y-76094047D02*
X83685000Y-76094047D01*
X83870714Y-76744047D02*
X83870714Y-76094047D01*
X83468333Y-76403571D02*
X83251666Y-76403571D01*
X83158809Y-76744047D02*
X83468333Y-76744047D01*
X83468333Y-76094047D01*
X83158809Y-76094047D01*
X84520713Y-78665000D02*
X84582618Y-78634047D01*
X84675475Y-78634047D01*
X84768332Y-78665000D01*
X84830237Y-78726904D01*
X84861190Y-78788809D01*
X84892142Y-78912619D01*
X84892142Y-79005476D01*
X84861190Y-79129285D01*
X84830237Y-79191190D01*
X84768332Y-79253095D01*
X84675475Y-79284047D01*
X84613571Y-79284047D01*
X84520713Y-79253095D01*
X84489761Y-79222142D01*
X84489761Y-79005476D01*
X84613571Y-79005476D01*
X84211190Y-79284047D02*
X84211190Y-78634047D01*
X83839761Y-79284047D01*
X83839761Y-78634047D01*
X83530237Y-79284047D02*
X83530237Y-78634047D01*
X83375475Y-78634047D01*
X83282618Y-78665000D01*
X83220713Y-78726904D01*
X83189761Y-78788809D01*
X83158809Y-78912619D01*
X83158809Y-79005476D01*
X83189761Y-79129285D01*
X83220713Y-79191190D01*
X83282618Y-79253095D01*
X83375475Y-79284047D01*
X83530237Y-79284047D01*
X85418333Y-81793095D02*
X85325476Y-81824047D01*
X85170714Y-81824047D01*
X85108809Y-81793095D01*
X85077857Y-81762142D01*
X85046904Y-81700238D01*
X85046904Y-81638333D01*
X85077857Y-81576428D01*
X85108809Y-81545476D01*
X85170714Y-81514523D01*
X85294523Y-81483571D01*
X85356428Y-81452619D01*
X85387381Y-81421666D01*
X85418333Y-81359761D01*
X85418333Y-81297857D01*
X85387381Y-81235952D01*
X85356428Y-81205000D01*
X85294523Y-81174047D01*
X85139762Y-81174047D01*
X85046904Y-81205000D01*
X84644523Y-81514523D02*
X84644523Y-81824047D01*
X84861190Y-81174047D02*
X84644523Y-81514523D01*
X84427857Y-81174047D01*
X84211190Y-81824047D02*
X84211190Y-81174047D01*
X83839762Y-81824047D01*
X83839762Y-81174047D01*
X83158809Y-81762142D02*
X83189762Y-81793095D01*
X83282619Y-81824047D01*
X83344523Y-81824047D01*
X83437381Y-81793095D01*
X83499285Y-81731190D01*
X83530238Y-81669285D01*
X83561190Y-81545476D01*
X83561190Y-81452619D01*
X83530238Y-81328809D01*
X83499285Y-81266904D01*
X83437381Y-81205000D01*
X83344523Y-81174047D01*
X83282619Y-81174047D01*
X83189762Y-81205000D01*
X83158809Y-81235952D01*
D10*
X65797619Y-78833333D02*
X65797619Y-79309523D01*
X66797619Y-79309523D01*
X65797619Y-77928571D02*
X66273809Y-78261904D01*
X65797619Y-78500000D02*
X66797619Y-78500000D01*
X66797619Y-78119047D01*
X66750000Y-78023809D01*
X66702380Y-77976190D01*
X66607142Y-77928571D01*
X66464285Y-77928571D01*
X66369047Y-77976190D01*
X66321428Y-78023809D01*
X66273809Y-78119047D01*
X66273809Y-78500000D01*
X65797619Y-76738095D02*
X66797619Y-76738095D01*
X65797619Y-76261904D02*
X66797619Y-76261904D01*
X65797619Y-75690476D01*
X66797619Y-75690476D01*
X65797619Y-53833333D02*
X66797619Y-53833333D01*
X66797619Y-53452380D01*
X66750000Y-53357142D01*
X66702380Y-53309523D01*
X66607142Y-53261904D01*
X66464285Y-53261904D01*
X66369047Y-53309523D01*
X66321428Y-53357142D01*
X66273809Y-53452380D01*
X66273809Y-53833333D01*
X66797619Y-52928571D02*
X65797619Y-52690476D01*
X66511904Y-52500000D01*
X65797619Y-52309523D01*
X66797619Y-52071428D01*
X65797619Y-51119047D02*
X66273809Y-51452380D01*
X65797619Y-51690476D02*
X66797619Y-51690476D01*
X66797619Y-51309523D01*
X66750000Y-51214285D01*
X66702380Y-51166666D01*
X66607142Y-51119047D01*
X66464285Y-51119047D01*
X66369047Y-51166666D01*
X66321428Y-51214285D01*
X66273809Y-51309523D01*
X66273809Y-51690476D01*
X105282142Y-51452380D02*
X105329761Y-51404761D01*
X105377380Y-51261904D01*
X105377380Y-51166666D01*
X105329761Y-51023809D01*
X105234523Y-50928571D01*
X105139285Y-50880952D01*
X104948809Y-50833333D01*
X104805952Y-50833333D01*
X104615476Y-50880952D01*
X104520238Y-50928571D01*
X104425000Y-51023809D01*
X104377380Y-51166666D01*
X104377380Y-51261904D01*
X104425000Y-51404761D01*
X104472619Y-51452380D01*
X105377380Y-52357142D02*
X105377380Y-51880952D01*
X104377380Y-51880952D01*
X105091666Y-52642857D02*
X105091666Y-53119047D01*
X105377380Y-52547619D02*
X104377380Y-52880952D01*
X105377380Y-53214285D01*
X105329761Y-53500000D02*
X105377380Y-53642857D01*
X105377380Y-53880952D01*
X105329761Y-53976190D01*
X105282142Y-54023809D01*
X105186904Y-54071428D01*
X105091666Y-54071428D01*
X104996428Y-54023809D01*
X104948809Y-53976190D01*
X104901190Y-53880952D01*
X104853571Y-53690476D01*
X104805952Y-53595238D01*
X104758333Y-53547619D01*
X104663095Y-53500000D01*
X104567857Y-53500000D01*
X104472619Y-53547619D01*
X104425000Y-53595238D01*
X104377380Y-53690476D01*
X104377380Y-53928571D01*
X104425000Y-54071428D01*
X105329761Y-54452380D02*
X105377380Y-54595238D01*
X105377380Y-54833333D01*
X105329761Y-54928571D01*
X105282142Y-54976190D01*
X105186904Y-55023809D01*
X105091666Y-55023809D01*
X104996428Y-54976190D01*
X104948809Y-54928571D01*
X104901190Y-54833333D01*
X104853571Y-54642857D01*
X104805952Y-54547619D01*
X104758333Y-54500000D01*
X104663095Y-54452380D01*
X104567857Y-54452380D01*
X104472619Y-54500000D01*
X104425000Y-54547619D01*
X104377380Y-54642857D01*
X104377380Y-54880952D01*
X104425000Y-55023809D01*
X105377380Y-56214285D02*
X104377380Y-56214285D01*
X104377380Y-56452380D01*
X104425000Y-56595238D01*
X104520238Y-56690476D01*
X104615476Y-56738095D01*
X104805952Y-56785714D01*
X104948809Y-56785714D01*
X105139285Y-56738095D01*
X105234523Y-56690476D01*
X105329761Y-56595238D01*
X105377380Y-56452380D01*
X105377380Y-56214285D01*
X105091666Y-57928571D02*
X105091666Y-58404761D01*
X105377380Y-57833333D02*
X104377380Y-58166666D01*
X105377380Y-58500000D01*
X105377380Y-58833333D02*
X104377380Y-58833333D01*
X105091666Y-59166666D01*
X104377380Y-59500000D01*
X105377380Y-59500000D01*
X105377380Y-59976190D02*
X104377380Y-59976190D01*
X104377380Y-60357142D01*
X104425000Y-60452380D01*
X104472619Y-60500000D01*
X104567857Y-60547619D01*
X104710714Y-60547619D01*
X104805952Y-60500000D01*
X104853571Y-60452380D01*
X104901190Y-60357142D01*
X104901190Y-59976190D01*
X105377380Y-61452380D02*
X105377380Y-60976190D01*
X104377380Y-60976190D01*
X105377380Y-61785714D02*
X104377380Y-61785714D01*
X104853571Y-62595238D02*
X104853571Y-62261904D01*
X105377380Y-62261904D02*
X104377380Y-62261904D01*
X104377380Y-62738095D01*
X105377380Y-63119047D02*
X104377380Y-63119047D01*
X104853571Y-63595238D02*
X104853571Y-63928571D01*
X105377380Y-64071428D02*
X105377380Y-63595238D01*
X104377380Y-63595238D01*
X104377380Y-64071428D01*
X105377380Y-65071428D02*
X104901190Y-64738095D01*
X105377380Y-64500000D02*
X104377380Y-64500000D01*
X104377380Y-64880952D01*
X104425000Y-64976190D01*
X104472619Y-65023809D01*
X104567857Y-65071428D01*
X104710714Y-65071428D01*
X104805952Y-65023809D01*
X104853571Y-64976190D01*
X104901190Y-64880952D01*
X104901190Y-64500000D01*
X104377380Y-66119047D02*
X105377380Y-66452380D01*
X104377380Y-66785714D01*
X104377380Y-67309523D02*
X104377380Y-67404761D01*
X104425000Y-67500000D01*
X104472619Y-67547619D01*
X104567857Y-67595238D01*
X104758333Y-67642857D01*
X104996428Y-67642857D01*
X105186904Y-67595238D01*
X105282142Y-67547619D01*
X105329761Y-67500000D01*
X105377380Y-67404761D01*
X105377380Y-67309523D01*
X105329761Y-67214285D01*
X105282142Y-67166666D01*
X105186904Y-67119047D01*
X104996428Y-67071428D01*
X104758333Y-67071428D01*
X104567857Y-67119047D01*
X104472619Y-67166666D01*
X104425000Y-67214285D01*
X104377380Y-67309523D01*
X105282142Y-68071428D02*
X105329761Y-68119047D01*
X105377380Y-68071428D01*
X105329761Y-68023809D01*
X105282142Y-68071428D01*
X105377380Y-68071428D01*
X105377380Y-69071428D02*
X105377380Y-68500000D01*
X105377380Y-68785714D02*
X104377380Y-68785714D01*
X104520238Y-68690476D01*
X104615476Y-68595238D01*
X104663095Y-68500000D01*
X104996428Y-70261904D02*
X104996428Y-71023809D01*
X104853571Y-72595238D02*
X104853571Y-72261904D01*
X105377380Y-72261904D02*
X104377380Y-72261904D01*
X104377380Y-72738095D01*
X104853571Y-73119047D02*
X104853571Y-73452380D01*
X105377380Y-73595238D02*
X105377380Y-73119047D01*
X104377380Y-73119047D01*
X104377380Y-73595238D01*
X104853571Y-74357142D02*
X104901190Y-74500000D01*
X104948809Y-74547619D01*
X105044047Y-74595238D01*
X105186904Y-74595238D01*
X105282142Y-74547619D01*
X105329761Y-74500000D01*
X105377380Y-74404761D01*
X105377380Y-74023809D01*
X104377380Y-74023809D01*
X104377380Y-74357142D01*
X104425000Y-74452380D01*
X104472619Y-74500000D01*
X104567857Y-74547619D01*
X104663095Y-74547619D01*
X104758333Y-74500000D01*
X104805952Y-74452380D01*
X104853571Y-74357142D01*
X104853571Y-74023809D01*
X104472619Y-75738095D02*
X104425000Y-75785714D01*
X104377380Y-75880952D01*
X104377380Y-76119047D01*
X104425000Y-76214285D01*
X104472619Y-76261904D01*
X104567857Y-76309523D01*
X104663095Y-76309523D01*
X104805952Y-76261904D01*
X105377380Y-75690476D01*
X105377380Y-76309523D01*
X104377380Y-76928571D02*
X104377380Y-77023809D01*
X104425000Y-77119047D01*
X104472619Y-77166666D01*
X104567857Y-77214285D01*
X104758333Y-77261904D01*
X104996428Y-77261904D01*
X105186904Y-77214285D01*
X105282142Y-77166666D01*
X105329761Y-77119047D01*
X105377380Y-77023809D01*
X105377380Y-76928571D01*
X105329761Y-76833333D01*
X105282142Y-76785714D01*
X105186904Y-76738095D01*
X104996428Y-76690476D01*
X104758333Y-76690476D01*
X104567857Y-76738095D01*
X104472619Y-76785714D01*
X104425000Y-76833333D01*
X104377380Y-76928571D01*
X104472619Y-77642857D02*
X104425000Y-77690476D01*
X104377380Y-77785714D01*
X104377380Y-78023809D01*
X104425000Y-78119047D01*
X104472619Y-78166666D01*
X104567857Y-78214285D01*
X104663095Y-78214285D01*
X104805952Y-78166666D01*
X105377380Y-77595238D01*
X105377380Y-78214285D01*
X104472619Y-78595238D02*
X104425000Y-78642857D01*
X104377380Y-78738095D01*
X104377380Y-78976190D01*
X104425000Y-79071428D01*
X104472619Y-79119047D01*
X104567857Y-79166666D01*
X104663095Y-79166666D01*
X104805952Y-79119047D01*
X105377380Y-78547619D01*
X105377380Y-79166666D01*
X106503571Y-52238095D02*
X106503571Y-52571428D01*
X107027380Y-52714285D02*
X107027380Y-52238095D01*
X106027380Y-52238095D01*
X106027380Y-52714285D01*
X106932142Y-53142857D02*
X106979761Y-53190476D01*
X107027380Y-53142857D01*
X106979761Y-53095238D01*
X106932142Y-53142857D01*
X107027380Y-53142857D01*
X107027380Y-54380952D02*
X106027380Y-54380952D01*
X106027380Y-54761904D01*
X106075000Y-54857142D01*
X106122619Y-54904761D01*
X106217857Y-54952380D01*
X106360714Y-54952380D01*
X106455952Y-54904761D01*
X106503571Y-54857142D01*
X106551190Y-54761904D01*
X106551190Y-54380952D01*
X106741666Y-55333333D02*
X106741666Y-55809523D01*
X107027380Y-55238095D02*
X106027380Y-55571428D01*
X107027380Y-55904761D01*
X107027380Y-56714285D02*
X107027380Y-56238095D01*
X106027380Y-56238095D01*
X106741666Y-57000000D02*
X106741666Y-57476190D01*
X107027380Y-56904761D02*
X106027380Y-57238095D01*
X107027380Y-57571428D01*
X107027380Y-57904761D02*
X106027380Y-57904761D01*
X107027380Y-58380952D02*
X106027380Y-58380952D01*
X106741666Y-58714285D01*
X106027380Y-59047619D01*
X107027380Y-59047619D01*
X106741666Y-59476190D02*
X106741666Y-59952380D01*
X107027380Y-59380952D02*
X106027380Y-59714285D01*
X107027380Y-60047619D01*
X106646428Y-61142857D02*
X106646428Y-61904761D01*
X107027380Y-63142857D02*
X106027380Y-63142857D01*
X106503571Y-63142857D02*
X106503571Y-63714285D01*
X107027380Y-63714285D02*
X106027380Y-63714285D01*
X106741666Y-64142857D02*
X106741666Y-64619047D01*
X107027380Y-64047619D02*
X106027380Y-64380952D01*
X107027380Y-64714285D01*
X107027380Y-65047619D02*
X106027380Y-65047619D01*
X106741666Y-65380952D01*
X106027380Y-65714285D01*
X107027380Y-65714285D01*
X107027380Y-66190476D02*
X106027380Y-66190476D01*
X106741666Y-66523809D01*
X106027380Y-66857142D01*
X107027380Y-66857142D01*
X106503571Y-67333333D02*
X106503571Y-67666666D01*
X107027380Y-67809523D02*
X107027380Y-67333333D01*
X106027380Y-67333333D01*
X106027380Y-67809523D01*
X107027380Y-68809523D02*
X106551190Y-68476190D01*
X107027380Y-68238095D02*
X106027380Y-68238095D01*
X106027380Y-68619047D01*
X106075000Y-68714285D01*
X106122619Y-68761904D01*
X106217857Y-68809523D01*
X106360714Y-68809523D01*
X106455952Y-68761904D01*
X106503571Y-68714285D01*
X106551190Y-68619047D01*
X106551190Y-68238095D01*
X107027380Y-69238095D02*
X106027380Y-69238095D01*
X106503571Y-69238095D02*
X106503571Y-69809523D01*
X107027380Y-69809523D02*
X106027380Y-69809523D01*
X106503571Y-70285714D02*
X106503571Y-70619047D01*
X107027380Y-70761904D02*
X107027380Y-70285714D01*
X106027380Y-70285714D01*
X106027380Y-70761904D01*
X106741666Y-71142857D02*
X106741666Y-71619047D01*
X107027380Y-71047619D02*
X106027380Y-71380952D01*
X107027380Y-71714285D01*
X107027380Y-72047619D02*
X106027380Y-72047619D01*
X106027380Y-72285714D01*
X106075000Y-72428571D01*
X106170238Y-72523809D01*
X106265476Y-72571428D01*
X106455952Y-72619047D01*
X106598809Y-72619047D01*
X106789285Y-72571428D01*
X106884523Y-72523809D01*
X106979761Y-72428571D01*
X107027380Y-72285714D01*
X107027380Y-72047619D01*
X106741666Y-73761904D02*
X106741666Y-74238095D01*
X107027380Y-73666666D02*
X106027380Y-74000000D01*
X107027380Y-74333333D01*
X106027380Y-74666666D02*
X106836904Y-74666666D01*
X106932142Y-74714285D01*
X106979761Y-74761904D01*
X107027380Y-74857142D01*
X107027380Y-75047619D01*
X106979761Y-75142857D01*
X106932142Y-75190476D01*
X106836904Y-75238095D01*
X106027380Y-75238095D01*
X107027380Y-75714285D02*
X106027380Y-75714285D01*
X106027380Y-75952380D01*
X106075000Y-76095238D01*
X106170238Y-76190476D01*
X106265476Y-76238095D01*
X106455952Y-76285714D01*
X106598809Y-76285714D01*
X106789285Y-76238095D01*
X106884523Y-76190476D01*
X106979761Y-76095238D01*
X107027380Y-75952380D01*
X107027380Y-75714285D01*
X107027380Y-76714285D02*
X106027380Y-76714285D01*
X106027380Y-77380952D02*
X106027380Y-77571428D01*
X106075000Y-77666666D01*
X106170238Y-77761904D01*
X106360714Y-77809523D01*
X106694047Y-77809523D01*
X106884523Y-77761904D01*
X106979761Y-77666666D01*
X107027380Y-77571428D01*
X107027380Y-77380952D01*
X106979761Y-77285714D01*
X106884523Y-77190476D01*
X106694047Y-77142857D01*
X106360714Y-77142857D01*
X106170238Y-77190476D01*
X106075000Y-77285714D01*
X106027380Y-77380952D01*
X125964285Y-80333333D02*
X127392857Y-80333333D01*
X126297619Y-76857142D02*
X126297619Y-77333333D01*
X127297619Y-77333333D01*
X126678571Y-76523809D02*
X126678571Y-75761904D01*
X125964285Y-72761904D02*
X127392857Y-72761904D01*
X126297619Y-69285714D02*
X126297619Y-69761904D01*
X127297619Y-69761904D01*
X126678571Y-68952380D02*
X126678571Y-68190476D01*
X126297619Y-68571428D02*
X127059523Y-68571428D01*
X125964285Y-65190476D02*
X127392857Y-65190476D01*
X126297619Y-61619047D02*
X126773809Y-61952380D01*
X126297619Y-62190476D02*
X127297619Y-62190476D01*
X127297619Y-61809523D01*
X127250000Y-61714285D01*
X127202380Y-61666666D01*
X127107142Y-61619047D01*
X126964285Y-61619047D01*
X126869047Y-61666666D01*
X126821428Y-61714285D01*
X126773809Y-61809523D01*
X126773809Y-62190476D01*
X126678571Y-61190476D02*
X126678571Y-60428571D01*
X125964285Y-57428571D02*
X127392857Y-57428571D01*
X126297619Y-53857142D02*
X126773809Y-54190476D01*
X126297619Y-54428571D02*
X127297619Y-54428571D01*
X127297619Y-54047619D01*
X127250000Y-53952380D01*
X127202380Y-53904761D01*
X127107142Y-53857142D01*
X126964285Y-53857142D01*
X126869047Y-53904761D01*
X126821428Y-53952380D01*
X126773809Y-54047619D01*
X126773809Y-54428571D01*
X126678571Y-53428571D02*
X126678571Y-52666666D01*
X126297619Y-53047619D02*
X127059523Y-53047619D01*
X125964285Y-49666666D02*
X127392857Y-49666666D01*
X66197619Y-66333333D02*
X67197619Y-66333333D01*
X67197619Y-65952380D01*
X67150000Y-65857142D01*
X67102380Y-65809523D01*
X67007142Y-65761904D01*
X66864285Y-65761904D01*
X66769047Y-65809523D01*
X66721428Y-65857142D01*
X66673809Y-65952380D01*
X66673809Y-66333333D01*
X67197619Y-65428571D02*
X66197619Y-65190476D01*
X66911904Y-65000000D01*
X66197619Y-64809523D01*
X67197619Y-64571428D01*
X66197619Y-63619047D02*
X66673809Y-63952380D01*
X66197619Y-64190476D02*
X67197619Y-64190476D01*
X67197619Y-63809523D01*
X67150000Y-63714285D01*
X67102380Y-63666666D01*
X67007142Y-63619047D01*
X66864285Y-63619047D01*
X66769047Y-63666666D01*
X66721428Y-63714285D01*
X66673809Y-63809523D01*
X66673809Y-64190476D01*
X143952380Y-51166666D02*
X143476190Y-50833333D01*
X143952380Y-50595238D02*
X142952380Y-50595238D01*
X142952380Y-50976190D01*
X143000000Y-51071428D01*
X143047619Y-51119047D01*
X143142857Y-51166666D01*
X143285714Y-51166666D01*
X143380952Y-51119047D01*
X143428571Y-51071428D01*
X143476190Y-50976190D01*
X143476190Y-50595238D01*
X143952380Y-51595238D02*
X142952380Y-51595238D01*
X143000000Y-52595238D02*
X142952380Y-52500000D01*
X142952380Y-52357142D01*
X143000000Y-52214285D01*
X143095238Y-52119047D01*
X143190476Y-52071428D01*
X143380952Y-52023809D01*
X143523809Y-52023809D01*
X143714285Y-52071428D01*
X143809523Y-52119047D01*
X143904761Y-52214285D01*
X143952380Y-52357142D01*
X143952380Y-52452380D01*
X143904761Y-52595238D01*
X143857142Y-52642857D01*
X143523809Y-52642857D01*
X143523809Y-52452380D01*
X143952380Y-53071428D02*
X142952380Y-53071428D01*
X143428571Y-53071428D02*
X143428571Y-53642857D01*
X143952380Y-53642857D02*
X142952380Y-53642857D01*
X142952380Y-53976190D02*
X142952380Y-54547619D01*
X143952380Y-54261904D02*
X142952380Y-54261904D01*
X143952380Y-63095238D02*
X142952380Y-63095238D01*
X143666666Y-63428571D01*
X142952380Y-63761904D01*
X143952380Y-63761904D01*
X142952380Y-64428571D02*
X142952380Y-64619047D01*
X143000000Y-64714285D01*
X143095238Y-64809523D01*
X143285714Y-64857142D01*
X143619047Y-64857142D01*
X143809523Y-64809523D01*
X143904761Y-64714285D01*
X143952380Y-64619047D01*
X143952380Y-64428571D01*
X143904761Y-64333333D01*
X143809523Y-64238095D01*
X143619047Y-64190476D01*
X143285714Y-64190476D01*
X143095238Y-64238095D01*
X143000000Y-64333333D01*
X142952380Y-64428571D01*
X143952380Y-65285714D02*
X142952380Y-65285714D01*
X143952380Y-65857142D01*
X142952380Y-65857142D01*
X142952380Y-66523809D02*
X142952380Y-66714285D01*
X143000000Y-66809523D01*
X143095238Y-66904761D01*
X143285714Y-66952380D01*
X143619047Y-66952380D01*
X143809523Y-66904761D01*
X143904761Y-66809523D01*
X143952380Y-66714285D01*
X143952380Y-66523809D01*
X143904761Y-66428571D01*
X143809523Y-66333333D01*
X143619047Y-66285714D01*
X143285714Y-66285714D01*
X143095238Y-66333333D01*
X143000000Y-66428571D01*
X142952380Y-66523809D01*
X143952380Y-76547619D02*
X143952380Y-76071428D01*
X142952380Y-76071428D01*
X143428571Y-76880952D02*
X143428571Y-77214285D01*
X143952380Y-77357142D02*
X143952380Y-76880952D01*
X142952380Y-76880952D01*
X142952380Y-77357142D01*
X143428571Y-78119047D02*
X143428571Y-77785714D01*
X143952380Y-77785714D02*
X142952380Y-77785714D01*
X142952380Y-78261904D01*
X142952380Y-78500000D02*
X142952380Y-79071428D01*
X143952380Y-78785714D02*
X142952380Y-78785714D01*
D12*
G36*
X121873000Y-91841500D02*
G01*
X121873000Y-91968500D01*
X122000000Y-91968500D01*
X122000000Y-91714500D01*
X121873000Y-91714500D01*
X121873000Y-91587500D01*
X121746000Y-91587500D01*
X121746000Y-91841500D01*
X121873000Y-91841500D01*
X121873000Y-91841500D01*
G37*
X121873000Y-91841500D02*
X121873000Y-91968500D01*
X122000000Y-91968500D01*
X122000000Y-91714500D01*
X121873000Y-91714500D01*
X121873000Y-91587500D01*
X121746000Y-91587500D01*
X121746000Y-91841500D01*
X121873000Y-91841500D01*
G36*
X123651000Y-90317500D02*
G01*
X123651000Y-90444500D01*
X123778000Y-90444500D01*
X123778000Y-90190500D01*
X123524000Y-90190500D01*
X123524000Y-90317500D01*
X123651000Y-90317500D01*
X123651000Y-90317500D01*
G37*
X123651000Y-90317500D02*
X123651000Y-90444500D01*
X123778000Y-90444500D01*
X123778000Y-90190500D01*
X123524000Y-90190500D01*
X123524000Y-90317500D01*
X123651000Y-90317500D01*
G36*
X124286000Y-89174500D02*
G01*
X124286000Y-89047500D01*
X124032000Y-89047500D01*
X124032000Y-89174500D01*
X124286000Y-89174500D01*
X124286000Y-89174500D01*
G37*
X124286000Y-89174500D02*
X124286000Y-89047500D01*
X124032000Y-89047500D01*
X124032000Y-89174500D01*
X124286000Y-89174500D01*
G36*
X125048000Y-91841500D02*
G01*
X125048000Y-91968500D01*
X125302000Y-91968500D01*
X125302000Y-91841500D01*
X125429000Y-91841500D01*
X125429000Y-91714500D01*
X124921000Y-91714500D01*
X124921000Y-91841500D01*
X125048000Y-91841500D01*
X125048000Y-91841500D01*
G37*
X125048000Y-91841500D02*
X125048000Y-91968500D01*
X125302000Y-91968500D01*
X125302000Y-91841500D01*
X125429000Y-91841500D01*
X125429000Y-91714500D01*
X124921000Y-91714500D01*
X124921000Y-91841500D01*
X125048000Y-91841500D01*
G36*
X125429000Y-89428500D02*
G01*
X125429000Y-89301500D01*
X125302000Y-89301500D01*
X125302000Y-89428500D01*
X125429000Y-89428500D01*
X125429000Y-89428500D01*
G37*
X125429000Y-89428500D02*
X125429000Y-89301500D01*
X125302000Y-89301500D01*
X125302000Y-89428500D01*
X125429000Y-89428500D01*
G36*
X117301000Y-90698500D02*
G01*
X117301000Y-91079500D01*
X117428000Y-91079500D01*
X117428000Y-91587500D01*
X117555000Y-91587500D01*
X117555000Y-91714500D01*
X117682000Y-91714500D01*
X117682000Y-91841500D01*
X117809000Y-91841500D01*
X117809000Y-91968500D01*
X117936000Y-91968500D01*
X117936000Y-92095500D01*
X118190000Y-92095500D01*
X118190000Y-92222500D01*
X118444000Y-92222500D01*
X118444000Y-92349500D01*
X118698000Y-92349500D01*
X118698000Y-92476500D01*
X118952000Y-92476500D01*
X118952000Y-92603500D01*
X119206000Y-92603500D01*
X119206000Y-92730500D01*
X119460000Y-92730500D01*
X119460000Y-92857500D01*
X119841000Y-92857500D01*
X119841000Y-92984500D01*
X120349000Y-92984500D01*
X120349000Y-93111500D01*
X120857000Y-93111500D01*
X120857000Y-93365500D01*
X124286000Y-93365500D01*
X124286000Y-93111500D01*
X124540000Y-93111500D01*
X124540000Y-92984500D01*
X124921000Y-92984500D01*
X124921000Y-92857500D01*
X125175000Y-92857500D01*
X125175000Y-92730500D01*
X125429000Y-92730500D01*
X125429000Y-92603500D01*
X125556000Y-92603500D01*
X125556000Y-92476500D01*
X125810000Y-92476500D01*
X125810000Y-92349500D01*
X126064000Y-92349500D01*
X126064000Y-92222500D01*
X126191000Y-92222500D01*
X126191000Y-92095500D01*
X126318000Y-92095500D01*
X126318000Y-91841500D01*
X126445000Y-91841500D01*
X126445000Y-91333500D01*
X126572000Y-91333500D01*
X126572000Y-90952500D01*
X126699000Y-90952500D01*
X126699000Y-90444500D01*
X126826000Y-90444500D01*
X126826000Y-88920500D01*
X126699000Y-88920500D01*
X126699000Y-88793500D01*
X126572000Y-88793500D01*
X126572000Y-88412500D01*
X126445000Y-88412500D01*
X126445000Y-88285500D01*
X126318000Y-88285500D01*
X126318000Y-88031500D01*
X126191000Y-88031500D01*
X126191000Y-87777500D01*
X126064000Y-87777500D01*
X126064000Y-87650500D01*
X125937000Y-87650500D01*
X125937000Y-87523500D01*
X125810000Y-87523500D01*
X125810000Y-87650500D01*
X125810000Y-87777500D01*
X125937000Y-87777500D01*
X125937000Y-88031500D01*
X126064000Y-88031500D01*
X126064000Y-88158500D01*
X126191000Y-88158500D01*
X126191000Y-88285500D01*
X126318000Y-88285500D01*
X126318000Y-88539500D01*
X126445000Y-88539500D01*
X126445000Y-88793500D01*
X126572000Y-88793500D01*
X126572000Y-89301500D01*
X126699000Y-89301500D01*
X126699000Y-90063500D01*
X126572000Y-90063500D01*
X126572000Y-90190500D01*
X126445000Y-90190500D01*
X126445000Y-90444500D01*
X126572000Y-90444500D01*
X126572000Y-90571500D01*
X126445000Y-90571500D01*
X126445000Y-90698500D01*
X126318000Y-90698500D01*
X126318000Y-90825500D01*
X126191000Y-90825500D01*
X126191000Y-91079500D01*
X126064000Y-91079500D01*
X126064000Y-91587500D01*
X125810000Y-91587500D01*
X125810000Y-91841500D01*
X126064000Y-91841500D01*
X126064000Y-91968500D01*
X125810000Y-91968500D01*
X125810000Y-92095500D01*
X125683000Y-92095500D01*
X125683000Y-92222500D01*
X125429000Y-92222500D01*
X125429000Y-92349500D01*
X125175000Y-92349500D01*
X125175000Y-92476500D01*
X124921000Y-92476500D01*
X124921000Y-92603500D01*
X124413000Y-92603500D01*
X124413000Y-92730500D01*
X123778000Y-92730500D01*
X123778000Y-92857500D01*
X122889000Y-92857500D01*
X122889000Y-92730500D01*
X122508000Y-92730500D01*
X122508000Y-92603500D01*
X122889000Y-92603500D01*
X122889000Y-92476500D01*
X123651000Y-92476500D01*
X123651000Y-92349500D01*
X124540000Y-92349500D01*
X124540000Y-92222500D01*
X124794000Y-92222500D01*
X124794000Y-92095500D01*
X125048000Y-92095500D01*
X125048000Y-91968500D01*
X124540000Y-91968500D01*
X124540000Y-91714500D01*
X124794000Y-91714500D01*
X124794000Y-91587500D01*
X125048000Y-91587500D01*
X125048000Y-91460500D01*
X124921000Y-91460500D01*
X124921000Y-91333500D01*
X125048000Y-91333500D01*
X125048000Y-91206500D01*
X125429000Y-91206500D01*
X125429000Y-91333500D01*
X125556000Y-91333500D01*
X125556000Y-91206500D01*
X125810000Y-91206500D01*
X125810000Y-91333500D01*
X125937000Y-91333500D01*
X125937000Y-90825500D01*
X125810000Y-90825500D01*
X125810000Y-91079500D01*
X125429000Y-91079500D01*
X125429000Y-90952500D01*
X125302000Y-90952500D01*
X125302000Y-90825500D01*
X125048000Y-90825500D01*
X125048000Y-90952500D01*
X124921000Y-90952500D01*
X124921000Y-91079500D01*
X124794000Y-91079500D01*
X124794000Y-91206500D01*
X124667000Y-91206500D01*
X124667000Y-91333500D01*
X124413000Y-91333500D01*
X124413000Y-91206500D01*
X124286000Y-91206500D01*
X124286000Y-90952500D01*
X123397000Y-90952500D01*
X123397000Y-91079500D01*
X123270000Y-91079500D01*
X123270000Y-91460500D01*
X123143000Y-91460500D01*
X123143000Y-91714500D01*
X122762000Y-91714500D01*
X122762000Y-91587500D01*
X122635000Y-91587500D01*
X122635000Y-91460500D01*
X122508000Y-91460500D01*
X122508000Y-91968500D01*
X122381000Y-91968500D01*
X122381000Y-92095500D01*
X122254000Y-92095500D01*
X122254000Y-92603500D01*
X122381000Y-92603500D01*
X122381000Y-92730500D01*
X122254000Y-92730500D01*
X122254000Y-92603500D01*
X122254000Y-92095500D01*
X121746000Y-92095500D01*
X121746000Y-92476500D01*
X122127000Y-92476500D01*
X122127000Y-92603500D01*
X121746000Y-92603500D01*
X121746000Y-92476500D01*
X121746000Y-92095500D01*
X121492000Y-92095500D01*
X121492000Y-91968500D01*
X121365000Y-91968500D01*
X121365000Y-91714500D01*
X121238000Y-91714500D01*
X121238000Y-91587500D01*
X121111000Y-91587500D01*
X121111000Y-91460500D01*
X120984000Y-91460500D01*
X120984000Y-91206500D01*
X120857000Y-91206500D01*
X120857000Y-90825500D01*
X120730000Y-90825500D01*
X120730000Y-90444500D01*
X120603000Y-90444500D01*
X120603000Y-90063500D01*
X120476000Y-90063500D01*
X120476000Y-89682500D01*
X120603000Y-89682500D01*
X120603000Y-89301500D01*
X120730000Y-89301500D01*
X120730000Y-89174500D01*
X120857000Y-89174500D01*
X120857000Y-88920500D01*
X121111000Y-88920500D01*
X121111000Y-88793500D01*
X121238000Y-88793500D01*
X121238000Y-88666500D01*
X121365000Y-88666500D01*
X121365000Y-88539500D01*
X121492000Y-88539500D01*
X121492000Y-88920500D01*
X121365000Y-88920500D01*
X121365000Y-89301500D01*
X121238000Y-89301500D01*
X121238000Y-90571500D01*
X121365000Y-90571500D01*
X121365000Y-89809500D01*
X121492000Y-89809500D01*
X121492000Y-89428500D01*
X121619000Y-89428500D01*
X121619000Y-89301500D01*
X121746000Y-89301500D01*
X121746000Y-89174500D01*
X121873000Y-89174500D01*
X121873000Y-88920500D01*
X122127000Y-88920500D01*
X122127000Y-88793500D01*
X122381000Y-88793500D01*
X122381000Y-89047500D01*
X122254000Y-89047500D01*
X122254000Y-89301500D01*
X122127000Y-89301500D01*
X122127000Y-89428500D01*
X122000000Y-89428500D01*
X122000000Y-90571500D01*
X122127000Y-90571500D01*
X122127000Y-90698500D01*
X122254000Y-90698500D01*
X122254000Y-90825500D01*
X122381000Y-90825500D01*
X122381000Y-90952500D01*
X122635000Y-90952500D01*
X122635000Y-90571500D01*
X122508000Y-90571500D01*
X122508000Y-90190500D01*
X123143000Y-90190500D01*
X123143000Y-90063500D01*
X123270000Y-90063500D01*
X123270000Y-89936500D01*
X123143000Y-89936500D01*
X123143000Y-89301500D01*
X123270000Y-89301500D01*
X123270000Y-89174500D01*
X123397000Y-89174500D01*
X123397000Y-89047500D01*
X124032000Y-89047500D01*
X124032000Y-88666500D01*
X124159000Y-88666500D01*
X124159000Y-88539500D01*
X124413000Y-88539500D01*
X124413000Y-88793500D01*
X124794000Y-88793500D01*
X124794000Y-88920500D01*
X125048000Y-88920500D01*
X125048000Y-89047500D01*
X125175000Y-89047500D01*
X125175000Y-89301500D01*
X125302000Y-89301500D01*
X125302000Y-89047500D01*
X125429000Y-89047500D01*
X125429000Y-88920500D01*
X125810000Y-88920500D01*
X125810000Y-89301500D01*
X125937000Y-89301500D01*
X125937000Y-89428500D01*
X125429000Y-89428500D01*
X125429000Y-90444500D01*
X125175000Y-90444500D01*
X125175000Y-90571500D01*
X125683000Y-90571500D01*
X125683000Y-90698500D01*
X125937000Y-90698500D01*
X125937000Y-90571500D01*
X126064000Y-90571500D01*
X126064000Y-90444500D01*
X125810000Y-90444500D01*
X125810000Y-90317500D01*
X125683000Y-90317500D01*
X125683000Y-90190500D01*
X125556000Y-90190500D01*
X125556000Y-89936500D01*
X125937000Y-89936500D01*
X125937000Y-90063500D01*
X126064000Y-90063500D01*
X126064000Y-89809500D01*
X126191000Y-89809500D01*
X126191000Y-89682500D01*
X126064000Y-89682500D01*
X126064000Y-88920500D01*
X125937000Y-88920500D01*
X125937000Y-88666500D01*
X125810000Y-88666500D01*
X125810000Y-88412500D01*
X125683000Y-88412500D01*
X125683000Y-88285500D01*
X125556000Y-88285500D01*
X125556000Y-88158500D01*
X125302000Y-88158500D01*
X125302000Y-88031500D01*
X125175000Y-88031500D01*
X125175000Y-88285500D01*
X125429000Y-88285500D01*
X125429000Y-88539500D01*
X125302000Y-88539500D01*
X125302000Y-88412500D01*
X125175000Y-88412500D01*
X125175000Y-88285500D01*
X125175000Y-88031500D01*
X125048000Y-88031500D01*
X125048000Y-87904500D01*
X124921000Y-87904500D01*
X124921000Y-87777500D01*
X125429000Y-87777500D01*
X125429000Y-87904500D01*
X125683000Y-87904500D01*
X125683000Y-87650500D01*
X125810000Y-87650500D01*
X125810000Y-87523500D01*
X125810000Y-87396500D01*
X125683000Y-87396500D01*
X125683000Y-87269500D01*
X125429000Y-87269500D01*
X125429000Y-87015500D01*
X125175000Y-87015500D01*
X125175000Y-86888500D01*
X123905000Y-86888500D01*
X123905000Y-86761500D01*
X123651000Y-86761500D01*
X123651000Y-86634500D01*
X123270000Y-86634500D01*
X123270000Y-86888500D01*
X123397000Y-86888500D01*
X123397000Y-87015500D01*
X123270000Y-87015500D01*
X123270000Y-86888500D01*
X123270000Y-86634500D01*
X121746000Y-86634500D01*
X121746000Y-86888500D01*
X122508000Y-86888500D01*
X122508000Y-87142500D01*
X122635000Y-87142500D01*
X122635000Y-87269500D01*
X123651000Y-87269500D01*
X123651000Y-87396500D01*
X123778000Y-87396500D01*
X123778000Y-87269500D01*
X123905000Y-87269500D01*
X123905000Y-87142500D01*
X124921000Y-87142500D01*
X124921000Y-87269500D01*
X125302000Y-87269500D01*
X125302000Y-87396500D01*
X125556000Y-87396500D01*
X125556000Y-87523500D01*
X125683000Y-87523500D01*
X125683000Y-87650500D01*
X125429000Y-87650500D01*
X125429000Y-87523500D01*
X124667000Y-87523500D01*
X124667000Y-87396500D01*
X124286000Y-87396500D01*
X124286000Y-87269500D01*
X124032000Y-87269500D01*
X124032000Y-87523500D01*
X124413000Y-87523500D01*
X124413000Y-87650500D01*
X124286000Y-87650500D01*
X124286000Y-87777500D01*
X123778000Y-87777500D01*
X123778000Y-87650500D01*
X123397000Y-87650500D01*
X123397000Y-87523500D01*
X122762000Y-87523500D01*
X122762000Y-87396500D01*
X121746000Y-87396500D01*
X121746000Y-87269500D01*
X121111000Y-87269500D01*
X121111000Y-87142500D01*
X120984000Y-87142500D01*
X120984000Y-87015500D01*
X121746000Y-87015500D01*
X121746000Y-86888500D01*
X121746000Y-86634500D01*
X121111000Y-86634500D01*
X121111000Y-86761500D01*
X120603000Y-86761500D01*
X120603000Y-86888500D01*
X120222000Y-86888500D01*
X120222000Y-87015500D01*
X120222000Y-91333500D01*
X120349000Y-91333500D01*
X120349000Y-91460500D01*
X120222000Y-91460500D01*
X120222000Y-91333500D01*
X120222000Y-87015500D01*
X119714000Y-87015500D01*
X119714000Y-87142500D01*
X119460000Y-87142500D01*
X119460000Y-87269500D01*
X119333000Y-87269500D01*
X119333000Y-87396500D01*
X119587000Y-87396500D01*
X119587000Y-87650500D01*
X119460000Y-87650500D01*
X119460000Y-87777500D01*
X119333000Y-87777500D01*
X119333000Y-88031500D01*
X119460000Y-88031500D01*
X119460000Y-88158500D01*
X119587000Y-88158500D01*
X119587000Y-88285500D01*
X119714000Y-88285500D01*
X119714000Y-88412500D01*
X119587000Y-88412500D01*
X119587000Y-88539500D01*
X119206000Y-88539500D01*
X119206000Y-88158500D01*
X119333000Y-88158500D01*
X119333000Y-88031500D01*
X119333000Y-87777500D01*
X119206000Y-87777500D01*
X119206000Y-87904500D01*
X119079000Y-87904500D01*
X119079000Y-88158500D01*
X118952000Y-88158500D01*
X118952000Y-88412500D01*
X118952000Y-88666500D01*
X119333000Y-88666500D01*
X119333000Y-88920500D01*
X119460000Y-88920500D01*
X119460000Y-89047500D01*
X119333000Y-89047500D01*
X119333000Y-89301500D01*
X118952000Y-89301500D01*
X118952000Y-88666500D01*
X118952000Y-88412500D01*
X118825000Y-88412500D01*
X118825000Y-88793500D01*
X118825000Y-89555500D01*
X119206000Y-89555500D01*
X119206000Y-89682500D01*
X119460000Y-89682500D01*
X119460000Y-90063500D01*
X119206000Y-90063500D01*
X119206000Y-90444500D01*
X119841000Y-90444500D01*
X119841000Y-90825500D01*
X119333000Y-90825500D01*
X119333000Y-90698500D01*
X119206000Y-90698500D01*
X119206000Y-90444500D01*
X119206000Y-90063500D01*
X118952000Y-90063500D01*
X118952000Y-89936500D01*
X118825000Y-89936500D01*
X118825000Y-89555500D01*
X118825000Y-88793500D01*
X118698000Y-88793500D01*
X118698000Y-88920500D01*
X118571000Y-88920500D01*
X118571000Y-89428500D01*
X118444000Y-89428500D01*
X118444000Y-89936500D01*
X118571000Y-89936500D01*
X118571000Y-90063500D01*
X118698000Y-90063500D01*
X118698000Y-90571500D01*
X118825000Y-90571500D01*
X118825000Y-90698500D01*
X119079000Y-90698500D01*
X119079000Y-90825500D01*
X118952000Y-90825500D01*
X118952000Y-90952500D01*
X118825000Y-90952500D01*
X118825000Y-90825500D01*
X118698000Y-90825500D01*
X118698000Y-90698500D01*
X118571000Y-90698500D01*
X118571000Y-90571500D01*
X118317000Y-90571500D01*
X118317000Y-89047500D01*
X118444000Y-89047500D01*
X118444000Y-88793500D01*
X118571000Y-88793500D01*
X118571000Y-88666500D01*
X118444000Y-88666500D01*
X118444000Y-88539500D01*
X118317000Y-88539500D01*
X118317000Y-88666500D01*
X118190000Y-88666500D01*
X118190000Y-89047500D01*
X118063000Y-89047500D01*
X118063000Y-90063500D01*
X118190000Y-90063500D01*
X118190000Y-91206500D01*
X118317000Y-91206500D01*
X118317000Y-91460500D01*
X118571000Y-91460500D01*
X118571000Y-91587500D01*
X118444000Y-91587500D01*
X118444000Y-91714500D01*
X118317000Y-91714500D01*
X118317000Y-91587500D01*
X117936000Y-91587500D01*
X117936000Y-91460500D01*
X117809000Y-91460500D01*
X117809000Y-91206500D01*
X117682000Y-91206500D01*
X117682000Y-90952500D01*
X117555000Y-90952500D01*
X117555000Y-90444500D01*
X117428000Y-90444500D01*
X117428000Y-89047500D01*
X117555000Y-89047500D01*
X117555000Y-88793500D01*
X117682000Y-88793500D01*
X117682000Y-88666500D01*
X117809000Y-88666500D01*
X117809000Y-88539500D01*
X117936000Y-88539500D01*
X117936000Y-88412500D01*
X118063000Y-88412500D01*
X118063000Y-88285500D01*
X118190000Y-88285500D01*
X118190000Y-88158500D01*
X118317000Y-88158500D01*
X118317000Y-88031500D01*
X118444000Y-88031500D01*
X118444000Y-87904500D01*
X118698000Y-87904500D01*
X118698000Y-87777500D01*
X118952000Y-87777500D01*
X118952000Y-87650500D01*
X119079000Y-87650500D01*
X119079000Y-87523500D01*
X119333000Y-87523500D01*
X119333000Y-87396500D01*
X118952000Y-87396500D01*
X118952000Y-87523500D01*
X118698000Y-87523500D01*
X118698000Y-87650500D01*
X118571000Y-87650500D01*
X118571000Y-87777500D01*
X118444000Y-87777500D01*
X118444000Y-87904500D01*
X118063000Y-87904500D01*
X118063000Y-88031500D01*
X117936000Y-88031500D01*
X117936000Y-88158500D01*
X117809000Y-88158500D01*
X117809000Y-88412500D01*
X117555000Y-88412500D01*
X117555000Y-88666500D01*
X117428000Y-88666500D01*
X117428000Y-88793500D01*
X117301000Y-88793500D01*
X117301000Y-89047500D01*
X117174000Y-89047500D01*
X117174000Y-90698500D01*
X117301000Y-90698500D01*
X117301000Y-90698500D01*
G37*
X117301000Y-90698500D02*
X117301000Y-91079500D01*
X117428000Y-91079500D01*
X117428000Y-91587500D01*
X117555000Y-91587500D01*
X117555000Y-91714500D01*
X117682000Y-91714500D01*
X117682000Y-91841500D01*
X117809000Y-91841500D01*
X117809000Y-91968500D01*
X117936000Y-91968500D01*
X117936000Y-92095500D01*
X118190000Y-92095500D01*
X118190000Y-92222500D01*
X118444000Y-92222500D01*
X118444000Y-92349500D01*
X118698000Y-92349500D01*
X118698000Y-92476500D01*
X118952000Y-92476500D01*
X118952000Y-92603500D01*
X119206000Y-92603500D01*
X119206000Y-92730500D01*
X119460000Y-92730500D01*
X119460000Y-92857500D01*
X119841000Y-92857500D01*
X119841000Y-92984500D01*
X120349000Y-92984500D01*
X120349000Y-93111500D01*
X120857000Y-93111500D01*
X120857000Y-93365500D01*
X124286000Y-93365500D01*
X124286000Y-93111500D01*
X124540000Y-93111500D01*
X124540000Y-92984500D01*
X124921000Y-92984500D01*
X124921000Y-92857500D01*
X125175000Y-92857500D01*
X125175000Y-92730500D01*
X125429000Y-92730500D01*
X125429000Y-92603500D01*
X125556000Y-92603500D01*
X125556000Y-92476500D01*
X125810000Y-92476500D01*
X125810000Y-92349500D01*
X126064000Y-92349500D01*
X126064000Y-92222500D01*
X126191000Y-92222500D01*
X126191000Y-92095500D01*
X126318000Y-92095500D01*
X126318000Y-91841500D01*
X126445000Y-91841500D01*
X126445000Y-91333500D01*
X126572000Y-91333500D01*
X126572000Y-90952500D01*
X126699000Y-90952500D01*
X126699000Y-90444500D01*
X126826000Y-90444500D01*
X126826000Y-88920500D01*
X126699000Y-88920500D01*
X126699000Y-88793500D01*
X126572000Y-88793500D01*
X126572000Y-88412500D01*
X126445000Y-88412500D01*
X126445000Y-88285500D01*
X126318000Y-88285500D01*
X126318000Y-88031500D01*
X126191000Y-88031500D01*
X126191000Y-87777500D01*
X126064000Y-87777500D01*
X126064000Y-87650500D01*
X125937000Y-87650500D01*
X125937000Y-87523500D01*
X125810000Y-87523500D01*
X125810000Y-87650500D01*
X125810000Y-87777500D01*
X125937000Y-87777500D01*
X125937000Y-88031500D01*
X126064000Y-88031500D01*
X126064000Y-88158500D01*
X126191000Y-88158500D01*
X126191000Y-88285500D01*
X126318000Y-88285500D01*
X126318000Y-88539500D01*
X126445000Y-88539500D01*
X126445000Y-88793500D01*
X126572000Y-88793500D01*
X126572000Y-89301500D01*
X126699000Y-89301500D01*
X126699000Y-90063500D01*
X126572000Y-90063500D01*
X126572000Y-90190500D01*
X126445000Y-90190500D01*
X126445000Y-90444500D01*
X126572000Y-90444500D01*
X126572000Y-90571500D01*
X126445000Y-90571500D01*
X126445000Y-90698500D01*
X126318000Y-90698500D01*
X126318000Y-90825500D01*
X126191000Y-90825500D01*
X126191000Y-91079500D01*
X126064000Y-91079500D01*
X126064000Y-91587500D01*
X125810000Y-91587500D01*
X125810000Y-91841500D01*
X126064000Y-91841500D01*
X126064000Y-91968500D01*
X125810000Y-91968500D01*
X125810000Y-92095500D01*
X125683000Y-92095500D01*
X125683000Y-92222500D01*
X125429000Y-92222500D01*
X125429000Y-92349500D01*
X125175000Y-92349500D01*
X125175000Y-92476500D01*
X124921000Y-92476500D01*
X124921000Y-92603500D01*
X124413000Y-92603500D01*
X124413000Y-92730500D01*
X123778000Y-92730500D01*
X123778000Y-92857500D01*
X122889000Y-92857500D01*
X122889000Y-92730500D01*
X122508000Y-92730500D01*
X122508000Y-92603500D01*
X122889000Y-92603500D01*
X122889000Y-92476500D01*
X123651000Y-92476500D01*
X123651000Y-92349500D01*
X124540000Y-92349500D01*
X124540000Y-92222500D01*
X124794000Y-92222500D01*
X124794000Y-92095500D01*
X125048000Y-92095500D01*
X125048000Y-91968500D01*
X124540000Y-91968500D01*
X124540000Y-91714500D01*
X124794000Y-91714500D01*
X124794000Y-91587500D01*
X125048000Y-91587500D01*
X125048000Y-91460500D01*
X124921000Y-91460500D01*
X124921000Y-91333500D01*
X125048000Y-91333500D01*
X125048000Y-91206500D01*
X125429000Y-91206500D01*
X125429000Y-91333500D01*
X125556000Y-91333500D01*
X125556000Y-91206500D01*
X125810000Y-91206500D01*
X125810000Y-91333500D01*
X125937000Y-91333500D01*
X125937000Y-90825500D01*
X125810000Y-90825500D01*
X125810000Y-91079500D01*
X125429000Y-91079500D01*
X125429000Y-90952500D01*
X125302000Y-90952500D01*
X125302000Y-90825500D01*
X125048000Y-90825500D01*
X125048000Y-90952500D01*
X124921000Y-90952500D01*
X124921000Y-91079500D01*
X124794000Y-91079500D01*
X124794000Y-91206500D01*
X124667000Y-91206500D01*
X124667000Y-91333500D01*
X124413000Y-91333500D01*
X124413000Y-91206500D01*
X124286000Y-91206500D01*
X124286000Y-90952500D01*
X123397000Y-90952500D01*
X123397000Y-91079500D01*
X123270000Y-91079500D01*
X123270000Y-91460500D01*
X123143000Y-91460500D01*
X123143000Y-91714500D01*
X122762000Y-91714500D01*
X122762000Y-91587500D01*
X122635000Y-91587500D01*
X122635000Y-91460500D01*
X122508000Y-91460500D01*
X122508000Y-91968500D01*
X122381000Y-91968500D01*
X122381000Y-92095500D01*
X122254000Y-92095500D01*
X122254000Y-92603500D01*
X122381000Y-92603500D01*
X122381000Y-92730500D01*
X122254000Y-92730500D01*
X122254000Y-92603500D01*
X122254000Y-92095500D01*
X121746000Y-92095500D01*
X121746000Y-92476500D01*
X122127000Y-92476500D01*
X122127000Y-92603500D01*
X121746000Y-92603500D01*
X121746000Y-92476500D01*
X121746000Y-92095500D01*
X121492000Y-92095500D01*
X121492000Y-91968500D01*
X121365000Y-91968500D01*
X121365000Y-91714500D01*
X121238000Y-91714500D01*
X121238000Y-91587500D01*
X121111000Y-91587500D01*
X121111000Y-91460500D01*
X120984000Y-91460500D01*
X120984000Y-91206500D01*
X120857000Y-91206500D01*
X120857000Y-90825500D01*
X120730000Y-90825500D01*
X120730000Y-90444500D01*
X120603000Y-90444500D01*
X120603000Y-90063500D01*
X120476000Y-90063500D01*
X120476000Y-89682500D01*
X120603000Y-89682500D01*
X120603000Y-89301500D01*
X120730000Y-89301500D01*
X120730000Y-89174500D01*
X120857000Y-89174500D01*
X120857000Y-88920500D01*
X121111000Y-88920500D01*
X121111000Y-88793500D01*
X121238000Y-88793500D01*
X121238000Y-88666500D01*
X121365000Y-88666500D01*
X121365000Y-88539500D01*
X121492000Y-88539500D01*
X121492000Y-88920500D01*
X121365000Y-88920500D01*
X121365000Y-89301500D01*
X121238000Y-89301500D01*
X121238000Y-90571500D01*
X121365000Y-90571500D01*
X121365000Y-89809500D01*
X121492000Y-89809500D01*
X121492000Y-89428500D01*
X121619000Y-89428500D01*
X121619000Y-89301500D01*
X121746000Y-89301500D01*
X121746000Y-89174500D01*
X121873000Y-89174500D01*
X121873000Y-88920500D01*
X122127000Y-88920500D01*
X122127000Y-88793500D01*
X122381000Y-88793500D01*
X122381000Y-89047500D01*
X122254000Y-89047500D01*
X122254000Y-89301500D01*
X122127000Y-89301500D01*
X122127000Y-89428500D01*
X122000000Y-89428500D01*
X122000000Y-90571500D01*
X122127000Y-90571500D01*
X122127000Y-90698500D01*
X122254000Y-90698500D01*
X122254000Y-90825500D01*
X122381000Y-90825500D01*
X122381000Y-90952500D01*
X122635000Y-90952500D01*
X122635000Y-90571500D01*
X122508000Y-90571500D01*
X122508000Y-90190500D01*
X123143000Y-90190500D01*
X123143000Y-90063500D01*
X123270000Y-90063500D01*
X123270000Y-89936500D01*
X123143000Y-89936500D01*
X123143000Y-89301500D01*
X123270000Y-89301500D01*
X123270000Y-89174500D01*
X123397000Y-89174500D01*
X123397000Y-89047500D01*
X124032000Y-89047500D01*
X124032000Y-88666500D01*
X124159000Y-88666500D01*
X124159000Y-88539500D01*
X124413000Y-88539500D01*
X124413000Y-88793500D01*
X124794000Y-88793500D01*
X124794000Y-88920500D01*
X125048000Y-88920500D01*
X125048000Y-89047500D01*
X125175000Y-89047500D01*
X125175000Y-89301500D01*
X125302000Y-89301500D01*
X125302000Y-89047500D01*
X125429000Y-89047500D01*
X125429000Y-88920500D01*
X125810000Y-88920500D01*
X125810000Y-89301500D01*
X125937000Y-89301500D01*
X125937000Y-89428500D01*
X125429000Y-89428500D01*
X125429000Y-90444500D01*
X125175000Y-90444500D01*
X125175000Y-90571500D01*
X125683000Y-90571500D01*
X125683000Y-90698500D01*
X125937000Y-90698500D01*
X125937000Y-90571500D01*
X126064000Y-90571500D01*
X126064000Y-90444500D01*
X125810000Y-90444500D01*
X125810000Y-90317500D01*
X125683000Y-90317500D01*
X125683000Y-90190500D01*
X125556000Y-90190500D01*
X125556000Y-89936500D01*
X125937000Y-89936500D01*
X125937000Y-90063500D01*
X126064000Y-90063500D01*
X126064000Y-89809500D01*
X126191000Y-89809500D01*
X126191000Y-89682500D01*
X126064000Y-89682500D01*
X126064000Y-88920500D01*
X125937000Y-88920500D01*
X125937000Y-88666500D01*
X125810000Y-88666500D01*
X125810000Y-88412500D01*
X125683000Y-88412500D01*
X125683000Y-88285500D01*
X125556000Y-88285500D01*
X125556000Y-88158500D01*
X125302000Y-88158500D01*
X125302000Y-88031500D01*
X125175000Y-88031500D01*
X125175000Y-88285500D01*
X125429000Y-88285500D01*
X125429000Y-88539500D01*
X125302000Y-88539500D01*
X125302000Y-88412500D01*
X125175000Y-88412500D01*
X125175000Y-88285500D01*
X125175000Y-88031500D01*
X125048000Y-88031500D01*
X125048000Y-87904500D01*
X124921000Y-87904500D01*
X124921000Y-87777500D01*
X125429000Y-87777500D01*
X125429000Y-87904500D01*
X125683000Y-87904500D01*
X125683000Y-87650500D01*
X125810000Y-87650500D01*
X125810000Y-87523500D01*
X125810000Y-87396500D01*
X125683000Y-87396500D01*
X125683000Y-87269500D01*
X125429000Y-87269500D01*
X125429000Y-87015500D01*
X125175000Y-87015500D01*
X125175000Y-86888500D01*
X123905000Y-86888500D01*
X123905000Y-86761500D01*
X123651000Y-86761500D01*
X123651000Y-86634500D01*
X123270000Y-86634500D01*
X123270000Y-86888500D01*
X123397000Y-86888500D01*
X123397000Y-87015500D01*
X123270000Y-87015500D01*
X123270000Y-86888500D01*
X123270000Y-86634500D01*
X121746000Y-86634500D01*
X121746000Y-86888500D01*
X122508000Y-86888500D01*
X122508000Y-87142500D01*
X122635000Y-87142500D01*
X122635000Y-87269500D01*
X123651000Y-87269500D01*
X123651000Y-87396500D01*
X123778000Y-87396500D01*
X123778000Y-87269500D01*
X123905000Y-87269500D01*
X123905000Y-87142500D01*
X124921000Y-87142500D01*
X124921000Y-87269500D01*
X125302000Y-87269500D01*
X125302000Y-87396500D01*
X125556000Y-87396500D01*
X125556000Y-87523500D01*
X125683000Y-87523500D01*
X125683000Y-87650500D01*
X125429000Y-87650500D01*
X125429000Y-87523500D01*
X124667000Y-87523500D01*
X124667000Y-87396500D01*
X124286000Y-87396500D01*
X124286000Y-87269500D01*
X124032000Y-87269500D01*
X124032000Y-87523500D01*
X124413000Y-87523500D01*
X124413000Y-87650500D01*
X124286000Y-87650500D01*
X124286000Y-87777500D01*
X123778000Y-87777500D01*
X123778000Y-87650500D01*
X123397000Y-87650500D01*
X123397000Y-87523500D01*
X122762000Y-87523500D01*
X122762000Y-87396500D01*
X121746000Y-87396500D01*
X121746000Y-87269500D01*
X121111000Y-87269500D01*
X121111000Y-87142500D01*
X120984000Y-87142500D01*
X120984000Y-87015500D01*
X121746000Y-87015500D01*
X121746000Y-86888500D01*
X121746000Y-86634500D01*
X121111000Y-86634500D01*
X121111000Y-86761500D01*
X120603000Y-86761500D01*
X120603000Y-86888500D01*
X120222000Y-86888500D01*
X120222000Y-87015500D01*
X120222000Y-91333500D01*
X120349000Y-91333500D01*
X120349000Y-91460500D01*
X120222000Y-91460500D01*
X120222000Y-91333500D01*
X120222000Y-87015500D01*
X119714000Y-87015500D01*
X119714000Y-87142500D01*
X119460000Y-87142500D01*
X119460000Y-87269500D01*
X119333000Y-87269500D01*
X119333000Y-87396500D01*
X119587000Y-87396500D01*
X119587000Y-87650500D01*
X119460000Y-87650500D01*
X119460000Y-87777500D01*
X119333000Y-87777500D01*
X119333000Y-88031500D01*
X119460000Y-88031500D01*
X119460000Y-88158500D01*
X119587000Y-88158500D01*
X119587000Y-88285500D01*
X119714000Y-88285500D01*
X119714000Y-88412500D01*
X119587000Y-88412500D01*
X119587000Y-88539500D01*
X119206000Y-88539500D01*
X119206000Y-88158500D01*
X119333000Y-88158500D01*
X119333000Y-88031500D01*
X119333000Y-87777500D01*
X119206000Y-87777500D01*
X119206000Y-87904500D01*
X119079000Y-87904500D01*
X119079000Y-88158500D01*
X118952000Y-88158500D01*
X118952000Y-88412500D01*
X118952000Y-88666500D01*
X119333000Y-88666500D01*
X119333000Y-88920500D01*
X119460000Y-88920500D01*
X119460000Y-89047500D01*
X119333000Y-89047500D01*
X119333000Y-89301500D01*
X118952000Y-89301500D01*
X118952000Y-88666500D01*
X118952000Y-88412500D01*
X118825000Y-88412500D01*
X118825000Y-88793500D01*
X118825000Y-89555500D01*
X119206000Y-89555500D01*
X119206000Y-89682500D01*
X119460000Y-89682500D01*
X119460000Y-90063500D01*
X119206000Y-90063500D01*
X119206000Y-90444500D01*
X119841000Y-90444500D01*
X119841000Y-90825500D01*
X119333000Y-90825500D01*
X119333000Y-90698500D01*
X119206000Y-90698500D01*
X119206000Y-90444500D01*
X119206000Y-90063500D01*
X118952000Y-90063500D01*
X118952000Y-89936500D01*
X118825000Y-89936500D01*
X118825000Y-89555500D01*
X118825000Y-88793500D01*
X118698000Y-88793500D01*
X118698000Y-88920500D01*
X118571000Y-88920500D01*
X118571000Y-89428500D01*
X118444000Y-89428500D01*
X118444000Y-89936500D01*
X118571000Y-89936500D01*
X118571000Y-90063500D01*
X118698000Y-90063500D01*
X118698000Y-90571500D01*
X118825000Y-90571500D01*
X118825000Y-90698500D01*
X119079000Y-90698500D01*
X119079000Y-90825500D01*
X118952000Y-90825500D01*
X118952000Y-90952500D01*
X118825000Y-90952500D01*
X118825000Y-90825500D01*
X118698000Y-90825500D01*
X118698000Y-90698500D01*
X118571000Y-90698500D01*
X118571000Y-90571500D01*
X118317000Y-90571500D01*
X118317000Y-89047500D01*
X118444000Y-89047500D01*
X118444000Y-88793500D01*
X118571000Y-88793500D01*
X118571000Y-88666500D01*
X118444000Y-88666500D01*
X118444000Y-88539500D01*
X118317000Y-88539500D01*
X118317000Y-88666500D01*
X118190000Y-88666500D01*
X118190000Y-89047500D01*
X118063000Y-89047500D01*
X118063000Y-90063500D01*
X118190000Y-90063500D01*
X118190000Y-91206500D01*
X118317000Y-91206500D01*
X118317000Y-91460500D01*
X118571000Y-91460500D01*
X118571000Y-91587500D01*
X118444000Y-91587500D01*
X118444000Y-91714500D01*
X118317000Y-91714500D01*
X118317000Y-91587500D01*
X117936000Y-91587500D01*
X117936000Y-91460500D01*
X117809000Y-91460500D01*
X117809000Y-91206500D01*
X117682000Y-91206500D01*
X117682000Y-90952500D01*
X117555000Y-90952500D01*
X117555000Y-90444500D01*
X117428000Y-90444500D01*
X117428000Y-89047500D01*
X117555000Y-89047500D01*
X117555000Y-88793500D01*
X117682000Y-88793500D01*
X117682000Y-88666500D01*
X117809000Y-88666500D01*
X117809000Y-88539500D01*
X117936000Y-88539500D01*
X117936000Y-88412500D01*
X118063000Y-88412500D01*
X118063000Y-88285500D01*
X118190000Y-88285500D01*
X118190000Y-88158500D01*
X118317000Y-88158500D01*
X118317000Y-88031500D01*
X118444000Y-88031500D01*
X118444000Y-87904500D01*
X118698000Y-87904500D01*
X118698000Y-87777500D01*
X118952000Y-87777500D01*
X118952000Y-87650500D01*
X119079000Y-87650500D01*
X119079000Y-87523500D01*
X119333000Y-87523500D01*
X119333000Y-87396500D01*
X118952000Y-87396500D01*
X118952000Y-87523500D01*
X118698000Y-87523500D01*
X118698000Y-87650500D01*
X118571000Y-87650500D01*
X118571000Y-87777500D01*
X118444000Y-87777500D01*
X118444000Y-87904500D01*
X118063000Y-87904500D01*
X118063000Y-88031500D01*
X117936000Y-88031500D01*
X117936000Y-88158500D01*
X117809000Y-88158500D01*
X117809000Y-88412500D01*
X117555000Y-88412500D01*
X117555000Y-88666500D01*
X117428000Y-88666500D01*
X117428000Y-88793500D01*
X117301000Y-88793500D01*
X117301000Y-89047500D01*
X117174000Y-89047500D01*
X117174000Y-90698500D01*
X117301000Y-90698500D01*
G36*
X121873000Y-41841500D02*
G01*
X121873000Y-41968500D01*
X122000000Y-41968500D01*
X122000000Y-41714500D01*
X121873000Y-41714500D01*
X121873000Y-41587500D01*
X121746000Y-41587500D01*
X121746000Y-41841500D01*
X121873000Y-41841500D01*
X121873000Y-41841500D01*
G37*
X121873000Y-41841500D02*
X121873000Y-41968500D01*
X122000000Y-41968500D01*
X122000000Y-41714500D01*
X121873000Y-41714500D01*
X121873000Y-41587500D01*
X121746000Y-41587500D01*
X121746000Y-41841500D01*
X121873000Y-41841500D01*
G36*
X123651000Y-40317500D02*
G01*
X123651000Y-40444500D01*
X123778000Y-40444500D01*
X123778000Y-40190500D01*
X123524000Y-40190500D01*
X123524000Y-40317500D01*
X123651000Y-40317500D01*
X123651000Y-40317500D01*
G37*
X123651000Y-40317500D02*
X123651000Y-40444500D01*
X123778000Y-40444500D01*
X123778000Y-40190500D01*
X123524000Y-40190500D01*
X123524000Y-40317500D01*
X123651000Y-40317500D01*
G36*
X124286000Y-39174500D02*
G01*
X124286000Y-39047500D01*
X124032000Y-39047500D01*
X124032000Y-39174500D01*
X124286000Y-39174500D01*
X124286000Y-39174500D01*
G37*
X124286000Y-39174500D02*
X124286000Y-39047500D01*
X124032000Y-39047500D01*
X124032000Y-39174500D01*
X124286000Y-39174500D01*
G36*
X125048000Y-41841500D02*
G01*
X125048000Y-41968500D01*
X125302000Y-41968500D01*
X125302000Y-41841500D01*
X125429000Y-41841500D01*
X125429000Y-41714500D01*
X124921000Y-41714500D01*
X124921000Y-41841500D01*
X125048000Y-41841500D01*
X125048000Y-41841500D01*
G37*
X125048000Y-41841500D02*
X125048000Y-41968500D01*
X125302000Y-41968500D01*
X125302000Y-41841500D01*
X125429000Y-41841500D01*
X125429000Y-41714500D01*
X124921000Y-41714500D01*
X124921000Y-41841500D01*
X125048000Y-41841500D01*
G36*
X125429000Y-39428500D02*
G01*
X125429000Y-39301500D01*
X125302000Y-39301500D01*
X125302000Y-39428500D01*
X125429000Y-39428500D01*
X125429000Y-39428500D01*
G37*
X125429000Y-39428500D02*
X125429000Y-39301500D01*
X125302000Y-39301500D01*
X125302000Y-39428500D01*
X125429000Y-39428500D01*
G36*
X117301000Y-40698500D02*
G01*
X117301000Y-41079500D01*
X117428000Y-41079500D01*
X117428000Y-41587500D01*
X117555000Y-41587500D01*
X117555000Y-41714500D01*
X117682000Y-41714500D01*
X117682000Y-41841500D01*
X117809000Y-41841500D01*
X117809000Y-41968500D01*
X117936000Y-41968500D01*
X117936000Y-42095500D01*
X118190000Y-42095500D01*
X118190000Y-42222500D01*
X118444000Y-42222500D01*
X118444000Y-42349500D01*
X118698000Y-42349500D01*
X118698000Y-42476500D01*
X118952000Y-42476500D01*
X118952000Y-42603500D01*
X119206000Y-42603500D01*
X119206000Y-42730500D01*
X119460000Y-42730500D01*
X119460000Y-42857500D01*
X119841000Y-42857500D01*
X119841000Y-42984500D01*
X120349000Y-42984500D01*
X120349000Y-43111500D01*
X120857000Y-43111500D01*
X120857000Y-43365500D01*
X124286000Y-43365500D01*
X124286000Y-43111500D01*
X124540000Y-43111500D01*
X124540000Y-42984500D01*
X124921000Y-42984500D01*
X124921000Y-42857500D01*
X125175000Y-42857500D01*
X125175000Y-42730500D01*
X125429000Y-42730500D01*
X125429000Y-42603500D01*
X125556000Y-42603500D01*
X125556000Y-42476500D01*
X125810000Y-42476500D01*
X125810000Y-42349500D01*
X126064000Y-42349500D01*
X126064000Y-42222500D01*
X126191000Y-42222500D01*
X126191000Y-42095500D01*
X126318000Y-42095500D01*
X126318000Y-41841500D01*
X126445000Y-41841500D01*
X126445000Y-41333500D01*
X126572000Y-41333500D01*
X126572000Y-40952500D01*
X126699000Y-40952500D01*
X126699000Y-40444500D01*
X126826000Y-40444500D01*
X126826000Y-38920500D01*
X126699000Y-38920500D01*
X126699000Y-38793500D01*
X126572000Y-38793500D01*
X126572000Y-38412500D01*
X126445000Y-38412500D01*
X126445000Y-38285500D01*
X126318000Y-38285500D01*
X126318000Y-38031500D01*
X126191000Y-38031500D01*
X126191000Y-37777500D01*
X126064000Y-37777500D01*
X126064000Y-37650500D01*
X125937000Y-37650500D01*
X125937000Y-37523500D01*
X125810000Y-37523500D01*
X125810000Y-37650500D01*
X125810000Y-37777500D01*
X125937000Y-37777500D01*
X125937000Y-38031500D01*
X126064000Y-38031500D01*
X126064000Y-38158500D01*
X126191000Y-38158500D01*
X126191000Y-38285500D01*
X126318000Y-38285500D01*
X126318000Y-38539500D01*
X126445000Y-38539500D01*
X126445000Y-38793500D01*
X126572000Y-38793500D01*
X126572000Y-39301500D01*
X126699000Y-39301500D01*
X126699000Y-40063500D01*
X126572000Y-40063500D01*
X126572000Y-40190500D01*
X126445000Y-40190500D01*
X126445000Y-40444500D01*
X126572000Y-40444500D01*
X126572000Y-40571500D01*
X126445000Y-40571500D01*
X126445000Y-40698500D01*
X126318000Y-40698500D01*
X126318000Y-40825500D01*
X126191000Y-40825500D01*
X126191000Y-41079500D01*
X126064000Y-41079500D01*
X126064000Y-41587500D01*
X125810000Y-41587500D01*
X125810000Y-41841500D01*
X126064000Y-41841500D01*
X126064000Y-41968500D01*
X125810000Y-41968500D01*
X125810000Y-42095500D01*
X125683000Y-42095500D01*
X125683000Y-42222500D01*
X125429000Y-42222500D01*
X125429000Y-42349500D01*
X125175000Y-42349500D01*
X125175000Y-42476500D01*
X124921000Y-42476500D01*
X124921000Y-42603500D01*
X124413000Y-42603500D01*
X124413000Y-42730500D01*
X123778000Y-42730500D01*
X123778000Y-42857500D01*
X122889000Y-42857500D01*
X122889000Y-42730500D01*
X122508000Y-42730500D01*
X122508000Y-42603500D01*
X122889000Y-42603500D01*
X122889000Y-42476500D01*
X123651000Y-42476500D01*
X123651000Y-42349500D01*
X124540000Y-42349500D01*
X124540000Y-42222500D01*
X124794000Y-42222500D01*
X124794000Y-42095500D01*
X125048000Y-42095500D01*
X125048000Y-41968500D01*
X124540000Y-41968500D01*
X124540000Y-41714500D01*
X124794000Y-41714500D01*
X124794000Y-41587500D01*
X125048000Y-41587500D01*
X125048000Y-41460500D01*
X124921000Y-41460500D01*
X124921000Y-41333500D01*
X125048000Y-41333500D01*
X125048000Y-41206500D01*
X125429000Y-41206500D01*
X125429000Y-41333500D01*
X125556000Y-41333500D01*
X125556000Y-41206500D01*
X125810000Y-41206500D01*
X125810000Y-41333500D01*
X125937000Y-41333500D01*
X125937000Y-40825500D01*
X125810000Y-40825500D01*
X125810000Y-41079500D01*
X125429000Y-41079500D01*
X125429000Y-40952500D01*
X125302000Y-40952500D01*
X125302000Y-40825500D01*
X125048000Y-40825500D01*
X125048000Y-40952500D01*
X124921000Y-40952500D01*
X124921000Y-41079500D01*
X124794000Y-41079500D01*
X124794000Y-41206500D01*
X124667000Y-41206500D01*
X124667000Y-41333500D01*
X124413000Y-41333500D01*
X124413000Y-41206500D01*
X124286000Y-41206500D01*
X124286000Y-40952500D01*
X123397000Y-40952500D01*
X123397000Y-41079500D01*
X123270000Y-41079500D01*
X123270000Y-41460500D01*
X123143000Y-41460500D01*
X123143000Y-41714500D01*
X122762000Y-41714500D01*
X122762000Y-41587500D01*
X122635000Y-41587500D01*
X122635000Y-41460500D01*
X122508000Y-41460500D01*
X122508000Y-41968500D01*
X122381000Y-41968500D01*
X122381000Y-42095500D01*
X122254000Y-42095500D01*
X122254000Y-42603500D01*
X122381000Y-42603500D01*
X122381000Y-42730500D01*
X122254000Y-42730500D01*
X122254000Y-42603500D01*
X122254000Y-42095500D01*
X121746000Y-42095500D01*
X121746000Y-42476500D01*
X122127000Y-42476500D01*
X122127000Y-42603500D01*
X121746000Y-42603500D01*
X121746000Y-42476500D01*
X121746000Y-42095500D01*
X121492000Y-42095500D01*
X121492000Y-41968500D01*
X121365000Y-41968500D01*
X121365000Y-41714500D01*
X121238000Y-41714500D01*
X121238000Y-41587500D01*
X121111000Y-41587500D01*
X121111000Y-41460500D01*
X120984000Y-41460500D01*
X120984000Y-41206500D01*
X120857000Y-41206500D01*
X120857000Y-40825500D01*
X120730000Y-40825500D01*
X120730000Y-40444500D01*
X120603000Y-40444500D01*
X120603000Y-40063500D01*
X120476000Y-40063500D01*
X120476000Y-39682500D01*
X120603000Y-39682500D01*
X120603000Y-39301500D01*
X120730000Y-39301500D01*
X120730000Y-39174500D01*
X120857000Y-39174500D01*
X120857000Y-38920500D01*
X121111000Y-38920500D01*
X121111000Y-38793500D01*
X121238000Y-38793500D01*
X121238000Y-38666500D01*
X121365000Y-38666500D01*
X121365000Y-38539500D01*
X121492000Y-38539500D01*
X121492000Y-38920500D01*
X121365000Y-38920500D01*
X121365000Y-39301500D01*
X121238000Y-39301500D01*
X121238000Y-40571500D01*
X121365000Y-40571500D01*
X121365000Y-39809500D01*
X121492000Y-39809500D01*
X121492000Y-39428500D01*
X121619000Y-39428500D01*
X121619000Y-39301500D01*
X121746000Y-39301500D01*
X121746000Y-39174500D01*
X121873000Y-39174500D01*
X121873000Y-38920500D01*
X122127000Y-38920500D01*
X122127000Y-38793500D01*
X122381000Y-38793500D01*
X122381000Y-39047500D01*
X122254000Y-39047500D01*
X122254000Y-39301500D01*
X122127000Y-39301500D01*
X122127000Y-39428500D01*
X122000000Y-39428500D01*
X122000000Y-40571500D01*
X122127000Y-40571500D01*
X122127000Y-40698500D01*
X122254000Y-40698500D01*
X122254000Y-40825500D01*
X122381000Y-40825500D01*
X122381000Y-40952500D01*
X122635000Y-40952500D01*
X122635000Y-40571500D01*
X122508000Y-40571500D01*
X122508000Y-40190500D01*
X123143000Y-40190500D01*
X123143000Y-40063500D01*
X123270000Y-40063500D01*
X123270000Y-39936500D01*
X123143000Y-39936500D01*
X123143000Y-39301500D01*
X123270000Y-39301500D01*
X123270000Y-39174500D01*
X123397000Y-39174500D01*
X123397000Y-39047500D01*
X124032000Y-39047500D01*
X124032000Y-38666500D01*
X124159000Y-38666500D01*
X124159000Y-38539500D01*
X124413000Y-38539500D01*
X124413000Y-38793500D01*
X124794000Y-38793500D01*
X124794000Y-38920500D01*
X125048000Y-38920500D01*
X125048000Y-39047500D01*
X125175000Y-39047500D01*
X125175000Y-39301500D01*
X125302000Y-39301500D01*
X125302000Y-39047500D01*
X125429000Y-39047500D01*
X125429000Y-38920500D01*
X125810000Y-38920500D01*
X125810000Y-39301500D01*
X125937000Y-39301500D01*
X125937000Y-39428500D01*
X125429000Y-39428500D01*
X125429000Y-40444500D01*
X125175000Y-40444500D01*
X125175000Y-40571500D01*
X125683000Y-40571500D01*
X125683000Y-40698500D01*
X125937000Y-40698500D01*
X125937000Y-40571500D01*
X126064000Y-40571500D01*
X126064000Y-40444500D01*
X125810000Y-40444500D01*
X125810000Y-40317500D01*
X125683000Y-40317500D01*
X125683000Y-40190500D01*
X125556000Y-40190500D01*
X125556000Y-39936500D01*
X125937000Y-39936500D01*
X125937000Y-40063500D01*
X126064000Y-40063500D01*
X126064000Y-39809500D01*
X126191000Y-39809500D01*
X126191000Y-39682500D01*
X126064000Y-39682500D01*
X126064000Y-38920500D01*
X125937000Y-38920500D01*
X125937000Y-38666500D01*
X125810000Y-38666500D01*
X125810000Y-38412500D01*
X125683000Y-38412500D01*
X125683000Y-38285500D01*
X125556000Y-38285500D01*
X125556000Y-38158500D01*
X125302000Y-38158500D01*
X125302000Y-38031500D01*
X125175000Y-38031500D01*
X125175000Y-38285500D01*
X125429000Y-38285500D01*
X125429000Y-38539500D01*
X125302000Y-38539500D01*
X125302000Y-38412500D01*
X125175000Y-38412500D01*
X125175000Y-38285500D01*
X125175000Y-38031500D01*
X125048000Y-38031500D01*
X125048000Y-37904500D01*
X124921000Y-37904500D01*
X124921000Y-37777500D01*
X125429000Y-37777500D01*
X125429000Y-37904500D01*
X125683000Y-37904500D01*
X125683000Y-37650500D01*
X125810000Y-37650500D01*
X125810000Y-37523500D01*
X125810000Y-37396500D01*
X125683000Y-37396500D01*
X125683000Y-37269500D01*
X125429000Y-37269500D01*
X125429000Y-37015500D01*
X125175000Y-37015500D01*
X125175000Y-36888500D01*
X123905000Y-36888500D01*
X123905000Y-36761500D01*
X123651000Y-36761500D01*
X123651000Y-36634500D01*
X123270000Y-36634500D01*
X123270000Y-36888500D01*
X123397000Y-36888500D01*
X123397000Y-37015500D01*
X123270000Y-37015500D01*
X123270000Y-36888500D01*
X123270000Y-36634500D01*
X121746000Y-36634500D01*
X121746000Y-36888500D01*
X122508000Y-36888500D01*
X122508000Y-37142500D01*
X122635000Y-37142500D01*
X122635000Y-37269500D01*
X123651000Y-37269500D01*
X123651000Y-37396500D01*
X123778000Y-37396500D01*
X123778000Y-37269500D01*
X123905000Y-37269500D01*
X123905000Y-37142500D01*
X124921000Y-37142500D01*
X124921000Y-37269500D01*
X125302000Y-37269500D01*
X125302000Y-37396500D01*
X125556000Y-37396500D01*
X125556000Y-37523500D01*
X125683000Y-37523500D01*
X125683000Y-37650500D01*
X125429000Y-37650500D01*
X125429000Y-37523500D01*
X124667000Y-37523500D01*
X124667000Y-37396500D01*
X124286000Y-37396500D01*
X124286000Y-37269500D01*
X124032000Y-37269500D01*
X124032000Y-37523500D01*
X124413000Y-37523500D01*
X124413000Y-37650500D01*
X124286000Y-37650500D01*
X124286000Y-37777500D01*
X123778000Y-37777500D01*
X123778000Y-37650500D01*
X123397000Y-37650500D01*
X123397000Y-37523500D01*
X122762000Y-37523500D01*
X122762000Y-37396500D01*
X121746000Y-37396500D01*
X121746000Y-37269500D01*
X121111000Y-37269500D01*
X121111000Y-37142500D01*
X120984000Y-37142500D01*
X120984000Y-37015500D01*
X121746000Y-37015500D01*
X121746000Y-36888500D01*
X121746000Y-36634500D01*
X121111000Y-36634500D01*
X121111000Y-36761500D01*
X120603000Y-36761500D01*
X120603000Y-36888500D01*
X120222000Y-36888500D01*
X120222000Y-37015500D01*
X120222000Y-41333500D01*
X120349000Y-41333500D01*
X120349000Y-41460500D01*
X120222000Y-41460500D01*
X120222000Y-41333500D01*
X120222000Y-37015500D01*
X119714000Y-37015500D01*
X119714000Y-37142500D01*
X119460000Y-37142500D01*
X119460000Y-37269500D01*
X119333000Y-37269500D01*
X119333000Y-37396500D01*
X119587000Y-37396500D01*
X119587000Y-37650500D01*
X119460000Y-37650500D01*
X119460000Y-37777500D01*
X119333000Y-37777500D01*
X119333000Y-38031500D01*
X119460000Y-38031500D01*
X119460000Y-38158500D01*
X119587000Y-38158500D01*
X119587000Y-38285500D01*
X119714000Y-38285500D01*
X119714000Y-38412500D01*
X119587000Y-38412500D01*
X119587000Y-38539500D01*
X119206000Y-38539500D01*
X119206000Y-38158500D01*
X119333000Y-38158500D01*
X119333000Y-38031500D01*
X119333000Y-37777500D01*
X119206000Y-37777500D01*
X119206000Y-37904500D01*
X119079000Y-37904500D01*
X119079000Y-38158500D01*
X118952000Y-38158500D01*
X118952000Y-38412500D01*
X118952000Y-38666500D01*
X119333000Y-38666500D01*
X119333000Y-38920500D01*
X119460000Y-38920500D01*
X119460000Y-39047500D01*
X119333000Y-39047500D01*
X119333000Y-39301500D01*
X118952000Y-39301500D01*
X118952000Y-38666500D01*
X118952000Y-38412500D01*
X118825000Y-38412500D01*
X118825000Y-38793500D01*
X118825000Y-39555500D01*
X119206000Y-39555500D01*
X119206000Y-39682500D01*
X119460000Y-39682500D01*
X119460000Y-40063500D01*
X119206000Y-40063500D01*
X119206000Y-40444500D01*
X119841000Y-40444500D01*
X119841000Y-40825500D01*
X119333000Y-40825500D01*
X119333000Y-40698500D01*
X119206000Y-40698500D01*
X119206000Y-40444500D01*
X119206000Y-40063500D01*
X118952000Y-40063500D01*
X118952000Y-39936500D01*
X118825000Y-39936500D01*
X118825000Y-39555500D01*
X118825000Y-38793500D01*
X118698000Y-38793500D01*
X118698000Y-38920500D01*
X118571000Y-38920500D01*
X118571000Y-39428500D01*
X118444000Y-39428500D01*
X118444000Y-39936500D01*
X118571000Y-39936500D01*
X118571000Y-40063500D01*
X118698000Y-40063500D01*
X118698000Y-40571500D01*
X118825000Y-40571500D01*
X118825000Y-40698500D01*
X119079000Y-40698500D01*
X119079000Y-40825500D01*
X118952000Y-40825500D01*
X118952000Y-40952500D01*
X118825000Y-40952500D01*
X118825000Y-40825500D01*
X118698000Y-40825500D01*
X118698000Y-40698500D01*
X118571000Y-40698500D01*
X118571000Y-40571500D01*
X118317000Y-40571500D01*
X118317000Y-39047500D01*
X118444000Y-39047500D01*
X118444000Y-38793500D01*
X118571000Y-38793500D01*
X118571000Y-38666500D01*
X118444000Y-38666500D01*
X118444000Y-38539500D01*
X118317000Y-38539500D01*
X118317000Y-38666500D01*
X118190000Y-38666500D01*
X118190000Y-39047500D01*
X118063000Y-39047500D01*
X118063000Y-40063500D01*
X118190000Y-40063500D01*
X118190000Y-41206500D01*
X118317000Y-41206500D01*
X118317000Y-41460500D01*
X118571000Y-41460500D01*
X118571000Y-41587500D01*
X118444000Y-41587500D01*
X118444000Y-41714500D01*
X118317000Y-41714500D01*
X118317000Y-41587500D01*
X117936000Y-41587500D01*
X117936000Y-41460500D01*
X117809000Y-41460500D01*
X117809000Y-41206500D01*
X117682000Y-41206500D01*
X117682000Y-40952500D01*
X117555000Y-40952500D01*
X117555000Y-40444500D01*
X117428000Y-40444500D01*
X117428000Y-39047500D01*
X117555000Y-39047500D01*
X117555000Y-38793500D01*
X117682000Y-38793500D01*
X117682000Y-38666500D01*
X117809000Y-38666500D01*
X117809000Y-38539500D01*
X117936000Y-38539500D01*
X117936000Y-38412500D01*
X118063000Y-38412500D01*
X118063000Y-38285500D01*
X118190000Y-38285500D01*
X118190000Y-38158500D01*
X118317000Y-38158500D01*
X118317000Y-38031500D01*
X118444000Y-38031500D01*
X118444000Y-37904500D01*
X118698000Y-37904500D01*
X118698000Y-37777500D01*
X118952000Y-37777500D01*
X118952000Y-37650500D01*
X119079000Y-37650500D01*
X119079000Y-37523500D01*
X119333000Y-37523500D01*
X119333000Y-37396500D01*
X118952000Y-37396500D01*
X118952000Y-37523500D01*
X118698000Y-37523500D01*
X118698000Y-37650500D01*
X118571000Y-37650500D01*
X118571000Y-37777500D01*
X118444000Y-37777500D01*
X118444000Y-37904500D01*
X118063000Y-37904500D01*
X118063000Y-38031500D01*
X117936000Y-38031500D01*
X117936000Y-38158500D01*
X117809000Y-38158500D01*
X117809000Y-38412500D01*
X117555000Y-38412500D01*
X117555000Y-38666500D01*
X117428000Y-38666500D01*
X117428000Y-38793500D01*
X117301000Y-38793500D01*
X117301000Y-39047500D01*
X117174000Y-39047500D01*
X117174000Y-40698500D01*
X117301000Y-40698500D01*
X117301000Y-40698500D01*
G37*
X117301000Y-40698500D02*
X117301000Y-41079500D01*
X117428000Y-41079500D01*
X117428000Y-41587500D01*
X117555000Y-41587500D01*
X117555000Y-41714500D01*
X117682000Y-41714500D01*
X117682000Y-41841500D01*
X117809000Y-41841500D01*
X117809000Y-41968500D01*
X117936000Y-41968500D01*
X117936000Y-42095500D01*
X118190000Y-42095500D01*
X118190000Y-42222500D01*
X118444000Y-42222500D01*
X118444000Y-42349500D01*
X118698000Y-42349500D01*
X118698000Y-42476500D01*
X118952000Y-42476500D01*
X118952000Y-42603500D01*
X119206000Y-42603500D01*
X119206000Y-42730500D01*
X119460000Y-42730500D01*
X119460000Y-42857500D01*
X119841000Y-42857500D01*
X119841000Y-42984500D01*
X120349000Y-42984500D01*
X120349000Y-43111500D01*
X120857000Y-43111500D01*
X120857000Y-43365500D01*
X124286000Y-43365500D01*
X124286000Y-43111500D01*
X124540000Y-43111500D01*
X124540000Y-42984500D01*
X124921000Y-42984500D01*
X124921000Y-42857500D01*
X125175000Y-42857500D01*
X125175000Y-42730500D01*
X125429000Y-42730500D01*
X125429000Y-42603500D01*
X125556000Y-42603500D01*
X125556000Y-42476500D01*
X125810000Y-42476500D01*
X125810000Y-42349500D01*
X126064000Y-42349500D01*
X126064000Y-42222500D01*
X126191000Y-42222500D01*
X126191000Y-42095500D01*
X126318000Y-42095500D01*
X126318000Y-41841500D01*
X126445000Y-41841500D01*
X126445000Y-41333500D01*
X126572000Y-41333500D01*
X126572000Y-40952500D01*
X126699000Y-40952500D01*
X126699000Y-40444500D01*
X126826000Y-40444500D01*
X126826000Y-38920500D01*
X126699000Y-38920500D01*
X126699000Y-38793500D01*
X126572000Y-38793500D01*
X126572000Y-38412500D01*
X126445000Y-38412500D01*
X126445000Y-38285500D01*
X126318000Y-38285500D01*
X126318000Y-38031500D01*
X126191000Y-38031500D01*
X126191000Y-37777500D01*
X126064000Y-37777500D01*
X126064000Y-37650500D01*
X125937000Y-37650500D01*
X125937000Y-37523500D01*
X125810000Y-37523500D01*
X125810000Y-37650500D01*
X125810000Y-37777500D01*
X125937000Y-37777500D01*
X125937000Y-38031500D01*
X126064000Y-38031500D01*
X126064000Y-38158500D01*
X126191000Y-38158500D01*
X126191000Y-38285500D01*
X126318000Y-38285500D01*
X126318000Y-38539500D01*
X126445000Y-38539500D01*
X126445000Y-38793500D01*
X126572000Y-38793500D01*
X126572000Y-39301500D01*
X126699000Y-39301500D01*
X126699000Y-40063500D01*
X126572000Y-40063500D01*
X126572000Y-40190500D01*
X126445000Y-40190500D01*
X126445000Y-40444500D01*
X126572000Y-40444500D01*
X126572000Y-40571500D01*
X126445000Y-40571500D01*
X126445000Y-40698500D01*
X126318000Y-40698500D01*
X126318000Y-40825500D01*
X126191000Y-40825500D01*
X126191000Y-41079500D01*
X126064000Y-41079500D01*
X126064000Y-41587500D01*
X125810000Y-41587500D01*
X125810000Y-41841500D01*
X126064000Y-41841500D01*
X126064000Y-41968500D01*
X125810000Y-41968500D01*
X125810000Y-42095500D01*
X125683000Y-42095500D01*
X125683000Y-42222500D01*
X125429000Y-42222500D01*
X125429000Y-42349500D01*
X125175000Y-42349500D01*
X125175000Y-42476500D01*
X124921000Y-42476500D01*
X124921000Y-42603500D01*
X124413000Y-42603500D01*
X124413000Y-42730500D01*
X123778000Y-42730500D01*
X123778000Y-42857500D01*
X122889000Y-42857500D01*
X122889000Y-42730500D01*
X122508000Y-42730500D01*
X122508000Y-42603500D01*
X122889000Y-42603500D01*
X122889000Y-42476500D01*
X123651000Y-42476500D01*
X123651000Y-42349500D01*
X124540000Y-42349500D01*
X124540000Y-42222500D01*
X124794000Y-42222500D01*
X124794000Y-42095500D01*
X125048000Y-42095500D01*
X125048000Y-41968500D01*
X124540000Y-41968500D01*
X124540000Y-41714500D01*
X124794000Y-41714500D01*
X124794000Y-41587500D01*
X125048000Y-41587500D01*
X125048000Y-41460500D01*
X124921000Y-41460500D01*
X124921000Y-41333500D01*
X125048000Y-41333500D01*
X125048000Y-41206500D01*
X125429000Y-41206500D01*
X125429000Y-41333500D01*
X125556000Y-41333500D01*
X125556000Y-41206500D01*
X125810000Y-41206500D01*
X125810000Y-41333500D01*
X125937000Y-41333500D01*
X125937000Y-40825500D01*
X125810000Y-40825500D01*
X125810000Y-41079500D01*
X125429000Y-41079500D01*
X125429000Y-40952500D01*
X125302000Y-40952500D01*
X125302000Y-40825500D01*
X125048000Y-40825500D01*
X125048000Y-40952500D01*
X124921000Y-40952500D01*
X124921000Y-41079500D01*
X124794000Y-41079500D01*
X124794000Y-41206500D01*
X124667000Y-41206500D01*
X124667000Y-41333500D01*
X124413000Y-41333500D01*
X124413000Y-41206500D01*
X124286000Y-41206500D01*
X124286000Y-40952500D01*
X123397000Y-40952500D01*
X123397000Y-41079500D01*
X123270000Y-41079500D01*
X123270000Y-41460500D01*
X123143000Y-41460500D01*
X123143000Y-41714500D01*
X122762000Y-41714500D01*
X122762000Y-41587500D01*
X122635000Y-41587500D01*
X122635000Y-41460500D01*
X122508000Y-41460500D01*
X122508000Y-41968500D01*
X122381000Y-41968500D01*
X122381000Y-42095500D01*
X122254000Y-42095500D01*
X122254000Y-42603500D01*
X122381000Y-42603500D01*
X122381000Y-42730500D01*
X122254000Y-42730500D01*
X122254000Y-42603500D01*
X122254000Y-42095500D01*
X121746000Y-42095500D01*
X121746000Y-42476500D01*
X122127000Y-42476500D01*
X122127000Y-42603500D01*
X121746000Y-42603500D01*
X121746000Y-42476500D01*
X121746000Y-42095500D01*
X121492000Y-42095500D01*
X121492000Y-41968500D01*
X121365000Y-41968500D01*
X121365000Y-41714500D01*
X121238000Y-41714500D01*
X121238000Y-41587500D01*
X121111000Y-41587500D01*
X121111000Y-41460500D01*
X120984000Y-41460500D01*
X120984000Y-41206500D01*
X120857000Y-41206500D01*
X120857000Y-40825500D01*
X120730000Y-40825500D01*
X120730000Y-40444500D01*
X120603000Y-40444500D01*
X120603000Y-40063500D01*
X120476000Y-40063500D01*
X120476000Y-39682500D01*
X120603000Y-39682500D01*
X120603000Y-39301500D01*
X120730000Y-39301500D01*
X120730000Y-39174500D01*
X120857000Y-39174500D01*
X120857000Y-38920500D01*
X121111000Y-38920500D01*
X121111000Y-38793500D01*
X121238000Y-38793500D01*
X121238000Y-38666500D01*
X121365000Y-38666500D01*
X121365000Y-38539500D01*
X121492000Y-38539500D01*
X121492000Y-38920500D01*
X121365000Y-38920500D01*
X121365000Y-39301500D01*
X121238000Y-39301500D01*
X121238000Y-40571500D01*
X121365000Y-40571500D01*
X121365000Y-39809500D01*
X121492000Y-39809500D01*
X121492000Y-39428500D01*
X121619000Y-39428500D01*
X121619000Y-39301500D01*
X121746000Y-39301500D01*
X121746000Y-39174500D01*
X121873000Y-39174500D01*
X121873000Y-38920500D01*
X122127000Y-38920500D01*
X122127000Y-38793500D01*
X122381000Y-38793500D01*
X122381000Y-39047500D01*
X122254000Y-39047500D01*
X122254000Y-39301500D01*
X122127000Y-39301500D01*
X122127000Y-39428500D01*
X122000000Y-39428500D01*
X122000000Y-40571500D01*
X122127000Y-40571500D01*
X122127000Y-40698500D01*
X122254000Y-40698500D01*
X122254000Y-40825500D01*
X122381000Y-40825500D01*
X122381000Y-40952500D01*
X122635000Y-40952500D01*
X122635000Y-40571500D01*
X122508000Y-40571500D01*
X122508000Y-40190500D01*
X123143000Y-40190500D01*
X123143000Y-40063500D01*
X123270000Y-40063500D01*
X123270000Y-39936500D01*
X123143000Y-39936500D01*
X123143000Y-39301500D01*
X123270000Y-39301500D01*
X123270000Y-39174500D01*
X123397000Y-39174500D01*
X123397000Y-39047500D01*
X124032000Y-39047500D01*
X124032000Y-38666500D01*
X124159000Y-38666500D01*
X124159000Y-38539500D01*
X124413000Y-38539500D01*
X124413000Y-38793500D01*
X124794000Y-38793500D01*
X124794000Y-38920500D01*
X125048000Y-38920500D01*
X125048000Y-39047500D01*
X125175000Y-39047500D01*
X125175000Y-39301500D01*
X125302000Y-39301500D01*
X125302000Y-39047500D01*
X125429000Y-39047500D01*
X125429000Y-38920500D01*
X125810000Y-38920500D01*
X125810000Y-39301500D01*
X125937000Y-39301500D01*
X125937000Y-39428500D01*
X125429000Y-39428500D01*
X125429000Y-40444500D01*
X125175000Y-40444500D01*
X125175000Y-40571500D01*
X125683000Y-40571500D01*
X125683000Y-40698500D01*
X125937000Y-40698500D01*
X125937000Y-40571500D01*
X126064000Y-40571500D01*
X126064000Y-40444500D01*
X125810000Y-40444500D01*
X125810000Y-40317500D01*
X125683000Y-40317500D01*
X125683000Y-40190500D01*
X125556000Y-40190500D01*
X125556000Y-39936500D01*
X125937000Y-39936500D01*
X125937000Y-40063500D01*
X126064000Y-40063500D01*
X126064000Y-39809500D01*
X126191000Y-39809500D01*
X126191000Y-39682500D01*
X126064000Y-39682500D01*
X126064000Y-38920500D01*
X125937000Y-38920500D01*
X125937000Y-38666500D01*
X125810000Y-38666500D01*
X125810000Y-38412500D01*
X125683000Y-38412500D01*
X125683000Y-38285500D01*
X125556000Y-38285500D01*
X125556000Y-38158500D01*
X125302000Y-38158500D01*
X125302000Y-38031500D01*
X125175000Y-38031500D01*
X125175000Y-38285500D01*
X125429000Y-38285500D01*
X125429000Y-38539500D01*
X125302000Y-38539500D01*
X125302000Y-38412500D01*
X125175000Y-38412500D01*
X125175000Y-38285500D01*
X125175000Y-38031500D01*
X125048000Y-38031500D01*
X125048000Y-37904500D01*
X124921000Y-37904500D01*
X124921000Y-37777500D01*
X125429000Y-37777500D01*
X125429000Y-37904500D01*
X125683000Y-37904500D01*
X125683000Y-37650500D01*
X125810000Y-37650500D01*
X125810000Y-37523500D01*
X125810000Y-37396500D01*
X125683000Y-37396500D01*
X125683000Y-37269500D01*
X125429000Y-37269500D01*
X125429000Y-37015500D01*
X125175000Y-37015500D01*
X125175000Y-36888500D01*
X123905000Y-36888500D01*
X123905000Y-36761500D01*
X123651000Y-36761500D01*
X123651000Y-36634500D01*
X123270000Y-36634500D01*
X123270000Y-36888500D01*
X123397000Y-36888500D01*
X123397000Y-37015500D01*
X123270000Y-37015500D01*
X123270000Y-36888500D01*
X123270000Y-36634500D01*
X121746000Y-36634500D01*
X121746000Y-36888500D01*
X122508000Y-36888500D01*
X122508000Y-37142500D01*
X122635000Y-37142500D01*
X122635000Y-37269500D01*
X123651000Y-37269500D01*
X123651000Y-37396500D01*
X123778000Y-37396500D01*
X123778000Y-37269500D01*
X123905000Y-37269500D01*
X123905000Y-37142500D01*
X124921000Y-37142500D01*
X124921000Y-37269500D01*
X125302000Y-37269500D01*
X125302000Y-37396500D01*
X125556000Y-37396500D01*
X125556000Y-37523500D01*
X125683000Y-37523500D01*
X125683000Y-37650500D01*
X125429000Y-37650500D01*
X125429000Y-37523500D01*
X124667000Y-37523500D01*
X124667000Y-37396500D01*
X124286000Y-37396500D01*
X124286000Y-37269500D01*
X124032000Y-37269500D01*
X124032000Y-37523500D01*
X124413000Y-37523500D01*
X124413000Y-37650500D01*
X124286000Y-37650500D01*
X124286000Y-37777500D01*
X123778000Y-37777500D01*
X123778000Y-37650500D01*
X123397000Y-37650500D01*
X123397000Y-37523500D01*
X122762000Y-37523500D01*
X122762000Y-37396500D01*
X121746000Y-37396500D01*
X121746000Y-37269500D01*
X121111000Y-37269500D01*
X121111000Y-37142500D01*
X120984000Y-37142500D01*
X120984000Y-37015500D01*
X121746000Y-37015500D01*
X121746000Y-36888500D01*
X121746000Y-36634500D01*
X121111000Y-36634500D01*
X121111000Y-36761500D01*
X120603000Y-36761500D01*
X120603000Y-36888500D01*
X120222000Y-36888500D01*
X120222000Y-37015500D01*
X120222000Y-41333500D01*
X120349000Y-41333500D01*
X120349000Y-41460500D01*
X120222000Y-41460500D01*
X120222000Y-41333500D01*
X120222000Y-37015500D01*
X119714000Y-37015500D01*
X119714000Y-37142500D01*
X119460000Y-37142500D01*
X119460000Y-37269500D01*
X119333000Y-37269500D01*
X119333000Y-37396500D01*
X119587000Y-37396500D01*
X119587000Y-37650500D01*
X119460000Y-37650500D01*
X119460000Y-37777500D01*
X119333000Y-37777500D01*
X119333000Y-38031500D01*
X119460000Y-38031500D01*
X119460000Y-38158500D01*
X119587000Y-38158500D01*
X119587000Y-38285500D01*
X119714000Y-38285500D01*
X119714000Y-38412500D01*
X119587000Y-38412500D01*
X119587000Y-38539500D01*
X119206000Y-38539500D01*
X119206000Y-38158500D01*
X119333000Y-38158500D01*
X119333000Y-38031500D01*
X119333000Y-37777500D01*
X119206000Y-37777500D01*
X119206000Y-37904500D01*
X119079000Y-37904500D01*
X119079000Y-38158500D01*
X118952000Y-38158500D01*
X118952000Y-38412500D01*
X118952000Y-38666500D01*
X119333000Y-38666500D01*
X119333000Y-38920500D01*
X119460000Y-38920500D01*
X119460000Y-39047500D01*
X119333000Y-39047500D01*
X119333000Y-39301500D01*
X118952000Y-39301500D01*
X118952000Y-38666500D01*
X118952000Y-38412500D01*
X118825000Y-38412500D01*
X118825000Y-38793500D01*
X118825000Y-39555500D01*
X119206000Y-39555500D01*
X119206000Y-39682500D01*
X119460000Y-39682500D01*
X119460000Y-40063500D01*
X119206000Y-40063500D01*
X119206000Y-40444500D01*
X119841000Y-40444500D01*
X119841000Y-40825500D01*
X119333000Y-40825500D01*
X119333000Y-40698500D01*
X119206000Y-40698500D01*
X119206000Y-40444500D01*
X119206000Y-40063500D01*
X118952000Y-40063500D01*
X118952000Y-39936500D01*
X118825000Y-39936500D01*
X118825000Y-39555500D01*
X118825000Y-38793500D01*
X118698000Y-38793500D01*
X118698000Y-38920500D01*
X118571000Y-38920500D01*
X118571000Y-39428500D01*
X118444000Y-39428500D01*
X118444000Y-39936500D01*
X118571000Y-39936500D01*
X118571000Y-40063500D01*
X118698000Y-40063500D01*
X118698000Y-40571500D01*
X118825000Y-40571500D01*
X118825000Y-40698500D01*
X119079000Y-40698500D01*
X119079000Y-40825500D01*
X118952000Y-40825500D01*
X118952000Y-40952500D01*
X118825000Y-40952500D01*
X118825000Y-40825500D01*
X118698000Y-40825500D01*
X118698000Y-40698500D01*
X118571000Y-40698500D01*
X118571000Y-40571500D01*
X118317000Y-40571500D01*
X118317000Y-39047500D01*
X118444000Y-39047500D01*
X118444000Y-38793500D01*
X118571000Y-38793500D01*
X118571000Y-38666500D01*
X118444000Y-38666500D01*
X118444000Y-38539500D01*
X118317000Y-38539500D01*
X118317000Y-38666500D01*
X118190000Y-38666500D01*
X118190000Y-39047500D01*
X118063000Y-39047500D01*
X118063000Y-40063500D01*
X118190000Y-40063500D01*
X118190000Y-41206500D01*
X118317000Y-41206500D01*
X118317000Y-41460500D01*
X118571000Y-41460500D01*
X118571000Y-41587500D01*
X118444000Y-41587500D01*
X118444000Y-41714500D01*
X118317000Y-41714500D01*
X118317000Y-41587500D01*
X117936000Y-41587500D01*
X117936000Y-41460500D01*
X117809000Y-41460500D01*
X117809000Y-41206500D01*
X117682000Y-41206500D01*
X117682000Y-40952500D01*
X117555000Y-40952500D01*
X117555000Y-40444500D01*
X117428000Y-40444500D01*
X117428000Y-39047500D01*
X117555000Y-39047500D01*
X117555000Y-38793500D01*
X117682000Y-38793500D01*
X117682000Y-38666500D01*
X117809000Y-38666500D01*
X117809000Y-38539500D01*
X117936000Y-38539500D01*
X117936000Y-38412500D01*
X118063000Y-38412500D01*
X118063000Y-38285500D01*
X118190000Y-38285500D01*
X118190000Y-38158500D01*
X118317000Y-38158500D01*
X118317000Y-38031500D01*
X118444000Y-38031500D01*
X118444000Y-37904500D01*
X118698000Y-37904500D01*
X118698000Y-37777500D01*
X118952000Y-37777500D01*
X118952000Y-37650500D01*
X119079000Y-37650500D01*
X119079000Y-37523500D01*
X119333000Y-37523500D01*
X119333000Y-37396500D01*
X118952000Y-37396500D01*
X118952000Y-37523500D01*
X118698000Y-37523500D01*
X118698000Y-37650500D01*
X118571000Y-37650500D01*
X118571000Y-37777500D01*
X118444000Y-37777500D01*
X118444000Y-37904500D01*
X118063000Y-37904500D01*
X118063000Y-38031500D01*
X117936000Y-38031500D01*
X117936000Y-38158500D01*
X117809000Y-38158500D01*
X117809000Y-38412500D01*
X117555000Y-38412500D01*
X117555000Y-38666500D01*
X117428000Y-38666500D01*
X117428000Y-38793500D01*
X117301000Y-38793500D01*
X117301000Y-39047500D01*
X117174000Y-39047500D01*
X117174000Y-40698500D01*
X117301000Y-40698500D01*
D13*
X68250000Y-59995000D02*
X68250000Y-61995000D01*
X69500000Y-59995000D02*
X68250000Y-59995000D01*
X75250000Y-68405000D02*
X75250000Y-67655000D01*
X70950000Y-68405000D02*
X75250000Y-68405000D01*
X70950000Y-67655000D02*
X70950000Y-68405000D01*
X70600000Y-67655000D02*
X70950000Y-67655000D01*
X70600000Y-68155000D02*
X70600000Y-67655000D01*
X69600000Y-68405000D02*
X70600000Y-68155000D01*
X69600000Y-65405000D02*
X69600000Y-68405000D01*
X70600000Y-65655000D02*
X69600000Y-65405000D01*
X70600000Y-66155000D02*
X70600000Y-65655000D01*
X70950000Y-66155000D02*
X70600000Y-66155000D01*
X70950000Y-65405000D02*
X70950000Y-66155000D01*
X75250000Y-65405000D02*
X70950000Y-65405000D01*
X75250000Y-66155000D02*
X75250000Y-65405000D01*
X75250000Y-64595000D02*
X75250000Y-63845000D01*
X70950000Y-64595000D02*
X75250000Y-64595000D01*
X70950000Y-63845000D02*
X70950000Y-64595000D01*
X70600000Y-63845000D02*
X70950000Y-63845000D01*
X70600000Y-64345000D02*
X70600000Y-63845000D01*
X69600000Y-64595000D02*
X70600000Y-64345000D01*
X69600000Y-61595000D02*
X69600000Y-64595000D01*
X70600000Y-61845000D02*
X69600000Y-61595000D01*
X70600000Y-62345000D02*
X70600000Y-61845000D01*
X70950000Y-62345000D02*
X70600000Y-62345000D01*
X70950000Y-61595000D02*
X70950000Y-62345000D01*
X75250000Y-61595000D02*
X70950000Y-61595000D01*
X75250000Y-62345000D02*
X75250000Y-61595000D01*
X76110000Y-69615000D02*
X68640000Y-69615000D01*
X76110000Y-60385000D02*
X76110000Y-69615000D01*
X68640000Y-60385000D02*
X76110000Y-60385000D01*
X75249845Y-67654647D02*
G75*
G02X75250000Y-66155000I1700155J749647D01*
G01*
X68640000Y-69615000D02*
X68640000Y-60385000D01*
X75249845Y-63844647D02*
G75*
G02X75250000Y-62345000I1700155J749647D01*
G01*
X134750155Y-53655353D02*
G75*
G02X134750000Y-55155000I-1700155J-749647D01*
G01*
X141360000Y-47885000D02*
X141360000Y-57115000D01*
X134750155Y-49845353D02*
G75*
G02X134750000Y-51345000I-1700155J-749647D01*
G01*
X141360000Y-57115000D02*
X133890000Y-57115000D01*
X133890000Y-57115000D02*
X133890000Y-47885000D01*
X133890000Y-47885000D02*
X141360000Y-47885000D01*
X134750000Y-55155000D02*
X134750000Y-55905000D01*
X134750000Y-55905000D02*
X139050000Y-55905000D01*
X139050000Y-55905000D02*
X139050000Y-55155000D01*
X139050000Y-55155000D02*
X139400000Y-55155000D01*
X139400000Y-55155000D02*
X139400000Y-55655000D01*
X139400000Y-55655000D02*
X140400000Y-55905000D01*
X140400000Y-55905000D02*
X140400000Y-52905000D01*
X140400000Y-52905000D02*
X139400000Y-53155000D01*
X139400000Y-53155000D02*
X139400000Y-53655000D01*
X139400000Y-53655000D02*
X139050000Y-53655000D01*
X139050000Y-53655000D02*
X139050000Y-52905000D01*
X139050000Y-52905000D02*
X134750000Y-52905000D01*
X134750000Y-52905000D02*
X134750000Y-53655000D01*
X134750000Y-51345000D02*
X134750000Y-52095000D01*
X134750000Y-52095000D02*
X139050000Y-52095000D01*
X139050000Y-52095000D02*
X139050000Y-51345000D01*
X139050000Y-51345000D02*
X139400000Y-51345000D01*
X139400000Y-51345000D02*
X139400000Y-51845000D01*
X139400000Y-51845000D02*
X140400000Y-52095000D01*
X140400000Y-52095000D02*
X140400000Y-49095000D01*
X140400000Y-49095000D02*
X139400000Y-49345000D01*
X139400000Y-49345000D02*
X139400000Y-49845000D01*
X139400000Y-49845000D02*
X139050000Y-49845000D01*
X139050000Y-49845000D02*
X139050000Y-49095000D01*
X139050000Y-49095000D02*
X134750000Y-49095000D01*
X134750000Y-49095000D02*
X134750000Y-49845000D01*
X140500000Y-57505000D02*
X141750000Y-57505000D01*
X141750000Y-57505000D02*
X141750000Y-55505000D01*
X141750000Y-70005000D02*
X141750000Y-68005000D01*
X140500000Y-70005000D02*
X141750000Y-70005000D01*
X134750000Y-61595000D02*
X134750000Y-62345000D01*
X139050000Y-61595000D02*
X134750000Y-61595000D01*
X139050000Y-62345000D02*
X139050000Y-61595000D01*
X139400000Y-62345000D02*
X139050000Y-62345000D01*
X139400000Y-61845000D02*
X139400000Y-62345000D01*
X140400000Y-61595000D02*
X139400000Y-61845000D01*
X140400000Y-64595000D02*
X140400000Y-61595000D01*
X139400000Y-64345000D02*
X140400000Y-64595000D01*
X139400000Y-63845000D02*
X139400000Y-64345000D01*
X139050000Y-63845000D02*
X139400000Y-63845000D01*
X139050000Y-64595000D02*
X139050000Y-63845000D01*
X134750000Y-64595000D02*
X139050000Y-64595000D01*
X134750000Y-63845000D02*
X134750000Y-64595000D01*
X134750000Y-65405000D02*
X134750000Y-66155000D01*
X139050000Y-65405000D02*
X134750000Y-65405000D01*
X139050000Y-66155000D02*
X139050000Y-65405000D01*
X139400000Y-66155000D02*
X139050000Y-66155000D01*
X139400000Y-65655000D02*
X139400000Y-66155000D01*
X140400000Y-65405000D02*
X139400000Y-65655000D01*
X140400000Y-68405000D02*
X140400000Y-65405000D01*
X139400000Y-68155000D02*
X140400000Y-68405000D01*
X139400000Y-67655000D02*
X139400000Y-68155000D01*
X139050000Y-67655000D02*
X139400000Y-67655000D01*
X139050000Y-68405000D02*
X139050000Y-67655000D01*
X134750000Y-68405000D02*
X139050000Y-68405000D01*
X134750000Y-67655000D02*
X134750000Y-68405000D01*
X133890000Y-60385000D02*
X141360000Y-60385000D01*
X133890000Y-69615000D02*
X133890000Y-60385000D01*
X141360000Y-69615000D02*
X133890000Y-69615000D01*
X134750155Y-62345353D02*
G75*
G02X134750000Y-63845000I-1700155J-749647D01*
G01*
X141360000Y-60385000D02*
X141360000Y-69615000D01*
X134750155Y-66155353D02*
G75*
G02X134750000Y-67655000I-1700155J-749647D01*
G01*
X134750155Y-78655353D02*
G75*
G02X134750000Y-80155000I-1700155J-749647D01*
G01*
X141360000Y-72885000D02*
X141360000Y-82115000D01*
X134750155Y-74845353D02*
G75*
G02X134750000Y-76345000I-1700155J-749647D01*
G01*
X141360000Y-82115000D02*
X133890000Y-82115000D01*
X133890000Y-82115000D02*
X133890000Y-72885000D01*
X133890000Y-72885000D02*
X141360000Y-72885000D01*
X134750000Y-80155000D02*
X134750000Y-80905000D01*
X134750000Y-80905000D02*
X139050000Y-80905000D01*
X139050000Y-80905000D02*
X139050000Y-80155000D01*
X139050000Y-80155000D02*
X139400000Y-80155000D01*
X139400000Y-80155000D02*
X139400000Y-80655000D01*
X139400000Y-80655000D02*
X140400000Y-80905000D01*
X140400000Y-80905000D02*
X140400000Y-77905000D01*
X140400000Y-77905000D02*
X139400000Y-78155000D01*
X139400000Y-78155000D02*
X139400000Y-78655000D01*
X139400000Y-78655000D02*
X139050000Y-78655000D01*
X139050000Y-78655000D02*
X139050000Y-77905000D01*
X139050000Y-77905000D02*
X134750000Y-77905000D01*
X134750000Y-77905000D02*
X134750000Y-78655000D01*
X134750000Y-76345000D02*
X134750000Y-77095000D01*
X134750000Y-77095000D02*
X139050000Y-77095000D01*
X139050000Y-77095000D02*
X139050000Y-76345000D01*
X139050000Y-76345000D02*
X139400000Y-76345000D01*
X139400000Y-76345000D02*
X139400000Y-76845000D01*
X139400000Y-76845000D02*
X140400000Y-77095000D01*
X140400000Y-77095000D02*
X140400000Y-74095000D01*
X140400000Y-74095000D02*
X139400000Y-74345000D01*
X139400000Y-74345000D02*
X139400000Y-74845000D01*
X139400000Y-74845000D02*
X139050000Y-74845000D01*
X139050000Y-74845000D02*
X139050000Y-74095000D01*
X139050000Y-74095000D02*
X134750000Y-74095000D01*
X134750000Y-74095000D02*
X134750000Y-74845000D01*
X140500000Y-82505000D02*
X141750000Y-82505000D01*
X141750000Y-82505000D02*
X141750000Y-80505000D01*
D10*
X66671428Y-62475952D02*
X66671428Y-61714047D01*
X66671428Y-68285952D02*
X66671428Y-67524047D01*
X67052380Y-67905000D02*
X66290476Y-67905000D01*
X143471428Y-49975952D02*
X143471428Y-49214047D01*
X143852380Y-49595000D02*
X143090476Y-49595000D01*
X143471428Y-55785952D02*
X143471428Y-55024047D01*
X143471428Y-68285952D02*
X143471428Y-67524047D01*
X143471428Y-62475952D02*
X143471428Y-61714047D01*
X143852380Y-62095000D02*
X143090476Y-62095000D01*
X143471428Y-74975952D02*
X143471428Y-74214047D01*
X143852380Y-74595000D02*
X143090476Y-74595000D01*
X143471428Y-80785952D02*
X143471428Y-80024047D01*
M02*
