M48
; DRILL file {KiCad (5.1.2-1)-1} date Wednesday, 05 July 2023 at 23:23:52
; FORMAT={-:-/ absolute / metric / decimal}
; #@! TF.CreationDate,2023-07-05T23:23:52-04:00
; #@! TF.GenerationSoftware,Kicad,Pcbnew,(5.1.2-1)-1
; #@! TF.FileFunction,Plated,1,2,PTH
FMAT,2
METRIC
T1C0.300
T2C0.400
T3C1.000
T4C1.200
T5C3.300
%
G90
G05
T1
X109.5Y-59.8
X109.5Y-61.1
X109.5Y-62.4
X109.5Y-63.7
X109.5Y-65.0
X109.5Y-66.3
X109.5Y-67.6
X109.5Y-68.9
X109.5Y-70.2
X111.0Y-59.8
X111.0Y-61.1
X111.0Y-62.4
X111.0Y-63.7
X111.0Y-65.0
X111.0Y-66.3
X111.0Y-67.6
X111.0Y-68.9
X111.0Y-70.2
X112.5Y-59.8
X112.5Y-61.1
X112.5Y-62.4
X112.5Y-63.7
X112.5Y-65.0
X112.5Y-66.3
X112.5Y-67.6
X112.5Y-68.9
X112.5Y-70.2
X114.0Y-59.8
X114.0Y-61.1
X114.0Y-62.4
X114.0Y-63.7
X114.0Y-65.0
X114.0Y-66.3
X114.0Y-67.6
X114.0Y-68.9
X114.0Y-70.2
T2
X65.75Y-46.5
X66.75Y-46.5
X67.75Y-46.5
X67.75Y-51.0
X68.75Y-46.5
X68.75Y-51.0
X69.75Y-46.5
X69.75Y-49.0
X69.75Y-50.0
X69.75Y-51.0
X70.75Y-49.0
X70.75Y-50.0
X70.75Y-51.0
X70.75Y-52.0
X70.75Y-53.0
X70.75Y-54.0
X71.75Y-49.0
X71.75Y-50.0
X71.75Y-51.0
X71.75Y-52.0
X71.75Y-53.0
X71.75Y-54.0
X72.75Y-49.0
X72.75Y-50.0
X72.75Y-51.0
X73.75Y-49.0
X73.75Y-50.0
X74.25Y-78.5
X74.25Y-79.5
X74.25Y-80.5
X74.75Y-49.0
X75.25Y-78.5
X76.25Y-78.5
X82.804Y-88.456
X84.75Y-40.75
X84.75Y-41.75
X84.75Y-45.75
X85.75Y-40.75
X85.75Y-41.75
X85.75Y-45.75
X86.75Y-40.75
X86.75Y-41.75
X86.75Y-45.75
X87.312Y-52.832
X87.312Y-72.072
X87.63Y-64.975
X87.75Y-40.75
X87.75Y-41.75
X87.75Y-42.75
X87.75Y-43.75
X87.75Y-44.75
X87.75Y-45.75
X88.709Y-64.975
X90.106Y-84.582
X90.868Y-63.309
X90.868Y-82.55
X91.829Y-54.864
X91.948Y-74.105
X93.853Y-84.582
X94.107Y-80.581
X94.17Y-61.277
X94.17Y-64.389
X94.833Y-55.844
X95.545Y-54.106
X96.266Y-88.138
X98.361Y-41.593
X98.393Y-65.881
X100.457Y-59.563
X100.457Y-62.103
X100.457Y-69.723
X101.219Y-64.643
X101.282Y-67.183
X103.886Y-41.593
X105.494Y-63.66
X105.537Y-62.103
X105.727Y-59.627
X105.816Y-69.061
X106.833Y-58.833
X106.934Y-57.658
X107.632Y-41.593
X111.633Y-72.263
X111.633Y-74.041
X111.633Y-75.819
X111.633Y-79.375
X111.633Y-82.931
X111.76Y-46.99
X111.76Y-48.768
X111.76Y-52.324
X111.76Y-55.88
X113.602Y-55.435
X113.602Y-74.549
X121.596Y-49.111
X121.596Y-53.111
X121.608Y-77.016
X121.608Y-81.016
X122.047Y-55.88
X122.047Y-60.96
X122.047Y-69.151
X122.047Y-74.041
X122.596Y-49.111
X122.596Y-53.111
X122.608Y-77.016
X122.608Y-81.016
X123.126Y-54.864
X123.126Y-59.944
X123.126Y-70.167
X123.126Y-75.057
X123.596Y-49.111
X123.596Y-53.111
X123.608Y-77.016
X123.608Y-81.016
X124.596Y-49.111
X124.596Y-50.111
X124.596Y-51.111
X124.596Y-52.111
X124.596Y-53.111
X124.608Y-77.016
X124.608Y-78.016
X124.608Y-79.016
X124.608Y-80.016
X124.608Y-81.016
T3
X129.25Y-48.5
X129.25Y-51.04
X129.25Y-53.58
X129.25Y-56.12
X129.25Y-58.66
X129.25Y-61.2
X129.25Y-63.74
X129.25Y-66.28
X129.25Y-68.82
X129.25Y-71.36
X129.25Y-73.9
X129.25Y-76.44
X129.25Y-78.98
X129.25Y-81.52
X81.25Y-48.5
X81.25Y-51.04
X81.25Y-53.58
X81.25Y-56.12
X81.25Y-58.66
X81.25Y-61.2
X81.25Y-63.74
X81.25Y-66.28
X81.25Y-68.82
X81.25Y-71.36
X81.25Y-73.9
X81.25Y-76.44
X81.25Y-78.98
X81.25Y-81.52
T4
X73.0Y-63.095
X73.0Y-63.095
X73.0Y-66.905
X73.0Y-66.905
X137.0Y-50.595
X137.0Y-50.595
X137.0Y-54.405
X137.0Y-54.405
X137.0Y-63.095
X137.0Y-63.095
X137.0Y-66.905
X137.0Y-66.905
X137.0Y-75.595
X137.0Y-75.595
X137.0Y-79.405
X137.0Y-79.405
T5
X70.0Y-40.0
X70.0Y-90.0
X140.0Y-40.0
X140.0Y-90.0
T0
M30
